%TF.GenerationSoftware,KiCad,Pcbnew,(6.0.11)*%
%TF.CreationDate,2023-10-02T08:25:21-05:00*%
%TF.ProjectId,dropkick,64726f70-6b69-4636-9b2e-6b696361645f,rev?*%
%TF.SameCoordinates,Original*%
%TF.FileFunction,Copper,L2,Bot*%
%TF.FilePolarity,Positive*%
%FSLAX46Y46*%
G04 Gerber Fmt 4.6, Leading zero omitted, Abs format (unit mm)*
G04 Created by KiCad (PCBNEW (6.0.11)) date 2023-10-02 08:25:21*
%MOMM*%
%LPD*%
G01*
G04 APERTURE LIST*
%TA.AperFunction,ComponentPad*%
%ADD10C,3.200000*%
%TD*%
%TA.AperFunction,ComponentPad*%
%ADD11O,2.400000X1.200000*%
%TD*%
%TA.AperFunction,ComponentPad*%
%ADD12R,2.500000X2.500000*%
%TD*%
%TA.AperFunction,ComponentPad*%
%ADD13R,1.700000X1.700000*%
%TD*%
%TA.AperFunction,ComponentPad*%
%ADD14O,1.700000X1.700000*%
%TD*%
%TA.AperFunction,SMDPad,CuDef*%
%ADD15R,1.500000X0.700000*%
%TD*%
%TA.AperFunction,SMDPad,CuDef*%
%ADD16R,1.400000X1.800000*%
%TD*%
%TA.AperFunction,SMDPad,CuDef*%
%ADD17R,1.900000X1.400000*%
%TD*%
%TA.AperFunction,SMDPad,CuDef*%
%ADD18R,4.600000X1.000000*%
%TD*%
%TA.AperFunction,SMDPad,CuDef*%
%ADD19R,3.400000X1.600000*%
%TD*%
%TA.AperFunction,SMDPad,CuDef*%
%ADD20R,1.092200X2.006600*%
%TD*%
%TA.AperFunction,ComponentPad*%
%ADD21C,1.397000*%
%TD*%
%TA.AperFunction,SMDPad,CuDef*%
%ADD22R,0.650000X2.760000*%
%TD*%
%TA.AperFunction,SMDPad,CuDef*%
%ADD23R,0.650000X2.750000*%
%TD*%
%TA.AperFunction,ViaPad*%
%ADD24C,0.800000*%
%TD*%
%TA.AperFunction,Conductor*%
%ADD25C,0.250000*%
%TD*%
G04 APERTURE END LIST*
D10*
%TO.P,H2,P$1*%
%TO.N,N/C*%
X105410000Y-46990000D03*
%TD*%
%TO.P,H1,P$1*%
%TO.N,N/C*%
X66040000Y-46990000D03*
%TD*%
%TO.P,H3,P$1*%
%TO.N,N/C*%
X66040000Y-92710000D03*
%TD*%
D11*
%TO.P,X1,SPRT@1,GND*%
%TO.N,GND*%
X94069600Y-49716600D03*
%TO.P,X1,SPRT@2,GND*%
X86269600Y-49716600D03*
D12*
%TO.P,X1,SPRT@3,GND*%
X93769600Y-46916600D03*
%TO.P,X1,SPRT@4,GND*%
X86569600Y-46916600D03*
%TD*%
D13*
%TO.P,J1,1,Pin_1*%
%TO.N,VBAT*%
X105580000Y-60750000D03*
D14*
%TO.P,J1,2,Pin_2*%
%TO.N,+3V3*%
X105580000Y-63290000D03*
%TO.P,J1,3,Pin_3*%
%TO.N,/SCL*%
X105580000Y-65830000D03*
%TO.P,J1,4,Pin_4*%
%TO.N,/SDA*%
X105580000Y-68370000D03*
%TO.P,J1,5,Pin_5*%
%TO.N,GND*%
X105580000Y-70910000D03*
%TO.P,J1,6,Pin_6*%
%TO.N,/AREF*%
X105580000Y-73450000D03*
%TO.P,J1,7,Pin_7*%
%TO.N,/A0*%
X105580000Y-75990000D03*
%TO.P,J1,8,Pin_8*%
%TO.N,/A1*%
X105580000Y-78530000D03*
%TO.P,J1,9,Pin_9*%
%TO.N,/D0*%
X105580000Y-81070000D03*
%TO.P,J1,10,Pin_10*%
%TO.N,/D1*%
X105580000Y-83610000D03*
%TD*%
D15*
%TO.P,X3,1,DAT2*%
%TO.N,unconnected-(X3-Pad1)*%
X69500000Y-66800000D03*
%TO.P,X3,2,CS*%
%TO.N,/SD_CS*%
X69900000Y-67900000D03*
%TO.P,X3,3,DATA_IN*%
%TO.N,/MOSI*%
X69500000Y-69000000D03*
%TO.P,X3,4,SD_VDD*%
%TO.N,+3V3*%
X69100000Y-70100000D03*
%TO.P,X3,5,SCLK*%
%TO.N,/SCK*%
X69500000Y-71200000D03*
%TO.P,X3,6,GND@3*%
%TO.N,GND*%
X69100000Y-72300000D03*
%TO.P,X3,7,DATA_OUT*%
%TO.N,/MISO*%
X69500000Y-73400000D03*
%TO.P,X3,8,DAT1*%
%TO.N,unconnected-(X3-Pad8)*%
X69500000Y-74500000D03*
D16*
%TO.P,X3,CD1,CARD_DETECT*%
%TO.N,/D7*%
X79700000Y-73800000D03*
%TO.P,X3,CD2,CARD_DETECT1*%
%TO.N,unconnected-(X3-PadCD2)*%
X79700000Y-67800000D03*
D17*
%TO.P,X3,MT1,GND@2*%
%TO.N,GND*%
X66600000Y-75400000D03*
%TO.P,X3,MT2,GND@1*%
X65700000Y-62200000D03*
%TD*%
D18*
%TO.P,X2,1,1*%
%TO.N,GND*%
X67350000Y-57550000D03*
%TO.P,X2,2,2*%
%TO.N,Net-(SW1-Pad2)*%
X67350000Y-55550000D03*
D19*
%TO.P,X2,NC1*%
%TO.N,N/C*%
X72550000Y-59950000D03*
%TO.P,X2,NC2*%
X72550000Y-53150000D03*
%TD*%
D20*
%TO.P,SW1,1,1*%
%TO.N,unconnected-(SW1-Pad1)*%
X71120000Y-49784000D03*
%TO.P,SW1,2,2*%
%TO.N,Net-(SW1-Pad2)*%
X73120001Y-49784000D03*
%TO.P,SW1,3,3*%
%TO.N,VBAT*%
X75120002Y-49784000D03*
D21*
%TO.P,SW1,4*%
%TO.N,N/C*%
X70994999Y-45683932D03*
%TO.P,SW1,5*%
X77244999Y-45683932D03*
%TD*%
D22*
%TO.P,JP1,1*%
%TO.N,+3V3*%
X97028000Y-52580000D03*
%TO.P,JP1,2*%
%TO.N,/SWDIO*%
X97028000Y-56640000D03*
%TO.P,JP1,3*%
%TO.N,GND*%
X98298000Y-52580000D03*
D23*
%TO.P,JP1,4*%
%TO.N,/SWCLK*%
X98298000Y-56640000D03*
D22*
%TO.P,JP1,5*%
%TO.N,GND*%
X99568000Y-52580000D03*
%TO.P,JP1,6*%
%TO.N,unconnected-(JP1-Pad6)*%
X99568000Y-56640000D03*
%TO.P,JP1,7*%
%TO.N,unconnected-(JP1-Pad7)*%
X100838000Y-52580000D03*
%TO.P,JP1,8*%
%TO.N,unconnected-(JP1-Pad8)*%
X100838000Y-56640000D03*
%TO.P,JP1,9*%
%TO.N,GND*%
X102108000Y-52580000D03*
%TO.P,JP1,10*%
%TO.N,/~{RESET}*%
X102108000Y-56640000D03*
%TD*%
D24*
%TO.N,/VBACKUP*%
X77625500Y-82169000D03*
X80900000Y-88700000D03*
%TO.N,GND*%
X80391000Y-65532000D03*
X99949000Y-50292000D03*
X80949200Y-49716600D03*
X101762100Y-68072000D03*
X69391000Y-58654300D03*
X103973100Y-59298100D03*
X67933900Y-74075900D03*
X77625500Y-61976000D03*
%TO.N,/AREF*%
X86140900Y-65053700D03*
%TO.N,+3V3*%
X83566000Y-80899000D03*
X94000000Y-55900000D03*
X68917100Y-75449502D03*
X90100000Y-75800000D03*
X67735500Y-69987500D03*
X84010500Y-89598500D03*
%TO.N,VBUS*%
X93100000Y-54400000D03*
X85812299Y-54687701D03*
%TO.N,VBAT*%
X88591700Y-53808100D03*
X103715200Y-51247000D03*
X81718400Y-68654000D03*
%TO.N,/D13*%
X102561100Y-49086000D03*
X98571600Y-66973700D03*
%TO.N,/D11*%
X90678000Y-66303200D03*
X80993900Y-60579000D03*
X73533000Y-58293000D03*
X83058000Y-60579000D03*
%TO.N,/SCL*%
X99058600Y-63975000D03*
X80081500Y-55094200D03*
X81103700Y-56508200D03*
%TO.N,/SDA*%
X79306100Y-54136700D03*
X98885950Y-65198050D03*
X81261100Y-57560800D03*
X103550000Y-66360000D03*
%TO.N,/D1*%
X104013000Y-80899000D03*
X87600000Y-74400000D03*
%TO.N,/D0*%
X88672900Y-74308900D03*
%TO.N,/MISO*%
X92850000Y-72025900D03*
%TO.N,/MOSI*%
X90947600Y-68981200D03*
%TO.N,/SCK*%
X92659800Y-69420100D03*
%TO.N,/A1*%
X86129300Y-67148000D03*
%TO.N,/A0*%
X88786600Y-65578700D03*
%TO.N,/~{RESET}*%
X92850000Y-58532500D03*
X96089500Y-56241800D03*
%TO.N,/SWCLK*%
X90622259Y-60094323D03*
%TO.N,/SWDIO*%
X89662000Y-59817000D03*
%TO.N,/SD_CS*%
X88770600Y-69434700D03*
%TO.N,/D7*%
X94228900Y-68399200D03*
%TD*%
D25*
%TO.N,/VBACKUP*%
X77625500Y-82705500D02*
X77978000Y-83058000D01*
X77978000Y-85778000D02*
X77978000Y-83058000D01*
X80900000Y-88700000D02*
X77978000Y-85778000D01*
X77625500Y-82169000D02*
X77625500Y-82705500D01*
%TO.N,GND*%
X67350000Y-57550000D02*
X69975300Y-57550000D01*
X99568000Y-52580000D02*
X99568000Y-50673000D01*
X101762100Y-68072000D02*
X102110100Y-68420000D01*
X69100000Y-72300000D02*
X68024700Y-72300000D01*
X86869600Y-49716600D02*
X80949200Y-49716600D01*
X67416400Y-73558400D02*
X67416400Y-72908300D01*
X67416300Y-73558400D02*
X66600000Y-74374700D01*
X100875000Y-50292000D02*
X102108000Y-51525000D01*
X69975300Y-58198000D02*
X69975300Y-57550000D01*
X67416400Y-73558400D02*
X67416300Y-73558400D01*
X66600000Y-75400000D02*
X66600000Y-74374700D01*
X67416400Y-72908300D02*
X68024700Y-72300000D01*
X68220400Y-58654300D02*
X69391000Y-58654300D01*
X103973100Y-56150400D02*
X103973100Y-59298100D01*
X102110100Y-68420000D02*
X103090000Y-68420000D01*
X102108000Y-52580000D02*
X102108000Y-54285300D01*
X99568000Y-50673000D02*
X99949000Y-50292000D01*
X67933900Y-74075900D02*
X67416400Y-73558400D01*
X102108000Y-54285300D02*
X103973100Y-56150400D01*
X69391000Y-58654300D02*
X69519000Y-58654300D01*
X102108000Y-51525000D02*
X102108000Y-52580000D01*
X65700000Y-62200000D02*
X65700000Y-61174700D01*
X98298000Y-52580000D02*
X99568000Y-52580000D01*
X65700000Y-61174700D02*
X68220400Y-58654300D01*
X103090000Y-68420000D02*
X105580000Y-70910000D01*
X69519000Y-58654300D02*
X69975300Y-58198000D01*
X93469600Y-49716600D02*
X86869600Y-49716600D01*
X99949000Y-50292000D02*
X100875000Y-50292000D01*
%TO.N,/AREF*%
X86140900Y-65053700D02*
X86350000Y-64844600D01*
X95416800Y-64844600D02*
X101532200Y-70960000D01*
X101532200Y-70960000D02*
X103090000Y-70960000D01*
X86350000Y-64844600D02*
X95416800Y-64844600D01*
X103090000Y-70960000D02*
X105580000Y-73450000D01*
%TO.N,+3V3*%
X87874604Y-75311000D02*
X88089103Y-75525499D01*
X69100000Y-70100000D02*
X68024700Y-70100000D01*
X67735500Y-69987500D02*
X67912200Y-69987500D01*
X95883000Y-52580000D02*
X97028000Y-52580000D01*
X84010500Y-89598500D02*
X83947000Y-89662000D01*
X83312000Y-75311000D02*
X87874604Y-75311000D01*
X83566000Y-89662000D02*
X83566000Y-80899000D01*
X95758000Y-54142000D02*
X95758000Y-52705000D01*
X83400000Y-75399000D02*
X83312000Y-75311000D01*
X83400000Y-80733000D02*
X83400000Y-75399000D01*
X95758000Y-52705000D02*
X95883000Y-52580000D01*
X83566000Y-80899000D02*
X83400000Y-80733000D01*
X68917100Y-75555100D02*
X68917100Y-75449502D01*
X69092599Y-75625001D02*
X81727999Y-75625001D01*
X89825499Y-75525499D02*
X90100000Y-75800000D01*
X88089103Y-75525499D02*
X89825499Y-75525499D01*
X68917100Y-75449502D02*
X69092599Y-75625001D01*
X81727999Y-75625001D02*
X82042000Y-75311000D01*
X67912200Y-69987500D02*
X68024700Y-70100000D01*
X82042000Y-75311000D02*
X83312000Y-75311000D01*
X83947000Y-89662000D02*
X83566000Y-89662000D01*
X94000000Y-55900000D02*
X95758000Y-54142000D01*
%TO.N,VBUS*%
X92600000Y-54900000D02*
X86024598Y-54900000D01*
X93100000Y-54400000D02*
X92600000Y-54900000D01*
X86024598Y-54900000D02*
X85812299Y-54687701D01*
%TO.N,VBAT*%
X81718400Y-59112400D02*
X81718400Y-68654000D01*
X96483000Y-49567000D02*
X100249305Y-49567000D01*
X88591700Y-53343600D02*
X81657400Y-53343600D01*
X88591700Y-53808100D02*
X88591700Y-53343600D01*
X96362300Y-49657000D02*
X96393000Y-49657000D01*
X75120000Y-49784000D02*
X75120000Y-51112600D01*
X100493305Y-49811000D02*
X102279200Y-49811000D01*
X81657400Y-53343600D02*
X78580800Y-53343600D01*
X92675700Y-53343600D02*
X96362300Y-49657000D01*
X79073895Y-53343600D02*
X78581100Y-53836395D01*
X88591700Y-53343600D02*
X92675700Y-53343600D01*
X102279200Y-49811000D02*
X103715200Y-51247000D01*
X77351000Y-53343600D02*
X75120000Y-51112600D01*
X96393000Y-49657000D02*
X96483000Y-49567000D01*
X78580800Y-53343600D02*
X77351000Y-53343600D01*
X78581100Y-55975100D02*
X81718400Y-59112400D01*
X100249305Y-49567000D02*
X100493305Y-49811000D01*
X78581100Y-53836395D02*
X78581100Y-55975100D01*
X81657400Y-53343600D02*
X79073895Y-53343600D01*
%TO.N,/D13*%
X102613700Y-49086000D02*
X102561100Y-49086000D01*
X106875400Y-68735610D02*
X106875400Y-53347700D01*
X106066499Y-69544511D02*
X106875400Y-68735610D01*
X105093501Y-69544511D02*
X106066499Y-69544511D01*
X106875400Y-53347700D02*
X102613700Y-49086000D01*
X98571600Y-66973700D02*
X98771500Y-66773800D01*
X102322790Y-66773800D02*
X105093501Y-69544511D01*
X98771500Y-66773800D02*
X102322790Y-66773800D01*
%TO.N,/D11*%
X76835000Y-59944000D02*
X77470000Y-60579000D01*
X75184000Y-58293000D02*
X76835000Y-59944000D01*
X77470000Y-60579000D02*
X80899000Y-60579000D01*
X86365095Y-66303200D02*
X83058000Y-62996105D01*
X83058000Y-62996105D02*
X83058000Y-60706000D01*
X90678000Y-66303200D02*
X86365095Y-66303200D01*
X73533000Y-58293000D02*
X75184000Y-58293000D01*
X83058000Y-60706000D02*
X83058000Y-60579000D01*
%TO.N,/SCL*%
X84067200Y-56508200D02*
X81103700Y-56508200D01*
X99058600Y-63975000D02*
X96043600Y-60960000D01*
X96043600Y-60960000D02*
X88519000Y-60960000D01*
X88519000Y-60960000D02*
X84067200Y-56508200D01*
X80081500Y-55486000D02*
X81103700Y-56508200D01*
X103725000Y-63975000D02*
X105580000Y-65830000D01*
X99058600Y-63975000D02*
X103725000Y-63975000D01*
X80081500Y-55094200D02*
X80081500Y-55486000D01*
%TO.N,/SDA*%
X81075100Y-57560800D02*
X81261100Y-57560800D01*
X88207000Y-61410000D02*
X84357800Y-57560800D01*
X103550000Y-66340000D02*
X103550000Y-66360000D01*
X98885950Y-65198050D02*
X95097900Y-61410000D01*
X102868100Y-65658100D02*
X105580000Y-68370000D01*
X98885950Y-65198050D02*
X99326000Y-65638100D01*
X79306100Y-55791800D02*
X81075100Y-57560800D01*
X99326000Y-65638100D02*
X102868100Y-65638100D01*
X79306100Y-54136700D02*
X79306100Y-55791800D01*
X102868100Y-65638100D02*
X102868100Y-65658100D01*
X95097900Y-61410000D02*
X88207000Y-61410000D01*
X84357800Y-57560800D02*
X81261100Y-57560800D01*
%TO.N,/D1*%
X104013000Y-80264000D02*
X104013000Y-80899000D01*
X88275499Y-75075499D02*
X87600000Y-74400000D01*
X104013000Y-80264000D02*
X98824499Y-75075499D01*
X98824499Y-75075499D02*
X88275499Y-75075499D01*
%TO.N,/D0*%
X88672900Y-74308900D02*
X98408900Y-74308900D01*
X100243600Y-75743600D02*
X98800000Y-74300000D01*
X98800000Y-74300000D02*
X98417800Y-74300000D01*
X98417800Y-74300000D02*
X98408900Y-74308900D01*
X100253600Y-75743600D02*
X100243600Y-75743600D01*
X100253600Y-75743600D02*
X105580000Y-81070000D01*
%TO.N,/MISO*%
X81402496Y-75061800D02*
X77361800Y-75061800D01*
X77361800Y-75061800D02*
X75100000Y-72800000D01*
X75100000Y-72800000D02*
X70500000Y-72800000D01*
X70500000Y-72800000D02*
X69900000Y-73400000D01*
X81603296Y-74861000D02*
X81402496Y-75061800D01*
X87390795Y-73583900D02*
X86113695Y-74861000D01*
X92850000Y-72025900D02*
X91017000Y-73858900D01*
X88973205Y-73583900D02*
X87390795Y-73583900D01*
X91017000Y-73858900D02*
X89248205Y-73858900D01*
X89248205Y-73858900D02*
X88973205Y-73583900D01*
X86113695Y-74861000D02*
X81603296Y-74861000D01*
%TO.N,/MOSI*%
X70575300Y-69000000D02*
X71748600Y-70173300D01*
X69500000Y-69000000D02*
X70575300Y-69000000D01*
X89755500Y-70173300D02*
X90947600Y-68981200D01*
X71748600Y-70173300D02*
X89755500Y-70173300D01*
%TO.N,/SCK*%
X92659800Y-69420100D02*
X90879900Y-71200000D01*
X90879900Y-71200000D02*
X69500000Y-71200000D01*
%TO.N,/A1*%
X103680000Y-75400000D02*
X103680000Y-76630000D01*
X95428000Y-67148000D02*
X103680000Y-75400000D01*
X103680000Y-76630000D02*
X105580000Y-78530000D01*
X86129300Y-67148000D02*
X95428000Y-67148000D01*
%TO.N,/A0*%
X102578000Y-73500000D02*
X103090000Y-73500000D01*
X94656700Y-65578700D02*
X88786600Y-65578700D01*
X103090000Y-73500000D02*
X105580000Y-75990000D01*
X102578000Y-73500000D02*
X94656700Y-65578700D01*
%TO.N,/~{RESET}*%
X93798800Y-58532500D02*
X92850000Y-58532500D01*
X96089500Y-56241800D02*
X93798800Y-58532500D01*
X96577700Y-54735300D02*
X101288300Y-54735300D01*
X101288300Y-54735300D02*
X102108000Y-55555000D01*
X96089500Y-56241800D02*
X96089500Y-55223500D01*
X102108000Y-55555000D02*
X102108000Y-56640000D01*
X96089500Y-55223500D02*
X96577700Y-54735300D01*
%TO.N,/SWCLK*%
X98298000Y-58340300D02*
X98298000Y-56640000D01*
X90622259Y-60094323D02*
X91008682Y-59707900D01*
X96930400Y-59707900D02*
X98298000Y-58340300D01*
X91008682Y-59707900D02*
X96930400Y-59707900D01*
%TO.N,/SWDIO*%
X96115400Y-59257900D02*
X97028000Y-58345300D01*
X89662000Y-59817000D02*
X90221100Y-59257900D01*
X97028000Y-58345300D02*
X97028000Y-56640000D01*
X90221100Y-59257900D02*
X96115400Y-59257900D01*
%TO.N,/SD_CS*%
X70975300Y-67900000D02*
X72510000Y-69434700D01*
X69900000Y-67900000D02*
X70975300Y-67900000D01*
X72510000Y-69434700D02*
X88770600Y-69434700D01*
%TO.N,/D7*%
X87204399Y-73133900D02*
X85927299Y-74411000D01*
X80725300Y-73800000D02*
X79700000Y-73800000D01*
X81416900Y-74411000D02*
X81376600Y-74451300D01*
X85927299Y-74411000D02*
X81416900Y-74411000D01*
X89707000Y-73408900D02*
X89434601Y-73408900D01*
X89434601Y-73408900D02*
X89159601Y-73133900D01*
X89159601Y-73133900D02*
X87204399Y-73133900D01*
X81376600Y-74451300D02*
X80725300Y-73800000D01*
X94228900Y-68399200D02*
X94228900Y-68887000D01*
X94228900Y-68887000D02*
X89707000Y-73408900D01*
%TO.N,Net-(SW1-Pad2)*%
X73120000Y-51112600D02*
X71550600Y-51112600D01*
X69975300Y-52687900D02*
X69975300Y-55550000D01*
X71550600Y-51112600D02*
X69975300Y-52687900D01*
X67350000Y-55550000D02*
X69975300Y-55550000D01*
X73120000Y-49784000D02*
X73120000Y-51112600D01*
%TD*%
%TA.AperFunction,Conductor*%
%TO.N,GND*%
G36*
X102076317Y-67427302D02*
G01*
X102097291Y-67444205D01*
X104524089Y-69871004D01*
X104558115Y-69933316D01*
X104553050Y-70004132D01*
X104527701Y-70044576D01*
X104527847Y-70044695D01*
X104526870Y-70045902D01*
X104526085Y-70047154D01*
X104524584Y-70048724D01*
X104518104Y-70056727D01*
X104398098Y-70232649D01*
X104393000Y-70241623D01*
X104303338Y-70434783D01*
X104299775Y-70444470D01*
X104244389Y-70644183D01*
X104245912Y-70652607D01*
X104258292Y-70656000D01*
X106898344Y-70656000D01*
X106911875Y-70652027D01*
X106913180Y-70642947D01*
X106871214Y-70475875D01*
X106867894Y-70466124D01*
X106782972Y-70270814D01*
X106778105Y-70261739D01*
X106662426Y-70082926D01*
X106656136Y-70074757D01*
X106630322Y-70046388D01*
X106599270Y-69982542D01*
X106607666Y-69912044D01*
X106634421Y-69872494D01*
X107226405Y-69280510D01*
X107288717Y-69246484D01*
X107359532Y-69251549D01*
X107416368Y-69294096D01*
X107441179Y-69360616D01*
X107441500Y-69369605D01*
X107441500Y-92660633D01*
X107440000Y-92680018D01*
X107437690Y-92694851D01*
X107437690Y-92694855D01*
X107436309Y-92703724D01*
X107437473Y-92712626D01*
X107437473Y-92712629D01*
X107438439Y-92720012D01*
X107439233Y-92744591D01*
X107424660Y-92966922D01*
X107422509Y-92983262D01*
X107373889Y-93227693D01*
X107369625Y-93243606D01*
X107344827Y-93316660D01*
X107289516Y-93479600D01*
X107283209Y-93494826D01*
X107172984Y-93718342D01*
X107164743Y-93732616D01*
X107026287Y-93939829D01*
X107016254Y-93952905D01*
X106851932Y-94140278D01*
X106840278Y-94151932D01*
X106652905Y-94316254D01*
X106639829Y-94326287D01*
X106432616Y-94464743D01*
X106418342Y-94472984D01*
X106194826Y-94583209D01*
X106179602Y-94589515D01*
X105943606Y-94669625D01*
X105927696Y-94673888D01*
X105805478Y-94698199D01*
X105683262Y-94722509D01*
X105666922Y-94724660D01*
X105518134Y-94734413D01*
X105451763Y-94738763D01*
X105428650Y-94737733D01*
X105425146Y-94737690D01*
X105416276Y-94736309D01*
X105407374Y-94737473D01*
X105407372Y-94737473D01*
X105392323Y-94739441D01*
X105384714Y-94740436D01*
X105368379Y-94741500D01*
X90409000Y-94741500D01*
X90340879Y-94721498D01*
X90294386Y-94667842D01*
X90283000Y-94615500D01*
X90283000Y-90067000D01*
X84986952Y-90067000D01*
X84918831Y-90046998D01*
X84872338Y-89993342D01*
X84862234Y-89923068D01*
X84867119Y-89902063D01*
X84893525Y-89820797D01*
X84904042Y-89788428D01*
X84904755Y-89781650D01*
X84923314Y-89605065D01*
X84924004Y-89598500D01*
X84904042Y-89408572D01*
X84845027Y-89226944D01*
X84749540Y-89061556D01*
X84621753Y-88919634D01*
X84467252Y-88807382D01*
X84461224Y-88804698D01*
X84461222Y-88804697D01*
X84298817Y-88732390D01*
X84298815Y-88732389D01*
X84292788Y-88729706D01*
X84286509Y-88728371D01*
X84227958Y-88688336D01*
X84200321Y-88622939D01*
X84199500Y-88608576D01*
X84199500Y-81601524D01*
X84219502Y-81533403D01*
X84231858Y-81517221D01*
X84305040Y-81435944D01*
X84400527Y-81270556D01*
X84459542Y-81088928D01*
X84461532Y-81070000D01*
X84478814Y-80905565D01*
X84479504Y-80899000D01*
X84459542Y-80709072D01*
X84400527Y-80527444D01*
X84305040Y-80362056D01*
X84190150Y-80234457D01*
X84181675Y-80225045D01*
X84181674Y-80225044D01*
X84177253Y-80220134D01*
X84085439Y-80153427D01*
X84042085Y-80097205D01*
X84033500Y-80051491D01*
X84033500Y-76070500D01*
X84053502Y-76002379D01*
X84107158Y-75955886D01*
X84159500Y-75944500D01*
X87559977Y-75944500D01*
X87628098Y-75964502D01*
X87646221Y-75978642D01*
X87646761Y-75979149D01*
X87649612Y-75981912D01*
X87669333Y-76001633D01*
X87672528Y-76004111D01*
X87681550Y-76011817D01*
X87713782Y-76042085D01*
X87720731Y-76045905D01*
X87731535Y-76051845D01*
X87748059Y-76062698D01*
X87764062Y-76075112D01*
X87804646Y-76092675D01*
X87815276Y-76097882D01*
X87854043Y-76119194D01*
X87861720Y-76121165D01*
X87861725Y-76121167D01*
X87873661Y-76124231D01*
X87892369Y-76130636D01*
X87910958Y-76138680D01*
X87918783Y-76139919D01*
X87918785Y-76139920D01*
X87954622Y-76145596D01*
X87966243Y-76148003D01*
X88001392Y-76157027D01*
X88009073Y-76158999D01*
X88029334Y-76158999D01*
X88049043Y-76160550D01*
X88069046Y-76163718D01*
X88076938Y-76162972D01*
X88082165Y-76162478D01*
X88113057Y-76159558D01*
X88124914Y-76158999D01*
X89185477Y-76158999D01*
X89253598Y-76179001D01*
X89294596Y-76221999D01*
X89357658Y-76331226D01*
X89357661Y-76331231D01*
X89360960Y-76336944D01*
X89488747Y-76478866D01*
X89643248Y-76591118D01*
X89649276Y-76593802D01*
X89649278Y-76593803D01*
X89811194Y-76665892D01*
X89817712Y-76668794D01*
X89905425Y-76687438D01*
X89998056Y-76707128D01*
X89998061Y-76707128D01*
X90004513Y-76708500D01*
X90195487Y-76708500D01*
X90201939Y-76707128D01*
X90201944Y-76707128D01*
X90294575Y-76687438D01*
X90382288Y-76668794D01*
X90388806Y-76665892D01*
X90550722Y-76593803D01*
X90550724Y-76593802D01*
X90556752Y-76591118D01*
X90711253Y-76478866D01*
X90839040Y-76336944D01*
X90907941Y-76217604D01*
X90931223Y-76177279D01*
X90931224Y-76177278D01*
X90934527Y-76171556D01*
X90993542Y-75989928D01*
X90994729Y-75978642D01*
X91011210Y-75821828D01*
X91038223Y-75756172D01*
X91096445Y-75715542D01*
X91136520Y-75708999D01*
X98509905Y-75708999D01*
X98578026Y-75729001D01*
X98599000Y-75745904D01*
X103184069Y-80330973D01*
X103218095Y-80393285D01*
X103213030Y-80464100D01*
X103204094Y-80483067D01*
X103178473Y-80527444D01*
X103119458Y-80709072D01*
X103099496Y-80899000D01*
X103100186Y-80905565D01*
X103117469Y-81070000D01*
X103119458Y-81088928D01*
X103178473Y-81270556D01*
X103273960Y-81435944D01*
X103278375Y-81440847D01*
X103278379Y-81440852D01*
X103322753Y-81490134D01*
X103401747Y-81577866D01*
X103556248Y-81690118D01*
X103562276Y-81692802D01*
X103562278Y-81692803D01*
X103721350Y-81763626D01*
X103730712Y-81767794D01*
X103824112Y-81787647D01*
X103911056Y-81806128D01*
X103911061Y-81806128D01*
X103917513Y-81807500D01*
X104108487Y-81807500D01*
X104114939Y-81806128D01*
X104114944Y-81806128D01*
X104288838Y-81769165D01*
X104295288Y-81767794D01*
X104300128Y-81765639D01*
X104370614Y-81763626D01*
X104431412Y-81800289D01*
X104446015Y-81819651D01*
X104479987Y-81875088D01*
X104626250Y-82043938D01*
X104798126Y-82186632D01*
X104868595Y-82227811D01*
X104871445Y-82229476D01*
X104920169Y-82281114D01*
X104933240Y-82350897D01*
X104906509Y-82416669D01*
X104866055Y-82450027D01*
X104853607Y-82456507D01*
X104849474Y-82459610D01*
X104849471Y-82459612D01*
X104679100Y-82587530D01*
X104674965Y-82590635D01*
X104520629Y-82752138D01*
X104517715Y-82756410D01*
X104517714Y-82756411D01*
X104482054Y-82808687D01*
X104394743Y-82936680D01*
X104368003Y-82994287D01*
X104305963Y-83127942D01*
X104300688Y-83139305D01*
X104240989Y-83354570D01*
X104217251Y-83576695D01*
X104217548Y-83581848D01*
X104217548Y-83581851D01*
X104223011Y-83676590D01*
X104230110Y-83799715D01*
X104231247Y-83804761D01*
X104231248Y-83804767D01*
X104251119Y-83892939D01*
X104279222Y-84017639D01*
X104363266Y-84224616D01*
X104479987Y-84415088D01*
X104626250Y-84583938D01*
X104798126Y-84726632D01*
X104991000Y-84839338D01*
X105199692Y-84919030D01*
X105204760Y-84920061D01*
X105204763Y-84920062D01*
X105312017Y-84941883D01*
X105418597Y-84963567D01*
X105423772Y-84963757D01*
X105423774Y-84963757D01*
X105636673Y-84971564D01*
X105636677Y-84971564D01*
X105641837Y-84971753D01*
X105646957Y-84971097D01*
X105646959Y-84971097D01*
X105858288Y-84944025D01*
X105858289Y-84944025D01*
X105863416Y-84943368D01*
X105868366Y-84941883D01*
X106072429Y-84880661D01*
X106072434Y-84880659D01*
X106077384Y-84879174D01*
X106277994Y-84780896D01*
X106459860Y-84651173D01*
X106618096Y-84493489D01*
X106677594Y-84410689D01*
X106745435Y-84316277D01*
X106748453Y-84312077D01*
X106847430Y-84111811D01*
X106912370Y-83898069D01*
X106941529Y-83676590D01*
X106943156Y-83610000D01*
X106924852Y-83387361D01*
X106870431Y-83170702D01*
X106781354Y-82965840D01*
X106679687Y-82808687D01*
X106662822Y-82782617D01*
X106662820Y-82782614D01*
X106660014Y-82778277D01*
X106509670Y-82613051D01*
X106505619Y-82609852D01*
X106505615Y-82609848D01*
X106338414Y-82477800D01*
X106338410Y-82477798D01*
X106334359Y-82474598D01*
X106293053Y-82451796D01*
X106243084Y-82401364D01*
X106228312Y-82331921D01*
X106253428Y-82265516D01*
X106280780Y-82238909D01*
X106324603Y-82207650D01*
X106459860Y-82111173D01*
X106618096Y-81953489D01*
X106748453Y-81772077D01*
X106787633Y-81692803D01*
X106845136Y-81576453D01*
X106845137Y-81576451D01*
X106847430Y-81571811D01*
X106912370Y-81358069D01*
X106941529Y-81136590D01*
X106943156Y-81070000D01*
X106924852Y-80847361D01*
X106870431Y-80630702D01*
X106781354Y-80425840D01*
X106660014Y-80238277D01*
X106509670Y-80073051D01*
X106505619Y-80069852D01*
X106505615Y-80069848D01*
X106338414Y-79937800D01*
X106338410Y-79937798D01*
X106334359Y-79934598D01*
X106293053Y-79911796D01*
X106243084Y-79861364D01*
X106228312Y-79791921D01*
X106253428Y-79725516D01*
X106280780Y-79698909D01*
X106324603Y-79667650D01*
X106459860Y-79571173D01*
X106618096Y-79413489D01*
X106748453Y-79232077D01*
X106847430Y-79031811D01*
X106879900Y-78924940D01*
X106910865Y-78823023D01*
X106910865Y-78823021D01*
X106912370Y-78818069D01*
X106941529Y-78596590D01*
X106943156Y-78530000D01*
X106924852Y-78307361D01*
X106870431Y-78090702D01*
X106781354Y-77885840D01*
X106660014Y-77698277D01*
X106509670Y-77533051D01*
X106505619Y-77529852D01*
X106505615Y-77529848D01*
X106338414Y-77397800D01*
X106338410Y-77397798D01*
X106334359Y-77394598D01*
X106293053Y-77371796D01*
X106243084Y-77321364D01*
X106228312Y-77251921D01*
X106253428Y-77185516D01*
X106280780Y-77158909D01*
X106358758Y-77103288D01*
X106459860Y-77031173D01*
X106469706Y-77021362D01*
X106547304Y-76944034D01*
X106618096Y-76873489D01*
X106721283Y-76729889D01*
X106745435Y-76696277D01*
X106748453Y-76692077D01*
X106754541Y-76679760D01*
X106845136Y-76496453D01*
X106845137Y-76496451D01*
X106847430Y-76491811D01*
X106912370Y-76278069D01*
X106941529Y-76056590D01*
X106941645Y-76051845D01*
X106943074Y-75993365D01*
X106943074Y-75993361D01*
X106943156Y-75990000D01*
X106924852Y-75767361D01*
X106870431Y-75550702D01*
X106781354Y-75345840D01*
X106700892Y-75221465D01*
X106662822Y-75162617D01*
X106662820Y-75162614D01*
X106660014Y-75158277D01*
X106509670Y-74993051D01*
X106505619Y-74989852D01*
X106505615Y-74989848D01*
X106338414Y-74857800D01*
X106338410Y-74857798D01*
X106334359Y-74854598D01*
X106293053Y-74831796D01*
X106243084Y-74781364D01*
X106228312Y-74711921D01*
X106253428Y-74645516D01*
X106280780Y-74618909D01*
X106406577Y-74529179D01*
X106459860Y-74491173D01*
X106485205Y-74465917D01*
X106581035Y-74370421D01*
X106618096Y-74333489D01*
X106640508Y-74302300D01*
X106745435Y-74156277D01*
X106748453Y-74152077D01*
X106809812Y-74027927D01*
X106845136Y-73956453D01*
X106845137Y-73956451D01*
X106847430Y-73951811D01*
X106906467Y-73757498D01*
X106910865Y-73743023D01*
X106910865Y-73743021D01*
X106912370Y-73738069D01*
X106941529Y-73516590D01*
X106941676Y-73510564D01*
X106943074Y-73453365D01*
X106943074Y-73453361D01*
X106943156Y-73450000D01*
X106924852Y-73227361D01*
X106870431Y-73010702D01*
X106781354Y-72805840D01*
X106680620Y-72650129D01*
X106662822Y-72622617D01*
X106662820Y-72622614D01*
X106660014Y-72618277D01*
X106509670Y-72453051D01*
X106505619Y-72449852D01*
X106505615Y-72449848D01*
X106338414Y-72317800D01*
X106338410Y-72317798D01*
X106334359Y-72314598D01*
X106292569Y-72291529D01*
X106242598Y-72241097D01*
X106227826Y-72171654D01*
X106252942Y-72105248D01*
X106280294Y-72078641D01*
X106455328Y-71953792D01*
X106463200Y-71947139D01*
X106614052Y-71796812D01*
X106620730Y-71788965D01*
X106745003Y-71616020D01*
X106750313Y-71607183D01*
X106844670Y-71416267D01*
X106848469Y-71406672D01*
X106910377Y-71202910D01*
X106912555Y-71192837D01*
X106913986Y-71181962D01*
X106911775Y-71167778D01*
X106898617Y-71164000D01*
X104245110Y-71164000D01*
X104245110Y-71159580D01*
X104207260Y-71159574D01*
X104153684Y-71127779D01*
X103593652Y-70567747D01*
X103586112Y-70559461D01*
X103582000Y-70552982D01*
X103532348Y-70506356D01*
X103529507Y-70503602D01*
X103509770Y-70483865D01*
X103506573Y-70481385D01*
X103497551Y-70473680D01*
X103471100Y-70448841D01*
X103465321Y-70443414D01*
X103458375Y-70439595D01*
X103458372Y-70439593D01*
X103447566Y-70433652D01*
X103431047Y-70422801D01*
X103430583Y-70422441D01*
X103415041Y-70410386D01*
X103407772Y-70407241D01*
X103407768Y-70407238D01*
X103374463Y-70392826D01*
X103363813Y-70387609D01*
X103325060Y-70366305D01*
X103305437Y-70361267D01*
X103286734Y-70354863D01*
X103275420Y-70349967D01*
X103275419Y-70349967D01*
X103268145Y-70346819D01*
X103260322Y-70345580D01*
X103260312Y-70345577D01*
X103224476Y-70339901D01*
X103212856Y-70337495D01*
X103177711Y-70328472D01*
X103177710Y-70328472D01*
X103170030Y-70326500D01*
X103149776Y-70326500D01*
X103130065Y-70324949D01*
X103117886Y-70323020D01*
X103110057Y-70321780D01*
X103102165Y-70322526D01*
X103066039Y-70325941D01*
X103054181Y-70326500D01*
X101846794Y-70326500D01*
X101778673Y-70306498D01*
X101757699Y-70289595D01*
X99237939Y-67769835D01*
X99203913Y-67707523D01*
X99208978Y-67636708D01*
X99233398Y-67596430D01*
X99306221Y-67515552D01*
X99306222Y-67515551D01*
X99310640Y-67510644D01*
X99333934Y-67470298D01*
X99385316Y-67421306D01*
X99443052Y-67407300D01*
X102008196Y-67407300D01*
X102076317Y-67427302D01*
G37*
%TD.AperFunction*%
%TA.AperFunction,Conductor*%
G36*
X69871836Y-44978502D02*
G01*
X69918329Y-45032158D01*
X69928433Y-45102432D01*
X69917910Y-45137750D01*
X69864468Y-45252357D01*
X69856457Y-45269537D01*
X69855035Y-45274845D01*
X69855034Y-45274847D01*
X69812305Y-45434313D01*
X69801795Y-45473538D01*
X69783388Y-45683932D01*
X69801795Y-45894326D01*
X69856457Y-46098327D01*
X69858779Y-46103308D01*
X69858780Y-46103309D01*
X69869639Y-46126595D01*
X69945713Y-46289737D01*
X70066851Y-46462741D01*
X70216190Y-46612080D01*
X70220698Y-46615237D01*
X70220701Y-46615239D01*
X70314995Y-46681264D01*
X70389193Y-46733218D01*
X70394175Y-46735541D01*
X70394180Y-46735544D01*
X70575622Y-46820151D01*
X70580604Y-46822474D01*
X70585912Y-46823896D01*
X70585914Y-46823897D01*
X70779290Y-46875712D01*
X70779292Y-46875712D01*
X70784605Y-46877136D01*
X70994999Y-46895543D01*
X71205393Y-46877136D01*
X71210706Y-46875712D01*
X71210708Y-46875712D01*
X71404084Y-46823897D01*
X71404086Y-46823896D01*
X71409394Y-46822474D01*
X71414376Y-46820151D01*
X71595818Y-46735544D01*
X71595823Y-46735541D01*
X71600805Y-46733218D01*
X71675003Y-46681264D01*
X71769297Y-46615239D01*
X71769300Y-46615237D01*
X71773808Y-46612080D01*
X71923147Y-46462741D01*
X72044285Y-46289737D01*
X72120360Y-46126595D01*
X72131218Y-46103309D01*
X72131219Y-46103308D01*
X72133541Y-46098327D01*
X72188203Y-45894326D01*
X72206610Y-45683932D01*
X72188203Y-45473538D01*
X72177693Y-45434313D01*
X72134964Y-45274847D01*
X72134963Y-45274845D01*
X72133541Y-45269537D01*
X72125530Y-45252357D01*
X72072088Y-45137750D01*
X72061427Y-45067558D01*
X72090407Y-45002745D01*
X72149827Y-44963889D01*
X72186283Y-44958500D01*
X76053715Y-44958500D01*
X76121836Y-44978502D01*
X76168329Y-45032158D01*
X76178433Y-45102432D01*
X76167910Y-45137750D01*
X76114468Y-45252357D01*
X76106457Y-45269537D01*
X76105035Y-45274845D01*
X76105034Y-45274847D01*
X76062305Y-45434313D01*
X76051795Y-45473538D01*
X76033388Y-45683932D01*
X76051795Y-45894326D01*
X76106457Y-46098327D01*
X76108779Y-46103308D01*
X76108780Y-46103309D01*
X76119639Y-46126595D01*
X76195713Y-46289737D01*
X76316851Y-46462741D01*
X76466190Y-46612080D01*
X76470698Y-46615237D01*
X76470701Y-46615239D01*
X76564995Y-46681264D01*
X76639193Y-46733218D01*
X76644175Y-46735541D01*
X76644180Y-46735544D01*
X76825622Y-46820151D01*
X76830604Y-46822474D01*
X76835912Y-46823896D01*
X76835914Y-46823897D01*
X77029290Y-46875712D01*
X77029292Y-46875712D01*
X77034605Y-46877136D01*
X77244999Y-46895543D01*
X77455393Y-46877136D01*
X77460706Y-46875712D01*
X77460708Y-46875712D01*
X77654084Y-46823897D01*
X77654086Y-46823896D01*
X77659394Y-46822474D01*
X77664376Y-46820151D01*
X77845818Y-46735544D01*
X77845823Y-46735541D01*
X77850805Y-46733218D01*
X77925003Y-46681264D01*
X78019297Y-46615239D01*
X78019300Y-46615237D01*
X78023808Y-46612080D01*
X78173147Y-46462741D01*
X78294285Y-46289737D01*
X78370360Y-46126595D01*
X78381218Y-46103309D01*
X78381219Y-46103308D01*
X78383541Y-46098327D01*
X78438203Y-45894326D01*
X78456610Y-45683932D01*
X78438203Y-45473538D01*
X78427693Y-45434313D01*
X78384964Y-45274847D01*
X78384963Y-45274845D01*
X78383541Y-45269537D01*
X78375530Y-45252357D01*
X78322088Y-45137750D01*
X78311427Y-45067558D01*
X78340407Y-45002745D01*
X78399827Y-44963889D01*
X78436283Y-44958500D01*
X85066109Y-44958500D01*
X85134230Y-44978502D01*
X85180723Y-45032158D01*
X85190827Y-45102432D01*
X85161333Y-45167012D01*
X85110338Y-45202482D01*
X85081548Y-45213275D01*
X85065951Y-45221814D01*
X84963876Y-45298315D01*
X84951315Y-45310876D01*
X84874814Y-45412951D01*
X84866276Y-45428546D01*
X84821122Y-45548994D01*
X84817495Y-45564249D01*
X84811969Y-45615114D01*
X84811600Y-45621928D01*
X84811600Y-46644485D01*
X84816075Y-46659724D01*
X84817465Y-46660929D01*
X84825148Y-46662600D01*
X88309484Y-46662600D01*
X88324723Y-46658125D01*
X88325928Y-46656735D01*
X88327599Y-46649052D01*
X88327599Y-45621931D01*
X88327229Y-45615110D01*
X88321705Y-45564248D01*
X88318079Y-45548996D01*
X88272924Y-45428546D01*
X88264386Y-45412951D01*
X88187885Y-45310876D01*
X88175324Y-45298315D01*
X88073249Y-45221814D01*
X88057652Y-45213275D01*
X88028862Y-45202482D01*
X87972097Y-45159841D01*
X87947397Y-45093279D01*
X87962604Y-45023930D01*
X88012890Y-44973812D01*
X88073091Y-44958500D01*
X92266109Y-44958500D01*
X92334230Y-44978502D01*
X92380723Y-45032158D01*
X92390827Y-45102432D01*
X92361333Y-45167012D01*
X92310338Y-45202482D01*
X92281548Y-45213275D01*
X92265951Y-45221814D01*
X92163876Y-45298315D01*
X92151315Y-45310876D01*
X92074814Y-45412951D01*
X92066276Y-45428546D01*
X92021122Y-45548994D01*
X92017495Y-45564249D01*
X92011969Y-45615114D01*
X92011600Y-45621928D01*
X92011600Y-46644485D01*
X92016075Y-46659724D01*
X92017465Y-46660929D01*
X92025148Y-46662600D01*
X95509484Y-46662600D01*
X95524723Y-46658125D01*
X95525928Y-46656735D01*
X95527599Y-46649052D01*
X95527599Y-45621931D01*
X95527229Y-45615110D01*
X95521705Y-45564248D01*
X95518079Y-45548996D01*
X95472924Y-45428546D01*
X95464386Y-45412951D01*
X95387885Y-45310876D01*
X95375324Y-45298315D01*
X95273249Y-45221814D01*
X95257652Y-45213275D01*
X95228862Y-45202482D01*
X95172097Y-45159841D01*
X95147397Y-45093279D01*
X95162604Y-45023930D01*
X95212890Y-44973812D01*
X95273091Y-44958500D01*
X104242636Y-44958500D01*
X104310757Y-44978502D01*
X104357250Y-45032158D01*
X104367354Y-45102432D01*
X104337860Y-45167012D01*
X104307342Y-45192616D01*
X104207521Y-45252357D01*
X104207517Y-45252360D01*
X104203839Y-45254561D01*
X103979472Y-45434313D01*
X103781577Y-45642851D01*
X103613814Y-45876317D01*
X103611805Y-45880112D01*
X103611804Y-45880113D01*
X103589972Y-45921346D01*
X103479288Y-46130392D01*
X103380489Y-46400373D01*
X103319245Y-46681264D01*
X103318909Y-46685534D01*
X103308315Y-46820151D01*
X103296689Y-46967869D01*
X103313238Y-47254883D01*
X103314063Y-47259088D01*
X103314064Y-47259096D01*
X103346010Y-47421921D01*
X103368586Y-47536995D01*
X103369973Y-47541045D01*
X103369974Y-47541050D01*
X103460321Y-47804930D01*
X103461710Y-47808986D01*
X103463637Y-47812817D01*
X103576826Y-48037868D01*
X103590885Y-48065822D01*
X103753721Y-48302750D01*
X103756608Y-48305923D01*
X103756609Y-48305924D01*
X103858148Y-48417514D01*
X103947206Y-48515388D01*
X103950501Y-48518143D01*
X103950502Y-48518144D01*
X104150475Y-48685346D01*
X104167759Y-48699798D01*
X104411298Y-48852571D01*
X104673318Y-48970877D01*
X104721587Y-48985175D01*
X104944857Y-49051311D01*
X104944862Y-49051312D01*
X104948970Y-49052529D01*
X104953204Y-49053177D01*
X104953209Y-49053178D01*
X105201811Y-49091219D01*
X105233153Y-49096015D01*
X105379485Y-49098314D01*
X105516317Y-49100464D01*
X105516323Y-49100464D01*
X105520608Y-49100531D01*
X105524860Y-49100016D01*
X105524868Y-49100016D01*
X105801756Y-49066508D01*
X105801761Y-49066507D01*
X105806017Y-49065992D01*
X105996091Y-49016127D01*
X106079954Y-48994126D01*
X106079955Y-48994126D01*
X106084097Y-48993039D01*
X106349704Y-48883021D01*
X106597922Y-48737974D01*
X106824159Y-48560582D01*
X106829788Y-48554774D01*
X107021244Y-48357206D01*
X107024227Y-48354128D01*
X107026760Y-48350680D01*
X107026764Y-48350675D01*
X107176054Y-48147440D01*
X107194425Y-48122431D01*
X107204770Y-48103378D01*
X107254852Y-48053058D01*
X107324190Y-48037802D01*
X107390769Y-48062455D01*
X107433451Y-48119189D01*
X107441500Y-48163502D01*
X107441500Y-52713706D01*
X107421498Y-52781827D01*
X107367842Y-52828320D01*
X107297568Y-52838424D01*
X107232988Y-52808930D01*
X107226405Y-52802801D01*
X105376900Y-50953295D01*
X103502044Y-49078439D01*
X103468018Y-49016127D01*
X103465829Y-49002514D01*
X103465547Y-48999826D01*
X103458413Y-48931949D01*
X103455332Y-48902635D01*
X103455332Y-48902633D01*
X103454642Y-48896072D01*
X103395627Y-48714444D01*
X103371097Y-48671956D01*
X103328079Y-48597448D01*
X103300140Y-48549056D01*
X103287381Y-48534885D01*
X103176775Y-48412045D01*
X103176774Y-48412044D01*
X103172353Y-48407134D01*
X103033050Y-48305924D01*
X103023194Y-48298763D01*
X103023193Y-48298762D01*
X103017852Y-48294882D01*
X103011824Y-48292198D01*
X103011822Y-48292197D01*
X102849419Y-48219891D01*
X102849418Y-48219891D01*
X102843388Y-48217206D01*
X102745725Y-48196447D01*
X102663044Y-48178872D01*
X102663039Y-48178872D01*
X102656587Y-48177500D01*
X102465613Y-48177500D01*
X102459161Y-48178872D01*
X102459156Y-48178872D01*
X102376475Y-48196447D01*
X102278812Y-48217206D01*
X102272782Y-48219891D01*
X102272781Y-48219891D01*
X102110378Y-48292197D01*
X102110376Y-48292198D01*
X102104348Y-48294882D01*
X102099007Y-48298762D01*
X102099006Y-48298763D01*
X102089150Y-48305924D01*
X101949847Y-48407134D01*
X101945426Y-48412044D01*
X101945425Y-48412045D01*
X101834820Y-48534885D01*
X101822060Y-48549056D01*
X101794121Y-48597448D01*
X101751104Y-48671956D01*
X101726573Y-48714444D01*
X101667558Y-48896072D01*
X101666868Y-48902633D01*
X101666868Y-48902635D01*
X101649838Y-49064670D01*
X101622825Y-49130327D01*
X101564603Y-49170957D01*
X101524528Y-49177500D01*
X100809847Y-49177500D01*
X100741726Y-49157498D01*
X100723595Y-49143351D01*
X100691654Y-49113357D01*
X100688811Y-49110601D01*
X100669075Y-49090865D01*
X100665878Y-49088385D01*
X100656856Y-49080680D01*
X100652705Y-49076782D01*
X100624626Y-49050414D01*
X100617680Y-49046595D01*
X100617677Y-49046593D01*
X100606871Y-49040652D01*
X100590352Y-49029801D01*
X100589888Y-49029441D01*
X100574346Y-49017386D01*
X100567077Y-49014241D01*
X100567073Y-49014238D01*
X100533768Y-48999826D01*
X100523118Y-48994609D01*
X100484365Y-48973305D01*
X100464742Y-48968267D01*
X100446039Y-48961863D01*
X100434725Y-48956967D01*
X100434724Y-48956967D01*
X100427450Y-48953819D01*
X100419627Y-48952580D01*
X100419617Y-48952577D01*
X100383781Y-48946901D01*
X100372161Y-48944495D01*
X100337016Y-48935472D01*
X100337015Y-48935472D01*
X100329335Y-48933500D01*
X100309081Y-48933500D01*
X100289370Y-48931949D01*
X100277191Y-48930020D01*
X100269362Y-48928780D01*
X100240091Y-48931547D01*
X100225344Y-48932941D01*
X100213486Y-48933500D01*
X96561767Y-48933500D01*
X96550584Y-48932973D01*
X96543091Y-48931298D01*
X96535165Y-48931547D01*
X96535164Y-48931547D01*
X96475014Y-48933438D01*
X96471055Y-48933500D01*
X96443144Y-48933500D01*
X96439210Y-48933997D01*
X96439209Y-48933997D01*
X96439144Y-48934005D01*
X96427307Y-48934938D01*
X96395490Y-48935938D01*
X96391029Y-48936078D01*
X96383110Y-48936327D01*
X96365454Y-48941456D01*
X96363658Y-48941978D01*
X96344306Y-48945986D01*
X96337235Y-48946880D01*
X96324203Y-48948526D01*
X96316834Y-48951443D01*
X96316832Y-48951444D01*
X96283097Y-48964800D01*
X96271869Y-48968645D01*
X96229407Y-48980982D01*
X96222585Y-48985016D01*
X96222579Y-48985019D01*
X96211968Y-48991294D01*
X96194218Y-48999990D01*
X96182756Y-49004528D01*
X96182751Y-49004531D01*
X96175383Y-49007448D01*
X96157970Y-49020099D01*
X96139625Y-49033427D01*
X96129707Y-49039943D01*
X96118463Y-49046593D01*
X96091637Y-49062458D01*
X96077313Y-49076782D01*
X96062281Y-49089621D01*
X96057335Y-49093215D01*
X96052305Y-49096869D01*
X96052303Y-49096871D01*
X96045893Y-49101528D01*
X96042715Y-49105370D01*
X96035044Y-49111716D01*
X96018911Y-49123437D01*
X96008991Y-49129953D01*
X95970938Y-49152458D01*
X95956617Y-49166779D01*
X95941584Y-49179619D01*
X95925193Y-49191528D01*
X95920142Y-49197634D01*
X95897002Y-49225605D01*
X95889012Y-49234384D01*
X95865293Y-49258103D01*
X95802981Y-49292129D01*
X95732166Y-49287064D01*
X95675330Y-49244517D01*
X95661498Y-49221160D01*
X95636974Y-49167223D01*
X95631024Y-49156876D01*
X95515632Y-48994203D01*
X95507839Y-48985175D01*
X95363769Y-48847258D01*
X95354397Y-48839856D01*
X95299061Y-48804126D01*
X95252683Y-48750371D01*
X95242730Y-48680076D01*
X95272362Y-48615558D01*
X95291845Y-48597448D01*
X95375325Y-48534884D01*
X95387885Y-48522324D01*
X95464386Y-48420249D01*
X95472924Y-48404654D01*
X95518078Y-48284206D01*
X95521705Y-48268951D01*
X95527231Y-48218086D01*
X95527600Y-48211272D01*
X95527600Y-47188715D01*
X95523125Y-47173476D01*
X95521735Y-47172271D01*
X95514052Y-47170600D01*
X92029716Y-47170600D01*
X92014477Y-47175075D01*
X92013272Y-47176465D01*
X92011601Y-47184148D01*
X92011601Y-47856582D01*
X91991599Y-47924703D01*
X91937943Y-47971196D01*
X91925793Y-47976000D01*
X91757377Y-48032678D01*
X91597491Y-48128747D01*
X91461964Y-48256908D01*
X91458129Y-48262551D01*
X91395894Y-48354128D01*
X91357120Y-48411182D01*
X91354588Y-48417511D01*
X91354587Y-48417514D01*
X91290385Y-48578030D01*
X91287849Y-48584371D01*
X91282686Y-48615558D01*
X91266316Y-48714444D01*
X91257384Y-48768395D01*
X91257741Y-48775211D01*
X91257741Y-48775215D01*
X91262437Y-48864805D01*
X91267147Y-48954667D01*
X91316680Y-49134498D01*
X91403675Y-49299498D01*
X91408080Y-49304711D01*
X91408083Y-49304715D01*
X91519664Y-49436753D01*
X91519668Y-49436757D01*
X91524071Y-49441967D01*
X91529495Y-49446114D01*
X91529496Y-49446115D01*
X91666831Y-49551116D01*
X91666835Y-49551119D01*
X91672252Y-49555260D01*
X91841304Y-49634090D01*
X92023340Y-49674780D01*
X92029063Y-49675100D01*
X92166196Y-49675100D01*
X92305037Y-49660017D01*
X92481823Y-49600522D01*
X92641709Y-49504453D01*
X92649536Y-49497052D01*
X92651685Y-49495955D01*
X92652101Y-49495639D01*
X92652158Y-49495714D01*
X92712770Y-49464780D01*
X92736108Y-49462600D01*
X94197600Y-49462600D01*
X94265721Y-49482602D01*
X94312214Y-49536258D01*
X94323600Y-49588600D01*
X94323600Y-50747606D01*
X94303598Y-50815727D01*
X94286697Y-50836699D01*
X93355553Y-51767842D01*
X92450200Y-52673195D01*
X92387888Y-52707221D01*
X92361105Y-52710100D01*
X88663493Y-52710100D01*
X88639884Y-52707868D01*
X88639581Y-52707810D01*
X88639577Y-52707810D01*
X88631794Y-52706325D01*
X88575749Y-52709851D01*
X88567838Y-52710100D01*
X79152658Y-52710100D01*
X79141474Y-52709573D01*
X79133986Y-52707899D01*
X79126063Y-52708148D01*
X79065928Y-52710038D01*
X79061970Y-52710100D01*
X77665595Y-52710100D01*
X77597474Y-52690098D01*
X77576500Y-52673195D01*
X76117105Y-51213800D01*
X76083079Y-51151488D01*
X76088144Y-51080673D01*
X76105374Y-51049140D01*
X76111331Y-51041192D01*
X76111332Y-51041190D01*
X76116717Y-51034005D01*
X76167847Y-50897616D01*
X76174602Y-50835434D01*
X76174602Y-49983999D01*
X84594312Y-49983999D01*
X84615794Y-50073137D01*
X84619683Y-50084432D01*
X84702229Y-50265982D01*
X84708176Y-50276324D01*
X84823568Y-50438997D01*
X84831361Y-50448025D01*
X84975431Y-50585942D01*
X84984796Y-50593338D01*
X85152341Y-50701521D01*
X85162945Y-50707017D01*
X85347912Y-50781561D01*
X85359370Y-50784955D01*
X85556528Y-50823457D01*
X85565391Y-50824534D01*
X85568100Y-50824600D01*
X85997485Y-50824600D01*
X86012724Y-50820125D01*
X86013929Y-50818735D01*
X86015600Y-50811052D01*
X86015600Y-50806485D01*
X86523600Y-50806485D01*
X86528075Y-50821724D01*
X86529465Y-50822929D01*
X86537148Y-50824600D01*
X86919432Y-50824600D01*
X86925408Y-50824315D01*
X87074094Y-50810129D01*
X87085828Y-50807870D01*
X87277199Y-50751728D01*
X87288275Y-50747298D01*
X87465578Y-50655981D01*
X87475624Y-50649531D01*
X87632457Y-50526338D01*
X87641106Y-50518101D01*
X87771812Y-50367477D01*
X87778747Y-50357753D01*
X87878610Y-50185133D01*
X87883584Y-50174269D01*
X87949007Y-49985873D01*
X87949248Y-49984884D01*
X87949122Y-49983999D01*
X92394312Y-49983999D01*
X92415794Y-50073137D01*
X92419683Y-50084432D01*
X92502229Y-50265982D01*
X92508176Y-50276324D01*
X92623568Y-50438997D01*
X92631361Y-50448025D01*
X92775431Y-50585942D01*
X92784796Y-50593338D01*
X92952341Y-50701521D01*
X92962945Y-50707017D01*
X93147912Y-50781561D01*
X93159370Y-50784955D01*
X93356528Y-50823457D01*
X93365391Y-50824534D01*
X93368100Y-50824600D01*
X93797485Y-50824600D01*
X93812724Y-50820125D01*
X93813929Y-50818735D01*
X93815600Y-50811052D01*
X93815600Y-49988715D01*
X93811125Y-49973476D01*
X93809735Y-49972271D01*
X93802052Y-49970600D01*
X92409198Y-49970600D01*
X92395667Y-49974573D01*
X92394312Y-49983999D01*
X87949122Y-49983999D01*
X87947780Y-49974592D01*
X87934215Y-49970600D01*
X86541715Y-49970600D01*
X86526476Y-49975075D01*
X86525271Y-49976465D01*
X86523600Y-49984148D01*
X86523600Y-50806485D01*
X86015600Y-50806485D01*
X86015600Y-49988715D01*
X86011125Y-49973476D01*
X86009735Y-49972271D01*
X86002052Y-49970600D01*
X84609198Y-49970600D01*
X84595667Y-49974573D01*
X84594312Y-49983999D01*
X76174602Y-49983999D01*
X76174602Y-49448316D01*
X84589952Y-49448316D01*
X84591420Y-49458608D01*
X84604985Y-49462600D01*
X87608410Y-49462600D01*
X87676531Y-49482602D01*
X87684939Y-49488504D01*
X87766831Y-49551116D01*
X87766835Y-49551119D01*
X87772252Y-49555260D01*
X87941304Y-49634090D01*
X88123340Y-49674780D01*
X88129063Y-49675100D01*
X88266196Y-49675100D01*
X88405037Y-49660017D01*
X88581823Y-49600522D01*
X88741709Y-49504453D01*
X88877236Y-49376292D01*
X88881071Y-49370649D01*
X88978246Y-49227660D01*
X88978247Y-49227658D01*
X88982080Y-49222018D01*
X88994276Y-49191528D01*
X89048815Y-49055170D01*
X89048816Y-49055168D01*
X89051351Y-49048829D01*
X89071020Y-48930020D01*
X89080701Y-48871542D01*
X89080701Y-48871539D01*
X89081816Y-48864805D01*
X89081268Y-48854338D01*
X89073168Y-48699798D01*
X89072053Y-48678533D01*
X89022520Y-48498702D01*
X88935525Y-48333702D01*
X88931120Y-48328489D01*
X88931117Y-48328485D01*
X88819536Y-48196447D01*
X88819532Y-48196443D01*
X88815129Y-48191233D01*
X88809704Y-48187085D01*
X88672369Y-48082084D01*
X88672365Y-48082081D01*
X88666948Y-48077940D01*
X88497896Y-47999110D01*
X88426110Y-47983064D01*
X88363997Y-47948685D01*
X88330329Y-47886180D01*
X88327600Y-47860100D01*
X88327600Y-47188715D01*
X88323125Y-47173476D01*
X88321735Y-47172271D01*
X88314052Y-47170600D01*
X84829716Y-47170600D01*
X84814477Y-47175075D01*
X84813272Y-47176465D01*
X84811601Y-47184148D01*
X84811601Y-48211269D01*
X84811971Y-48218090D01*
X84817495Y-48268952D01*
X84821121Y-48284204D01*
X84866276Y-48404654D01*
X84874814Y-48420249D01*
X84951315Y-48522324D01*
X84963876Y-48534885D01*
X85045575Y-48596115D01*
X85088090Y-48652974D01*
X85093116Y-48723793D01*
X85059056Y-48786086D01*
X85047843Y-48796027D01*
X84906743Y-48906862D01*
X84898094Y-48915099D01*
X84767388Y-49065723D01*
X84760453Y-49075447D01*
X84660590Y-49248067D01*
X84655616Y-49258931D01*
X84590193Y-49447327D01*
X84589952Y-49448316D01*
X76174602Y-49448316D01*
X76174602Y-48732566D01*
X76167847Y-48670384D01*
X76116717Y-48533995D01*
X76029363Y-48417439D01*
X75912807Y-48330085D01*
X75776418Y-48278955D01*
X75714236Y-48272200D01*
X74525768Y-48272200D01*
X74463586Y-48278955D01*
X74327197Y-48330085D01*
X74299724Y-48350675D01*
X74217823Y-48412056D01*
X74217821Y-48412058D01*
X74210641Y-48417439D01*
X74207470Y-48421670D01*
X74146789Y-48454808D01*
X74075973Y-48449745D01*
X74032761Y-48421975D01*
X74029362Y-48417439D01*
X73912806Y-48330085D01*
X73776417Y-48278955D01*
X73714235Y-48272200D01*
X72525767Y-48272200D01*
X72463585Y-48278955D01*
X72327196Y-48330085D01*
X72299723Y-48350675D01*
X72217822Y-48412056D01*
X72217820Y-48412058D01*
X72210640Y-48417439D01*
X72207469Y-48421670D01*
X72146788Y-48454808D01*
X72075972Y-48449745D01*
X72032760Y-48421975D01*
X72029361Y-48417439D01*
X71912805Y-48330085D01*
X71776416Y-48278955D01*
X71714234Y-48272200D01*
X70525766Y-48272200D01*
X70463584Y-48278955D01*
X70327195Y-48330085D01*
X70210639Y-48417439D01*
X70123285Y-48533995D01*
X70072155Y-48670384D01*
X70065400Y-48732566D01*
X70065400Y-50835434D01*
X70072155Y-50897616D01*
X70123285Y-51034005D01*
X70210639Y-51150561D01*
X70217818Y-51155941D01*
X70217820Y-51155943D01*
X70326471Y-51237373D01*
X70368986Y-51294233D01*
X70374011Y-51365051D01*
X70340001Y-51427294D01*
X69583047Y-52184248D01*
X69574761Y-52191788D01*
X69568282Y-52195900D01*
X69562857Y-52201677D01*
X69521657Y-52245551D01*
X69518902Y-52248393D01*
X69499165Y-52268130D01*
X69496685Y-52271327D01*
X69488982Y-52280347D01*
X69458714Y-52312579D01*
X69454895Y-52319525D01*
X69454893Y-52319528D01*
X69448952Y-52330334D01*
X69438101Y-52346853D01*
X69425686Y-52362859D01*
X69422541Y-52370128D01*
X69422538Y-52370132D01*
X69408126Y-52403437D01*
X69402909Y-52414087D01*
X69381605Y-52452840D01*
X69379634Y-52460515D01*
X69379634Y-52460516D01*
X69376567Y-52472462D01*
X69370163Y-52491166D01*
X69362119Y-52509755D01*
X69360880Y-52517578D01*
X69360877Y-52517588D01*
X69355201Y-52553424D01*
X69352795Y-52565044D01*
X69348405Y-52582144D01*
X69341800Y-52607870D01*
X69341800Y-52628124D01*
X69340249Y-52647834D01*
X69337080Y-52667843D01*
X69341075Y-52710100D01*
X69341241Y-52711861D01*
X69341800Y-52723719D01*
X69341800Y-54415500D01*
X69321798Y-54483621D01*
X69268142Y-54530114D01*
X69215800Y-54541500D01*
X65001866Y-54541500D01*
X64939684Y-54548255D01*
X64803295Y-54599385D01*
X64686739Y-54686739D01*
X64599385Y-54803295D01*
X64548255Y-54939684D01*
X64541500Y-55001866D01*
X64541500Y-56098134D01*
X64548255Y-56160316D01*
X64599385Y-56296705D01*
X64686739Y-56413261D01*
X64698783Y-56422287D01*
X64735074Y-56449486D01*
X64777589Y-56506345D01*
X64782615Y-56577164D01*
X64748555Y-56639457D01*
X64735075Y-56651138D01*
X64694274Y-56681717D01*
X64681715Y-56694276D01*
X64605214Y-56796351D01*
X64596676Y-56811946D01*
X64551522Y-56932394D01*
X64547895Y-56947649D01*
X64542369Y-56998514D01*
X64542000Y-57005328D01*
X64542000Y-57277885D01*
X64546475Y-57293124D01*
X64547865Y-57294329D01*
X64555548Y-57296000D01*
X70139884Y-57296000D01*
X70155123Y-57291525D01*
X70156328Y-57290135D01*
X70157999Y-57282452D01*
X70157999Y-57005331D01*
X70157629Y-56998510D01*
X70152105Y-56947648D01*
X70148479Y-56932396D01*
X70103324Y-56811946D01*
X70094786Y-56796351D01*
X70018285Y-56694276D01*
X70005726Y-56681717D01*
X69964925Y-56651138D01*
X69922411Y-56594278D01*
X69917386Y-56523460D01*
X69951446Y-56461166D01*
X69964926Y-56449486D01*
X70001218Y-56422287D01*
X70013261Y-56413261D01*
X70100615Y-56296705D01*
X70131095Y-56215399D01*
X70173737Y-56158636D01*
X70210141Y-56139797D01*
X70212357Y-56139077D01*
X70247175Y-56127764D01*
X70253872Y-56123514D01*
X70254131Y-56123350D01*
X70275258Y-56112585D01*
X70275546Y-56112471D01*
X70275551Y-56112468D01*
X70282917Y-56109552D01*
X70289325Y-56104896D01*
X70289331Y-56104893D01*
X70328352Y-56076542D01*
X70334889Y-56072099D01*
X70382318Y-56042000D01*
X70387959Y-56035993D01*
X70405746Y-56020312D01*
X70405991Y-56020134D01*
X70405993Y-56020132D01*
X70412407Y-56015472D01*
X70427655Y-55997041D01*
X70448203Y-55972204D01*
X70453434Y-55966270D01*
X70486458Y-55931102D01*
X70486460Y-55931099D01*
X70491886Y-55925321D01*
X70495858Y-55918097D01*
X70509181Y-55898494D01*
X70509380Y-55898254D01*
X70509384Y-55898247D01*
X70514433Y-55892144D01*
X70538347Y-55841324D01*
X70541929Y-55834292D01*
X70568995Y-55785060D01*
X70570965Y-55777385D01*
X70570968Y-55777379D01*
X70571044Y-55777081D01*
X70579076Y-55754772D01*
X70579206Y-55754497D01*
X70579209Y-55754489D01*
X70582583Y-55747318D01*
X70593106Y-55692151D01*
X70594832Y-55684429D01*
X70606829Y-55637707D01*
X70606829Y-55637706D01*
X70608800Y-55630030D01*
X70608800Y-55621793D01*
X70611032Y-55598184D01*
X70611090Y-55597881D01*
X70611090Y-55597877D01*
X70612575Y-55590094D01*
X70609049Y-55534049D01*
X70608800Y-55526138D01*
X70608800Y-54577956D01*
X70628802Y-54509835D01*
X70682458Y-54463342D01*
X70748407Y-54452693D01*
X70798467Y-54458131D01*
X70798471Y-54458131D01*
X70801866Y-54458500D01*
X74298134Y-54458500D01*
X74360316Y-54451745D01*
X74496705Y-54400615D01*
X74613261Y-54313261D01*
X74700615Y-54196705D01*
X74751745Y-54060316D01*
X74758500Y-53998134D01*
X74758500Y-52301866D01*
X74751745Y-52239684D01*
X74700615Y-52103295D01*
X74613261Y-51986739D01*
X74496705Y-51899385D01*
X74360316Y-51848255D01*
X74298134Y-51841500D01*
X73587418Y-51841500D01*
X73519297Y-51821498D01*
X73472804Y-51767842D01*
X73462700Y-51697568D01*
X73492194Y-51632988D01*
X73514271Y-51613967D01*
X73514216Y-51613901D01*
X73517527Y-51611162D01*
X73519901Y-51609116D01*
X73527018Y-51604600D01*
X73532659Y-51598593D01*
X73550446Y-51582912D01*
X73550691Y-51582734D01*
X73550693Y-51582732D01*
X73557107Y-51578072D01*
X73562162Y-51571962D01*
X73592903Y-51534804D01*
X73598134Y-51528870D01*
X73631158Y-51493702D01*
X73631160Y-51493699D01*
X73636586Y-51487921D01*
X73640558Y-51480697D01*
X73653881Y-51461094D01*
X73654080Y-51460854D01*
X73654084Y-51460847D01*
X73659133Y-51454744D01*
X73683047Y-51403924D01*
X73686629Y-51396892D01*
X73713695Y-51347660D01*
X73715965Y-51348909D01*
X73751861Y-51302909D01*
X73781104Y-51287288D01*
X73904396Y-51241068D01*
X73904397Y-51241067D01*
X73912806Y-51237915D01*
X74029362Y-51150561D01*
X74032534Y-51146328D01*
X74093223Y-51113192D01*
X74164038Y-51118259D01*
X74207242Y-51146026D01*
X74210641Y-51150561D01*
X74327197Y-51237915D01*
X74335606Y-51241067D01*
X74335607Y-51241068D01*
X74458915Y-51287294D01*
X74515680Y-51329935D01*
X74530323Y-51355236D01*
X74531771Y-51358582D01*
X74533982Y-51366193D01*
X74538015Y-51373012D01*
X74538017Y-51373017D01*
X74544293Y-51383628D01*
X74552988Y-51401376D01*
X74560448Y-51420217D01*
X74565110Y-51426633D01*
X74565110Y-51426634D01*
X74586436Y-51455987D01*
X74592952Y-51465907D01*
X74595531Y-51470267D01*
X74615458Y-51503962D01*
X74629779Y-51518283D01*
X74642619Y-51533316D01*
X74654528Y-51549707D01*
X74660634Y-51554758D01*
X74688605Y-51577898D01*
X74697384Y-51585888D01*
X76847343Y-53735847D01*
X76854887Y-53744137D01*
X76859000Y-53750618D01*
X76864777Y-53756043D01*
X76908667Y-53797258D01*
X76911509Y-53800013D01*
X76931230Y-53819734D01*
X76934425Y-53822212D01*
X76943447Y-53829918D01*
X76975679Y-53860186D01*
X76982628Y-53864006D01*
X76993432Y-53869946D01*
X77009956Y-53880799D01*
X77025959Y-53893213D01*
X77066543Y-53910776D01*
X77077173Y-53915983D01*
X77115940Y-53937295D01*
X77123617Y-53939266D01*
X77123622Y-53939268D01*
X77135558Y-53942332D01*
X77154266Y-53948737D01*
X77172855Y-53956781D01*
X77180680Y-53958020D01*
X77180682Y-53958021D01*
X77216519Y-53963697D01*
X77228140Y-53966104D01*
X77263289Y-53975128D01*
X77270970Y-53977100D01*
X77291231Y-53977100D01*
X77310940Y-53978651D01*
X77330943Y-53981819D01*
X77338835Y-53981073D01*
X77344062Y-53980579D01*
X77374954Y-53977659D01*
X77386811Y-53977100D01*
X77821600Y-53977100D01*
X77889721Y-53997102D01*
X77936214Y-54050758D01*
X77947600Y-54103100D01*
X77947600Y-55896333D01*
X77947073Y-55907516D01*
X77945398Y-55915009D01*
X77945647Y-55922935D01*
X77945647Y-55922936D01*
X77947538Y-55983086D01*
X77947600Y-55987045D01*
X77947600Y-56014956D01*
X77948097Y-56018890D01*
X77948097Y-56018891D01*
X77948105Y-56018956D01*
X77949038Y-56030793D01*
X77950427Y-56074989D01*
X77956078Y-56094439D01*
X77960087Y-56113800D01*
X77961294Y-56123350D01*
X77962626Y-56133897D01*
X77965545Y-56141268D01*
X77965545Y-56141270D01*
X77978904Y-56175012D01*
X77982749Y-56186242D01*
X77995082Y-56228693D01*
X77999115Y-56235512D01*
X77999117Y-56235517D01*
X78005393Y-56246128D01*
X78014088Y-56263876D01*
X78021548Y-56282717D01*
X78026210Y-56289133D01*
X78026210Y-56289134D01*
X78047536Y-56318487D01*
X78054052Y-56328407D01*
X78076558Y-56366462D01*
X78090879Y-56380783D01*
X78103719Y-56395816D01*
X78115628Y-56412207D01*
X78121734Y-56417258D01*
X78149705Y-56440398D01*
X78158484Y-56448388D01*
X81047995Y-59337899D01*
X81082021Y-59400211D01*
X81084900Y-59426994D01*
X81084900Y-59544500D01*
X81064898Y-59612621D01*
X81011242Y-59659114D01*
X80958900Y-59670500D01*
X80898413Y-59670500D01*
X80891961Y-59671872D01*
X80891956Y-59671872D01*
X80805013Y-59690353D01*
X80711612Y-59710206D01*
X80705582Y-59712891D01*
X80705581Y-59712891D01*
X80543178Y-59785197D01*
X80543176Y-59785198D01*
X80537148Y-59787882D01*
X80531807Y-59791762D01*
X80531806Y-59791763D01*
X80488035Y-59823565D01*
X80382647Y-59900134D01*
X80378232Y-59905037D01*
X80373320Y-59909460D01*
X80372195Y-59908211D01*
X80318886Y-59941051D01*
X80285700Y-59945500D01*
X77784595Y-59945500D01*
X77716474Y-59925498D01*
X77695499Y-59908595D01*
X77254770Y-59467865D01*
X77254756Y-59467852D01*
X75687652Y-57900747D01*
X75680112Y-57892461D01*
X75676000Y-57885982D01*
X75650756Y-57862276D01*
X75626349Y-57839357D01*
X75623507Y-57836602D01*
X75603770Y-57816865D01*
X75600573Y-57814385D01*
X75591551Y-57806680D01*
X75565100Y-57781841D01*
X75559321Y-57776414D01*
X75552375Y-57772595D01*
X75552372Y-57772593D01*
X75541566Y-57766652D01*
X75525047Y-57755801D01*
X75519048Y-57751148D01*
X75509041Y-57743386D01*
X75501772Y-57740241D01*
X75501768Y-57740238D01*
X75468463Y-57725826D01*
X75457813Y-57720609D01*
X75419060Y-57699305D01*
X75399437Y-57694267D01*
X75380734Y-57687863D01*
X75369420Y-57682967D01*
X75369419Y-57682967D01*
X75362145Y-57679819D01*
X75354322Y-57678580D01*
X75354312Y-57678577D01*
X75318476Y-57672901D01*
X75306856Y-57670495D01*
X75271711Y-57661472D01*
X75271710Y-57661472D01*
X75264030Y-57659500D01*
X75243776Y-57659500D01*
X75224065Y-57657949D01*
X75211886Y-57656020D01*
X75204057Y-57654780D01*
X75196165Y-57655526D01*
X75160039Y-57658941D01*
X75148181Y-57659500D01*
X74241200Y-57659500D01*
X74173079Y-57639498D01*
X74153853Y-57623157D01*
X74153580Y-57623460D01*
X74148668Y-57619037D01*
X74144253Y-57614134D01*
X73989752Y-57501882D01*
X73983724Y-57499198D01*
X73983722Y-57499197D01*
X73821319Y-57426891D01*
X73821318Y-57426891D01*
X73815288Y-57424206D01*
X73721887Y-57404353D01*
X73634944Y-57385872D01*
X73634939Y-57385872D01*
X73628487Y-57384500D01*
X73437513Y-57384500D01*
X73431061Y-57385872D01*
X73431056Y-57385872D01*
X73344113Y-57404353D01*
X73250712Y-57424206D01*
X73244682Y-57426891D01*
X73244681Y-57426891D01*
X73082278Y-57499197D01*
X73082276Y-57499198D01*
X73076248Y-57501882D01*
X72921747Y-57614134D01*
X72917326Y-57619044D01*
X72917325Y-57619045D01*
X72807173Y-57741382D01*
X72793960Y-57756056D01*
X72698473Y-57921444D01*
X72639458Y-58103072D01*
X72638768Y-58109633D01*
X72638768Y-58109635D01*
X72633977Y-58155221D01*
X72619496Y-58293000D01*
X72620186Y-58299565D01*
X72638164Y-58470615D01*
X72639458Y-58482928D01*
X72641499Y-58489210D01*
X72641519Y-58489303D01*
X72636117Y-58560094D01*
X72593300Y-58616727D01*
X72526662Y-58641220D01*
X72518272Y-58641500D01*
X70801866Y-58641500D01*
X70739684Y-58648255D01*
X70603295Y-58699385D01*
X70486739Y-58786739D01*
X70399385Y-58903295D01*
X70348255Y-59039684D01*
X70341500Y-59101866D01*
X70341500Y-60798134D01*
X70348255Y-60860316D01*
X70399385Y-60996705D01*
X70486739Y-61113261D01*
X70603295Y-61200615D01*
X70739684Y-61251745D01*
X70801866Y-61258500D01*
X74298134Y-61258500D01*
X74360316Y-61251745D01*
X74496705Y-61200615D01*
X74613261Y-61113261D01*
X74700615Y-60996705D01*
X74751745Y-60860316D01*
X74758500Y-60798134D01*
X74758500Y-59101866D01*
X74755892Y-59077856D01*
X74768421Y-59007973D01*
X74816742Y-58955958D01*
X74885513Y-58938324D01*
X74952902Y-58960671D01*
X74970250Y-58975154D01*
X76966343Y-60971247D01*
X76973887Y-60979537D01*
X76978000Y-60986018D01*
X76983777Y-60991443D01*
X77027667Y-61032658D01*
X77030509Y-61035413D01*
X77050231Y-61055135D01*
X77053355Y-61057558D01*
X77053359Y-61057562D01*
X77053424Y-61057612D01*
X77062445Y-61065317D01*
X77094679Y-61095586D01*
X77101627Y-61099405D01*
X77101629Y-61099407D01*
X77112432Y-61105346D01*
X77128959Y-61116202D01*
X77138698Y-61123757D01*
X77138700Y-61123758D01*
X77144960Y-61128614D01*
X77185540Y-61146174D01*
X77196188Y-61151391D01*
X77234940Y-61172695D01*
X77242616Y-61174666D01*
X77242619Y-61174667D01*
X77254562Y-61177733D01*
X77273267Y-61184137D01*
X77291855Y-61192181D01*
X77299678Y-61193420D01*
X77299688Y-61193423D01*
X77335524Y-61199099D01*
X77347144Y-61201505D01*
X77382289Y-61210528D01*
X77389970Y-61212500D01*
X77410224Y-61212500D01*
X77429934Y-61214051D01*
X77449943Y-61217220D01*
X77457835Y-61216474D01*
X77493961Y-61213059D01*
X77505819Y-61212500D01*
X80285700Y-61212500D01*
X80353821Y-61232502D01*
X80373047Y-61248843D01*
X80373320Y-61248540D01*
X80378232Y-61252963D01*
X80382647Y-61257866D01*
X80537148Y-61370118D01*
X80543176Y-61372802D01*
X80543178Y-61372803D01*
X80686463Y-61436597D01*
X80711612Y-61447794D01*
X80805012Y-61467647D01*
X80891956Y-61486128D01*
X80891961Y-61486128D01*
X80898413Y-61487500D01*
X80958900Y-61487500D01*
X81027021Y-61507502D01*
X81073514Y-61561158D01*
X81084900Y-61613500D01*
X81084900Y-66591354D01*
X81064898Y-66659475D01*
X81011242Y-66705968D01*
X80940968Y-66716072D01*
X80876388Y-66686578D01*
X80851552Y-66655795D01*
X80850615Y-66653295D01*
X80845230Y-66646109D01*
X80768642Y-66543919D01*
X80763261Y-66536739D01*
X80646705Y-66449385D01*
X80510316Y-66398255D01*
X80448134Y-66391500D01*
X78951866Y-66391500D01*
X78889684Y-66398255D01*
X78753295Y-66449385D01*
X78636739Y-66536739D01*
X78549385Y-66653295D01*
X78498255Y-66789684D01*
X78491500Y-66851866D01*
X78491500Y-68675200D01*
X78471498Y-68743321D01*
X78417842Y-68789814D01*
X78365500Y-68801200D01*
X72824594Y-68801200D01*
X72756473Y-68781198D01*
X72735499Y-68764295D01*
X72119460Y-68148255D01*
X71478952Y-67507747D01*
X71471412Y-67499461D01*
X71467300Y-67492982D01*
X71456052Y-67482419D01*
X71417649Y-67446357D01*
X71414807Y-67443602D01*
X71395070Y-67423865D01*
X71391873Y-67421385D01*
X71382851Y-67413680D01*
X71350621Y-67383414D01*
X71343675Y-67379595D01*
X71343672Y-67379593D01*
X71332866Y-67373652D01*
X71316347Y-67362801D01*
X71315883Y-67362441D01*
X71300341Y-67350386D01*
X71293072Y-67347241D01*
X71293068Y-67347238D01*
X71259763Y-67332826D01*
X71249113Y-67327609D01*
X71210360Y-67306305D01*
X71190737Y-67301267D01*
X71172034Y-67294863D01*
X71160720Y-67289967D01*
X71160719Y-67289967D01*
X71153445Y-67286819D01*
X71145622Y-67285580D01*
X71145612Y-67285577D01*
X71129954Y-67283097D01*
X71065801Y-67252683D01*
X71048842Y-67234215D01*
X71013261Y-67186739D01*
X70896705Y-67099385D01*
X70886092Y-67095406D01*
X70840270Y-67078228D01*
X70788968Y-67039690D01*
X72437037Y-67039690D01*
X72464025Y-67262715D01*
X72530082Y-67477435D01*
X72532652Y-67482415D01*
X72532654Y-67482419D01*
X72620474Y-67652566D01*
X72633118Y-67677064D01*
X72636531Y-67681511D01*
X72636531Y-67681512D01*
X72642931Y-67689852D01*
X72769877Y-67855292D01*
X72936036Y-68006485D01*
X72940783Y-68009463D01*
X72940786Y-68009465D01*
X73069229Y-68090036D01*
X73126344Y-68125864D01*
X73334783Y-68209656D01*
X73554767Y-68255213D01*
X73559378Y-68255479D01*
X73559379Y-68255479D01*
X73609952Y-68258395D01*
X73609956Y-68258395D01*
X73611775Y-68258500D01*
X73756999Y-68258500D01*
X73759786Y-68258251D01*
X73759792Y-68258251D01*
X73829929Y-68251991D01*
X73923762Y-68243617D01*
X73929176Y-68242136D01*
X73929181Y-68242135D01*
X74085445Y-68199385D01*
X74140451Y-68184337D01*
X74145509Y-68181925D01*
X74145513Y-68181923D01*
X74263042Y-68125864D01*
X74343218Y-68087622D01*
X74525654Y-67956529D01*
X74628067Y-67850847D01*
X74678089Y-67799229D01*
X74678091Y-67799226D01*
X74681992Y-67795201D01*
X74807290Y-67608738D01*
X74897588Y-67403033D01*
X74899108Y-67396705D01*
X74948722Y-67190046D01*
X74948722Y-67190045D01*
X74950032Y-67184589D01*
X74956164Y-67078228D01*
X74962640Y-66965917D01*
X74962640Y-66965914D01*
X74962963Y-66960310D01*
X74935975Y-66737285D01*
X74869918Y-66522565D01*
X74865756Y-66514500D01*
X74769454Y-66327919D01*
X74769454Y-66327918D01*
X74766882Y-66322936D01*
X74630123Y-66144708D01*
X74463964Y-65993515D01*
X74459217Y-65990537D01*
X74459214Y-65990535D01*
X74278405Y-65877115D01*
X74273656Y-65874136D01*
X74065217Y-65790344D01*
X73845233Y-65744787D01*
X73840622Y-65744521D01*
X73840621Y-65744521D01*
X73790048Y-65741605D01*
X73790044Y-65741605D01*
X73788225Y-65741500D01*
X73643001Y-65741500D01*
X73640214Y-65741749D01*
X73640208Y-65741749D01*
X73570071Y-65748009D01*
X73476238Y-65756383D01*
X73470824Y-65757864D01*
X73470819Y-65757865D01*
X73356262Y-65789205D01*
X73259549Y-65815663D01*
X73254491Y-65818075D01*
X73254487Y-65818077D01*
X73158166Y-65864020D01*
X73056782Y-65912378D01*
X72874346Y-66043471D01*
X72870439Y-66047503D01*
X72739538Y-66182582D01*
X72718008Y-66204799D01*
X72592710Y-66391262D01*
X72502412Y-66596967D01*
X72501103Y-66602418D01*
X72501102Y-66602422D01*
X72454258Y-66797540D01*
X72449968Y-66815411D01*
X72437037Y-67039690D01*
X70788968Y-67039690D01*
X70783505Y-67035586D01*
X70758806Y-66969024D01*
X70758500Y-66960246D01*
X70758500Y-66401866D01*
X70751745Y-66339684D01*
X70700615Y-66203295D01*
X70613261Y-66086739D01*
X70496705Y-65999385D01*
X70360316Y-65948255D01*
X70298134Y-65941500D01*
X68701866Y-65941500D01*
X68639684Y-65948255D01*
X68503295Y-65999385D01*
X68386739Y-66086739D01*
X68299385Y-66203295D01*
X68248255Y-66339684D01*
X68241500Y-66401866D01*
X68241500Y-67198134D01*
X68248255Y-67260316D01*
X68299385Y-67396705D01*
X68386739Y-67513261D01*
X68503295Y-67600615D01*
X68511703Y-67603767D01*
X68559730Y-67621772D01*
X68616495Y-67664414D01*
X68641194Y-67730976D01*
X68641500Y-67739754D01*
X68641500Y-68060246D01*
X68621498Y-68128367D01*
X68567842Y-68174860D01*
X68559730Y-68178228D01*
X68517758Y-68193963D01*
X68503295Y-68199385D01*
X68386739Y-68286739D01*
X68299385Y-68403295D01*
X68248255Y-68539684D01*
X68241500Y-68601866D01*
X68241500Y-69024286D01*
X68221498Y-69092407D01*
X68167842Y-69138900D01*
X68097568Y-69149004D01*
X68064250Y-69139392D01*
X68023823Y-69121392D01*
X68023815Y-69121389D01*
X68017788Y-69118706D01*
X67924387Y-69098853D01*
X67837444Y-69080372D01*
X67837439Y-69080372D01*
X67830987Y-69079000D01*
X67640013Y-69079000D01*
X67633561Y-69080372D01*
X67633556Y-69080372D01*
X67546613Y-69098853D01*
X67453212Y-69118706D01*
X67447182Y-69121391D01*
X67447181Y-69121391D01*
X67284778Y-69193697D01*
X67284776Y-69193698D01*
X67278748Y-69196382D01*
X67273407Y-69200262D01*
X67273406Y-69200263D01*
X67235168Y-69228045D01*
X67124247Y-69308634D01*
X67119826Y-69313544D01*
X67119825Y-69313545D01*
X67057587Y-69382668D01*
X66996460Y-69450556D01*
X66900973Y-69615944D01*
X66841958Y-69797572D01*
X66841268Y-69804133D01*
X66841268Y-69804135D01*
X66835546Y-69858577D01*
X66821996Y-69987500D01*
X66822686Y-69994065D01*
X66839884Y-70157692D01*
X66841958Y-70177428D01*
X66900973Y-70359056D01*
X66996460Y-70524444D01*
X67000878Y-70529351D01*
X67000879Y-70529352D01*
X67029827Y-70561502D01*
X67124247Y-70666366D01*
X67278748Y-70778618D01*
X67284776Y-70781302D01*
X67284778Y-70781303D01*
X67447181Y-70853609D01*
X67453212Y-70856294D01*
X67514057Y-70869227D01*
X67633556Y-70894628D01*
X67633561Y-70894628D01*
X67640013Y-70896000D01*
X67830987Y-70896000D01*
X67837439Y-70894628D01*
X67837444Y-70894628D01*
X67982360Y-70863825D01*
X68053151Y-70869227D01*
X68084121Y-70886245D01*
X68103295Y-70900615D01*
X68111703Y-70903767D01*
X68159730Y-70921772D01*
X68216495Y-70964414D01*
X68241194Y-71030976D01*
X68241500Y-71039754D01*
X68241500Y-71360780D01*
X68221498Y-71428901D01*
X68167842Y-71475394D01*
X68159731Y-71478762D01*
X68111944Y-71496677D01*
X68096351Y-71505214D01*
X67994276Y-71581715D01*
X67981715Y-71594276D01*
X67905214Y-71696351D01*
X67896676Y-71711946D01*
X67851522Y-71832394D01*
X67847895Y-71847649D01*
X67842369Y-71898514D01*
X67842000Y-71905328D01*
X67842000Y-72027885D01*
X67846475Y-72043124D01*
X67847865Y-72044329D01*
X67855548Y-72046000D01*
X68605014Y-72046000D01*
X68633165Y-72049301D01*
X68639684Y-72051745D01*
X68647532Y-72052598D01*
X68647534Y-72052598D01*
X68698469Y-72058131D01*
X68701866Y-72058500D01*
X69228000Y-72058500D01*
X69296121Y-72078502D01*
X69342614Y-72132158D01*
X69354000Y-72184500D01*
X69354000Y-72415500D01*
X69333998Y-72483621D01*
X69280342Y-72530114D01*
X69228000Y-72541500D01*
X68701866Y-72541500D01*
X68698469Y-72541869D01*
X68647534Y-72547402D01*
X68647532Y-72547402D01*
X68639684Y-72548255D01*
X68633165Y-72550699D01*
X68605014Y-72554000D01*
X67860116Y-72554000D01*
X67844877Y-72558475D01*
X67843672Y-72559865D01*
X67842001Y-72567548D01*
X67842001Y-72694669D01*
X67842371Y-72701490D01*
X67847895Y-72752352D01*
X67851521Y-72767604D01*
X67896676Y-72888054D01*
X67905214Y-72903649D01*
X67981715Y-73005724D01*
X67994276Y-73018285D01*
X68096351Y-73094786D01*
X68111944Y-73103323D01*
X68159731Y-73121238D01*
X68216495Y-73163880D01*
X68241194Y-73230442D01*
X68241500Y-73239220D01*
X68241500Y-73798134D01*
X68241869Y-73801531D01*
X68246739Y-73846357D01*
X68248255Y-73860316D01*
X68251027Y-73867709D01*
X68251027Y-73867711D01*
X68265295Y-73905771D01*
X68270478Y-73976578D01*
X68265295Y-73994229D01*
X68252662Y-74027927D01*
X68248255Y-74039684D01*
X68241500Y-74101866D01*
X68241500Y-74404461D01*
X68221498Y-74472582D01*
X68167842Y-74519075D01*
X68097568Y-74529179D01*
X68032988Y-74499685D01*
X68004980Y-74464970D01*
X67994788Y-74446354D01*
X67918285Y-74344276D01*
X67905724Y-74331715D01*
X67803649Y-74255214D01*
X67788054Y-74246676D01*
X67667606Y-74201522D01*
X67652351Y-74197895D01*
X67601486Y-74192369D01*
X67594672Y-74192000D01*
X66872115Y-74192000D01*
X66856876Y-74196475D01*
X66855671Y-74197865D01*
X66854000Y-74205548D01*
X66854000Y-76589884D01*
X66858475Y-76605123D01*
X66859865Y-76606328D01*
X66867548Y-76607999D01*
X67594669Y-76607999D01*
X67601490Y-76607629D01*
X67652352Y-76602105D01*
X67667604Y-76598479D01*
X67788054Y-76553324D01*
X67803649Y-76544786D01*
X67905724Y-76468285D01*
X67918285Y-76455724D01*
X67994786Y-76353649D01*
X68003324Y-76338054D01*
X68048478Y-76217606D01*
X68052105Y-76202352D01*
X68056175Y-76164892D01*
X68083418Y-76099330D01*
X68141781Y-76058905D01*
X68212735Y-76056450D01*
X68275074Y-76094191D01*
X68305847Y-76128368D01*
X68460348Y-76240620D01*
X68466376Y-76243304D01*
X68466378Y-76243305D01*
X68544460Y-76278069D01*
X68634812Y-76318296D01*
X68727766Y-76338054D01*
X68815156Y-76356630D01*
X68815161Y-76356630D01*
X68821613Y-76358002D01*
X69012587Y-76358002D01*
X69019039Y-76356630D01*
X69019044Y-76356630D01*
X69106434Y-76338054D01*
X69199388Y-76318296D01*
X69289740Y-76278069D01*
X69309224Y-76269394D01*
X69360473Y-76258501D01*
X81649232Y-76258501D01*
X81660415Y-76259028D01*
X81667908Y-76260703D01*
X81675834Y-76260454D01*
X81675835Y-76260454D01*
X81735985Y-76258563D01*
X81739944Y-76258501D01*
X81767855Y-76258501D01*
X81771790Y-76258004D01*
X81771855Y-76257996D01*
X81783692Y-76257063D01*
X81815950Y-76256049D01*
X81819969Y-76255923D01*
X81827888Y-76255674D01*
X81847342Y-76250022D01*
X81866699Y-76246014D01*
X81878929Y-76244469D01*
X81878930Y-76244469D01*
X81886796Y-76243475D01*
X81894167Y-76240556D01*
X81894169Y-76240556D01*
X81927911Y-76227197D01*
X81939141Y-76223352D01*
X81973982Y-76213230D01*
X81973983Y-76213230D01*
X81981592Y-76211019D01*
X81988411Y-76206986D01*
X81988416Y-76206984D01*
X81999027Y-76200708D01*
X82016775Y-76192013D01*
X82035616Y-76184553D01*
X82062678Y-76164892D01*
X82071386Y-76158565D01*
X82081306Y-76152049D01*
X82112534Y-76133581D01*
X82112537Y-76133579D01*
X82119361Y-76129543D01*
X82133682Y-76115222D01*
X82148716Y-76102381D01*
X82152915Y-76099330D01*
X82165106Y-76090473D01*
X82193297Y-76056396D01*
X82201287Y-76047617D01*
X82267499Y-75981405D01*
X82329811Y-75947379D01*
X82356594Y-75944500D01*
X82640500Y-75944500D01*
X82708621Y-75964502D01*
X82755114Y-76018158D01*
X82766500Y-76070500D01*
X82766500Y-80433014D01*
X82749619Y-80496014D01*
X82731473Y-80527444D01*
X82672458Y-80709072D01*
X82652496Y-80899000D01*
X82653186Y-80905565D01*
X82670469Y-81070000D01*
X82672458Y-81088928D01*
X82731473Y-81270556D01*
X82826960Y-81435944D01*
X82900137Y-81517215D01*
X82930853Y-81581221D01*
X82932500Y-81601524D01*
X82932500Y-89590207D01*
X82930268Y-89613816D01*
X82928725Y-89621906D01*
X82929223Y-89629817D01*
X82932251Y-89677951D01*
X82932500Y-89685862D01*
X82932500Y-89701856D01*
X82934506Y-89717730D01*
X82935248Y-89725590D01*
X82938775Y-89781650D01*
X82941225Y-89789191D01*
X82941321Y-89789487D01*
X82946494Y-89812631D01*
X82946532Y-89812935D01*
X82946533Y-89812940D01*
X82947526Y-89820797D01*
X82950442Y-89828162D01*
X82950443Y-89828166D01*
X82968199Y-89873011D01*
X82970871Y-89880430D01*
X82988236Y-89933875D01*
X82992486Y-89940571D01*
X82992486Y-89940572D01*
X82992650Y-89940831D01*
X83003415Y-89961958D01*
X83003529Y-89962246D01*
X83003532Y-89962251D01*
X83006448Y-89969617D01*
X83011104Y-89976025D01*
X83011107Y-89976031D01*
X83039458Y-90015052D01*
X83043901Y-90021589D01*
X83074000Y-90069018D01*
X83079780Y-90074446D01*
X83084832Y-90080553D01*
X83083085Y-90081998D01*
X83113220Y-90133290D01*
X83117000Y-90163923D01*
X83117000Y-94615500D01*
X83096998Y-94683621D01*
X83043342Y-94730114D01*
X82991000Y-94741500D01*
X67208088Y-94741500D01*
X67139967Y-94721498D01*
X67093474Y-94667842D01*
X67083370Y-94597568D01*
X67112864Y-94532988D01*
X67144517Y-94506712D01*
X67224219Y-94460138D01*
X67224220Y-94460137D01*
X67227922Y-94457974D01*
X67454159Y-94280582D01*
X67654227Y-94074128D01*
X67656760Y-94070680D01*
X67656764Y-94070675D01*
X67821887Y-93845886D01*
X67824425Y-93842431D01*
X67961604Y-93589779D01*
X68063225Y-93320848D01*
X68127407Y-93040613D01*
X68128436Y-93029092D01*
X68152743Y-92756726D01*
X68152743Y-92756724D01*
X68152963Y-92754260D01*
X68153427Y-92710000D01*
X68150726Y-92670386D01*
X68134165Y-92427452D01*
X68134164Y-92427446D01*
X68133873Y-92423175D01*
X68075574Y-92141658D01*
X67979607Y-91870657D01*
X67864592Y-91647819D01*
X67849715Y-91618995D01*
X67849715Y-91618994D01*
X67847750Y-91615188D01*
X67834488Y-91596317D01*
X67684904Y-91383482D01*
X67682441Y-91379977D01*
X67486740Y-91169378D01*
X67264268Y-90987287D01*
X67019142Y-90837073D01*
X67001048Y-90829130D01*
X66759830Y-90723243D01*
X66755898Y-90721517D01*
X66729963Y-90714129D01*
X66483534Y-90643932D01*
X66483535Y-90643932D01*
X66479406Y-90642756D01*
X66266704Y-90612485D01*
X66199036Y-90602854D01*
X66199034Y-90602854D01*
X66194784Y-90602249D01*
X66190495Y-90602227D01*
X66190488Y-90602226D01*
X65911583Y-90600765D01*
X65911576Y-90600765D01*
X65907297Y-90600743D01*
X65903053Y-90601302D01*
X65903049Y-90601302D01*
X65777660Y-90617810D01*
X65622266Y-90638268D01*
X65618126Y-90639401D01*
X65618124Y-90639401D01*
X65541311Y-90660415D01*
X65344964Y-90714129D01*
X65341016Y-90715813D01*
X65084476Y-90825237D01*
X65084472Y-90825239D01*
X65080524Y-90826923D01*
X64955960Y-90901473D01*
X64837521Y-90972357D01*
X64837517Y-90972360D01*
X64833839Y-90974561D01*
X64609472Y-91154313D01*
X64411577Y-91362851D01*
X64243814Y-91596317D01*
X64241801Y-91600119D01*
X64241587Y-91600464D01*
X64188691Y-91647819D01*
X64118589Y-91659059D01*
X64053540Y-91630615D01*
X64014194Y-91571518D01*
X64008500Y-91534068D01*
X64008500Y-82169000D01*
X76711996Y-82169000D01*
X76712686Y-82175565D01*
X76729879Y-82339144D01*
X76731958Y-82358928D01*
X76790973Y-82540556D01*
X76794276Y-82546278D01*
X76794277Y-82546279D01*
X76819886Y-82590635D01*
X76886460Y-82705944D01*
X76890878Y-82710851D01*
X76890879Y-82710852D01*
X76978970Y-82808687D01*
X77006483Y-82860000D01*
X77007026Y-82864297D01*
X77009942Y-82871663D01*
X77009944Y-82871669D01*
X77023304Y-82905412D01*
X77027149Y-82916642D01*
X77037271Y-82951483D01*
X77039482Y-82959093D01*
X77043515Y-82965912D01*
X77043517Y-82965917D01*
X77049793Y-82976528D01*
X77058488Y-82994276D01*
X77065948Y-83013117D01*
X77070610Y-83019533D01*
X77070610Y-83019534D01*
X77091936Y-83048887D01*
X77098452Y-83058807D01*
X77120958Y-83096862D01*
X77135279Y-83111183D01*
X77148119Y-83126216D01*
X77160028Y-83142607D01*
X77166134Y-83147658D01*
X77194105Y-83170798D01*
X77202884Y-83178788D01*
X77307595Y-83283499D01*
X77341621Y-83345811D01*
X77344500Y-83372594D01*
X77344500Y-85699233D01*
X77343973Y-85710416D01*
X77342298Y-85717909D01*
X77342547Y-85725835D01*
X77342547Y-85725836D01*
X77344438Y-85785986D01*
X77344500Y-85789945D01*
X77344500Y-85817856D01*
X77344997Y-85821790D01*
X77344997Y-85821791D01*
X77345005Y-85821856D01*
X77345938Y-85833693D01*
X77347327Y-85877889D01*
X77352978Y-85897339D01*
X77356987Y-85916700D01*
X77359526Y-85936797D01*
X77362445Y-85944168D01*
X77362445Y-85944170D01*
X77375804Y-85977912D01*
X77379649Y-85989142D01*
X77391982Y-86031593D01*
X77396015Y-86038412D01*
X77396017Y-86038417D01*
X77402293Y-86049028D01*
X77410988Y-86066776D01*
X77418448Y-86085617D01*
X77423110Y-86092033D01*
X77423110Y-86092034D01*
X77444436Y-86121387D01*
X77450952Y-86131307D01*
X77473458Y-86169362D01*
X77487779Y-86183683D01*
X77500619Y-86198716D01*
X77512528Y-86215107D01*
X77518634Y-86220158D01*
X77546605Y-86243298D01*
X77555384Y-86251288D01*
X79952878Y-88648783D01*
X79986904Y-88711095D01*
X79989093Y-88724706D01*
X80006458Y-88889928D01*
X80065473Y-89071556D01*
X80160960Y-89236944D01*
X80288747Y-89378866D01*
X80443248Y-89491118D01*
X80449276Y-89493802D01*
X80449278Y-89493803D01*
X80611681Y-89566109D01*
X80617712Y-89568794D01*
X80711112Y-89588647D01*
X80798056Y-89607128D01*
X80798061Y-89607128D01*
X80804513Y-89608500D01*
X80995487Y-89608500D01*
X81001939Y-89607128D01*
X81001944Y-89607128D01*
X81088888Y-89588647D01*
X81182288Y-89568794D01*
X81188319Y-89566109D01*
X81350722Y-89493803D01*
X81350724Y-89493802D01*
X81356752Y-89491118D01*
X81511253Y-89378866D01*
X81639040Y-89236944D01*
X81734527Y-89071556D01*
X81793542Y-88889928D01*
X81813504Y-88700000D01*
X81793542Y-88510072D01*
X81734527Y-88328444D01*
X81639040Y-88163056D01*
X81511253Y-88021134D01*
X81356752Y-87908882D01*
X81350724Y-87906198D01*
X81350722Y-87906197D01*
X81188319Y-87833891D01*
X81188318Y-87833891D01*
X81182288Y-87831206D01*
X81088888Y-87811353D01*
X81001944Y-87792872D01*
X81001939Y-87792872D01*
X80995487Y-87791500D01*
X80939594Y-87791500D01*
X80871473Y-87771498D01*
X80850499Y-87754595D01*
X78648405Y-85552500D01*
X78614379Y-85490188D01*
X78611500Y-85463405D01*
X78611500Y-83136767D01*
X78612027Y-83125584D01*
X78613702Y-83118091D01*
X78611562Y-83050014D01*
X78611500Y-83046055D01*
X78611500Y-83018144D01*
X78610995Y-83014144D01*
X78610062Y-83002301D01*
X78608922Y-82966029D01*
X78608673Y-82958110D01*
X78603022Y-82938658D01*
X78599014Y-82919306D01*
X78597467Y-82907063D01*
X78596474Y-82899203D01*
X78585573Y-82871669D01*
X78580200Y-82858097D01*
X78576355Y-82846870D01*
X78573155Y-82835856D01*
X78564018Y-82804407D01*
X78559984Y-82797585D01*
X78559981Y-82797579D01*
X78553706Y-82786968D01*
X78545010Y-82769218D01*
X78540472Y-82757756D01*
X78540469Y-82757751D01*
X78537552Y-82750383D01*
X78511573Y-82714625D01*
X78505057Y-82704707D01*
X78486576Y-82673457D01*
X78486573Y-82673453D01*
X78482542Y-82666637D01*
X78477684Y-82661779D01*
X78451907Y-82596133D01*
X78461111Y-82540908D01*
X78460027Y-82540556D01*
X78482269Y-82472104D01*
X78519042Y-82358928D01*
X78521122Y-82339144D01*
X78538314Y-82175565D01*
X78539004Y-82169000D01*
X78519042Y-81979072D01*
X78460027Y-81797444D01*
X78441673Y-81765653D01*
X78367841Y-81637774D01*
X78364540Y-81632056D01*
X78319244Y-81581749D01*
X78241175Y-81495045D01*
X78241174Y-81495044D01*
X78236753Y-81490134D01*
X78082252Y-81377882D01*
X78076224Y-81375198D01*
X78076222Y-81375197D01*
X77913819Y-81302891D01*
X77913818Y-81302891D01*
X77907788Y-81300206D01*
X77795221Y-81276279D01*
X77727444Y-81261872D01*
X77727439Y-81261872D01*
X77720987Y-81260500D01*
X77530013Y-81260500D01*
X77523561Y-81261872D01*
X77523556Y-81261872D01*
X77455779Y-81276279D01*
X77343212Y-81300206D01*
X77337182Y-81302891D01*
X77337181Y-81302891D01*
X77174778Y-81375197D01*
X77174776Y-81375198D01*
X77168748Y-81377882D01*
X77014247Y-81490134D01*
X77009826Y-81495044D01*
X77009825Y-81495045D01*
X76931757Y-81581749D01*
X76886460Y-81632056D01*
X76883159Y-81637774D01*
X76809328Y-81765653D01*
X76790973Y-81797444D01*
X76731958Y-81979072D01*
X76711996Y-82169000D01*
X64008500Y-82169000D01*
X64008500Y-76144669D01*
X65142001Y-76144669D01*
X65142371Y-76151490D01*
X65147895Y-76202352D01*
X65151521Y-76217604D01*
X65196676Y-76338054D01*
X65205214Y-76353649D01*
X65281715Y-76455724D01*
X65294276Y-76468285D01*
X65396351Y-76544786D01*
X65411946Y-76553324D01*
X65532394Y-76598478D01*
X65547649Y-76602105D01*
X65598514Y-76607631D01*
X65605328Y-76608000D01*
X66327885Y-76608000D01*
X66343124Y-76603525D01*
X66344329Y-76602135D01*
X66346000Y-76594452D01*
X66346000Y-75672115D01*
X66341525Y-75656876D01*
X66340135Y-75655671D01*
X66332452Y-75654000D01*
X65160116Y-75654000D01*
X65144877Y-75658475D01*
X65143672Y-75659865D01*
X65142001Y-75667548D01*
X65142001Y-76144669D01*
X64008500Y-76144669D01*
X64008500Y-75923104D01*
X64028502Y-75854983D01*
X64060390Y-75821203D01*
X64772665Y-75303184D01*
X64881669Y-75223909D01*
X64888542Y-75219249D01*
X64925363Y-75196017D01*
X64925367Y-75196014D01*
X64932958Y-75191224D01*
X64965124Y-75154803D01*
X64971736Y-75147866D01*
X64973656Y-75146000D01*
X64973741Y-75145918D01*
X65036528Y-75112781D01*
X65107265Y-75118849D01*
X65144077Y-75141045D01*
X65147867Y-75144329D01*
X65155548Y-75146000D01*
X66327885Y-75146000D01*
X66343124Y-75141525D01*
X66344329Y-75140135D01*
X66346000Y-75132452D01*
X66346000Y-74210116D01*
X66341525Y-74194877D01*
X66340135Y-74193672D01*
X66332452Y-74192001D01*
X65605331Y-74192001D01*
X65598510Y-74192371D01*
X65547648Y-74197895D01*
X65532396Y-74201521D01*
X65411946Y-74246676D01*
X65396351Y-74255214D01*
X65310065Y-74319882D01*
X65243558Y-74344730D01*
X65174176Y-74329677D01*
X65123946Y-74279503D01*
X65108500Y-74219056D01*
X65108500Y-65221523D01*
X65108774Y-65213222D01*
X65111642Y-65169787D01*
X65111642Y-65169785D01*
X65112233Y-65160832D01*
X65101694Y-65113381D01*
X65099971Y-65103930D01*
X65094353Y-65064702D01*
X65093080Y-65055813D01*
X65089364Y-65047640D01*
X65087507Y-65041289D01*
X65084939Y-65033609D01*
X65082598Y-65027403D01*
X65080651Y-65018640D01*
X65076325Y-65010778D01*
X65076323Y-65010773D01*
X65057220Y-64976057D01*
X65052911Y-64967467D01*
X65032792Y-64923218D01*
X65026936Y-64916422D01*
X65023366Y-64910839D01*
X65018757Y-64904205D01*
X65014758Y-64898893D01*
X65010430Y-64891027D01*
X64975985Y-64856728D01*
X64969445Y-64849699D01*
X64943573Y-64819674D01*
X64943574Y-64819674D01*
X64937713Y-64812873D01*
X64890250Y-64782109D01*
X64884701Y-64778297D01*
X64816239Y-64728506D01*
X64472485Y-64478503D01*
X64060390Y-64178797D01*
X64017063Y-64122554D01*
X64008500Y-64076896D01*
X64008500Y-63064397D01*
X64028502Y-62996276D01*
X64082158Y-62949783D01*
X64152432Y-62939679D01*
X64217012Y-62969173D01*
X64252482Y-63020167D01*
X64296676Y-63138054D01*
X64305214Y-63153649D01*
X64381715Y-63255724D01*
X64394276Y-63268285D01*
X64496351Y-63344786D01*
X64511946Y-63353324D01*
X64632394Y-63398478D01*
X64647649Y-63402105D01*
X64698514Y-63407631D01*
X64705328Y-63408000D01*
X65427885Y-63408000D01*
X65443124Y-63403525D01*
X65444329Y-63402135D01*
X65446000Y-63394452D01*
X65446000Y-63389884D01*
X65954000Y-63389884D01*
X65958475Y-63405123D01*
X65959865Y-63406328D01*
X65967548Y-63407999D01*
X66694669Y-63407999D01*
X66701490Y-63407629D01*
X66752352Y-63402105D01*
X66767604Y-63398479D01*
X66888054Y-63353324D01*
X66903649Y-63344786D01*
X67005724Y-63268285D01*
X67018285Y-63255724D01*
X67094786Y-63153649D01*
X67103324Y-63138054D01*
X67148478Y-63017606D01*
X67152105Y-63002351D01*
X67157631Y-62951486D01*
X67158000Y-62944672D01*
X67158000Y-62472115D01*
X67153525Y-62456876D01*
X67152135Y-62455671D01*
X67144452Y-62454000D01*
X65972115Y-62454000D01*
X65956876Y-62458475D01*
X65955671Y-62459865D01*
X65954000Y-62467548D01*
X65954000Y-63389884D01*
X65446000Y-63389884D01*
X65446000Y-61927885D01*
X65954000Y-61927885D01*
X65958475Y-61943124D01*
X65959865Y-61944329D01*
X65967548Y-61946000D01*
X67139884Y-61946000D01*
X67155123Y-61941525D01*
X67156328Y-61940135D01*
X67157999Y-61932452D01*
X67157999Y-61455331D01*
X67157629Y-61448510D01*
X67152105Y-61397648D01*
X67148479Y-61382396D01*
X67103324Y-61261946D01*
X67094786Y-61246351D01*
X67018285Y-61144276D01*
X67005724Y-61131715D01*
X66903649Y-61055214D01*
X66888054Y-61046676D01*
X66767606Y-61001522D01*
X66752351Y-60997895D01*
X66701486Y-60992369D01*
X66694672Y-60992000D01*
X65972115Y-60992000D01*
X65956876Y-60996475D01*
X65955671Y-60997865D01*
X65954000Y-61005548D01*
X65954000Y-61927885D01*
X65446000Y-61927885D01*
X65446000Y-61010116D01*
X65441525Y-60994877D01*
X65440135Y-60993672D01*
X65432452Y-60992001D01*
X64705331Y-60992001D01*
X64698510Y-60992371D01*
X64647648Y-60997895D01*
X64632396Y-61001521D01*
X64511946Y-61046676D01*
X64496351Y-61055214D01*
X64394276Y-61131715D01*
X64381715Y-61144276D01*
X64305214Y-61246351D01*
X64296676Y-61261946D01*
X64252482Y-61379833D01*
X64209840Y-61436597D01*
X64143279Y-61461297D01*
X64073930Y-61446090D01*
X64023812Y-61395804D01*
X64008500Y-61335603D01*
X64008500Y-58094669D01*
X64542001Y-58094669D01*
X64542371Y-58101490D01*
X64547895Y-58152352D01*
X64551521Y-58167604D01*
X64596676Y-58288054D01*
X64605214Y-58303649D01*
X64681715Y-58405724D01*
X64694276Y-58418285D01*
X64796351Y-58494786D01*
X64811946Y-58503324D01*
X64932394Y-58548478D01*
X64947649Y-58552105D01*
X64998514Y-58557631D01*
X65005328Y-58558000D01*
X67077885Y-58558000D01*
X67093124Y-58553525D01*
X67094329Y-58552135D01*
X67096000Y-58544452D01*
X67096000Y-58539884D01*
X67604000Y-58539884D01*
X67608475Y-58555123D01*
X67609865Y-58556328D01*
X67617548Y-58557999D01*
X69694669Y-58557999D01*
X69701490Y-58557629D01*
X69752352Y-58552105D01*
X69767604Y-58548479D01*
X69888054Y-58503324D01*
X69903649Y-58494786D01*
X70005724Y-58418285D01*
X70018285Y-58405724D01*
X70094786Y-58303649D01*
X70103324Y-58288054D01*
X70148478Y-58167606D01*
X70152105Y-58152351D01*
X70157631Y-58101486D01*
X70158000Y-58094672D01*
X70158000Y-57822115D01*
X70153525Y-57806876D01*
X70152135Y-57805671D01*
X70144452Y-57804000D01*
X67622115Y-57804000D01*
X67606876Y-57808475D01*
X67605671Y-57809865D01*
X67604000Y-57817548D01*
X67604000Y-58539884D01*
X67096000Y-58539884D01*
X67096000Y-57822115D01*
X67091525Y-57806876D01*
X67090135Y-57805671D01*
X67082452Y-57804000D01*
X64560116Y-57804000D01*
X64544877Y-57808475D01*
X64543672Y-57809865D01*
X64542001Y-57817548D01*
X64542001Y-58094669D01*
X64008500Y-58094669D01*
X64008500Y-48162586D01*
X64028502Y-48094465D01*
X64082158Y-48047972D01*
X64152432Y-48037868D01*
X64217012Y-48067362D01*
X64238339Y-48091218D01*
X64383721Y-48302750D01*
X64386608Y-48305923D01*
X64386609Y-48305924D01*
X64488148Y-48417514D01*
X64577206Y-48515388D01*
X64580501Y-48518143D01*
X64580502Y-48518144D01*
X64780475Y-48685346D01*
X64797759Y-48699798D01*
X65041298Y-48852571D01*
X65303318Y-48970877D01*
X65351587Y-48985175D01*
X65574857Y-49051311D01*
X65574862Y-49051312D01*
X65578970Y-49052529D01*
X65583204Y-49053177D01*
X65583209Y-49053178D01*
X65831811Y-49091219D01*
X65863153Y-49096015D01*
X66009485Y-49098314D01*
X66146317Y-49100464D01*
X66146323Y-49100464D01*
X66150608Y-49100531D01*
X66154860Y-49100016D01*
X66154868Y-49100016D01*
X66431756Y-49066508D01*
X66431761Y-49066507D01*
X66436017Y-49065992D01*
X66626091Y-49016127D01*
X66709954Y-48994126D01*
X66709955Y-48994126D01*
X66714097Y-48993039D01*
X66979704Y-48883021D01*
X67227922Y-48737974D01*
X67454159Y-48560582D01*
X67459788Y-48554774D01*
X67651244Y-48357206D01*
X67654227Y-48354128D01*
X67656760Y-48350680D01*
X67656764Y-48350675D01*
X67806054Y-48147440D01*
X67824425Y-48122431D01*
X67826471Y-48118663D01*
X67959554Y-47873555D01*
X67959555Y-47873553D01*
X67961604Y-47869779D01*
X68063225Y-47600848D01*
X68127407Y-47320613D01*
X68139179Y-47188715D01*
X68152743Y-47036726D01*
X68152743Y-47036724D01*
X68152963Y-47034260D01*
X68153427Y-46990000D01*
X68151627Y-46963598D01*
X68134165Y-46707452D01*
X68134164Y-46707446D01*
X68133873Y-46703175D01*
X68129336Y-46681264D01*
X68076443Y-46425855D01*
X68075574Y-46421658D01*
X67979607Y-46150657D01*
X67847750Y-45895188D01*
X67834488Y-45876317D01*
X67744559Y-45748362D01*
X67682441Y-45659977D01*
X67579309Y-45548994D01*
X67489661Y-45452521D01*
X67489658Y-45452519D01*
X67486740Y-45449378D01*
X67264268Y-45267287D01*
X67147412Y-45195677D01*
X67141302Y-45191933D01*
X67093671Y-45139285D01*
X67082064Y-45069243D01*
X67110167Y-45004046D01*
X67169058Y-44964392D01*
X67207137Y-44958500D01*
X69803715Y-44958500D01*
X69871836Y-44978502D01*
G37*
%TD.AperFunction*%
%TA.AperFunction,Conductor*%
G36*
X90150426Y-71853502D02*
G01*
X90196919Y-71907158D01*
X90207023Y-71977432D01*
X90177529Y-72042012D01*
X90171400Y-72048595D01*
X89647954Y-72572041D01*
X89585642Y-72606067D01*
X89514827Y-72601002D01*
X89494722Y-72591401D01*
X89490905Y-72589144D01*
X89484642Y-72584286D01*
X89454936Y-72571431D01*
X89444064Y-72566726D01*
X89433414Y-72561509D01*
X89394661Y-72540205D01*
X89375038Y-72535167D01*
X89356335Y-72528763D01*
X89345021Y-72523867D01*
X89345020Y-72523867D01*
X89337746Y-72520719D01*
X89329923Y-72519480D01*
X89329913Y-72519477D01*
X89294077Y-72513801D01*
X89282457Y-72511395D01*
X89247312Y-72502372D01*
X89247311Y-72502372D01*
X89239631Y-72500400D01*
X89219377Y-72500400D01*
X89199666Y-72498849D01*
X89187487Y-72496920D01*
X89179658Y-72495680D01*
X89150387Y-72498447D01*
X89135640Y-72499841D01*
X89123782Y-72500400D01*
X87283166Y-72500400D01*
X87271983Y-72499873D01*
X87264490Y-72498198D01*
X87256564Y-72498447D01*
X87256563Y-72498447D01*
X87196413Y-72500338D01*
X87192454Y-72500400D01*
X87164543Y-72500400D01*
X87160609Y-72500897D01*
X87160608Y-72500897D01*
X87160543Y-72500905D01*
X87148706Y-72501838D01*
X87116889Y-72502838D01*
X87112428Y-72502978D01*
X87104509Y-72503227D01*
X87086853Y-72508356D01*
X87085057Y-72508878D01*
X87065705Y-72512886D01*
X87058634Y-72513780D01*
X87045602Y-72515426D01*
X87038233Y-72518343D01*
X87038231Y-72518344D01*
X87004496Y-72531700D01*
X86993268Y-72535545D01*
X86950806Y-72547882D01*
X86943983Y-72551917D01*
X86943981Y-72551918D01*
X86933371Y-72558193D01*
X86915623Y-72566888D01*
X86896782Y-72574348D01*
X86890366Y-72579010D01*
X86890365Y-72579010D01*
X86861012Y-72600336D01*
X86851092Y-72606852D01*
X86819864Y-72625320D01*
X86819861Y-72625322D01*
X86813037Y-72629358D01*
X86798716Y-72643679D01*
X86783683Y-72656519D01*
X86767292Y-72668428D01*
X86762241Y-72674534D01*
X86739101Y-72702505D01*
X86731111Y-72711284D01*
X85701799Y-73740595D01*
X85639487Y-73774621D01*
X85612704Y-73777500D01*
X81650895Y-73777500D01*
X81582774Y-73757498D01*
X81561800Y-73740595D01*
X81228952Y-73407747D01*
X81221412Y-73399461D01*
X81217300Y-73392982D01*
X81167648Y-73346356D01*
X81164807Y-73343602D01*
X81145070Y-73323865D01*
X81141873Y-73321385D01*
X81132851Y-73313680D01*
X81106400Y-73288841D01*
X81100621Y-73283414D01*
X81093675Y-73279595D01*
X81093672Y-73279593D01*
X81082866Y-73273652D01*
X81066347Y-73262801D01*
X81065883Y-73262441D01*
X81050341Y-73250386D01*
X81043072Y-73247241D01*
X81043068Y-73247238D01*
X81009763Y-73232826D01*
X80999104Y-73227604D01*
X80973801Y-73213694D01*
X80923741Y-73163350D01*
X80908500Y-73103279D01*
X80908500Y-72851866D01*
X80901745Y-72789684D01*
X80850615Y-72653295D01*
X80763261Y-72536739D01*
X80646705Y-72449385D01*
X80510316Y-72398255D01*
X80448134Y-72391500D01*
X78951866Y-72391500D01*
X78889684Y-72398255D01*
X78753295Y-72449385D01*
X78636739Y-72536739D01*
X78549385Y-72653295D01*
X78498255Y-72789684D01*
X78491500Y-72851866D01*
X78491500Y-74302300D01*
X78471498Y-74370421D01*
X78417842Y-74416914D01*
X78365500Y-74428300D01*
X77676395Y-74428300D01*
X77608274Y-74408298D01*
X77587300Y-74391395D01*
X75603652Y-72407747D01*
X75596112Y-72399461D01*
X75592000Y-72392982D01*
X75542348Y-72346356D01*
X75539507Y-72343602D01*
X75519770Y-72323865D01*
X75516573Y-72321385D01*
X75507551Y-72313680D01*
X75505870Y-72312101D01*
X75475321Y-72283414D01*
X75468375Y-72279595D01*
X75468372Y-72279593D01*
X75457566Y-72273652D01*
X75441047Y-72262801D01*
X75440583Y-72262441D01*
X75425041Y-72250386D01*
X75417772Y-72247241D01*
X75417768Y-72247238D01*
X75384463Y-72232826D01*
X75373813Y-72227609D01*
X75335060Y-72206305D01*
X75315437Y-72201267D01*
X75296734Y-72194863D01*
X75285420Y-72189967D01*
X75285419Y-72189967D01*
X75278145Y-72186819D01*
X75270322Y-72185580D01*
X75270312Y-72185577D01*
X75234476Y-72179901D01*
X75222856Y-72177495D01*
X75187711Y-72168472D01*
X75187710Y-72168472D01*
X75180030Y-72166500D01*
X75159776Y-72166500D01*
X75140065Y-72164949D01*
X75127886Y-72163020D01*
X75120057Y-72161780D01*
X75112165Y-72162526D01*
X75076039Y-72165941D01*
X75064181Y-72166500D01*
X70653583Y-72166500D01*
X70585462Y-72146498D01*
X70538969Y-72092842D01*
X70528865Y-72022568D01*
X70558359Y-71957988D01*
X70578018Y-71939674D01*
X70606081Y-71918642D01*
X70613261Y-71913261D01*
X70635241Y-71883933D01*
X70692100Y-71841420D01*
X70736066Y-71833500D01*
X90082305Y-71833500D01*
X90150426Y-71853502D01*
G37*
%TD.AperFunction*%
%TA.AperFunction,Conductor*%
G36*
X82560412Y-63394875D02*
G01*
X82566995Y-63401004D01*
X82567779Y-63401788D01*
X82580619Y-63416821D01*
X82592528Y-63433212D01*
X82598634Y-63438263D01*
X82626605Y-63461403D01*
X82635384Y-63469393D01*
X85488970Y-66322979D01*
X85522996Y-66385291D01*
X85517931Y-66456106D01*
X85493511Y-66496384D01*
X85390260Y-66611056D01*
X85386959Y-66616774D01*
X85314165Y-66742857D01*
X85294773Y-66776444D01*
X85235758Y-66958072D01*
X85235068Y-66964633D01*
X85235068Y-66964635D01*
X85227769Y-67034083D01*
X85215796Y-67148000D01*
X85216486Y-67154565D01*
X85231646Y-67298801D01*
X85235758Y-67337928D01*
X85294773Y-67519556D01*
X85390260Y-67684944D01*
X85394678Y-67689851D01*
X85394679Y-67689852D01*
X85495209Y-67801502D01*
X85518047Y-67826866D01*
X85672548Y-67939118D01*
X85678576Y-67941802D01*
X85678578Y-67941803D01*
X85840981Y-68014109D01*
X85847012Y-68016794D01*
X85936367Y-68035787D01*
X86027356Y-68055128D01*
X86027361Y-68055128D01*
X86033813Y-68056500D01*
X86224787Y-68056500D01*
X86231239Y-68055128D01*
X86231244Y-68055128D01*
X86322233Y-68035787D01*
X86411588Y-68016794D01*
X86417619Y-68014109D01*
X86580022Y-67941803D01*
X86580024Y-67941802D01*
X86586052Y-67939118D01*
X86740553Y-67826866D01*
X86744968Y-67821963D01*
X86749880Y-67817540D01*
X86751005Y-67818789D01*
X86804314Y-67785949D01*
X86837500Y-67781500D01*
X93318246Y-67781500D01*
X93386367Y-67801502D01*
X93432860Y-67855158D01*
X93442964Y-67925432D01*
X93427365Y-67970500D01*
X93404869Y-68009465D01*
X93394373Y-68027644D01*
X93335358Y-68209272D01*
X93334668Y-68215833D01*
X93334668Y-68215835D01*
X93327667Y-68282444D01*
X93315396Y-68399200D01*
X93322215Y-68464072D01*
X93328402Y-68522941D01*
X93315630Y-68592780D01*
X93267128Y-68644626D01*
X93198295Y-68662021D01*
X93129034Y-68638050D01*
X93121897Y-68632865D01*
X93121894Y-68632863D01*
X93116552Y-68628982D01*
X93110524Y-68626298D01*
X93110522Y-68626297D01*
X92948119Y-68553991D01*
X92948118Y-68553991D01*
X92942088Y-68551306D01*
X92830429Y-68527572D01*
X92761744Y-68512972D01*
X92761739Y-68512972D01*
X92755287Y-68511600D01*
X92564313Y-68511600D01*
X92557861Y-68512972D01*
X92557856Y-68512972D01*
X92489171Y-68527572D01*
X92377512Y-68551306D01*
X92371482Y-68553991D01*
X92371481Y-68553991D01*
X92209078Y-68626297D01*
X92209076Y-68626298D01*
X92203048Y-68628982D01*
X92197707Y-68632862D01*
X92197706Y-68632863D01*
X92190567Y-68638050D01*
X92048547Y-68741234D01*
X92044126Y-68746144D01*
X92044125Y-68746145D01*
X92030222Y-68761586D01*
X91969776Y-68798826D01*
X91898792Y-68797474D01*
X91839808Y-68757961D01*
X91816753Y-68716212D01*
X91803428Y-68675200D01*
X91782127Y-68609644D01*
X91777637Y-68601866D01*
X91689941Y-68449974D01*
X91686640Y-68444256D01*
X91646072Y-68399200D01*
X91563275Y-68307245D01*
X91563274Y-68307244D01*
X91558853Y-68302334D01*
X91422124Y-68202994D01*
X91409694Y-68193963D01*
X91409693Y-68193962D01*
X91404352Y-68190082D01*
X91398324Y-68187398D01*
X91398322Y-68187397D01*
X91235919Y-68115091D01*
X91235918Y-68115091D01*
X91229888Y-68112406D01*
X91124646Y-68090036D01*
X91049544Y-68074072D01*
X91049539Y-68074072D01*
X91043087Y-68072700D01*
X90852113Y-68072700D01*
X90845661Y-68074072D01*
X90845656Y-68074072D01*
X90770554Y-68090036D01*
X90665312Y-68112406D01*
X90659282Y-68115091D01*
X90659281Y-68115091D01*
X90496878Y-68187397D01*
X90496876Y-68187398D01*
X90490848Y-68190082D01*
X90485507Y-68193962D01*
X90485506Y-68193963D01*
X90473076Y-68202994D01*
X90336347Y-68302334D01*
X90331926Y-68307244D01*
X90331925Y-68307245D01*
X90249129Y-68399200D01*
X90208560Y-68444256D01*
X90205259Y-68449974D01*
X90117564Y-68601866D01*
X90113073Y-68609644D01*
X90054058Y-68791272D01*
X90053368Y-68797833D01*
X90053368Y-68797835D01*
X90052558Y-68805540D01*
X90039433Y-68930426D01*
X90036693Y-68956492D01*
X90009680Y-69022149D01*
X90000478Y-69032417D01*
X89839937Y-69192958D01*
X89777625Y-69226984D01*
X89706810Y-69221919D01*
X89649974Y-69179372D01*
X89631009Y-69142800D01*
X89623180Y-69118706D01*
X89605127Y-69063144D01*
X89581459Y-69022149D01*
X89561546Y-68987659D01*
X89509640Y-68897756D01*
X89467119Y-68850531D01*
X89386275Y-68760745D01*
X89386274Y-68760744D01*
X89381853Y-68755834D01*
X89227352Y-68643582D01*
X89221324Y-68640898D01*
X89221322Y-68640897D01*
X89058919Y-68568591D01*
X89058918Y-68568591D01*
X89052888Y-68565906D01*
X88959488Y-68546053D01*
X88872544Y-68527572D01*
X88872539Y-68527572D01*
X88866087Y-68526200D01*
X88675113Y-68526200D01*
X88668661Y-68527572D01*
X88668656Y-68527572D01*
X88581712Y-68546053D01*
X88488312Y-68565906D01*
X88482282Y-68568591D01*
X88482281Y-68568591D01*
X88319878Y-68640897D01*
X88319876Y-68640898D01*
X88313848Y-68643582D01*
X88159347Y-68755834D01*
X88154932Y-68760737D01*
X88150020Y-68765160D01*
X88148895Y-68763911D01*
X88095586Y-68796751D01*
X88062400Y-68801200D01*
X82756370Y-68801200D01*
X82688249Y-68781198D01*
X82641756Y-68727542D01*
X82631899Y-68667170D01*
X82631214Y-68667170D01*
X82631214Y-68662972D01*
X82631060Y-68662029D01*
X82631214Y-68660564D01*
X82631904Y-68654000D01*
X82619889Y-68539684D01*
X82612632Y-68470635D01*
X82612632Y-68470633D01*
X82611942Y-68464072D01*
X82552927Y-68282444D01*
X82457440Y-68117056D01*
X82384263Y-68035785D01*
X82353547Y-67971779D01*
X82351900Y-67951476D01*
X82351900Y-63490099D01*
X82371902Y-63421978D01*
X82425558Y-63375485D01*
X82495832Y-63365381D01*
X82560412Y-63394875D01*
G37*
%TD.AperFunction*%
%TA.AperFunction,Conductor*%
G36*
X104478584Y-51866987D02*
G01*
X104529886Y-51898090D01*
X105372614Y-52740819D01*
X106204995Y-53573200D01*
X106239021Y-53635512D01*
X106241900Y-53662295D01*
X106241900Y-59265500D01*
X106221898Y-59333621D01*
X106168242Y-59380114D01*
X106115900Y-59391500D01*
X104681866Y-59391500D01*
X104619684Y-59398255D01*
X104483295Y-59449385D01*
X104366739Y-59536739D01*
X104279385Y-59653295D01*
X104228255Y-59789684D01*
X104221500Y-59851866D01*
X104221500Y-61648134D01*
X104228255Y-61710316D01*
X104279385Y-61846705D01*
X104366739Y-61963261D01*
X104483295Y-62050615D01*
X104491704Y-62053767D01*
X104491705Y-62053768D01*
X104600451Y-62094535D01*
X104657216Y-62137176D01*
X104681916Y-62203738D01*
X104666709Y-62273087D01*
X104647316Y-62299568D01*
X104520629Y-62432138D01*
X104517715Y-62436410D01*
X104517714Y-62436411D01*
X104432556Y-62561249D01*
X104394743Y-62616680D01*
X104300688Y-62819305D01*
X104240989Y-63034570D01*
X104217251Y-63256695D01*
X104219302Y-63292255D01*
X104219739Y-63299840D01*
X104203692Y-63369000D01*
X104152802Y-63418504D01*
X104083226Y-63432637D01*
X104043909Y-63422732D01*
X104022582Y-63413503D01*
X104009459Y-63407825D01*
X103998813Y-63402609D01*
X103960060Y-63381305D01*
X103940437Y-63376267D01*
X103921734Y-63369863D01*
X103910420Y-63364967D01*
X103910419Y-63364967D01*
X103903145Y-63361819D01*
X103895322Y-63360580D01*
X103895312Y-63360577D01*
X103859476Y-63354901D01*
X103847856Y-63352495D01*
X103812711Y-63343472D01*
X103812710Y-63343472D01*
X103805030Y-63341500D01*
X103784776Y-63341500D01*
X103765065Y-63339949D01*
X103752886Y-63338020D01*
X103745057Y-63336780D01*
X103737165Y-63337526D01*
X103701039Y-63340941D01*
X103689181Y-63341500D01*
X99766800Y-63341500D01*
X99698679Y-63321498D01*
X99679453Y-63305157D01*
X99679180Y-63305460D01*
X99674268Y-63301037D01*
X99669853Y-63296134D01*
X99515352Y-63183882D01*
X99509324Y-63181198D01*
X99509322Y-63181197D01*
X99346919Y-63108891D01*
X99346918Y-63108891D01*
X99340888Y-63106206D01*
X99247487Y-63086353D01*
X99160544Y-63067872D01*
X99160539Y-63067872D01*
X99154087Y-63066500D01*
X99098194Y-63066500D01*
X99030073Y-63046498D01*
X99009099Y-63029595D01*
X97790537Y-61811032D01*
X96547252Y-60567747D01*
X96539712Y-60559461D01*
X96535600Y-60552982D01*
X96529930Y-60547658D01*
X96501944Y-60482481D01*
X96513649Y-60412456D01*
X96561354Y-60359875D01*
X96627038Y-60341400D01*
X96851633Y-60341400D01*
X96862816Y-60341927D01*
X96870309Y-60343602D01*
X96878235Y-60343353D01*
X96878236Y-60343353D01*
X96938386Y-60341462D01*
X96942345Y-60341400D01*
X96970256Y-60341400D01*
X96974191Y-60340903D01*
X96974256Y-60340895D01*
X96986093Y-60339962D01*
X97018351Y-60338948D01*
X97022370Y-60338822D01*
X97030289Y-60338573D01*
X97049743Y-60332921D01*
X97069100Y-60328913D01*
X97081330Y-60327368D01*
X97081331Y-60327368D01*
X97089197Y-60326374D01*
X97096568Y-60323455D01*
X97096570Y-60323455D01*
X97130312Y-60310096D01*
X97141542Y-60306251D01*
X97176383Y-60296129D01*
X97176384Y-60296129D01*
X97183993Y-60293918D01*
X97190812Y-60289885D01*
X97190817Y-60289883D01*
X97201428Y-60283607D01*
X97219176Y-60274912D01*
X97238017Y-60267452D01*
X97273787Y-60241464D01*
X97283707Y-60234948D01*
X97314935Y-60216480D01*
X97314938Y-60216478D01*
X97321762Y-60212442D01*
X97336083Y-60198121D01*
X97351117Y-60185280D01*
X97361094Y-60178031D01*
X97367507Y-60173372D01*
X97395698Y-60139295D01*
X97403688Y-60130516D01*
X98690247Y-58843957D01*
X98698537Y-58836413D01*
X98705018Y-58832300D01*
X98751659Y-58782632D01*
X98754413Y-58779791D01*
X98774134Y-58760070D01*
X98776612Y-58756875D01*
X98784318Y-58747853D01*
X98800283Y-58730852D01*
X98814586Y-58715621D01*
X98824346Y-58697868D01*
X98835199Y-58681345D01*
X98842753Y-58671606D01*
X98847613Y-58665341D01*
X98865176Y-58624757D01*
X98870383Y-58614127D01*
X98891695Y-58575360D01*
X98893667Y-58567679D01*
X98894853Y-58564684D01*
X98938527Y-58508711D01*
X99005530Y-58485234D01*
X99056234Y-58493086D01*
X99125282Y-58518971D01*
X99125288Y-58518973D01*
X99132684Y-58521745D01*
X99194866Y-58528500D01*
X99941134Y-58528500D01*
X100003316Y-58521745D01*
X100089855Y-58489303D01*
X100131301Y-58473766D01*
X100131304Y-58473764D01*
X100139705Y-58470615D01*
X100144164Y-58467273D01*
X100211848Y-58452470D01*
X100261561Y-58467067D01*
X100266295Y-58470615D01*
X100274696Y-58473764D01*
X100274699Y-58473766D01*
X100316145Y-58489303D01*
X100402684Y-58521745D01*
X100464866Y-58528500D01*
X101211134Y-58528500D01*
X101273316Y-58521745D01*
X101359855Y-58489303D01*
X101401301Y-58473766D01*
X101401304Y-58473764D01*
X101409705Y-58470615D01*
X101414164Y-58467273D01*
X101481848Y-58452470D01*
X101531561Y-58467067D01*
X101536295Y-58470615D01*
X101544696Y-58473764D01*
X101544699Y-58473766D01*
X101586145Y-58489303D01*
X101672684Y-58521745D01*
X101734866Y-58528500D01*
X102481134Y-58528500D01*
X102543316Y-58521745D01*
X102679705Y-58470615D01*
X102796261Y-58383261D01*
X102883615Y-58266705D01*
X102934745Y-58130316D01*
X102941500Y-58068134D01*
X102941500Y-55211866D01*
X102934745Y-55149684D01*
X102883615Y-55013295D01*
X102796261Y-54896739D01*
X102679705Y-54809385D01*
X102543316Y-54758255D01*
X102481134Y-54751500D01*
X102252594Y-54751500D01*
X102184473Y-54731498D01*
X102163499Y-54714595D01*
X102131998Y-54683094D01*
X102097972Y-54620782D01*
X102103037Y-54549967D01*
X102145584Y-54493131D01*
X102212104Y-54468320D01*
X102221093Y-54467999D01*
X102477669Y-54467999D01*
X102484490Y-54467629D01*
X102535352Y-54462105D01*
X102550604Y-54458479D01*
X102671054Y-54413324D01*
X102686649Y-54404786D01*
X102788724Y-54328285D01*
X102801285Y-54315724D01*
X102877786Y-54213649D01*
X102886324Y-54198054D01*
X102931478Y-54077606D01*
X102935105Y-54062351D01*
X102940631Y-54011486D01*
X102941000Y-54004672D01*
X102941000Y-52852115D01*
X102936525Y-52836876D01*
X102935135Y-52835671D01*
X102927452Y-52834000D01*
X101980000Y-52834000D01*
X101911879Y-52813998D01*
X101865386Y-52760342D01*
X101854000Y-52708000D01*
X101854000Y-52452000D01*
X101874002Y-52383879D01*
X101927658Y-52337386D01*
X101980000Y-52326000D01*
X102922884Y-52326000D01*
X102938123Y-52321525D01*
X102939328Y-52320135D01*
X102940999Y-52312452D01*
X102940999Y-52054766D01*
X102961001Y-51986645D01*
X103014657Y-51940152D01*
X103084931Y-51930048D01*
X103141059Y-51952830D01*
X103178439Y-51979988D01*
X103230113Y-52017531D01*
X103258448Y-52038118D01*
X103264476Y-52040802D01*
X103264478Y-52040803D01*
X103419606Y-52109870D01*
X103432912Y-52115794D01*
X103526312Y-52135647D01*
X103613256Y-52154128D01*
X103613261Y-52154128D01*
X103619713Y-52155500D01*
X103810687Y-52155500D01*
X103817139Y-52154128D01*
X103817144Y-52154128D01*
X103904087Y-52135647D01*
X103997488Y-52115794D01*
X104010794Y-52109870D01*
X104165922Y-52040803D01*
X104165924Y-52040802D01*
X104171952Y-52038118D01*
X104200288Y-52017531D01*
X104321114Y-51929745D01*
X104326453Y-51925866D01*
X104330868Y-51920962D01*
X104330872Y-51920959D01*
X104347155Y-51902875D01*
X104407601Y-51865635D01*
X104478584Y-51866987D01*
G37*
%TD.AperFunction*%
%TA.AperFunction,Conductor*%
G36*
X85023403Y-53997102D02*
G01*
X85069896Y-54050758D01*
X85080000Y-54121032D01*
X85064401Y-54166099D01*
X84977772Y-54316145D01*
X84918757Y-54497773D01*
X84918067Y-54504334D01*
X84918067Y-54504336D01*
X84908077Y-54599385D01*
X84898795Y-54687701D01*
X84918757Y-54877629D01*
X84977772Y-55059257D01*
X85073259Y-55224645D01*
X85077677Y-55229552D01*
X85077678Y-55229553D01*
X85196282Y-55361276D01*
X85201046Y-55366567D01*
X85355547Y-55478819D01*
X85361575Y-55481503D01*
X85361577Y-55481504D01*
X85502829Y-55544393D01*
X85530011Y-55556495D01*
X85623412Y-55576348D01*
X85710355Y-55594829D01*
X85710360Y-55594829D01*
X85716812Y-55596201D01*
X85907786Y-55596201D01*
X85914238Y-55594829D01*
X85914243Y-55594829D01*
X86064948Y-55562795D01*
X86094587Y-55556495D01*
X86100620Y-55553809D01*
X86100623Y-55553808D01*
X86121769Y-55544393D01*
X86173017Y-55533500D01*
X92521233Y-55533500D01*
X92532416Y-55534027D01*
X92539909Y-55535702D01*
X92547835Y-55535453D01*
X92547836Y-55535453D01*
X92607986Y-55533562D01*
X92611945Y-55533500D01*
X92639856Y-55533500D01*
X92643791Y-55533003D01*
X92643856Y-55532995D01*
X92655693Y-55532062D01*
X92687951Y-55531048D01*
X92691970Y-55530922D01*
X92699889Y-55530673D01*
X92719343Y-55525021D01*
X92738700Y-55521013D01*
X92750930Y-55519468D01*
X92750931Y-55519468D01*
X92758797Y-55518474D01*
X92766168Y-55515555D01*
X92766170Y-55515555D01*
X92799912Y-55502196D01*
X92811142Y-55498351D01*
X92845983Y-55488229D01*
X92845984Y-55488229D01*
X92853593Y-55486018D01*
X92860412Y-55481985D01*
X92860417Y-55481983D01*
X92871028Y-55475707D01*
X92888776Y-55467012D01*
X92907617Y-55459552D01*
X92943387Y-55433564D01*
X92953307Y-55427048D01*
X92969707Y-55417349D01*
X93038524Y-55399889D01*
X93105855Y-55422405D01*
X93150324Y-55477750D01*
X93157813Y-55548350D01*
X93153680Y-55564738D01*
X93139012Y-55609883D01*
X93106458Y-55710072D01*
X93105768Y-55716633D01*
X93105768Y-55716635D01*
X93097847Y-55792003D01*
X93086496Y-55900000D01*
X93087186Y-55906565D01*
X93104056Y-56067070D01*
X93106458Y-56089928D01*
X93165473Y-56271556D01*
X93260960Y-56436944D01*
X93265378Y-56441851D01*
X93265379Y-56441852D01*
X93323449Y-56506345D01*
X93388747Y-56578866D01*
X93409960Y-56594278D01*
X93530309Y-56681717D01*
X93543248Y-56691118D01*
X93549276Y-56693802D01*
X93549278Y-56693803D01*
X93624840Y-56727445D01*
X93717712Y-56768794D01*
X93811113Y-56788647D01*
X93898056Y-56807128D01*
X93898061Y-56807128D01*
X93904513Y-56808500D01*
X94095487Y-56808500D01*
X94101939Y-56807128D01*
X94101944Y-56807128D01*
X94188887Y-56788647D01*
X94282288Y-56768794D01*
X94288315Y-56766111D01*
X94288323Y-56766108D01*
X94353972Y-56736879D01*
X94424339Y-56727445D01*
X94488636Y-56757552D01*
X94526449Y-56817641D01*
X94525773Y-56888634D01*
X94494317Y-56941078D01*
X93607143Y-57828252D01*
X93544833Y-57862276D01*
X93474017Y-57857211D01*
X93443989Y-57841091D01*
X93437811Y-57836602D01*
X93306752Y-57741382D01*
X93300724Y-57738698D01*
X93300722Y-57738697D01*
X93138319Y-57666391D01*
X93138318Y-57666391D01*
X93132288Y-57663706D01*
X93018399Y-57639498D01*
X92951944Y-57625372D01*
X92951939Y-57625372D01*
X92945487Y-57624000D01*
X92754513Y-57624000D01*
X92748061Y-57625372D01*
X92748056Y-57625372D01*
X92681601Y-57639498D01*
X92567712Y-57663706D01*
X92561682Y-57666391D01*
X92561681Y-57666391D01*
X92399278Y-57738697D01*
X92399276Y-57738698D01*
X92393248Y-57741382D01*
X92238747Y-57853634D01*
X92234326Y-57858544D01*
X92234325Y-57858545D01*
X92172032Y-57927729D01*
X92110960Y-57995556D01*
X92107659Y-58001274D01*
X92020434Y-58152352D01*
X92015473Y-58160944D01*
X91956458Y-58342572D01*
X91955768Y-58349133D01*
X91955768Y-58349135D01*
X91949444Y-58409305D01*
X91939563Y-58503324D01*
X91938696Y-58511570D01*
X91911683Y-58577227D01*
X91853461Y-58617857D01*
X91813386Y-58624400D01*
X90299867Y-58624400D01*
X90288684Y-58623873D01*
X90281191Y-58622198D01*
X90273265Y-58622447D01*
X90273264Y-58622447D01*
X90213101Y-58624338D01*
X90209143Y-58624400D01*
X90181244Y-58624400D01*
X90177254Y-58624904D01*
X90165420Y-58625836D01*
X90121211Y-58627226D01*
X90113597Y-58629438D01*
X90113592Y-58629439D01*
X90101759Y-58632877D01*
X90082396Y-58636888D01*
X90062303Y-58639426D01*
X90054936Y-58642343D01*
X90054931Y-58642344D01*
X90021192Y-58655702D01*
X90009965Y-58659546D01*
X89967507Y-58671882D01*
X89960681Y-58675919D01*
X89950072Y-58682193D01*
X89932324Y-58690888D01*
X89913483Y-58698348D01*
X89907067Y-58703010D01*
X89907066Y-58703010D01*
X89877713Y-58724336D01*
X89867793Y-58730852D01*
X89836565Y-58749320D01*
X89836562Y-58749322D01*
X89829738Y-58753358D01*
X89815417Y-58767679D01*
X89800384Y-58780519D01*
X89783993Y-58792428D01*
X89758191Y-58823618D01*
X89755808Y-58826498D01*
X89747818Y-58835278D01*
X89711501Y-58871595D01*
X89649189Y-58905621D01*
X89622406Y-58908500D01*
X89566513Y-58908500D01*
X89560061Y-58909872D01*
X89560056Y-58909872D01*
X89481830Y-58926500D01*
X89379712Y-58948206D01*
X89373682Y-58950891D01*
X89373681Y-58950891D01*
X89211278Y-59023197D01*
X89211276Y-59023198D01*
X89205248Y-59025882D01*
X89050747Y-59138134D01*
X88922960Y-59280056D01*
X88827473Y-59445444D01*
X88768458Y-59627072D01*
X88767768Y-59633633D01*
X88767768Y-59633635D01*
X88752326Y-59780555D01*
X88748496Y-59817000D01*
X88749186Y-59823565D01*
X88767278Y-59995704D01*
X88754506Y-60065542D01*
X88706004Y-60117389D01*
X88637171Y-60134783D01*
X88569861Y-60112201D01*
X88552873Y-60097969D01*
X86669207Y-58214302D01*
X84570852Y-56115947D01*
X84563312Y-56107661D01*
X84559200Y-56101182D01*
X84552316Y-56094717D01*
X84509549Y-56054557D01*
X84506707Y-56051802D01*
X84486970Y-56032065D01*
X84483773Y-56029585D01*
X84474751Y-56021880D01*
X84467378Y-56014956D01*
X84442521Y-55991614D01*
X84435575Y-55987795D01*
X84435572Y-55987793D01*
X84424766Y-55981852D01*
X84408247Y-55971001D01*
X84405863Y-55969152D01*
X84392241Y-55958586D01*
X84384972Y-55955441D01*
X84384968Y-55955438D01*
X84351663Y-55941026D01*
X84341013Y-55935809D01*
X84302260Y-55914505D01*
X84282637Y-55909467D01*
X84263934Y-55903063D01*
X84252620Y-55898167D01*
X84252619Y-55898167D01*
X84245345Y-55895019D01*
X84237522Y-55893780D01*
X84237512Y-55893777D01*
X84201676Y-55888101D01*
X84190056Y-55885695D01*
X84154911Y-55876672D01*
X84154910Y-55876672D01*
X84147230Y-55874700D01*
X84126976Y-55874700D01*
X84107265Y-55873149D01*
X84095086Y-55871220D01*
X84087257Y-55869980D01*
X84079365Y-55870726D01*
X84043239Y-55874141D01*
X84031381Y-55874700D01*
X81811900Y-55874700D01*
X81743779Y-55854698D01*
X81724553Y-55838357D01*
X81724280Y-55838660D01*
X81719368Y-55834237D01*
X81714953Y-55829334D01*
X81693371Y-55813654D01*
X81565794Y-55720963D01*
X81565793Y-55720962D01*
X81560452Y-55717082D01*
X81554424Y-55714398D01*
X81554422Y-55714397D01*
X81392019Y-55642091D01*
X81392018Y-55642091D01*
X81385988Y-55639406D01*
X81292588Y-55619553D01*
X81205644Y-55601072D01*
X81205639Y-55601072D01*
X81199187Y-55599700D01*
X81143295Y-55599700D01*
X81075174Y-55579698D01*
X81054199Y-55562795D01*
X80980712Y-55489307D01*
X80946687Y-55426994D01*
X80949975Y-55361276D01*
X80973002Y-55290406D01*
X80975042Y-55284128D01*
X80989173Y-55149684D01*
X80994314Y-55100765D01*
X80995004Y-55094200D01*
X80985659Y-55005283D01*
X80975732Y-54910835D01*
X80975732Y-54910833D01*
X80975042Y-54904272D01*
X80916027Y-54722644D01*
X80892191Y-54681358D01*
X80823841Y-54562974D01*
X80820540Y-54557256D01*
X80812436Y-54548255D01*
X80697175Y-54420245D01*
X80697174Y-54420244D01*
X80692753Y-54415334D01*
X80564882Y-54322430D01*
X80543594Y-54306963D01*
X80543593Y-54306962D01*
X80538252Y-54303082D01*
X80532224Y-54300398D01*
X80532222Y-54300397D01*
X80369819Y-54228091D01*
X80369818Y-54228091D01*
X80363788Y-54225406D01*
X80357331Y-54224034D01*
X80353944Y-54222933D01*
X80295339Y-54182859D01*
X80267702Y-54117463D01*
X80279809Y-54047506D01*
X80327815Y-53995200D01*
X80392881Y-53977100D01*
X84955282Y-53977100D01*
X85023403Y-53997102D01*
G37*
%TD.AperFunction*%
%TA.AperFunction,Conductor*%
G36*
X100000884Y-50220502D02*
G01*
X100019015Y-50234649D01*
X100050956Y-50264643D01*
X100053799Y-50267399D01*
X100073535Y-50287135D01*
X100076732Y-50289615D01*
X100085752Y-50297318D01*
X100117984Y-50327586D01*
X100124930Y-50331405D01*
X100124933Y-50331407D01*
X100135739Y-50337348D01*
X100152258Y-50348199D01*
X100168264Y-50360614D01*
X100175533Y-50363759D01*
X100175537Y-50363762D01*
X100208842Y-50378174D01*
X100219492Y-50383391D01*
X100258245Y-50404695D01*
X100265920Y-50406666D01*
X100265921Y-50406666D01*
X100277867Y-50409733D01*
X100296572Y-50416137D01*
X100315160Y-50424181D01*
X100322983Y-50425420D01*
X100322993Y-50425423D01*
X100358829Y-50431099D01*
X100370449Y-50433505D01*
X100391841Y-50438997D01*
X100413275Y-50444500D01*
X100421206Y-50444500D01*
X100428481Y-50445419D01*
X100493559Y-50473799D01*
X100532962Y-50532858D01*
X100534181Y-50603844D01*
X100496828Y-50664220D01*
X100426303Y-50695689D01*
X100420052Y-50696368D01*
X100402684Y-50698255D01*
X100371045Y-50710116D01*
X100274699Y-50746234D01*
X100274696Y-50746236D01*
X100266295Y-50749385D01*
X100261510Y-50752971D01*
X100193626Y-50767818D01*
X100141965Y-50752649D01*
X100131058Y-50746677D01*
X100010606Y-50701522D01*
X99995351Y-50697895D01*
X99944486Y-50692369D01*
X99937672Y-50692000D01*
X99840115Y-50692000D01*
X99824876Y-50696475D01*
X99823671Y-50697865D01*
X99822000Y-50705548D01*
X99822000Y-52708000D01*
X99801998Y-52776121D01*
X99748342Y-52822614D01*
X99696000Y-52834000D01*
X98170000Y-52834000D01*
X98101879Y-52813998D01*
X98055386Y-52760342D01*
X98044000Y-52708000D01*
X98044000Y-52307885D01*
X98552000Y-52307885D01*
X98556475Y-52323124D01*
X98557865Y-52324329D01*
X98565548Y-52326000D01*
X99295885Y-52326000D01*
X99311124Y-52321525D01*
X99312329Y-52320135D01*
X99314000Y-52312452D01*
X99314000Y-50710116D01*
X99309525Y-50694877D01*
X99308135Y-50693672D01*
X99300452Y-50692001D01*
X99198331Y-50692001D01*
X99191510Y-50692371D01*
X99140648Y-50697895D01*
X99125396Y-50701521D01*
X99004942Y-50746677D01*
X98993509Y-50752937D01*
X98924152Y-50768106D01*
X98872491Y-50752937D01*
X98861058Y-50746677D01*
X98740606Y-50701522D01*
X98725351Y-50697895D01*
X98674486Y-50692369D01*
X98667672Y-50692000D01*
X98570115Y-50692000D01*
X98554876Y-50696475D01*
X98553671Y-50697865D01*
X98552000Y-50705548D01*
X98552000Y-52307885D01*
X98044000Y-52307885D01*
X98044000Y-50710116D01*
X98039525Y-50694877D01*
X98038135Y-50693672D01*
X98030452Y-50692001D01*
X97928331Y-50692001D01*
X97921510Y-50692371D01*
X97870648Y-50697895D01*
X97855396Y-50701521D01*
X97734942Y-50746677D01*
X97724035Y-50752649D01*
X97654678Y-50767818D01*
X97604732Y-50753153D01*
X97599705Y-50749385D01*
X97591304Y-50746236D01*
X97591301Y-50746234D01*
X97494955Y-50710116D01*
X97463316Y-50698255D01*
X97401134Y-50691500D01*
X96654866Y-50691500D01*
X96592684Y-50698255D01*
X96585288Y-50701027D01*
X96585282Y-50701029D01*
X96536161Y-50719444D01*
X96465354Y-50724627D01*
X96402985Y-50690706D01*
X96368856Y-50628450D01*
X96373803Y-50557626D01*
X96402837Y-50512367D01*
X96677799Y-50237405D01*
X96740111Y-50203379D01*
X96766894Y-50200500D01*
X99932763Y-50200500D01*
X100000884Y-50220502D01*
G37*
%TD.AperFunction*%
%TD*%
%TA.AperFunction,NonConductor*%
G36*
X84111327Y-58214302D02*
G01*
X84132301Y-58231205D01*
X85938243Y-60037148D01*
X87703348Y-61802253D01*
X87710888Y-61810539D01*
X87715000Y-61817018D01*
X87720777Y-61822443D01*
X87764651Y-61863643D01*
X87767493Y-61866398D01*
X87787230Y-61886135D01*
X87790427Y-61888615D01*
X87799447Y-61896318D01*
X87831679Y-61926586D01*
X87838625Y-61930405D01*
X87838628Y-61930407D01*
X87849434Y-61936348D01*
X87865953Y-61947199D01*
X87881959Y-61959614D01*
X87889228Y-61962759D01*
X87889232Y-61962762D01*
X87922537Y-61977174D01*
X87933187Y-61982391D01*
X87971940Y-62003695D01*
X87979615Y-62005666D01*
X87979616Y-62005666D01*
X87991562Y-62008733D01*
X88010267Y-62015137D01*
X88028855Y-62023181D01*
X88036678Y-62024420D01*
X88036688Y-62024423D01*
X88072524Y-62030099D01*
X88084144Y-62032505D01*
X88119289Y-62041528D01*
X88126970Y-62043500D01*
X88147224Y-62043500D01*
X88166934Y-62045051D01*
X88186943Y-62048220D01*
X88194835Y-62047474D01*
X88230961Y-62044059D01*
X88242819Y-62043500D01*
X94783306Y-62043500D01*
X94851427Y-62063502D01*
X94872401Y-62080405D01*
X97938828Y-65146832D01*
X97972854Y-65209144D01*
X97975042Y-65222753D01*
X97980903Y-65278513D01*
X97991116Y-65375682D01*
X97992408Y-65387978D01*
X98051423Y-65569606D01*
X98146910Y-65734994D01*
X98151328Y-65739901D01*
X98151329Y-65739902D01*
X98221718Y-65818077D01*
X98274697Y-65876916D01*
X98280043Y-65880800D01*
X98280044Y-65880801D01*
X98298261Y-65894037D01*
X98341614Y-65950260D01*
X98347689Y-66020996D01*
X98314556Y-66083787D01*
X98275447Y-66111079D01*
X98120881Y-66179895D01*
X98120874Y-66179899D01*
X98114848Y-66182582D01*
X98109507Y-66186462D01*
X98109506Y-66186463D01*
X98074082Y-66212200D01*
X97960347Y-66294834D01*
X97955926Y-66299744D01*
X97955657Y-66300043D01*
X97955458Y-66300166D01*
X97951023Y-66304159D01*
X97950292Y-66303348D01*
X97895209Y-66337280D01*
X97824225Y-66335926D01*
X97772929Y-66304824D01*
X95920452Y-64452347D01*
X95912912Y-64444061D01*
X95908800Y-64437582D01*
X95859148Y-64390956D01*
X95856307Y-64388202D01*
X95836570Y-64368465D01*
X95833373Y-64365985D01*
X95824351Y-64358280D01*
X95797900Y-64333441D01*
X95792121Y-64328014D01*
X95785175Y-64324195D01*
X95785172Y-64324193D01*
X95774366Y-64318252D01*
X95757847Y-64307401D01*
X95757383Y-64307041D01*
X95741841Y-64294986D01*
X95734572Y-64291841D01*
X95734568Y-64291838D01*
X95701263Y-64277426D01*
X95690613Y-64272209D01*
X95651860Y-64250905D01*
X95632237Y-64245867D01*
X95613534Y-64239463D01*
X95602220Y-64234567D01*
X95602219Y-64234567D01*
X95594945Y-64231419D01*
X95587122Y-64230180D01*
X95587112Y-64230177D01*
X95551276Y-64224501D01*
X95539656Y-64222095D01*
X95504511Y-64213072D01*
X95504510Y-64213072D01*
X95496830Y-64211100D01*
X95476576Y-64211100D01*
X95456865Y-64209549D01*
X95444686Y-64207620D01*
X95436857Y-64206380D01*
X95428965Y-64207126D01*
X95392839Y-64210541D01*
X95380981Y-64211100D01*
X86508804Y-64211100D01*
X86457556Y-64200207D01*
X86429223Y-64187592D01*
X86429215Y-64187589D01*
X86423188Y-64184906D01*
X86329788Y-64165053D01*
X86242844Y-64146572D01*
X86242839Y-64146572D01*
X86236387Y-64145200D01*
X86045413Y-64145200D01*
X86038961Y-64146572D01*
X86038956Y-64146572D01*
X85952012Y-64165053D01*
X85858612Y-64184906D01*
X85852582Y-64187591D01*
X85852581Y-64187591D01*
X85690178Y-64259897D01*
X85690176Y-64259898D01*
X85684148Y-64262582D01*
X85678807Y-64266462D01*
X85678806Y-64266463D01*
X85666964Y-64275067D01*
X85529647Y-64374834D01*
X85525140Y-64379840D01*
X85525077Y-64379879D01*
X85520323Y-64384159D01*
X85519540Y-64383289D01*
X85464692Y-64417074D01*
X85393708Y-64415717D01*
X85342416Y-64384616D01*
X83728405Y-62770605D01*
X83694379Y-62708293D01*
X83691500Y-62681510D01*
X83691500Y-61281524D01*
X83711502Y-61213403D01*
X83723858Y-61197221D01*
X83797040Y-61115944D01*
X83872053Y-60986018D01*
X83889223Y-60956279D01*
X83889224Y-60956278D01*
X83892527Y-60950556D01*
X83951542Y-60768928D01*
X83971504Y-60579000D01*
X83951542Y-60389072D01*
X83892527Y-60207444D01*
X83887145Y-60198121D01*
X83850544Y-60134727D01*
X83797040Y-60042056D01*
X83669253Y-59900134D01*
X83554829Y-59817000D01*
X83520094Y-59791763D01*
X83520093Y-59791762D01*
X83514752Y-59787882D01*
X83508724Y-59785198D01*
X83508722Y-59785197D01*
X83346319Y-59712891D01*
X83346318Y-59712891D01*
X83340288Y-59710206D01*
X83246887Y-59690353D01*
X83159944Y-59671872D01*
X83159939Y-59671872D01*
X83153487Y-59670500D01*
X82962513Y-59670500D01*
X82956061Y-59671872D01*
X82956056Y-59671872D01*
X82869113Y-59690353D01*
X82775712Y-59710206D01*
X82769682Y-59712891D01*
X82769681Y-59712891D01*
X82607278Y-59785197D01*
X82607276Y-59785198D01*
X82601248Y-59787882D01*
X82595907Y-59791762D01*
X82595906Y-59791763D01*
X82551961Y-59823691D01*
X82485093Y-59847550D01*
X82415942Y-59831469D01*
X82366461Y-59780555D01*
X82351900Y-59721755D01*
X82351900Y-59191167D01*
X82352427Y-59179984D01*
X82354102Y-59172491D01*
X82351962Y-59104414D01*
X82351900Y-59100455D01*
X82351900Y-59072544D01*
X82351395Y-59068544D01*
X82350462Y-59056701D01*
X82349322Y-59020429D01*
X82349073Y-59012510D01*
X82343422Y-58993058D01*
X82339414Y-58973706D01*
X82337867Y-58961463D01*
X82336874Y-58953603D01*
X82330825Y-58938324D01*
X82320600Y-58912497D01*
X82316755Y-58901270D01*
X82316121Y-58899087D01*
X82304418Y-58858807D01*
X82300384Y-58851985D01*
X82300381Y-58851979D01*
X82294106Y-58841368D01*
X82285410Y-58823618D01*
X82280872Y-58812156D01*
X82280869Y-58812151D01*
X82277952Y-58804783D01*
X82260324Y-58780520D01*
X82251973Y-58769025D01*
X82245457Y-58759107D01*
X82234405Y-58740419D01*
X82222942Y-58721037D01*
X82208618Y-58706713D01*
X82195776Y-58691678D01*
X82183872Y-58675293D01*
X82149806Y-58647111D01*
X82141027Y-58639122D01*
X81911300Y-58409395D01*
X81877274Y-58347083D01*
X81882339Y-58276268D01*
X81924886Y-58219432D01*
X81991406Y-58194621D01*
X82000395Y-58194300D01*
X84043206Y-58194300D01*
X84111327Y-58214302D01*
G37*
%TD.AperFunction*%
%TA.AperFunction,NonConductor*%
G36*
X95210796Y-67847689D02*
G01*
X95263243Y-67879147D01*
X103009595Y-75625499D01*
X103043621Y-75687811D01*
X103046500Y-75714594D01*
X103046500Y-76551233D01*
X103045973Y-76562416D01*
X103044298Y-76569909D01*
X103044547Y-76577835D01*
X103044547Y-76577836D01*
X103046438Y-76637986D01*
X103046500Y-76641945D01*
X103046500Y-76669856D01*
X103046997Y-76673790D01*
X103046997Y-76673791D01*
X103047005Y-76673856D01*
X103047938Y-76685693D01*
X103049327Y-76729889D01*
X103054978Y-76749339D01*
X103058987Y-76768700D01*
X103061526Y-76788797D01*
X103064445Y-76796168D01*
X103064445Y-76796170D01*
X103077804Y-76829912D01*
X103081649Y-76841142D01*
X103091771Y-76875983D01*
X103093982Y-76883593D01*
X103098015Y-76890412D01*
X103098017Y-76890417D01*
X103104293Y-76901028D01*
X103112988Y-76918776D01*
X103120448Y-76937617D01*
X103125110Y-76944033D01*
X103125110Y-76944034D01*
X103146436Y-76973387D01*
X103152952Y-76983307D01*
X103175458Y-77021362D01*
X103189779Y-77035683D01*
X103202619Y-77050716D01*
X103214528Y-77067107D01*
X103220634Y-77072158D01*
X103248605Y-77095298D01*
X103257384Y-77103288D01*
X104229778Y-78075682D01*
X104263804Y-78137994D01*
X104262100Y-78198448D01*
X104240989Y-78274570D01*
X104240441Y-78279700D01*
X104240440Y-78279704D01*
X104236933Y-78312522D01*
X104217251Y-78496695D01*
X104217548Y-78501853D01*
X104217422Y-78507024D01*
X104215914Y-78506987D01*
X104201410Y-78569485D01*
X104150518Y-78618988D01*
X104080942Y-78633118D01*
X104014771Y-78607389D01*
X104002574Y-78596670D01*
X102504982Y-77099077D01*
X100757252Y-75351347D01*
X100749712Y-75343061D01*
X100745600Y-75336582D01*
X100695948Y-75289956D01*
X100693107Y-75287202D01*
X100673370Y-75267465D01*
X100670173Y-75264985D01*
X100661151Y-75257280D01*
X100634699Y-75232440D01*
X100634700Y-75232440D01*
X100628921Y-75227014D01*
X100621974Y-75223195D01*
X100619479Y-75221382D01*
X100604445Y-75208541D01*
X99303652Y-73907747D01*
X99296112Y-73899461D01*
X99292000Y-73892982D01*
X99285215Y-73886610D01*
X99254278Y-73857559D01*
X99242348Y-73846356D01*
X99239507Y-73843602D01*
X99219770Y-73823865D01*
X99216573Y-73821385D01*
X99207551Y-73813680D01*
X99190996Y-73798134D01*
X99175321Y-73783414D01*
X99168375Y-73779595D01*
X99168372Y-73779593D01*
X99157566Y-73773652D01*
X99141047Y-73762801D01*
X99134210Y-73757498D01*
X99125041Y-73750386D01*
X99117772Y-73747241D01*
X99117768Y-73747238D01*
X99084463Y-73732826D01*
X99073813Y-73727609D01*
X99035060Y-73706305D01*
X99015437Y-73701267D01*
X98996734Y-73694863D01*
X98985420Y-73689967D01*
X98985419Y-73689967D01*
X98978145Y-73686819D01*
X98970322Y-73685580D01*
X98970312Y-73685577D01*
X98934476Y-73679901D01*
X98922856Y-73677495D01*
X98887711Y-73668472D01*
X98887710Y-73668472D01*
X98880030Y-73666500D01*
X98859776Y-73666500D01*
X98840065Y-73664949D01*
X98827886Y-73663020D01*
X98820057Y-73661780D01*
X98790786Y-73664547D01*
X98776039Y-73665941D01*
X98764181Y-73666500D01*
X98496568Y-73666500D01*
X98485385Y-73665973D01*
X98477892Y-73664298D01*
X98469966Y-73664547D01*
X98469965Y-73664547D01*
X98409802Y-73666438D01*
X98405844Y-73666500D01*
X98377944Y-73666500D01*
X98373954Y-73667004D01*
X98362120Y-73667936D01*
X98317911Y-73669326D01*
X98310295Y-73671539D01*
X98302470Y-73672778D01*
X98302360Y-73672085D01*
X98279072Y-73675400D01*
X92400594Y-73675400D01*
X92332473Y-73655398D01*
X92285980Y-73601742D01*
X92275876Y-73531468D01*
X92305370Y-73466888D01*
X92311499Y-73460305D01*
X92800499Y-72971305D01*
X92862811Y-72937279D01*
X92889594Y-72934400D01*
X92945487Y-72934400D01*
X92951939Y-72933028D01*
X92951944Y-72933028D01*
X93059710Y-72910121D01*
X93132288Y-72894694D01*
X93149976Y-72886819D01*
X93300722Y-72819703D01*
X93300724Y-72819702D01*
X93306752Y-72817018D01*
X93315600Y-72810590D01*
X93395757Y-72752352D01*
X93461253Y-72704766D01*
X93507598Y-72653295D01*
X93584621Y-72567752D01*
X93584622Y-72567751D01*
X93589040Y-72562844D01*
X93674109Y-72415500D01*
X93681223Y-72403179D01*
X93681224Y-72403178D01*
X93684527Y-72397456D01*
X93743542Y-72215828D01*
X93745073Y-72201267D01*
X93762814Y-72032465D01*
X93763504Y-72025900D01*
X93748583Y-71883934D01*
X93744232Y-71842535D01*
X93744232Y-71842533D01*
X93743542Y-71835972D01*
X93684527Y-71654344D01*
X93589040Y-71488956D01*
X93461253Y-71347034D01*
X93306752Y-71234782D01*
X93300724Y-71232098D01*
X93300722Y-71232097D01*
X93138319Y-71159791D01*
X93138318Y-71159791D01*
X93132288Y-71157106D01*
X93125832Y-71155734D01*
X93119548Y-71153692D01*
X93120330Y-71151285D01*
X93067874Y-71122963D01*
X93033554Y-71060812D01*
X93038284Y-70989973D01*
X93067452Y-70944352D01*
X94621147Y-69390657D01*
X94629437Y-69383113D01*
X94635918Y-69379000D01*
X94682559Y-69329332D01*
X94685313Y-69326491D01*
X94705034Y-69306770D01*
X94707512Y-69303575D01*
X94715218Y-69294553D01*
X94740058Y-69268101D01*
X94745486Y-69262321D01*
X94751632Y-69251142D01*
X94755246Y-69244568D01*
X94766099Y-69228045D01*
X94773653Y-69218306D01*
X94778513Y-69212041D01*
X94796076Y-69171457D01*
X94801283Y-69160827D01*
X94822595Y-69122060D01*
X94824567Y-69114380D01*
X94827485Y-69107010D01*
X94829120Y-69107657D01*
X94852100Y-69064797D01*
X94967940Y-68936144D01*
X95063427Y-68770756D01*
X95122442Y-68589128D01*
X95126562Y-68549934D01*
X95141714Y-68405765D01*
X95141714Y-68405764D01*
X95142404Y-68399200D01*
X95130133Y-68282444D01*
X95123132Y-68215835D01*
X95123132Y-68215833D01*
X95122442Y-68209272D01*
X95063427Y-68027644D01*
X95060123Y-68021921D01*
X95059041Y-68019491D01*
X95049607Y-67949124D01*
X95079714Y-67884827D01*
X95139802Y-67847013D01*
X95210796Y-67847689D01*
G37*
%TD.AperFunction*%
M02*
