M48
INCH,TZ
T1C0.0157
T2C0.0315
T3C0.0350
T4C0.0354
T5C0.0984
%
G90
G05
T1
X26668Y-27554
X26746Y-29164
X27133Y-29705
X27319Y-23092
X28950Y-22950
X30561Y-24400
X30561Y-32350
X31223Y-21314
X31528Y-21691
X31650Y-25800
X31850Y-34921
X31870Y-19573
X31887Y-23850
X31931Y-22247
X31993Y-22662
X32173Y-27029
X32700Y-23850
X32900Y-31850
X33000Y-20000
X33075Y-35275
X33784Y-21531
X33909Y-26436
X33914Y-25612
X34488Y-29291
X34879Y-21184
X34911Y-29255
X34949Y-27336
X34955Y-25818
X35472Y-29843
X35512Y-23465
X35700Y-26104
X35806Y-27158
X35906Y-23612
X36480Y-27331
X36535Y-22913
X36555Y-28357
X36654Y-21417
X37008Y-22008
X37098Y-26929
X37831Y-22142
X38808Y-26368
X38931Y-25669
X38999Y-25187
X39350Y-19800
X40378Y-19325
X40768Y-26126
X40777Y-23592
X40833Y-20176
T2
X34201Y-19573
X36799Y-19573
X41575Y-22205
X41575Y-22992
X41575Y-23780
X41575Y-24567
X41575Y-25354
X41575Y-26142
X41575Y-26929
X41575Y-27717
X41575Y-28504
X41575Y-29291
X41575Y-30079
X41575Y-30866
X41575Y-31654
T3
X27951Y-17986
X30411Y-17986
T5
X26000Y-18500
X26000Y-36500
X41500Y-18500
T4
G00X34083Y-18392
M15
G01X34083Y-18550
M16
G05
G00X36917Y-18392
M15
G01X36917Y-18550
M16
G05
T0
M30
