%TF.GenerationSoftware,KiCad,Pcbnew,7.0.5*%
%TF.CreationDate,2023-10-02T10:37:08-05:00*%
%TF.ProjectId,dropkick,64726f70-6b69-4636-9b2e-6b696361645f,rev?*%
%TF.SameCoordinates,Original*%
%TF.FileFunction,Legend,Top*%
%TF.FilePolarity,Positive*%
%FSLAX46Y46*%
G04 Gerber Fmt 4.6, Leading zero omitted, Abs format (unit mm)*
G04 Created by KiCad (PCBNEW 7.0.5) date 2023-10-02 10:37:08*
%MOMM*%
%LPD*%
G01*
G04 APERTURE LIST*
%ADD10C,0.150000*%
%ADD11C,0.100000*%
%ADD12C,0.146304*%
%ADD13C,0.200000*%
%ADD14C,0.120000*%
%ADD15C,0.127000*%
%ADD16C,0.203200*%
%ADD17C,0.010000*%
%ADD18C,0.304800*%
G04 APERTURE END LIST*
D10*
X93681779Y-90581819D02*
X93681779Y-89581819D01*
X93681779Y-89581819D02*
X93919874Y-89581819D01*
X93919874Y-89581819D02*
X94062731Y-89629438D01*
X94062731Y-89629438D02*
X94157969Y-89724676D01*
X94157969Y-89724676D02*
X94205588Y-89819914D01*
X94205588Y-89819914D02*
X94253207Y-90010390D01*
X94253207Y-90010390D02*
X94253207Y-90153247D01*
X94253207Y-90153247D02*
X94205588Y-90343723D01*
X94205588Y-90343723D02*
X94157969Y-90438961D01*
X94157969Y-90438961D02*
X94062731Y-90534200D01*
X94062731Y-90534200D02*
X93919874Y-90581819D01*
X93919874Y-90581819D02*
X93681779Y-90581819D01*
X94681779Y-90581819D02*
X94681779Y-89915152D01*
X94681779Y-90105628D02*
X94729398Y-90010390D01*
X94729398Y-90010390D02*
X94777017Y-89962771D01*
X94777017Y-89962771D02*
X94872255Y-89915152D01*
X94872255Y-89915152D02*
X94967493Y-89915152D01*
X95443684Y-90581819D02*
X95348446Y-90534200D01*
X95348446Y-90534200D02*
X95300827Y-90486580D01*
X95300827Y-90486580D02*
X95253208Y-90391342D01*
X95253208Y-90391342D02*
X95253208Y-90105628D01*
X95253208Y-90105628D02*
X95300827Y-90010390D01*
X95300827Y-90010390D02*
X95348446Y-89962771D01*
X95348446Y-89962771D02*
X95443684Y-89915152D01*
X95443684Y-89915152D02*
X95586541Y-89915152D01*
X95586541Y-89915152D02*
X95681779Y-89962771D01*
X95681779Y-89962771D02*
X95729398Y-90010390D01*
X95729398Y-90010390D02*
X95777017Y-90105628D01*
X95777017Y-90105628D02*
X95777017Y-90391342D01*
X95777017Y-90391342D02*
X95729398Y-90486580D01*
X95729398Y-90486580D02*
X95681779Y-90534200D01*
X95681779Y-90534200D02*
X95586541Y-90581819D01*
X95586541Y-90581819D02*
X95443684Y-90581819D01*
X96205589Y-89915152D02*
X96205589Y-90915152D01*
X96205589Y-89962771D02*
X96300827Y-89915152D01*
X96300827Y-89915152D02*
X96491303Y-89915152D01*
X96491303Y-89915152D02*
X96586541Y-89962771D01*
X96586541Y-89962771D02*
X96634160Y-90010390D01*
X96634160Y-90010390D02*
X96681779Y-90105628D01*
X96681779Y-90105628D02*
X96681779Y-90391342D01*
X96681779Y-90391342D02*
X96634160Y-90486580D01*
X96634160Y-90486580D02*
X96586541Y-90534200D01*
X96586541Y-90534200D02*
X96491303Y-90581819D01*
X96491303Y-90581819D02*
X96300827Y-90581819D01*
X96300827Y-90581819D02*
X96205589Y-90534200D01*
X97110351Y-90581819D02*
X97110351Y-89581819D01*
X97205589Y-90200866D02*
X97491303Y-90581819D01*
X97491303Y-89915152D02*
X97110351Y-90296104D01*
X97919875Y-90581819D02*
X97919875Y-89915152D01*
X97919875Y-89581819D02*
X97872256Y-89629438D01*
X97872256Y-89629438D02*
X97919875Y-89677057D01*
X97919875Y-89677057D02*
X97967494Y-89629438D01*
X97967494Y-89629438D02*
X97919875Y-89581819D01*
X97919875Y-89581819D02*
X97919875Y-89677057D01*
X98824636Y-90534200D02*
X98729398Y-90581819D01*
X98729398Y-90581819D02*
X98538922Y-90581819D01*
X98538922Y-90581819D02*
X98443684Y-90534200D01*
X98443684Y-90534200D02*
X98396065Y-90486580D01*
X98396065Y-90486580D02*
X98348446Y-90391342D01*
X98348446Y-90391342D02*
X98348446Y-90105628D01*
X98348446Y-90105628D02*
X98396065Y-90010390D01*
X98396065Y-90010390D02*
X98443684Y-89962771D01*
X98443684Y-89962771D02*
X98538922Y-89915152D01*
X98538922Y-89915152D02*
X98729398Y-89915152D01*
X98729398Y-89915152D02*
X98824636Y-89962771D01*
X99253208Y-90581819D02*
X99253208Y-89581819D01*
X99348446Y-90200866D02*
X99634160Y-90581819D01*
X99634160Y-89915152D02*
X99253208Y-90296104D01*
X100681780Y-89581819D02*
X101015113Y-90581819D01*
X101015113Y-90581819D02*
X101348446Y-89581819D01*
X102157970Y-89581819D02*
X101681780Y-89581819D01*
X101681780Y-89581819D02*
X101634161Y-90058009D01*
X101634161Y-90058009D02*
X101681780Y-90010390D01*
X101681780Y-90010390D02*
X101777018Y-89962771D01*
X101777018Y-89962771D02*
X102015113Y-89962771D01*
X102015113Y-89962771D02*
X102110351Y-90010390D01*
X102110351Y-90010390D02*
X102157970Y-90058009D01*
X102157970Y-90058009D02*
X102205589Y-90153247D01*
X102205589Y-90153247D02*
X102205589Y-90391342D01*
X102205589Y-90391342D02*
X102157970Y-90486580D01*
X102157970Y-90486580D02*
X102110351Y-90534200D01*
X102110351Y-90534200D02*
X102015113Y-90581819D01*
X102015113Y-90581819D02*
X101777018Y-90581819D01*
X101777018Y-90581819D02*
X101681780Y-90534200D01*
X101681780Y-90534200D02*
X101634161Y-90486580D01*
X102634161Y-90200866D02*
X103396066Y-90200866D01*
X104443684Y-90486580D02*
X104396065Y-90534200D01*
X104396065Y-90534200D02*
X104253208Y-90581819D01*
X104253208Y-90581819D02*
X104157970Y-90581819D01*
X104157970Y-90581819D02*
X104015113Y-90534200D01*
X104015113Y-90534200D02*
X103919875Y-90438961D01*
X103919875Y-90438961D02*
X103872256Y-90343723D01*
X103872256Y-90343723D02*
X103824637Y-90153247D01*
X103824637Y-90153247D02*
X103824637Y-90010390D01*
X103824637Y-90010390D02*
X103872256Y-89819914D01*
X103872256Y-89819914D02*
X103919875Y-89724676D01*
X103919875Y-89724676D02*
X104015113Y-89629438D01*
X104015113Y-89629438D02*
X104157970Y-89581819D01*
X104157970Y-89581819D02*
X104253208Y-89581819D01*
X104253208Y-89581819D02*
X104396065Y-89629438D01*
X104396065Y-89629438D02*
X104443684Y-89677057D01*
X104824637Y-90296104D02*
X105300827Y-90296104D01*
X104729399Y-90581819D02*
X105062732Y-89581819D01*
X105062732Y-89581819D02*
X105396065Y-90581819D01*
X105729399Y-90581819D02*
X105729399Y-89581819D01*
X105729399Y-89581819D02*
X106062732Y-90296104D01*
X106062732Y-90296104D02*
X106396065Y-89581819D01*
X106396065Y-89581819D02*
X106396065Y-90581819D01*
X94253207Y-92191819D02*
X93919874Y-91715628D01*
X93681779Y-92191819D02*
X93681779Y-91191819D01*
X93681779Y-91191819D02*
X94062731Y-91191819D01*
X94062731Y-91191819D02*
X94157969Y-91239438D01*
X94157969Y-91239438D02*
X94205588Y-91287057D01*
X94205588Y-91287057D02*
X94253207Y-91382295D01*
X94253207Y-91382295D02*
X94253207Y-91525152D01*
X94253207Y-91525152D02*
X94205588Y-91620390D01*
X94205588Y-91620390D02*
X94157969Y-91668009D01*
X94157969Y-91668009D02*
X94062731Y-91715628D01*
X94062731Y-91715628D02*
X93681779Y-91715628D01*
X94681779Y-92191819D02*
X94681779Y-91525152D01*
X94681779Y-91191819D02*
X94634160Y-91239438D01*
X94634160Y-91239438D02*
X94681779Y-91287057D01*
X94681779Y-91287057D02*
X94729398Y-91239438D01*
X94729398Y-91239438D02*
X94681779Y-91191819D01*
X94681779Y-91191819D02*
X94681779Y-91287057D01*
X95300826Y-92191819D02*
X95205588Y-92144200D01*
X95205588Y-92144200D02*
X95157969Y-92048961D01*
X95157969Y-92048961D02*
X95157969Y-91191819D01*
X96062731Y-92144200D02*
X95967493Y-92191819D01*
X95967493Y-92191819D02*
X95777017Y-92191819D01*
X95777017Y-92191819D02*
X95681779Y-92144200D01*
X95681779Y-92144200D02*
X95634160Y-92048961D01*
X95634160Y-92048961D02*
X95634160Y-91668009D01*
X95634160Y-91668009D02*
X95681779Y-91572771D01*
X95681779Y-91572771D02*
X95777017Y-91525152D01*
X95777017Y-91525152D02*
X95967493Y-91525152D01*
X95967493Y-91525152D02*
X96062731Y-91572771D01*
X96062731Y-91572771D02*
X96110350Y-91668009D01*
X96110350Y-91668009D02*
X96110350Y-91763247D01*
X96110350Y-91763247D02*
X95634160Y-91858485D01*
X96443684Y-91525152D02*
X96681779Y-92191819D01*
X96919874Y-91525152D02*
X96681779Y-92191819D01*
X96681779Y-92191819D02*
X96586541Y-92429914D01*
X96586541Y-92429914D02*
X96538922Y-92477533D01*
X96538922Y-92477533D02*
X96443684Y-92525152D01*
X98634160Y-92191819D02*
X98300827Y-91715628D01*
X98062732Y-92191819D02*
X98062732Y-91191819D01*
X98062732Y-91191819D02*
X98443684Y-91191819D01*
X98443684Y-91191819D02*
X98538922Y-91239438D01*
X98538922Y-91239438D02*
X98586541Y-91287057D01*
X98586541Y-91287057D02*
X98634160Y-91382295D01*
X98634160Y-91382295D02*
X98634160Y-91525152D01*
X98634160Y-91525152D02*
X98586541Y-91620390D01*
X98586541Y-91620390D02*
X98538922Y-91668009D01*
X98538922Y-91668009D02*
X98443684Y-91715628D01*
X98443684Y-91715628D02*
X98062732Y-91715628D01*
X99491303Y-92191819D02*
X99491303Y-91668009D01*
X99491303Y-91668009D02*
X99443684Y-91572771D01*
X99443684Y-91572771D02*
X99348446Y-91525152D01*
X99348446Y-91525152D02*
X99157970Y-91525152D01*
X99157970Y-91525152D02*
X99062732Y-91572771D01*
X99491303Y-92144200D02*
X99396065Y-92191819D01*
X99396065Y-92191819D02*
X99157970Y-92191819D01*
X99157970Y-92191819D02*
X99062732Y-92144200D01*
X99062732Y-92144200D02*
X99015113Y-92048961D01*
X99015113Y-92048961D02*
X99015113Y-91953723D01*
X99015113Y-91953723D02*
X99062732Y-91858485D01*
X99062732Y-91858485D02*
X99157970Y-91810866D01*
X99157970Y-91810866D02*
X99396065Y-91810866D01*
X99396065Y-91810866D02*
X99491303Y-91763247D01*
X99967494Y-92191819D02*
X99967494Y-91525152D01*
X99967494Y-91191819D02*
X99919875Y-91239438D01*
X99919875Y-91239438D02*
X99967494Y-91287057D01*
X99967494Y-91287057D02*
X100015113Y-91239438D01*
X100015113Y-91239438D02*
X99967494Y-91191819D01*
X99967494Y-91191819D02*
X99967494Y-91287057D01*
X100443684Y-91525152D02*
X100443684Y-92191819D01*
X100443684Y-91620390D02*
X100491303Y-91572771D01*
X100491303Y-91572771D02*
X100586541Y-91525152D01*
X100586541Y-91525152D02*
X100729398Y-91525152D01*
X100729398Y-91525152D02*
X100824636Y-91572771D01*
X100824636Y-91572771D02*
X100872255Y-91668009D01*
X100872255Y-91668009D02*
X100872255Y-92191819D01*
X101729398Y-92144200D02*
X101634160Y-92191819D01*
X101634160Y-92191819D02*
X101443684Y-92191819D01*
X101443684Y-92191819D02*
X101348446Y-92144200D01*
X101348446Y-92144200D02*
X101300827Y-92048961D01*
X101300827Y-92048961D02*
X101300827Y-91668009D01*
X101300827Y-91668009D02*
X101348446Y-91572771D01*
X101348446Y-91572771D02*
X101443684Y-91525152D01*
X101443684Y-91525152D02*
X101634160Y-91525152D01*
X101634160Y-91525152D02*
X101729398Y-91572771D01*
X101729398Y-91572771D02*
X101777017Y-91668009D01*
X101777017Y-91668009D02*
X101777017Y-91763247D01*
X101777017Y-91763247D02*
X101300827Y-91858485D01*
X102110351Y-91525152D02*
X102348446Y-92191819D01*
X102586541Y-91525152D02*
X102348446Y-92191819D01*
X102348446Y-92191819D02*
X102253208Y-92429914D01*
X102253208Y-92429914D02*
X102205589Y-92477533D01*
X102205589Y-92477533D02*
X102110351Y-92525152D01*
%TO.C,C12*%
X67937142Y-57255580D02*
X67889523Y-57303200D01*
X67889523Y-57303200D02*
X67746666Y-57350819D01*
X67746666Y-57350819D02*
X67651428Y-57350819D01*
X67651428Y-57350819D02*
X67508571Y-57303200D01*
X67508571Y-57303200D02*
X67413333Y-57207961D01*
X67413333Y-57207961D02*
X67365714Y-57112723D01*
X67365714Y-57112723D02*
X67318095Y-56922247D01*
X67318095Y-56922247D02*
X67318095Y-56779390D01*
X67318095Y-56779390D02*
X67365714Y-56588914D01*
X67365714Y-56588914D02*
X67413333Y-56493676D01*
X67413333Y-56493676D02*
X67508571Y-56398438D01*
X67508571Y-56398438D02*
X67651428Y-56350819D01*
X67651428Y-56350819D02*
X67746666Y-56350819D01*
X67746666Y-56350819D02*
X67889523Y-56398438D01*
X67889523Y-56398438D02*
X67937142Y-56446057D01*
X68889523Y-57350819D02*
X68318095Y-57350819D01*
X68603809Y-57350819D02*
X68603809Y-56350819D01*
X68603809Y-56350819D02*
X68508571Y-56493676D01*
X68508571Y-56493676D02*
X68413333Y-56588914D01*
X68413333Y-56588914D02*
X68318095Y-56636533D01*
X69270476Y-56446057D02*
X69318095Y-56398438D01*
X69318095Y-56398438D02*
X69413333Y-56350819D01*
X69413333Y-56350819D02*
X69651428Y-56350819D01*
X69651428Y-56350819D02*
X69746666Y-56398438D01*
X69746666Y-56398438D02*
X69794285Y-56446057D01*
X69794285Y-56446057D02*
X69841904Y-56541295D01*
X69841904Y-56541295D02*
X69841904Y-56636533D01*
X69841904Y-56636533D02*
X69794285Y-56779390D01*
X69794285Y-56779390D02*
X69222857Y-57350819D01*
X69222857Y-57350819D02*
X69841904Y-57350819D01*
%TO.C,CHG1*%
X84106104Y-51371380D02*
X84144200Y-51409476D01*
X84144200Y-51409476D02*
X84182295Y-51523761D01*
X84182295Y-51523761D02*
X84182295Y-51599952D01*
X84182295Y-51599952D02*
X84144200Y-51714238D01*
X84144200Y-51714238D02*
X84068009Y-51790428D01*
X84068009Y-51790428D02*
X83991819Y-51828523D01*
X83991819Y-51828523D02*
X83839438Y-51866619D01*
X83839438Y-51866619D02*
X83725152Y-51866619D01*
X83725152Y-51866619D02*
X83572771Y-51828523D01*
X83572771Y-51828523D02*
X83496580Y-51790428D01*
X83496580Y-51790428D02*
X83420390Y-51714238D01*
X83420390Y-51714238D02*
X83382295Y-51599952D01*
X83382295Y-51599952D02*
X83382295Y-51523761D01*
X83382295Y-51523761D02*
X83420390Y-51409476D01*
X83420390Y-51409476D02*
X83458485Y-51371380D01*
X84182295Y-51028523D02*
X83382295Y-51028523D01*
X83763247Y-51028523D02*
X83763247Y-50571380D01*
X84182295Y-50571380D02*
X83382295Y-50571380D01*
X83420390Y-49771381D02*
X83382295Y-49847571D01*
X83382295Y-49847571D02*
X83382295Y-49961857D01*
X83382295Y-49961857D02*
X83420390Y-50076143D01*
X83420390Y-50076143D02*
X83496580Y-50152333D01*
X83496580Y-50152333D02*
X83572771Y-50190428D01*
X83572771Y-50190428D02*
X83725152Y-50228524D01*
X83725152Y-50228524D02*
X83839438Y-50228524D01*
X83839438Y-50228524D02*
X83991819Y-50190428D01*
X83991819Y-50190428D02*
X84068009Y-50152333D01*
X84068009Y-50152333D02*
X84144200Y-50076143D01*
X84144200Y-50076143D02*
X84182295Y-49961857D01*
X84182295Y-49961857D02*
X84182295Y-49885666D01*
X84182295Y-49885666D02*
X84144200Y-49771381D01*
X84144200Y-49771381D02*
X84106104Y-49733285D01*
X84106104Y-49733285D02*
X83839438Y-49733285D01*
X83839438Y-49733285D02*
X83839438Y-49885666D01*
X84182295Y-48971381D02*
X84182295Y-49428524D01*
X84182295Y-49199952D02*
X83382295Y-49199952D01*
X83382295Y-49199952D02*
X83496580Y-49276143D01*
X83496580Y-49276143D02*
X83572771Y-49352333D01*
X83572771Y-49352333D02*
X83610866Y-49428524D01*
%TO.C,R3*%
X85671819Y-74207666D02*
X85195628Y-74540999D01*
X85671819Y-74779094D02*
X84671819Y-74779094D01*
X84671819Y-74779094D02*
X84671819Y-74398142D01*
X84671819Y-74398142D02*
X84719438Y-74302904D01*
X84719438Y-74302904D02*
X84767057Y-74255285D01*
X84767057Y-74255285D02*
X84862295Y-74207666D01*
X84862295Y-74207666D02*
X85005152Y-74207666D01*
X85005152Y-74207666D02*
X85100390Y-74255285D01*
X85100390Y-74255285D02*
X85148009Y-74302904D01*
X85148009Y-74302904D02*
X85195628Y-74398142D01*
X85195628Y-74398142D02*
X85195628Y-74779094D01*
X84671819Y-73874332D02*
X84671819Y-73255285D01*
X84671819Y-73255285D02*
X85052771Y-73588618D01*
X85052771Y-73588618D02*
X85052771Y-73445761D01*
X85052771Y-73445761D02*
X85100390Y-73350523D01*
X85100390Y-73350523D02*
X85148009Y-73302904D01*
X85148009Y-73302904D02*
X85243247Y-73255285D01*
X85243247Y-73255285D02*
X85481342Y-73255285D01*
X85481342Y-73255285D02*
X85576580Y-73302904D01*
X85576580Y-73302904D02*
X85624200Y-73350523D01*
X85624200Y-73350523D02*
X85671819Y-73445761D01*
X85671819Y-73445761D02*
X85671819Y-73731475D01*
X85671819Y-73731475D02*
X85624200Y-73826713D01*
X85624200Y-73826713D02*
X85576580Y-73874332D01*
%TO.C,SW2*%
X100229200Y-53911332D02*
X100276819Y-53768475D01*
X100276819Y-53768475D02*
X100276819Y-53530380D01*
X100276819Y-53530380D02*
X100229200Y-53435142D01*
X100229200Y-53435142D02*
X100181580Y-53387523D01*
X100181580Y-53387523D02*
X100086342Y-53339904D01*
X100086342Y-53339904D02*
X99991104Y-53339904D01*
X99991104Y-53339904D02*
X99895866Y-53387523D01*
X99895866Y-53387523D02*
X99848247Y-53435142D01*
X99848247Y-53435142D02*
X99800628Y-53530380D01*
X99800628Y-53530380D02*
X99753009Y-53720856D01*
X99753009Y-53720856D02*
X99705390Y-53816094D01*
X99705390Y-53816094D02*
X99657771Y-53863713D01*
X99657771Y-53863713D02*
X99562533Y-53911332D01*
X99562533Y-53911332D02*
X99467295Y-53911332D01*
X99467295Y-53911332D02*
X99372057Y-53863713D01*
X99372057Y-53863713D02*
X99324438Y-53816094D01*
X99324438Y-53816094D02*
X99276819Y-53720856D01*
X99276819Y-53720856D02*
X99276819Y-53482761D01*
X99276819Y-53482761D02*
X99324438Y-53339904D01*
X99276819Y-53006570D02*
X100276819Y-52768475D01*
X100276819Y-52768475D02*
X99562533Y-52577999D01*
X99562533Y-52577999D02*
X100276819Y-52387523D01*
X100276819Y-52387523D02*
X99276819Y-52149428D01*
X99372057Y-51816094D02*
X99324438Y-51768475D01*
X99324438Y-51768475D02*
X99276819Y-51673237D01*
X99276819Y-51673237D02*
X99276819Y-51435142D01*
X99276819Y-51435142D02*
X99324438Y-51339904D01*
X99324438Y-51339904D02*
X99372057Y-51292285D01*
X99372057Y-51292285D02*
X99467295Y-51244666D01*
X99467295Y-51244666D02*
X99562533Y-51244666D01*
X99562533Y-51244666D02*
X99705390Y-51292285D01*
X99705390Y-51292285D02*
X100276819Y-51863713D01*
X100276819Y-51863713D02*
X100276819Y-51244666D01*
X96654819Y-53599999D02*
X96892914Y-53599999D01*
X96797676Y-53838094D02*
X96892914Y-53599999D01*
X96892914Y-53599999D02*
X96797676Y-53361904D01*
X97083390Y-53742856D02*
X96892914Y-53599999D01*
X96892914Y-53599999D02*
X97083390Y-53457142D01*
X94755819Y-55707499D02*
X94993914Y-55707499D01*
X94898676Y-55945594D02*
X94993914Y-55707499D01*
X94993914Y-55707499D02*
X94898676Y-55469404D01*
X95184390Y-55850356D02*
X94993914Y-55707499D01*
X94993914Y-55707499D02*
X95184390Y-55564642D01*
%TO.C,C2*%
X96988333Y-72495580D02*
X96940714Y-72543200D01*
X96940714Y-72543200D02*
X96797857Y-72590819D01*
X96797857Y-72590819D02*
X96702619Y-72590819D01*
X96702619Y-72590819D02*
X96559762Y-72543200D01*
X96559762Y-72543200D02*
X96464524Y-72447961D01*
X96464524Y-72447961D02*
X96416905Y-72352723D01*
X96416905Y-72352723D02*
X96369286Y-72162247D01*
X96369286Y-72162247D02*
X96369286Y-72019390D01*
X96369286Y-72019390D02*
X96416905Y-71828914D01*
X96416905Y-71828914D02*
X96464524Y-71733676D01*
X96464524Y-71733676D02*
X96559762Y-71638438D01*
X96559762Y-71638438D02*
X96702619Y-71590819D01*
X96702619Y-71590819D02*
X96797857Y-71590819D01*
X96797857Y-71590819D02*
X96940714Y-71638438D01*
X96940714Y-71638438D02*
X96988333Y-71686057D01*
X97369286Y-71686057D02*
X97416905Y-71638438D01*
X97416905Y-71638438D02*
X97512143Y-71590819D01*
X97512143Y-71590819D02*
X97750238Y-71590819D01*
X97750238Y-71590819D02*
X97845476Y-71638438D01*
X97845476Y-71638438D02*
X97893095Y-71686057D01*
X97893095Y-71686057D02*
X97940714Y-71781295D01*
X97940714Y-71781295D02*
X97940714Y-71876533D01*
X97940714Y-71876533D02*
X97893095Y-72019390D01*
X97893095Y-72019390D02*
X97321667Y-72590819D01*
X97321667Y-72590819D02*
X97940714Y-72590819D01*
%TO.C,R7*%
X77938333Y-87322819D02*
X77605000Y-86846628D01*
X77366905Y-87322819D02*
X77366905Y-86322819D01*
X77366905Y-86322819D02*
X77747857Y-86322819D01*
X77747857Y-86322819D02*
X77843095Y-86370438D01*
X77843095Y-86370438D02*
X77890714Y-86418057D01*
X77890714Y-86418057D02*
X77938333Y-86513295D01*
X77938333Y-86513295D02*
X77938333Y-86656152D01*
X77938333Y-86656152D02*
X77890714Y-86751390D01*
X77890714Y-86751390D02*
X77843095Y-86799009D01*
X77843095Y-86799009D02*
X77747857Y-86846628D01*
X77747857Y-86846628D02*
X77366905Y-86846628D01*
X78271667Y-86322819D02*
X78938333Y-86322819D01*
X78938333Y-86322819D02*
X78509762Y-87322819D01*
%TO.C,C7*%
X78733667Y-62516104D02*
X78695571Y-62554200D01*
X78695571Y-62554200D02*
X78581286Y-62592295D01*
X78581286Y-62592295D02*
X78505095Y-62592295D01*
X78505095Y-62592295D02*
X78390809Y-62554200D01*
X78390809Y-62554200D02*
X78314619Y-62478009D01*
X78314619Y-62478009D02*
X78276524Y-62401819D01*
X78276524Y-62401819D02*
X78238428Y-62249438D01*
X78238428Y-62249438D02*
X78238428Y-62135152D01*
X78238428Y-62135152D02*
X78276524Y-61982771D01*
X78276524Y-61982771D02*
X78314619Y-61906580D01*
X78314619Y-61906580D02*
X78390809Y-61830390D01*
X78390809Y-61830390D02*
X78505095Y-61792295D01*
X78505095Y-61792295D02*
X78581286Y-61792295D01*
X78581286Y-61792295D02*
X78695571Y-61830390D01*
X78695571Y-61830390D02*
X78733667Y-61868485D01*
X79000333Y-61792295D02*
X79533667Y-61792295D01*
X79533667Y-61792295D02*
X79190809Y-62592295D01*
%TO.C,R13*%
X99387819Y-62364857D02*
X98911628Y-62698190D01*
X99387819Y-62936285D02*
X98387819Y-62936285D01*
X98387819Y-62936285D02*
X98387819Y-62555333D01*
X98387819Y-62555333D02*
X98435438Y-62460095D01*
X98435438Y-62460095D02*
X98483057Y-62412476D01*
X98483057Y-62412476D02*
X98578295Y-62364857D01*
X98578295Y-62364857D02*
X98721152Y-62364857D01*
X98721152Y-62364857D02*
X98816390Y-62412476D01*
X98816390Y-62412476D02*
X98864009Y-62460095D01*
X98864009Y-62460095D02*
X98911628Y-62555333D01*
X98911628Y-62555333D02*
X98911628Y-62936285D01*
X99387819Y-61412476D02*
X99387819Y-61983904D01*
X99387819Y-61698190D02*
X98387819Y-61698190D01*
X98387819Y-61698190D02*
X98530676Y-61793428D01*
X98530676Y-61793428D02*
X98625914Y-61888666D01*
X98625914Y-61888666D02*
X98673533Y-61983904D01*
X98387819Y-61079142D02*
X98387819Y-60460095D01*
X98387819Y-60460095D02*
X98768771Y-60793428D01*
X98768771Y-60793428D02*
X98768771Y-60650571D01*
X98768771Y-60650571D02*
X98816390Y-60555333D01*
X98816390Y-60555333D02*
X98864009Y-60507714D01*
X98864009Y-60507714D02*
X98959247Y-60460095D01*
X98959247Y-60460095D02*
X99197342Y-60460095D01*
X99197342Y-60460095D02*
X99292580Y-60507714D01*
X99292580Y-60507714D02*
X99340200Y-60555333D01*
X99340200Y-60555333D02*
X99387819Y-60650571D01*
X99387819Y-60650571D02*
X99387819Y-60936285D01*
X99387819Y-60936285D02*
X99340200Y-61031523D01*
X99340200Y-61031523D02*
X99292580Y-61079142D01*
%TO.C,C10*%
X93196580Y-58046857D02*
X93244200Y-58094476D01*
X93244200Y-58094476D02*
X93291819Y-58237333D01*
X93291819Y-58237333D02*
X93291819Y-58332571D01*
X93291819Y-58332571D02*
X93244200Y-58475428D01*
X93244200Y-58475428D02*
X93148961Y-58570666D01*
X93148961Y-58570666D02*
X93053723Y-58618285D01*
X93053723Y-58618285D02*
X92863247Y-58665904D01*
X92863247Y-58665904D02*
X92720390Y-58665904D01*
X92720390Y-58665904D02*
X92529914Y-58618285D01*
X92529914Y-58618285D02*
X92434676Y-58570666D01*
X92434676Y-58570666D02*
X92339438Y-58475428D01*
X92339438Y-58475428D02*
X92291819Y-58332571D01*
X92291819Y-58332571D02*
X92291819Y-58237333D01*
X92291819Y-58237333D02*
X92339438Y-58094476D01*
X92339438Y-58094476D02*
X92387057Y-58046857D01*
X93291819Y-57094476D02*
X93291819Y-57665904D01*
X93291819Y-57380190D02*
X92291819Y-57380190D01*
X92291819Y-57380190D02*
X92434676Y-57475428D01*
X92434676Y-57475428D02*
X92529914Y-57570666D01*
X92529914Y-57570666D02*
X92577533Y-57665904D01*
X92291819Y-56475428D02*
X92291819Y-56380190D01*
X92291819Y-56380190D02*
X92339438Y-56284952D01*
X92339438Y-56284952D02*
X92387057Y-56237333D01*
X92387057Y-56237333D02*
X92482295Y-56189714D01*
X92482295Y-56189714D02*
X92672771Y-56142095D01*
X92672771Y-56142095D02*
X92910866Y-56142095D01*
X92910866Y-56142095D02*
X93101342Y-56189714D01*
X93101342Y-56189714D02*
X93196580Y-56237333D01*
X93196580Y-56237333D02*
X93244200Y-56284952D01*
X93244200Y-56284952D02*
X93291819Y-56380190D01*
X93291819Y-56380190D02*
X93291819Y-56475428D01*
X93291819Y-56475428D02*
X93244200Y-56570666D01*
X93244200Y-56570666D02*
X93196580Y-56618285D01*
X93196580Y-56618285D02*
X93101342Y-56665904D01*
X93101342Y-56665904D02*
X92910866Y-56713523D01*
X92910866Y-56713523D02*
X92672771Y-56713523D01*
X92672771Y-56713523D02*
X92482295Y-56665904D01*
X92482295Y-56665904D02*
X92387057Y-56618285D01*
X92387057Y-56618285D02*
X92339438Y-56570666D01*
X92339438Y-56570666D02*
X92291819Y-56475428D01*
%TO.C,C8*%
X78733667Y-63913104D02*
X78695571Y-63951200D01*
X78695571Y-63951200D02*
X78581286Y-63989295D01*
X78581286Y-63989295D02*
X78505095Y-63989295D01*
X78505095Y-63989295D02*
X78390809Y-63951200D01*
X78390809Y-63951200D02*
X78314619Y-63875009D01*
X78314619Y-63875009D02*
X78276524Y-63798819D01*
X78276524Y-63798819D02*
X78238428Y-63646438D01*
X78238428Y-63646438D02*
X78238428Y-63532152D01*
X78238428Y-63532152D02*
X78276524Y-63379771D01*
X78276524Y-63379771D02*
X78314619Y-63303580D01*
X78314619Y-63303580D02*
X78390809Y-63227390D01*
X78390809Y-63227390D02*
X78505095Y-63189295D01*
X78505095Y-63189295D02*
X78581286Y-63189295D01*
X78581286Y-63189295D02*
X78695571Y-63227390D01*
X78695571Y-63227390D02*
X78733667Y-63265485D01*
X79190809Y-63532152D02*
X79114619Y-63494057D01*
X79114619Y-63494057D02*
X79076524Y-63455961D01*
X79076524Y-63455961D02*
X79038428Y-63379771D01*
X79038428Y-63379771D02*
X79038428Y-63341676D01*
X79038428Y-63341676D02*
X79076524Y-63265485D01*
X79076524Y-63265485D02*
X79114619Y-63227390D01*
X79114619Y-63227390D02*
X79190809Y-63189295D01*
X79190809Y-63189295D02*
X79343190Y-63189295D01*
X79343190Y-63189295D02*
X79419381Y-63227390D01*
X79419381Y-63227390D02*
X79457476Y-63265485D01*
X79457476Y-63265485D02*
X79495571Y-63341676D01*
X79495571Y-63341676D02*
X79495571Y-63379771D01*
X79495571Y-63379771D02*
X79457476Y-63455961D01*
X79457476Y-63455961D02*
X79419381Y-63494057D01*
X79419381Y-63494057D02*
X79343190Y-63532152D01*
X79343190Y-63532152D02*
X79190809Y-63532152D01*
X79190809Y-63532152D02*
X79114619Y-63570247D01*
X79114619Y-63570247D02*
X79076524Y-63608342D01*
X79076524Y-63608342D02*
X79038428Y-63684533D01*
X79038428Y-63684533D02*
X79038428Y-63836914D01*
X79038428Y-63836914D02*
X79076524Y-63913104D01*
X79076524Y-63913104D02*
X79114619Y-63951200D01*
X79114619Y-63951200D02*
X79190809Y-63989295D01*
X79190809Y-63989295D02*
X79343190Y-63989295D01*
X79343190Y-63989295D02*
X79419381Y-63951200D01*
X79419381Y-63951200D02*
X79457476Y-63913104D01*
X79457476Y-63913104D02*
X79495571Y-63836914D01*
X79495571Y-63836914D02*
X79495571Y-63684533D01*
X79495571Y-63684533D02*
X79457476Y-63608342D01*
X79457476Y-63608342D02*
X79419381Y-63570247D01*
X79419381Y-63570247D02*
X79343190Y-63532152D01*
%TO.C,L2*%
X99387819Y-45886666D02*
X99387819Y-46362856D01*
X99387819Y-46362856D02*
X98387819Y-46362856D01*
X98483057Y-45600951D02*
X98435438Y-45553332D01*
X98435438Y-45553332D02*
X98387819Y-45458094D01*
X98387819Y-45458094D02*
X98387819Y-45219999D01*
X98387819Y-45219999D02*
X98435438Y-45124761D01*
X98435438Y-45124761D02*
X98483057Y-45077142D01*
X98483057Y-45077142D02*
X98578295Y-45029523D01*
X98578295Y-45029523D02*
X98673533Y-45029523D01*
X98673533Y-45029523D02*
X98816390Y-45077142D01*
X98816390Y-45077142D02*
X99387819Y-45648570D01*
X99387819Y-45648570D02*
X99387819Y-45029523D01*
%TO.C,R14*%
X103578819Y-72524857D02*
X103102628Y-72858190D01*
X103578819Y-73096285D02*
X102578819Y-73096285D01*
X102578819Y-73096285D02*
X102578819Y-72715333D01*
X102578819Y-72715333D02*
X102626438Y-72620095D01*
X102626438Y-72620095D02*
X102674057Y-72572476D01*
X102674057Y-72572476D02*
X102769295Y-72524857D01*
X102769295Y-72524857D02*
X102912152Y-72524857D01*
X102912152Y-72524857D02*
X103007390Y-72572476D01*
X103007390Y-72572476D02*
X103055009Y-72620095D01*
X103055009Y-72620095D02*
X103102628Y-72715333D01*
X103102628Y-72715333D02*
X103102628Y-73096285D01*
X103578819Y-71572476D02*
X103578819Y-72143904D01*
X103578819Y-71858190D02*
X102578819Y-71858190D01*
X102578819Y-71858190D02*
X102721676Y-71953428D01*
X102721676Y-71953428D02*
X102816914Y-72048666D01*
X102816914Y-72048666D02*
X102864533Y-72143904D01*
X102912152Y-70715333D02*
X103578819Y-70715333D01*
X102531200Y-70953428D02*
X103245485Y-71191523D01*
X103245485Y-71191523D02*
X103245485Y-70572476D01*
%TO.C,R5*%
X86066333Y-59001819D02*
X85733000Y-58525628D01*
X85494905Y-59001819D02*
X85494905Y-58001819D01*
X85494905Y-58001819D02*
X85875857Y-58001819D01*
X85875857Y-58001819D02*
X85971095Y-58049438D01*
X85971095Y-58049438D02*
X86018714Y-58097057D01*
X86018714Y-58097057D02*
X86066333Y-58192295D01*
X86066333Y-58192295D02*
X86066333Y-58335152D01*
X86066333Y-58335152D02*
X86018714Y-58430390D01*
X86018714Y-58430390D02*
X85971095Y-58478009D01*
X85971095Y-58478009D02*
X85875857Y-58525628D01*
X85875857Y-58525628D02*
X85494905Y-58525628D01*
X86971095Y-58001819D02*
X86494905Y-58001819D01*
X86494905Y-58001819D02*
X86447286Y-58478009D01*
X86447286Y-58478009D02*
X86494905Y-58430390D01*
X86494905Y-58430390D02*
X86590143Y-58382771D01*
X86590143Y-58382771D02*
X86828238Y-58382771D01*
X86828238Y-58382771D02*
X86923476Y-58430390D01*
X86923476Y-58430390D02*
X86971095Y-58478009D01*
X86971095Y-58478009D02*
X87018714Y-58573247D01*
X87018714Y-58573247D02*
X87018714Y-58811342D01*
X87018714Y-58811342D02*
X86971095Y-58906580D01*
X86971095Y-58906580D02*
X86923476Y-58954200D01*
X86923476Y-58954200D02*
X86828238Y-59001819D01*
X86828238Y-59001819D02*
X86590143Y-59001819D01*
X86590143Y-59001819D02*
X86494905Y-58954200D01*
X86494905Y-58954200D02*
X86447286Y-58906580D01*
%TO.C,C4*%
X103537104Y-63633332D02*
X103575200Y-63671428D01*
X103575200Y-63671428D02*
X103613295Y-63785713D01*
X103613295Y-63785713D02*
X103613295Y-63861904D01*
X103613295Y-63861904D02*
X103575200Y-63976190D01*
X103575200Y-63976190D02*
X103499009Y-64052380D01*
X103499009Y-64052380D02*
X103422819Y-64090475D01*
X103422819Y-64090475D02*
X103270438Y-64128571D01*
X103270438Y-64128571D02*
X103156152Y-64128571D01*
X103156152Y-64128571D02*
X103003771Y-64090475D01*
X103003771Y-64090475D02*
X102927580Y-64052380D01*
X102927580Y-64052380D02*
X102851390Y-63976190D01*
X102851390Y-63976190D02*
X102813295Y-63861904D01*
X102813295Y-63861904D02*
X102813295Y-63785713D01*
X102813295Y-63785713D02*
X102851390Y-63671428D01*
X102851390Y-63671428D02*
X102889485Y-63633332D01*
X103079961Y-62947618D02*
X103613295Y-62947618D01*
X102775200Y-63138094D02*
X103346628Y-63328571D01*
X103346628Y-63328571D02*
X103346628Y-62833332D01*
%TO.C,U3*%
X81438095Y-79054819D02*
X81438095Y-79864342D01*
X81438095Y-79864342D02*
X81485714Y-79959580D01*
X81485714Y-79959580D02*
X81533333Y-80007200D01*
X81533333Y-80007200D02*
X81628571Y-80054819D01*
X81628571Y-80054819D02*
X81819047Y-80054819D01*
X81819047Y-80054819D02*
X81914285Y-80007200D01*
X81914285Y-80007200D02*
X81961904Y-79959580D01*
X81961904Y-79959580D02*
X82009523Y-79864342D01*
X82009523Y-79864342D02*
X82009523Y-79054819D01*
X82390476Y-79054819D02*
X83009523Y-79054819D01*
X83009523Y-79054819D02*
X82676190Y-79435771D01*
X82676190Y-79435771D02*
X82819047Y-79435771D01*
X82819047Y-79435771D02*
X82914285Y-79483390D01*
X82914285Y-79483390D02*
X82961904Y-79531009D01*
X82961904Y-79531009D02*
X83009523Y-79626247D01*
X83009523Y-79626247D02*
X83009523Y-79864342D01*
X83009523Y-79864342D02*
X82961904Y-79959580D01*
X82961904Y-79959580D02*
X82914285Y-80007200D01*
X82914285Y-80007200D02*
X82819047Y-80054819D01*
X82819047Y-80054819D02*
X82533333Y-80054819D01*
X82533333Y-80054819D02*
X82438095Y-80007200D01*
X82438095Y-80007200D02*
X82390476Y-79959580D01*
%TO.C,R10*%
X101800819Y-49029857D02*
X101324628Y-49363190D01*
X101800819Y-49601285D02*
X100800819Y-49601285D01*
X100800819Y-49601285D02*
X100800819Y-49220333D01*
X100800819Y-49220333D02*
X100848438Y-49125095D01*
X100848438Y-49125095D02*
X100896057Y-49077476D01*
X100896057Y-49077476D02*
X100991295Y-49029857D01*
X100991295Y-49029857D02*
X101134152Y-49029857D01*
X101134152Y-49029857D02*
X101229390Y-49077476D01*
X101229390Y-49077476D02*
X101277009Y-49125095D01*
X101277009Y-49125095D02*
X101324628Y-49220333D01*
X101324628Y-49220333D02*
X101324628Y-49601285D01*
X101800819Y-48077476D02*
X101800819Y-48648904D01*
X101800819Y-48363190D02*
X100800819Y-48363190D01*
X100800819Y-48363190D02*
X100943676Y-48458428D01*
X100943676Y-48458428D02*
X101038914Y-48553666D01*
X101038914Y-48553666D02*
X101086533Y-48648904D01*
X100800819Y-47458428D02*
X100800819Y-47363190D01*
X100800819Y-47363190D02*
X100848438Y-47267952D01*
X100848438Y-47267952D02*
X100896057Y-47220333D01*
X100896057Y-47220333D02*
X100991295Y-47172714D01*
X100991295Y-47172714D02*
X101181771Y-47125095D01*
X101181771Y-47125095D02*
X101419866Y-47125095D01*
X101419866Y-47125095D02*
X101610342Y-47172714D01*
X101610342Y-47172714D02*
X101705580Y-47220333D01*
X101705580Y-47220333D02*
X101753200Y-47267952D01*
X101753200Y-47267952D02*
X101800819Y-47363190D01*
X101800819Y-47363190D02*
X101800819Y-47458428D01*
X101800819Y-47458428D02*
X101753200Y-47553666D01*
X101753200Y-47553666D02*
X101705580Y-47601285D01*
X101705580Y-47601285D02*
X101610342Y-47648904D01*
X101610342Y-47648904D02*
X101419866Y-47696523D01*
X101419866Y-47696523D02*
X101181771Y-47696523D01*
X101181771Y-47696523D02*
X100991295Y-47648904D01*
X100991295Y-47648904D02*
X100896057Y-47601285D01*
X100896057Y-47601285D02*
X100848438Y-47553666D01*
X100848438Y-47553666D02*
X100800819Y-47458428D01*
%TO.C,C5*%
X93432333Y-73892580D02*
X93384714Y-73940200D01*
X93384714Y-73940200D02*
X93241857Y-73987819D01*
X93241857Y-73987819D02*
X93146619Y-73987819D01*
X93146619Y-73987819D02*
X93003762Y-73940200D01*
X93003762Y-73940200D02*
X92908524Y-73844961D01*
X92908524Y-73844961D02*
X92860905Y-73749723D01*
X92860905Y-73749723D02*
X92813286Y-73559247D01*
X92813286Y-73559247D02*
X92813286Y-73416390D01*
X92813286Y-73416390D02*
X92860905Y-73225914D01*
X92860905Y-73225914D02*
X92908524Y-73130676D01*
X92908524Y-73130676D02*
X93003762Y-73035438D01*
X93003762Y-73035438D02*
X93146619Y-72987819D01*
X93146619Y-72987819D02*
X93241857Y-72987819D01*
X93241857Y-72987819D02*
X93384714Y-73035438D01*
X93384714Y-73035438D02*
X93432333Y-73083057D01*
X94337095Y-72987819D02*
X93860905Y-72987819D01*
X93860905Y-72987819D02*
X93813286Y-73464009D01*
X93813286Y-73464009D02*
X93860905Y-73416390D01*
X93860905Y-73416390D02*
X93956143Y-73368771D01*
X93956143Y-73368771D02*
X94194238Y-73368771D01*
X94194238Y-73368771D02*
X94289476Y-73416390D01*
X94289476Y-73416390D02*
X94337095Y-73464009D01*
X94337095Y-73464009D02*
X94384714Y-73559247D01*
X94384714Y-73559247D02*
X94384714Y-73797342D01*
X94384714Y-73797342D02*
X94337095Y-73892580D01*
X94337095Y-73892580D02*
X94289476Y-73940200D01*
X94289476Y-73940200D02*
X94194238Y-73987819D01*
X94194238Y-73987819D02*
X93956143Y-73987819D01*
X93956143Y-73987819D02*
X93860905Y-73940200D01*
X93860905Y-73940200D02*
X93813286Y-73892580D01*
%TO.C,R1*%
X84020819Y-74207666D02*
X83544628Y-74540999D01*
X84020819Y-74779094D02*
X83020819Y-74779094D01*
X83020819Y-74779094D02*
X83020819Y-74398142D01*
X83020819Y-74398142D02*
X83068438Y-74302904D01*
X83068438Y-74302904D02*
X83116057Y-74255285D01*
X83116057Y-74255285D02*
X83211295Y-74207666D01*
X83211295Y-74207666D02*
X83354152Y-74207666D01*
X83354152Y-74207666D02*
X83449390Y-74255285D01*
X83449390Y-74255285D02*
X83497009Y-74302904D01*
X83497009Y-74302904D02*
X83544628Y-74398142D01*
X83544628Y-74398142D02*
X83544628Y-74779094D01*
X84020819Y-73255285D02*
X84020819Y-73826713D01*
X84020819Y-73540999D02*
X83020819Y-73540999D01*
X83020819Y-73540999D02*
X83163676Y-73636237D01*
X83163676Y-73636237D02*
X83258914Y-73731475D01*
X83258914Y-73731475D02*
X83306533Y-73826713D01*
D11*
%TO.C,X4*%
X83239517Y-60579609D02*
X83572850Y-61079609D01*
X83572850Y-60579609D02*
X83239517Y-61079609D01*
X83977612Y-60746276D02*
X83977612Y-61079609D01*
X83858564Y-60555800D02*
X83739517Y-60912942D01*
X83739517Y-60912942D02*
X84049040Y-60912942D01*
D10*
%TO.C,R12*%
X73987819Y-52458857D02*
X73511628Y-52792190D01*
X73987819Y-53030285D02*
X72987819Y-53030285D01*
X72987819Y-53030285D02*
X72987819Y-52649333D01*
X72987819Y-52649333D02*
X73035438Y-52554095D01*
X73035438Y-52554095D02*
X73083057Y-52506476D01*
X73083057Y-52506476D02*
X73178295Y-52458857D01*
X73178295Y-52458857D02*
X73321152Y-52458857D01*
X73321152Y-52458857D02*
X73416390Y-52506476D01*
X73416390Y-52506476D02*
X73464009Y-52554095D01*
X73464009Y-52554095D02*
X73511628Y-52649333D01*
X73511628Y-52649333D02*
X73511628Y-53030285D01*
X73987819Y-51506476D02*
X73987819Y-52077904D01*
X73987819Y-51792190D02*
X72987819Y-51792190D01*
X72987819Y-51792190D02*
X73130676Y-51887428D01*
X73130676Y-51887428D02*
X73225914Y-51982666D01*
X73225914Y-51982666D02*
X73273533Y-52077904D01*
X73083057Y-51125523D02*
X73035438Y-51077904D01*
X73035438Y-51077904D02*
X72987819Y-50982666D01*
X72987819Y-50982666D02*
X72987819Y-50744571D01*
X72987819Y-50744571D02*
X73035438Y-50649333D01*
X73035438Y-50649333D02*
X73083057Y-50601714D01*
X73083057Y-50601714D02*
X73178295Y-50554095D01*
X73178295Y-50554095D02*
X73273533Y-50554095D01*
X73273533Y-50554095D02*
X73416390Y-50601714D01*
X73416390Y-50601714D02*
X73987819Y-51173142D01*
X73987819Y-51173142D02*
X73987819Y-50554095D01*
D12*
%TO.C,U1*%
X95861041Y-57964329D02*
X95861041Y-58503874D01*
X95861041Y-58503874D02*
X95892779Y-58567350D01*
X95892779Y-58567350D02*
X95924517Y-58599088D01*
X95924517Y-58599088D02*
X95987993Y-58630825D01*
X95987993Y-58630825D02*
X96114944Y-58630825D01*
X96114944Y-58630825D02*
X96178420Y-58599088D01*
X96178420Y-58599088D02*
X96210158Y-58567350D01*
X96210158Y-58567350D02*
X96241896Y-58503874D01*
X96241896Y-58503874D02*
X96241896Y-57964329D01*
X96908392Y-58630825D02*
X96527537Y-58630825D01*
X96717965Y-58630825D02*
X96717965Y-57964329D01*
X96717965Y-57964329D02*
X96654489Y-58059543D01*
X96654489Y-58059543D02*
X96591013Y-58123019D01*
X96591013Y-58123019D02*
X96527537Y-58154757D01*
D10*
%TO.C,C3*%
X93167580Y-53821666D02*
X93215200Y-53869285D01*
X93215200Y-53869285D02*
X93262819Y-54012142D01*
X93262819Y-54012142D02*
X93262819Y-54107380D01*
X93262819Y-54107380D02*
X93215200Y-54250237D01*
X93215200Y-54250237D02*
X93119961Y-54345475D01*
X93119961Y-54345475D02*
X93024723Y-54393094D01*
X93024723Y-54393094D02*
X92834247Y-54440713D01*
X92834247Y-54440713D02*
X92691390Y-54440713D01*
X92691390Y-54440713D02*
X92500914Y-54393094D01*
X92500914Y-54393094D02*
X92405676Y-54345475D01*
X92405676Y-54345475D02*
X92310438Y-54250237D01*
X92310438Y-54250237D02*
X92262819Y-54107380D01*
X92262819Y-54107380D02*
X92262819Y-54012142D01*
X92262819Y-54012142D02*
X92310438Y-53869285D01*
X92310438Y-53869285D02*
X92358057Y-53821666D01*
X92262819Y-53488332D02*
X92262819Y-52869285D01*
X92262819Y-52869285D02*
X92643771Y-53202618D01*
X92643771Y-53202618D02*
X92643771Y-53059761D01*
X92643771Y-53059761D02*
X92691390Y-52964523D01*
X92691390Y-52964523D02*
X92739009Y-52916904D01*
X92739009Y-52916904D02*
X92834247Y-52869285D01*
X92834247Y-52869285D02*
X93072342Y-52869285D01*
X93072342Y-52869285D02*
X93167580Y-52916904D01*
X93167580Y-52916904D02*
X93215200Y-52964523D01*
X93215200Y-52964523D02*
X93262819Y-53059761D01*
X93262819Y-53059761D02*
X93262819Y-53345475D01*
X93262819Y-53345475D02*
X93215200Y-53440713D01*
X93215200Y-53440713D02*
X93167580Y-53488332D01*
%TO.C,C13*%
X81385580Y-56649857D02*
X81433200Y-56697476D01*
X81433200Y-56697476D02*
X81480819Y-56840333D01*
X81480819Y-56840333D02*
X81480819Y-56935571D01*
X81480819Y-56935571D02*
X81433200Y-57078428D01*
X81433200Y-57078428D02*
X81337961Y-57173666D01*
X81337961Y-57173666D02*
X81242723Y-57221285D01*
X81242723Y-57221285D02*
X81052247Y-57268904D01*
X81052247Y-57268904D02*
X80909390Y-57268904D01*
X80909390Y-57268904D02*
X80718914Y-57221285D01*
X80718914Y-57221285D02*
X80623676Y-57173666D01*
X80623676Y-57173666D02*
X80528438Y-57078428D01*
X80528438Y-57078428D02*
X80480819Y-56935571D01*
X80480819Y-56935571D02*
X80480819Y-56840333D01*
X80480819Y-56840333D02*
X80528438Y-56697476D01*
X80528438Y-56697476D02*
X80576057Y-56649857D01*
X81480819Y-55697476D02*
X81480819Y-56268904D01*
X81480819Y-55983190D02*
X80480819Y-55983190D01*
X80480819Y-55983190D02*
X80623676Y-56078428D01*
X80623676Y-56078428D02*
X80718914Y-56173666D01*
X80718914Y-56173666D02*
X80766533Y-56268904D01*
X80480819Y-55364142D02*
X80480819Y-54745095D01*
X80480819Y-54745095D02*
X80861771Y-55078428D01*
X80861771Y-55078428D02*
X80861771Y-54935571D01*
X80861771Y-54935571D02*
X80909390Y-54840333D01*
X80909390Y-54840333D02*
X80957009Y-54792714D01*
X80957009Y-54792714D02*
X81052247Y-54745095D01*
X81052247Y-54745095D02*
X81290342Y-54745095D01*
X81290342Y-54745095D02*
X81385580Y-54792714D01*
X81385580Y-54792714D02*
X81433200Y-54840333D01*
X81433200Y-54840333D02*
X81480819Y-54935571D01*
X81480819Y-54935571D02*
X81480819Y-55221285D01*
X81480819Y-55221285D02*
X81433200Y-55316523D01*
X81433200Y-55316523D02*
X81385580Y-55364142D01*
%TO.C,C9*%
X89622333Y-52937580D02*
X89574714Y-52985200D01*
X89574714Y-52985200D02*
X89431857Y-53032819D01*
X89431857Y-53032819D02*
X89336619Y-53032819D01*
X89336619Y-53032819D02*
X89193762Y-52985200D01*
X89193762Y-52985200D02*
X89098524Y-52889961D01*
X89098524Y-52889961D02*
X89050905Y-52794723D01*
X89050905Y-52794723D02*
X89003286Y-52604247D01*
X89003286Y-52604247D02*
X89003286Y-52461390D01*
X89003286Y-52461390D02*
X89050905Y-52270914D01*
X89050905Y-52270914D02*
X89098524Y-52175676D01*
X89098524Y-52175676D02*
X89193762Y-52080438D01*
X89193762Y-52080438D02*
X89336619Y-52032819D01*
X89336619Y-52032819D02*
X89431857Y-52032819D01*
X89431857Y-52032819D02*
X89574714Y-52080438D01*
X89574714Y-52080438D02*
X89622333Y-52128057D01*
X90098524Y-53032819D02*
X90289000Y-53032819D01*
X90289000Y-53032819D02*
X90384238Y-52985200D01*
X90384238Y-52985200D02*
X90431857Y-52937580D01*
X90431857Y-52937580D02*
X90527095Y-52794723D01*
X90527095Y-52794723D02*
X90574714Y-52604247D01*
X90574714Y-52604247D02*
X90574714Y-52223295D01*
X90574714Y-52223295D02*
X90527095Y-52128057D01*
X90527095Y-52128057D02*
X90479476Y-52080438D01*
X90479476Y-52080438D02*
X90384238Y-52032819D01*
X90384238Y-52032819D02*
X90193762Y-52032819D01*
X90193762Y-52032819D02*
X90098524Y-52080438D01*
X90098524Y-52080438D02*
X90050905Y-52128057D01*
X90050905Y-52128057D02*
X90003286Y-52223295D01*
X90003286Y-52223295D02*
X90003286Y-52461390D01*
X90003286Y-52461390D02*
X90050905Y-52556628D01*
X90050905Y-52556628D02*
X90098524Y-52604247D01*
X90098524Y-52604247D02*
X90193762Y-52651866D01*
X90193762Y-52651866D02*
X90384238Y-52651866D01*
X90384238Y-52651866D02*
X90479476Y-52604247D01*
X90479476Y-52604247D02*
X90527095Y-52556628D01*
X90527095Y-52556628D02*
X90574714Y-52461390D01*
%TO.C,L3*%
X75271333Y-47698819D02*
X74795143Y-47698819D01*
X74795143Y-47698819D02*
X74795143Y-46698819D01*
X75509429Y-46698819D02*
X76128476Y-46698819D01*
X76128476Y-46698819D02*
X75795143Y-47079771D01*
X75795143Y-47079771D02*
X75938000Y-47079771D01*
X75938000Y-47079771D02*
X76033238Y-47127390D01*
X76033238Y-47127390D02*
X76080857Y-47175009D01*
X76080857Y-47175009D02*
X76128476Y-47270247D01*
X76128476Y-47270247D02*
X76128476Y-47508342D01*
X76128476Y-47508342D02*
X76080857Y-47603580D01*
X76080857Y-47603580D02*
X76033238Y-47651200D01*
X76033238Y-47651200D02*
X75938000Y-47698819D01*
X75938000Y-47698819D02*
X75652286Y-47698819D01*
X75652286Y-47698819D02*
X75557048Y-47651200D01*
X75557048Y-47651200D02*
X75509429Y-47603580D01*
%TO.C,C15*%
X77717714Y-60103104D02*
X77679618Y-60141200D01*
X77679618Y-60141200D02*
X77565333Y-60179295D01*
X77565333Y-60179295D02*
X77489142Y-60179295D01*
X77489142Y-60179295D02*
X77374856Y-60141200D01*
X77374856Y-60141200D02*
X77298666Y-60065009D01*
X77298666Y-60065009D02*
X77260571Y-59988819D01*
X77260571Y-59988819D02*
X77222475Y-59836438D01*
X77222475Y-59836438D02*
X77222475Y-59722152D01*
X77222475Y-59722152D02*
X77260571Y-59569771D01*
X77260571Y-59569771D02*
X77298666Y-59493580D01*
X77298666Y-59493580D02*
X77374856Y-59417390D01*
X77374856Y-59417390D02*
X77489142Y-59379295D01*
X77489142Y-59379295D02*
X77565333Y-59379295D01*
X77565333Y-59379295D02*
X77679618Y-59417390D01*
X77679618Y-59417390D02*
X77717714Y-59455485D01*
X78479618Y-60179295D02*
X78022475Y-60179295D01*
X78251047Y-60179295D02*
X78251047Y-59379295D01*
X78251047Y-59379295D02*
X78174856Y-59493580D01*
X78174856Y-59493580D02*
X78098666Y-59569771D01*
X78098666Y-59569771D02*
X78022475Y-59607866D01*
X79203428Y-59379295D02*
X78822476Y-59379295D01*
X78822476Y-59379295D02*
X78784380Y-59760247D01*
X78784380Y-59760247D02*
X78822476Y-59722152D01*
X78822476Y-59722152D02*
X78898666Y-59684057D01*
X78898666Y-59684057D02*
X79089142Y-59684057D01*
X79089142Y-59684057D02*
X79165333Y-59722152D01*
X79165333Y-59722152D02*
X79203428Y-59760247D01*
X79203428Y-59760247D02*
X79241523Y-59836438D01*
X79241523Y-59836438D02*
X79241523Y-60026914D01*
X79241523Y-60026914D02*
X79203428Y-60103104D01*
X79203428Y-60103104D02*
X79165333Y-60141200D01*
X79165333Y-60141200D02*
X79089142Y-60179295D01*
X79089142Y-60179295D02*
X78898666Y-60179295D01*
X78898666Y-60179295D02*
X78822476Y-60141200D01*
X78822476Y-60141200D02*
X78784380Y-60103104D01*
%TO.C,R4*%
X83324819Y-53516666D02*
X82848628Y-53849999D01*
X83324819Y-54088094D02*
X82324819Y-54088094D01*
X82324819Y-54088094D02*
X82324819Y-53707142D01*
X82324819Y-53707142D02*
X82372438Y-53611904D01*
X82372438Y-53611904D02*
X82420057Y-53564285D01*
X82420057Y-53564285D02*
X82515295Y-53516666D01*
X82515295Y-53516666D02*
X82658152Y-53516666D01*
X82658152Y-53516666D02*
X82753390Y-53564285D01*
X82753390Y-53564285D02*
X82801009Y-53611904D01*
X82801009Y-53611904D02*
X82848628Y-53707142D01*
X82848628Y-53707142D02*
X82848628Y-54088094D01*
X82658152Y-52659523D02*
X83324819Y-52659523D01*
X82277200Y-52897618D02*
X82991485Y-53135713D01*
X82991485Y-53135713D02*
X82991485Y-52516666D01*
%TO.C,C1*%
X83272333Y-68431580D02*
X83224714Y-68479200D01*
X83224714Y-68479200D02*
X83081857Y-68526819D01*
X83081857Y-68526819D02*
X82986619Y-68526819D01*
X82986619Y-68526819D02*
X82843762Y-68479200D01*
X82843762Y-68479200D02*
X82748524Y-68383961D01*
X82748524Y-68383961D02*
X82700905Y-68288723D01*
X82700905Y-68288723D02*
X82653286Y-68098247D01*
X82653286Y-68098247D02*
X82653286Y-67955390D01*
X82653286Y-67955390D02*
X82700905Y-67764914D01*
X82700905Y-67764914D02*
X82748524Y-67669676D01*
X82748524Y-67669676D02*
X82843762Y-67574438D01*
X82843762Y-67574438D02*
X82986619Y-67526819D01*
X82986619Y-67526819D02*
X83081857Y-67526819D01*
X83081857Y-67526819D02*
X83224714Y-67574438D01*
X83224714Y-67574438D02*
X83272333Y-67622057D01*
X84224714Y-68526819D02*
X83653286Y-68526819D01*
X83939000Y-68526819D02*
X83939000Y-67526819D01*
X83939000Y-67526819D02*
X83843762Y-67669676D01*
X83843762Y-67669676D02*
X83748524Y-67764914D01*
X83748524Y-67764914D02*
X83653286Y-67812533D01*
D12*
%TO.C,D1*%
X102784941Y-50394825D02*
X102784941Y-49728329D01*
X102784941Y-49728329D02*
X102943631Y-49728329D01*
X102943631Y-49728329D02*
X103038844Y-49760067D01*
X103038844Y-49760067D02*
X103102320Y-49823543D01*
X103102320Y-49823543D02*
X103134058Y-49887019D01*
X103134058Y-49887019D02*
X103165796Y-50013971D01*
X103165796Y-50013971D02*
X103165796Y-50109184D01*
X103165796Y-50109184D02*
X103134058Y-50236136D01*
X103134058Y-50236136D02*
X103102320Y-50299612D01*
X103102320Y-50299612D02*
X103038844Y-50363088D01*
X103038844Y-50363088D02*
X102943631Y-50394825D01*
X102943631Y-50394825D02*
X102784941Y-50394825D01*
X103800554Y-50394825D02*
X103419699Y-50394825D01*
X103610127Y-50394825D02*
X103610127Y-49728329D01*
X103610127Y-49728329D02*
X103546651Y-49823543D01*
X103546651Y-49823543D02*
X103483175Y-49887019D01*
X103483175Y-49887019D02*
X103419699Y-49918757D01*
D10*
%TO.C,R11*%
X82277295Y-50552285D02*
X81896342Y-50818952D01*
X82277295Y-51009428D02*
X81477295Y-51009428D01*
X81477295Y-51009428D02*
X81477295Y-50704666D01*
X81477295Y-50704666D02*
X81515390Y-50628476D01*
X81515390Y-50628476D02*
X81553485Y-50590381D01*
X81553485Y-50590381D02*
X81629676Y-50552285D01*
X81629676Y-50552285D02*
X81743961Y-50552285D01*
X81743961Y-50552285D02*
X81820152Y-50590381D01*
X81820152Y-50590381D02*
X81858247Y-50628476D01*
X81858247Y-50628476D02*
X81896342Y-50704666D01*
X81896342Y-50704666D02*
X81896342Y-51009428D01*
X82277295Y-49790381D02*
X82277295Y-50247524D01*
X82277295Y-50018952D02*
X81477295Y-50018952D01*
X81477295Y-50018952D02*
X81591580Y-50095143D01*
X81591580Y-50095143D02*
X81667771Y-50171333D01*
X81667771Y-50171333D02*
X81705866Y-50247524D01*
X82277295Y-49028476D02*
X82277295Y-49485619D01*
X82277295Y-49257047D02*
X81477295Y-49257047D01*
X81477295Y-49257047D02*
X81591580Y-49333238D01*
X81591580Y-49333238D02*
X81667771Y-49409428D01*
X81667771Y-49409428D02*
X81705866Y-49485619D01*
%TO.C,C6*%
X75906333Y-90148580D02*
X75858714Y-90196200D01*
X75858714Y-90196200D02*
X75715857Y-90243819D01*
X75715857Y-90243819D02*
X75620619Y-90243819D01*
X75620619Y-90243819D02*
X75477762Y-90196200D01*
X75477762Y-90196200D02*
X75382524Y-90100961D01*
X75382524Y-90100961D02*
X75334905Y-90005723D01*
X75334905Y-90005723D02*
X75287286Y-89815247D01*
X75287286Y-89815247D02*
X75287286Y-89672390D01*
X75287286Y-89672390D02*
X75334905Y-89481914D01*
X75334905Y-89481914D02*
X75382524Y-89386676D01*
X75382524Y-89386676D02*
X75477762Y-89291438D01*
X75477762Y-89291438D02*
X75620619Y-89243819D01*
X75620619Y-89243819D02*
X75715857Y-89243819D01*
X75715857Y-89243819D02*
X75858714Y-89291438D01*
X75858714Y-89291438D02*
X75906333Y-89339057D01*
X76763476Y-89243819D02*
X76573000Y-89243819D01*
X76573000Y-89243819D02*
X76477762Y-89291438D01*
X76477762Y-89291438D02*
X76430143Y-89339057D01*
X76430143Y-89339057D02*
X76334905Y-89481914D01*
X76334905Y-89481914D02*
X76287286Y-89672390D01*
X76287286Y-89672390D02*
X76287286Y-90053342D01*
X76287286Y-90053342D02*
X76334905Y-90148580D01*
X76334905Y-90148580D02*
X76382524Y-90196200D01*
X76382524Y-90196200D02*
X76477762Y-90243819D01*
X76477762Y-90243819D02*
X76668238Y-90243819D01*
X76668238Y-90243819D02*
X76763476Y-90196200D01*
X76763476Y-90196200D02*
X76811095Y-90148580D01*
X76811095Y-90148580D02*
X76858714Y-90053342D01*
X76858714Y-90053342D02*
X76858714Y-89815247D01*
X76858714Y-89815247D02*
X76811095Y-89720009D01*
X76811095Y-89720009D02*
X76763476Y-89672390D01*
X76763476Y-89672390D02*
X76668238Y-89624771D01*
X76668238Y-89624771D02*
X76477762Y-89624771D01*
X76477762Y-89624771D02*
X76382524Y-89672390D01*
X76382524Y-89672390D02*
X76334905Y-89720009D01*
X76334905Y-89720009D02*
X76287286Y-89815247D01*
%TO.C,J1*%
X105246666Y-57434819D02*
X105246666Y-58149104D01*
X105246666Y-58149104D02*
X105199047Y-58291961D01*
X105199047Y-58291961D02*
X105103809Y-58387200D01*
X105103809Y-58387200D02*
X104960952Y-58434819D01*
X104960952Y-58434819D02*
X104865714Y-58434819D01*
X106246666Y-58434819D02*
X105675238Y-58434819D01*
X105960952Y-58434819D02*
X105960952Y-57434819D01*
X105960952Y-57434819D02*
X105865714Y-57577676D01*
X105865714Y-57577676D02*
X105770476Y-57672914D01*
X105770476Y-57672914D02*
X105675238Y-57720533D01*
D13*
%TO.C,B1*%
X73050720Y-70524314D02*
X73265006Y-70595742D01*
X73265006Y-70595742D02*
X73336435Y-70667171D01*
X73336435Y-70667171D02*
X73407863Y-70810028D01*
X73407863Y-70810028D02*
X73407863Y-71024314D01*
X73407863Y-71024314D02*
X73336435Y-71167171D01*
X73336435Y-71167171D02*
X73265006Y-71238600D01*
X73265006Y-71238600D02*
X73122149Y-71310028D01*
X73122149Y-71310028D02*
X72550720Y-71310028D01*
X72550720Y-71310028D02*
X72550720Y-69810028D01*
X72550720Y-69810028D02*
X73050720Y-69810028D01*
X73050720Y-69810028D02*
X73193578Y-69881457D01*
X73193578Y-69881457D02*
X73265006Y-69952885D01*
X73265006Y-69952885D02*
X73336435Y-70095742D01*
X73336435Y-70095742D02*
X73336435Y-70238600D01*
X73336435Y-70238600D02*
X73265006Y-70381457D01*
X73265006Y-70381457D02*
X73193578Y-70452885D01*
X73193578Y-70452885D02*
X73050720Y-70524314D01*
X73050720Y-70524314D02*
X72550720Y-70524314D01*
X74836435Y-71310028D02*
X73979292Y-71310028D01*
X74407863Y-71310028D02*
X74407863Y-69810028D01*
X74407863Y-69810028D02*
X74265006Y-70024314D01*
X74265006Y-70024314D02*
X74122149Y-70167171D01*
X74122149Y-70167171D02*
X73979292Y-70238600D01*
D12*
%TO.C,U6*%
X78994941Y-52584329D02*
X78994941Y-53123874D01*
X78994941Y-53123874D02*
X79026679Y-53187350D01*
X79026679Y-53187350D02*
X79058417Y-53219088D01*
X79058417Y-53219088D02*
X79121893Y-53250825D01*
X79121893Y-53250825D02*
X79248844Y-53250825D01*
X79248844Y-53250825D02*
X79312320Y-53219088D01*
X79312320Y-53219088D02*
X79344058Y-53187350D01*
X79344058Y-53187350D02*
X79375796Y-53123874D01*
X79375796Y-53123874D02*
X79375796Y-52584329D01*
X79978816Y-52584329D02*
X79851865Y-52584329D01*
X79851865Y-52584329D02*
X79788389Y-52616067D01*
X79788389Y-52616067D02*
X79756651Y-52647805D01*
X79756651Y-52647805D02*
X79693175Y-52743019D01*
X79693175Y-52743019D02*
X79661437Y-52869971D01*
X79661437Y-52869971D02*
X79661437Y-53123874D01*
X79661437Y-53123874D02*
X79693175Y-53187350D01*
X79693175Y-53187350D02*
X79724913Y-53219088D01*
X79724913Y-53219088D02*
X79788389Y-53250825D01*
X79788389Y-53250825D02*
X79915340Y-53250825D01*
X79915340Y-53250825D02*
X79978816Y-53219088D01*
X79978816Y-53219088D02*
X80010554Y-53187350D01*
X80010554Y-53187350D02*
X80042292Y-53123874D01*
X80042292Y-53123874D02*
X80042292Y-52965184D01*
X80042292Y-52965184D02*
X80010554Y-52901708D01*
X80010554Y-52901708D02*
X79978816Y-52869971D01*
X79978816Y-52869971D02*
X79915340Y-52838233D01*
X79915340Y-52838233D02*
X79788389Y-52838233D01*
X79788389Y-52838233D02*
X79724913Y-52869971D01*
X79724913Y-52869971D02*
X79693175Y-52901708D01*
X79693175Y-52901708D02*
X79661437Y-52965184D01*
D10*
%TO.C,C14*%
X69334142Y-55350580D02*
X69286523Y-55398200D01*
X69286523Y-55398200D02*
X69143666Y-55445819D01*
X69143666Y-55445819D02*
X69048428Y-55445819D01*
X69048428Y-55445819D02*
X68905571Y-55398200D01*
X68905571Y-55398200D02*
X68810333Y-55302961D01*
X68810333Y-55302961D02*
X68762714Y-55207723D01*
X68762714Y-55207723D02*
X68715095Y-55017247D01*
X68715095Y-55017247D02*
X68715095Y-54874390D01*
X68715095Y-54874390D02*
X68762714Y-54683914D01*
X68762714Y-54683914D02*
X68810333Y-54588676D01*
X68810333Y-54588676D02*
X68905571Y-54493438D01*
X68905571Y-54493438D02*
X69048428Y-54445819D01*
X69048428Y-54445819D02*
X69143666Y-54445819D01*
X69143666Y-54445819D02*
X69286523Y-54493438D01*
X69286523Y-54493438D02*
X69334142Y-54541057D01*
X70286523Y-55445819D02*
X69715095Y-55445819D01*
X70000809Y-55445819D02*
X70000809Y-54445819D01*
X70000809Y-54445819D02*
X69905571Y-54588676D01*
X69905571Y-54588676D02*
X69810333Y-54683914D01*
X69810333Y-54683914D02*
X69715095Y-54731533D01*
X71143666Y-54779152D02*
X71143666Y-55445819D01*
X70905571Y-54398200D02*
X70667476Y-55112485D01*
X70667476Y-55112485D02*
X71286523Y-55112485D01*
%TO.C,U4*%
X86642395Y-61468819D02*
X86642395Y-62278342D01*
X86642395Y-62278342D02*
X86690014Y-62373580D01*
X86690014Y-62373580D02*
X86737633Y-62421200D01*
X86737633Y-62421200D02*
X86832871Y-62468819D01*
X86832871Y-62468819D02*
X87023347Y-62468819D01*
X87023347Y-62468819D02*
X87118585Y-62421200D01*
X87118585Y-62421200D02*
X87166204Y-62373580D01*
X87166204Y-62373580D02*
X87213823Y-62278342D01*
X87213823Y-62278342D02*
X87213823Y-61468819D01*
X88118585Y-61802152D02*
X88118585Y-62468819D01*
X87880490Y-61421200D02*
X87642395Y-62135485D01*
X87642395Y-62135485D02*
X88261442Y-62135485D01*
X86113600Y-62623819D02*
X86113600Y-62861914D01*
X85875505Y-62766676D02*
X86113600Y-62861914D01*
X86113600Y-62861914D02*
X86351695Y-62766676D01*
X85970743Y-63052390D02*
X86113600Y-62861914D01*
X86113600Y-62861914D02*
X86256457Y-63052390D01*
%TO.C,L1*%
X80372295Y-49663333D02*
X80372295Y-50044285D01*
X80372295Y-50044285D02*
X79572295Y-50044285D01*
X80372295Y-48977619D02*
X80372295Y-49434762D01*
X80372295Y-49206190D02*
X79572295Y-49206190D01*
X79572295Y-49206190D02*
X79686580Y-49282381D01*
X79686580Y-49282381D02*
X79762771Y-49358571D01*
X79762771Y-49358571D02*
X79800866Y-49434762D01*
%TO.C,R2*%
X103705819Y-54903666D02*
X103229628Y-55236999D01*
X103705819Y-55475094D02*
X102705819Y-55475094D01*
X102705819Y-55475094D02*
X102705819Y-55094142D01*
X102705819Y-55094142D02*
X102753438Y-54998904D01*
X102753438Y-54998904D02*
X102801057Y-54951285D01*
X102801057Y-54951285D02*
X102896295Y-54903666D01*
X102896295Y-54903666D02*
X103039152Y-54903666D01*
X103039152Y-54903666D02*
X103134390Y-54951285D01*
X103134390Y-54951285D02*
X103182009Y-54998904D01*
X103182009Y-54998904D02*
X103229628Y-55094142D01*
X103229628Y-55094142D02*
X103229628Y-55475094D01*
X102801057Y-54522713D02*
X102753438Y-54475094D01*
X102753438Y-54475094D02*
X102705819Y-54379856D01*
X102705819Y-54379856D02*
X102705819Y-54141761D01*
X102705819Y-54141761D02*
X102753438Y-54046523D01*
X102753438Y-54046523D02*
X102801057Y-53998904D01*
X102801057Y-53998904D02*
X102896295Y-53951285D01*
X102896295Y-53951285D02*
X102991533Y-53951285D01*
X102991533Y-53951285D02*
X103134390Y-53998904D01*
X103134390Y-53998904D02*
X103705819Y-54570332D01*
X103705819Y-54570332D02*
X103705819Y-53951285D01*
%TO.C,R6*%
X78065333Y-84147819D02*
X77732000Y-83671628D01*
X77493905Y-84147819D02*
X77493905Y-83147819D01*
X77493905Y-83147819D02*
X77874857Y-83147819D01*
X77874857Y-83147819D02*
X77970095Y-83195438D01*
X77970095Y-83195438D02*
X78017714Y-83243057D01*
X78017714Y-83243057D02*
X78065333Y-83338295D01*
X78065333Y-83338295D02*
X78065333Y-83481152D01*
X78065333Y-83481152D02*
X78017714Y-83576390D01*
X78017714Y-83576390D02*
X77970095Y-83624009D01*
X77970095Y-83624009D02*
X77874857Y-83671628D01*
X77874857Y-83671628D02*
X77493905Y-83671628D01*
X78922476Y-83147819D02*
X78732000Y-83147819D01*
X78732000Y-83147819D02*
X78636762Y-83195438D01*
X78636762Y-83195438D02*
X78589143Y-83243057D01*
X78589143Y-83243057D02*
X78493905Y-83385914D01*
X78493905Y-83385914D02*
X78446286Y-83576390D01*
X78446286Y-83576390D02*
X78446286Y-83957342D01*
X78446286Y-83957342D02*
X78493905Y-84052580D01*
X78493905Y-84052580D02*
X78541524Y-84100200D01*
X78541524Y-84100200D02*
X78636762Y-84147819D01*
X78636762Y-84147819D02*
X78827238Y-84147819D01*
X78827238Y-84147819D02*
X78922476Y-84100200D01*
X78922476Y-84100200D02*
X78970095Y-84052580D01*
X78970095Y-84052580D02*
X79017714Y-83957342D01*
X79017714Y-83957342D02*
X79017714Y-83719247D01*
X79017714Y-83719247D02*
X78970095Y-83624009D01*
X78970095Y-83624009D02*
X78922476Y-83576390D01*
X78922476Y-83576390D02*
X78827238Y-83528771D01*
X78827238Y-83528771D02*
X78636762Y-83528771D01*
X78636762Y-83528771D02*
X78541524Y-83576390D01*
X78541524Y-83576390D02*
X78493905Y-83624009D01*
X78493905Y-83624009D02*
X78446286Y-83719247D01*
D12*
%TO.C,U2*%
X84654941Y-56444329D02*
X84654941Y-56983874D01*
X84654941Y-56983874D02*
X84686679Y-57047350D01*
X84686679Y-57047350D02*
X84718417Y-57079088D01*
X84718417Y-57079088D02*
X84781893Y-57110825D01*
X84781893Y-57110825D02*
X84908844Y-57110825D01*
X84908844Y-57110825D02*
X84972320Y-57079088D01*
X84972320Y-57079088D02*
X85004058Y-57047350D01*
X85004058Y-57047350D02*
X85035796Y-56983874D01*
X85035796Y-56983874D02*
X85035796Y-56444329D01*
X85321437Y-56507805D02*
X85353175Y-56476067D01*
X85353175Y-56476067D02*
X85416651Y-56444329D01*
X85416651Y-56444329D02*
X85575340Y-56444329D01*
X85575340Y-56444329D02*
X85638816Y-56476067D01*
X85638816Y-56476067D02*
X85670554Y-56507805D01*
X85670554Y-56507805D02*
X85702292Y-56571281D01*
X85702292Y-56571281D02*
X85702292Y-56634757D01*
X85702292Y-56634757D02*
X85670554Y-56729971D01*
X85670554Y-56729971D02*
X85289699Y-57110825D01*
X85289699Y-57110825D02*
X85702292Y-57110825D01*
D10*
%TO.C,U5*%
X98856771Y-66370142D02*
X99342485Y-66370142D01*
X99342485Y-66370142D02*
X99399628Y-66341571D01*
X99399628Y-66341571D02*
X99428200Y-66313000D01*
X99428200Y-66313000D02*
X99456771Y-66255857D01*
X99456771Y-66255857D02*
X99456771Y-66141571D01*
X99456771Y-66141571D02*
X99428200Y-66084428D01*
X99428200Y-66084428D02*
X99399628Y-66055857D01*
X99399628Y-66055857D02*
X99342485Y-66027285D01*
X99342485Y-66027285D02*
X98856771Y-66027285D01*
X98856771Y-65455857D02*
X98856771Y-65741571D01*
X98856771Y-65741571D02*
X99142485Y-65770143D01*
X99142485Y-65770143D02*
X99113914Y-65741571D01*
X99113914Y-65741571D02*
X99085342Y-65684429D01*
X99085342Y-65684429D02*
X99085342Y-65541571D01*
X99085342Y-65541571D02*
X99113914Y-65484429D01*
X99113914Y-65484429D02*
X99142485Y-65455857D01*
X99142485Y-65455857D02*
X99199628Y-65427286D01*
X99199628Y-65427286D02*
X99342485Y-65427286D01*
X99342485Y-65427286D02*
X99399628Y-65455857D01*
X99399628Y-65455857D02*
X99428200Y-65484429D01*
X99428200Y-65484429D02*
X99456771Y-65541571D01*
X99456771Y-65541571D02*
X99456771Y-65684429D01*
X99456771Y-65684429D02*
X99428200Y-65741571D01*
X99428200Y-65741571D02*
X99399628Y-65770143D01*
%TO.C,C11*%
X99038580Y-69222857D02*
X99086200Y-69270476D01*
X99086200Y-69270476D02*
X99133819Y-69413333D01*
X99133819Y-69413333D02*
X99133819Y-69508571D01*
X99133819Y-69508571D02*
X99086200Y-69651428D01*
X99086200Y-69651428D02*
X98990961Y-69746666D01*
X98990961Y-69746666D02*
X98895723Y-69794285D01*
X98895723Y-69794285D02*
X98705247Y-69841904D01*
X98705247Y-69841904D02*
X98562390Y-69841904D01*
X98562390Y-69841904D02*
X98371914Y-69794285D01*
X98371914Y-69794285D02*
X98276676Y-69746666D01*
X98276676Y-69746666D02*
X98181438Y-69651428D01*
X98181438Y-69651428D02*
X98133819Y-69508571D01*
X98133819Y-69508571D02*
X98133819Y-69413333D01*
X98133819Y-69413333D02*
X98181438Y-69270476D01*
X98181438Y-69270476D02*
X98229057Y-69222857D01*
X99133819Y-68270476D02*
X99133819Y-68841904D01*
X99133819Y-68556190D02*
X98133819Y-68556190D01*
X98133819Y-68556190D02*
X98276676Y-68651428D01*
X98276676Y-68651428D02*
X98371914Y-68746666D01*
X98371914Y-68746666D02*
X98419533Y-68841904D01*
X99133819Y-67318095D02*
X99133819Y-67889523D01*
X99133819Y-67603809D02*
X98133819Y-67603809D01*
X98133819Y-67603809D02*
X98276676Y-67699047D01*
X98276676Y-67699047D02*
X98371914Y-67794285D01*
X98371914Y-67794285D02*
X98419533Y-67889523D01*
D14*
%TO.C,C12*%
X71593580Y-57360000D02*
X71312420Y-57360000D01*
X71593580Y-56340000D02*
X71312420Y-56340000D01*
%TO.C,CHG1*%
X83085000Y-48695000D02*
X84555000Y-48695000D01*
X84555000Y-48695000D02*
X84555000Y-46410000D01*
X83085000Y-46410000D02*
X83085000Y-48695000D01*
%TO.C,R3*%
X85632800Y-71046742D02*
X85632800Y-71521258D01*
X84587800Y-71046742D02*
X84587800Y-71521258D01*
%TO.C,SW2*%
X99060000Y-50101500D02*
X98668741Y-50101500D01*
X99060000Y-55054500D02*
X99060000Y-50101500D01*
X97495261Y-50101500D02*
X97068739Y-50101500D01*
X95504000Y-55054500D02*
X95895259Y-55054500D01*
X97068739Y-55054500D02*
X97495261Y-55054500D01*
X95504000Y-50101500D02*
X95504000Y-55054500D01*
X95895259Y-50101500D02*
X95504000Y-50101500D01*
X98668741Y-55054500D02*
X99060000Y-55054500D01*
%TO.C,C2*%
X99738748Y-72785000D02*
X100261252Y-72785000D01*
X99738748Y-71315000D02*
X100261252Y-71315000D01*
%TO.C,R7*%
X80110359Y-87121000D02*
X80417641Y-87121000D01*
X80110359Y-86361000D02*
X80417641Y-86361000D01*
%TO.C,C7*%
X81246880Y-62708000D02*
X80965720Y-62708000D01*
X81246880Y-61688000D02*
X80965720Y-61688000D01*
%TO.C,R13*%
X100972500Y-61412742D02*
X100972500Y-61887258D01*
X99927500Y-61412742D02*
X99927500Y-61887258D01*
%TO.C,C10*%
X90676000Y-57290580D02*
X90676000Y-57009420D01*
X91696000Y-57290580D02*
X91696000Y-57009420D01*
%TO.C,C8*%
X81246880Y-63212000D02*
X80965720Y-63212000D01*
X81246880Y-64232000D02*
X80965720Y-64232000D01*
%TO.C,L2*%
X98017000Y-46013000D02*
X96547000Y-46013000D01*
X98017000Y-48298000D02*
X98017000Y-46013000D01*
X96547000Y-46013000D02*
X96547000Y-48298000D01*
%TO.C,R14*%
X102487500Y-69107258D02*
X102487500Y-68632742D01*
X103532500Y-69107258D02*
X103532500Y-68632742D01*
%TO.C,R5*%
X88662742Y-59069500D02*
X89137258Y-59069500D01*
X88662742Y-58024500D02*
X89137258Y-58024500D01*
%TO.C,C4*%
X101865000Y-61261252D02*
X101865000Y-60738748D01*
X103335000Y-61261252D02*
X103335000Y-60738748D01*
%TO.C,U3*%
X84038531Y-80779117D02*
X81670800Y-80779117D01*
X91729200Y-81100000D02*
X91729200Y-80779117D01*
X81670800Y-94650000D02*
X81670800Y-95002500D01*
X89361469Y-95002500D02*
X91729200Y-95002500D01*
X81670800Y-95002500D02*
X84038531Y-95002500D01*
X81670800Y-80779117D02*
X81670800Y-81200000D01*
X91729200Y-80779117D02*
X89361469Y-80779117D01*
X91729200Y-95002500D02*
X91729200Y-94600000D01*
%TO.C,R10*%
X99045500Y-48497258D02*
X99045500Y-48022742D01*
X100090500Y-48497258D02*
X100090500Y-48022742D01*
%TO.C,C5*%
X90909420Y-72940000D02*
X91190580Y-72940000D01*
X90909420Y-73960000D02*
X91190580Y-73960000D01*
%TO.C,R1*%
X84108800Y-71521258D02*
X84108800Y-71046742D01*
X83063800Y-71521258D02*
X83063800Y-71046742D01*
D15*
%TO.C,X4*%
X84554300Y-62814000D02*
X84554300Y-63614000D01*
X83464300Y-63614000D02*
X83464300Y-62814000D01*
X83754300Y-63614000D02*
X83754300Y-62814000D01*
X84854300Y-62814000D02*
X84854300Y-63614000D01*
D14*
%TO.C,R12*%
X73972500Y-48987258D02*
X73972500Y-48512742D01*
X72927500Y-48987258D02*
X72927500Y-48512742D01*
D16*
%TO.C,U1*%
X98514000Y-55750000D02*
X100114000Y-55750000D01*
X98514000Y-59050000D02*
X100114000Y-59050000D01*
X98264000Y-57800000D02*
X98264000Y-57000000D01*
%TO.C,REF1*%
D17*
X93815115Y-87011962D02*
X93883145Y-87047733D01*
X93933351Y-87105301D01*
X93951185Y-87142312D01*
X93965063Y-87197882D01*
X93972167Y-87268096D01*
X93972840Y-87344727D01*
X93967427Y-87419552D01*
X93956270Y-87484342D01*
X93939714Y-87530873D01*
X93934626Y-87538887D01*
X93874355Y-87598707D01*
X93802769Y-87634535D01*
X93725092Y-87645020D01*
X93646548Y-87628810D01*
X93624689Y-87619092D01*
X93582122Y-87589143D01*
X93544763Y-87549433D01*
X93541232Y-87544397D01*
X93526881Y-87520124D01*
X93517394Y-87494178D01*
X93511790Y-87460022D01*
X93509086Y-87411119D01*
X93508299Y-87340935D01*
X93508286Y-87325200D01*
X93508322Y-87320192D01*
X93653429Y-87320192D01*
X93654273Y-87386430D01*
X93657596Y-87430386D01*
X93664583Y-87458779D01*
X93676416Y-87478325D01*
X93682457Y-87484857D01*
X93717186Y-87509680D01*
X93750903Y-87508548D01*
X93784995Y-87487016D01*
X93805329Y-87464029D01*
X93817371Y-87430478D01*
X93824134Y-87377569D01*
X93824598Y-87371399D01*
X93825752Y-87275513D01*
X93813688Y-87204299D01*
X93788570Y-87158194D01*
X93750560Y-87137635D01*
X93736992Y-87136514D01*
X93701364Y-87142152D01*
X93676994Y-87161686D01*
X93662093Y-87199042D01*
X93654875Y-87258150D01*
X93653429Y-87320192D01*
X93508322Y-87320192D01*
X93508826Y-87250413D01*
X93511096Y-87198159D01*
X93516068Y-87161949D01*
X93524713Y-87135299D01*
X93538005Y-87111722D01*
X93540943Y-87107338D01*
X93590313Y-87048249D01*
X93644109Y-87013947D01*
X93709602Y-87000331D01*
X93731842Y-86999665D01*
X93815115Y-87011962D01*
G36*
X93815115Y-87011962D02*
G01*
X93883145Y-87047733D01*
X93933351Y-87105301D01*
X93951185Y-87142312D01*
X93965063Y-87197882D01*
X93972167Y-87268096D01*
X93972840Y-87344727D01*
X93967427Y-87419552D01*
X93956270Y-87484342D01*
X93939714Y-87530873D01*
X93934626Y-87538887D01*
X93874355Y-87598707D01*
X93802769Y-87634535D01*
X93725092Y-87645020D01*
X93646548Y-87628810D01*
X93624689Y-87619092D01*
X93582122Y-87589143D01*
X93544763Y-87549433D01*
X93541232Y-87544397D01*
X93526881Y-87520124D01*
X93517394Y-87494178D01*
X93511790Y-87460022D01*
X93509086Y-87411119D01*
X93508299Y-87340935D01*
X93508286Y-87325200D01*
X93508322Y-87320192D01*
X93653429Y-87320192D01*
X93654273Y-87386430D01*
X93657596Y-87430386D01*
X93664583Y-87458779D01*
X93676416Y-87478325D01*
X93682457Y-87484857D01*
X93717186Y-87509680D01*
X93750903Y-87508548D01*
X93784995Y-87487016D01*
X93805329Y-87464029D01*
X93817371Y-87430478D01*
X93824134Y-87377569D01*
X93824598Y-87371399D01*
X93825752Y-87275513D01*
X93813688Y-87204299D01*
X93788570Y-87158194D01*
X93750560Y-87137635D01*
X93736992Y-87136514D01*
X93701364Y-87142152D01*
X93676994Y-87161686D01*
X93662093Y-87199042D01*
X93654875Y-87258150D01*
X93653429Y-87320192D01*
X93508322Y-87320192D01*
X93508826Y-87250413D01*
X93511096Y-87198159D01*
X93516068Y-87161949D01*
X93524713Y-87135299D01*
X93538005Y-87111722D01*
X93540943Y-87107338D01*
X93590313Y-87048249D01*
X93644109Y-87013947D01*
X93709602Y-87000331D01*
X93731842Y-86999665D01*
X93815115Y-87011962D01*
G37*
X94942303Y-87021239D02*
X94999527Y-87059735D01*
X95043749Y-87115335D01*
X95070167Y-87186086D01*
X95075510Y-87238162D01*
X95074903Y-87259893D01*
X95069822Y-87276531D01*
X95055855Y-87291437D01*
X95028589Y-87307973D01*
X94983612Y-87329498D01*
X94916511Y-87359374D01*
X94916171Y-87359524D01*
X94854407Y-87387813D01*
X94803759Y-87412933D01*
X94769404Y-87432179D01*
X94756518Y-87442848D01*
X94756514Y-87442934D01*
X94767872Y-87466166D01*
X94794431Y-87491774D01*
X94824923Y-87510221D01*
X94840370Y-87513886D01*
X94882515Y-87501212D01*
X94918808Y-87469471D01*
X94936517Y-87434572D01*
X94953552Y-87408845D01*
X94986922Y-87379546D01*
X95026149Y-87354235D01*
X95060756Y-87340471D01*
X95067993Y-87339714D01*
X95076139Y-87352160D01*
X95076630Y-87383972D01*
X95070643Y-87426866D01*
X95059357Y-87472558D01*
X95043950Y-87512761D01*
X95043171Y-87514322D01*
X94996804Y-87579062D01*
X94936711Y-87623097D01*
X94868465Y-87644711D01*
X94797638Y-87642185D01*
X94729804Y-87613804D01*
X94726788Y-87611808D01*
X94673427Y-87563448D01*
X94638340Y-87500352D01*
X94618922Y-87417387D01*
X94616316Y-87394078D01*
X94611701Y-87284055D01*
X94617233Y-87232748D01*
X94756514Y-87232748D01*
X94758324Y-87264753D01*
X94768222Y-87274093D01*
X94792898Y-87267105D01*
X94831795Y-87250587D01*
X94875275Y-87229881D01*
X94876356Y-87229333D01*
X94913209Y-87209949D01*
X94928000Y-87197013D01*
X94924353Y-87183451D01*
X94908995Y-87165632D01*
X94869923Y-87139845D01*
X94827846Y-87137950D01*
X94790103Y-87156717D01*
X94764034Y-87192915D01*
X94756514Y-87232748D01*
X94617233Y-87232748D01*
X94621194Y-87196027D01*
X94645550Y-87126212D01*
X94679456Y-87077302D01*
X94740653Y-87027878D01*
X94808063Y-87003359D01*
X94876880Y-87001797D01*
X94942303Y-87021239D01*
G36*
X94942303Y-87021239D02*
G01*
X94999527Y-87059735D01*
X95043749Y-87115335D01*
X95070167Y-87186086D01*
X95075510Y-87238162D01*
X95074903Y-87259893D01*
X95069822Y-87276531D01*
X95055855Y-87291437D01*
X95028589Y-87307973D01*
X94983612Y-87329498D01*
X94916511Y-87359374D01*
X94916171Y-87359524D01*
X94854407Y-87387813D01*
X94803759Y-87412933D01*
X94769404Y-87432179D01*
X94756518Y-87442848D01*
X94756514Y-87442934D01*
X94767872Y-87466166D01*
X94794431Y-87491774D01*
X94824923Y-87510221D01*
X94840370Y-87513886D01*
X94882515Y-87501212D01*
X94918808Y-87469471D01*
X94936517Y-87434572D01*
X94953552Y-87408845D01*
X94986922Y-87379546D01*
X95026149Y-87354235D01*
X95060756Y-87340471D01*
X95067993Y-87339714D01*
X95076139Y-87352160D01*
X95076630Y-87383972D01*
X95070643Y-87426866D01*
X95059357Y-87472558D01*
X95043950Y-87512761D01*
X95043171Y-87514322D01*
X94996804Y-87579062D01*
X94936711Y-87623097D01*
X94868465Y-87644711D01*
X94797638Y-87642185D01*
X94729804Y-87613804D01*
X94726788Y-87611808D01*
X94673427Y-87563448D01*
X94638340Y-87500352D01*
X94618922Y-87417387D01*
X94616316Y-87394078D01*
X94611701Y-87284055D01*
X94617233Y-87232748D01*
X94756514Y-87232748D01*
X94758324Y-87264753D01*
X94768222Y-87274093D01*
X94792898Y-87267105D01*
X94831795Y-87250587D01*
X94875275Y-87229881D01*
X94876356Y-87229333D01*
X94913209Y-87209949D01*
X94928000Y-87197013D01*
X94924353Y-87183451D01*
X94908995Y-87165632D01*
X94869923Y-87139845D01*
X94827846Y-87137950D01*
X94790103Y-87156717D01*
X94764034Y-87192915D01*
X94756514Y-87232748D01*
X94617233Y-87232748D01*
X94621194Y-87196027D01*
X94645550Y-87126212D01*
X94679456Y-87077302D01*
X94740653Y-87027878D01*
X94808063Y-87003359D01*
X94876880Y-87001797D01*
X94942303Y-87021239D01*
G37*
X96877910Y-82332348D02*
X96956454Y-82332778D01*
X97013298Y-82333942D01*
X97052105Y-82336207D01*
X97076538Y-82339940D01*
X97090262Y-82345506D01*
X97096940Y-82353273D01*
X97100236Y-82363605D01*
X97100556Y-82364943D01*
X97105562Y-82389079D01*
X97114829Y-82436701D01*
X97127392Y-82502741D01*
X97142287Y-82582128D01*
X97158551Y-82669796D01*
X97159119Y-82672875D01*
X97175410Y-82758789D01*
X97190652Y-82834696D01*
X97203861Y-82896045D01*
X97214054Y-82938282D01*
X97220248Y-82956855D01*
X97220543Y-82957184D01*
X97238788Y-82966253D01*
X97276405Y-82981367D01*
X97325271Y-82999262D01*
X97325543Y-82999358D01*
X97387093Y-83022493D01*
X97459657Y-83051965D01*
X97528057Y-83081597D01*
X97531294Y-83083062D01*
X97642702Y-83133626D01*
X97889399Y-82965160D01*
X97965077Y-82913803D01*
X98033631Y-82867889D01*
X98091088Y-82830030D01*
X98133476Y-82802837D01*
X98156825Y-82788921D01*
X98159042Y-82787889D01*
X98176010Y-82792484D01*
X98207701Y-82814655D01*
X98255352Y-82855447D01*
X98320198Y-82915905D01*
X98386397Y-82980227D01*
X98450214Y-83043612D01*
X98507329Y-83101451D01*
X98554305Y-83150175D01*
X98587703Y-83186210D01*
X98604085Y-83205984D01*
X98604694Y-83207002D01*
X98606505Y-83220572D01*
X98599683Y-83242733D01*
X98582540Y-83276478D01*
X98553393Y-83324800D01*
X98510555Y-83390692D01*
X98453448Y-83475517D01*
X98402766Y-83550177D01*
X98357461Y-83617140D01*
X98320150Y-83672516D01*
X98293452Y-83712420D01*
X98279985Y-83732962D01*
X98279137Y-83734356D01*
X98280781Y-83754038D01*
X98293245Y-83792293D01*
X98314048Y-83841889D01*
X98321462Y-83857728D01*
X98353814Y-83928290D01*
X98388328Y-84008353D01*
X98416365Y-84077629D01*
X98436568Y-84129045D01*
X98452615Y-84168119D01*
X98461888Y-84188541D01*
X98463041Y-84190114D01*
X98480096Y-84192721D01*
X98520298Y-84199863D01*
X98578302Y-84210523D01*
X98648763Y-84223685D01*
X98726335Y-84238333D01*
X98805672Y-84253449D01*
X98881431Y-84268018D01*
X98948264Y-84281022D01*
X99000828Y-84291445D01*
X99033776Y-84298270D01*
X99041857Y-84300199D01*
X99050205Y-84304962D01*
X99056506Y-84315718D01*
X99061045Y-84336098D01*
X99064104Y-84369734D01*
X99065967Y-84420255D01*
X99066918Y-84491292D01*
X99067240Y-84586476D01*
X99067257Y-84625492D01*
X99067257Y-84942799D01*
X98991057Y-84957839D01*
X98948663Y-84965995D01*
X98885400Y-84977899D01*
X98808962Y-84992116D01*
X98727043Y-85007210D01*
X98704400Y-85011355D01*
X98628806Y-85026053D01*
X98562953Y-85040505D01*
X98512366Y-85053375D01*
X98482574Y-85063322D01*
X98477612Y-85066287D01*
X98465426Y-85087283D01*
X98447953Y-85127967D01*
X98428577Y-85180322D01*
X98424734Y-85191600D01*
X98399339Y-85261523D01*
X98367817Y-85340418D01*
X98336969Y-85411266D01*
X98336817Y-85411595D01*
X98285447Y-85522733D01*
X98454399Y-85771253D01*
X98623352Y-86019772D01*
X98406429Y-86237058D01*
X98340819Y-86301726D01*
X98280979Y-86358733D01*
X98230267Y-86405033D01*
X98192046Y-86437584D01*
X98169675Y-86453343D01*
X98166466Y-86454343D01*
X98147626Y-86446469D01*
X98109180Y-86424578D01*
X98055330Y-86391267D01*
X97990276Y-86349131D01*
X97919940Y-86301943D01*
X97848555Y-86253810D01*
X97784908Y-86211928D01*
X97733041Y-86178871D01*
X97696995Y-86157218D01*
X97680867Y-86149543D01*
X97661189Y-86156037D01*
X97623875Y-86173150D01*
X97576621Y-86197326D01*
X97571612Y-86200013D01*
X97507977Y-86231927D01*
X97464341Y-86247579D01*
X97437202Y-86247745D01*
X97423057Y-86233204D01*
X97422975Y-86233000D01*
X97415905Y-86215779D01*
X97399042Y-86174899D01*
X97373695Y-86113525D01*
X97341171Y-86034819D01*
X97302778Y-85941947D01*
X97259822Y-85838072D01*
X97218222Y-85737502D01*
X97172504Y-85626516D01*
X97130526Y-85523703D01*
X97093548Y-85432215D01*
X97062827Y-85355201D01*
X97039622Y-85295815D01*
X97025190Y-85257209D01*
X97020743Y-85242800D01*
X97031896Y-85226272D01*
X97061069Y-85199930D01*
X97099971Y-85170887D01*
X97210757Y-85079039D01*
X97297351Y-84973759D01*
X97358716Y-84857266D01*
X97393815Y-84731776D01*
X97401608Y-84599507D01*
X97395943Y-84538457D01*
X97365078Y-84411795D01*
X97311920Y-84299941D01*
X97239767Y-84204001D01*
X97151917Y-84125076D01*
X97051665Y-84064270D01*
X96942310Y-84022687D01*
X96827147Y-84001428D01*
X96709475Y-84001599D01*
X96592590Y-84024301D01*
X96479789Y-84070638D01*
X96374369Y-84141713D01*
X96330368Y-84181911D01*
X96245979Y-84285129D01*
X96187222Y-84397925D01*
X96153704Y-84517010D01*
X96145035Y-84639095D01*
X96160823Y-84760893D01*
X96200678Y-84879116D01*
X96264207Y-84990475D01*
X96351021Y-85091684D01*
X96448029Y-85170887D01*
X96488437Y-85201162D01*
X96516982Y-85227219D01*
X96527257Y-85242825D01*
X96521877Y-85259843D01*
X96506575Y-85300500D01*
X96482612Y-85361642D01*
X96451244Y-85440119D01*
X96413732Y-85532780D01*
X96371333Y-85636472D01*
X96329663Y-85737526D01*
X96283690Y-85848607D01*
X96241107Y-85951541D01*
X96203221Y-86043165D01*
X96171340Y-86120316D01*
X96146771Y-86179831D01*
X96130820Y-86218544D01*
X96124910Y-86233000D01*
X96110948Y-86247685D01*
X96083940Y-86247642D01*
X96040413Y-86232099D01*
X95976890Y-86200284D01*
X95976388Y-86200013D01*
X95928560Y-86175323D01*
X95889897Y-86157338D01*
X95868095Y-86149614D01*
X95867133Y-86149543D01*
X95850721Y-86157378D01*
X95814487Y-86179165D01*
X95762474Y-86212328D01*
X95698725Y-86254291D01*
X95628060Y-86301943D01*
X95556116Y-86350191D01*
X95491274Y-86392151D01*
X95437735Y-86425227D01*
X95399697Y-86446821D01*
X95381533Y-86454343D01*
X95364808Y-86444457D01*
X95331180Y-86416826D01*
X95284010Y-86374495D01*
X95226658Y-86320505D01*
X95162484Y-86257899D01*
X95141497Y-86236983D01*
X94924499Y-86019623D01*
X95089668Y-85777220D01*
X95139864Y-85702781D01*
X95183919Y-85635972D01*
X95219362Y-85580665D01*
X95243719Y-85540729D01*
X95254522Y-85520036D01*
X95254838Y-85518563D01*
X95249143Y-85499058D01*
X95233826Y-85459822D01*
X95211537Y-85407430D01*
X95195893Y-85372355D01*
X95166641Y-85305201D01*
X95139094Y-85237358D01*
X95117737Y-85180034D01*
X95111935Y-85162572D01*
X95095452Y-85115938D01*
X95079340Y-85079905D01*
X95070490Y-85066287D01*
X95050960Y-85057952D01*
X95008334Y-85046137D01*
X94948145Y-85032181D01*
X94875922Y-85017422D01*
X94843600Y-85011355D01*
X94761522Y-84996273D01*
X94682795Y-84981669D01*
X94615109Y-84968980D01*
X94566160Y-84959642D01*
X94556943Y-84957839D01*
X94480743Y-84942799D01*
X94480743Y-84625492D01*
X94480914Y-84521154D01*
X94481616Y-84442213D01*
X94483134Y-84385038D01*
X94485749Y-84345999D01*
X94489746Y-84321465D01*
X94495409Y-84307805D01*
X94503020Y-84301389D01*
X94506143Y-84300199D01*
X94524978Y-84295980D01*
X94566588Y-84287562D01*
X94625630Y-84275961D01*
X94696757Y-84262195D01*
X94774625Y-84247280D01*
X94853887Y-84232232D01*
X94929198Y-84218069D01*
X94995213Y-84205806D01*
X95046587Y-84196461D01*
X95077975Y-84191050D01*
X95084959Y-84190114D01*
X95091285Y-84177596D01*
X95105290Y-84144246D01*
X95124355Y-84096377D01*
X95131634Y-84077629D01*
X95160996Y-84005195D01*
X95195571Y-83925170D01*
X95226537Y-83857728D01*
X95249323Y-83806159D01*
X95264482Y-83763785D01*
X95269542Y-83737834D01*
X95268736Y-83734356D01*
X95258041Y-83717936D01*
X95233620Y-83681417D01*
X95198095Y-83628687D01*
X95154087Y-83563635D01*
X95104217Y-83490151D01*
X95094356Y-83475645D01*
X95036492Y-83389704D01*
X94993956Y-83324261D01*
X94965054Y-83276304D01*
X94948090Y-83242820D01*
X94941367Y-83220795D01*
X94943190Y-83207217D01*
X94943236Y-83207131D01*
X94957586Y-83189297D01*
X94989323Y-83154817D01*
X95035010Y-83107268D01*
X95091204Y-83050222D01*
X95154468Y-82987255D01*
X95161602Y-82980227D01*
X95241330Y-82903020D01*
X95302857Y-82846330D01*
X95347421Y-82809110D01*
X95376257Y-82790315D01*
X95388958Y-82787889D01*
X95407494Y-82798471D01*
X95445961Y-82822916D01*
X95500386Y-82858612D01*
X95566798Y-82902947D01*
X95641225Y-82953311D01*
X95658601Y-82965160D01*
X95905297Y-83133626D01*
X96016706Y-83083062D01*
X96084457Y-83053595D01*
X96157183Y-83023959D01*
X96219703Y-83000330D01*
X96222457Y-82999358D01*
X96271360Y-82981457D01*
X96309057Y-82966320D01*
X96327425Y-82957210D01*
X96327456Y-82957184D01*
X96333285Y-82940717D01*
X96343192Y-82900219D01*
X96356195Y-82840242D01*
X96371309Y-82765340D01*
X96387552Y-82680064D01*
X96388881Y-82672875D01*
X96405175Y-82585014D01*
X96420133Y-82505260D01*
X96432791Y-82438681D01*
X96442186Y-82390347D01*
X96447354Y-82365325D01*
X96447444Y-82364943D01*
X96450589Y-82354299D01*
X96456704Y-82346262D01*
X96469453Y-82340467D01*
X96492500Y-82336547D01*
X96529509Y-82334135D01*
X96584144Y-82332865D01*
X96660067Y-82332371D01*
X96760944Y-82332286D01*
X96774000Y-82332286D01*
X96877910Y-82332348D01*
G36*
X96877910Y-82332348D02*
G01*
X96956454Y-82332778D01*
X97013298Y-82333942D01*
X97052105Y-82336207D01*
X97076538Y-82339940D01*
X97090262Y-82345506D01*
X97096940Y-82353273D01*
X97100236Y-82363605D01*
X97100556Y-82364943D01*
X97105562Y-82389079D01*
X97114829Y-82436701D01*
X97127392Y-82502741D01*
X97142287Y-82582128D01*
X97158551Y-82669796D01*
X97159119Y-82672875D01*
X97175410Y-82758789D01*
X97190652Y-82834696D01*
X97203861Y-82896045D01*
X97214054Y-82938282D01*
X97220248Y-82956855D01*
X97220543Y-82957184D01*
X97238788Y-82966253D01*
X97276405Y-82981367D01*
X97325271Y-82999262D01*
X97325543Y-82999358D01*
X97387093Y-83022493D01*
X97459657Y-83051965D01*
X97528057Y-83081597D01*
X97531294Y-83083062D01*
X97642702Y-83133626D01*
X97889399Y-82965160D01*
X97965077Y-82913803D01*
X98033631Y-82867889D01*
X98091088Y-82830030D01*
X98133476Y-82802837D01*
X98156825Y-82788921D01*
X98159042Y-82787889D01*
X98176010Y-82792484D01*
X98207701Y-82814655D01*
X98255352Y-82855447D01*
X98320198Y-82915905D01*
X98386397Y-82980227D01*
X98450214Y-83043612D01*
X98507329Y-83101451D01*
X98554305Y-83150175D01*
X98587703Y-83186210D01*
X98604085Y-83205984D01*
X98604694Y-83207002D01*
X98606505Y-83220572D01*
X98599683Y-83242733D01*
X98582540Y-83276478D01*
X98553393Y-83324800D01*
X98510555Y-83390692D01*
X98453448Y-83475517D01*
X98402766Y-83550177D01*
X98357461Y-83617140D01*
X98320150Y-83672516D01*
X98293452Y-83712420D01*
X98279985Y-83732962D01*
X98279137Y-83734356D01*
X98280781Y-83754038D01*
X98293245Y-83792293D01*
X98314048Y-83841889D01*
X98321462Y-83857728D01*
X98353814Y-83928290D01*
X98388328Y-84008353D01*
X98416365Y-84077629D01*
X98436568Y-84129045D01*
X98452615Y-84168119D01*
X98461888Y-84188541D01*
X98463041Y-84190114D01*
X98480096Y-84192721D01*
X98520298Y-84199863D01*
X98578302Y-84210523D01*
X98648763Y-84223685D01*
X98726335Y-84238333D01*
X98805672Y-84253449D01*
X98881431Y-84268018D01*
X98948264Y-84281022D01*
X99000828Y-84291445D01*
X99033776Y-84298270D01*
X99041857Y-84300199D01*
X99050205Y-84304962D01*
X99056506Y-84315718D01*
X99061045Y-84336098D01*
X99064104Y-84369734D01*
X99065967Y-84420255D01*
X99066918Y-84491292D01*
X99067240Y-84586476D01*
X99067257Y-84625492D01*
X99067257Y-84942799D01*
X98991057Y-84957839D01*
X98948663Y-84965995D01*
X98885400Y-84977899D01*
X98808962Y-84992116D01*
X98727043Y-85007210D01*
X98704400Y-85011355D01*
X98628806Y-85026053D01*
X98562953Y-85040505D01*
X98512366Y-85053375D01*
X98482574Y-85063322D01*
X98477612Y-85066287D01*
X98465426Y-85087283D01*
X98447953Y-85127967D01*
X98428577Y-85180322D01*
X98424734Y-85191600D01*
X98399339Y-85261523D01*
X98367817Y-85340418D01*
X98336969Y-85411266D01*
X98336817Y-85411595D01*
X98285447Y-85522733D01*
X98454399Y-85771253D01*
X98623352Y-86019772D01*
X98406429Y-86237058D01*
X98340819Y-86301726D01*
X98280979Y-86358733D01*
X98230267Y-86405033D01*
X98192046Y-86437584D01*
X98169675Y-86453343D01*
X98166466Y-86454343D01*
X98147626Y-86446469D01*
X98109180Y-86424578D01*
X98055330Y-86391267D01*
X97990276Y-86349131D01*
X97919940Y-86301943D01*
X97848555Y-86253810D01*
X97784908Y-86211928D01*
X97733041Y-86178871D01*
X97696995Y-86157218D01*
X97680867Y-86149543D01*
X97661189Y-86156037D01*
X97623875Y-86173150D01*
X97576621Y-86197326D01*
X97571612Y-86200013D01*
X97507977Y-86231927D01*
X97464341Y-86247579D01*
X97437202Y-86247745D01*
X97423057Y-86233204D01*
X97422975Y-86233000D01*
X97415905Y-86215779D01*
X97399042Y-86174899D01*
X97373695Y-86113525D01*
X97341171Y-86034819D01*
X97302778Y-85941947D01*
X97259822Y-85838072D01*
X97218222Y-85737502D01*
X97172504Y-85626516D01*
X97130526Y-85523703D01*
X97093548Y-85432215D01*
X97062827Y-85355201D01*
X97039622Y-85295815D01*
X97025190Y-85257209D01*
X97020743Y-85242800D01*
X97031896Y-85226272D01*
X97061069Y-85199930D01*
X97099971Y-85170887D01*
X97210757Y-85079039D01*
X97297351Y-84973759D01*
X97358716Y-84857266D01*
X97393815Y-84731776D01*
X97401608Y-84599507D01*
X97395943Y-84538457D01*
X97365078Y-84411795D01*
X97311920Y-84299941D01*
X97239767Y-84204001D01*
X97151917Y-84125076D01*
X97051665Y-84064270D01*
X96942310Y-84022687D01*
X96827147Y-84001428D01*
X96709475Y-84001599D01*
X96592590Y-84024301D01*
X96479789Y-84070638D01*
X96374369Y-84141713D01*
X96330368Y-84181911D01*
X96245979Y-84285129D01*
X96187222Y-84397925D01*
X96153704Y-84517010D01*
X96145035Y-84639095D01*
X96160823Y-84760893D01*
X96200678Y-84879116D01*
X96264207Y-84990475D01*
X96351021Y-85091684D01*
X96448029Y-85170887D01*
X96488437Y-85201162D01*
X96516982Y-85227219D01*
X96527257Y-85242825D01*
X96521877Y-85259843D01*
X96506575Y-85300500D01*
X96482612Y-85361642D01*
X96451244Y-85440119D01*
X96413732Y-85532780D01*
X96371333Y-85636472D01*
X96329663Y-85737526D01*
X96283690Y-85848607D01*
X96241107Y-85951541D01*
X96203221Y-86043165D01*
X96171340Y-86120316D01*
X96146771Y-86179831D01*
X96130820Y-86218544D01*
X96124910Y-86233000D01*
X96110948Y-86247685D01*
X96083940Y-86247642D01*
X96040413Y-86232099D01*
X95976890Y-86200284D01*
X95976388Y-86200013D01*
X95928560Y-86175323D01*
X95889897Y-86157338D01*
X95868095Y-86149614D01*
X95867133Y-86149543D01*
X95850721Y-86157378D01*
X95814487Y-86179165D01*
X95762474Y-86212328D01*
X95698725Y-86254291D01*
X95628060Y-86301943D01*
X95556116Y-86350191D01*
X95491274Y-86392151D01*
X95437735Y-86425227D01*
X95399697Y-86446821D01*
X95381533Y-86454343D01*
X95364808Y-86444457D01*
X95331180Y-86416826D01*
X95284010Y-86374495D01*
X95226658Y-86320505D01*
X95162484Y-86257899D01*
X95141497Y-86236983D01*
X94924499Y-86019623D01*
X95089668Y-85777220D01*
X95139864Y-85702781D01*
X95183919Y-85635972D01*
X95219362Y-85580665D01*
X95243719Y-85540729D01*
X95254522Y-85520036D01*
X95254838Y-85518563D01*
X95249143Y-85499058D01*
X95233826Y-85459822D01*
X95211537Y-85407430D01*
X95195893Y-85372355D01*
X95166641Y-85305201D01*
X95139094Y-85237358D01*
X95117737Y-85180034D01*
X95111935Y-85162572D01*
X95095452Y-85115938D01*
X95079340Y-85079905D01*
X95070490Y-85066287D01*
X95050960Y-85057952D01*
X95008334Y-85046137D01*
X94948145Y-85032181D01*
X94875922Y-85017422D01*
X94843600Y-85011355D01*
X94761522Y-84996273D01*
X94682795Y-84981669D01*
X94615109Y-84968980D01*
X94566160Y-84959642D01*
X94556943Y-84957839D01*
X94480743Y-84942799D01*
X94480743Y-84625492D01*
X94480914Y-84521154D01*
X94481616Y-84442213D01*
X94483134Y-84385038D01*
X94485749Y-84345999D01*
X94489746Y-84321465D01*
X94495409Y-84307805D01*
X94503020Y-84301389D01*
X94506143Y-84300199D01*
X94524978Y-84295980D01*
X94566588Y-84287562D01*
X94625630Y-84275961D01*
X94696757Y-84262195D01*
X94774625Y-84247280D01*
X94853887Y-84232232D01*
X94929198Y-84218069D01*
X94995213Y-84205806D01*
X95046587Y-84196461D01*
X95077975Y-84191050D01*
X95084959Y-84190114D01*
X95091285Y-84177596D01*
X95105290Y-84144246D01*
X95124355Y-84096377D01*
X95131634Y-84077629D01*
X95160996Y-84005195D01*
X95195571Y-83925170D01*
X95226537Y-83857728D01*
X95249323Y-83806159D01*
X95264482Y-83763785D01*
X95269542Y-83737834D01*
X95268736Y-83734356D01*
X95258041Y-83717936D01*
X95233620Y-83681417D01*
X95198095Y-83628687D01*
X95154087Y-83563635D01*
X95104217Y-83490151D01*
X95094356Y-83475645D01*
X95036492Y-83389704D01*
X94993956Y-83324261D01*
X94965054Y-83276304D01*
X94948090Y-83242820D01*
X94941367Y-83220795D01*
X94943190Y-83207217D01*
X94943236Y-83207131D01*
X94957586Y-83189297D01*
X94989323Y-83154817D01*
X95035010Y-83107268D01*
X95091204Y-83050222D01*
X95154468Y-82987255D01*
X95161602Y-82980227D01*
X95241330Y-82903020D01*
X95302857Y-82846330D01*
X95347421Y-82809110D01*
X95376257Y-82790315D01*
X95388958Y-82787889D01*
X95407494Y-82798471D01*
X95445961Y-82822916D01*
X95500386Y-82858612D01*
X95566798Y-82902947D01*
X95641225Y-82953311D01*
X95658601Y-82965160D01*
X95905297Y-83133626D01*
X96016706Y-83083062D01*
X96084457Y-83053595D01*
X96157183Y-83023959D01*
X96219703Y-83000330D01*
X96222457Y-82999358D01*
X96271360Y-82981457D01*
X96309057Y-82966320D01*
X96327425Y-82957210D01*
X96327456Y-82957184D01*
X96333285Y-82940717D01*
X96343192Y-82900219D01*
X96356195Y-82840242D01*
X96371309Y-82765340D01*
X96387552Y-82680064D01*
X96388881Y-82672875D01*
X96405175Y-82585014D01*
X96420133Y-82505260D01*
X96432791Y-82438681D01*
X96442186Y-82390347D01*
X96447354Y-82365325D01*
X96447444Y-82364943D01*
X96450589Y-82354299D01*
X96456704Y-82346262D01*
X96469453Y-82340467D01*
X96492500Y-82336547D01*
X96529509Y-82334135D01*
X96584144Y-82332865D01*
X96660067Y-82332371D01*
X96760944Y-82332286D01*
X96774000Y-82332286D01*
X96877910Y-82332348D01*
G37*
X98553833Y-87048663D02*
X98556048Y-87086850D01*
X98557784Y-87144886D01*
X98558899Y-87218180D01*
X98559257Y-87295055D01*
X98559257Y-87555196D01*
X98513326Y-87601127D01*
X98481675Y-87629429D01*
X98453890Y-87640893D01*
X98415915Y-87640168D01*
X98400840Y-87638321D01*
X98353726Y-87632948D01*
X98314756Y-87629869D01*
X98305257Y-87629585D01*
X98273233Y-87631445D01*
X98227432Y-87636114D01*
X98209674Y-87638321D01*
X98166057Y-87641735D01*
X98136745Y-87634320D01*
X98107680Y-87611427D01*
X98097188Y-87601127D01*
X98051257Y-87555196D01*
X98051257Y-87068602D01*
X98088226Y-87051758D01*
X98120059Y-87039282D01*
X98138683Y-87034914D01*
X98143458Y-87048718D01*
X98147921Y-87087286D01*
X98151775Y-87146356D01*
X98154722Y-87221663D01*
X98156143Y-87285286D01*
X98160114Y-87535657D01*
X98194759Y-87540556D01*
X98226268Y-87537131D01*
X98241708Y-87526041D01*
X98246023Y-87505308D01*
X98249708Y-87461145D01*
X98252469Y-87399146D01*
X98254012Y-87324909D01*
X98254235Y-87286706D01*
X98254457Y-87066783D01*
X98300166Y-87050849D01*
X98332518Y-87040015D01*
X98350115Y-87034962D01*
X98350623Y-87034914D01*
X98352388Y-87048648D01*
X98354329Y-87086730D01*
X98356282Y-87144482D01*
X98358084Y-87217227D01*
X98359343Y-87285286D01*
X98363314Y-87535657D01*
X98450400Y-87535657D01*
X98454396Y-87307240D01*
X98458392Y-87078822D01*
X98500847Y-87056868D01*
X98532192Y-87041793D01*
X98550744Y-87034951D01*
X98551279Y-87034914D01*
X98553833Y-87048663D01*
G36*
X98553833Y-87048663D02*
G01*
X98556048Y-87086850D01*
X98557784Y-87144886D01*
X98558899Y-87218180D01*
X98559257Y-87295055D01*
X98559257Y-87555196D01*
X98513326Y-87601127D01*
X98481675Y-87629429D01*
X98453890Y-87640893D01*
X98415915Y-87640168D01*
X98400840Y-87638321D01*
X98353726Y-87632948D01*
X98314756Y-87629869D01*
X98305257Y-87629585D01*
X98273233Y-87631445D01*
X98227432Y-87636114D01*
X98209674Y-87638321D01*
X98166057Y-87641735D01*
X98136745Y-87634320D01*
X98107680Y-87611427D01*
X98097188Y-87601127D01*
X98051257Y-87555196D01*
X98051257Y-87068602D01*
X98088226Y-87051758D01*
X98120059Y-87039282D01*
X98138683Y-87034914D01*
X98143458Y-87048718D01*
X98147921Y-87087286D01*
X98151775Y-87146356D01*
X98154722Y-87221663D01*
X98156143Y-87285286D01*
X98160114Y-87535657D01*
X98194759Y-87540556D01*
X98226268Y-87537131D01*
X98241708Y-87526041D01*
X98246023Y-87505308D01*
X98249708Y-87461145D01*
X98252469Y-87399146D01*
X98254012Y-87324909D01*
X98254235Y-87286706D01*
X98254457Y-87066783D01*
X98300166Y-87050849D01*
X98332518Y-87040015D01*
X98350115Y-87034962D01*
X98350623Y-87034914D01*
X98352388Y-87048648D01*
X98354329Y-87086730D01*
X98356282Y-87144482D01*
X98358084Y-87217227D01*
X98359343Y-87285286D01*
X98363314Y-87535657D01*
X98450400Y-87535657D01*
X98454396Y-87307240D01*
X98458392Y-87078822D01*
X98500847Y-87056868D01*
X98532192Y-87041793D01*
X98550744Y-87034951D01*
X98551279Y-87034914D01*
X98553833Y-87048663D01*
G37*
X96149886Y-86941289D02*
X96154139Y-87000613D01*
X96159025Y-87035572D01*
X96165795Y-87050820D01*
X96175702Y-87051015D01*
X96178914Y-87049195D01*
X96221644Y-87036015D01*
X96277227Y-87036785D01*
X96333737Y-87050333D01*
X96369082Y-87067861D01*
X96405321Y-87095861D01*
X96431813Y-87127549D01*
X96449999Y-87167813D01*
X96461322Y-87221543D01*
X96467222Y-87293626D01*
X96469143Y-87388951D01*
X96469177Y-87407237D01*
X96469200Y-87612646D01*
X96423491Y-87628580D01*
X96391027Y-87639420D01*
X96373215Y-87644468D01*
X96372691Y-87644514D01*
X96370937Y-87630828D01*
X96369444Y-87593076D01*
X96368326Y-87536224D01*
X96367697Y-87465234D01*
X96367600Y-87422073D01*
X96367398Y-87336973D01*
X96366358Y-87275981D01*
X96363831Y-87234177D01*
X96359164Y-87206642D01*
X96351707Y-87188456D01*
X96340811Y-87174698D01*
X96334007Y-87168073D01*
X96287272Y-87141375D01*
X96236272Y-87139375D01*
X96190001Y-87161955D01*
X96181444Y-87170107D01*
X96168893Y-87185436D01*
X96160188Y-87203618D01*
X96154631Y-87229909D01*
X96151526Y-87269562D01*
X96150176Y-87327832D01*
X96149886Y-87408173D01*
X96149886Y-87612646D01*
X96104177Y-87628580D01*
X96071713Y-87639420D01*
X96053901Y-87644468D01*
X96053377Y-87644514D01*
X96052037Y-87630623D01*
X96050828Y-87591439D01*
X96049801Y-87530700D01*
X96049002Y-87452141D01*
X96048481Y-87359498D01*
X96048286Y-87256509D01*
X96048286Y-86859342D01*
X96095457Y-86839444D01*
X96142629Y-86819547D01*
X96149886Y-86941289D01*
G36*
X96149886Y-86941289D02*
G01*
X96154139Y-87000613D01*
X96159025Y-87035572D01*
X96165795Y-87050820D01*
X96175702Y-87051015D01*
X96178914Y-87049195D01*
X96221644Y-87036015D01*
X96277227Y-87036785D01*
X96333737Y-87050333D01*
X96369082Y-87067861D01*
X96405321Y-87095861D01*
X96431813Y-87127549D01*
X96449999Y-87167813D01*
X96461322Y-87221543D01*
X96467222Y-87293626D01*
X96469143Y-87388951D01*
X96469177Y-87407237D01*
X96469200Y-87612646D01*
X96423491Y-87628580D01*
X96391027Y-87639420D01*
X96373215Y-87644468D01*
X96372691Y-87644514D01*
X96370937Y-87630828D01*
X96369444Y-87593076D01*
X96368326Y-87536224D01*
X96367697Y-87465234D01*
X96367600Y-87422073D01*
X96367398Y-87336973D01*
X96366358Y-87275981D01*
X96363831Y-87234177D01*
X96359164Y-87206642D01*
X96351707Y-87188456D01*
X96340811Y-87174698D01*
X96334007Y-87168073D01*
X96287272Y-87141375D01*
X96236272Y-87139375D01*
X96190001Y-87161955D01*
X96181444Y-87170107D01*
X96168893Y-87185436D01*
X96160188Y-87203618D01*
X96154631Y-87229909D01*
X96151526Y-87269562D01*
X96150176Y-87327832D01*
X96149886Y-87408173D01*
X96149886Y-87612646D01*
X96104177Y-87628580D01*
X96071713Y-87639420D01*
X96053901Y-87644468D01*
X96053377Y-87644514D01*
X96052037Y-87630623D01*
X96050828Y-87591439D01*
X96049801Y-87530700D01*
X96049002Y-87452141D01*
X96048481Y-87359498D01*
X96048286Y-87256509D01*
X96048286Y-86859342D01*
X96095457Y-86839444D01*
X96142629Y-86819547D01*
X96149886Y-86941289D01*
G37*
X97964117Y-87155358D02*
X97963933Y-87263837D01*
X97963219Y-87347287D01*
X97961675Y-87409704D01*
X97959001Y-87455085D01*
X97954894Y-87487429D01*
X97949055Y-87510733D01*
X97941182Y-87528995D01*
X97935221Y-87539418D01*
X97885855Y-87595945D01*
X97823264Y-87631377D01*
X97754013Y-87644090D01*
X97684668Y-87632463D01*
X97643375Y-87611568D01*
X97600025Y-87575422D01*
X97570481Y-87531276D01*
X97552655Y-87473462D01*
X97544463Y-87396313D01*
X97543302Y-87339714D01*
X97543458Y-87335647D01*
X97644857Y-87335647D01*
X97645476Y-87400550D01*
X97648314Y-87443514D01*
X97654840Y-87471622D01*
X97666523Y-87491953D01*
X97680483Y-87507288D01*
X97727365Y-87536890D01*
X97777701Y-87539419D01*
X97825276Y-87514705D01*
X97828979Y-87511356D01*
X97844783Y-87493935D01*
X97854693Y-87473209D01*
X97860058Y-87442362D01*
X97862228Y-87394577D01*
X97862571Y-87341748D01*
X97861827Y-87275381D01*
X97858748Y-87231106D01*
X97852061Y-87202009D01*
X97840496Y-87181173D01*
X97831013Y-87170107D01*
X97786960Y-87142198D01*
X97736224Y-87138843D01*
X97687796Y-87160159D01*
X97678450Y-87168073D01*
X97662540Y-87185647D01*
X97652610Y-87206587D01*
X97647278Y-87237782D01*
X97645163Y-87286122D01*
X97644857Y-87335647D01*
X97543458Y-87335647D01*
X97546810Y-87248568D01*
X97558726Y-87180086D01*
X97581135Y-87128600D01*
X97616124Y-87088443D01*
X97643375Y-87067861D01*
X97692907Y-87045625D01*
X97750316Y-87035304D01*
X97803682Y-87038067D01*
X97833543Y-87049212D01*
X97845261Y-87052383D01*
X97853037Y-87040557D01*
X97858465Y-87008866D01*
X97862571Y-86960593D01*
X97867067Y-86906829D01*
X97873313Y-86874482D01*
X97884676Y-86855985D01*
X97904528Y-86843770D01*
X97917000Y-86838362D01*
X97964171Y-86818601D01*
X97964117Y-87155358D01*
G36*
X97964117Y-87155358D02*
G01*
X97963933Y-87263837D01*
X97963219Y-87347287D01*
X97961675Y-87409704D01*
X97959001Y-87455085D01*
X97954894Y-87487429D01*
X97949055Y-87510733D01*
X97941182Y-87528995D01*
X97935221Y-87539418D01*
X97885855Y-87595945D01*
X97823264Y-87631377D01*
X97754013Y-87644090D01*
X97684668Y-87632463D01*
X97643375Y-87611568D01*
X97600025Y-87575422D01*
X97570481Y-87531276D01*
X97552655Y-87473462D01*
X97544463Y-87396313D01*
X97543302Y-87339714D01*
X97543458Y-87335647D01*
X97644857Y-87335647D01*
X97645476Y-87400550D01*
X97648314Y-87443514D01*
X97654840Y-87471622D01*
X97666523Y-87491953D01*
X97680483Y-87507288D01*
X97727365Y-87536890D01*
X97777701Y-87539419D01*
X97825276Y-87514705D01*
X97828979Y-87511356D01*
X97844783Y-87493935D01*
X97854693Y-87473209D01*
X97860058Y-87442362D01*
X97862228Y-87394577D01*
X97862571Y-87341748D01*
X97861827Y-87275381D01*
X97858748Y-87231106D01*
X97852061Y-87202009D01*
X97840496Y-87181173D01*
X97831013Y-87170107D01*
X97786960Y-87142198D01*
X97736224Y-87138843D01*
X97687796Y-87160159D01*
X97678450Y-87168073D01*
X97662540Y-87185647D01*
X97652610Y-87206587D01*
X97647278Y-87237782D01*
X97645163Y-87286122D01*
X97644857Y-87335647D01*
X97543458Y-87335647D01*
X97546810Y-87248568D01*
X97558726Y-87180086D01*
X97581135Y-87128600D01*
X97616124Y-87088443D01*
X97643375Y-87067861D01*
X97692907Y-87045625D01*
X97750316Y-87035304D01*
X97803682Y-87038067D01*
X97833543Y-87049212D01*
X97845261Y-87052383D01*
X97853037Y-87040557D01*
X97858465Y-87008866D01*
X97862571Y-86960593D01*
X97867067Y-86906829D01*
X97873313Y-86874482D01*
X97884676Y-86855985D01*
X97904528Y-86843770D01*
X97917000Y-86838362D01*
X97964171Y-86818601D01*
X97964117Y-87155358D01*
G37*
X94373744Y-87009918D02*
X94429201Y-87037568D01*
X94478148Y-87088480D01*
X94491629Y-87107338D01*
X94506314Y-87132015D01*
X94515842Y-87158816D01*
X94521293Y-87194587D01*
X94523747Y-87246169D01*
X94524286Y-87314267D01*
X94521852Y-87407588D01*
X94513394Y-87477657D01*
X94497174Y-87529931D01*
X94471454Y-87569869D01*
X94434497Y-87602929D01*
X94431782Y-87604886D01*
X94395360Y-87624908D01*
X94351502Y-87634815D01*
X94295724Y-87637257D01*
X94205048Y-87637257D01*
X94205010Y-87725283D01*
X94204166Y-87774308D01*
X94199024Y-87803065D01*
X94185587Y-87820311D01*
X94159858Y-87834808D01*
X94153679Y-87837769D01*
X94124764Y-87851648D01*
X94102376Y-87860414D01*
X94085729Y-87861171D01*
X94074036Y-87851023D01*
X94066510Y-87827073D01*
X94062366Y-87786426D01*
X94060815Y-87726186D01*
X94061071Y-87643455D01*
X94062349Y-87535339D01*
X94062748Y-87503000D01*
X94064185Y-87391524D01*
X94065472Y-87318603D01*
X94204971Y-87318603D01*
X94205755Y-87380499D01*
X94209240Y-87420997D01*
X94217124Y-87447708D01*
X94231105Y-87468244D01*
X94240597Y-87478260D01*
X94279404Y-87507567D01*
X94313763Y-87509952D01*
X94349216Y-87485750D01*
X94350114Y-87484857D01*
X94364539Y-87466153D01*
X94373313Y-87440732D01*
X94377739Y-87401584D01*
X94379118Y-87341697D01*
X94379143Y-87328430D01*
X94375812Y-87245901D01*
X94364969Y-87188691D01*
X94345340Y-87153766D01*
X94315650Y-87138094D01*
X94298491Y-87136514D01*
X94257766Y-87143926D01*
X94229832Y-87168330D01*
X94213017Y-87212980D01*
X94205650Y-87281130D01*
X94204971Y-87318603D01*
X94065472Y-87318603D01*
X94065708Y-87305245D01*
X94067677Y-87240333D01*
X94070450Y-87192958D01*
X94074388Y-87159290D01*
X94079849Y-87135498D01*
X94087192Y-87117753D01*
X94096777Y-87102224D01*
X94100887Y-87096381D01*
X94155405Y-87041185D01*
X94224336Y-87009890D01*
X94304072Y-87001165D01*
X94373744Y-87009918D01*
G36*
X94373744Y-87009918D02*
G01*
X94429201Y-87037568D01*
X94478148Y-87088480D01*
X94491629Y-87107338D01*
X94506314Y-87132015D01*
X94515842Y-87158816D01*
X94521293Y-87194587D01*
X94523747Y-87246169D01*
X94524286Y-87314267D01*
X94521852Y-87407588D01*
X94513394Y-87477657D01*
X94497174Y-87529931D01*
X94471454Y-87569869D01*
X94434497Y-87602929D01*
X94431782Y-87604886D01*
X94395360Y-87624908D01*
X94351502Y-87634815D01*
X94295724Y-87637257D01*
X94205048Y-87637257D01*
X94205010Y-87725283D01*
X94204166Y-87774308D01*
X94199024Y-87803065D01*
X94185587Y-87820311D01*
X94159858Y-87834808D01*
X94153679Y-87837769D01*
X94124764Y-87851648D01*
X94102376Y-87860414D01*
X94085729Y-87861171D01*
X94074036Y-87851023D01*
X94066510Y-87827073D01*
X94062366Y-87786426D01*
X94060815Y-87726186D01*
X94061071Y-87643455D01*
X94062349Y-87535339D01*
X94062748Y-87503000D01*
X94064185Y-87391524D01*
X94065472Y-87318603D01*
X94204971Y-87318603D01*
X94205755Y-87380499D01*
X94209240Y-87420997D01*
X94217124Y-87447708D01*
X94231105Y-87468244D01*
X94240597Y-87478260D01*
X94279404Y-87507567D01*
X94313763Y-87509952D01*
X94349216Y-87485750D01*
X94350114Y-87484857D01*
X94364539Y-87466153D01*
X94373313Y-87440732D01*
X94377739Y-87401584D01*
X94379118Y-87341697D01*
X94379143Y-87328430D01*
X94375812Y-87245901D01*
X94364969Y-87188691D01*
X94345340Y-87153766D01*
X94315650Y-87138094D01*
X94298491Y-87136514D01*
X94257766Y-87143926D01*
X94229832Y-87168330D01*
X94213017Y-87212980D01*
X94205650Y-87281130D01*
X94204971Y-87318603D01*
X94065472Y-87318603D01*
X94065708Y-87305245D01*
X94067677Y-87240333D01*
X94070450Y-87192958D01*
X94074388Y-87159290D01*
X94079849Y-87135498D01*
X94087192Y-87117753D01*
X94096777Y-87102224D01*
X94100887Y-87096381D01*
X94155405Y-87041185D01*
X94224336Y-87009890D01*
X94304072Y-87001165D01*
X94373744Y-87009918D01*
G37*
X99927595Y-87056966D02*
X99985021Y-87094497D01*
X100012719Y-87128096D01*
X100034662Y-87189064D01*
X100036405Y-87237308D01*
X100032457Y-87301816D01*
X99883686Y-87366934D01*
X99811349Y-87400202D01*
X99764084Y-87426964D01*
X99739507Y-87450144D01*
X99735237Y-87472667D01*
X99748889Y-87497455D01*
X99763943Y-87513886D01*
X99807746Y-87540235D01*
X99855389Y-87542081D01*
X99899145Y-87521546D01*
X99931289Y-87480752D01*
X99937038Y-87466347D01*
X99964576Y-87421356D01*
X99996258Y-87402182D01*
X100039714Y-87385779D01*
X100039714Y-87447966D01*
X100035872Y-87490283D01*
X100020823Y-87525969D01*
X99989280Y-87566943D01*
X99984592Y-87572267D01*
X99949506Y-87608720D01*
X99919347Y-87628283D01*
X99881615Y-87637283D01*
X99850335Y-87640230D01*
X99794385Y-87640965D01*
X99754555Y-87631660D01*
X99729708Y-87617846D01*
X99690656Y-87587467D01*
X99663625Y-87554613D01*
X99646517Y-87513294D01*
X99637238Y-87457521D01*
X99633693Y-87381305D01*
X99633410Y-87342622D01*
X99634372Y-87296247D01*
X99722007Y-87296247D01*
X99723023Y-87321126D01*
X99725556Y-87325200D01*
X99742274Y-87319665D01*
X99778249Y-87305017D01*
X99826331Y-87284190D01*
X99836386Y-87279714D01*
X99897152Y-87248814D01*
X99930632Y-87221657D01*
X99937990Y-87196220D01*
X99920391Y-87170481D01*
X99905856Y-87159109D01*
X99853410Y-87136364D01*
X99804322Y-87140122D01*
X99763227Y-87167884D01*
X99734758Y-87217152D01*
X99725631Y-87256257D01*
X99722007Y-87296247D01*
X99634372Y-87296247D01*
X99635285Y-87252249D01*
X99642196Y-87185384D01*
X99655884Y-87136695D01*
X99678096Y-87100849D01*
X99710574Y-87072513D01*
X99724733Y-87063355D01*
X99789053Y-87039507D01*
X99859473Y-87038006D01*
X99927595Y-87056966D01*
G36*
X99927595Y-87056966D02*
G01*
X99985021Y-87094497D01*
X100012719Y-87128096D01*
X100034662Y-87189064D01*
X100036405Y-87237308D01*
X100032457Y-87301816D01*
X99883686Y-87366934D01*
X99811349Y-87400202D01*
X99764084Y-87426964D01*
X99739507Y-87450144D01*
X99735237Y-87472667D01*
X99748889Y-87497455D01*
X99763943Y-87513886D01*
X99807746Y-87540235D01*
X99855389Y-87542081D01*
X99899145Y-87521546D01*
X99931289Y-87480752D01*
X99937038Y-87466347D01*
X99964576Y-87421356D01*
X99996258Y-87402182D01*
X100039714Y-87385779D01*
X100039714Y-87447966D01*
X100035872Y-87490283D01*
X100020823Y-87525969D01*
X99989280Y-87566943D01*
X99984592Y-87572267D01*
X99949506Y-87608720D01*
X99919347Y-87628283D01*
X99881615Y-87637283D01*
X99850335Y-87640230D01*
X99794385Y-87640965D01*
X99754555Y-87631660D01*
X99729708Y-87617846D01*
X99690656Y-87587467D01*
X99663625Y-87554613D01*
X99646517Y-87513294D01*
X99637238Y-87457521D01*
X99633693Y-87381305D01*
X99633410Y-87342622D01*
X99634372Y-87296247D01*
X99722007Y-87296247D01*
X99723023Y-87321126D01*
X99725556Y-87325200D01*
X99742274Y-87319665D01*
X99778249Y-87305017D01*
X99826331Y-87284190D01*
X99836386Y-87279714D01*
X99897152Y-87248814D01*
X99930632Y-87221657D01*
X99937990Y-87196220D01*
X99920391Y-87170481D01*
X99905856Y-87159109D01*
X99853410Y-87136364D01*
X99804322Y-87140122D01*
X99763227Y-87167884D01*
X99734758Y-87217152D01*
X99725631Y-87256257D01*
X99722007Y-87296247D01*
X99634372Y-87296247D01*
X99635285Y-87252249D01*
X99642196Y-87185384D01*
X99655884Y-87136695D01*
X99678096Y-87100849D01*
X99710574Y-87072513D01*
X99724733Y-87063355D01*
X99789053Y-87039507D01*
X99859473Y-87038006D01*
X99927595Y-87056966D01*
G37*
X96813744Y-87040968D02*
X96870616Y-87062087D01*
X96871267Y-87062493D01*
X96906440Y-87088380D01*
X96932407Y-87118633D01*
X96950670Y-87158058D01*
X96962732Y-87211462D01*
X96970096Y-87283651D01*
X96974264Y-87379432D01*
X96974629Y-87393078D01*
X96979876Y-87598842D01*
X96935716Y-87621678D01*
X96903763Y-87637110D01*
X96884470Y-87644423D01*
X96883578Y-87644514D01*
X96880239Y-87631022D01*
X96877587Y-87594626D01*
X96875956Y-87541452D01*
X96875600Y-87498393D01*
X96875592Y-87428641D01*
X96872403Y-87384837D01*
X96861288Y-87363944D01*
X96837501Y-87362925D01*
X96796296Y-87378741D01*
X96734086Y-87407815D01*
X96688341Y-87431963D01*
X96664813Y-87452913D01*
X96657896Y-87475747D01*
X96657886Y-87476877D01*
X96669299Y-87516212D01*
X96703092Y-87537462D01*
X96754809Y-87540539D01*
X96792061Y-87540006D01*
X96811703Y-87550735D01*
X96823952Y-87576505D01*
X96831002Y-87609337D01*
X96820842Y-87627966D01*
X96817017Y-87630632D01*
X96781001Y-87641340D01*
X96730566Y-87642856D01*
X96678626Y-87635759D01*
X96641822Y-87622788D01*
X96590938Y-87579585D01*
X96562014Y-87519446D01*
X96556286Y-87472462D01*
X96560657Y-87430082D01*
X96576475Y-87395488D01*
X96607797Y-87364763D01*
X96658678Y-87333990D01*
X96733176Y-87299252D01*
X96737714Y-87297288D01*
X96804821Y-87266287D01*
X96846232Y-87240862D01*
X96863981Y-87218014D01*
X96860107Y-87194745D01*
X96836643Y-87168056D01*
X96829627Y-87161914D01*
X96782630Y-87138100D01*
X96733933Y-87139103D01*
X96691522Y-87162451D01*
X96663384Y-87205675D01*
X96660769Y-87214160D01*
X96635308Y-87255308D01*
X96603001Y-87275128D01*
X96556286Y-87294770D01*
X96556286Y-87243950D01*
X96570496Y-87170082D01*
X96612675Y-87102327D01*
X96634624Y-87079661D01*
X96684517Y-87050569D01*
X96747967Y-87037400D01*
X96813744Y-87040968D01*
G36*
X96813744Y-87040968D02*
G01*
X96870616Y-87062087D01*
X96871267Y-87062493D01*
X96906440Y-87088380D01*
X96932407Y-87118633D01*
X96950670Y-87158058D01*
X96962732Y-87211462D01*
X96970096Y-87283651D01*
X96974264Y-87379432D01*
X96974629Y-87393078D01*
X96979876Y-87598842D01*
X96935716Y-87621678D01*
X96903763Y-87637110D01*
X96884470Y-87644423D01*
X96883578Y-87644514D01*
X96880239Y-87631022D01*
X96877587Y-87594626D01*
X96875956Y-87541452D01*
X96875600Y-87498393D01*
X96875592Y-87428641D01*
X96872403Y-87384837D01*
X96861288Y-87363944D01*
X96837501Y-87362925D01*
X96796296Y-87378741D01*
X96734086Y-87407815D01*
X96688341Y-87431963D01*
X96664813Y-87452913D01*
X96657896Y-87475747D01*
X96657886Y-87476877D01*
X96669299Y-87516212D01*
X96703092Y-87537462D01*
X96754809Y-87540539D01*
X96792061Y-87540006D01*
X96811703Y-87550735D01*
X96823952Y-87576505D01*
X96831002Y-87609337D01*
X96820842Y-87627966D01*
X96817017Y-87630632D01*
X96781001Y-87641340D01*
X96730566Y-87642856D01*
X96678626Y-87635759D01*
X96641822Y-87622788D01*
X96590938Y-87579585D01*
X96562014Y-87519446D01*
X96556286Y-87472462D01*
X96560657Y-87430082D01*
X96576475Y-87395488D01*
X96607797Y-87364763D01*
X96658678Y-87333990D01*
X96733176Y-87299252D01*
X96737714Y-87297288D01*
X96804821Y-87266287D01*
X96846232Y-87240862D01*
X96863981Y-87218014D01*
X96860107Y-87194745D01*
X96836643Y-87168056D01*
X96829627Y-87161914D01*
X96782630Y-87138100D01*
X96733933Y-87139103D01*
X96691522Y-87162451D01*
X96663384Y-87205675D01*
X96660769Y-87214160D01*
X96635308Y-87255308D01*
X96603001Y-87275128D01*
X96556286Y-87294770D01*
X96556286Y-87243950D01*
X96570496Y-87170082D01*
X96612675Y-87102327D01*
X96634624Y-87079661D01*
X96684517Y-87050569D01*
X96747967Y-87037400D01*
X96813744Y-87040968D01*
G37*
X99426600Y-87048752D02*
X99443948Y-87056334D01*
X99485356Y-87089128D01*
X99520765Y-87136547D01*
X99542664Y-87187151D01*
X99546229Y-87212098D01*
X99534279Y-87246927D01*
X99508067Y-87265357D01*
X99479964Y-87276516D01*
X99467095Y-87278572D01*
X99460829Y-87263649D01*
X99448456Y-87231175D01*
X99443028Y-87216502D01*
X99412590Y-87165744D01*
X99368520Y-87140427D01*
X99312010Y-87141206D01*
X99307825Y-87142203D01*
X99277655Y-87156507D01*
X99255476Y-87184393D01*
X99240327Y-87229287D01*
X99231250Y-87294615D01*
X99227286Y-87383804D01*
X99226914Y-87431261D01*
X99226730Y-87506071D01*
X99225522Y-87557069D01*
X99222309Y-87589471D01*
X99216109Y-87608495D01*
X99205940Y-87619356D01*
X99190819Y-87627272D01*
X99189946Y-87627670D01*
X99160828Y-87639981D01*
X99146403Y-87644514D01*
X99144186Y-87630809D01*
X99142289Y-87592925D01*
X99140847Y-87535715D01*
X99139998Y-87464027D01*
X99139829Y-87411565D01*
X99140692Y-87310047D01*
X99144070Y-87233032D01*
X99151142Y-87176023D01*
X99163088Y-87134526D01*
X99181090Y-87104043D01*
X99206327Y-87080080D01*
X99231247Y-87063355D01*
X99291171Y-87041097D01*
X99360911Y-87036076D01*
X99426600Y-87048752D01*
G36*
X99426600Y-87048752D02*
G01*
X99443948Y-87056334D01*
X99485356Y-87089128D01*
X99520765Y-87136547D01*
X99542664Y-87187151D01*
X99546229Y-87212098D01*
X99534279Y-87246927D01*
X99508067Y-87265357D01*
X99479964Y-87276516D01*
X99467095Y-87278572D01*
X99460829Y-87263649D01*
X99448456Y-87231175D01*
X99443028Y-87216502D01*
X99412590Y-87165744D01*
X99368520Y-87140427D01*
X99312010Y-87141206D01*
X99307825Y-87142203D01*
X99277655Y-87156507D01*
X99255476Y-87184393D01*
X99240327Y-87229287D01*
X99231250Y-87294615D01*
X99227286Y-87383804D01*
X99226914Y-87431261D01*
X99226730Y-87506071D01*
X99225522Y-87557069D01*
X99222309Y-87589471D01*
X99216109Y-87608495D01*
X99205940Y-87619356D01*
X99190819Y-87627272D01*
X99189946Y-87627670D01*
X99160828Y-87639981D01*
X99146403Y-87644514D01*
X99144186Y-87630809D01*
X99142289Y-87592925D01*
X99140847Y-87535715D01*
X99139998Y-87464027D01*
X99139829Y-87411565D01*
X99140692Y-87310047D01*
X99144070Y-87233032D01*
X99151142Y-87176023D01*
X99163088Y-87134526D01*
X99181090Y-87104043D01*
X99206327Y-87080080D01*
X99231247Y-87063355D01*
X99291171Y-87041097D01*
X99360911Y-87036076D01*
X99426600Y-87048752D01*
G37*
X97303926Y-87039755D02*
X97369858Y-87064084D01*
X97423273Y-87107117D01*
X97444164Y-87137409D01*
X97466939Y-87192994D01*
X97466466Y-87233186D01*
X97442562Y-87260217D01*
X97433717Y-87264813D01*
X97395530Y-87279144D01*
X97376028Y-87275472D01*
X97369422Y-87251407D01*
X97369086Y-87238114D01*
X97356992Y-87189210D01*
X97325471Y-87154999D01*
X97281659Y-87138476D01*
X97232695Y-87142634D01*
X97192894Y-87164227D01*
X97179450Y-87176544D01*
X97169921Y-87191487D01*
X97163485Y-87214075D01*
X97159317Y-87249328D01*
X97156597Y-87302266D01*
X97154502Y-87377907D01*
X97153960Y-87401857D01*
X97151981Y-87483790D01*
X97149731Y-87541455D01*
X97146357Y-87579608D01*
X97141006Y-87603004D01*
X97132824Y-87616398D01*
X97120959Y-87624545D01*
X97113362Y-87628144D01*
X97081102Y-87640452D01*
X97062111Y-87644514D01*
X97055836Y-87630948D01*
X97052006Y-87589934D01*
X97050600Y-87520999D01*
X97051598Y-87423669D01*
X97051908Y-87408657D01*
X97054101Y-87319859D01*
X97056693Y-87255019D01*
X97060382Y-87209067D01*
X97065864Y-87176935D01*
X97073835Y-87153553D01*
X97084993Y-87133852D01*
X97090830Y-87125410D01*
X97124296Y-87088057D01*
X97161727Y-87059003D01*
X97166309Y-87056467D01*
X97233426Y-87036443D01*
X97303926Y-87039755D01*
G36*
X97303926Y-87039755D02*
G01*
X97369858Y-87064084D01*
X97423273Y-87107117D01*
X97444164Y-87137409D01*
X97466939Y-87192994D01*
X97466466Y-87233186D01*
X97442562Y-87260217D01*
X97433717Y-87264813D01*
X97395530Y-87279144D01*
X97376028Y-87275472D01*
X97369422Y-87251407D01*
X97369086Y-87238114D01*
X97356992Y-87189210D01*
X97325471Y-87154999D01*
X97281659Y-87138476D01*
X97232695Y-87142634D01*
X97192894Y-87164227D01*
X97179450Y-87176544D01*
X97169921Y-87191487D01*
X97163485Y-87214075D01*
X97159317Y-87249328D01*
X97156597Y-87302266D01*
X97154502Y-87377907D01*
X97153960Y-87401857D01*
X97151981Y-87483790D01*
X97149731Y-87541455D01*
X97146357Y-87579608D01*
X97141006Y-87603004D01*
X97132824Y-87616398D01*
X97120959Y-87624545D01*
X97113362Y-87628144D01*
X97081102Y-87640452D01*
X97062111Y-87644514D01*
X97055836Y-87630948D01*
X97052006Y-87589934D01*
X97050600Y-87520999D01*
X97051598Y-87423669D01*
X97051908Y-87408657D01*
X97054101Y-87319859D01*
X97056693Y-87255019D01*
X97060382Y-87209067D01*
X97065864Y-87176935D01*
X97073835Y-87153553D01*
X97084993Y-87133852D01*
X97090830Y-87125410D01*
X97124296Y-87088057D01*
X97161727Y-87059003D01*
X97166309Y-87056467D01*
X97233426Y-87036443D01*
X97303926Y-87039755D01*
G37*
X98918876Y-87046335D02*
X98960667Y-87065344D01*
X98993469Y-87088378D01*
X99017503Y-87114133D01*
X99034097Y-87147358D01*
X99044577Y-87192800D01*
X99050271Y-87255207D01*
X99052507Y-87339327D01*
X99052743Y-87394721D01*
X99052743Y-87610826D01*
X99015774Y-87627670D01*
X98986656Y-87639981D01*
X98972231Y-87644514D01*
X98969472Y-87631025D01*
X98967282Y-87594653D01*
X98965942Y-87541542D01*
X98965657Y-87499372D01*
X98964434Y-87438447D01*
X98961136Y-87390115D01*
X98956321Y-87360518D01*
X98952496Y-87354229D01*
X98926783Y-87360652D01*
X98886418Y-87377125D01*
X98839679Y-87399458D01*
X98794845Y-87423457D01*
X98760193Y-87444930D01*
X98744002Y-87459685D01*
X98743938Y-87459845D01*
X98745330Y-87487152D01*
X98757818Y-87513219D01*
X98779743Y-87534392D01*
X98811743Y-87541474D01*
X98839092Y-87540649D01*
X98877826Y-87540042D01*
X98898158Y-87549116D01*
X98910369Y-87573092D01*
X98911909Y-87577613D01*
X98917203Y-87611806D01*
X98903047Y-87632568D01*
X98866148Y-87642462D01*
X98826289Y-87644292D01*
X98754562Y-87630727D01*
X98717432Y-87611355D01*
X98671576Y-87565845D01*
X98647256Y-87509983D01*
X98645073Y-87450957D01*
X98665629Y-87395953D01*
X98696549Y-87361486D01*
X98727420Y-87342189D01*
X98775942Y-87317759D01*
X98832485Y-87292985D01*
X98841910Y-87289199D01*
X98904019Y-87261791D01*
X98939822Y-87237634D01*
X98951337Y-87213619D01*
X98940580Y-87186635D01*
X98922114Y-87165543D01*
X98878469Y-87139572D01*
X98830446Y-87137624D01*
X98786406Y-87157637D01*
X98754709Y-87197551D01*
X98750549Y-87207848D01*
X98726327Y-87245724D01*
X98690965Y-87273842D01*
X98646343Y-87296917D01*
X98646343Y-87231485D01*
X98648969Y-87191506D01*
X98660230Y-87159997D01*
X98685199Y-87126378D01*
X98709169Y-87100484D01*
X98746441Y-87063817D01*
X98775401Y-87044121D01*
X98806505Y-87036220D01*
X98841713Y-87034914D01*
X98918876Y-87046335D01*
G36*
X98918876Y-87046335D02*
G01*
X98960667Y-87065344D01*
X98993469Y-87088378D01*
X99017503Y-87114133D01*
X99034097Y-87147358D01*
X99044577Y-87192800D01*
X99050271Y-87255207D01*
X99052507Y-87339327D01*
X99052743Y-87394721D01*
X99052743Y-87610826D01*
X99015774Y-87627670D01*
X98986656Y-87639981D01*
X98972231Y-87644514D01*
X98969472Y-87631025D01*
X98967282Y-87594653D01*
X98965942Y-87541542D01*
X98965657Y-87499372D01*
X98964434Y-87438447D01*
X98961136Y-87390115D01*
X98956321Y-87360518D01*
X98952496Y-87354229D01*
X98926783Y-87360652D01*
X98886418Y-87377125D01*
X98839679Y-87399458D01*
X98794845Y-87423457D01*
X98760193Y-87444930D01*
X98744002Y-87459685D01*
X98743938Y-87459845D01*
X98745330Y-87487152D01*
X98757818Y-87513219D01*
X98779743Y-87534392D01*
X98811743Y-87541474D01*
X98839092Y-87540649D01*
X98877826Y-87540042D01*
X98898158Y-87549116D01*
X98910369Y-87573092D01*
X98911909Y-87577613D01*
X98917203Y-87611806D01*
X98903047Y-87632568D01*
X98866148Y-87642462D01*
X98826289Y-87644292D01*
X98754562Y-87630727D01*
X98717432Y-87611355D01*
X98671576Y-87565845D01*
X98647256Y-87509983D01*
X98645073Y-87450957D01*
X98665629Y-87395953D01*
X98696549Y-87361486D01*
X98727420Y-87342189D01*
X98775942Y-87317759D01*
X98832485Y-87292985D01*
X98841910Y-87289199D01*
X98904019Y-87261791D01*
X98939822Y-87237634D01*
X98951337Y-87213619D01*
X98940580Y-87186635D01*
X98922114Y-87165543D01*
X98878469Y-87139572D01*
X98830446Y-87137624D01*
X98786406Y-87157637D01*
X98754709Y-87197551D01*
X98750549Y-87207848D01*
X98726327Y-87245724D01*
X98690965Y-87273842D01*
X98646343Y-87296917D01*
X98646343Y-87231485D01*
X98648969Y-87191506D01*
X98660230Y-87159997D01*
X98685199Y-87126378D01*
X98709169Y-87100484D01*
X98746441Y-87063817D01*
X98775401Y-87044121D01*
X98806505Y-87036220D01*
X98841713Y-87034914D01*
X98918876Y-87046335D01*
G37*
X95490093Y-87017780D02*
X95536672Y-87044723D01*
X95569057Y-87071466D01*
X95592742Y-87099484D01*
X95609059Y-87133748D01*
X95619339Y-87179227D01*
X95624914Y-87240892D01*
X95627116Y-87323711D01*
X95627371Y-87383246D01*
X95627371Y-87602391D01*
X95565686Y-87630044D01*
X95504000Y-87657697D01*
X95496743Y-87417670D01*
X95493744Y-87328028D01*
X95490598Y-87262962D01*
X95486701Y-87218026D01*
X95481447Y-87188770D01*
X95474231Y-87170748D01*
X95464450Y-87159511D01*
X95461312Y-87157079D01*
X95413761Y-87138083D01*
X95365697Y-87145600D01*
X95337086Y-87165543D01*
X95325447Y-87179675D01*
X95317391Y-87198220D01*
X95312271Y-87226334D01*
X95309441Y-87269173D01*
X95308256Y-87331895D01*
X95308057Y-87397261D01*
X95308018Y-87479268D01*
X95306614Y-87537316D01*
X95301914Y-87576465D01*
X95291987Y-87601780D01*
X95274903Y-87618323D01*
X95248732Y-87631156D01*
X95213775Y-87644491D01*
X95175596Y-87659007D01*
X95180141Y-87401389D01*
X95181971Y-87308519D01*
X95184112Y-87239889D01*
X95187181Y-87190711D01*
X95191794Y-87156198D01*
X95198568Y-87131562D01*
X95208119Y-87112016D01*
X95219634Y-87094770D01*
X95275190Y-87039680D01*
X95342980Y-87007822D01*
X95416713Y-87000191D01*
X95490093Y-87017780D01*
G36*
X95490093Y-87017780D02*
G01*
X95536672Y-87044723D01*
X95569057Y-87071466D01*
X95592742Y-87099484D01*
X95609059Y-87133748D01*
X95619339Y-87179227D01*
X95624914Y-87240892D01*
X95627116Y-87323711D01*
X95627371Y-87383246D01*
X95627371Y-87602391D01*
X95565686Y-87630044D01*
X95504000Y-87657697D01*
X95496743Y-87417670D01*
X95493744Y-87328028D01*
X95490598Y-87262962D01*
X95486701Y-87218026D01*
X95481447Y-87188770D01*
X95474231Y-87170748D01*
X95464450Y-87159511D01*
X95461312Y-87157079D01*
X95413761Y-87138083D01*
X95365697Y-87145600D01*
X95337086Y-87165543D01*
X95325447Y-87179675D01*
X95317391Y-87198220D01*
X95312271Y-87226334D01*
X95309441Y-87269173D01*
X95308256Y-87331895D01*
X95308057Y-87397261D01*
X95308018Y-87479268D01*
X95306614Y-87537316D01*
X95301914Y-87576465D01*
X95291987Y-87601780D01*
X95274903Y-87618323D01*
X95248732Y-87631156D01*
X95213775Y-87644491D01*
X95175596Y-87659007D01*
X95180141Y-87401389D01*
X95181971Y-87308519D01*
X95184112Y-87239889D01*
X95187181Y-87190711D01*
X95191794Y-87156198D01*
X95198568Y-87131562D01*
X95208119Y-87112016D01*
X95219634Y-87094770D01*
X95275190Y-87039680D01*
X95342980Y-87007822D01*
X95416713Y-87000191D01*
X95490093Y-87017780D01*
G37*
D14*
%TO.C,C3*%
X95223000Y-53916252D02*
X95223000Y-53393748D01*
X93753000Y-53916252D02*
X93753000Y-53393748D01*
D15*
%TO.C,X1*%
X93969600Y-45416600D02*
X93969600Y-44516600D01*
X88469600Y-49916600D02*
X87669600Y-49916600D01*
X86369600Y-44516600D02*
X86369600Y-45416600D01*
X92669600Y-49916600D02*
X91869600Y-49916600D01*
X93969600Y-44516600D02*
X86369600Y-44516600D01*
D14*
%TO.C,C13*%
X80389000Y-53099580D02*
X80389000Y-52818420D01*
X81409000Y-53099580D02*
X81409000Y-52818420D01*
%TO.C,C9*%
X87383252Y-51716000D02*
X86860748Y-51716000D01*
X87383252Y-53186000D02*
X86860748Y-53186000D01*
%TO.C,L3*%
X75685000Y-46435000D02*
X75685000Y-44965000D01*
X75685000Y-44965000D02*
X73400000Y-44965000D01*
X73400000Y-46435000D02*
X75685000Y-46435000D01*
%TO.C,C15*%
X76710000Y-60311420D02*
X76710000Y-60592580D01*
X75690000Y-60311420D02*
X75690000Y-60592580D01*
%TO.C,R4*%
X83777500Y-53587258D02*
X83777500Y-53112742D01*
X84822500Y-53587258D02*
X84822500Y-53112742D01*
%TO.C,C1*%
X82694880Y-66054000D02*
X82413720Y-66054000D01*
X82694880Y-67074000D02*
X82413720Y-67074000D01*
D16*
%TO.C,D1*%
X103500000Y-51500000D02*
X104100000Y-51100000D01*
X104673000Y-52200000D02*
X102927000Y-52200000D01*
X102927000Y-50800000D02*
X104673000Y-50800000D01*
X104100000Y-51100000D02*
X104100000Y-51900000D01*
X104100000Y-51900000D02*
X103500000Y-51500000D01*
G36*
X103500000Y-52000000D02*
G01*
X103300000Y-52000000D01*
X103300000Y-51000000D01*
X103500000Y-51000000D01*
X103500000Y-52000000D01*
G37*
G36*
X104101600Y-51889841D02*
G01*
X103516838Y-51500000D01*
X104101600Y-51110159D01*
X104101600Y-51889841D01*
G37*
D14*
%TO.C,R11*%
X81392500Y-47481258D02*
X81392500Y-47006742D01*
X82437500Y-47481258D02*
X82437500Y-47006742D01*
%TO.C,C6*%
X79128252Y-89054000D02*
X78605748Y-89054000D01*
X79128252Y-90524000D02*
X78605748Y-90524000D01*
%TO.C,J1*%
X106910000Y-59420000D02*
X106910000Y-60750000D01*
X104250000Y-62020000D02*
X104250000Y-84940000D01*
X104250000Y-84940000D02*
X106910000Y-84940000D01*
X106910000Y-62020000D02*
X106910000Y-84940000D01*
X105580000Y-59420000D02*
X106910000Y-59420000D01*
X104250000Y-62020000D02*
X106910000Y-62020000D01*
D18*
%TO.C,B1*%
X68400000Y-64800000D02*
X67600000Y-65600000D01*
X66300000Y-67800000D02*
X65900000Y-69200000D01*
X80000000Y-66000000D02*
X80700000Y-67200000D01*
X77200000Y-63700000D02*
X78200000Y-64200000D01*
X75300000Y-63100000D02*
X76200000Y-63300000D01*
X81200000Y-68200000D02*
X81600000Y-69700000D01*
X69800000Y-77600000D02*
X70800000Y-78100000D01*
X65700000Y-70500000D02*
X65800000Y-71700000D01*
X70800000Y-78100000D02*
X72000000Y-78400000D01*
X76600000Y-78100000D02*
X75700000Y-78400000D01*
X81400000Y-72500000D02*
X80800000Y-74400000D01*
X66600000Y-77600000D02*
X69800000Y-77600000D01*
X80700000Y-67200000D02*
X81200000Y-68200000D01*
X67600000Y-65600000D02*
X66900000Y-66600000D01*
X81600000Y-71200000D02*
X81400000Y-72500000D01*
X66900000Y-66600000D02*
X66300000Y-67800000D01*
X75700000Y-78400000D02*
X75300000Y-78400000D01*
X65800000Y-71700000D02*
X66100000Y-73000000D01*
X66600000Y-74450000D02*
X66600000Y-77600000D01*
X65900000Y-69200000D02*
X65700000Y-70500000D01*
X69500000Y-64000000D02*
X68400000Y-64800000D01*
X79200000Y-65100000D02*
X80000000Y-66000000D01*
X81600000Y-69700000D02*
X81600000Y-71200000D01*
X72200000Y-62900000D02*
X70800000Y-63300000D01*
X77500000Y-77600000D02*
X76600000Y-78100000D01*
X80800000Y-77600000D02*
X77500000Y-77600000D01*
X78200000Y-64200000D02*
X79200000Y-65100000D01*
X80800000Y-74450000D02*
X80800000Y-77600000D01*
X66100000Y-72900000D02*
X66600000Y-74400000D01*
X70800000Y-63300000D02*
X69500000Y-64000000D01*
X76200000Y-63300000D02*
X77200000Y-63700000D01*
D16*
%TO.C,U6*%
X75050000Y-54150000D02*
X75400000Y-54150000D01*
X75050000Y-54500000D02*
X75050000Y-54150000D01*
X78700000Y-58150000D02*
X79050000Y-58150000D01*
X79050000Y-54500000D02*
X78700000Y-54150000D01*
X79050000Y-58150000D02*
X79050000Y-57800000D01*
X75050000Y-57800000D02*
X75050000Y-58150000D01*
X75400000Y-58150000D02*
X75050000Y-58150000D01*
X79259800Y-54067200D02*
G75*
G03*
X79259800Y-54067200I-127000J0D01*
G01*
D14*
%TO.C,C14*%
X73038580Y-54481000D02*
X72757420Y-54481000D01*
X73038580Y-55501000D02*
X72757420Y-55501000D01*
%TO.C,U4*%
X87967800Y-69772440D02*
X87967800Y-70182200D01*
X95232200Y-62917800D02*
X94822440Y-62917800D01*
X94822440Y-70182200D02*
X95232200Y-70182200D01*
X87967800Y-62917800D02*
X87967800Y-63327560D01*
X88377560Y-62917800D02*
X87967800Y-62917800D01*
X87967800Y-70182200D02*
X88377560Y-70182200D01*
X95232200Y-70182200D02*
X95232200Y-69772440D01*
X95232200Y-63327560D02*
X95232200Y-62917800D01*
D11*
X92540501Y-71909400D02*
X92159501Y-71909400D01*
X92159501Y-71655400D01*
X92540501Y-71655400D01*
X92540501Y-71909400D01*
G36*
X92540501Y-71909400D02*
G01*
X92159501Y-71909400D01*
X92159501Y-71655400D01*
X92540501Y-71655400D01*
X92540501Y-71909400D01*
G37*
X93040500Y-61444600D02*
X92659500Y-61444600D01*
X92659500Y-61190600D01*
X93040500Y-61190600D01*
X93040500Y-61444600D01*
G36*
X93040500Y-61444600D02*
G01*
X92659500Y-61444600D01*
X92659500Y-61190600D01*
X93040500Y-61190600D01*
X93040500Y-61444600D01*
G37*
X96959400Y-66990500D02*
X96705400Y-66990500D01*
X96705400Y-66609499D01*
X96959400Y-66609499D01*
X96959400Y-66990500D01*
G36*
X96959400Y-66990500D02*
G01*
X96705400Y-66990500D01*
X96705400Y-66609499D01*
X96959400Y-66609499D01*
X96959400Y-66990500D01*
G37*
X86494600Y-68490499D02*
X86240600Y-68490499D01*
X86240600Y-68109499D01*
X86494600Y-68109499D01*
X86494600Y-68490499D01*
G36*
X86494600Y-68490499D02*
G01*
X86240600Y-68490499D01*
X86240600Y-68109499D01*
X86494600Y-68109499D01*
X86494600Y-68490499D01*
G37*
D14*
%TO.C,L1*%
X79275000Y-48729000D02*
X80745000Y-48729000D01*
X79275000Y-46444000D02*
X79275000Y-48729000D01*
X80745000Y-48729000D02*
X80745000Y-46444000D01*
%TO.C,R2*%
X102677500Y-57537258D02*
X102677500Y-57062742D01*
X103722500Y-57537258D02*
X103722500Y-57062742D01*
%TO.C,R6*%
X80110359Y-84073000D02*
X80417641Y-84073000D01*
X80110359Y-83313000D02*
X80417641Y-83313000D01*
D16*
%TO.C,U2*%
X87057900Y-56280000D02*
X87057900Y-55480000D01*
X87307900Y-57530000D02*
X88907900Y-57530000D01*
X87307900Y-54230000D02*
X88907900Y-54230000D01*
D14*
%TO.C,U5*%
X101507718Y-66390000D02*
X100892282Y-66390000D01*
X101507718Y-63523000D02*
X100892282Y-63523000D01*
X100945711Y-65925000D02*
G75*
G03*
X100945711Y-65925000I-70711J0D01*
G01*
%TO.C,C11*%
X100860000Y-68940580D02*
X100860000Y-68659420D01*
X99840000Y-68940580D02*
X99840000Y-68659420D01*
%TO.C,SW1*%
X68239899Y-49784000D02*
G75*
G03*
X68239899Y-49784000I-381000J0D01*
G01*
%TD*%
M02*
