%TF.GenerationSoftware,KiCad,Pcbnew,(6.0.1)*%
%TF.CreationDate,2023-02-18T08:42:03-06:00*%
%TF.ProjectId,dropkick,64726f70-6b69-4636-9b2e-6b696361645f,rev?*%
%TF.SameCoordinates,Original*%
%TF.FileFunction,Legend,Bot*%
%TF.FilePolarity,Positive*%
%FSLAX46Y46*%
G04 Gerber Fmt 4.6, Leading zero omitted, Abs format (unit mm)*
G04 Created by KiCad (PCBNEW (6.0.1)) date 2023-02-18 08:42:03*
%MOMM*%
%LPD*%
G01*
G04 APERTURE LIST*
%ADD10C,0.150000*%
%ADD11C,0.250000*%
%ADD12C,0.146304*%
%ADD13C,0.127000*%
%ADD14C,0.203200*%
%ADD15C,0.120000*%
%ADD16C,0.100000*%
%ADD17C,0.310000*%
%ADD18C,0.010000*%
G04 APERTURE END LIST*
D10*
X104052857Y-60352380D02*
X103719523Y-61352380D01*
X103386190Y-60352380D01*
X102719523Y-60828571D02*
X102576666Y-60876190D01*
X102529047Y-60923809D01*
X102481428Y-61019047D01*
X102481428Y-61161904D01*
X102529047Y-61257142D01*
X102576666Y-61304761D01*
X102671904Y-61352380D01*
X103052857Y-61352380D01*
X103052857Y-60352380D01*
X102719523Y-60352380D01*
X102624285Y-60400000D01*
X102576666Y-60447619D01*
X102529047Y-60542857D01*
X102529047Y-60638095D01*
X102576666Y-60733333D01*
X102624285Y-60780952D01*
X102719523Y-60828571D01*
X103052857Y-60828571D01*
X102100476Y-61066666D02*
X101624285Y-61066666D01*
X102195714Y-61352380D02*
X101862380Y-60352380D01*
X101529047Y-61352380D01*
X101338571Y-60352380D02*
X100767142Y-60352380D01*
X101052857Y-61352380D02*
X101052857Y-60352380D01*
D11*
X99311785Y-83594857D02*
X99311785Y-82394857D01*
X99026071Y-82394857D01*
X98854642Y-82452000D01*
X98740357Y-82566285D01*
X98683214Y-82680571D01*
X98626071Y-82909142D01*
X98626071Y-83080571D01*
X98683214Y-83309142D01*
X98740357Y-83423428D01*
X98854642Y-83537714D01*
X99026071Y-83594857D01*
X99311785Y-83594857D01*
X98111785Y-83594857D02*
X98111785Y-82794857D01*
X98111785Y-83023428D02*
X98054642Y-82909142D01*
X97997500Y-82852000D01*
X97883214Y-82794857D01*
X97768928Y-82794857D01*
X97197500Y-83594857D02*
X97311785Y-83537714D01*
X97368928Y-83480571D01*
X97426071Y-83366285D01*
X97426071Y-83023428D01*
X97368928Y-82909142D01*
X97311785Y-82852000D01*
X97197500Y-82794857D01*
X97026071Y-82794857D01*
X96911785Y-82852000D01*
X96854642Y-82909142D01*
X96797500Y-83023428D01*
X96797500Y-83366285D01*
X96854642Y-83480571D01*
X96911785Y-83537714D01*
X97026071Y-83594857D01*
X97197500Y-83594857D01*
X96283214Y-82794857D02*
X96283214Y-83994857D01*
X96283214Y-82852000D02*
X96168928Y-82794857D01*
X95940357Y-82794857D01*
X95826071Y-82852000D01*
X95768928Y-82909142D01*
X95711785Y-83023428D01*
X95711785Y-83366285D01*
X95768928Y-83480571D01*
X95826071Y-83537714D01*
X95940357Y-83594857D01*
X96168928Y-83594857D01*
X96283214Y-83537714D01*
X95197500Y-83594857D02*
X95197500Y-82394857D01*
X95083214Y-83137714D02*
X94740357Y-83594857D01*
X94740357Y-82794857D02*
X95197500Y-83252000D01*
X94226071Y-83594857D02*
X94226071Y-82794857D01*
X94226071Y-82394857D02*
X94283214Y-82452000D01*
X94226071Y-82509142D01*
X94168928Y-82452000D01*
X94226071Y-82394857D01*
X94226071Y-82509142D01*
X93140357Y-83537714D02*
X93254642Y-83594857D01*
X93483214Y-83594857D01*
X93597500Y-83537714D01*
X93654642Y-83480571D01*
X93711785Y-83366285D01*
X93711785Y-83023428D01*
X93654642Y-82909142D01*
X93597500Y-82852000D01*
X93483214Y-82794857D01*
X93254642Y-82794857D01*
X93140357Y-82852000D01*
X92626071Y-83594857D02*
X92626071Y-82394857D01*
X92511785Y-83137714D02*
X92168928Y-83594857D01*
X92168928Y-82794857D02*
X92626071Y-83252000D01*
X90911785Y-82394857D02*
X90511785Y-83594857D01*
X90111785Y-82394857D01*
X89197500Y-82794857D02*
X89197500Y-83594857D01*
X89483214Y-82337714D02*
X89768928Y-83194857D01*
X89026071Y-83194857D01*
X98626071Y-87344571D02*
X98683214Y-87401714D01*
X98854642Y-87458857D01*
X98968928Y-87458857D01*
X99140357Y-87401714D01*
X99254642Y-87287428D01*
X99311785Y-87173142D01*
X99368928Y-86944571D01*
X99368928Y-86773142D01*
X99311785Y-86544571D01*
X99254642Y-86430285D01*
X99140357Y-86316000D01*
X98968928Y-86258857D01*
X98854642Y-86258857D01*
X98683214Y-86316000D01*
X98626071Y-86373142D01*
X97940357Y-87458857D02*
X98054642Y-87401714D01*
X98111785Y-87344571D01*
X98168928Y-87230285D01*
X98168928Y-86887428D01*
X98111785Y-86773142D01*
X98054642Y-86716000D01*
X97940357Y-86658857D01*
X97768928Y-86658857D01*
X97654642Y-86716000D01*
X97597500Y-86773142D01*
X97540357Y-86887428D01*
X97540357Y-87230285D01*
X97597500Y-87344571D01*
X97654642Y-87401714D01*
X97768928Y-87458857D01*
X97940357Y-87458857D01*
X97026071Y-86658857D02*
X97026071Y-87858857D01*
X97026071Y-86716000D02*
X96911785Y-86658857D01*
X96683214Y-86658857D01*
X96568928Y-86716000D01*
X96511785Y-86773142D01*
X96454642Y-86887428D01*
X96454642Y-87230285D01*
X96511785Y-87344571D01*
X96568928Y-87401714D01*
X96683214Y-87458857D01*
X96911785Y-87458857D01*
X97026071Y-87401714D01*
X96054642Y-86658857D02*
X95768928Y-87458857D01*
X95483214Y-86658857D02*
X95768928Y-87458857D01*
X95883214Y-87744571D01*
X95940357Y-87801714D01*
X96054642Y-87858857D01*
X95026071Y-87458857D02*
X95026071Y-86658857D01*
X95026071Y-86887428D02*
X94968928Y-86773142D01*
X94911785Y-86716000D01*
X94797500Y-86658857D01*
X94683214Y-86658857D01*
X94283214Y-87458857D02*
X94283214Y-86658857D01*
X94283214Y-86258857D02*
X94340357Y-86316000D01*
X94283214Y-86373142D01*
X94226071Y-86316000D01*
X94283214Y-86258857D01*
X94283214Y-86373142D01*
X93197500Y-86658857D02*
X93197500Y-87630285D01*
X93254642Y-87744571D01*
X93311785Y-87801714D01*
X93426071Y-87858857D01*
X93597500Y-87858857D01*
X93711785Y-87801714D01*
X93197500Y-87401714D02*
X93311785Y-87458857D01*
X93540357Y-87458857D01*
X93654642Y-87401714D01*
X93711785Y-87344571D01*
X93768928Y-87230285D01*
X93768928Y-86887428D01*
X93711785Y-86773142D01*
X93654642Y-86716000D01*
X93540357Y-86658857D01*
X93311785Y-86658857D01*
X93197500Y-86716000D01*
X92626071Y-87458857D02*
X92626071Y-86258857D01*
X92111785Y-87458857D02*
X92111785Y-86830285D01*
X92168928Y-86716000D01*
X92283214Y-86658857D01*
X92454642Y-86658857D01*
X92568928Y-86716000D01*
X92626071Y-86773142D01*
X91711785Y-86658857D02*
X91254642Y-86658857D01*
X91540357Y-86258857D02*
X91540357Y-87287428D01*
X91483214Y-87401714D01*
X91368928Y-87458857D01*
X91254642Y-87458857D01*
X89597500Y-87916000D02*
X89654642Y-87858857D01*
X89768928Y-87687428D01*
X89826071Y-87573142D01*
X89883214Y-87401714D01*
X89940357Y-87116000D01*
X89940357Y-86887428D01*
X89883214Y-86601714D01*
X89826071Y-86430285D01*
X89768928Y-86316000D01*
X89654642Y-86144571D01*
X89597500Y-86087428D01*
X88626071Y-87401714D02*
X88740357Y-87458857D01*
X88968928Y-87458857D01*
X89083214Y-87401714D01*
X89140357Y-87344571D01*
X89197500Y-87230285D01*
X89197500Y-86887428D01*
X89140357Y-86773142D01*
X89083214Y-86716000D01*
X88968928Y-86658857D01*
X88740357Y-86658857D01*
X88626071Y-86716000D01*
X88226071Y-87916000D02*
X88168928Y-87858857D01*
X88054642Y-87687428D01*
X87997500Y-87573142D01*
X87940357Y-87401714D01*
X87883214Y-87116000D01*
X87883214Y-86887428D01*
X87940357Y-86601714D01*
X87997500Y-86430285D01*
X88054642Y-86316000D01*
X88168928Y-86144571D01*
X88226071Y-86087428D01*
X86454642Y-86373142D02*
X86397500Y-86316000D01*
X86283214Y-86258857D01*
X85997500Y-86258857D01*
X85883214Y-86316000D01*
X85826071Y-86373142D01*
X85768928Y-86487428D01*
X85768928Y-86601714D01*
X85826071Y-86773142D01*
X86511785Y-87458857D01*
X85768928Y-87458857D01*
X85026071Y-86258857D02*
X84911785Y-86258857D01*
X84797500Y-86316000D01*
X84740357Y-86373142D01*
X84683214Y-86487428D01*
X84626071Y-86716000D01*
X84626071Y-87001714D01*
X84683214Y-87230285D01*
X84740357Y-87344571D01*
X84797500Y-87401714D01*
X84911785Y-87458857D01*
X85026071Y-87458857D01*
X85140357Y-87401714D01*
X85197500Y-87344571D01*
X85254642Y-87230285D01*
X85311785Y-87001714D01*
X85311785Y-86716000D01*
X85254642Y-86487428D01*
X85197500Y-86373142D01*
X85140357Y-86316000D01*
X85026071Y-86258857D01*
X84168928Y-86373142D02*
X84111785Y-86316000D01*
X83997500Y-86258857D01*
X83711785Y-86258857D01*
X83597500Y-86316000D01*
X83540357Y-86373142D01*
X83483214Y-86487428D01*
X83483214Y-86601714D01*
X83540357Y-86773142D01*
X84226071Y-87458857D01*
X83483214Y-87458857D01*
X83026071Y-86373142D02*
X82968928Y-86316000D01*
X82854642Y-86258857D01*
X82568928Y-86258857D01*
X82454642Y-86316000D01*
X82397500Y-86373142D01*
X82340357Y-86487428D01*
X82340357Y-86601714D01*
X82397500Y-86773142D01*
X83083214Y-87458857D01*
X82340357Y-87458857D01*
X80226071Y-87458857D02*
X80626071Y-86887428D01*
X80911785Y-87458857D02*
X80911785Y-86258857D01*
X80454642Y-86258857D01*
X80340357Y-86316000D01*
X80283214Y-86373142D01*
X80226071Y-86487428D01*
X80226071Y-86658857D01*
X80283214Y-86773142D01*
X80340357Y-86830285D01*
X80454642Y-86887428D01*
X80911785Y-86887428D01*
X79711785Y-87458857D02*
X79711785Y-86658857D01*
X79711785Y-86258857D02*
X79768928Y-86316000D01*
X79711785Y-86373142D01*
X79654642Y-86316000D01*
X79711785Y-86258857D01*
X79711785Y-86373142D01*
X78968928Y-87458857D02*
X79083214Y-87401714D01*
X79140357Y-87287428D01*
X79140357Y-86258857D01*
X78054642Y-87401714D02*
X78168928Y-87458857D01*
X78397500Y-87458857D01*
X78511785Y-87401714D01*
X78568928Y-87287428D01*
X78568928Y-86830285D01*
X78511785Y-86716000D01*
X78397500Y-86658857D01*
X78168928Y-86658857D01*
X78054642Y-86716000D01*
X77997500Y-86830285D01*
X77997500Y-86944571D01*
X78568928Y-87058857D01*
X77597500Y-86658857D02*
X77311785Y-87458857D01*
X77026071Y-86658857D02*
X77311785Y-87458857D01*
X77426071Y-87744571D01*
X77483214Y-87801714D01*
X77597500Y-87858857D01*
X74968928Y-87458857D02*
X75368928Y-86887428D01*
X75654642Y-87458857D02*
X75654642Y-86258857D01*
X75197500Y-86258857D01*
X75083214Y-86316000D01*
X75026071Y-86373142D01*
X74968928Y-86487428D01*
X74968928Y-86658857D01*
X75026071Y-86773142D01*
X75083214Y-86830285D01*
X75197500Y-86887428D01*
X75654642Y-86887428D01*
X73940357Y-87458857D02*
X73940357Y-86830285D01*
X73997500Y-86716000D01*
X74111785Y-86658857D01*
X74340357Y-86658857D01*
X74454642Y-86716000D01*
X73940357Y-87401714D02*
X74054642Y-87458857D01*
X74340357Y-87458857D01*
X74454642Y-87401714D01*
X74511785Y-87287428D01*
X74511785Y-87173142D01*
X74454642Y-87058857D01*
X74340357Y-87001714D01*
X74054642Y-87001714D01*
X73940357Y-86944571D01*
X73368928Y-87458857D02*
X73368928Y-86658857D01*
X73368928Y-86258857D02*
X73426071Y-86316000D01*
X73368928Y-86373142D01*
X73311785Y-86316000D01*
X73368928Y-86258857D01*
X73368928Y-86373142D01*
X72797500Y-86658857D02*
X72797500Y-87458857D01*
X72797500Y-86773142D02*
X72740357Y-86716000D01*
X72626071Y-86658857D01*
X72454642Y-86658857D01*
X72340357Y-86716000D01*
X72283214Y-86830285D01*
X72283214Y-87458857D01*
X71254642Y-87401714D02*
X71368928Y-87458857D01*
X71597500Y-87458857D01*
X71711785Y-87401714D01*
X71768928Y-87287428D01*
X71768928Y-86830285D01*
X71711785Y-86716000D01*
X71597500Y-86658857D01*
X71368928Y-86658857D01*
X71254642Y-86716000D01*
X71197500Y-86830285D01*
X71197500Y-86944571D01*
X71768928Y-87058857D01*
X70797500Y-86658857D02*
X70511785Y-87458857D01*
X70226071Y-86658857D02*
X70511785Y-87458857D01*
X70626071Y-87744571D01*
X70683214Y-87801714D01*
X70797500Y-87858857D01*
X99311785Y-89390857D02*
X99311785Y-88190857D01*
X98797500Y-89390857D02*
X98797500Y-88762285D01*
X98854642Y-88648000D01*
X98968928Y-88590857D01*
X99140357Y-88590857D01*
X99254642Y-88648000D01*
X99311785Y-88705142D01*
X98397500Y-88590857D02*
X97940357Y-88590857D01*
X98226071Y-88190857D02*
X98226071Y-89219428D01*
X98168928Y-89333714D01*
X98054642Y-89390857D01*
X97940357Y-89390857D01*
X97711785Y-88590857D02*
X97254642Y-88590857D01*
X97540357Y-88190857D02*
X97540357Y-89219428D01*
X97483214Y-89333714D01*
X97368928Y-89390857D01*
X97254642Y-89390857D01*
X96854642Y-88590857D02*
X96854642Y-89790857D01*
X96854642Y-88648000D02*
X96740357Y-88590857D01*
X96511785Y-88590857D01*
X96397500Y-88648000D01*
X96340357Y-88705142D01*
X96283214Y-88819428D01*
X96283214Y-89162285D01*
X96340357Y-89276571D01*
X96397500Y-89333714D01*
X96511785Y-89390857D01*
X96740357Y-89390857D01*
X96854642Y-89333714D01*
X95826071Y-89333714D02*
X95711785Y-89390857D01*
X95483214Y-89390857D01*
X95368928Y-89333714D01*
X95311785Y-89219428D01*
X95311785Y-89162285D01*
X95368928Y-89048000D01*
X95483214Y-88990857D01*
X95654642Y-88990857D01*
X95768928Y-88933714D01*
X95826071Y-88819428D01*
X95826071Y-88762285D01*
X95768928Y-88648000D01*
X95654642Y-88590857D01*
X95483214Y-88590857D01*
X95368928Y-88648000D01*
X94797500Y-89276571D02*
X94740357Y-89333714D01*
X94797500Y-89390857D01*
X94854642Y-89333714D01*
X94797500Y-89276571D01*
X94797500Y-89390857D01*
X94797500Y-88648000D02*
X94740357Y-88705142D01*
X94797500Y-88762285D01*
X94854642Y-88705142D01*
X94797500Y-88648000D01*
X94797500Y-88762285D01*
X93368928Y-88133714D02*
X94397500Y-89676571D01*
X92111785Y-88133714D02*
X93140357Y-89676571D01*
X91083214Y-88248000D02*
X91197500Y-88190857D01*
X91368928Y-88190857D01*
X91540357Y-88248000D01*
X91654642Y-88362285D01*
X91711785Y-88476571D01*
X91768928Y-88705142D01*
X91768928Y-88876571D01*
X91711785Y-89105142D01*
X91654642Y-89219428D01*
X91540357Y-89333714D01*
X91368928Y-89390857D01*
X91254642Y-89390857D01*
X91083214Y-89333714D01*
X91026071Y-89276571D01*
X91026071Y-88876571D01*
X91254642Y-88876571D01*
X90511785Y-89390857D02*
X90511785Y-88590857D01*
X90511785Y-88190857D02*
X90568928Y-88248000D01*
X90511785Y-88305142D01*
X90454642Y-88248000D01*
X90511785Y-88190857D01*
X90511785Y-88305142D01*
X90111785Y-88590857D02*
X89654642Y-88590857D01*
X89940357Y-88190857D02*
X89940357Y-89219428D01*
X89883214Y-89333714D01*
X89768928Y-89390857D01*
X89654642Y-89390857D01*
X89254642Y-89390857D02*
X89254642Y-88190857D01*
X89254642Y-88762285D02*
X88568928Y-88762285D01*
X88568928Y-89390857D02*
X88568928Y-88190857D01*
X87483214Y-88590857D02*
X87483214Y-89390857D01*
X87997500Y-88590857D02*
X87997500Y-89219428D01*
X87940357Y-89333714D01*
X87826071Y-89390857D01*
X87654642Y-89390857D01*
X87540357Y-89333714D01*
X87483214Y-89276571D01*
X86911785Y-89390857D02*
X86911785Y-88190857D01*
X86911785Y-88648000D02*
X86797500Y-88590857D01*
X86568928Y-88590857D01*
X86454642Y-88648000D01*
X86397500Y-88705142D01*
X86340357Y-88819428D01*
X86340357Y-89162285D01*
X86397500Y-89276571D01*
X86454642Y-89333714D01*
X86568928Y-89390857D01*
X86797500Y-89390857D01*
X86911785Y-89333714D01*
X85826071Y-89276571D02*
X85768928Y-89333714D01*
X85826071Y-89390857D01*
X85883214Y-89333714D01*
X85826071Y-89276571D01*
X85826071Y-89390857D01*
X84740357Y-89333714D02*
X84854642Y-89390857D01*
X85083214Y-89390857D01*
X85197500Y-89333714D01*
X85254642Y-89276571D01*
X85311785Y-89162285D01*
X85311785Y-88819428D01*
X85254642Y-88705142D01*
X85197500Y-88648000D01*
X85083214Y-88590857D01*
X84854642Y-88590857D01*
X84740357Y-88648000D01*
X84054642Y-89390857D02*
X84168928Y-89333714D01*
X84226071Y-89276571D01*
X84283214Y-89162285D01*
X84283214Y-88819428D01*
X84226071Y-88705142D01*
X84168928Y-88648000D01*
X84054642Y-88590857D01*
X83883214Y-88590857D01*
X83768928Y-88648000D01*
X83711785Y-88705142D01*
X83654642Y-88819428D01*
X83654642Y-89162285D01*
X83711785Y-89276571D01*
X83768928Y-89333714D01*
X83883214Y-89390857D01*
X84054642Y-89390857D01*
X83140357Y-89390857D02*
X83140357Y-88590857D01*
X83140357Y-88705142D02*
X83083214Y-88648000D01*
X82968928Y-88590857D01*
X82797499Y-88590857D01*
X82683214Y-88648000D01*
X82626071Y-88762285D01*
X82626071Y-89390857D01*
X82626071Y-88762285D02*
X82568928Y-88648000D01*
X82454642Y-88590857D01*
X82283214Y-88590857D01*
X82168928Y-88648000D01*
X82111785Y-88762285D01*
X82111785Y-89390857D01*
X80683214Y-88133714D02*
X81711785Y-89676571D01*
X80283214Y-89390857D02*
X80283214Y-88590857D01*
X80283214Y-88819428D02*
X80226071Y-88705142D01*
X80168928Y-88648000D01*
X80054642Y-88590857D01*
X79940357Y-88590857D01*
X79540357Y-89390857D02*
X79540357Y-88590857D01*
X79540357Y-88819428D02*
X79483214Y-88705142D01*
X79426071Y-88648000D01*
X79311785Y-88590857D01*
X79197499Y-88590857D01*
X78283214Y-89390857D02*
X78283214Y-88762285D01*
X78340357Y-88648000D01*
X78454642Y-88590857D01*
X78683214Y-88590857D01*
X78797499Y-88648000D01*
X78283214Y-89333714D02*
X78397499Y-89390857D01*
X78683214Y-89390857D01*
X78797499Y-89333714D01*
X78854642Y-89219428D01*
X78854642Y-89105142D01*
X78797499Y-88990857D01*
X78683214Y-88933714D01*
X78397499Y-88933714D01*
X78283214Y-88876571D01*
X77711785Y-89390857D02*
X77711785Y-88590857D01*
X77711785Y-88190857D02*
X77768928Y-88248000D01*
X77711785Y-88305142D01*
X77654642Y-88248000D01*
X77711785Y-88190857D01*
X77711785Y-88305142D01*
X77140357Y-88590857D02*
X77140357Y-89390857D01*
X77140357Y-88705142D02*
X77083214Y-88648000D01*
X76968928Y-88590857D01*
X76797499Y-88590857D01*
X76683214Y-88648000D01*
X76626071Y-88762285D01*
X76626071Y-89390857D01*
X75597499Y-89333714D02*
X75711785Y-89390857D01*
X75940357Y-89390857D01*
X76054642Y-89333714D01*
X76111785Y-89219428D01*
X76111785Y-88762285D01*
X76054642Y-88648000D01*
X75940357Y-88590857D01*
X75711785Y-88590857D01*
X75597499Y-88648000D01*
X75540357Y-88762285D01*
X75540357Y-88876571D01*
X76111785Y-88990857D01*
X75140357Y-88590857D02*
X74854642Y-89390857D01*
X74568928Y-88590857D02*
X74854642Y-89390857D01*
X74968928Y-89676571D01*
X75026071Y-89733714D01*
X75140357Y-89790857D01*
X73254642Y-88133714D02*
X74283214Y-89676571D01*
X72340357Y-89390857D02*
X72340357Y-88190857D01*
X72340357Y-89333714D02*
X72454642Y-89390857D01*
X72683214Y-89390857D01*
X72797499Y-89333714D01*
X72854642Y-89276571D01*
X72911785Y-89162285D01*
X72911785Y-88819428D01*
X72854642Y-88705142D01*
X72797499Y-88648000D01*
X72683214Y-88590857D01*
X72454642Y-88590857D01*
X72340357Y-88648000D01*
X71768928Y-89390857D02*
X71768928Y-88590857D01*
X71768928Y-88819428D02*
X71711785Y-88705142D01*
X71654642Y-88648000D01*
X71540357Y-88590857D01*
X71426071Y-88590857D01*
X70854642Y-89390857D02*
X70968928Y-89333714D01*
X71026071Y-89276571D01*
X71083214Y-89162285D01*
X71083214Y-88819428D01*
X71026071Y-88705142D01*
X70968928Y-88648000D01*
X70854642Y-88590857D01*
X70683214Y-88590857D01*
X70568928Y-88648000D01*
X70511785Y-88705142D01*
X70454642Y-88819428D01*
X70454642Y-89162285D01*
X70511785Y-89276571D01*
X70568928Y-89333714D01*
X70683214Y-89390857D01*
X70854642Y-89390857D01*
X69940357Y-88590857D02*
X69940357Y-89790857D01*
X69940357Y-88648000D02*
X69826071Y-88590857D01*
X69597499Y-88590857D01*
X69483214Y-88648000D01*
X69426071Y-88705142D01*
X69368928Y-88819428D01*
X69368928Y-89162285D01*
X69426071Y-89276571D01*
X69483214Y-89333714D01*
X69597499Y-89390857D01*
X69826071Y-89390857D01*
X69940357Y-89333714D01*
X68854642Y-89390857D02*
X68854642Y-88190857D01*
X68740357Y-88933714D02*
X68397499Y-89390857D01*
X68397499Y-88590857D02*
X68854642Y-89048000D01*
X67883214Y-89390857D02*
X67883214Y-88590857D01*
X67883214Y-88190857D02*
X67940357Y-88248000D01*
X67883214Y-88305142D01*
X67826071Y-88248000D01*
X67883214Y-88190857D01*
X67883214Y-88305142D01*
X66797499Y-89333714D02*
X66911785Y-89390857D01*
X67140357Y-89390857D01*
X67254642Y-89333714D01*
X67311785Y-89276571D01*
X67368928Y-89162285D01*
X67368928Y-88819428D01*
X67311785Y-88705142D01*
X67254642Y-88648000D01*
X67140357Y-88590857D01*
X66911785Y-88590857D01*
X66797499Y-88648000D01*
X66283214Y-89390857D02*
X66283214Y-88190857D01*
X66168928Y-88933714D02*
X65826071Y-89390857D01*
X65826071Y-88590857D02*
X66283214Y-89048000D01*
X64454642Y-88133714D02*
X65483214Y-89676571D01*
D10*
X103935714Y-73661106D02*
X103459524Y-73661106D01*
X104030952Y-73946820D02*
X103697619Y-72946820D01*
X103364286Y-73946820D01*
X102459524Y-73946820D02*
X102792857Y-73470630D01*
X103030952Y-73946820D02*
X103030952Y-72946820D01*
X102650000Y-72946820D01*
X102554762Y-72994440D01*
X102507143Y-73042059D01*
X102459524Y-73137297D01*
X102459524Y-73280154D01*
X102507143Y-73375392D01*
X102554762Y-73423011D01*
X102650000Y-73470630D01*
X103030952Y-73470630D01*
X102030952Y-73423011D02*
X101697619Y-73423011D01*
X101554762Y-73946820D02*
X102030952Y-73946820D01*
X102030952Y-72946820D01*
X101554762Y-72946820D01*
X100792857Y-73423011D02*
X101126190Y-73423011D01*
X101126190Y-73946820D02*
X101126190Y-72946820D01*
X100650000Y-72946820D01*
X103364285Y-70475552D02*
X103459523Y-70427932D01*
X103602381Y-70427932D01*
X103745238Y-70475552D01*
X103840476Y-70570790D01*
X103888095Y-70666028D01*
X103935714Y-70856504D01*
X103935714Y-70999361D01*
X103888095Y-71189837D01*
X103840476Y-71285075D01*
X103745238Y-71380313D01*
X103602381Y-71427932D01*
X103507142Y-71427932D01*
X103364285Y-71380313D01*
X103316666Y-71332694D01*
X103316666Y-70999361D01*
X103507142Y-70999361D01*
X102888095Y-71427932D02*
X102888095Y-70427932D01*
X102316666Y-71427932D01*
X102316666Y-70427932D01*
X101840476Y-71427932D02*
X101840476Y-70427932D01*
X101602381Y-70427932D01*
X101459523Y-70475552D01*
X101364285Y-70570790D01*
X101316666Y-70666028D01*
X101269047Y-70856504D01*
X101269047Y-70999361D01*
X101316666Y-71189837D01*
X101364285Y-71285075D01*
X101459523Y-71380313D01*
X101602381Y-71427932D01*
X101840476Y-71427932D01*
X103935714Y-66342537D02*
X103792857Y-66390156D01*
X103554761Y-66390156D01*
X103459523Y-66342537D01*
X103411904Y-66294918D01*
X103364285Y-66199680D01*
X103364285Y-66104442D01*
X103411904Y-66009204D01*
X103459523Y-65961585D01*
X103554761Y-65913966D01*
X103745238Y-65866347D01*
X103840476Y-65818728D01*
X103888095Y-65771109D01*
X103935714Y-65675871D01*
X103935714Y-65580633D01*
X103888095Y-65485395D01*
X103840476Y-65437776D01*
X103745238Y-65390156D01*
X103507142Y-65390156D01*
X103364285Y-65437776D01*
X102364285Y-66294918D02*
X102411904Y-66342537D01*
X102554761Y-66390156D01*
X102649999Y-66390156D01*
X102792857Y-66342537D01*
X102888095Y-66247299D01*
X102935714Y-66152061D01*
X102983333Y-65961585D01*
X102983333Y-65818728D01*
X102935714Y-65628252D01*
X102888095Y-65533014D01*
X102792857Y-65437776D01*
X102649999Y-65390156D01*
X102554761Y-65390156D01*
X102411904Y-65437776D01*
X102364285Y-65485395D01*
X101459523Y-66390156D02*
X101935714Y-66390156D01*
X101935714Y-65390156D01*
X103858095Y-84022380D02*
X103858095Y-83022380D01*
X103620000Y-83022380D01*
X103477142Y-83070000D01*
X103381904Y-83165238D01*
X103334285Y-83260476D01*
X103286666Y-83450952D01*
X103286666Y-83593809D01*
X103334285Y-83784285D01*
X103381904Y-83879523D01*
X103477142Y-83974761D01*
X103620000Y-84022380D01*
X103858095Y-84022380D01*
X102334285Y-84022380D02*
X102905714Y-84022380D01*
X102620000Y-84022380D02*
X102620000Y-83022380D01*
X102715238Y-83165238D01*
X102810476Y-83260476D01*
X102905714Y-83308095D01*
X103935714Y-76179994D02*
X103459524Y-76179994D01*
X104030952Y-76465708D02*
X103697619Y-75465708D01*
X103364286Y-76465708D01*
X102840476Y-75465708D02*
X102745238Y-75465708D01*
X102650000Y-75513328D01*
X102602381Y-75560947D01*
X102554762Y-75656185D01*
X102507143Y-75846661D01*
X102507143Y-76084756D01*
X102554762Y-76275232D01*
X102602381Y-76370470D01*
X102650000Y-76418089D01*
X102745238Y-76465708D01*
X102840476Y-76465708D01*
X102935714Y-76418089D01*
X102983333Y-76370470D01*
X103030952Y-76275232D01*
X103078571Y-76084756D01*
X103078571Y-75846661D01*
X103030952Y-75656185D01*
X102983333Y-75560947D01*
X102935714Y-75513328D01*
X102840476Y-75465708D01*
X103888095Y-81503484D02*
X103888095Y-80503484D01*
X103650000Y-80503484D01*
X103507142Y-80551104D01*
X103411904Y-80646342D01*
X103364285Y-80741580D01*
X103316666Y-80932056D01*
X103316666Y-81074913D01*
X103364285Y-81265389D01*
X103411904Y-81360627D01*
X103507142Y-81455865D01*
X103650000Y-81503484D01*
X103888095Y-81503484D01*
X102697619Y-80503484D02*
X102602380Y-80503484D01*
X102507142Y-80551104D01*
X102459523Y-80598723D01*
X102411904Y-80693961D01*
X102364285Y-80884437D01*
X102364285Y-81122532D01*
X102411904Y-81313008D01*
X102459523Y-81408246D01*
X102507142Y-81455865D01*
X102602380Y-81503484D01*
X102697619Y-81503484D01*
X102792857Y-81455865D01*
X102840476Y-81408246D01*
X102888095Y-81313008D01*
X102935714Y-81122532D01*
X102935714Y-80884437D01*
X102888095Y-80693961D01*
X102840476Y-80598723D01*
X102792857Y-80551104D01*
X102697619Y-80503484D01*
X103935714Y-78698882D02*
X103459524Y-78698882D01*
X104030952Y-78984596D02*
X103697619Y-77984596D01*
X103364286Y-78984596D01*
X102507143Y-78984596D02*
X103078571Y-78984596D01*
X102792857Y-78984596D02*
X102792857Y-77984596D01*
X102888095Y-78127454D01*
X102983333Y-78222692D01*
X103078571Y-78270311D01*
X104080000Y-63490316D02*
X103318095Y-63490316D01*
X103699047Y-63871268D02*
X103699047Y-63109364D01*
X102937142Y-62871268D02*
X102318095Y-62871268D01*
X102651428Y-63252221D01*
X102508571Y-63252221D01*
X102413333Y-63299840D01*
X102365714Y-63347459D01*
X102318095Y-63442697D01*
X102318095Y-63680792D01*
X102365714Y-63776030D01*
X102413333Y-63823649D01*
X102508571Y-63871268D01*
X102794285Y-63871268D01*
X102889523Y-63823649D01*
X102937142Y-63776030D01*
X101889523Y-63776030D02*
X101841904Y-63823649D01*
X101889523Y-63871268D01*
X101937142Y-63823649D01*
X101889523Y-63776030D01*
X101889523Y-63871268D01*
X101508571Y-62871268D02*
X100889523Y-62871268D01*
X101222857Y-63252221D01*
X101080000Y-63252221D01*
X100984761Y-63299840D01*
X100937142Y-63347459D01*
X100889523Y-63442697D01*
X100889523Y-63680792D01*
X100937142Y-63776030D01*
X100984761Y-63823649D01*
X101080000Y-63871268D01*
X101365714Y-63871268D01*
X101460952Y-63823649D01*
X101508571Y-63776030D01*
X100603809Y-62871268D02*
X100270476Y-63871268D01*
X99937142Y-62871268D01*
X103935714Y-68861425D02*
X103792857Y-68909044D01*
X103554762Y-68909044D01*
X103459524Y-68861425D01*
X103411905Y-68813806D01*
X103364286Y-68718568D01*
X103364286Y-68623330D01*
X103411905Y-68528092D01*
X103459524Y-68480473D01*
X103554762Y-68432854D01*
X103745238Y-68385235D01*
X103840476Y-68337616D01*
X103888095Y-68289997D01*
X103935714Y-68194759D01*
X103935714Y-68099521D01*
X103888095Y-68004283D01*
X103840476Y-67956664D01*
X103745238Y-67909044D01*
X103507143Y-67909044D01*
X103364286Y-67956664D01*
X102935714Y-68909044D02*
X102935714Y-67909044D01*
X102697619Y-67909044D01*
X102554762Y-67956664D01*
X102459524Y-68051902D01*
X102411905Y-68147140D01*
X102364286Y-68337616D01*
X102364286Y-68480473D01*
X102411905Y-68670949D01*
X102459524Y-68766187D01*
X102554762Y-68861425D01*
X102697619Y-68909044D01*
X102935714Y-68909044D01*
X101983333Y-68623330D02*
X101507143Y-68623330D01*
X102078571Y-68909044D02*
X101745238Y-67909044D01*
X101411905Y-68909044D01*
D12*
%TO.C,X3*%
X71751766Y-73350599D02*
X72418262Y-73794930D01*
X71751766Y-73794930D02*
X72418262Y-73350599D01*
X71751766Y-73985358D02*
X71751766Y-74397950D01*
X72005669Y-74175785D01*
X72005669Y-74270999D01*
X72037407Y-74334474D01*
X72069145Y-74366212D01*
X72132620Y-74397950D01*
X72291310Y-74397950D01*
X72354786Y-74366212D01*
X72386524Y-74334474D01*
X72418262Y-74270999D01*
X72418262Y-74080571D01*
X72386524Y-74017095D01*
X72354786Y-73985358D01*
D10*
%TO.C,X2*%
X74504523Y-55471904D02*
X75774523Y-56318571D01*
X74504523Y-56318571D02*
X75774523Y-55471904D01*
X74625476Y-56741904D02*
X74565000Y-56802380D01*
X74504523Y-56923333D01*
X74504523Y-57225714D01*
X74565000Y-57346666D01*
X74625476Y-57407142D01*
X74746428Y-57467619D01*
X74867380Y-57467619D01*
X75048809Y-57407142D01*
X75774523Y-56681428D01*
X75774523Y-57467619D01*
%TO.C,SW1*%
X81724333Y-47648761D02*
X81581476Y-47696380D01*
X81343380Y-47696380D01*
X81248142Y-47648761D01*
X81200523Y-47601142D01*
X81152904Y-47505904D01*
X81152904Y-47410666D01*
X81200523Y-47315428D01*
X81248142Y-47267809D01*
X81343380Y-47220190D01*
X81533857Y-47172571D01*
X81629095Y-47124952D01*
X81676714Y-47077333D01*
X81724333Y-46982095D01*
X81724333Y-46886857D01*
X81676714Y-46791619D01*
X81629095Y-46744000D01*
X81533857Y-46696380D01*
X81295761Y-46696380D01*
X81152904Y-46744000D01*
X80819571Y-46696380D02*
X80581476Y-47696380D01*
X80391000Y-46982095D01*
X80200523Y-47696380D01*
X79962428Y-46696380D01*
X79057666Y-47696380D02*
X79629095Y-47696380D01*
X79343380Y-47696380D02*
X79343380Y-46696380D01*
X79438619Y-46839238D01*
X79533857Y-46934476D01*
X79629095Y-46982095D01*
%TO.C,JP1*%
X97933333Y-49752380D02*
X97933333Y-50466666D01*
X97980952Y-50609523D01*
X98076190Y-50704761D01*
X98219047Y-50752380D01*
X98314285Y-50752380D01*
X97457142Y-50752380D02*
X97457142Y-49752380D01*
X97076190Y-49752380D01*
X96980952Y-49800000D01*
X96933333Y-49847619D01*
X96885714Y-49942857D01*
X96885714Y-50085714D01*
X96933333Y-50180952D01*
X96980952Y-50228571D01*
X97076190Y-50276190D01*
X97457142Y-50276190D01*
X95933333Y-50752380D02*
X96504761Y-50752380D01*
X96219047Y-50752380D02*
X96219047Y-49752380D01*
X96314285Y-49895238D01*
X96409523Y-49990476D01*
X96504761Y-50038095D01*
D13*
%TO.C,X3*%
X80240000Y-66700000D02*
X80240000Y-61650000D01*
X79740000Y-75600000D02*
X79740000Y-75850000D01*
X80240000Y-72650000D02*
X80240000Y-68950000D01*
X80240000Y-74950000D02*
X80240000Y-75600000D01*
X79740000Y-75850000D02*
X67790000Y-75850000D01*
X80240000Y-75600000D02*
X79740000Y-75600000D01*
X80240000Y-61650000D02*
X66890000Y-61650000D01*
D14*
%TO.C,X2*%
X70550000Y-52550000D02*
X66550000Y-52550000D01*
X74050000Y-58800000D02*
X74050000Y-54300000D01*
X66550000Y-52550000D02*
X66550000Y-53400000D01*
X69050000Y-59700000D02*
X66550000Y-59700000D01*
X66550000Y-59700000D02*
X66550000Y-60550000D01*
X66550000Y-53400000D02*
X69050000Y-53400000D01*
X69050000Y-53400000D02*
X69050000Y-54800000D01*
X66550000Y-60550000D02*
X70550000Y-60550000D01*
X69050000Y-58300000D02*
X69050000Y-59700000D01*
D15*
%TO.C,SW1*%
X72026134Y-45669200D02*
X76213864Y-45669200D01*
X72241161Y-48920400D02*
X71998840Y-48920400D01*
X78603099Y-48920400D02*
X75998842Y-48920400D01*
X70241160Y-48920400D02*
X69636899Y-48920400D01*
X69636899Y-48920400D02*
X69636899Y-45669200D01*
X74241162Y-48920400D02*
X73998841Y-48920400D01*
X78603099Y-45669200D02*
X78603099Y-48920400D01*
X78276134Y-45669200D02*
X78603099Y-45669200D01*
X69636899Y-45669200D02*
X69963864Y-45669200D01*
X68239899Y-49784000D02*
G75*
G03*
X68239899Y-49784000I-381000J0D01*
G01*
D16*
%TO.C,JP1*%
X104318000Y-51960000D02*
X105908000Y-51960000D01*
X94808000Y-57310000D02*
X93218000Y-57310000D01*
X94808000Y-51960000D02*
X93218000Y-51960000D01*
D15*
X101468000Y-52310000D02*
X101468000Y-51610000D01*
X97668000Y-52310000D02*
X97668000Y-51610000D01*
D16*
X105908000Y-52010000D02*
X105908000Y-57310000D01*
X104318000Y-57310000D02*
X105908000Y-57310000D01*
X93218000Y-57260000D02*
X93218000Y-51960000D01*
D17*
X93673000Y-51510000D02*
G75*
G03*
X93673000Y-51510000I-155000J0D01*
G01*
D18*
%TO.C,REF2*%
X90670986Y-62932998D02*
X90512994Y-62933863D01*
X90512994Y-62933863D02*
X90398653Y-62936205D01*
X90398653Y-62936205D02*
X90320593Y-62940762D01*
X90320593Y-62940762D02*
X90271446Y-62948270D01*
X90271446Y-62948270D02*
X90243841Y-62959466D01*
X90243841Y-62959466D02*
X90230408Y-62975088D01*
X90230408Y-62975088D02*
X90223779Y-62995873D01*
X90223779Y-62995873D02*
X90223135Y-62998563D01*
X90223135Y-62998563D02*
X90213065Y-63047113D01*
X90213065Y-63047113D02*
X90194425Y-63142905D01*
X90194425Y-63142905D02*
X90169155Y-63275743D01*
X90169155Y-63275743D02*
X90139193Y-63435431D01*
X90139193Y-63435431D02*
X90106478Y-63611774D01*
X90106478Y-63611774D02*
X90105336Y-63617967D01*
X90105336Y-63617967D02*
X90072567Y-63790782D01*
X90072567Y-63790782D02*
X90041907Y-63943469D01*
X90041907Y-63943469D02*
X90015336Y-64066871D01*
X90015336Y-64066871D02*
X89994833Y-64151831D01*
X89994833Y-64151831D02*
X89982374Y-64189190D01*
X89982374Y-64189190D02*
X89981780Y-64189852D01*
X89981780Y-64189852D02*
X89945081Y-64208095D01*
X89945081Y-64208095D02*
X89869414Y-64238497D01*
X89869414Y-64238497D02*
X89771122Y-64274493D01*
X89771122Y-64274493D02*
X89770575Y-64274685D01*
X89770575Y-64274685D02*
X89646767Y-64321222D01*
X89646767Y-64321222D02*
X89500804Y-64380504D01*
X89500804Y-64380504D02*
X89363219Y-64440109D01*
X89363219Y-64440109D02*
X89356707Y-64443056D01*
X89356707Y-64443056D02*
X89132610Y-64544765D01*
X89132610Y-64544765D02*
X88636381Y-64205897D01*
X88636381Y-64205897D02*
X88484154Y-64102592D01*
X88484154Y-64102592D02*
X88346259Y-64010237D01*
X88346259Y-64010237D02*
X88230685Y-63934084D01*
X88230685Y-63934084D02*
X88145421Y-63879385D01*
X88145421Y-63879385D02*
X88098456Y-63851393D01*
X88098456Y-63851393D02*
X88093996Y-63849317D01*
X88093996Y-63849317D02*
X88059866Y-63858560D01*
X88059866Y-63858560D02*
X87996119Y-63903156D01*
X87996119Y-63903156D02*
X87900269Y-63985209D01*
X87900269Y-63985209D02*
X87769831Y-64106821D01*
X87769831Y-64106821D02*
X87636672Y-64236205D01*
X87636672Y-64236205D02*
X87508306Y-64363702D01*
X87508306Y-64363702D02*
X87393419Y-64480046D01*
X87393419Y-64480046D02*
X87298927Y-64578052D01*
X87298927Y-64578052D02*
X87231747Y-64650536D01*
X87231747Y-64650536D02*
X87198794Y-64690313D01*
X87198794Y-64690313D02*
X87197568Y-64692361D01*
X87197568Y-64692361D02*
X87193926Y-64719656D01*
X87193926Y-64719656D02*
X87207650Y-64764234D01*
X87207650Y-64764234D02*
X87242131Y-64832112D01*
X87242131Y-64832112D02*
X87300761Y-64929311D01*
X87300761Y-64929311D02*
X87386930Y-65061851D01*
X87386930Y-65061851D02*
X87501800Y-65232476D01*
X87501800Y-65232476D02*
X87603746Y-65382655D01*
X87603746Y-65382655D02*
X87694877Y-65517350D01*
X87694877Y-65517350D02*
X87769927Y-65628740D01*
X87769927Y-65628740D02*
X87823631Y-65709005D01*
X87823631Y-65709005D02*
X87850720Y-65750325D01*
X87850720Y-65750325D02*
X87852426Y-65753130D01*
X87852426Y-65753130D02*
X87849118Y-65792721D01*
X87849118Y-65792721D02*
X87824047Y-65869669D01*
X87824047Y-65869669D02*
X87782202Y-65969432D01*
X87782202Y-65969432D02*
X87767288Y-66001291D01*
X87767288Y-66001291D02*
X87702214Y-66143226D01*
X87702214Y-66143226D02*
X87632788Y-66304273D01*
X87632788Y-66304273D02*
X87576391Y-66443621D01*
X87576391Y-66443621D02*
X87535753Y-66547044D01*
X87535753Y-66547044D02*
X87503474Y-66625642D01*
X87503474Y-66625642D02*
X87484822Y-66666720D01*
X87484822Y-66666720D02*
X87482503Y-66669885D01*
X87482503Y-66669885D02*
X87448197Y-66675128D01*
X87448197Y-66675128D02*
X87367331Y-66689494D01*
X87367331Y-66689494D02*
X87250657Y-66710937D01*
X87250657Y-66710937D02*
X87108925Y-66737413D01*
X87108925Y-66737413D02*
X86952890Y-66766877D01*
X86952890Y-66766877D02*
X86793302Y-66797283D01*
X86793302Y-66797283D02*
X86640915Y-66826588D01*
X86640915Y-66826588D02*
X86506479Y-66852745D01*
X86506479Y-66852745D02*
X86400748Y-66873710D01*
X86400748Y-66873710D02*
X86334474Y-66887439D01*
X86334474Y-66887439D02*
X86318218Y-66891320D01*
X86318218Y-66891320D02*
X86301427Y-66900900D01*
X86301427Y-66900900D02*
X86288751Y-66922536D01*
X86288751Y-66922536D02*
X86279622Y-66963531D01*
X86279622Y-66963531D02*
X86273469Y-67031189D01*
X86273469Y-67031189D02*
X86269720Y-67132812D01*
X86269720Y-67132812D02*
X86267808Y-67275703D01*
X86267808Y-67275703D02*
X86267160Y-67467165D01*
X86267160Y-67467165D02*
X86267126Y-67545645D01*
X86267126Y-67545645D02*
X86267126Y-68183906D01*
X86267126Y-68183906D02*
X86420402Y-68214160D01*
X86420402Y-68214160D02*
X86505678Y-68230564D01*
X86505678Y-68230564D02*
X86632930Y-68254509D01*
X86632930Y-68254509D02*
X86786685Y-68283107D01*
X86786685Y-68283107D02*
X86951466Y-68313467D01*
X86951466Y-68313467D02*
X86997011Y-68321806D01*
X86997011Y-68321806D02*
X87149068Y-68351370D01*
X87149068Y-68351370D02*
X87281532Y-68380442D01*
X87281532Y-68380442D02*
X87383286Y-68406329D01*
X87383286Y-68406329D02*
X87443212Y-68426337D01*
X87443212Y-68426337D02*
X87453195Y-68432301D01*
X87453195Y-68432301D02*
X87477707Y-68474534D01*
X87477707Y-68474534D02*
X87512852Y-68556370D01*
X87512852Y-68556370D02*
X87551827Y-68661683D01*
X87551827Y-68661683D02*
X87559558Y-68684368D01*
X87559558Y-68684368D02*
X87610640Y-68825018D01*
X87610640Y-68825018D02*
X87674046Y-68983714D01*
X87674046Y-68983714D02*
X87736096Y-69126225D01*
X87736096Y-69126225D02*
X87736402Y-69126886D01*
X87736402Y-69126886D02*
X87839733Y-69350440D01*
X87839733Y-69350440D02*
X87160039Y-70350232D01*
X87160039Y-70350232D02*
X87596379Y-70787300D01*
X87596379Y-70787300D02*
X87728351Y-70917381D01*
X87728351Y-70917381D02*
X87848721Y-71032048D01*
X87848721Y-71032048D02*
X87950727Y-71125181D01*
X87950727Y-71125181D02*
X88027609Y-71190658D01*
X88027609Y-71190658D02*
X88072607Y-71222357D01*
X88072607Y-71222357D02*
X88079062Y-71224368D01*
X88079062Y-71224368D02*
X88116960Y-71208529D01*
X88116960Y-71208529D02*
X88194292Y-71164496D01*
X88194292Y-71164496D02*
X88302611Y-71097490D01*
X88302611Y-71097490D02*
X88433468Y-71012734D01*
X88433468Y-71012734D02*
X88574948Y-70917816D01*
X88574948Y-70917816D02*
X88718539Y-70820998D01*
X88718539Y-70820998D02*
X88846565Y-70736751D01*
X88846565Y-70736751D02*
X88950895Y-70670258D01*
X88950895Y-70670258D02*
X89023400Y-70626702D01*
X89023400Y-70626702D02*
X89055842Y-70611264D01*
X89055842Y-70611264D02*
X89095424Y-70624328D01*
X89095424Y-70624328D02*
X89170481Y-70658750D01*
X89170481Y-70658750D02*
X89265532Y-70707380D01*
X89265532Y-70707380D02*
X89275608Y-70712785D01*
X89275608Y-70712785D02*
X89403609Y-70776980D01*
X89403609Y-70776980D02*
X89491382Y-70808463D01*
X89491382Y-70808463D02*
X89545972Y-70808798D01*
X89545972Y-70808798D02*
X89574425Y-70779548D01*
X89574425Y-70779548D02*
X89574590Y-70779138D01*
X89574590Y-70779138D02*
X89588812Y-70744498D01*
X89588812Y-70744498D02*
X89622731Y-70662269D01*
X89622731Y-70662269D02*
X89673716Y-70538814D01*
X89673716Y-70538814D02*
X89739138Y-70380498D01*
X89739138Y-70380498D02*
X89816366Y-70193686D01*
X89816366Y-70193686D02*
X89902771Y-69984742D01*
X89902771Y-69984742D02*
X89986449Y-69782446D01*
X89986449Y-69782446D02*
X90078412Y-69559200D01*
X90078412Y-69559200D02*
X90162850Y-69352392D01*
X90162850Y-69352392D02*
X90237231Y-69168362D01*
X90237231Y-69168362D02*
X90299026Y-69013451D01*
X90299026Y-69013451D02*
X90345703Y-68893996D01*
X90345703Y-68893996D02*
X90374732Y-68816339D01*
X90374732Y-68816339D02*
X90383678Y-68787356D01*
X90383678Y-68787356D02*
X90361244Y-68754110D01*
X90361244Y-68754110D02*
X90302561Y-68701123D01*
X90302561Y-68701123D02*
X90224311Y-68642704D01*
X90224311Y-68642704D02*
X90001466Y-68457952D01*
X90001466Y-68457952D02*
X89827282Y-68246182D01*
X89827282Y-68246182D02*
X89703846Y-68011856D01*
X89703846Y-68011856D02*
X89633246Y-67759434D01*
X89633246Y-67759434D02*
X89617569Y-67493377D01*
X89617569Y-67493377D02*
X89628964Y-67370575D01*
X89628964Y-67370575D02*
X89691050Y-67115793D01*
X89691050Y-67115793D02*
X89797977Y-66890801D01*
X89797977Y-66890801D02*
X89943111Y-66697817D01*
X89943111Y-66697817D02*
X90119822Y-66539061D01*
X90119822Y-66539061D02*
X90321478Y-66416750D01*
X90321478Y-66416750D02*
X90541446Y-66333105D01*
X90541446Y-66333105D02*
X90773094Y-66290344D01*
X90773094Y-66290344D02*
X91009791Y-66290687D01*
X91009791Y-66290687D02*
X91244905Y-66336352D01*
X91244905Y-66336352D02*
X91471804Y-66429559D01*
X91471804Y-66429559D02*
X91683856Y-66572527D01*
X91683856Y-66572527D02*
X91772364Y-66653383D01*
X91772364Y-66653383D02*
X91942111Y-66861007D01*
X91942111Y-66861007D02*
X92060301Y-67087895D01*
X92060301Y-67087895D02*
X92127722Y-67327433D01*
X92127722Y-67327433D02*
X92145160Y-67573007D01*
X92145160Y-67573007D02*
X92113402Y-67818003D01*
X92113402Y-67818003D02*
X92033235Y-68055808D01*
X92033235Y-68055808D02*
X91905445Y-68279807D01*
X91905445Y-68279807D02*
X91730820Y-68483387D01*
X91730820Y-68483387D02*
X91535688Y-68642704D01*
X91535688Y-68642704D02*
X91454409Y-68703602D01*
X91454409Y-68703602D02*
X91396991Y-68756015D01*
X91396991Y-68756015D02*
X91376322Y-68787406D01*
X91376322Y-68787406D02*
X91387144Y-68821639D01*
X91387144Y-68821639D02*
X91417923Y-68903419D01*
X91417923Y-68903419D02*
X91466126Y-69026407D01*
X91466126Y-69026407D02*
X91529222Y-69184263D01*
X91529222Y-69184263D02*
X91604678Y-69370649D01*
X91604678Y-69370649D02*
X91689962Y-69579226D01*
X91689962Y-69579226D02*
X91773781Y-69782496D01*
X91773781Y-69782496D02*
X91866255Y-70005933D01*
X91866255Y-70005933D02*
X91951911Y-70212984D01*
X91951911Y-70212984D02*
X92028118Y-70397286D01*
X92028118Y-70397286D02*
X92092247Y-70552475D01*
X92092247Y-70552475D02*
X92141668Y-70672188D01*
X92141668Y-70672188D02*
X92173752Y-70750061D01*
X92173752Y-70750061D02*
X92185641Y-70779138D01*
X92185641Y-70779138D02*
X92213726Y-70808677D01*
X92213726Y-70808677D02*
X92268051Y-70808591D01*
X92268051Y-70808591D02*
X92355605Y-70777326D01*
X92355605Y-70777326D02*
X92483381Y-70713329D01*
X92483381Y-70713329D02*
X92484392Y-70712785D01*
X92484392Y-70712785D02*
X92580598Y-70663121D01*
X92580598Y-70663121D02*
X92658369Y-70626945D01*
X92658369Y-70626945D02*
X92702223Y-70611408D01*
X92702223Y-70611408D02*
X92704158Y-70611264D01*
X92704158Y-70611264D02*
X92737171Y-70627024D01*
X92737171Y-70627024D02*
X92810054Y-70670850D01*
X92810054Y-70670850D02*
X92914678Y-70737557D01*
X92914678Y-70737557D02*
X93042910Y-70821964D01*
X93042910Y-70821964D02*
X93185052Y-70917816D01*
X93185052Y-70917816D02*
X93329767Y-71014867D01*
X93329767Y-71014867D02*
X93460196Y-71099270D01*
X93460196Y-71099270D02*
X93567890Y-71165801D01*
X93567890Y-71165801D02*
X93644402Y-71209238D01*
X93644402Y-71209238D02*
X93680938Y-71224368D01*
X93680938Y-71224368D02*
X93714582Y-71204482D01*
X93714582Y-71204482D02*
X93782224Y-71148903D01*
X93782224Y-71148903D02*
X93877107Y-71063754D01*
X93877107Y-71063754D02*
X93992470Y-70955153D01*
X93992470Y-70955153D02*
X94121555Y-70829221D01*
X94121555Y-70829221D02*
X94163771Y-70787149D01*
X94163771Y-70787149D02*
X94600261Y-70349931D01*
X94600261Y-70349931D02*
X94268023Y-69862340D01*
X94268023Y-69862340D02*
X94167054Y-69712605D01*
X94167054Y-69712605D02*
X94078438Y-69578220D01*
X94078438Y-69578220D02*
X94007146Y-69466969D01*
X94007146Y-69466969D02*
X93958150Y-69386639D01*
X93958150Y-69386639D02*
X93936422Y-69345014D01*
X93936422Y-69345014D02*
X93935785Y-69342053D01*
X93935785Y-69342053D02*
X93947240Y-69302818D01*
X93947240Y-69302818D02*
X93978051Y-69223895D01*
X93978051Y-69223895D02*
X94022884Y-69118509D01*
X94022884Y-69118509D02*
X94054353Y-69047954D01*
X94054353Y-69047954D02*
X94113192Y-68912876D01*
X94113192Y-68912876D02*
X94168604Y-68776409D01*
X94168604Y-68776409D02*
X94211564Y-68661103D01*
X94211564Y-68661103D02*
X94223234Y-68625977D01*
X94223234Y-68625977D02*
X94256389Y-68532174D01*
X94256389Y-68532174D02*
X94288799Y-68459694D01*
X94288799Y-68459694D02*
X94306601Y-68432301D01*
X94306601Y-68432301D02*
X94345886Y-68415536D01*
X94345886Y-68415536D02*
X94431626Y-68391770D01*
X94431626Y-68391770D02*
X94552697Y-68363697D01*
X94552697Y-68363697D02*
X94697973Y-68334009D01*
X94697973Y-68334009D02*
X94762988Y-68321806D01*
X94762988Y-68321806D02*
X94928087Y-68291468D01*
X94928087Y-68291468D02*
X95086448Y-68262093D01*
X95086448Y-68262093D02*
X95222596Y-68236569D01*
X95222596Y-68236569D02*
X95321057Y-68217785D01*
X95321057Y-68217785D02*
X95339598Y-68214160D01*
X95339598Y-68214160D02*
X95492873Y-68183906D01*
X95492873Y-68183906D02*
X95492873Y-67545645D01*
X95492873Y-67545645D02*
X95492529Y-67335770D01*
X95492529Y-67335770D02*
X95491116Y-67176980D01*
X95491116Y-67176980D02*
X95488064Y-67061973D01*
X95488064Y-67061973D02*
X95482803Y-66983446D01*
X95482803Y-66983446D02*
X95474763Y-66934096D01*
X95474763Y-66934096D02*
X95463373Y-66906619D01*
X95463373Y-66906619D02*
X95448063Y-66893713D01*
X95448063Y-66893713D02*
X95441782Y-66891320D01*
X95441782Y-66891320D02*
X95403896Y-66882833D01*
X95403896Y-66882833D02*
X95320195Y-66865900D01*
X95320195Y-66865900D02*
X95201433Y-66842566D01*
X95201433Y-66842566D02*
X95058361Y-66814875D01*
X95058361Y-66814875D02*
X94901732Y-66784873D01*
X94901732Y-66784873D02*
X94742297Y-66754604D01*
X94742297Y-66754604D02*
X94590809Y-66726115D01*
X94590809Y-66726115D02*
X94458019Y-66701449D01*
X94458019Y-66701449D02*
X94354681Y-66682651D01*
X94354681Y-66682651D02*
X94291545Y-66671767D01*
X94291545Y-66671767D02*
X94277497Y-66669885D01*
X94277497Y-66669885D02*
X94264770Y-66644704D01*
X94264770Y-66644704D02*
X94236600Y-66577622D01*
X94236600Y-66577622D02*
X94198252Y-66481333D01*
X94198252Y-66481333D02*
X94183609Y-66443621D01*
X94183609Y-66443621D02*
X94124548Y-66297921D01*
X94124548Y-66297921D02*
X94055000Y-66136951D01*
X94055000Y-66136951D02*
X93992712Y-66001291D01*
X93992712Y-66001291D02*
X93946879Y-65897561D01*
X93946879Y-65897561D02*
X93916387Y-65812326D01*
X93916387Y-65812326D02*
X93906208Y-65760126D01*
X93906208Y-65760126D02*
X93907831Y-65753130D01*
X93907831Y-65753130D02*
X93929343Y-65720102D01*
X93929343Y-65720102D02*
X93978465Y-65646643D01*
X93978465Y-65646643D02*
X94049923Y-65540577D01*
X94049923Y-65540577D02*
X94138445Y-65409726D01*
X94138445Y-65409726D02*
X94238759Y-65261912D01*
X94238759Y-65261912D02*
X94258594Y-65232734D01*
X94258594Y-65232734D02*
X94374988Y-65059863D01*
X94374988Y-65059863D02*
X94460548Y-64928226D01*
X94460548Y-64928226D02*
X94518684Y-64831761D01*
X94518684Y-64831761D02*
X94552808Y-64764408D01*
X94552808Y-64764408D02*
X94566331Y-64720106D01*
X94566331Y-64720106D02*
X94562664Y-64692794D01*
X94562664Y-64692794D02*
X94562570Y-64692620D01*
X94562570Y-64692620D02*
X94533707Y-64656746D01*
X94533707Y-64656746D02*
X94469867Y-64587391D01*
X94469867Y-64587391D02*
X94377969Y-64491745D01*
X94377969Y-64491745D02*
X94264933Y-64376999D01*
X94264933Y-64376999D02*
X94137679Y-64250341D01*
X94137679Y-64250341D02*
X94123328Y-64236205D01*
X94123328Y-64236205D02*
X93962957Y-64080903D01*
X93962957Y-64080903D02*
X93839195Y-63966870D01*
X93839195Y-63966870D02*
X93749555Y-63892002D01*
X93749555Y-63892002D02*
X93691552Y-63854196D01*
X93691552Y-63854196D02*
X93666004Y-63849317D01*
X93666004Y-63849317D02*
X93628718Y-63870603D01*
X93628718Y-63870603D02*
X93551343Y-63919773D01*
X93551343Y-63919773D02*
X93441867Y-63991575D01*
X93441867Y-63991575D02*
X93308280Y-64080755D01*
X93308280Y-64080755D02*
X93158570Y-64182063D01*
X93158570Y-64182063D02*
X93123618Y-64205897D01*
X93123618Y-64205897D02*
X92627390Y-64544765D01*
X92627390Y-64544765D02*
X92403293Y-64443056D01*
X92403293Y-64443056D02*
X92267011Y-64383783D01*
X92267011Y-64383783D02*
X92120724Y-64324170D01*
X92120724Y-64324170D02*
X91994965Y-64276640D01*
X91994965Y-64276640D02*
X91989425Y-64274685D01*
X91989425Y-64274685D02*
X91891057Y-64238677D01*
X91891057Y-64238677D02*
X91815229Y-64208229D01*
X91815229Y-64208229D02*
X91778282Y-64189905D01*
X91778282Y-64189905D02*
X91778220Y-64189852D01*
X91778220Y-64189852D02*
X91766496Y-64156729D01*
X91766496Y-64156729D02*
X91746568Y-64075267D01*
X91746568Y-64075267D02*
X91720413Y-63954625D01*
X91720413Y-63954625D02*
X91690010Y-63803959D01*
X91690010Y-63803959D02*
X91657337Y-63632428D01*
X91657337Y-63632428D02*
X91654664Y-63617967D01*
X91654664Y-63617967D02*
X91621890Y-63441235D01*
X91621890Y-63441235D02*
X91591802Y-63280810D01*
X91591802Y-63280810D02*
X91566339Y-63146888D01*
X91566339Y-63146888D02*
X91547441Y-63049663D01*
X91547441Y-63049663D02*
X91537047Y-62999332D01*
X91537047Y-62999332D02*
X91536865Y-62998563D01*
X91536865Y-62998563D02*
X91530539Y-62977153D01*
X91530539Y-62977153D02*
X91518239Y-62960988D01*
X91518239Y-62960988D02*
X91492594Y-62949331D01*
X91492594Y-62949331D02*
X91446235Y-62941445D01*
X91446235Y-62941445D02*
X91371792Y-62936593D01*
X91371792Y-62936593D02*
X91261895Y-62934039D01*
X91261895Y-62934039D02*
X91109175Y-62933045D01*
X91109175Y-62933045D02*
X90906262Y-62932874D01*
X90906262Y-62932874D02*
X90880000Y-62932874D01*
X90880000Y-62932874D02*
X90670986Y-62932998D01*
X90670986Y-62932998D02*
X90670986Y-62932998D01*
G36*
X91109175Y-62933045D02*
G01*
X91261895Y-62934039D01*
X91371792Y-62936593D01*
X91446235Y-62941445D01*
X91492594Y-62949331D01*
X91518239Y-62960988D01*
X91530539Y-62977153D01*
X91536865Y-62998563D01*
X91537047Y-62999332D01*
X91547441Y-63049663D01*
X91566339Y-63146888D01*
X91591802Y-63280810D01*
X91621890Y-63441235D01*
X91654664Y-63617967D01*
X91657337Y-63632428D01*
X91690010Y-63803959D01*
X91720413Y-63954625D01*
X91746568Y-64075267D01*
X91766496Y-64156729D01*
X91778220Y-64189852D01*
X91778282Y-64189905D01*
X91815229Y-64208229D01*
X91891057Y-64238677D01*
X91989425Y-64274685D01*
X91994965Y-64276640D01*
X92120724Y-64324170D01*
X92267011Y-64383783D01*
X92403293Y-64443056D01*
X92627390Y-64544765D01*
X93123618Y-64205897D01*
X93158570Y-64182063D01*
X93308280Y-64080755D01*
X93441867Y-63991575D01*
X93551343Y-63919773D01*
X93628718Y-63870603D01*
X93666004Y-63849317D01*
X93691552Y-63854196D01*
X93749555Y-63892002D01*
X93839195Y-63966870D01*
X93962957Y-64080903D01*
X94123328Y-64236205D01*
X94137679Y-64250341D01*
X94264933Y-64376999D01*
X94377969Y-64491745D01*
X94469867Y-64587391D01*
X94533707Y-64656746D01*
X94562570Y-64692620D01*
X94562664Y-64692794D01*
X94566331Y-64720106D01*
X94552808Y-64764408D01*
X94518684Y-64831761D01*
X94460548Y-64928226D01*
X94374988Y-65059863D01*
X94258594Y-65232734D01*
X94238759Y-65261912D01*
X94138445Y-65409726D01*
X94049923Y-65540577D01*
X93978465Y-65646643D01*
X93929343Y-65720102D01*
X93907831Y-65753130D01*
X93906208Y-65760126D01*
X93916387Y-65812326D01*
X93946879Y-65897561D01*
X93992712Y-66001291D01*
X94055000Y-66136951D01*
X94124548Y-66297921D01*
X94183609Y-66443621D01*
X94198252Y-66481333D01*
X94236600Y-66577622D01*
X94264770Y-66644704D01*
X94277497Y-66669885D01*
X94291545Y-66671767D01*
X94354681Y-66682651D01*
X94458019Y-66701449D01*
X94590809Y-66726115D01*
X94742297Y-66754604D01*
X94901732Y-66784873D01*
X95058361Y-66814875D01*
X95201433Y-66842566D01*
X95320195Y-66865900D01*
X95403896Y-66882833D01*
X95441782Y-66891320D01*
X95448063Y-66893713D01*
X95463373Y-66906619D01*
X95474763Y-66934096D01*
X95482803Y-66983446D01*
X95488064Y-67061973D01*
X95491116Y-67176980D01*
X95492529Y-67335770D01*
X95492873Y-67545645D01*
X95492873Y-68183906D01*
X95339598Y-68214160D01*
X95321057Y-68217785D01*
X95222596Y-68236569D01*
X95086448Y-68262093D01*
X94928087Y-68291468D01*
X94762988Y-68321806D01*
X94697973Y-68334009D01*
X94552697Y-68363697D01*
X94431626Y-68391770D01*
X94345886Y-68415536D01*
X94306601Y-68432301D01*
X94288799Y-68459694D01*
X94256389Y-68532174D01*
X94223234Y-68625977D01*
X94211564Y-68661103D01*
X94168604Y-68776409D01*
X94113192Y-68912876D01*
X94054353Y-69047954D01*
X94022884Y-69118509D01*
X93978051Y-69223895D01*
X93947240Y-69302818D01*
X93935785Y-69342053D01*
X93936422Y-69345014D01*
X93958150Y-69386639D01*
X94007146Y-69466969D01*
X94078438Y-69578220D01*
X94167054Y-69712605D01*
X94268023Y-69862340D01*
X94600261Y-70349931D01*
X94163771Y-70787149D01*
X94121555Y-70829221D01*
X93992470Y-70955153D01*
X93877107Y-71063754D01*
X93782224Y-71148903D01*
X93714582Y-71204482D01*
X93680938Y-71224368D01*
X93644402Y-71209238D01*
X93567890Y-71165801D01*
X93460196Y-71099270D01*
X93329767Y-71014867D01*
X93185052Y-70917816D01*
X93042910Y-70821964D01*
X92914678Y-70737557D01*
X92810054Y-70670850D01*
X92737171Y-70627024D01*
X92704158Y-70611264D01*
X92702223Y-70611408D01*
X92658369Y-70626945D01*
X92580598Y-70663121D01*
X92484392Y-70712785D01*
X92483381Y-70713329D01*
X92355605Y-70777326D01*
X92268051Y-70808591D01*
X92213726Y-70808677D01*
X92185641Y-70779138D01*
X92173752Y-70750061D01*
X92141668Y-70672188D01*
X92092247Y-70552475D01*
X92028118Y-70397286D01*
X91951911Y-70212984D01*
X91866255Y-70005933D01*
X91773781Y-69782496D01*
X91689962Y-69579226D01*
X91604678Y-69370649D01*
X91529222Y-69184263D01*
X91466126Y-69026407D01*
X91417923Y-68903419D01*
X91387144Y-68821639D01*
X91376322Y-68787406D01*
X91396991Y-68756015D01*
X91454409Y-68703602D01*
X91535688Y-68642704D01*
X91730820Y-68483387D01*
X91905445Y-68279807D01*
X92033235Y-68055808D01*
X92113402Y-67818003D01*
X92145160Y-67573007D01*
X92127722Y-67327433D01*
X92060301Y-67087895D01*
X91942111Y-66861007D01*
X91772364Y-66653383D01*
X91683856Y-66572527D01*
X91471804Y-66429559D01*
X91244905Y-66336352D01*
X91009791Y-66290687D01*
X90773094Y-66290344D01*
X90541446Y-66333105D01*
X90321478Y-66416750D01*
X90119822Y-66539061D01*
X89943111Y-66697817D01*
X89797977Y-66890801D01*
X89691050Y-67115793D01*
X89628964Y-67370575D01*
X89617569Y-67493377D01*
X89633246Y-67759434D01*
X89703846Y-68011856D01*
X89827282Y-68246182D01*
X90001466Y-68457952D01*
X90224311Y-68642704D01*
X90302561Y-68701123D01*
X90361244Y-68754110D01*
X90383678Y-68787356D01*
X90374732Y-68816339D01*
X90345703Y-68893996D01*
X90299026Y-69013451D01*
X90237231Y-69168362D01*
X90162850Y-69352392D01*
X90078412Y-69559200D01*
X89986449Y-69782446D01*
X89902771Y-69984742D01*
X89816366Y-70193686D01*
X89739138Y-70380498D01*
X89673716Y-70538814D01*
X89622731Y-70662269D01*
X89588812Y-70744498D01*
X89574590Y-70779138D01*
X89574425Y-70779548D01*
X89545972Y-70808798D01*
X89491382Y-70808463D01*
X89403609Y-70776980D01*
X89275608Y-70712785D01*
X89265532Y-70707380D01*
X89170481Y-70658750D01*
X89095424Y-70624328D01*
X89055842Y-70611264D01*
X89023400Y-70626702D01*
X88950895Y-70670258D01*
X88846565Y-70736751D01*
X88718539Y-70820998D01*
X88574948Y-70917816D01*
X88433468Y-71012734D01*
X88302611Y-71097490D01*
X88194292Y-71164496D01*
X88116960Y-71208529D01*
X88079062Y-71224368D01*
X88072607Y-71222357D01*
X88027609Y-71190658D01*
X87950727Y-71125181D01*
X87848721Y-71032048D01*
X87728351Y-70917381D01*
X87596379Y-70787300D01*
X87160039Y-70350232D01*
X87839733Y-69350440D01*
X87736402Y-69126886D01*
X87736096Y-69126225D01*
X87674046Y-68983714D01*
X87610640Y-68825018D01*
X87559558Y-68684368D01*
X87551827Y-68661683D01*
X87512852Y-68556370D01*
X87477707Y-68474534D01*
X87453195Y-68432301D01*
X87443212Y-68426337D01*
X87383286Y-68406329D01*
X87281532Y-68380442D01*
X87149068Y-68351370D01*
X86997011Y-68321806D01*
X86951466Y-68313467D01*
X86786685Y-68283107D01*
X86632930Y-68254509D01*
X86505678Y-68230564D01*
X86420402Y-68214160D01*
X86267126Y-68183906D01*
X86267126Y-67545645D01*
X86267160Y-67467165D01*
X86267808Y-67275703D01*
X86269720Y-67132812D01*
X86273469Y-67031189D01*
X86279622Y-66963531D01*
X86288751Y-66922536D01*
X86301427Y-66900900D01*
X86318218Y-66891320D01*
X86334474Y-66887439D01*
X86400748Y-66873710D01*
X86506479Y-66852745D01*
X86640915Y-66826588D01*
X86793302Y-66797283D01*
X86952890Y-66766877D01*
X87108925Y-66737413D01*
X87250657Y-66710937D01*
X87367331Y-66689494D01*
X87448197Y-66675128D01*
X87482503Y-66669885D01*
X87484822Y-66666720D01*
X87503474Y-66625642D01*
X87535753Y-66547044D01*
X87576391Y-66443621D01*
X87632788Y-66304273D01*
X87702214Y-66143226D01*
X87767288Y-66001291D01*
X87782202Y-65969432D01*
X87824047Y-65869669D01*
X87849118Y-65792721D01*
X87852426Y-65753130D01*
X87850720Y-65750325D01*
X87823631Y-65709005D01*
X87769927Y-65628740D01*
X87694877Y-65517350D01*
X87603746Y-65382655D01*
X87501800Y-65232476D01*
X87386930Y-65061851D01*
X87300761Y-64929311D01*
X87242131Y-64832112D01*
X87207650Y-64764234D01*
X87193926Y-64719656D01*
X87197568Y-64692361D01*
X87198794Y-64690313D01*
X87231747Y-64650536D01*
X87298927Y-64578052D01*
X87393419Y-64480046D01*
X87508306Y-64363702D01*
X87636672Y-64236205D01*
X87769831Y-64106821D01*
X87900269Y-63985209D01*
X87996119Y-63903156D01*
X88059866Y-63858560D01*
X88093996Y-63849317D01*
X88098456Y-63851393D01*
X88145421Y-63879385D01*
X88230685Y-63934084D01*
X88346259Y-64010237D01*
X88484154Y-64102592D01*
X88636381Y-64205897D01*
X89132610Y-64544765D01*
X89356707Y-64443056D01*
X89363219Y-64440109D01*
X89500804Y-64380504D01*
X89646767Y-64321222D01*
X89770575Y-64274685D01*
X89771122Y-64274493D01*
X89869414Y-64238497D01*
X89945081Y-64208095D01*
X89981780Y-64189852D01*
X89982374Y-64189190D01*
X89994833Y-64151831D01*
X90015336Y-64066871D01*
X90041907Y-63943469D01*
X90072567Y-63790782D01*
X90105336Y-63617967D01*
X90106478Y-63611774D01*
X90139193Y-63435431D01*
X90169155Y-63275743D01*
X90194425Y-63142905D01*
X90213065Y-63047113D01*
X90223135Y-62998563D01*
X90223779Y-62995873D01*
X90230408Y-62975088D01*
X90243841Y-62959466D01*
X90271446Y-62948270D01*
X90320593Y-62940762D01*
X90398653Y-62936205D01*
X90512994Y-62933863D01*
X90670986Y-62932998D01*
X90880000Y-62932874D01*
X90906262Y-62932874D01*
X91109175Y-62933045D01*
G37*
X91109175Y-62933045D02*
X91261895Y-62934039D01*
X91371792Y-62936593D01*
X91446235Y-62941445D01*
X91492594Y-62949331D01*
X91518239Y-62960988D01*
X91530539Y-62977153D01*
X91536865Y-62998563D01*
X91537047Y-62999332D01*
X91547441Y-63049663D01*
X91566339Y-63146888D01*
X91591802Y-63280810D01*
X91621890Y-63441235D01*
X91654664Y-63617967D01*
X91657337Y-63632428D01*
X91690010Y-63803959D01*
X91720413Y-63954625D01*
X91746568Y-64075267D01*
X91766496Y-64156729D01*
X91778220Y-64189852D01*
X91778282Y-64189905D01*
X91815229Y-64208229D01*
X91891057Y-64238677D01*
X91989425Y-64274685D01*
X91994965Y-64276640D01*
X92120724Y-64324170D01*
X92267011Y-64383783D01*
X92403293Y-64443056D01*
X92627390Y-64544765D01*
X93123618Y-64205897D01*
X93158570Y-64182063D01*
X93308280Y-64080755D01*
X93441867Y-63991575D01*
X93551343Y-63919773D01*
X93628718Y-63870603D01*
X93666004Y-63849317D01*
X93691552Y-63854196D01*
X93749555Y-63892002D01*
X93839195Y-63966870D01*
X93962957Y-64080903D01*
X94123328Y-64236205D01*
X94137679Y-64250341D01*
X94264933Y-64376999D01*
X94377969Y-64491745D01*
X94469867Y-64587391D01*
X94533707Y-64656746D01*
X94562570Y-64692620D01*
X94562664Y-64692794D01*
X94566331Y-64720106D01*
X94552808Y-64764408D01*
X94518684Y-64831761D01*
X94460548Y-64928226D01*
X94374988Y-65059863D01*
X94258594Y-65232734D01*
X94238759Y-65261912D01*
X94138445Y-65409726D01*
X94049923Y-65540577D01*
X93978465Y-65646643D01*
X93929343Y-65720102D01*
X93907831Y-65753130D01*
X93906208Y-65760126D01*
X93916387Y-65812326D01*
X93946879Y-65897561D01*
X93992712Y-66001291D01*
X94055000Y-66136951D01*
X94124548Y-66297921D01*
X94183609Y-66443621D01*
X94198252Y-66481333D01*
X94236600Y-66577622D01*
X94264770Y-66644704D01*
X94277497Y-66669885D01*
X94291545Y-66671767D01*
X94354681Y-66682651D01*
X94458019Y-66701449D01*
X94590809Y-66726115D01*
X94742297Y-66754604D01*
X94901732Y-66784873D01*
X95058361Y-66814875D01*
X95201433Y-66842566D01*
X95320195Y-66865900D01*
X95403896Y-66882833D01*
X95441782Y-66891320D01*
X95448063Y-66893713D01*
X95463373Y-66906619D01*
X95474763Y-66934096D01*
X95482803Y-66983446D01*
X95488064Y-67061973D01*
X95491116Y-67176980D01*
X95492529Y-67335770D01*
X95492873Y-67545645D01*
X95492873Y-68183906D01*
X95339598Y-68214160D01*
X95321057Y-68217785D01*
X95222596Y-68236569D01*
X95086448Y-68262093D01*
X94928087Y-68291468D01*
X94762988Y-68321806D01*
X94697973Y-68334009D01*
X94552697Y-68363697D01*
X94431626Y-68391770D01*
X94345886Y-68415536D01*
X94306601Y-68432301D01*
X94288799Y-68459694D01*
X94256389Y-68532174D01*
X94223234Y-68625977D01*
X94211564Y-68661103D01*
X94168604Y-68776409D01*
X94113192Y-68912876D01*
X94054353Y-69047954D01*
X94022884Y-69118509D01*
X93978051Y-69223895D01*
X93947240Y-69302818D01*
X93935785Y-69342053D01*
X93936422Y-69345014D01*
X93958150Y-69386639D01*
X94007146Y-69466969D01*
X94078438Y-69578220D01*
X94167054Y-69712605D01*
X94268023Y-69862340D01*
X94600261Y-70349931D01*
X94163771Y-70787149D01*
X94121555Y-70829221D01*
X93992470Y-70955153D01*
X93877107Y-71063754D01*
X93782224Y-71148903D01*
X93714582Y-71204482D01*
X93680938Y-71224368D01*
X93644402Y-71209238D01*
X93567890Y-71165801D01*
X93460196Y-71099270D01*
X93329767Y-71014867D01*
X93185052Y-70917816D01*
X93042910Y-70821964D01*
X92914678Y-70737557D01*
X92810054Y-70670850D01*
X92737171Y-70627024D01*
X92704158Y-70611264D01*
X92702223Y-70611408D01*
X92658369Y-70626945D01*
X92580598Y-70663121D01*
X92484392Y-70712785D01*
X92483381Y-70713329D01*
X92355605Y-70777326D01*
X92268051Y-70808591D01*
X92213726Y-70808677D01*
X92185641Y-70779138D01*
X92173752Y-70750061D01*
X92141668Y-70672188D01*
X92092247Y-70552475D01*
X92028118Y-70397286D01*
X91951911Y-70212984D01*
X91866255Y-70005933D01*
X91773781Y-69782496D01*
X91689962Y-69579226D01*
X91604678Y-69370649D01*
X91529222Y-69184263D01*
X91466126Y-69026407D01*
X91417923Y-68903419D01*
X91387144Y-68821639D01*
X91376322Y-68787406D01*
X91396991Y-68756015D01*
X91454409Y-68703602D01*
X91535688Y-68642704D01*
X91730820Y-68483387D01*
X91905445Y-68279807D01*
X92033235Y-68055808D01*
X92113402Y-67818003D01*
X92145160Y-67573007D01*
X92127722Y-67327433D01*
X92060301Y-67087895D01*
X91942111Y-66861007D01*
X91772364Y-66653383D01*
X91683856Y-66572527D01*
X91471804Y-66429559D01*
X91244905Y-66336352D01*
X91009791Y-66290687D01*
X90773094Y-66290344D01*
X90541446Y-66333105D01*
X90321478Y-66416750D01*
X90119822Y-66539061D01*
X89943111Y-66697817D01*
X89797977Y-66890801D01*
X89691050Y-67115793D01*
X89628964Y-67370575D01*
X89617569Y-67493377D01*
X89633246Y-67759434D01*
X89703846Y-68011856D01*
X89827282Y-68246182D01*
X90001466Y-68457952D01*
X90224311Y-68642704D01*
X90302561Y-68701123D01*
X90361244Y-68754110D01*
X90383678Y-68787356D01*
X90374732Y-68816339D01*
X90345703Y-68893996D01*
X90299026Y-69013451D01*
X90237231Y-69168362D01*
X90162850Y-69352392D01*
X90078412Y-69559200D01*
X89986449Y-69782446D01*
X89902771Y-69984742D01*
X89816366Y-70193686D01*
X89739138Y-70380498D01*
X89673716Y-70538814D01*
X89622731Y-70662269D01*
X89588812Y-70744498D01*
X89574590Y-70779138D01*
X89574425Y-70779548D01*
X89545972Y-70808798D01*
X89491382Y-70808463D01*
X89403609Y-70776980D01*
X89275608Y-70712785D01*
X89265532Y-70707380D01*
X89170481Y-70658750D01*
X89095424Y-70624328D01*
X89055842Y-70611264D01*
X89023400Y-70626702D01*
X88950895Y-70670258D01*
X88846565Y-70736751D01*
X88718539Y-70820998D01*
X88574948Y-70917816D01*
X88433468Y-71012734D01*
X88302611Y-71097490D01*
X88194292Y-71164496D01*
X88116960Y-71208529D01*
X88079062Y-71224368D01*
X88072607Y-71222357D01*
X88027609Y-71190658D01*
X87950727Y-71125181D01*
X87848721Y-71032048D01*
X87728351Y-70917381D01*
X87596379Y-70787300D01*
X87160039Y-70350232D01*
X87839733Y-69350440D01*
X87736402Y-69126886D01*
X87736096Y-69126225D01*
X87674046Y-68983714D01*
X87610640Y-68825018D01*
X87559558Y-68684368D01*
X87551827Y-68661683D01*
X87512852Y-68556370D01*
X87477707Y-68474534D01*
X87453195Y-68432301D01*
X87443212Y-68426337D01*
X87383286Y-68406329D01*
X87281532Y-68380442D01*
X87149068Y-68351370D01*
X86997011Y-68321806D01*
X86951466Y-68313467D01*
X86786685Y-68283107D01*
X86632930Y-68254509D01*
X86505678Y-68230564D01*
X86420402Y-68214160D01*
X86267126Y-68183906D01*
X86267126Y-67545645D01*
X86267160Y-67467165D01*
X86267808Y-67275703D01*
X86269720Y-67132812D01*
X86273469Y-67031189D01*
X86279622Y-66963531D01*
X86288751Y-66922536D01*
X86301427Y-66900900D01*
X86318218Y-66891320D01*
X86334474Y-66887439D01*
X86400748Y-66873710D01*
X86506479Y-66852745D01*
X86640915Y-66826588D01*
X86793302Y-66797283D01*
X86952890Y-66766877D01*
X87108925Y-66737413D01*
X87250657Y-66710937D01*
X87367331Y-66689494D01*
X87448197Y-66675128D01*
X87482503Y-66669885D01*
X87484822Y-66666720D01*
X87503474Y-66625642D01*
X87535753Y-66547044D01*
X87576391Y-66443621D01*
X87632788Y-66304273D01*
X87702214Y-66143226D01*
X87767288Y-66001291D01*
X87782202Y-65969432D01*
X87824047Y-65869669D01*
X87849118Y-65792721D01*
X87852426Y-65753130D01*
X87850720Y-65750325D01*
X87823631Y-65709005D01*
X87769927Y-65628740D01*
X87694877Y-65517350D01*
X87603746Y-65382655D01*
X87501800Y-65232476D01*
X87386930Y-65061851D01*
X87300761Y-64929311D01*
X87242131Y-64832112D01*
X87207650Y-64764234D01*
X87193926Y-64719656D01*
X87197568Y-64692361D01*
X87198794Y-64690313D01*
X87231747Y-64650536D01*
X87298927Y-64578052D01*
X87393419Y-64480046D01*
X87508306Y-64363702D01*
X87636672Y-64236205D01*
X87769831Y-64106821D01*
X87900269Y-63985209D01*
X87996119Y-63903156D01*
X88059866Y-63858560D01*
X88093996Y-63849317D01*
X88098456Y-63851393D01*
X88145421Y-63879385D01*
X88230685Y-63934084D01*
X88346259Y-64010237D01*
X88484154Y-64102592D01*
X88636381Y-64205897D01*
X89132610Y-64544765D01*
X89356707Y-64443056D01*
X89363219Y-64440109D01*
X89500804Y-64380504D01*
X89646767Y-64321222D01*
X89770575Y-64274685D01*
X89771122Y-64274493D01*
X89869414Y-64238497D01*
X89945081Y-64208095D01*
X89981780Y-64189852D01*
X89982374Y-64189190D01*
X89994833Y-64151831D01*
X90015336Y-64066871D01*
X90041907Y-63943469D01*
X90072567Y-63790782D01*
X90105336Y-63617967D01*
X90106478Y-63611774D01*
X90139193Y-63435431D01*
X90169155Y-63275743D01*
X90194425Y-63142905D01*
X90213065Y-63047113D01*
X90223135Y-62998563D01*
X90223779Y-62995873D01*
X90230408Y-62975088D01*
X90243841Y-62959466D01*
X90271446Y-62948270D01*
X90320593Y-62940762D01*
X90398653Y-62936205D01*
X90512994Y-62933863D01*
X90670986Y-62932998D01*
X90880000Y-62932874D01*
X90906262Y-62932874D01*
X91109175Y-62933045D01*
X84536561Y-72436540D02*
X84421050Y-72512034D01*
X84421050Y-72512034D02*
X84365336Y-72579617D01*
X84365336Y-72579617D02*
X84321196Y-72702255D01*
X84321196Y-72702255D02*
X84317691Y-72799298D01*
X84317691Y-72799298D02*
X84325632Y-72929056D01*
X84325632Y-72929056D02*
X84624885Y-73060039D01*
X84624885Y-73060039D02*
X84770389Y-73126958D01*
X84770389Y-73126958D02*
X84865463Y-73180790D01*
X84865463Y-73180790D02*
X84914899Y-73227416D01*
X84914899Y-73227416D02*
X84923489Y-73272720D01*
X84923489Y-73272720D02*
X84896028Y-73322582D01*
X84896028Y-73322582D02*
X84865747Y-73355632D01*
X84865747Y-73355632D02*
X84777637Y-73408633D01*
X84777637Y-73408633D02*
X84681804Y-73412347D01*
X84681804Y-73412347D02*
X84593788Y-73371041D01*
X84593788Y-73371041D02*
X84529131Y-73288983D01*
X84529131Y-73288983D02*
X84517567Y-73260008D01*
X84517567Y-73260008D02*
X84462175Y-73169509D01*
X84462175Y-73169509D02*
X84398447Y-73130940D01*
X84398447Y-73130940D02*
X84311034Y-73097946D01*
X84311034Y-73097946D02*
X84311034Y-73223034D01*
X84311034Y-73223034D02*
X84318762Y-73308156D01*
X84318762Y-73308156D02*
X84349034Y-73379938D01*
X84349034Y-73379938D02*
X84412482Y-73462356D01*
X84412482Y-73462356D02*
X84421912Y-73473066D01*
X84421912Y-73473066D02*
X84492487Y-73546391D01*
X84492487Y-73546391D02*
X84553153Y-73585742D01*
X84553153Y-73585742D02*
X84629050Y-73603845D01*
X84629050Y-73603845D02*
X84691970Y-73609774D01*
X84691970Y-73609774D02*
X84804513Y-73611251D01*
X84804513Y-73611251D02*
X84884630Y-73592535D01*
X84884630Y-73592535D02*
X84934610Y-73564747D01*
X84934610Y-73564747D02*
X85013162Y-73503641D01*
X85013162Y-73503641D02*
X85067537Y-73437554D01*
X85067537Y-73437554D02*
X85101948Y-73354441D01*
X85101948Y-73354441D02*
X85120612Y-73242254D01*
X85120612Y-73242254D02*
X85127744Y-73088946D01*
X85127744Y-73088946D02*
X85128313Y-73011136D01*
X85128313Y-73011136D02*
X85126378Y-72917853D01*
X85126378Y-72917853D02*
X84950101Y-72917853D01*
X84950101Y-72917853D02*
X84948056Y-72967896D01*
X84948056Y-72967896D02*
X84942961Y-72976092D01*
X84942961Y-72976092D02*
X84909334Y-72964958D01*
X84909334Y-72964958D02*
X84836970Y-72935493D01*
X84836970Y-72935493D02*
X84740253Y-72893601D01*
X84740253Y-72893601D02*
X84720027Y-72884597D01*
X84720027Y-72884597D02*
X84597797Y-72822442D01*
X84597797Y-72822442D02*
X84530453Y-72767815D01*
X84530453Y-72767815D02*
X84515652Y-72716649D01*
X84515652Y-72716649D02*
X84551053Y-72664876D01*
X84551053Y-72664876D02*
X84580289Y-72642000D01*
X84580289Y-72642000D02*
X84685784Y-72596250D01*
X84685784Y-72596250D02*
X84784524Y-72603808D01*
X84784524Y-72603808D02*
X84867188Y-72659651D01*
X84867188Y-72659651D02*
X84924452Y-72758753D01*
X84924452Y-72758753D02*
X84942812Y-72837414D01*
X84942812Y-72837414D02*
X84950101Y-72917853D01*
X84950101Y-72917853D02*
X85126378Y-72917853D01*
X85126378Y-72917853D02*
X85124541Y-72829351D01*
X85124541Y-72829351D02*
X85110641Y-72694853D01*
X85110641Y-72694853D02*
X85083106Y-72596916D01*
X85083106Y-72596916D02*
X85038428Y-72524811D01*
X85038428Y-72524811D02*
X84973099Y-72467813D01*
X84973099Y-72467813D02*
X84944617Y-72449393D01*
X84944617Y-72449393D02*
X84815237Y-72401422D01*
X84815237Y-72401422D02*
X84673588Y-72398403D01*
X84673588Y-72398403D02*
X84536561Y-72436540D01*
X84536561Y-72436540D02*
X84536561Y-72436540D01*
G36*
X85127744Y-73088946D02*
G01*
X85120612Y-73242254D01*
X85101948Y-73354441D01*
X85067537Y-73437554D01*
X85013162Y-73503641D01*
X84934610Y-73564747D01*
X84884630Y-73592535D01*
X84804513Y-73611251D01*
X84691970Y-73609774D01*
X84629050Y-73603845D01*
X84553153Y-73585742D01*
X84492487Y-73546391D01*
X84421912Y-73473066D01*
X84412482Y-73462356D01*
X84349034Y-73379938D01*
X84318762Y-73308156D01*
X84311034Y-73223034D01*
X84311034Y-73097946D01*
X84398447Y-73130940D01*
X84462175Y-73169509D01*
X84517567Y-73260008D01*
X84529131Y-73288983D01*
X84593788Y-73371041D01*
X84681804Y-73412347D01*
X84777637Y-73408633D01*
X84865747Y-73355632D01*
X84896028Y-73322582D01*
X84923489Y-73272720D01*
X84914899Y-73227416D01*
X84865463Y-73180790D01*
X84770389Y-73126958D01*
X84624885Y-73060039D01*
X84325632Y-72929056D01*
X84317691Y-72799298D01*
X84320676Y-72716649D01*
X84515652Y-72716649D01*
X84530453Y-72767815D01*
X84597797Y-72822442D01*
X84720027Y-72884597D01*
X84740253Y-72893601D01*
X84836970Y-72935493D01*
X84909334Y-72964958D01*
X84942961Y-72976092D01*
X84948056Y-72967896D01*
X84950101Y-72917853D01*
X84942812Y-72837414D01*
X84924452Y-72758753D01*
X84867188Y-72659651D01*
X84784524Y-72603808D01*
X84685784Y-72596250D01*
X84580289Y-72642000D01*
X84551053Y-72664876D01*
X84515652Y-72716649D01*
X84320676Y-72716649D01*
X84321196Y-72702255D01*
X84365336Y-72579617D01*
X84421050Y-72512034D01*
X84536561Y-72436540D01*
X84673588Y-72398403D01*
X84815237Y-72401422D01*
X84944617Y-72449393D01*
X84973099Y-72467813D01*
X85038428Y-72524811D01*
X85083106Y-72596916D01*
X85110641Y-72694853D01*
X85124541Y-72829351D01*
X85126378Y-72917853D01*
X85128313Y-73011136D01*
X85127744Y-73088946D01*
G37*
X85127744Y-73088946D02*
X85120612Y-73242254D01*
X85101948Y-73354441D01*
X85067537Y-73437554D01*
X85013162Y-73503641D01*
X84934610Y-73564747D01*
X84884630Y-73592535D01*
X84804513Y-73611251D01*
X84691970Y-73609774D01*
X84629050Y-73603845D01*
X84553153Y-73585742D01*
X84492487Y-73546391D01*
X84421912Y-73473066D01*
X84412482Y-73462356D01*
X84349034Y-73379938D01*
X84318762Y-73308156D01*
X84311034Y-73223034D01*
X84311034Y-73097946D01*
X84398447Y-73130940D01*
X84462175Y-73169509D01*
X84517567Y-73260008D01*
X84529131Y-73288983D01*
X84593788Y-73371041D01*
X84681804Y-73412347D01*
X84777637Y-73408633D01*
X84865747Y-73355632D01*
X84896028Y-73322582D01*
X84923489Y-73272720D01*
X84914899Y-73227416D01*
X84865463Y-73180790D01*
X84770389Y-73126958D01*
X84624885Y-73060039D01*
X84325632Y-72929056D01*
X84317691Y-72799298D01*
X84320676Y-72716649D01*
X84515652Y-72716649D01*
X84530453Y-72767815D01*
X84597797Y-72822442D01*
X84720027Y-72884597D01*
X84740253Y-72893601D01*
X84836970Y-72935493D01*
X84909334Y-72964958D01*
X84942961Y-72976092D01*
X84948056Y-72967896D01*
X84950101Y-72917853D01*
X84942812Y-72837414D01*
X84924452Y-72758753D01*
X84867188Y-72659651D01*
X84784524Y-72603808D01*
X84685784Y-72596250D01*
X84580289Y-72642000D01*
X84551053Y-72664876D01*
X84515652Y-72716649D01*
X84320676Y-72716649D01*
X84321196Y-72702255D01*
X84365336Y-72579617D01*
X84421050Y-72512034D01*
X84536561Y-72436540D01*
X84673588Y-72398403D01*
X84815237Y-72401422D01*
X84944617Y-72449393D01*
X84973099Y-72467813D01*
X85038428Y-72524811D01*
X85083106Y-72596916D01*
X85110641Y-72694853D01*
X85124541Y-72829351D01*
X85126378Y-72917853D01*
X85128313Y-73011136D01*
X85127744Y-73088946D01*
X86565594Y-72415156D02*
X86481531Y-72453393D01*
X86481531Y-72453393D02*
X86415550Y-72499726D01*
X86415550Y-72499726D02*
X86367206Y-72551532D01*
X86367206Y-72551532D02*
X86333828Y-72618363D01*
X86333828Y-72618363D02*
X86312747Y-72709769D01*
X86312747Y-72709769D02*
X86301293Y-72835301D01*
X86301293Y-72835301D02*
X86296797Y-73004508D01*
X86296797Y-73004508D02*
X86296322Y-73115933D01*
X86296322Y-73115933D02*
X86296322Y-73550627D01*
X86296322Y-73550627D02*
X86370684Y-73584509D01*
X86370684Y-73584509D02*
X86429254Y-73609272D01*
X86429254Y-73609272D02*
X86458270Y-73618391D01*
X86458270Y-73618391D02*
X86463821Y-73591257D01*
X86463821Y-73591257D02*
X86468225Y-73518094D01*
X86468225Y-73518094D02*
X86470922Y-73411263D01*
X86470922Y-73411263D02*
X86471494Y-73326437D01*
X86471494Y-73326437D02*
X86473954Y-73203887D01*
X86473954Y-73203887D02*
X86480588Y-73106668D01*
X86480588Y-73106668D02*
X86490274Y-73047134D01*
X86490274Y-73047134D02*
X86497968Y-73034483D01*
X86497968Y-73034483D02*
X86549689Y-73047402D01*
X86549689Y-73047402D02*
X86630883Y-73080539D01*
X86630883Y-73080539D02*
X86724898Y-73125461D01*
X86724898Y-73125461D02*
X86815083Y-73173735D01*
X86815083Y-73173735D02*
X86884785Y-73216928D01*
X86884785Y-73216928D02*
X86917352Y-73246608D01*
X86917352Y-73246608D02*
X86917481Y-73246929D01*
X86917481Y-73246929D02*
X86914680Y-73301857D01*
X86914680Y-73301857D02*
X86889561Y-73354292D01*
X86889561Y-73354292D02*
X86845459Y-73396881D01*
X86845459Y-73396881D02*
X86781091Y-73411126D01*
X86781091Y-73411126D02*
X86726079Y-73409466D01*
X86726079Y-73409466D02*
X86648165Y-73408245D01*
X86648165Y-73408245D02*
X86607268Y-73426498D01*
X86607268Y-73426498D02*
X86582705Y-73474726D01*
X86582705Y-73474726D02*
X86579608Y-73483820D01*
X86579608Y-73483820D02*
X86568960Y-73552598D01*
X86568960Y-73552598D02*
X86597435Y-73594360D01*
X86597435Y-73594360D02*
X86671656Y-73614263D01*
X86671656Y-73614263D02*
X86751832Y-73617944D01*
X86751832Y-73617944D02*
X86896110Y-73590658D01*
X86896110Y-73590658D02*
X86970797Y-73551690D01*
X86970797Y-73551690D02*
X87063037Y-73460148D01*
X87063037Y-73460148D02*
X87111957Y-73347782D01*
X87111957Y-73347782D02*
X87116346Y-73229051D01*
X87116346Y-73229051D02*
X87074999Y-73118411D01*
X87074999Y-73118411D02*
X87012803Y-73049080D01*
X87012803Y-73049080D02*
X86950706Y-73010265D01*
X86950706Y-73010265D02*
X86853105Y-72961125D01*
X86853105Y-72961125D02*
X86739368Y-72911292D01*
X86739368Y-72911292D02*
X86720410Y-72903677D01*
X86720410Y-72903677D02*
X86595479Y-72848545D01*
X86595479Y-72848545D02*
X86523461Y-72799954D01*
X86523461Y-72799954D02*
X86500300Y-72751647D01*
X86500300Y-72751647D02*
X86521936Y-72697370D01*
X86521936Y-72697370D02*
X86559080Y-72654943D01*
X86559080Y-72654943D02*
X86646873Y-72602702D01*
X86646873Y-72602702D02*
X86743470Y-72598784D01*
X86743470Y-72598784D02*
X86832056Y-72639041D01*
X86832056Y-72639041D02*
X86895814Y-72719326D01*
X86895814Y-72719326D02*
X86904183Y-72740040D01*
X86904183Y-72740040D02*
X86952904Y-72816225D01*
X86952904Y-72816225D02*
X87024035Y-72872785D01*
X87024035Y-72872785D02*
X87113793Y-72919201D01*
X87113793Y-72919201D02*
X87113793Y-72787584D01*
X87113793Y-72787584D02*
X87108510Y-72707168D01*
X87108510Y-72707168D02*
X87085858Y-72643786D01*
X87085858Y-72643786D02*
X87035633Y-72576163D01*
X87035633Y-72576163D02*
X86987418Y-72524076D01*
X86987418Y-72524076D02*
X86912446Y-72450322D01*
X86912446Y-72450322D02*
X86854194Y-72410702D01*
X86854194Y-72410702D02*
X86791628Y-72394810D01*
X86791628Y-72394810D02*
X86720807Y-72392184D01*
X86720807Y-72392184D02*
X86565594Y-72415156D01*
X86565594Y-72415156D02*
X86565594Y-72415156D01*
G36*
X86791628Y-72394810D02*
G01*
X86854194Y-72410702D01*
X86912446Y-72450322D01*
X86987418Y-72524076D01*
X87035633Y-72576163D01*
X87085858Y-72643786D01*
X87108510Y-72707168D01*
X87113793Y-72787584D01*
X87113793Y-72919201D01*
X87024035Y-72872785D01*
X86952904Y-72816225D01*
X86904183Y-72740040D01*
X86895814Y-72719326D01*
X86832056Y-72639041D01*
X86743470Y-72598784D01*
X86646873Y-72602702D01*
X86559080Y-72654943D01*
X86521936Y-72697370D01*
X86500300Y-72751647D01*
X86523461Y-72799954D01*
X86595479Y-72848545D01*
X86720410Y-72903677D01*
X86739368Y-72911292D01*
X86853105Y-72961125D01*
X86950706Y-73010265D01*
X87012803Y-73049080D01*
X87074999Y-73118411D01*
X87116346Y-73229051D01*
X87111957Y-73347782D01*
X87063037Y-73460148D01*
X86970797Y-73551690D01*
X86896110Y-73590658D01*
X86751832Y-73617944D01*
X86671656Y-73614263D01*
X86597435Y-73594360D01*
X86568960Y-73552598D01*
X86579608Y-73483820D01*
X86582705Y-73474726D01*
X86607268Y-73426498D01*
X86648165Y-73408245D01*
X86726079Y-73409466D01*
X86781091Y-73411126D01*
X86845459Y-73396881D01*
X86889561Y-73354292D01*
X86914680Y-73301857D01*
X86917481Y-73246929D01*
X86917352Y-73246608D01*
X86884785Y-73216928D01*
X86815083Y-73173735D01*
X86724898Y-73125461D01*
X86630883Y-73080539D01*
X86549689Y-73047402D01*
X86497968Y-73034483D01*
X86490274Y-73047134D01*
X86480588Y-73106668D01*
X86473954Y-73203887D01*
X86471494Y-73326437D01*
X86470922Y-73411263D01*
X86468225Y-73518094D01*
X86463821Y-73591257D01*
X86458270Y-73618391D01*
X86429254Y-73609272D01*
X86370684Y-73584509D01*
X86296322Y-73550627D01*
X86296322Y-73115933D01*
X86296797Y-73004508D01*
X86301293Y-72835301D01*
X86312747Y-72709769D01*
X86333828Y-72618363D01*
X86367206Y-72551532D01*
X86415550Y-72499726D01*
X86481531Y-72453393D01*
X86565594Y-72415156D01*
X86720807Y-72392184D01*
X86791628Y-72394810D01*
G37*
X86791628Y-72394810D02*
X86854194Y-72410702D01*
X86912446Y-72450322D01*
X86987418Y-72524076D01*
X87035633Y-72576163D01*
X87085858Y-72643786D01*
X87108510Y-72707168D01*
X87113793Y-72787584D01*
X87113793Y-72919201D01*
X87024035Y-72872785D01*
X86952904Y-72816225D01*
X86904183Y-72740040D01*
X86895814Y-72719326D01*
X86832056Y-72639041D01*
X86743470Y-72598784D01*
X86646873Y-72602702D01*
X86559080Y-72654943D01*
X86521936Y-72697370D01*
X86500300Y-72751647D01*
X86523461Y-72799954D01*
X86595479Y-72848545D01*
X86720410Y-72903677D01*
X86739368Y-72911292D01*
X86853105Y-72961125D01*
X86950706Y-73010265D01*
X87012803Y-73049080D01*
X87074999Y-73118411D01*
X87116346Y-73229051D01*
X87111957Y-73347782D01*
X87063037Y-73460148D01*
X86970797Y-73551690D01*
X86896110Y-73590658D01*
X86751832Y-73617944D01*
X86671656Y-73614263D01*
X86597435Y-73594360D01*
X86568960Y-73552598D01*
X86579608Y-73483820D01*
X86582705Y-73474726D01*
X86607268Y-73426498D01*
X86648165Y-73408245D01*
X86726079Y-73409466D01*
X86781091Y-73411126D01*
X86845459Y-73396881D01*
X86889561Y-73354292D01*
X86914680Y-73301857D01*
X86917481Y-73246929D01*
X86917352Y-73246608D01*
X86884785Y-73216928D01*
X86815083Y-73173735D01*
X86724898Y-73125461D01*
X86630883Y-73080539D01*
X86549689Y-73047402D01*
X86497968Y-73034483D01*
X86490274Y-73047134D01*
X86480588Y-73106668D01*
X86473954Y-73203887D01*
X86471494Y-73326437D01*
X86470922Y-73411263D01*
X86468225Y-73518094D01*
X86463821Y-73591257D01*
X86458270Y-73618391D01*
X86429254Y-73609272D01*
X86370684Y-73584509D01*
X86296322Y-73550627D01*
X86296322Y-73115933D01*
X86296797Y-73004508D01*
X86301293Y-72835301D01*
X86312747Y-72709769D01*
X86333828Y-72618363D01*
X86367206Y-72551532D01*
X86415550Y-72499726D01*
X86481531Y-72453393D01*
X86565594Y-72415156D01*
X86720807Y-72392184D01*
X86791628Y-72394810D01*
X89814057Y-72401920D02*
X89681435Y-72450859D01*
X89681435Y-72450859D02*
X89573990Y-72537419D01*
X89573990Y-72537419D02*
X89531968Y-72598352D01*
X89531968Y-72598352D02*
X89486157Y-72710161D01*
X89486157Y-72710161D02*
X89487109Y-72791006D01*
X89487109Y-72791006D02*
X89535192Y-72845378D01*
X89535192Y-72845378D02*
X89552983Y-72854624D01*
X89552983Y-72854624D02*
X89629796Y-72883450D01*
X89629796Y-72883450D02*
X89669024Y-72876065D01*
X89669024Y-72876065D02*
X89682311Y-72827658D01*
X89682311Y-72827658D02*
X89682988Y-72800920D01*
X89682988Y-72800920D02*
X89707314Y-72702548D01*
X89707314Y-72702548D02*
X89770719Y-72633734D01*
X89770719Y-72633734D02*
X89858846Y-72600498D01*
X89858846Y-72600498D02*
X89957337Y-72608861D01*
X89957337Y-72608861D02*
X90037398Y-72652296D01*
X90037398Y-72652296D02*
X90064439Y-72677072D01*
X90064439Y-72677072D02*
X90083606Y-72707129D01*
X90083606Y-72707129D02*
X90096554Y-72752565D01*
X90096554Y-72752565D02*
X90104936Y-72823476D01*
X90104936Y-72823476D02*
X90110407Y-72929960D01*
X90110407Y-72929960D02*
X90114622Y-73082112D01*
X90114622Y-73082112D02*
X90115713Y-73130287D01*
X90115713Y-73130287D02*
X90119693Y-73295095D01*
X90119693Y-73295095D02*
X90124219Y-73411088D01*
X90124219Y-73411088D02*
X90131005Y-73487833D01*
X90131005Y-73487833D02*
X90141769Y-73534893D01*
X90141769Y-73534893D02*
X90158227Y-73561835D01*
X90158227Y-73561835D02*
X90182094Y-73578223D01*
X90182094Y-73578223D02*
X90197374Y-73585463D01*
X90197374Y-73585463D02*
X90262267Y-73610220D01*
X90262267Y-73610220D02*
X90300466Y-73618391D01*
X90300466Y-73618391D02*
X90313088Y-73591103D01*
X90313088Y-73591103D02*
X90320792Y-73508603D01*
X90320792Y-73508603D02*
X90323620Y-73369941D01*
X90323620Y-73369941D02*
X90321614Y-73174162D01*
X90321614Y-73174162D02*
X90320989Y-73143965D01*
X90320989Y-73143965D02*
X90316579Y-72965349D01*
X90316579Y-72965349D02*
X90311365Y-72834923D01*
X90311365Y-72834923D02*
X90303945Y-72742492D01*
X90303945Y-72742492D02*
X90292918Y-72677858D01*
X90292918Y-72677858D02*
X90276883Y-72630825D01*
X90276883Y-72630825D02*
X90254439Y-72591196D01*
X90254439Y-72591196D02*
X90242698Y-72574215D01*
X90242698Y-72574215D02*
X90175381Y-72499080D01*
X90175381Y-72499080D02*
X90100090Y-72440638D01*
X90100090Y-72440638D02*
X90090872Y-72435536D01*
X90090872Y-72435536D02*
X89955867Y-72395260D01*
X89955867Y-72395260D02*
X89814057Y-72401920D01*
X89814057Y-72401920D02*
X89814057Y-72401920D01*
G36*
X90090872Y-72435536D02*
G01*
X90100090Y-72440638D01*
X90175381Y-72499080D01*
X90242698Y-72574215D01*
X90254439Y-72591196D01*
X90276883Y-72630825D01*
X90292918Y-72677858D01*
X90303945Y-72742492D01*
X90311365Y-72834923D01*
X90316579Y-72965349D01*
X90320989Y-73143965D01*
X90321614Y-73174162D01*
X90323620Y-73369941D01*
X90320792Y-73508603D01*
X90313088Y-73591103D01*
X90300466Y-73618391D01*
X90262267Y-73610220D01*
X90197374Y-73585463D01*
X90182094Y-73578223D01*
X90158227Y-73561835D01*
X90141769Y-73534893D01*
X90131005Y-73487833D01*
X90124219Y-73411088D01*
X90119693Y-73295095D01*
X90115713Y-73130287D01*
X90114622Y-73082112D01*
X90110407Y-72929960D01*
X90104936Y-72823476D01*
X90096554Y-72752565D01*
X90083606Y-72707129D01*
X90064439Y-72677072D01*
X90037398Y-72652296D01*
X89957337Y-72608861D01*
X89858846Y-72600498D01*
X89770719Y-72633734D01*
X89707314Y-72702548D01*
X89682988Y-72800920D01*
X89682311Y-72827658D01*
X89669024Y-72876065D01*
X89629796Y-72883450D01*
X89552983Y-72854624D01*
X89535192Y-72845378D01*
X89487109Y-72791006D01*
X89486157Y-72710161D01*
X89531968Y-72598352D01*
X89573990Y-72537419D01*
X89681435Y-72450859D01*
X89814057Y-72401920D01*
X89955867Y-72395260D01*
X90090872Y-72435536D01*
G37*
X90090872Y-72435536D02*
X90100090Y-72440638D01*
X90175381Y-72499080D01*
X90242698Y-72574215D01*
X90254439Y-72591196D01*
X90276883Y-72630825D01*
X90292918Y-72677858D01*
X90303945Y-72742492D01*
X90311365Y-72834923D01*
X90316579Y-72965349D01*
X90320989Y-73143965D01*
X90321614Y-73174162D01*
X90323620Y-73369941D01*
X90320792Y-73508603D01*
X90313088Y-73591103D01*
X90300466Y-73618391D01*
X90262267Y-73610220D01*
X90197374Y-73585463D01*
X90182094Y-73578223D01*
X90158227Y-73561835D01*
X90141769Y-73534893D01*
X90131005Y-73487833D01*
X90124219Y-73411088D01*
X90119693Y-73295095D01*
X90115713Y-73130287D01*
X90114622Y-73082112D01*
X90110407Y-72929960D01*
X90104936Y-72823476D01*
X90096554Y-72752565D01*
X90083606Y-72707129D01*
X90064439Y-72677072D01*
X90037398Y-72652296D01*
X89957337Y-72608861D01*
X89858846Y-72600498D01*
X89770719Y-72633734D01*
X89707314Y-72702548D01*
X89682988Y-72800920D01*
X89682311Y-72827658D01*
X89669024Y-72876065D01*
X89629796Y-72883450D01*
X89552983Y-72854624D01*
X89535192Y-72845378D01*
X89487109Y-72791006D01*
X89486157Y-72710161D01*
X89531968Y-72598352D01*
X89573990Y-72537419D01*
X89681435Y-72450859D01*
X89814057Y-72401920D01*
X89955867Y-72395260D01*
X90090872Y-72435536D01*
X88486086Y-72634455D02*
X88486457Y-72852661D01*
X88486457Y-72852661D02*
X88487892Y-73020519D01*
X88487892Y-73020519D02*
X88490998Y-73146070D01*
X88490998Y-73146070D02*
X88496378Y-73237355D01*
X88496378Y-73237355D02*
X88504638Y-73302415D01*
X88504638Y-73302415D02*
X88516384Y-73349291D01*
X88516384Y-73349291D02*
X88532219Y-73386024D01*
X88532219Y-73386024D02*
X88544210Y-73406991D01*
X88544210Y-73406991D02*
X88643510Y-73520694D01*
X88643510Y-73520694D02*
X88769412Y-73591965D01*
X88769412Y-73591965D02*
X88908709Y-73617538D01*
X88908709Y-73617538D02*
X89048195Y-73594150D01*
X89048195Y-73594150D02*
X89131257Y-73552119D01*
X89131257Y-73552119D02*
X89218455Y-73479411D01*
X89218455Y-73479411D02*
X89277883Y-73390612D01*
X89277883Y-73390612D02*
X89313739Y-73274320D01*
X89313739Y-73274320D02*
X89330219Y-73119135D01*
X89330219Y-73119135D02*
X89332553Y-73005287D01*
X89332553Y-73005287D02*
X89332239Y-72997106D01*
X89332239Y-72997106D02*
X89128276Y-72997106D01*
X89128276Y-72997106D02*
X89127030Y-73127657D01*
X89127030Y-73127657D02*
X89121322Y-73214080D01*
X89121322Y-73214080D02*
X89108196Y-73270618D01*
X89108196Y-73270618D02*
X89084694Y-73311514D01*
X89084694Y-73311514D02*
X89056614Y-73342362D01*
X89056614Y-73342362D02*
X88962312Y-73401905D01*
X88962312Y-73401905D02*
X88861060Y-73406992D01*
X88861060Y-73406992D02*
X88765364Y-73357279D01*
X88765364Y-73357279D02*
X88757916Y-73350543D01*
X88757916Y-73350543D02*
X88726126Y-73315502D01*
X88726126Y-73315502D02*
X88706192Y-73273811D01*
X88706192Y-73273811D02*
X88695400Y-73211762D01*
X88695400Y-73211762D02*
X88691035Y-73115644D01*
X88691035Y-73115644D02*
X88690345Y-73009379D01*
X88690345Y-73009379D02*
X88691841Y-72875880D01*
X88691841Y-72875880D02*
X88698036Y-72786822D01*
X88698036Y-72786822D02*
X88711486Y-72728293D01*
X88711486Y-72728293D02*
X88734749Y-72686382D01*
X88734749Y-72686382D02*
X88753825Y-72664123D01*
X88753825Y-72664123D02*
X88842437Y-72607985D01*
X88842437Y-72607985D02*
X88944492Y-72601235D01*
X88944492Y-72601235D02*
X89041905Y-72644114D01*
X89041905Y-72644114D02*
X89060704Y-72660032D01*
X89060704Y-72660032D02*
X89092707Y-72695382D01*
X89092707Y-72695382D02*
X89112682Y-72737502D01*
X89112682Y-72737502D02*
X89123407Y-72800251D01*
X89123407Y-72800251D02*
X89127661Y-72897487D01*
X89127661Y-72897487D02*
X89128276Y-72997106D01*
X89128276Y-72997106D02*
X89332239Y-72997106D01*
X89332239Y-72997106D02*
X89325496Y-72821947D01*
X89325496Y-72821947D02*
X89301528Y-72684195D01*
X89301528Y-72684195D02*
X89256452Y-72580632D01*
X89256452Y-72580632D02*
X89186072Y-72499856D01*
X89186072Y-72499856D02*
X89131257Y-72458455D01*
X89131257Y-72458455D02*
X89031624Y-72413728D01*
X89031624Y-72413728D02*
X88916145Y-72392967D01*
X88916145Y-72392967D02*
X88808801Y-72398525D01*
X88808801Y-72398525D02*
X88748736Y-72420943D01*
X88748736Y-72420943D02*
X88725165Y-72427323D01*
X88725165Y-72427323D02*
X88709523Y-72403535D01*
X88709523Y-72403535D02*
X88698605Y-72339788D01*
X88698605Y-72339788D02*
X88690345Y-72242687D01*
X88690345Y-72242687D02*
X88681301Y-72134541D01*
X88681301Y-72134541D02*
X88668739Y-72069475D01*
X88668739Y-72069475D02*
X88645881Y-72032268D01*
X88645881Y-72032268D02*
X88605949Y-72007699D01*
X88605949Y-72007699D02*
X88580862Y-71996819D01*
X88580862Y-71996819D02*
X88485977Y-71957072D01*
X88485977Y-71957072D02*
X88486086Y-72634455D01*
X88486086Y-72634455D02*
X88486086Y-72634455D01*
G36*
X89330219Y-73119135D02*
G01*
X89313739Y-73274320D01*
X89277883Y-73390612D01*
X89218455Y-73479411D01*
X89131257Y-73552119D01*
X89048195Y-73594150D01*
X88908709Y-73617538D01*
X88769412Y-73591965D01*
X88643510Y-73520694D01*
X88544210Y-73406991D01*
X88532219Y-73386024D01*
X88516384Y-73349291D01*
X88504638Y-73302415D01*
X88496378Y-73237355D01*
X88490998Y-73146070D01*
X88487892Y-73020519D01*
X88487797Y-73009379D01*
X88690345Y-73009379D01*
X88691035Y-73115644D01*
X88695400Y-73211762D01*
X88706192Y-73273811D01*
X88726126Y-73315502D01*
X88757916Y-73350543D01*
X88765364Y-73357279D01*
X88861060Y-73406992D01*
X88962312Y-73401905D01*
X89056614Y-73342362D01*
X89084694Y-73311514D01*
X89108196Y-73270618D01*
X89121322Y-73214080D01*
X89127030Y-73127657D01*
X89128276Y-72997106D01*
X89127661Y-72897487D01*
X89123407Y-72800251D01*
X89112682Y-72737502D01*
X89092707Y-72695382D01*
X89060704Y-72660032D01*
X89041905Y-72644114D01*
X88944492Y-72601235D01*
X88842437Y-72607985D01*
X88753825Y-72664123D01*
X88734749Y-72686382D01*
X88711486Y-72728293D01*
X88698036Y-72786822D01*
X88691841Y-72875880D01*
X88690345Y-73009379D01*
X88487797Y-73009379D01*
X88486457Y-72852661D01*
X88486086Y-72634455D01*
X88485977Y-71957072D01*
X88580862Y-71996819D01*
X88605949Y-72007699D01*
X88645881Y-72032268D01*
X88668739Y-72069475D01*
X88681301Y-72134541D01*
X88690345Y-72242687D01*
X88698605Y-72339788D01*
X88709523Y-72403535D01*
X88725165Y-72427323D01*
X88748736Y-72420943D01*
X88808801Y-72398525D01*
X88916145Y-72392967D01*
X89031624Y-72413728D01*
X89131257Y-72458455D01*
X89186072Y-72499856D01*
X89256452Y-72580632D01*
X89301528Y-72684195D01*
X89325496Y-72821947D01*
X89332239Y-72997106D01*
X89332553Y-73005287D01*
X89330219Y-73119135D01*
G37*
X89330219Y-73119135D02*
X89313739Y-73274320D01*
X89277883Y-73390612D01*
X89218455Y-73479411D01*
X89131257Y-73552119D01*
X89048195Y-73594150D01*
X88908709Y-73617538D01*
X88769412Y-73591965D01*
X88643510Y-73520694D01*
X88544210Y-73406991D01*
X88532219Y-73386024D01*
X88516384Y-73349291D01*
X88504638Y-73302415D01*
X88496378Y-73237355D01*
X88490998Y-73146070D01*
X88487892Y-73020519D01*
X88487797Y-73009379D01*
X88690345Y-73009379D01*
X88691035Y-73115644D01*
X88695400Y-73211762D01*
X88706192Y-73273811D01*
X88726126Y-73315502D01*
X88757916Y-73350543D01*
X88765364Y-73357279D01*
X88861060Y-73406992D01*
X88962312Y-73401905D01*
X89056614Y-73342362D01*
X89084694Y-73311514D01*
X89108196Y-73270618D01*
X89121322Y-73214080D01*
X89127030Y-73127657D01*
X89128276Y-72997106D01*
X89127661Y-72897487D01*
X89123407Y-72800251D01*
X89112682Y-72737502D01*
X89092707Y-72695382D01*
X89060704Y-72660032D01*
X89041905Y-72644114D01*
X88944492Y-72601235D01*
X88842437Y-72607985D01*
X88753825Y-72664123D01*
X88734749Y-72686382D01*
X88711486Y-72728293D01*
X88698036Y-72786822D01*
X88691841Y-72875880D01*
X88690345Y-73009379D01*
X88487797Y-73009379D01*
X88486457Y-72852661D01*
X88486086Y-72634455D01*
X88485977Y-71957072D01*
X88580862Y-71996819D01*
X88605949Y-72007699D01*
X88645881Y-72032268D01*
X88668739Y-72069475D01*
X88681301Y-72134541D01*
X88690345Y-72242687D01*
X88698605Y-72339788D01*
X88709523Y-72403535D01*
X88725165Y-72427323D01*
X88748736Y-72420943D01*
X88808801Y-72398525D01*
X88916145Y-72392967D01*
X89031624Y-72413728D01*
X89131257Y-72458455D01*
X89186072Y-72499856D01*
X89256452Y-72580632D01*
X89301528Y-72684195D01*
X89325496Y-72821947D01*
X89332239Y-72997106D01*
X89332553Y-73005287D01*
X89330219Y-73119135D01*
X85544310Y-72420018D02*
X85509415Y-72435269D01*
X85509415Y-72435269D02*
X85426123Y-72501235D01*
X85426123Y-72501235D02*
X85354897Y-72596618D01*
X85354897Y-72596618D02*
X85310847Y-72698406D01*
X85310847Y-72698406D02*
X85303678Y-72748587D01*
X85303678Y-72748587D02*
X85327715Y-72818647D01*
X85327715Y-72818647D02*
X85380439Y-72855717D01*
X85380439Y-72855717D02*
X85436969Y-72878164D01*
X85436969Y-72878164D02*
X85462854Y-72882300D01*
X85462854Y-72882300D02*
X85475458Y-72852283D01*
X85475458Y-72852283D02*
X85500346Y-72786961D01*
X85500346Y-72786961D02*
X85511265Y-72757445D01*
X85511265Y-72757445D02*
X85572492Y-72655348D01*
X85572492Y-72655348D02*
X85661139Y-72604423D01*
X85661139Y-72604423D02*
X85774807Y-72605989D01*
X85774807Y-72605989D02*
X85783226Y-72607994D01*
X85783226Y-72607994D02*
X85843912Y-72636767D01*
X85843912Y-72636767D02*
X85888526Y-72692859D01*
X85888526Y-72692859D02*
X85918998Y-72783163D01*
X85918998Y-72783163D02*
X85937256Y-72914571D01*
X85937256Y-72914571D02*
X85945229Y-73093974D01*
X85945229Y-73093974D02*
X85945977Y-73189433D01*
X85945977Y-73189433D02*
X85946348Y-73339913D01*
X85946348Y-73339913D02*
X85948777Y-73442495D01*
X85948777Y-73442495D02*
X85955240Y-73507672D01*
X85955240Y-73507672D02*
X85967712Y-73545938D01*
X85967712Y-73545938D02*
X85988167Y-73567785D01*
X85988167Y-73567785D02*
X86018581Y-73583707D01*
X86018581Y-73583707D02*
X86020339Y-73584509D01*
X86020339Y-73584509D02*
X86078909Y-73609272D01*
X86078909Y-73609272D02*
X86107925Y-73618391D01*
X86107925Y-73618391D02*
X86112384Y-73590822D01*
X86112384Y-73590822D02*
X86116201Y-73514620D01*
X86116201Y-73514620D02*
X86119101Y-73399541D01*
X86119101Y-73399541D02*
X86120809Y-73255341D01*
X86120809Y-73255341D02*
X86121149Y-73149814D01*
X86121149Y-73149814D02*
X86119412Y-72945613D01*
X86119412Y-72945613D02*
X86112618Y-72790697D01*
X86112618Y-72790697D02*
X86098393Y-72676024D01*
X86098393Y-72676024D02*
X86074362Y-72592551D01*
X86074362Y-72592551D02*
X86038152Y-72531236D01*
X86038152Y-72531236D02*
X85987388Y-72483034D01*
X85987388Y-72483034D02*
X85937261Y-72449393D01*
X85937261Y-72449393D02*
X85816725Y-72404619D01*
X85816725Y-72404619D02*
X85676443Y-72394521D01*
X85676443Y-72394521D02*
X85544310Y-72420018D01*
X85544310Y-72420018D02*
X85544310Y-72420018D01*
G36*
X85816725Y-72404619D02*
G01*
X85937261Y-72449393D01*
X85987388Y-72483034D01*
X86038152Y-72531236D01*
X86074362Y-72592551D01*
X86098393Y-72676024D01*
X86112618Y-72790697D01*
X86119412Y-72945613D01*
X86121149Y-73149814D01*
X86120809Y-73255341D01*
X86119101Y-73399541D01*
X86116201Y-73514620D01*
X86112384Y-73590822D01*
X86107925Y-73618391D01*
X86078909Y-73609272D01*
X86020339Y-73584509D01*
X86018581Y-73583707D01*
X85988167Y-73567785D01*
X85967712Y-73545938D01*
X85955240Y-73507672D01*
X85948777Y-73442495D01*
X85946348Y-73339913D01*
X85945977Y-73189433D01*
X85945229Y-73093974D01*
X85937256Y-72914571D01*
X85918998Y-72783163D01*
X85888526Y-72692859D01*
X85843912Y-72636767D01*
X85783226Y-72607994D01*
X85774807Y-72605989D01*
X85661139Y-72604423D01*
X85572492Y-72655348D01*
X85511265Y-72757445D01*
X85500346Y-72786961D01*
X85475458Y-72852283D01*
X85462854Y-72882300D01*
X85436969Y-72878164D01*
X85380439Y-72855717D01*
X85327715Y-72818647D01*
X85303678Y-72748587D01*
X85310847Y-72698406D01*
X85354897Y-72596618D01*
X85426123Y-72501235D01*
X85509415Y-72435269D01*
X85544310Y-72420018D01*
X85676443Y-72394521D01*
X85816725Y-72404619D01*
G37*
X85816725Y-72404619D02*
X85937261Y-72449393D01*
X85987388Y-72483034D01*
X86038152Y-72531236D01*
X86074362Y-72592551D01*
X86098393Y-72676024D01*
X86112618Y-72790697D01*
X86119412Y-72945613D01*
X86121149Y-73149814D01*
X86120809Y-73255341D01*
X86119101Y-73399541D01*
X86116201Y-73514620D01*
X86112384Y-73590822D01*
X86107925Y-73618391D01*
X86078909Y-73609272D01*
X86020339Y-73584509D01*
X86018581Y-73583707D01*
X85988167Y-73567785D01*
X85967712Y-73545938D01*
X85955240Y-73507672D01*
X85948777Y-73442495D01*
X85946348Y-73339913D01*
X85945977Y-73189433D01*
X85945229Y-73093974D01*
X85937256Y-72914571D01*
X85918998Y-72783163D01*
X85888526Y-72692859D01*
X85843912Y-72636767D01*
X85783226Y-72607994D01*
X85774807Y-72605989D01*
X85661139Y-72604423D01*
X85572492Y-72655348D01*
X85511265Y-72757445D01*
X85500346Y-72786961D01*
X85475458Y-72852283D01*
X85462854Y-72882300D01*
X85436969Y-72878164D01*
X85380439Y-72855717D01*
X85327715Y-72818647D01*
X85303678Y-72748587D01*
X85310847Y-72698406D01*
X85354897Y-72596618D01*
X85426123Y-72501235D01*
X85509415Y-72435269D01*
X85544310Y-72420018D01*
X85676443Y-72394521D01*
X85816725Y-72404619D01*
X92135402Y-72203857D02*
X92126846Y-72323188D01*
X92126846Y-72323188D02*
X92117019Y-72393506D01*
X92117019Y-72393506D02*
X92103401Y-72424179D01*
X92103401Y-72424179D02*
X92083473Y-72424571D01*
X92083473Y-72424571D02*
X92077011Y-72420910D01*
X92077011Y-72420910D02*
X91991060Y-72394398D01*
X91991060Y-72394398D02*
X91879255Y-72395946D01*
X91879255Y-72395946D02*
X91765586Y-72423199D01*
X91765586Y-72423199D02*
X91694490Y-72458455D01*
X91694490Y-72458455D02*
X91621595Y-72514778D01*
X91621595Y-72514778D02*
X91568307Y-72578519D01*
X91568307Y-72578519D02*
X91531725Y-72659510D01*
X91531725Y-72659510D02*
X91508950Y-72767586D01*
X91508950Y-72767586D02*
X91497081Y-72912580D01*
X91497081Y-72912580D02*
X91493218Y-73104326D01*
X91493218Y-73104326D02*
X91493149Y-73141109D01*
X91493149Y-73141109D02*
X91493103Y-73554288D01*
X91493103Y-73554288D02*
X91585046Y-73586339D01*
X91585046Y-73586339D02*
X91650348Y-73608144D01*
X91650348Y-73608144D02*
X91686176Y-73618297D01*
X91686176Y-73618297D02*
X91687230Y-73618391D01*
X91687230Y-73618391D02*
X91690758Y-73590860D01*
X91690758Y-73590860D02*
X91693761Y-73514923D01*
X91693761Y-73514923D02*
X91696010Y-73400565D01*
X91696010Y-73400565D02*
X91697276Y-73257769D01*
X91697276Y-73257769D02*
X91697471Y-73170951D01*
X91697471Y-73170951D02*
X91697877Y-72999773D01*
X91697877Y-72999773D02*
X91699968Y-72877088D01*
X91699968Y-72877088D02*
X91705053Y-72793000D01*
X91705053Y-72793000D02*
X91714440Y-72737614D01*
X91714440Y-72737614D02*
X91729439Y-72701032D01*
X91729439Y-72701032D02*
X91751358Y-72673359D01*
X91751358Y-72673359D02*
X91765043Y-72660032D01*
X91765043Y-72660032D02*
X91859051Y-72606328D01*
X91859051Y-72606328D02*
X91961636Y-72602307D01*
X91961636Y-72602307D02*
X92054710Y-72647725D01*
X92054710Y-72647725D02*
X92071922Y-72664123D01*
X92071922Y-72664123D02*
X92097168Y-72694957D01*
X92097168Y-72694957D02*
X92114680Y-72731531D01*
X92114680Y-72731531D02*
X92125858Y-72784415D01*
X92125858Y-72784415D02*
X92132104Y-72864177D01*
X92132104Y-72864177D02*
X92134818Y-72981385D01*
X92134818Y-72981385D02*
X92135402Y-73142991D01*
X92135402Y-73142991D02*
X92135402Y-73554288D01*
X92135402Y-73554288D02*
X92227345Y-73586339D01*
X92227345Y-73586339D02*
X92292647Y-73608144D01*
X92292647Y-73608144D02*
X92328475Y-73618297D01*
X92328475Y-73618297D02*
X92329529Y-73618391D01*
X92329529Y-73618391D02*
X92332225Y-73590448D01*
X92332225Y-73590448D02*
X92334655Y-73511630D01*
X92334655Y-73511630D02*
X92336722Y-73389453D01*
X92336722Y-73389453D02*
X92338329Y-73231432D01*
X92338329Y-73231432D02*
X92339377Y-73045083D01*
X92339377Y-73045083D02*
X92339769Y-72837920D01*
X92339769Y-72837920D02*
X92339770Y-72828706D01*
X92339770Y-72828706D02*
X92339770Y-72039020D01*
X92339770Y-72039020D02*
X92244885Y-71998997D01*
X92244885Y-71998997D02*
X92150000Y-71958973D01*
X92150000Y-71958973D02*
X92135402Y-72203857D01*
X92135402Y-72203857D02*
X92135402Y-72203857D01*
G36*
X92244885Y-71998997D02*
G01*
X92339770Y-72039020D01*
X92339770Y-72828706D01*
X92339769Y-72837920D01*
X92339377Y-73045083D01*
X92338329Y-73231432D01*
X92336722Y-73389453D01*
X92334655Y-73511630D01*
X92332225Y-73590448D01*
X92329529Y-73618391D01*
X92328475Y-73618297D01*
X92292647Y-73608144D01*
X92227345Y-73586339D01*
X92135402Y-73554288D01*
X92135402Y-73142991D01*
X92134818Y-72981385D01*
X92132104Y-72864177D01*
X92125858Y-72784415D01*
X92114680Y-72731531D01*
X92097168Y-72694957D01*
X92071922Y-72664123D01*
X92054710Y-72647725D01*
X91961636Y-72602307D01*
X91859051Y-72606328D01*
X91765043Y-72660032D01*
X91751358Y-72673359D01*
X91729439Y-72701032D01*
X91714440Y-72737614D01*
X91705053Y-72793000D01*
X91699968Y-72877088D01*
X91697877Y-72999773D01*
X91697471Y-73170951D01*
X91697276Y-73257769D01*
X91696010Y-73400565D01*
X91693761Y-73514923D01*
X91690758Y-73590860D01*
X91687230Y-73618391D01*
X91686176Y-73618297D01*
X91650348Y-73608144D01*
X91585046Y-73586339D01*
X91493103Y-73554288D01*
X91493149Y-73141109D01*
X91493218Y-73104326D01*
X91497081Y-72912580D01*
X91508950Y-72767586D01*
X91531725Y-72659510D01*
X91568307Y-72578519D01*
X91621595Y-72514778D01*
X91694490Y-72458455D01*
X91765586Y-72423199D01*
X91879255Y-72395946D01*
X91991060Y-72394398D01*
X92077011Y-72420910D01*
X92083473Y-72424571D01*
X92103401Y-72424179D01*
X92117019Y-72393506D01*
X92126846Y-72323188D01*
X92135402Y-72203857D01*
X92150000Y-71958973D01*
X92244885Y-71998997D01*
G37*
X92244885Y-71998997D02*
X92339770Y-72039020D01*
X92339770Y-72828706D01*
X92339769Y-72837920D01*
X92339377Y-73045083D01*
X92338329Y-73231432D01*
X92336722Y-73389453D01*
X92334655Y-73511630D01*
X92332225Y-73590448D01*
X92329529Y-73618391D01*
X92328475Y-73618297D01*
X92292647Y-73608144D01*
X92227345Y-73586339D01*
X92135402Y-73554288D01*
X92135402Y-73142991D01*
X92134818Y-72981385D01*
X92132104Y-72864177D01*
X92125858Y-72784415D01*
X92114680Y-72731531D01*
X92097168Y-72694957D01*
X92071922Y-72664123D01*
X92054710Y-72647725D01*
X91961636Y-72602307D01*
X91859051Y-72606328D01*
X91765043Y-72660032D01*
X91751358Y-72673359D01*
X91729439Y-72701032D01*
X91714440Y-72737614D01*
X91705053Y-72793000D01*
X91699968Y-72877088D01*
X91697877Y-72999773D01*
X91697471Y-73170951D01*
X91697276Y-73257769D01*
X91696010Y-73400565D01*
X91693761Y-73514923D01*
X91690758Y-73590860D01*
X91687230Y-73618391D01*
X91686176Y-73618297D01*
X91650348Y-73608144D01*
X91585046Y-73586339D01*
X91493103Y-73554288D01*
X91493149Y-73141109D01*
X91493218Y-73104326D01*
X91497081Y-72912580D01*
X91508950Y-72767586D01*
X91531725Y-72659510D01*
X91568307Y-72578519D01*
X91621595Y-72514778D01*
X91694490Y-72458455D01*
X91765586Y-72423199D01*
X91879255Y-72395946D01*
X91991060Y-72394398D01*
X92077011Y-72420910D01*
X92083473Y-72424571D01*
X92103401Y-72424179D01*
X92117019Y-72393506D01*
X92126846Y-72323188D01*
X92135402Y-72203857D01*
X92150000Y-71958973D01*
X92244885Y-71998997D01*
X93462571Y-72357719D02*
X93368877Y-72411914D01*
X93368877Y-72411914D02*
X93303736Y-72465707D01*
X93303736Y-72465707D02*
X93256093Y-72522066D01*
X93256093Y-72522066D02*
X93223272Y-72590987D01*
X93223272Y-72590987D02*
X93202594Y-72682468D01*
X93202594Y-72682468D02*
X93191380Y-72806506D01*
X93191380Y-72806506D02*
X93186951Y-72973098D01*
X93186951Y-72973098D02*
X93186437Y-73092851D01*
X93186437Y-73092851D02*
X93186437Y-73533659D01*
X93186437Y-73533659D02*
X93310517Y-73589283D01*
X93310517Y-73589283D02*
X93434598Y-73644907D01*
X93434598Y-73644907D02*
X93449195Y-73162095D01*
X93449195Y-73162095D02*
X93455227Y-72981779D01*
X93455227Y-72981779D02*
X93461555Y-72850901D01*
X93461555Y-72850901D02*
X93469394Y-72760511D01*
X93469394Y-72760511D02*
X93479963Y-72701664D01*
X93479963Y-72701664D02*
X93494477Y-72665413D01*
X93494477Y-72665413D02*
X93514152Y-72642810D01*
X93514152Y-72642810D02*
X93520465Y-72637917D01*
X93520465Y-72637917D02*
X93616112Y-72599706D01*
X93616112Y-72599706D02*
X93712793Y-72614827D01*
X93712793Y-72614827D02*
X93770345Y-72654943D01*
X93770345Y-72654943D02*
X93793755Y-72683370D01*
X93793755Y-72683370D02*
X93809961Y-72720672D01*
X93809961Y-72720672D02*
X93820259Y-72777223D01*
X93820259Y-72777223D02*
X93825951Y-72863394D01*
X93825951Y-72863394D02*
X93828336Y-72989558D01*
X93828336Y-72989558D02*
X93828736Y-73121042D01*
X93828736Y-73121042D02*
X93828814Y-73285999D01*
X93828814Y-73285999D02*
X93831639Y-73402761D01*
X93831639Y-73402761D02*
X93841093Y-73481510D01*
X93841093Y-73481510D02*
X93861060Y-73532431D01*
X93861060Y-73532431D02*
X93895424Y-73565706D01*
X93895424Y-73565706D02*
X93948068Y-73591520D01*
X93948068Y-73591520D02*
X94018383Y-73618344D01*
X94018383Y-73618344D02*
X94095180Y-73647542D01*
X94095180Y-73647542D02*
X94086038Y-73129346D01*
X94086038Y-73129346D02*
X94082357Y-72942539D01*
X94082357Y-72942539D02*
X94078050Y-72804490D01*
X94078050Y-72804490D02*
X94071877Y-72705568D01*
X94071877Y-72705568D02*
X94062598Y-72636145D01*
X94062598Y-72636145D02*
X94048973Y-72586590D01*
X94048973Y-72586590D02*
X94029761Y-72547273D01*
X94029761Y-72547273D02*
X94006598Y-72512584D01*
X94006598Y-72512584D02*
X93894848Y-72401770D01*
X93894848Y-72401770D02*
X93758487Y-72337689D01*
X93758487Y-72337689D02*
X93610175Y-72322339D01*
X93610175Y-72322339D02*
X93462571Y-72357719D01*
X93462571Y-72357719D02*
X93462571Y-72357719D01*
G36*
X93758487Y-72337689D02*
G01*
X93894848Y-72401770D01*
X94006598Y-72512584D01*
X94029761Y-72547273D01*
X94048973Y-72586590D01*
X94062598Y-72636145D01*
X94071877Y-72705568D01*
X94078050Y-72804490D01*
X94082357Y-72942539D01*
X94086038Y-73129346D01*
X94095180Y-73647542D01*
X94018383Y-73618344D01*
X93948068Y-73591520D01*
X93895424Y-73565706D01*
X93861060Y-73532431D01*
X93841093Y-73481510D01*
X93831639Y-73402761D01*
X93828814Y-73285999D01*
X93828736Y-73121042D01*
X93828336Y-72989558D01*
X93825951Y-72863394D01*
X93820259Y-72777223D01*
X93809961Y-72720672D01*
X93793755Y-72683370D01*
X93770345Y-72654943D01*
X93712793Y-72614827D01*
X93616112Y-72599706D01*
X93520465Y-72637917D01*
X93514152Y-72642810D01*
X93494477Y-72665413D01*
X93479963Y-72701664D01*
X93469394Y-72760511D01*
X93461555Y-72850901D01*
X93455227Y-72981779D01*
X93449195Y-73162095D01*
X93434598Y-73644907D01*
X93310517Y-73589283D01*
X93186437Y-73533659D01*
X93186437Y-73092851D01*
X93186951Y-72973098D01*
X93191380Y-72806506D01*
X93202594Y-72682468D01*
X93223272Y-72590987D01*
X93256093Y-72522066D01*
X93303736Y-72465707D01*
X93368877Y-72411914D01*
X93462571Y-72357719D01*
X93610175Y-72322339D01*
X93758487Y-72337689D01*
G37*
X93758487Y-72337689D02*
X93894848Y-72401770D01*
X94006598Y-72512584D01*
X94029761Y-72547273D01*
X94048973Y-72586590D01*
X94062598Y-72636145D01*
X94071877Y-72705568D01*
X94078050Y-72804490D01*
X94082357Y-72942539D01*
X94086038Y-73129346D01*
X94095180Y-73647542D01*
X94018383Y-73618344D01*
X93948068Y-73591520D01*
X93895424Y-73565706D01*
X93861060Y-73532431D01*
X93841093Y-73481510D01*
X93831639Y-73402761D01*
X93828814Y-73285999D01*
X93828736Y-73121042D01*
X93828336Y-72989558D01*
X93825951Y-72863394D01*
X93820259Y-72777223D01*
X93809961Y-72720672D01*
X93793755Y-72683370D01*
X93770345Y-72654943D01*
X93712793Y-72614827D01*
X93616112Y-72599706D01*
X93520465Y-72637917D01*
X93514152Y-72642810D01*
X93494477Y-72665413D01*
X93479963Y-72701664D01*
X93469394Y-72760511D01*
X93461555Y-72850901D01*
X93455227Y-72981779D01*
X93449195Y-73162095D01*
X93434598Y-73644907D01*
X93310517Y-73589283D01*
X93186437Y-73533659D01*
X93186437Y-73092851D01*
X93186951Y-72973098D01*
X93191380Y-72806506D01*
X93202594Y-72682468D01*
X93223272Y-72590987D01*
X93256093Y-72522066D01*
X93303736Y-72465707D01*
X93368877Y-72411914D01*
X93462571Y-72357719D01*
X93610175Y-72322339D01*
X93758487Y-72337689D01*
X87299876Y-72419840D02*
X87295421Y-72496653D01*
X87295421Y-72496653D02*
X87291929Y-72613391D01*
X87291929Y-72613391D02*
X87289685Y-72760821D01*
X87289685Y-72760821D02*
X87288965Y-72915455D01*
X87288965Y-72915455D02*
X87288965Y-73438727D01*
X87288965Y-73438727D02*
X87381355Y-73531117D01*
X87381355Y-73531117D02*
X87445022Y-73588047D01*
X87445022Y-73588047D02*
X87500911Y-73611107D01*
X87500911Y-73611107D02*
X87577298Y-73609647D01*
X87577298Y-73609647D02*
X87607620Y-73605934D01*
X87607620Y-73605934D02*
X87702390Y-73595126D01*
X87702390Y-73595126D02*
X87780778Y-73588933D01*
X87780778Y-73588933D02*
X87799885Y-73588361D01*
X87799885Y-73588361D02*
X87864301Y-73592102D01*
X87864301Y-73592102D02*
X87956429Y-73601494D01*
X87956429Y-73601494D02*
X87992150Y-73605934D01*
X87992150Y-73605934D02*
X88079886Y-73612801D01*
X88079886Y-73612801D02*
X88138847Y-73597885D01*
X88138847Y-73597885D02*
X88197310Y-73551835D01*
X88197310Y-73551835D02*
X88218415Y-73531117D01*
X88218415Y-73531117D02*
X88310805Y-73438727D01*
X88310805Y-73438727D02*
X88310805Y-72459947D01*
X88310805Y-72459947D02*
X88236442Y-72426066D01*
X88236442Y-72426066D02*
X88172410Y-72400970D01*
X88172410Y-72400970D02*
X88134948Y-72392184D01*
X88134948Y-72392184D02*
X88125343Y-72419950D01*
X88125343Y-72419950D02*
X88116365Y-72497530D01*
X88116365Y-72497530D02*
X88108614Y-72616348D01*
X88108614Y-72616348D02*
X88102686Y-72767828D01*
X88102686Y-72767828D02*
X88099827Y-72895805D01*
X88099827Y-72895805D02*
X88091839Y-73399425D01*
X88091839Y-73399425D02*
X88022152Y-73409278D01*
X88022152Y-73409278D02*
X87958771Y-73402389D01*
X87958771Y-73402389D02*
X87927714Y-73380083D01*
X87927714Y-73380083D02*
X87919033Y-73338379D01*
X87919033Y-73338379D02*
X87911622Y-73249544D01*
X87911622Y-73249544D02*
X87906069Y-73124834D01*
X87906069Y-73124834D02*
X87902964Y-72975507D01*
X87902964Y-72975507D02*
X87902516Y-72898661D01*
X87902516Y-72898661D02*
X87902069Y-72456287D01*
X87902069Y-72456287D02*
X87810126Y-72424235D01*
X87810126Y-72424235D02*
X87745051Y-72402443D01*
X87745051Y-72402443D02*
X87709653Y-72392281D01*
X87709653Y-72392281D02*
X87708632Y-72392184D01*
X87708632Y-72392184D02*
X87705080Y-72419809D01*
X87705080Y-72419809D02*
X87701177Y-72496411D01*
X87701177Y-72496411D02*
X87697249Y-72612579D01*
X87697249Y-72612579D02*
X87693624Y-72758904D01*
X87693624Y-72758904D02*
X87691092Y-72895805D01*
X87691092Y-72895805D02*
X87683103Y-73399425D01*
X87683103Y-73399425D02*
X87507931Y-73399425D01*
X87507931Y-73399425D02*
X87499893Y-72939965D01*
X87499893Y-72939965D02*
X87491854Y-72480505D01*
X87491854Y-72480505D02*
X87406457Y-72436344D01*
X87406457Y-72436344D02*
X87343407Y-72406019D01*
X87343407Y-72406019D02*
X87306090Y-72392258D01*
X87306090Y-72392258D02*
X87305013Y-72392184D01*
X87305013Y-72392184D02*
X87299876Y-72419840D01*
X87299876Y-72419840D02*
X87299876Y-72419840D01*
G36*
X88172410Y-72400970D02*
G01*
X88236442Y-72426066D01*
X88310805Y-72459947D01*
X88310805Y-73438727D01*
X88218415Y-73531117D01*
X88197310Y-73551835D01*
X88138847Y-73597885D01*
X88079886Y-73612801D01*
X87992150Y-73605934D01*
X87956429Y-73601494D01*
X87864301Y-73592102D01*
X87799885Y-73588361D01*
X87780778Y-73588933D01*
X87702390Y-73595126D01*
X87607620Y-73605934D01*
X87577298Y-73609647D01*
X87500911Y-73611107D01*
X87445022Y-73588047D01*
X87381355Y-73531117D01*
X87288965Y-73438727D01*
X87288965Y-72915455D01*
X87289685Y-72760821D01*
X87291929Y-72613391D01*
X87295421Y-72496653D01*
X87299876Y-72419840D01*
X87305013Y-72392184D01*
X87306090Y-72392258D01*
X87343407Y-72406019D01*
X87406457Y-72436344D01*
X87491854Y-72480505D01*
X87499893Y-72939965D01*
X87507931Y-73399425D01*
X87683103Y-73399425D01*
X87691092Y-72895805D01*
X87693624Y-72758904D01*
X87697249Y-72612579D01*
X87701177Y-72496411D01*
X87705080Y-72419809D01*
X87708632Y-72392184D01*
X87709653Y-72392281D01*
X87745051Y-72402443D01*
X87810126Y-72424235D01*
X87902069Y-72456287D01*
X87902516Y-72898661D01*
X87902964Y-72975507D01*
X87906069Y-73124834D01*
X87911622Y-73249544D01*
X87919033Y-73338379D01*
X87927714Y-73380083D01*
X87958771Y-73402389D01*
X88022152Y-73409278D01*
X88091839Y-73399425D01*
X88099827Y-72895805D01*
X88102686Y-72767828D01*
X88108614Y-72616348D01*
X88116365Y-72497530D01*
X88125343Y-72419950D01*
X88134948Y-72392184D01*
X88172410Y-72400970D01*
G37*
X88172410Y-72400970D02*
X88236442Y-72426066D01*
X88310805Y-72459947D01*
X88310805Y-73438727D01*
X88218415Y-73531117D01*
X88197310Y-73551835D01*
X88138847Y-73597885D01*
X88079886Y-73612801D01*
X87992150Y-73605934D01*
X87956429Y-73601494D01*
X87864301Y-73592102D01*
X87799885Y-73588361D01*
X87780778Y-73588933D01*
X87702390Y-73595126D01*
X87607620Y-73605934D01*
X87577298Y-73609647D01*
X87500911Y-73611107D01*
X87445022Y-73588047D01*
X87381355Y-73531117D01*
X87288965Y-73438727D01*
X87288965Y-72915455D01*
X87289685Y-72760821D01*
X87291929Y-72613391D01*
X87295421Y-72496653D01*
X87299876Y-72419840D01*
X87305013Y-72392184D01*
X87306090Y-72392258D01*
X87343407Y-72406019D01*
X87406457Y-72436344D01*
X87491854Y-72480505D01*
X87499893Y-72939965D01*
X87507931Y-73399425D01*
X87683103Y-73399425D01*
X87691092Y-72895805D01*
X87693624Y-72758904D01*
X87697249Y-72612579D01*
X87701177Y-72496411D01*
X87705080Y-72419809D01*
X87708632Y-72392184D01*
X87709653Y-72392281D01*
X87745051Y-72402443D01*
X87810126Y-72424235D01*
X87902069Y-72456287D01*
X87902516Y-72898661D01*
X87902964Y-72975507D01*
X87906069Y-73124834D01*
X87911622Y-73249544D01*
X87919033Y-73338379D01*
X87927714Y-73380083D01*
X87958771Y-73402389D01*
X88022152Y-73409278D01*
X88091839Y-73399425D01*
X88099827Y-72895805D01*
X88102686Y-72767828D01*
X88108614Y-72616348D01*
X88116365Y-72497530D01*
X88125343Y-72419950D01*
X88134948Y-72392184D01*
X88172410Y-72400970D01*
X95708100Y-72341903D02*
X95596550Y-72397522D01*
X95596550Y-72397522D02*
X95498092Y-72499931D01*
X95498092Y-72499931D02*
X95470977Y-72537864D01*
X95470977Y-72537864D02*
X95441438Y-72587500D01*
X95441438Y-72587500D02*
X95422272Y-72641412D01*
X95422272Y-72641412D02*
X95411307Y-72713364D01*
X95411307Y-72713364D02*
X95406371Y-72817122D01*
X95406371Y-72817122D02*
X95405287Y-72954101D01*
X95405287Y-72954101D02*
X95410182Y-73141815D01*
X95410182Y-73141815D02*
X95427196Y-73282758D01*
X95427196Y-73282758D02*
X95459823Y-73387908D01*
X95459823Y-73387908D02*
X95511558Y-73468243D01*
X95511558Y-73468243D02*
X95585896Y-73534741D01*
X95585896Y-73534741D02*
X95591358Y-73538678D01*
X95591358Y-73538678D02*
X95664620Y-73578953D01*
X95664620Y-73578953D02*
X95752840Y-73598880D01*
X95752840Y-73598880D02*
X95865038Y-73603793D01*
X95865038Y-73603793D02*
X96047433Y-73603793D01*
X96047433Y-73603793D02*
X96047509Y-73780857D01*
X96047509Y-73780857D02*
X96049207Y-73879470D01*
X96049207Y-73879470D02*
X96059550Y-73937314D01*
X96059550Y-73937314D02*
X96086578Y-73972006D01*
X96086578Y-73972006D02*
X96138332Y-74001164D01*
X96138332Y-74001164D02*
X96150761Y-74007121D01*
X96150761Y-74007121D02*
X96208923Y-74035039D01*
X96208923Y-74035039D02*
X96253956Y-74052672D01*
X96253956Y-74052672D02*
X96287441Y-74054194D01*
X96287441Y-74054194D02*
X96310962Y-74033781D01*
X96310962Y-74033781D02*
X96326100Y-73985607D01*
X96326100Y-73985607D02*
X96334437Y-73903846D01*
X96334437Y-73903846D02*
X96337556Y-73782672D01*
X96337556Y-73782672D02*
X96337040Y-73616260D01*
X96337040Y-73616260D02*
X96334471Y-73398785D01*
X96334471Y-73398785D02*
X96333668Y-73333736D01*
X96333668Y-73333736D02*
X96330778Y-73109502D01*
X96330778Y-73109502D02*
X96328188Y-72962821D01*
X96328188Y-72962821D02*
X96047586Y-72962821D01*
X96047586Y-72962821D02*
X96046009Y-73087326D01*
X96046009Y-73087326D02*
X96039000Y-73168787D01*
X96039000Y-73168787D02*
X96023142Y-73222515D01*
X96023142Y-73222515D02*
X95995019Y-73263823D01*
X95995019Y-73263823D02*
X95975925Y-73283971D01*
X95975925Y-73283971D02*
X95897865Y-73342921D01*
X95897865Y-73342921D02*
X95828753Y-73347720D01*
X95828753Y-73347720D02*
X95757440Y-73299038D01*
X95757440Y-73299038D02*
X95755632Y-73297241D01*
X95755632Y-73297241D02*
X95726617Y-73259618D01*
X95726617Y-73259618D02*
X95708967Y-73208484D01*
X95708967Y-73208484D02*
X95700064Y-73129738D01*
X95700064Y-73129738D02*
X95697291Y-73009276D01*
X95697291Y-73009276D02*
X95697241Y-72982588D01*
X95697241Y-72982588D02*
X95703942Y-72816583D01*
X95703942Y-72816583D02*
X95725752Y-72701505D01*
X95725752Y-72701505D02*
X95765235Y-72631254D01*
X95765235Y-72631254D02*
X95824956Y-72599729D01*
X95824956Y-72599729D02*
X95859472Y-72596552D01*
X95859472Y-72596552D02*
X95941389Y-72611460D01*
X95941389Y-72611460D02*
X95997579Y-72660548D01*
X95997579Y-72660548D02*
X96031402Y-72750362D01*
X96031402Y-72750362D02*
X96046220Y-72887445D01*
X96046220Y-72887445D02*
X96047586Y-72962821D01*
X96047586Y-72962821D02*
X96328188Y-72962821D01*
X96328188Y-72962821D02*
X96327713Y-72935952D01*
X96327713Y-72935952D02*
X96323753Y-72805382D01*
X96323753Y-72805382D02*
X96318174Y-72710087D01*
X96318174Y-72710087D02*
X96310254Y-72642364D01*
X96310254Y-72642364D02*
X96299269Y-72594507D01*
X96299269Y-72594507D02*
X96284499Y-72558813D01*
X96284499Y-72558813D02*
X96265218Y-72527578D01*
X96265218Y-72527578D02*
X96256951Y-72515824D01*
X96256951Y-72515824D02*
X96147288Y-72404797D01*
X96147288Y-72404797D02*
X96008635Y-72341847D01*
X96008635Y-72341847D02*
X95848246Y-72324297D01*
X95848246Y-72324297D02*
X95708100Y-72341903D01*
X95708100Y-72341903D02*
X95708100Y-72341903D01*
G36*
X96333668Y-73333736D02*
G01*
X96334471Y-73398785D01*
X96337040Y-73616260D01*
X96337556Y-73782672D01*
X96334437Y-73903846D01*
X96326100Y-73985607D01*
X96310962Y-74033781D01*
X96287441Y-74054194D01*
X96253956Y-74052672D01*
X96208923Y-74035039D01*
X96150761Y-74007121D01*
X96138332Y-74001164D01*
X96086578Y-73972006D01*
X96059550Y-73937314D01*
X96049207Y-73879470D01*
X96047509Y-73780857D01*
X96047433Y-73603793D01*
X95865038Y-73603793D01*
X95752840Y-73598880D01*
X95664620Y-73578953D01*
X95591358Y-73538678D01*
X95585896Y-73534741D01*
X95511558Y-73468243D01*
X95459823Y-73387908D01*
X95427196Y-73282758D01*
X95410182Y-73141815D01*
X95406030Y-72982588D01*
X95697241Y-72982588D01*
X95697291Y-73009276D01*
X95700064Y-73129738D01*
X95708967Y-73208484D01*
X95726617Y-73259618D01*
X95755632Y-73297241D01*
X95757440Y-73299038D01*
X95828753Y-73347720D01*
X95897865Y-73342921D01*
X95975925Y-73283971D01*
X95995019Y-73263823D01*
X96023142Y-73222515D01*
X96039000Y-73168787D01*
X96046009Y-73087326D01*
X96047586Y-72962821D01*
X96046220Y-72887445D01*
X96031402Y-72750362D01*
X95997579Y-72660548D01*
X95941389Y-72611460D01*
X95859472Y-72596552D01*
X95824956Y-72599729D01*
X95765235Y-72631254D01*
X95725752Y-72701505D01*
X95703942Y-72816583D01*
X95697241Y-72982588D01*
X95406030Y-72982588D01*
X95405287Y-72954101D01*
X95406371Y-72817122D01*
X95411307Y-72713364D01*
X95422272Y-72641412D01*
X95441438Y-72587500D01*
X95470977Y-72537864D01*
X95498092Y-72499931D01*
X95596550Y-72397522D01*
X95708100Y-72341903D01*
X95848246Y-72324297D01*
X96008635Y-72341847D01*
X96147288Y-72404797D01*
X96256951Y-72515824D01*
X96265218Y-72527578D01*
X96284499Y-72558813D01*
X96299269Y-72594507D01*
X96310254Y-72642364D01*
X96318174Y-72710087D01*
X96323753Y-72805382D01*
X96327713Y-72935952D01*
X96328188Y-72962821D01*
X96330778Y-73109502D01*
X96333668Y-73333736D01*
G37*
X96333668Y-73333736D02*
X96334471Y-73398785D01*
X96337040Y-73616260D01*
X96337556Y-73782672D01*
X96334437Y-73903846D01*
X96326100Y-73985607D01*
X96310962Y-74033781D01*
X96287441Y-74054194D01*
X96253956Y-74052672D01*
X96208923Y-74035039D01*
X96150761Y-74007121D01*
X96138332Y-74001164D01*
X96086578Y-73972006D01*
X96059550Y-73937314D01*
X96049207Y-73879470D01*
X96047509Y-73780857D01*
X96047433Y-73603793D01*
X95865038Y-73603793D01*
X95752840Y-73598880D01*
X95664620Y-73578953D01*
X95591358Y-73538678D01*
X95585896Y-73534741D01*
X95511558Y-73468243D01*
X95459823Y-73387908D01*
X95427196Y-73282758D01*
X95410182Y-73141815D01*
X95406030Y-72982588D01*
X95697241Y-72982588D01*
X95697291Y-73009276D01*
X95700064Y-73129738D01*
X95708967Y-73208484D01*
X95726617Y-73259618D01*
X95755632Y-73297241D01*
X95757440Y-73299038D01*
X95828753Y-73347720D01*
X95897865Y-73342921D01*
X95975925Y-73283971D01*
X95995019Y-73263823D01*
X96023142Y-73222515D01*
X96039000Y-73168787D01*
X96046009Y-73087326D01*
X96047586Y-72962821D01*
X96046220Y-72887445D01*
X96031402Y-72750362D01*
X95997579Y-72660548D01*
X95941389Y-72611460D01*
X95859472Y-72596552D01*
X95824956Y-72599729D01*
X95765235Y-72631254D01*
X95725752Y-72701505D01*
X95703942Y-72816583D01*
X95697241Y-72982588D01*
X95406030Y-72982588D01*
X95405287Y-72954101D01*
X95406371Y-72817122D01*
X95411307Y-72713364D01*
X95422272Y-72641412D01*
X95441438Y-72587500D01*
X95470977Y-72537864D01*
X95498092Y-72499931D01*
X95596550Y-72397522D01*
X95708100Y-72341903D01*
X95848246Y-72324297D01*
X96008635Y-72341847D01*
X96147288Y-72404797D01*
X96256951Y-72515824D01*
X96265218Y-72527578D01*
X96284499Y-72558813D01*
X96299269Y-72594507D01*
X96310254Y-72642364D01*
X96318174Y-72710087D01*
X96323753Y-72805382D01*
X96327713Y-72935952D01*
X96328188Y-72962821D01*
X96330778Y-73109502D01*
X96333668Y-73333736D01*
X90800056Y-72404360D02*
X90685657Y-72446842D01*
X90685657Y-72446842D02*
X90684348Y-72447658D01*
X90684348Y-72447658D02*
X90613597Y-72499730D01*
X90613597Y-72499730D02*
X90561364Y-72560584D01*
X90561364Y-72560584D02*
X90524629Y-72639887D01*
X90524629Y-72639887D02*
X90500366Y-72747309D01*
X90500366Y-72747309D02*
X90485555Y-72892517D01*
X90485555Y-72892517D02*
X90477171Y-73085179D01*
X90477171Y-73085179D02*
X90476436Y-73112628D01*
X90476436Y-73112628D02*
X90465880Y-73526521D01*
X90465880Y-73526521D02*
X90554709Y-73572456D01*
X90554709Y-73572456D02*
X90618982Y-73603498D01*
X90618982Y-73603498D02*
X90657790Y-73618206D01*
X90657790Y-73618206D02*
X90659585Y-73618391D01*
X90659585Y-73618391D02*
X90666300Y-73591250D01*
X90666300Y-73591250D02*
X90671635Y-73518041D01*
X90671635Y-73518041D02*
X90674917Y-73411081D01*
X90674917Y-73411081D02*
X90675632Y-73324469D01*
X90675632Y-73324469D02*
X90675649Y-73184162D01*
X90675649Y-73184162D02*
X90682063Y-73096051D01*
X90682063Y-73096051D02*
X90704420Y-73054025D01*
X90704420Y-73054025D02*
X90752268Y-73051975D01*
X90752268Y-73051975D02*
X90835151Y-73083790D01*
X90835151Y-73083790D02*
X90960287Y-73142272D01*
X90960287Y-73142272D02*
X91052303Y-73190845D01*
X91052303Y-73190845D02*
X91099629Y-73232986D01*
X91099629Y-73232986D02*
X91113542Y-73278916D01*
X91113542Y-73278916D02*
X91113563Y-73281189D01*
X91113563Y-73281189D02*
X91090605Y-73360311D01*
X91090605Y-73360311D02*
X91022630Y-73403055D01*
X91022630Y-73403055D02*
X90918602Y-73409246D01*
X90918602Y-73409246D02*
X90843670Y-73408172D01*
X90843670Y-73408172D02*
X90804161Y-73429753D01*
X90804161Y-73429753D02*
X90779522Y-73481591D01*
X90779522Y-73481591D02*
X90765341Y-73547632D01*
X90765341Y-73547632D02*
X90785777Y-73585104D01*
X90785777Y-73585104D02*
X90793472Y-73590467D01*
X90793472Y-73590467D02*
X90865917Y-73612006D01*
X90865917Y-73612006D02*
X90967367Y-73615055D01*
X90967367Y-73615055D02*
X91071843Y-73600778D01*
X91071843Y-73600778D02*
X91145875Y-73574688D01*
X91145875Y-73574688D02*
X91248228Y-73487785D01*
X91248228Y-73487785D02*
X91306409Y-73366816D01*
X91306409Y-73366816D02*
X91317931Y-73272308D01*
X91317931Y-73272308D02*
X91309138Y-73187062D01*
X91309138Y-73187062D02*
X91277320Y-73117476D01*
X91277320Y-73117476D02*
X91214316Y-73055672D01*
X91214316Y-73055672D02*
X91111969Y-72993772D01*
X91111969Y-72993772D02*
X90962118Y-72923897D01*
X90962118Y-72923897D02*
X90952988Y-72919948D01*
X90952988Y-72919948D02*
X90818003Y-72857588D01*
X90818003Y-72857588D02*
X90734706Y-72806446D01*
X90734706Y-72806446D02*
X90699003Y-72760488D01*
X90699003Y-72760488D02*
X90706797Y-72713683D01*
X90706797Y-72713683D02*
X90753993Y-72659998D01*
X90753993Y-72659998D02*
X90768106Y-72647644D01*
X90768106Y-72647644D02*
X90862641Y-72599741D01*
X90862641Y-72599741D02*
X90960594Y-72601758D01*
X90960594Y-72601758D02*
X91045903Y-72648724D01*
X91045903Y-72648724D02*
X91102504Y-72735669D01*
X91102504Y-72735669D02*
X91107763Y-72752734D01*
X91107763Y-72752734D02*
X91158977Y-72835504D01*
X91158977Y-72835504D02*
X91223963Y-72875372D01*
X91223963Y-72875372D02*
X91317931Y-72914882D01*
X91317931Y-72914882D02*
X91317931Y-72812658D01*
X91317931Y-72812658D02*
X91289347Y-72664072D01*
X91289347Y-72664072D02*
X91204505Y-72527784D01*
X91204505Y-72527784D02*
X91160355Y-72482191D01*
X91160355Y-72482191D02*
X91059995Y-72423674D01*
X91059995Y-72423674D02*
X90932365Y-72397184D01*
X90932365Y-72397184D02*
X90800056Y-72404360D01*
X90800056Y-72404360D02*
X90800056Y-72404360D01*
G36*
X91059995Y-72423674D02*
G01*
X91160355Y-72482191D01*
X91204505Y-72527784D01*
X91289347Y-72664072D01*
X91317931Y-72812658D01*
X91317931Y-72914882D01*
X91223963Y-72875372D01*
X91158977Y-72835504D01*
X91107763Y-72752734D01*
X91102504Y-72735669D01*
X91045903Y-72648724D01*
X90960594Y-72601758D01*
X90862641Y-72599741D01*
X90768106Y-72647644D01*
X90753993Y-72659998D01*
X90706797Y-72713683D01*
X90699003Y-72760488D01*
X90734706Y-72806446D01*
X90818003Y-72857588D01*
X90952988Y-72919948D01*
X90962118Y-72923897D01*
X91111969Y-72993772D01*
X91214316Y-73055672D01*
X91277320Y-73117476D01*
X91309138Y-73187062D01*
X91317931Y-73272308D01*
X91306409Y-73366816D01*
X91248228Y-73487785D01*
X91145875Y-73574688D01*
X91071843Y-73600778D01*
X90967367Y-73615055D01*
X90865917Y-73612006D01*
X90793472Y-73590467D01*
X90785777Y-73585104D01*
X90765341Y-73547632D01*
X90779522Y-73481591D01*
X90804161Y-73429753D01*
X90843670Y-73408172D01*
X90918602Y-73409246D01*
X91022630Y-73403055D01*
X91090605Y-73360311D01*
X91113563Y-73281189D01*
X91113542Y-73278916D01*
X91099629Y-73232986D01*
X91052303Y-73190845D01*
X90960287Y-73142272D01*
X90835151Y-73083790D01*
X90752268Y-73051975D01*
X90704420Y-73054025D01*
X90682063Y-73096051D01*
X90675649Y-73184162D01*
X90675632Y-73324469D01*
X90674917Y-73411081D01*
X90671635Y-73518041D01*
X90666300Y-73591250D01*
X90659585Y-73618391D01*
X90657790Y-73618206D01*
X90618982Y-73603498D01*
X90554709Y-73572456D01*
X90465880Y-73526521D01*
X90476436Y-73112628D01*
X90477171Y-73085179D01*
X90485555Y-72892517D01*
X90500366Y-72747309D01*
X90524629Y-72639887D01*
X90561364Y-72560584D01*
X90613597Y-72499730D01*
X90684348Y-72447658D01*
X90685657Y-72446842D01*
X90800056Y-72404360D01*
X90932365Y-72397184D01*
X91059995Y-72423674D01*
G37*
X91059995Y-72423674D02*
X91160355Y-72482191D01*
X91204505Y-72527784D01*
X91289347Y-72664072D01*
X91317931Y-72812658D01*
X91317931Y-72914882D01*
X91223963Y-72875372D01*
X91158977Y-72835504D01*
X91107763Y-72752734D01*
X91102504Y-72735669D01*
X91045903Y-72648724D01*
X90960594Y-72601758D01*
X90862641Y-72599741D01*
X90768106Y-72647644D01*
X90753993Y-72659998D01*
X90706797Y-72713683D01*
X90699003Y-72760488D01*
X90734706Y-72806446D01*
X90818003Y-72857588D01*
X90952988Y-72919948D01*
X90962118Y-72923897D01*
X91111969Y-72993772D01*
X91214316Y-73055672D01*
X91277320Y-73117476D01*
X91309138Y-73187062D01*
X91317931Y-73272308D01*
X91306409Y-73366816D01*
X91248228Y-73487785D01*
X91145875Y-73574688D01*
X91071843Y-73600778D01*
X90967367Y-73615055D01*
X90865917Y-73612006D01*
X90793472Y-73590467D01*
X90785777Y-73585104D01*
X90765341Y-73547632D01*
X90779522Y-73481591D01*
X90804161Y-73429753D01*
X90843670Y-73408172D01*
X90918602Y-73409246D01*
X91022630Y-73403055D01*
X91090605Y-73360311D01*
X91113563Y-73281189D01*
X91113542Y-73278916D01*
X91099629Y-73232986D01*
X91052303Y-73190845D01*
X90960287Y-73142272D01*
X90835151Y-73083790D01*
X90752268Y-73051975D01*
X90704420Y-73054025D01*
X90682063Y-73096051D01*
X90675649Y-73184162D01*
X90675632Y-73324469D01*
X90674917Y-73411081D01*
X90671635Y-73518041D01*
X90666300Y-73591250D01*
X90659585Y-73618391D01*
X90657790Y-73618206D01*
X90618982Y-73603498D01*
X90554709Y-73572456D01*
X90465880Y-73526521D01*
X90476436Y-73112628D01*
X90477171Y-73085179D01*
X90485555Y-72892517D01*
X90500366Y-72747309D01*
X90524629Y-72639887D01*
X90561364Y-72560584D01*
X90613597Y-72499730D01*
X90684348Y-72447658D01*
X90685657Y-72446842D01*
X90800056Y-72404360D01*
X90932365Y-72397184D01*
X91059995Y-72423674D01*
X94564448Y-72364676D02*
X94449342Y-72442111D01*
X94449342Y-72442111D02*
X94360389Y-72553949D01*
X94360389Y-72553949D02*
X94307251Y-72696265D01*
X94307251Y-72696265D02*
X94296503Y-72801015D01*
X94296503Y-72801015D02*
X94297724Y-72844726D01*
X94297724Y-72844726D02*
X94307944Y-72878194D01*
X94307944Y-72878194D02*
X94336039Y-72908179D01*
X94336039Y-72908179D02*
X94390884Y-72941440D01*
X94390884Y-72941440D02*
X94481355Y-72984738D01*
X94481355Y-72984738D02*
X94616328Y-73044833D01*
X94616328Y-73044833D02*
X94617011Y-73045134D01*
X94617011Y-73045134D02*
X94741249Y-73102037D01*
X94741249Y-73102037D02*
X94843127Y-73152565D01*
X94843127Y-73152565D02*
X94912233Y-73191280D01*
X94912233Y-73191280D02*
X94938154Y-73212740D01*
X94938154Y-73212740D02*
X94938161Y-73212913D01*
X94938161Y-73212913D02*
X94915315Y-73259644D01*
X94915315Y-73259644D02*
X94861891Y-73311154D01*
X94861891Y-73311154D02*
X94800558Y-73348261D01*
X94800558Y-73348261D02*
X94769485Y-73355632D01*
X94769485Y-73355632D02*
X94684711Y-73330138D01*
X94684711Y-73330138D02*
X94611707Y-73266291D01*
X94611707Y-73266291D02*
X94576087Y-73196094D01*
X94576087Y-73196094D02*
X94541820Y-73144343D01*
X94541820Y-73144343D02*
X94474697Y-73085409D01*
X94474697Y-73085409D02*
X94395792Y-73034496D01*
X94395792Y-73034496D02*
X94326179Y-73006809D01*
X94326179Y-73006809D02*
X94311623Y-73005287D01*
X94311623Y-73005287D02*
X94295237Y-73030321D01*
X94295237Y-73030321D02*
X94294250Y-73094311D01*
X94294250Y-73094311D02*
X94306292Y-73180593D01*
X94306292Y-73180593D02*
X94328993Y-73272501D01*
X94328993Y-73272501D02*
X94359986Y-73353369D01*
X94359986Y-73353369D02*
X94361552Y-73356509D01*
X94361552Y-73356509D02*
X94454819Y-73486734D01*
X94454819Y-73486734D02*
X94575696Y-73575311D01*
X94575696Y-73575311D02*
X94712973Y-73618786D01*
X94712973Y-73618786D02*
X94855440Y-73613706D01*
X94855440Y-73613706D02*
X94991888Y-73556616D01*
X94991888Y-73556616D02*
X94997955Y-73552602D01*
X94997955Y-73552602D02*
X95105290Y-73455326D01*
X95105290Y-73455326D02*
X95175868Y-73328409D01*
X95175868Y-73328409D02*
X95214926Y-73161526D01*
X95214926Y-73161526D02*
X95220168Y-73114639D01*
X95220168Y-73114639D02*
X95229452Y-72893329D01*
X95229452Y-72893329D02*
X95218322Y-72790124D01*
X95218322Y-72790124D02*
X94938161Y-72790124D01*
X94938161Y-72790124D02*
X94934521Y-72854503D01*
X94934521Y-72854503D02*
X94914611Y-72873291D01*
X94914611Y-72873291D02*
X94864974Y-72859235D01*
X94864974Y-72859235D02*
X94786733Y-72826009D01*
X94786733Y-72826009D02*
X94699274Y-72784359D01*
X94699274Y-72784359D02*
X94697101Y-72783256D01*
X94697101Y-72783256D02*
X94622970Y-72744265D01*
X94622970Y-72744265D02*
X94593219Y-72718244D01*
X94593219Y-72718244D02*
X94600555Y-72690965D01*
X94600555Y-72690965D02*
X94631447Y-72655121D01*
X94631447Y-72655121D02*
X94710040Y-72603251D01*
X94710040Y-72603251D02*
X94794677Y-72599439D01*
X94794677Y-72599439D02*
X94870597Y-72637189D01*
X94870597Y-72637189D02*
X94923035Y-72710001D01*
X94923035Y-72710001D02*
X94938161Y-72790124D01*
X94938161Y-72790124D02*
X95218322Y-72790124D01*
X95218322Y-72790124D02*
X95210356Y-72716261D01*
X95210356Y-72716261D02*
X95161366Y-72575829D01*
X95161366Y-72575829D02*
X95093164Y-72477447D01*
X95093164Y-72477447D02*
X94970065Y-72378030D01*
X94970065Y-72378030D02*
X94834472Y-72328711D01*
X94834472Y-72328711D02*
X94696045Y-72325568D01*
X94696045Y-72325568D02*
X94564448Y-72364676D01*
X94564448Y-72364676D02*
X94564448Y-72364676D01*
G36*
X95220168Y-73114639D02*
G01*
X95214926Y-73161526D01*
X95175868Y-73328409D01*
X95105290Y-73455326D01*
X94997955Y-73552602D01*
X94991888Y-73556616D01*
X94855440Y-73613706D01*
X94712973Y-73618786D01*
X94575696Y-73575311D01*
X94454819Y-73486734D01*
X94361552Y-73356509D01*
X94359986Y-73353369D01*
X94328993Y-73272501D01*
X94306292Y-73180593D01*
X94294250Y-73094311D01*
X94295237Y-73030321D01*
X94311623Y-73005287D01*
X94326179Y-73006809D01*
X94395792Y-73034496D01*
X94474697Y-73085409D01*
X94541820Y-73144343D01*
X94576087Y-73196094D01*
X94611707Y-73266291D01*
X94684711Y-73330138D01*
X94769485Y-73355632D01*
X94800558Y-73348261D01*
X94861891Y-73311154D01*
X94915315Y-73259644D01*
X94938161Y-73212913D01*
X94938154Y-73212740D01*
X94912233Y-73191280D01*
X94843127Y-73152565D01*
X94741249Y-73102037D01*
X94617011Y-73045134D01*
X94616328Y-73044833D01*
X94481355Y-72984738D01*
X94390884Y-72941440D01*
X94336039Y-72908179D01*
X94307944Y-72878194D01*
X94297724Y-72844726D01*
X94296503Y-72801015D01*
X94304996Y-72718244D01*
X94593219Y-72718244D01*
X94622970Y-72744265D01*
X94697101Y-72783256D01*
X94699274Y-72784359D01*
X94786733Y-72826009D01*
X94864974Y-72859235D01*
X94914611Y-72873291D01*
X94934521Y-72854503D01*
X94938161Y-72790124D01*
X94923035Y-72710001D01*
X94870597Y-72637189D01*
X94794677Y-72599439D01*
X94710040Y-72603251D01*
X94631447Y-72655121D01*
X94600555Y-72690965D01*
X94593219Y-72718244D01*
X94304996Y-72718244D01*
X94307251Y-72696265D01*
X94360389Y-72553949D01*
X94449342Y-72442111D01*
X94564448Y-72364676D01*
X94696045Y-72325568D01*
X94834472Y-72328711D01*
X94970065Y-72378030D01*
X95093164Y-72477447D01*
X95161366Y-72575829D01*
X95210356Y-72716261D01*
X95218322Y-72790124D01*
X95229452Y-72893329D01*
X95220168Y-73114639D01*
G37*
X95220168Y-73114639D02*
X95214926Y-73161526D01*
X95175868Y-73328409D01*
X95105290Y-73455326D01*
X94997955Y-73552602D01*
X94991888Y-73556616D01*
X94855440Y-73613706D01*
X94712973Y-73618786D01*
X94575696Y-73575311D01*
X94454819Y-73486734D01*
X94361552Y-73356509D01*
X94359986Y-73353369D01*
X94328993Y-73272501D01*
X94306292Y-73180593D01*
X94294250Y-73094311D01*
X94295237Y-73030321D01*
X94311623Y-73005287D01*
X94326179Y-73006809D01*
X94395792Y-73034496D01*
X94474697Y-73085409D01*
X94541820Y-73144343D01*
X94576087Y-73196094D01*
X94611707Y-73266291D01*
X94684711Y-73330138D01*
X94769485Y-73355632D01*
X94800558Y-73348261D01*
X94861891Y-73311154D01*
X94915315Y-73259644D01*
X94938161Y-73212913D01*
X94938154Y-73212740D01*
X94912233Y-73191280D01*
X94843127Y-73152565D01*
X94741249Y-73102037D01*
X94617011Y-73045134D01*
X94616328Y-73044833D01*
X94481355Y-72984738D01*
X94390884Y-72941440D01*
X94336039Y-72908179D01*
X94307944Y-72878194D01*
X94297724Y-72844726D01*
X94296503Y-72801015D01*
X94304996Y-72718244D01*
X94593219Y-72718244D01*
X94622970Y-72744265D01*
X94697101Y-72783256D01*
X94699274Y-72784359D01*
X94786733Y-72826009D01*
X94864974Y-72859235D01*
X94914611Y-72873291D01*
X94934521Y-72854503D01*
X94938161Y-72790124D01*
X94923035Y-72710001D01*
X94870597Y-72637189D01*
X94794677Y-72599439D01*
X94710040Y-72603251D01*
X94631447Y-72655121D01*
X94600555Y-72690965D01*
X94593219Y-72718244D01*
X94304996Y-72718244D01*
X94307251Y-72696265D01*
X94360389Y-72553949D01*
X94449342Y-72442111D01*
X94564448Y-72364676D01*
X94696045Y-72325568D01*
X94834472Y-72328711D01*
X94970065Y-72378030D01*
X95093164Y-72477447D01*
X95161366Y-72575829D01*
X95210356Y-72716261D01*
X95218322Y-72790124D01*
X95229452Y-72893329D01*
X95220168Y-73114639D01*
X96831779Y-72346015D02*
X96694939Y-72417968D01*
X96694939Y-72417968D02*
X96593949Y-72533766D01*
X96593949Y-72533766D02*
X96558075Y-72608213D01*
X96558075Y-72608213D02*
X96530161Y-72719992D01*
X96530161Y-72719992D02*
X96515871Y-72861227D01*
X96515871Y-72861227D02*
X96514516Y-73015371D01*
X96514516Y-73015371D02*
X96525405Y-73165879D01*
X96525405Y-73165879D02*
X96547847Y-73296205D01*
X96547847Y-73296205D02*
X96581150Y-73389803D01*
X96581150Y-73389803D02*
X96591385Y-73405922D01*
X96591385Y-73405922D02*
X96712618Y-73526249D01*
X96712618Y-73526249D02*
X96856613Y-73598317D01*
X96856613Y-73598317D02*
X97012861Y-73619408D01*
X97012861Y-73619408D02*
X97170852Y-73586802D01*
X97170852Y-73586802D02*
X97214820Y-73567253D01*
X97214820Y-73567253D02*
X97300444Y-73507012D01*
X97300444Y-73507012D02*
X97375592Y-73427135D01*
X97375592Y-73427135D02*
X97382694Y-73417004D01*
X97382694Y-73417004D02*
X97411561Y-73368181D01*
X97411561Y-73368181D02*
X97430643Y-73315990D01*
X97430643Y-73315990D02*
X97441916Y-73247285D01*
X97441916Y-73247285D02*
X97447355Y-73148918D01*
X97447355Y-73148918D02*
X97448938Y-73007744D01*
X97448938Y-73007744D02*
X97448965Y-72976092D01*
X97448965Y-72976092D02*
X97448893Y-72966019D01*
X97448893Y-72966019D02*
X97157011Y-72966019D01*
X97157011Y-72966019D02*
X97155313Y-73099256D01*
X97155313Y-73099256D02*
X97148628Y-73187674D01*
X97148628Y-73187674D02*
X97134575Y-73244785D01*
X97134575Y-73244785D02*
X97110771Y-73284102D01*
X97110771Y-73284102D02*
X97098621Y-73297241D01*
X97098621Y-73297241D02*
X97028764Y-73347172D01*
X97028764Y-73347172D02*
X96960941Y-73344895D01*
X96960941Y-73344895D02*
X96892365Y-73301584D01*
X96892365Y-73301584D02*
X96851465Y-73255346D01*
X96851465Y-73255346D02*
X96827242Y-73187857D01*
X96827242Y-73187857D02*
X96813639Y-73081433D01*
X96813639Y-73081433D02*
X96812706Y-73069020D01*
X96812706Y-73069020D02*
X96810384Y-72876147D01*
X96810384Y-72876147D02*
X96834650Y-72732900D01*
X96834650Y-72732900D02*
X96885176Y-72640160D01*
X96885176Y-72640160D02*
X96961632Y-72598807D01*
X96961632Y-72598807D02*
X96988924Y-72596552D01*
X96988924Y-72596552D02*
X97060589Y-72607893D01*
X97060589Y-72607893D02*
X97109610Y-72647184D01*
X97109610Y-72647184D02*
X97139582Y-72722326D01*
X97139582Y-72722326D02*
X97154101Y-72841222D01*
X97154101Y-72841222D02*
X97157011Y-72966019D01*
X97157011Y-72966019D02*
X97448893Y-72966019D01*
X97448893Y-72966019D02*
X97447878Y-72825659D01*
X97447878Y-72825659D02*
X97443312Y-72720549D01*
X97443312Y-72720549D02*
X97433312Y-72647714D01*
X97433312Y-72647714D02*
X97415921Y-72594108D01*
X97415921Y-72594108D02*
X97389184Y-72546681D01*
X97389184Y-72546681D02*
X97383276Y-72537864D01*
X97383276Y-72537864D02*
X97283968Y-72419007D01*
X97283968Y-72419007D02*
X97175758Y-72350008D01*
X97175758Y-72350008D02*
X97044019Y-72322619D01*
X97044019Y-72322619D02*
X96999283Y-72321281D01*
X96999283Y-72321281D02*
X96831779Y-72346015D01*
X96831779Y-72346015D02*
X96831779Y-72346015D01*
G36*
X97448938Y-73007744D02*
G01*
X97447355Y-73148918D01*
X97441916Y-73247285D01*
X97430643Y-73315990D01*
X97411561Y-73368181D01*
X97382694Y-73417004D01*
X97375592Y-73427135D01*
X97300444Y-73507012D01*
X97214820Y-73567253D01*
X97170852Y-73586802D01*
X97012861Y-73619408D01*
X96856613Y-73598317D01*
X96712618Y-73526249D01*
X96591385Y-73405922D01*
X96581150Y-73389803D01*
X96547847Y-73296205D01*
X96525405Y-73165879D01*
X96514516Y-73015371D01*
X96515740Y-72876147D01*
X96810384Y-72876147D01*
X96812706Y-73069020D01*
X96813639Y-73081433D01*
X96827242Y-73187857D01*
X96851465Y-73255346D01*
X96892365Y-73301584D01*
X96960941Y-73344895D01*
X97028764Y-73347172D01*
X97098621Y-73297241D01*
X97110771Y-73284102D01*
X97134575Y-73244785D01*
X97148628Y-73187674D01*
X97155313Y-73099256D01*
X97157011Y-72966019D01*
X97154101Y-72841222D01*
X97139582Y-72722326D01*
X97109610Y-72647184D01*
X97060589Y-72607893D01*
X96988924Y-72596552D01*
X96961632Y-72598807D01*
X96885176Y-72640160D01*
X96834650Y-72732900D01*
X96810384Y-72876147D01*
X96515740Y-72876147D01*
X96515871Y-72861227D01*
X96530161Y-72719992D01*
X96558075Y-72608213D01*
X96593949Y-72533766D01*
X96694939Y-72417968D01*
X96831779Y-72346015D01*
X96999283Y-72321281D01*
X97044019Y-72322619D01*
X97175758Y-72350008D01*
X97283968Y-72419007D01*
X97383276Y-72537864D01*
X97389184Y-72546681D01*
X97415921Y-72594108D01*
X97433312Y-72647714D01*
X97443312Y-72720549D01*
X97447878Y-72825659D01*
X97448893Y-72966019D01*
X97448965Y-72976092D01*
X97448938Y-73007744D01*
G37*
X97448938Y-73007744D02*
X97447355Y-73148918D01*
X97441916Y-73247285D01*
X97430643Y-73315990D01*
X97411561Y-73368181D01*
X97382694Y-73417004D01*
X97375592Y-73427135D01*
X97300444Y-73507012D01*
X97214820Y-73567253D01*
X97170852Y-73586802D01*
X97012861Y-73619408D01*
X96856613Y-73598317D01*
X96712618Y-73526249D01*
X96591385Y-73405922D01*
X96581150Y-73389803D01*
X96547847Y-73296205D01*
X96525405Y-73165879D01*
X96514516Y-73015371D01*
X96515740Y-72876147D01*
X96810384Y-72876147D01*
X96812706Y-73069020D01*
X96813639Y-73081433D01*
X96827242Y-73187857D01*
X96851465Y-73255346D01*
X96892365Y-73301584D01*
X96960941Y-73344895D01*
X97028764Y-73347172D01*
X97098621Y-73297241D01*
X97110771Y-73284102D01*
X97134575Y-73244785D01*
X97148628Y-73187674D01*
X97155313Y-73099256D01*
X97157011Y-72966019D01*
X97154101Y-72841222D01*
X97139582Y-72722326D01*
X97109610Y-72647184D01*
X97060589Y-72607893D01*
X96988924Y-72596552D01*
X96961632Y-72598807D01*
X96885176Y-72640160D01*
X96834650Y-72732900D01*
X96810384Y-72876147D01*
X96515740Y-72876147D01*
X96515871Y-72861227D01*
X96530161Y-72719992D01*
X96558075Y-72608213D01*
X96593949Y-72533766D01*
X96694939Y-72417968D01*
X96831779Y-72346015D01*
X96999283Y-72321281D01*
X97044019Y-72322619D01*
X97175758Y-72350008D01*
X97283968Y-72419007D01*
X97383276Y-72537864D01*
X97389184Y-72546681D01*
X97415921Y-72594108D01*
X97433312Y-72647714D01*
X97443312Y-72720549D01*
X97447878Y-72825659D01*
X97448893Y-72966019D01*
X97448965Y-72976092D01*
X97448938Y-73007744D01*
%TD*%
M02*
