M48
; DRILL file {KiCad 7.0.5} date Wed Oct  4 06:58:19 2023
; FORMAT={-:-/ absolute / inch / decimal}
; #@! TF.CreationDate,2023-10-04T06:58:19-05:00
; #@! TF.GenerationSoftware,Kicad,Pcbnew,7.0.5
; #@! TF.FileFunction,Plated,1,2,PTH
FMAT,2
INCH
; #@! TA.AperFunction,Plated,PTH,ViaDrill
T1C0.0157
; #@! TA.AperFunction,Plated,PTH,ComponentDrill
T2C0.0315
; #@! TA.AperFunction,Plated,PTH,ComponentDrill
T3C0.0350
; #@! TA.AperFunction,Plated,PTH,ComponentDrill
T4C0.0354
; #@! TA.AperFunction,Plated,PTH,ComponentDrill
T5C0.0984
%
G90
G05
T1
X2.6668Y-2.7554
X2.6746Y-2.9164
X2.7133Y-2.9705
X2.7319Y-2.3092
X2.895Y-2.295
X3.0561Y-2.44
X3.0561Y-3.235
X3.1223Y-2.1314
X3.1528Y-2.1691
X3.165Y-2.58
X3.185Y-3.4921
X3.187Y-1.9573
X3.1887Y-2.385
X3.1931Y-2.2247
X3.1993Y-2.2662
X3.2173Y-2.7029
X3.27Y-2.385
X3.29Y-3.185
X3.3Y-2.0
X3.3075Y-3.5275
X3.3784Y-2.1531
X3.3909Y-2.6436
X3.3914Y-2.5612
X3.4488Y-2.9291
X3.4879Y-2.1184
X3.4911Y-2.9255
X3.4949Y-2.7336
X3.4955Y-2.5818
X3.5472Y-2.9843
X3.5512Y-2.3465
X3.57Y-2.6104
X3.5806Y-2.7158
X3.5906Y-2.3612
X3.648Y-2.7331
X3.6535Y-2.2913
X3.6555Y-2.8357
X3.6654Y-2.1417
X3.7008Y-2.2008
X3.7098Y-2.6929
X3.7831Y-2.2142
X3.8808Y-2.6368
X3.8931Y-2.5669
X3.8999Y-2.5187
X3.935Y-1.98
X4.0378Y-1.9325
X4.0768Y-2.6126
X4.0777Y-2.3592
X4.0833Y-2.0176
T2
X3.4201Y-1.9573
X3.6799Y-1.9573
X4.1575Y-2.2205
X4.1575Y-2.2992
X4.1575Y-2.378
X4.1575Y-2.4567
X4.1575Y-2.5354
X4.1575Y-2.6142
X4.1575Y-2.6929
X4.1575Y-2.7717
X4.1575Y-2.8504
X4.1575Y-2.9291
X4.1575Y-3.0079
X4.1575Y-3.0866
X4.1575Y-3.1654
T3
X2.7951Y-1.7986
X3.0411Y-1.7986
T5
X2.6Y-1.85
X2.6Y-3.65
X4.15Y-1.85
T4
G00X3.4083Y-1.8392
M15
G01X3.4083Y-1.855
M16
G05
G00X3.6917Y-1.8392
M15
G01X3.6917Y-1.855
M16
G05
T0
M30
