M48
; DRILL file {KiCad (6.0.1)} date Sat Feb 18 08:42:06 2023
; FORMAT={-:-/ absolute / inch / decimal}
; #@! TF.CreationDate,2023-02-18T08:42:06-06:00
; #@! TF.GenerationSoftware,Kicad,Pcbnew,(6.0.1)
; #@! TF.FileFunction,Plated,1,2,PTH
FMAT,2
INCH
; #@! TA.AperFunction,Plated,PTH,ViaDrill
T1C0.0157
; #@! TA.AperFunction,Plated,PTH,ComponentDrill
T2C0.0315
; #@! TA.AperFunction,Plated,PTH,ComponentDrill
T3C0.0350
; #@! TA.AperFunction,Plated,PTH,ComponentDrill
T4C0.0354
; #@! TA.AperFunction,Plated,PTH,ComponentDrill
T5C0.0394
; #@! TA.AperFunction,Plated,PTH,ComponentDrill
T6C0.0984
%
G90
G05
T1
X2.6668Y-2.7554
X2.6746Y-2.9164
X2.7133Y-2.9954
X2.7319Y-2.3092
X2.9016Y-3.2283
X3.0542Y-2.3557
X3.0591Y-3.4134
X3.0669Y-3.2953
X3.0778Y-3.0342
X3.1181Y-3.0354
X3.1223Y-2.1314
X3.1528Y-2.1691
X3.185Y-3.4921
X3.187Y-1.9573
X3.1931Y-2.2247
X3.1993Y-2.2662
X3.2062Y-2.3668
X3.2173Y-2.7029
X3.2835Y-3.1457
X3.3784Y-2.1531
X3.3909Y-2.6436
X3.3914Y-2.5612
X3.4488Y-2.9291
X3.4879Y-2.1184
X3.4911Y-2.9255
X3.4949Y-2.7336
X3.4955Y-2.5818
X3.5252Y-2.4001
X3.5472Y-2.9843
X3.5646Y-2.4029
X3.5806Y-2.7158
X3.648Y-2.7331
X3.6555Y-2.3044
X3.6555Y-2.8357
X3.6654Y-2.1417
X3.7008Y-2.2008
X3.7098Y-2.6929
X3.7795Y-3.2559
X3.7831Y-2.2142
X3.7835Y-3.189
X3.8808Y-2.6368
X3.8999Y-2.5187
X3.9105Y-2.5842
X3.9248Y-2.1483
X4.0064Y-2.6589
X4.0378Y-1.9325
X4.0768Y-2.6126
X4.0787Y-3.2205
X4.0833Y-2.0176
X4.0934Y-2.3346
T2
X3.4201Y-1.9573
X3.6799Y-1.9573
T3
X2.7951Y-1.7986
X3.0411Y-1.7986
T5
X4.1567Y-2.3917
X4.1567Y-2.4917
X4.1567Y-2.5917
X4.1567Y-2.6917
X4.1567Y-2.7917
X4.1567Y-2.8917
X4.1567Y-2.9917
X4.1567Y-3.0917
X4.1567Y-3.1917
X4.1567Y-3.2917
T6
X2.6Y-1.85
X2.6Y-3.65
X4.15Y-1.85
X4.15Y-3.65
T4
G00X3.4083Y-1.8392
M15
G01X3.4083Y-1.855
M16
G05
G00X3.6917Y-1.8392
M15
G01X3.6917Y-1.855
M16
G05
T0
M30
