%TF.GenerationSoftware,KiCad,Pcbnew,7.0.5*%
%TF.CreationDate,2023-10-04T06:58:16-05:00*%
%TF.ProjectId,dropkick,64726f70-6b69-4636-9b2e-6b696361645f,rev?*%
%TF.SameCoordinates,Original*%
%TF.FileFunction,Copper,L1,Top*%
%TF.FilePolarity,Positive*%
%FSLAX46Y46*%
G04 Gerber Fmt 4.6, Leading zero omitted, Abs format (unit mm)*
G04 Created by KiCad (PCBNEW 7.0.5) date 2023-10-04 06:58:16*
%MOMM*%
%LPD*%
G01*
G04 APERTURE LIST*
G04 Aperture macros list*
%AMRoundRect*
0 Rectangle with rounded corners*
0 $1 Rounding radius*
0 $2 $3 $4 $5 $6 $7 $8 $9 X,Y pos of 4 corners*
0 Add a 4 corners polygon primitive as box body*
4,1,4,$2,$3,$4,$5,$6,$7,$8,$9,$2,$3,0*
0 Add four circle primitives for the rounded corners*
1,1,$1+$1,$2,$3*
1,1,$1+$1,$4,$5*
1,1,$1+$1,$6,$7*
1,1,$1+$1,$8,$9*
0 Add four rect primitives between the rounded corners*
20,1,$1+$1,$2,$3,$4,$5,0*
20,1,$1+$1,$4,$5,$6,$7,0*
20,1,$1+$1,$6,$7,$8,$9,0*
20,1,$1+$1,$8,$9,$2,$3,0*%
G04 Aperture macros list end*
%TA.AperFunction,SMDPad,CuDef*%
%ADD10RoundRect,0.225000X0.225000X0.250000X-0.225000X0.250000X-0.225000X-0.250000X0.225000X-0.250000X0*%
%TD*%
%TA.AperFunction,SMDPad,CuDef*%
%ADD11RoundRect,0.218750X0.256250X-0.218750X0.256250X0.218750X-0.256250X0.218750X-0.256250X-0.218750X0*%
%TD*%
%TA.AperFunction,SMDPad,CuDef*%
%ADD12RoundRect,0.200000X-0.275000X0.200000X-0.275000X-0.200000X0.275000X-0.200000X0.275000X0.200000X0*%
%TD*%
%TA.AperFunction,SMDPad,CuDef*%
%ADD13R,0.508000X0.889000*%
%TD*%
%TA.AperFunction,SMDPad,CuDef*%
%ADD14RoundRect,0.250000X-0.250000X-0.475000X0.250000X-0.475000X0.250000X0.475000X-0.250000X0.475000X0*%
%TD*%
%TA.AperFunction,SMDPad,CuDef*%
%ADD15RoundRect,0.135000X-0.135000X-0.185000X0.135000X-0.185000X0.135000X0.185000X-0.135000X0.185000X0*%
%TD*%
%TA.AperFunction,ComponentPad*%
%ADD16C,3.200000*%
%TD*%
%TA.AperFunction,ComponentPad*%
%ADD17R,1.350000X1.350000*%
%TD*%
%TA.AperFunction,ComponentPad*%
%ADD18O,1.350000X1.350000*%
%TD*%
%TA.AperFunction,SMDPad,CuDef*%
%ADD19RoundRect,0.225000X0.250000X-0.225000X0.250000X0.225000X-0.250000X0.225000X-0.250000X-0.225000X0*%
%TD*%
%TA.AperFunction,SMDPad,CuDef*%
%ADD20RoundRect,0.218750X-0.256250X0.218750X-0.256250X-0.218750X0.256250X-0.218750X0.256250X0.218750X0*%
%TD*%
%TA.AperFunction,SMDPad,CuDef*%
%ADD21RoundRect,0.200000X0.275000X-0.200000X0.275000X0.200000X-0.275000X0.200000X-0.275000X-0.200000X0*%
%TD*%
%TA.AperFunction,SMDPad,CuDef*%
%ADD22RoundRect,0.200000X-0.200000X-0.275000X0.200000X-0.275000X0.200000X0.275000X-0.200000X0.275000X0*%
%TD*%
%TA.AperFunction,SMDPad,CuDef*%
%ADD23R,1.500000X0.700000*%
%TD*%
%TA.AperFunction,SMDPad,CuDef*%
%ADD24R,1.500000X1.000000*%
%TD*%
%TA.AperFunction,SMDPad,CuDef*%
%ADD25R,0.700000X1.500000*%
%TD*%
%TA.AperFunction,SMDPad,CuDef*%
%ADD26RoundRect,0.225000X-0.225000X-0.250000X0.225000X-0.250000X0.225000X0.250000X-0.225000X0.250000X0*%
%TD*%
%TA.AperFunction,SMDPad,CuDef*%
%ADD27R,1.900000X1.100000*%
%TD*%
%TA.AperFunction,SMDPad,CuDef*%
%ADD28R,1.200000X0.550000*%
%TD*%
%TA.AperFunction,SMDPad,CuDef*%
%ADD29RoundRect,0.250000X0.475000X-0.250000X0.475000X0.250000X-0.475000X0.250000X-0.475000X-0.250000X0*%
%TD*%
%TA.AperFunction,SMDPad,CuDef*%
%ADD30R,1.000000X2.000000*%
%TD*%
%TA.AperFunction,SMDPad,CuDef*%
%ADD31R,0.400000X1.350000*%
%TD*%
%TA.AperFunction,ComponentPad*%
%ADD32O,2.400000X1.200000*%
%TD*%
%TA.AperFunction,ComponentPad*%
%ADD33R,2.500000X2.500000*%
%TD*%
%TA.AperFunction,SMDPad,CuDef*%
%ADD34RoundRect,0.250000X0.250000X0.475000X-0.250000X0.475000X-0.250000X-0.475000X0.250000X-0.475000X0*%
%TD*%
%TA.AperFunction,SMDPad,CuDef*%
%ADD35RoundRect,0.218750X0.218750X0.256250X-0.218750X0.256250X-0.218750X-0.256250X0.218750X-0.256250X0*%
%TD*%
%TA.AperFunction,SMDPad,CuDef*%
%ADD36RoundRect,0.225000X-0.250000X0.225000X-0.250000X-0.225000X0.250000X-0.225000X0.250000X0.225000X0*%
%TD*%
%TA.AperFunction,SMDPad,CuDef*%
%ADD37R,1.400000X1.400000*%
%TD*%
%TA.AperFunction,SMDPad,CuDef*%
%ADD38R,2.600000X4.000000*%
%TD*%
%TA.AperFunction,SMDPad,CuDef*%
%ADD39RoundRect,0.070000X0.070000X-0.330000X0.070000X0.330000X-0.070000X0.330000X-0.070000X-0.330000X0*%
%TD*%
%TA.AperFunction,SMDPad,CuDef*%
%ADD40RoundRect,0.070000X-0.330000X-0.070000X0.330000X-0.070000X0.330000X0.070000X-0.330000X0.070000X0*%
%TD*%
%TA.AperFunction,SMDPad,CuDef*%
%ADD41RoundRect,0.070000X-0.070000X0.330000X-0.070000X-0.330000X0.070000X-0.330000X0.070000X0.330000X0*%
%TD*%
%TA.AperFunction,SMDPad,CuDef*%
%ADD42RoundRect,0.070000X0.330000X0.070000X-0.330000X0.070000X-0.330000X-0.070000X0.330000X-0.070000X0*%
%TD*%
%TA.AperFunction,SMDPad,CuDef*%
%ADD43R,1.346200X0.279400*%
%TD*%
%TA.AperFunction,SMDPad,CuDef*%
%ADD44R,0.279400X1.346200*%
%TD*%
%TA.AperFunction,SMDPad,CuDef*%
%ADD45R,0.350000X0.350000*%
%TD*%
%TA.AperFunction,ComponentPad*%
%ADD46C,1.397000*%
%TD*%
%TA.AperFunction,ViaPad*%
%ADD47C,0.800000*%
%TD*%
%TA.AperFunction,Conductor*%
%ADD48C,0.250000*%
%TD*%
%TA.AperFunction,Conductor*%
%ADD49C,0.750000*%
%TD*%
G04 APERTURE END LIST*
D10*
%TO.P,C12,1,1*%
%TO.N,/REGOUT*%
X72228000Y-56850000D03*
%TO.P,C12,2,2*%
%TO.N,GND*%
X70678000Y-56850000D03*
%TD*%
D11*
%TO.P,CHG1,1,K*%
%TO.N,Net-(CHG1-K)*%
X83820000Y-47997500D03*
%TO.P,CHG1,2,A*%
%TO.N,VBUS*%
X83820000Y-46422500D03*
%TD*%
D12*
%TO.P,R3,1,1*%
%TO.N,/D9*%
X85110300Y-70459000D03*
%TO.P,R3,2,2*%
%TO.N,GND*%
X85110300Y-72109000D03*
%TD*%
D13*
%TO.P,SW2,1,1*%
%TO.N,/~{RESET}*%
X96481999Y-54627998D03*
%TO.P,SW2,2,2*%
%TO.N,GND*%
X98082001Y-54627998D03*
%TO.P,SW2,3,3*%
X98082001Y-50528002D03*
%TO.P,SW2,4,4*%
%TO.N,/~{RESET}*%
X96481999Y-50528002D03*
%TD*%
D14*
%TO.P,C2,1,1*%
%TO.N,+3V3*%
X99050000Y-72050000D03*
%TO.P,C2,2,2*%
%TO.N,GND*%
X100950000Y-72050000D03*
%TD*%
D15*
%TO.P,R7,1,1*%
%TO.N,/SCL*%
X79754000Y-86741000D03*
%TO.P,R7,2,2*%
%TO.N,Net-(U3-SCL{slash}_SPI_CLK)*%
X80774000Y-86741000D03*
%TD*%
D10*
%TO.P,C7,1,1*%
%TO.N,Net-(U4-PA00{slash}EINT0{slash}SERCOM1.0)*%
X81881300Y-62198000D03*
%TO.P,C7,2,2*%
%TO.N,GND*%
X80331300Y-62198000D03*
%TD*%
D16*
%TO.P,H2,P$1*%
%TO.N,N/C*%
X105410000Y-46990000D03*
%TD*%
D17*
%TO.P,J1,1,Pin_1*%
%TO.N,VBAT*%
X105600000Y-56400000D03*
D18*
%TO.P,J1,2,Pin_2*%
%TO.N,+3V3*%
X105600000Y-58400000D03*
%TO.P,J1,3,Pin_3*%
%TO.N,/~{RESET}*%
X105600000Y-60400000D03*
%TO.P,J1,4,Pin_4*%
%TO.N,/SWCLK*%
X105600000Y-62400000D03*
%TO.P,J1,5,Pin_5*%
%TO.N,/SWDIO*%
X105600000Y-64400000D03*
%TO.P,J1,6,Pin_6*%
%TO.N,/SCL*%
X105600000Y-66400000D03*
%TO.P,J1,7,Pin_7*%
%TO.N,/SDA*%
X105600000Y-68400000D03*
%TO.P,J1,8,Pin_8*%
%TO.N,GND*%
X105600000Y-70400000D03*
%TO.P,J1,9,Pin_9*%
%TO.N,/AREF*%
X105600000Y-72400000D03*
%TO.P,J1,10,Pin_10*%
%TO.N,/A0*%
X105600000Y-74400000D03*
%TO.P,J1,11,Pin_11*%
%TO.N,/A1*%
X105600000Y-76400000D03*
%TO.P,J1,12,Pin_12*%
%TO.N,/D0*%
X105600000Y-78400000D03*
%TO.P,J1,13,Pin_13*%
%TO.N,/D1*%
X105600000Y-80400000D03*
%TD*%
D12*
%TO.P,R13,1,1*%
%TO.N,+3V3*%
X99000000Y-60375000D03*
%TO.P,R13,2,2*%
%TO.N,/SCL*%
X99000000Y-62025000D03*
%TD*%
D16*
%TO.P,H1,P$1*%
%TO.N,N/C*%
X66040000Y-46990000D03*
%TD*%
D19*
%TO.P,C10,1,1*%
%TO.N,Net-(U4-VDDCORE)*%
X91186000Y-57925000D03*
%TO.P,C10,2,2*%
%TO.N,GND*%
X91186000Y-56375000D03*
%TD*%
D10*
%TO.P,C8,1,1*%
%TO.N,Net-(U4-PA01{slash}EINT1{slash}SERCOM1.1)*%
X81881300Y-63722000D03*
%TO.P,C8,2,2*%
%TO.N,GND*%
X80331300Y-63722000D03*
%TD*%
D20*
%TO.P,L2,1,K*%
%TO.N,GND*%
X97282000Y-46710500D03*
%TO.P,L2,2,A*%
%TO.N,Net-(L2-A)*%
X97282000Y-48285500D03*
%TD*%
D21*
%TO.P,R14,1,1*%
%TO.N,+3V3*%
X103800000Y-69225000D03*
%TO.P,R14,2,2*%
%TO.N,/SDA*%
X103800000Y-67575000D03*
%TD*%
D22*
%TO.P,R5,1,1*%
%TO.N,Net-(CHG1-K)*%
X88075000Y-58547000D03*
%TO.P,R5,2,2*%
%TO.N,Net-(U2-STAT)*%
X89725000Y-58547000D03*
%TD*%
D14*
%TO.P,C4,1,1*%
%TO.N,+3V3*%
X100650000Y-60400000D03*
%TO.P,C4,2,2*%
%TO.N,GND*%
X102550000Y-60400000D03*
%TD*%
D23*
%TO.P,U3,1,VCC_IO*%
%TO.N,+3V3*%
X82300000Y-81700000D03*
%TO.P,U3,2,Reserved1*%
%TO.N,unconnected-(U3-Reserved1-Pad2)*%
X82300000Y-82700000D03*
%TO.P,U3,3,SDA/_SPI_CS_N*%
%TO.N,Net-(U3-SDA{slash}_SPI_CS_N)*%
X82300000Y-83700000D03*
%TO.P,U3,4,GND*%
%TO.N,GND*%
X82300000Y-84700001D03*
%TO.P,U3,5,GND*%
X82300000Y-85700000D03*
%TO.P,U3,6,SCL/_SPI_CLK*%
%TO.N,Net-(U3-SCL{slash}_SPI_CLK)*%
X82300000Y-86700000D03*
%TO.P,U3,7,EXTINT*%
%TO.N,unconnected-(U3-EXTINT-Pad7)*%
X82300000Y-87700000D03*
%TO.P,U3,8,V_BCKP*%
%TO.N,/VBACKUP*%
X82300000Y-88700001D03*
%TO.P,U3,9,VCC*%
%TO.N,+3V3*%
X82300000Y-89700001D03*
%TO.P,U3,10,GND*%
%TO.N,GND*%
X82300000Y-90699999D03*
%TO.P,U3,11,GND*%
X82300000Y-91700000D03*
%TO.P,U3,12,GND*%
X82300000Y-92700000D03*
D24*
%TO.P,U3,13,GND*%
X82300000Y-93850000D03*
%TO.P,U3,14,GND*%
X91100000Y-93800000D03*
D23*
%TO.P,U3,15,GND*%
X91100000Y-92700000D03*
%TO.P,U3,16,RF_OUT*%
%TO.N,/RF*%
X91100000Y-91700000D03*
%TO.P,U3,17,RF_IN*%
X91100000Y-90699999D03*
%TO.P,U3,18,GND*%
%TO.N,GND*%
X91100000Y-89700001D03*
%TO.P,U3,19,GND*%
X91100000Y-88700001D03*
%TO.P,U3,20,D_SEL*%
%TO.N,unconnected-(U3-D_SEL-Pad20)*%
X91100000Y-87700000D03*
%TO.P,U3,21,GND*%
%TO.N,GND*%
X91100000Y-86699999D03*
%TO.P,U3,22,GND*%
X91100000Y-85699999D03*
%TO.P,U3,23,RESET_N*%
%TO.N,unconnected-(U3-RESET_N-Pad23)*%
X91100000Y-84700000D03*
%TO.P,U3,24,SAFEBOOT_N*%
%TO.N,unconnected-(U3-SAFEBOOT_N-Pad24)*%
X91100000Y-83700000D03*
%TO.P,U3,25,TXD/_SPI_MISO*%
%TO.N,unconnected-(U3-TXD{slash}_SPI_MISO-Pad25)*%
X91100000Y-82700000D03*
%TO.P,U3,26,RXD/_SPI_MOSI*%
%TO.N,unconnected-(U3-RXD{slash}_SPI_MOSI-Pad26)*%
X91100000Y-81700000D03*
D25*
%TO.P,U3,27,GND*%
%TO.N,GND*%
X88700000Y-81300000D03*
%TO.P,U3,28,Reserved2*%
%TO.N,unconnected-(U3-Reserved2-Pad28)*%
X87700000Y-81300000D03*
%TO.P,U3,29,TIMEPULSE*%
%TO.N,unconnected-(U3-TIMEPULSE-Pad29)*%
X86700000Y-81300000D03*
%TO.P,U3,30,LNA_EN*%
%TO.N,unconnected-(U3-LNA_EN-Pad30)*%
X85700000Y-81300000D03*
%TO.P,U3,31,GND*%
%TO.N,GND*%
X84699999Y-81300000D03*
%TD*%
D21*
%TO.P,R10,1,1*%
%TO.N,/D13*%
X99568000Y-49085000D03*
%TO.P,R10,2,2*%
%TO.N,Net-(L2-A)*%
X99568000Y-47435000D03*
%TD*%
D16*
%TO.P,H3,P$1*%
%TO.N,N/C*%
X66040000Y-92710000D03*
%TD*%
D26*
%TO.P,C5,1,1*%
%TO.N,+3V3*%
X90275000Y-73450000D03*
%TO.P,C5,2,2*%
%TO.N,GND*%
X91825000Y-73450000D03*
%TD*%
D21*
%TO.P,R1,1,1*%
%TO.N,VBAT*%
X83586300Y-72109000D03*
%TO.P,R1,2,2*%
%TO.N,/D9*%
X83586300Y-70459000D03*
%TD*%
D27*
%TO.P,X4,P$1,P$1*%
%TO.N,Net-(U4-PA00{slash}EINT0{slash}SERCOM1.0)*%
X84154300Y-62014000D03*
%TO.P,X4,P$2,P$2*%
%TO.N,Net-(U4-PA01{slash}EINT1{slash}SERCOM1.1)*%
X84154300Y-64414000D03*
%TD*%
D21*
%TO.P,R12,1,1*%
%TO.N,+3V3*%
X73450000Y-49575000D03*
%TO.P,R12,2,2*%
%TO.N,Net-(L3-A)*%
X73450000Y-47925000D03*
%TD*%
D28*
%TO.P,U1,1,IN*%
%TO.N,VBUS*%
X100614100Y-58350000D03*
%TO.P,U1,2,GND*%
%TO.N,GND*%
X100614100Y-57400000D03*
%TO.P,U1,3,EN*%
%TO.N,/EN*%
X100614100Y-56450000D03*
%TO.P,U1,4,P4*%
%TO.N,unconnected-(U1-P4-Pad4)*%
X98013900Y-56450000D03*
%TO.P,U1,5,OUT*%
%TO.N,+3V3*%
X98013900Y-58350000D03*
%TD*%
D29*
%TO.P,C3,1,1*%
%TO.N,VBUS*%
X94488000Y-54605000D03*
%TO.P,C3,2,2*%
%TO.N,GND*%
X94488000Y-52705000D03*
%TD*%
D30*
%TO.P,X1,BASE@1,GND*%
%TO.N,GND*%
X90919600Y-46816600D03*
%TO.P,X1,BASE@2,GND*%
X89419600Y-46816600D03*
D31*
%TO.P,X1,D+,D+*%
%TO.N,/D+*%
X90169600Y-49591600D03*
%TO.P,X1,D-,D-*%
%TO.N,/D-*%
X90819600Y-49591600D03*
%TO.P,X1,GND,GND*%
%TO.N,GND*%
X88869600Y-49591600D03*
%TO.P,X1,ID,ID*%
%TO.N,unconnected-(X1-PadID)*%
X89519600Y-49591600D03*
D32*
%TO.P,X1,SPRT@1,GND*%
%TO.N,GND*%
X94069600Y-49716600D03*
%TO.P,X1,SPRT@2,GND*%
X86269600Y-49716600D03*
D33*
%TO.P,X1,SPRT@3,GND*%
X93769600Y-46916600D03*
%TO.P,X1,SPRT@4,GND*%
X86569600Y-46916600D03*
D31*
%TO.P,X1,VBUS,VBUS*%
%TO.N,VBUS*%
X91469600Y-49591600D03*
%TD*%
D19*
%TO.P,C13,1,1*%
%TO.N,/CPOUT*%
X80899000Y-53734000D03*
%TO.P,C13,2,2*%
%TO.N,GND*%
X80899000Y-52184000D03*
%TD*%
D34*
%TO.P,C9,1,1*%
%TO.N,VBAT*%
X88072000Y-52451000D03*
%TO.P,C9,2,2*%
%TO.N,GND*%
X86172000Y-52451000D03*
%TD*%
D35*
%TO.P,L3,1,K*%
%TO.N,GND*%
X74987500Y-45700000D03*
%TO.P,L3,2,A*%
%TO.N,Net-(L3-A)*%
X73412500Y-45700000D03*
%TD*%
D36*
%TO.P,C15,1,1*%
%TO.N,+3V3*%
X76200000Y-59677000D03*
%TO.P,C15,2,2*%
%TO.N,GND*%
X76200000Y-61227000D03*
%TD*%
D21*
%TO.P,R4,1,1*%
%TO.N,Net-(U2-PROG)*%
X84300000Y-54175000D03*
%TO.P,R4,2,2*%
%TO.N,GND*%
X84300000Y-52525000D03*
%TD*%
D10*
%TO.P,C1,1,1*%
%TO.N,/AREF*%
X83329300Y-66564000D03*
%TO.P,C1,2,2*%
%TO.N,GND*%
X81779300Y-66564000D03*
%TD*%
D19*
%TO.P,C16,1,1*%
%TO.N,+3V3*%
X103600000Y-63775000D03*
%TO.P,C16,2,2*%
%TO.N,GND*%
X103600000Y-62225000D03*
%TD*%
D37*
%TO.P,D1,A,A*%
%TO.N,VBAT*%
X105650000Y-51500000D03*
%TO.P,D1,C,C*%
%TO.N,VBUS*%
X101950000Y-51500000D03*
%TD*%
D21*
%TO.P,R11,1,1*%
%TO.N,/D8*%
X81915000Y-48069000D03*
%TO.P,R11,2,2*%
%TO.N,Net-(L1-A)*%
X81915000Y-46419000D03*
%TD*%
D34*
%TO.P,C6,1,1*%
%TO.N,+3V3*%
X79817000Y-89789000D03*
%TO.P,C6,2,2*%
%TO.N,GND*%
X77917000Y-89789000D03*
%TD*%
D38*
%TO.P,B1,+,+*%
%TO.N,/VBACKUP*%
X73700000Y-78910000D03*
%TO.P,B1,-,-*%
%TO.N,GND*%
X73730000Y-62730000D03*
%TD*%
D39*
%TO.P,U6,1,CLKIN*%
%TO.N,GND*%
X78300000Y-54150000D03*
%TO.P,U6,2*%
%TO.N,N/C*%
X77800000Y-54150000D03*
%TO.P,U6,3*%
X77300000Y-54150000D03*
%TO.P,U6,4*%
X76800000Y-54150000D03*
%TO.P,U6,5*%
X76300000Y-54150000D03*
%TO.P,U6,6,AUX_DA*%
%TO.N,/SDA_EXT*%
X75800000Y-54150000D03*
D40*
%TO.P,U6,7,AUX_CL*%
%TO.N,/SCL_EXT*%
X75050000Y-54900000D03*
%TO.P,U6,8,VLOGIC*%
%TO.N,+3V3*%
X75050000Y-55400000D03*
%TO.P,U6,9,AD0*%
%TO.N,GND*%
X75050000Y-55900000D03*
%TO.P,U6,10,REGOUT*%
%TO.N,/REGOUT*%
X75050000Y-56400000D03*
%TO.P,U6,11,FSYNC*%
%TO.N,GND*%
X75050000Y-56900000D03*
%TO.P,U6,12,INT*%
%TO.N,/INT*%
X75050000Y-57400000D03*
D41*
%TO.P,U6,13,VDD*%
%TO.N,+3V3*%
X75800000Y-58150000D03*
%TO.P,U6,14*%
%TO.N,N/C*%
X76300000Y-58150000D03*
%TO.P,U6,15*%
X76800000Y-58150000D03*
%TO.P,U6,16*%
X77300000Y-58150000D03*
%TO.P,U6,17*%
X77800000Y-58150000D03*
%TO.P,U6,18,GND*%
%TO.N,GND*%
X78300000Y-58150000D03*
D42*
%TO.P,U6,19,RSVD@1*%
%TO.N,unconnected-(U6-RSVD@1-Pad19)*%
X79050000Y-57400000D03*
%TO.P,U6,20,CPOUT*%
%TO.N,/CPOUT*%
X79050000Y-56900000D03*
%TO.P,U6,21,RSVD@2*%
%TO.N,unconnected-(U6-RSVD@2-Pad21)*%
X79050000Y-56400000D03*
%TO.P,U6,22,RSVD@3*%
%TO.N,unconnected-(U6-RSVD@3-Pad22)*%
X79050000Y-55900000D03*
%TO.P,U6,23,SCL*%
%TO.N,/SCL*%
X79050000Y-55400000D03*
%TO.P,U6,24,SDA*%
%TO.N,/SDA*%
X79050000Y-54900000D03*
%TD*%
D10*
%TO.P,C14,1,1*%
%TO.N,+3V3*%
X73673000Y-54991000D03*
%TO.P,C14,2,2*%
%TO.N,GND*%
X72123000Y-54991000D03*
%TD*%
D43*
%TO.P,U4,1,PA00/EINT0/SERCOM1.0*%
%TO.N,Net-(U4-PA00{slash}EINT0{slash}SERCOM1.0)*%
X87421700Y-63800000D03*
%TO.P,U4,2,PA01/EINT1/SERCOM1.1*%
%TO.N,Net-(U4-PA01{slash}EINT1{slash}SERCOM1.1)*%
X87421700Y-64299999D03*
%TO.P,U4,3,PA02/EINT2/AIN0/Y0/VOUT*%
%TO.N,/A0*%
X87421700Y-64800001D03*
%TO.P,U4,4,PA03/EINT3/VREFA/AIN1*%
%TO.N,/AREF*%
X87421700Y-65300000D03*
%TO.P,U4,5,GNDA*%
%TO.N,GND*%
X87421700Y-65799999D03*
%TO.P,U4,6,VDDA*%
%TO.N,+3V3*%
X87421700Y-66300000D03*
%TO.P,U4,7,PB08/I8/AIN2/SERCOM4.0*%
%TO.N,/A1*%
X87421700Y-66800000D03*
%TO.P,U4,8,PB09/I9/AIN3/SERCOM4.1*%
%TO.N,/A2*%
X87421700Y-67300001D03*
%TO.P,U4,9,PA04/EINT4/VREFB/AIN4/SERCOM0.0*%
%TO.N,/A3*%
X87421700Y-67800000D03*
%TO.P,U4,10,PA05/EINT5/AIN5/SERCOM0.1*%
%TO.N,/A4*%
X87421700Y-68299999D03*
%TO.P,U4,11,PA06/EINT6/AIN6/SERCOM0.2*%
%TO.N,/D8*%
X87421700Y-68800001D03*
%TO.P,U4,12,PA07/I7/AIN7/SERCOM0.3/I2SD0*%
%TO.N,/D9*%
X87421700Y-69300000D03*
D44*
%TO.P,U4,13,PA08/I2C/AIN16/SERCOM0+2.0/I2SD1*%
%TO.N,/SD_CS*%
X88850000Y-70728300D03*
%TO.P,U4,14,PA09/I2C/I9/AIN17/SERCOM0+2.1/I2SMC*%
%TO.N,/D3*%
X89349999Y-70728300D03*
%TO.P,U4,15,PA10/I10/AIN18/SERCOM0+2.2/I2SCK*%
%TO.N,/D1*%
X89850001Y-70728300D03*
%TO.P,U4,16,PA11/I11/AIN19/SERCOM0+2.3/I2SF0*%
%TO.N,/D0*%
X90350000Y-70728300D03*
%TO.P,U4,17,VDDIO*%
%TO.N,+3V3*%
X90849999Y-70728300D03*
%TO.P,U4,18,GND*%
%TO.N,GND*%
X91350000Y-70728300D03*
%TO.P,U4,19,PB10/I10/SERCOM4.2/I2SMC*%
%TO.N,/MOSI*%
X91850000Y-70728300D03*
%TO.P,U4,20,PB11/I11/SERCOM4.3/I2SCL*%
%TO.N,/SCK*%
X92350001Y-70728300D03*
%TO.P,U4,21,PA12/I12/I2C/SERCOM2+4.0*%
%TO.N,/MISO*%
X92850000Y-70728300D03*
%TO.P,U4,22,PA13/I13/I2C/SERCOM2+4.1*%
%TO.N,unconnected-(U4-PA13{slash}I13{slash}I2C{slash}SERCOM2+4.1-Pad22)*%
X93349999Y-70728300D03*
%TO.P,U4,23,PA14/I14/SERCOM2+4.2*%
%TO.N,/D2*%
X93850001Y-70728300D03*
%TO.P,U4,24,PA15/I15/SERCOM3+4.3*%
%TO.N,/D5*%
X94350000Y-70728300D03*
D43*
%TO.P,U4,25,PA16/I2C/I0/SERCOM1+3.0*%
%TO.N,/INT*%
X95778300Y-69300000D03*
%TO.P,U4,26,PA17/I2C/I1/SERCOM1+3.1*%
%TO.N,/D13*%
X95778300Y-68800001D03*
%TO.P,U4,27,PA18/I2/SERCOM1+3.2*%
%TO.N,/D10*%
X95778300Y-68299999D03*
%TO.P,U4,28,PA19/I3/SERCOM1+3.3/I2SD0*%
%TO.N,/D12*%
X95778300Y-67800000D03*
%TO.P,U4,29,PA20/I4/SERCOM3+5.2/I2SSC*%
%TO.N,/D6*%
X95778300Y-67300001D03*
%TO.P,U4,30,PA21/I5/SERCOM3+5.3/I2SFS0*%
%TO.N,/D7*%
X95778300Y-66800000D03*
%TO.P,U4,31,PA22/I2C/I6/SERCOM3+5.0*%
%TO.N,/SDA*%
X95778300Y-66300000D03*
%TO.P,U4,32,PA23/I2C/I7/SERCOM3+5.1/SOF*%
%TO.N,/SCL*%
X95778300Y-65799999D03*
%TO.P,U4,33,PA24/I12/SERCOM3+5.2/D-*%
%TO.N,/D-*%
X95778300Y-65300000D03*
%TO.P,U4,34,PA25/I13/SERCOM3+5.3/D+*%
%TO.N,/D+*%
X95778300Y-64800001D03*
%TO.P,U4,35,GND*%
%TO.N,GND*%
X95778300Y-64299999D03*
%TO.P,U4,36,VDDIO*%
%TO.N,+3V3*%
X95778300Y-63800000D03*
D44*
%TO.P,U4,37,PB22/I6/SERCOM5.2*%
%TO.N,unconnected-(U4-PB22{slash}I6{slash}SERCOM5.2-Pad37)*%
X94350000Y-62371700D03*
%TO.P,U4,38,PB23/I7/SERCOM5.3*%
%TO.N,unconnected-(U4-PB23{slash}I7{slash}SERCOM5.3-Pad38)*%
X93850001Y-62371700D03*
%TO.P,U4,39,PA27/I15*%
%TO.N,unconnected-(U4-PA27{slash}I15-Pad39)*%
X93349999Y-62371700D03*
%TO.P,U4,40,/RESET*%
%TO.N,/~{RESET}*%
X92850000Y-62371700D03*
%TO.P,U4,41,PA28/I8*%
%TO.N,unconnected-(U4-PA28{slash}I8-Pad41)*%
X92350001Y-62371700D03*
%TO.P,U4,42,GND*%
%TO.N,GND*%
X91850000Y-62371700D03*
%TO.P,U4,43,VDDCORE*%
%TO.N,Net-(U4-VDDCORE)*%
X91350000Y-62371700D03*
%TO.P,U4,44,VDDIN*%
%TO.N,+3V3*%
X90849999Y-62371700D03*
%TO.P,U4,45,PA30/I10/SECOM1.2/SWCLK*%
%TO.N,/SWCLK*%
X90350000Y-62371700D03*
%TO.P,U4,46,PA31/I11/SECOM1.3/SWDIO*%
%TO.N,/SWDIO*%
X89850001Y-62371700D03*
%TO.P,U4,47,PB02/I2/AIN10/SERCOM5.0*%
%TO.N,/A5*%
X89349999Y-62371700D03*
%TO.P,U4,48,PB03/I3/AIN11/SERCOM5.1*%
%TO.N,unconnected-(U4-PB03{slash}I3{slash}AIN11{slash}SERCOM5.1-Pad48)*%
X88850000Y-62371700D03*
%TD*%
D11*
%TO.P,L1,1,K*%
%TO.N,GND*%
X80010000Y-48031500D03*
%TO.P,L1,2,A*%
%TO.N,Net-(L1-A)*%
X80010000Y-46456500D03*
%TD*%
D21*
%TO.P,R2,1,1*%
%TO.N,VBUS*%
X103200000Y-58125000D03*
%TO.P,R2,2,2*%
%TO.N,/EN*%
X103200000Y-56475000D03*
%TD*%
D15*
%TO.P,R6,1,1*%
%TO.N,/SDA*%
X79754000Y-83693000D03*
%TO.P,R6,2,2*%
%TO.N,Net-(U3-SDA{slash}_SPI_CS_N)*%
X80774000Y-83693000D03*
%TD*%
D28*
%TO.P,U2,1,STAT*%
%TO.N,Net-(U2-STAT)*%
X89408000Y-56830000D03*
%TO.P,U2,2,VSS*%
%TO.N,GND*%
X89408000Y-55880000D03*
%TO.P,U2,3,VBAT*%
%TO.N,VBAT*%
X89408000Y-54930000D03*
%TO.P,U2,4,VDD*%
%TO.N,VBUS*%
X86807800Y-54930000D03*
%TO.P,U2,5,PROG*%
%TO.N,Net-(U2-PROG)*%
X86807800Y-56830000D03*
%TD*%
D45*
%TO.P,U5,1,GND*%
%TO.N,GND*%
X100475000Y-65924999D03*
%TO.P,U5,2,CSB*%
X100475000Y-65275001D03*
%TO.P,U5,3,SDI*%
%TO.N,/SDA*%
X100475000Y-64624999D03*
%TO.P,U5,4,SCK*%
%TO.N,/SCL*%
X100475000Y-63975001D03*
%TO.P,U5,5,SDO*%
%TO.N,GND*%
X101925000Y-63975001D03*
%TO.P,U5,6,VDDIO*%
%TO.N,+3V3*%
X101925000Y-64624999D03*
%TO.P,U5,7,GND*%
%TO.N,GND*%
X101925000Y-65275001D03*
%TO.P,U5,8,VDD*%
%TO.N,+3V3*%
X101925000Y-65924999D03*
%TD*%
D36*
%TO.P,C11,1,1*%
%TO.N,+3V3*%
X102200000Y-67425000D03*
%TO.P,C11,2,2*%
%TO.N,GND*%
X102200000Y-68975000D03*
%TD*%
D46*
%TO.P,SW1,4*%
%TO.N,N/C*%
X70994999Y-45683932D03*
%TO.P,SW1,5*%
X77244999Y-45683932D03*
%TD*%
D47*
%TO.N,/VBACKUP*%
X77625500Y-82169000D03*
X80900000Y-88700000D03*
%TO.N,GND*%
X83820000Y-50800000D03*
X80391000Y-65532000D03*
X99949000Y-50292000D03*
X80949200Y-49716600D03*
X69391000Y-58654300D03*
X103574613Y-59923902D03*
X67933900Y-74075900D03*
X77625500Y-61976000D03*
%TO.N,/AREF*%
X86140900Y-65053700D03*
%TO.N,+3V3*%
X83566000Y-80899000D03*
X94000000Y-55900000D03*
X68917100Y-75449502D03*
X90100000Y-75800000D03*
X67735500Y-69987500D03*
X84010500Y-89598500D03*
%TO.N,VBUS*%
X93100000Y-54400000D03*
X85812299Y-54687701D03*
%TO.N,VBAT*%
X88591700Y-53808100D03*
X103715200Y-51247000D03*
X81718400Y-68654000D03*
%TO.N,/D13*%
X102561100Y-49086000D03*
X98571600Y-66973700D03*
%TO.N,/SCL*%
X99058600Y-63975000D03*
X80081500Y-55094200D03*
X81103700Y-56508200D03*
%TO.N,/SDA*%
X79306100Y-54136700D03*
X98885950Y-65198050D03*
X81261100Y-57560800D03*
X103550000Y-66360000D03*
%TO.N,/D1*%
X87600000Y-74400000D03*
%TO.N,/D0*%
X88672900Y-74308900D03*
%TO.N,/MISO*%
X92850000Y-72025900D03*
%TO.N,/MOSI*%
X90947600Y-68981200D03*
%TO.N,/SCK*%
X92659800Y-69420100D03*
%TO.N,/A1*%
X86129300Y-67148000D03*
%TO.N,/A0*%
X88786600Y-65578700D03*
%TO.N,/~{RESET}*%
X92800000Y-58200000D03*
X96089500Y-56241800D03*
%TO.N,/SWCLK*%
X91200000Y-59975500D03*
%TO.N,/SWDIO*%
X90200000Y-59600000D03*
%TO.N,/SD_CS*%
X88770600Y-69434700D03*
%TO.N,/D7*%
X94228900Y-68399200D03*
%TO.N,/INT*%
X90678000Y-66303200D03*
X80993900Y-60579000D03*
X73533000Y-58293000D03*
X83058000Y-60579000D03*
%TD*%
D48*
%TO.N,/VBACKUP*%
X77625500Y-82169000D02*
X76631999Y-82169000D01*
X73700000Y-79237001D02*
X73700000Y-78910000D01*
X76631999Y-82169000D02*
X73700000Y-79237001D01*
X82300000Y-88700001D02*
X81200001Y-88700001D01*
X81200001Y-88700001D02*
X80900000Y-88700000D01*
%TO.N,GND*%
X77625500Y-59350696D02*
X78300000Y-58676196D01*
X99688800Y-54567800D02*
X99688800Y-57400000D01*
X90333300Y-56272600D02*
X90333300Y-55880000D01*
X92911500Y-73450000D02*
X94959500Y-71402000D01*
X95636500Y-49758200D02*
X98082000Y-49758200D01*
X103574613Y-59923902D02*
X103574613Y-62199613D01*
X89408000Y-55880000D02*
X90333300Y-55880000D01*
X79088800Y-48927200D02*
X79088800Y-49116800D01*
X103574613Y-62199613D02*
X103600000Y-62225000D01*
X80256300Y-64547300D02*
X80512900Y-64547300D01*
X73804300Y-55900000D02*
X75050000Y-55900000D01*
X101219000Y-64256001D02*
X101219000Y-65278000D01*
X87421700Y-65800000D02*
X86423300Y-65800000D01*
X98082000Y-54435500D02*
X98082000Y-54243100D01*
X96776700Y-61151395D02*
X93025305Y-57400000D01*
X71478000Y-57650000D02*
X70678000Y-56850000D01*
X88970300Y-49490900D02*
X88970300Y-48591200D01*
X90360700Y-56300000D02*
X90333300Y-56272600D01*
X80864200Y-49631600D02*
X80949200Y-49716600D01*
X97282000Y-46448000D02*
X96356700Y-46448000D01*
X86172000Y-52451000D02*
X86172000Y-51375700D01*
X91900000Y-73450000D02*
X92911500Y-73450000D01*
X100890300Y-68975000D02*
X99695000Y-67779700D01*
X103026098Y-59923902D02*
X102550000Y-60400000D01*
X80899000Y-52184000D02*
X80899000Y-49766800D01*
X80512900Y-64547300D02*
X81704300Y-65738700D01*
X99695000Y-67779700D02*
X99695000Y-65913000D01*
X90919600Y-48141900D02*
X89419600Y-48141900D01*
X95778300Y-64299999D02*
X96776700Y-64300000D01*
X98082000Y-54243100D02*
X98082000Y-50528000D01*
X84809200Y-67414100D02*
X82744300Y-67414100D01*
X99556500Y-54435500D02*
X99688800Y-54567800D01*
X78300000Y-53022800D02*
X80060200Y-53022800D01*
X103574613Y-59923902D02*
X103026098Y-59923902D01*
X92011300Y-58611300D02*
X92400000Y-59000000D01*
X91850000Y-61400000D02*
X91850000Y-61373200D01*
X91900000Y-72624700D02*
X91900000Y-73450000D01*
X94959500Y-70059300D02*
X97415400Y-70059300D01*
X87882800Y-55280100D02*
X88482700Y-55880000D01*
X86172000Y-52451000D02*
X87882800Y-54161800D01*
X88869600Y-49591600D02*
X88970300Y-49490900D01*
X100614100Y-57400000D02*
X99688800Y-57400000D01*
X76200000Y-61976000D02*
X73784000Y-61976000D01*
X95594900Y-49716600D02*
X95636500Y-49758200D01*
X90919600Y-46816600D02*
X90919600Y-48141900D01*
X77625500Y-61976000D02*
X76200000Y-61976000D01*
X96776700Y-64300000D02*
X96776700Y-61151395D01*
X73730000Y-62030000D02*
X73730000Y-62730000D01*
X79603600Y-49631600D02*
X80864200Y-49631600D01*
X82744300Y-67414100D02*
X81704300Y-66374100D01*
X80010000Y-48031500D02*
X79984500Y-48031500D01*
X80256300Y-63722000D02*
X80256300Y-64547300D01*
X76200000Y-61227000D02*
X76200000Y-61976000D01*
X94959500Y-71402000D02*
X94959500Y-70059300D01*
X91350000Y-70728300D02*
X91350000Y-72074700D01*
X93769600Y-46916600D02*
X93769600Y-49716600D01*
X86869600Y-49716600D02*
X88744600Y-49716600D01*
X72123000Y-55359000D02*
X72123000Y-54991000D01*
X86423300Y-65800000D02*
X84809200Y-67414100D01*
X99706999Y-65924999D02*
X100475000Y-65924999D01*
X86869600Y-50678100D02*
X86172000Y-51375700D01*
X80060200Y-53022800D02*
X80899000Y-52184000D01*
X100475000Y-65275001D02*
X99697999Y-65275001D01*
X86569600Y-49416600D02*
X86569600Y-46916600D01*
X79984500Y-48031500D02*
X79088800Y-48927200D01*
X73784000Y-61976000D02*
X73730000Y-62030000D01*
X74950000Y-45700000D02*
X75675300Y-45700000D01*
X78300000Y-54150000D02*
X78300000Y-53022800D01*
X95888100Y-46916600D02*
X96356700Y-46448000D01*
X86869600Y-49716600D02*
X86869600Y-50678100D01*
X103600000Y-62300001D02*
X101925000Y-63975001D01*
X80256300Y-63722000D02*
X80256300Y-62198000D01*
X101925000Y-63975001D02*
X101500000Y-63975001D01*
X69727700Y-56850000D02*
X69391000Y-57186700D01*
X99695000Y-65278000D02*
X99695000Y-65913000D01*
X75675300Y-45700000D02*
X78030300Y-48055000D01*
X78030300Y-48055000D02*
X78216600Y-48055000D01*
X88595300Y-55880000D02*
X88482700Y-55880000D01*
X92011300Y-57400000D02*
X92011300Y-58611300D01*
X83820000Y-50800000D02*
X83820000Y-52045000D01*
X92400000Y-59000000D02*
X92400000Y-60850000D01*
X98082000Y-54435500D02*
X99556500Y-54435500D01*
X92400000Y-60850000D02*
X91850000Y-61400000D01*
X91350000Y-72074700D02*
X91900000Y-72624700D01*
X78300000Y-58676196D02*
X78300000Y-58150000D01*
X93025305Y-57400000D02*
X92011300Y-57400000D01*
X90872200Y-56300000D02*
X90360700Y-56300000D01*
X73764696Y-56900000D02*
X73014696Y-57650000D01*
X94488000Y-52705000D02*
X94488000Y-49716600D01*
X99697999Y-65275001D02*
X99695000Y-65278000D01*
X88744600Y-49716600D02*
X88869600Y-49591600D01*
X97415400Y-70059300D02*
X99695000Y-67779700D01*
X101219000Y-65278000D02*
X101221999Y-65275001D01*
X70603000Y-56850000D02*
X69727700Y-56850000D01*
X101221999Y-65275001D02*
X101925000Y-65275001D01*
X102000000Y-68975000D02*
X100890300Y-68975000D01*
X73014696Y-57650000D02*
X71478000Y-57650000D01*
X103600000Y-62225000D02*
X103600000Y-62300001D01*
X101925000Y-65275001D02*
X100475000Y-65275001D01*
X93769600Y-46916600D02*
X95888100Y-46916600D01*
X89419600Y-46816600D02*
X89419600Y-48141900D01*
X94488000Y-49716600D02*
X95594900Y-49716600D01*
X80899000Y-49766800D02*
X80949200Y-49716600D01*
X77625500Y-61976000D02*
X77625500Y-59350696D01*
X88970300Y-48591200D02*
X89419600Y-48141900D01*
X79088800Y-49116800D02*
X79603600Y-49631600D01*
X89408000Y-55880000D02*
X88595300Y-55880000D01*
X101500000Y-63975001D02*
X101219000Y-64256001D01*
X83820000Y-52045000D02*
X84300000Y-52525000D01*
X75050000Y-56900000D02*
X73764696Y-56900000D01*
X69391000Y-57186700D02*
X69391000Y-58654300D01*
X99695000Y-65913000D02*
X99706999Y-65924999D01*
X91850000Y-62371700D02*
X91850000Y-61400000D01*
X72682000Y-55918000D02*
X73797183Y-55918000D01*
X78216600Y-48055000D02*
X79088800Y-48927200D01*
X98082000Y-50528000D02*
X98082000Y-49758200D01*
X81704300Y-66263900D02*
X81704300Y-65738700D01*
X91186000Y-56300000D02*
X92011300Y-56300000D01*
X92011300Y-57400000D02*
X92011300Y-56300000D01*
X72682000Y-55918000D02*
X72123000Y-55359000D01*
X87882800Y-54161800D02*
X87882800Y-55280100D01*
%TO.N,/AREF*%
X84630600Y-66564000D02*
X83404300Y-66564000D01*
X86140900Y-65053700D02*
X84630600Y-66564000D01*
X86387200Y-65300000D02*
X86140900Y-65053700D01*
X87421700Y-65300000D02*
X86387200Y-65300000D01*
%TO.N,+3V3*%
X95849400Y-74275300D02*
X90200000Y-74275300D01*
X90850000Y-70728300D02*
X90850000Y-69729900D01*
X75800000Y-58693000D02*
X76200000Y-59093000D01*
X83909000Y-89700000D02*
X80725300Y-89700000D01*
X103748391Y-59199402D02*
X101850598Y-59199402D01*
X68498600Y-59479900D02*
X68200000Y-59181300D01*
X90670600Y-69729900D02*
X90850000Y-69729900D01*
X87421700Y-66300000D02*
X88353300Y-66300000D01*
X89087100Y-66304000D02*
X89087100Y-68146400D01*
X102724999Y-65550000D02*
X102724999Y-64624999D01*
X103600000Y-63775000D02*
X102750001Y-64624999D01*
X89516900Y-64609400D02*
X90756200Y-63370100D01*
X94350000Y-63370100D02*
X90850000Y-63370100D01*
X68961000Y-59436000D02*
X68917100Y-59479900D01*
X105600000Y-58923820D02*
X104400000Y-60123820D01*
X98939200Y-60314200D02*
X99000000Y-60375000D01*
X104400000Y-60123820D02*
X104400000Y-62975000D01*
X68200000Y-59181300D02*
X68200000Y-55493000D01*
X68917100Y-69987500D02*
X67735500Y-69987500D01*
X90200000Y-73450000D02*
X90200000Y-74275300D01*
X89516900Y-65874200D02*
X89516900Y-64609400D01*
X104547793Y-58400000D02*
X103748391Y-59199402D01*
X102525000Y-70500000D02*
X103800000Y-69225000D01*
X76200000Y-59093000D02*
X76200000Y-59677000D01*
X68917100Y-59479900D02*
X68917100Y-69987500D01*
X73912600Y-53973600D02*
X74168000Y-54229000D01*
X99050000Y-70974700D02*
X99524700Y-70500000D01*
X98074700Y-72050000D02*
X95849400Y-74275300D01*
X101850598Y-59199402D02*
X100650000Y-60400000D01*
X101925000Y-65924999D02*
X102350000Y-65924999D01*
X98013900Y-58350000D02*
X98939200Y-58350000D01*
X74168000Y-54496000D02*
X73673000Y-54991000D01*
X75050000Y-55400000D02*
X74082000Y-55400000D01*
X68917100Y-59479900D02*
X68498600Y-59479900D01*
X102350000Y-67275000D02*
X102200000Y-67425000D01*
X96450000Y-58350000D02*
X94000000Y-55900000D01*
X75800000Y-58150000D02*
X75800000Y-58693000D01*
X68200000Y-55493000D02*
X69719400Y-53973600D01*
X90200000Y-72624700D02*
X90850000Y-71974700D01*
X73450000Y-53973600D02*
X73450000Y-49600000D01*
X102302817Y-67425000D02*
X103800000Y-68922183D01*
X98939200Y-58350000D02*
X98939200Y-60314200D01*
X99524700Y-70500000D02*
X102525000Y-70500000D01*
X89087100Y-66304000D02*
X89516900Y-65874200D01*
X88357300Y-66304000D02*
X89087100Y-66304000D01*
X75057000Y-59436000D02*
X68961000Y-59436000D01*
X90200000Y-74275300D02*
X90200000Y-75700000D01*
X104400000Y-62975000D02*
X103600000Y-63775000D01*
X90756200Y-63370100D02*
X90850000Y-63370100D01*
X75800000Y-58693000D02*
X75057000Y-59436000D01*
X90850000Y-62371700D02*
X90850000Y-63370100D01*
X90850000Y-71974700D02*
X90850000Y-70728300D01*
X90200000Y-75700000D02*
X90100000Y-75800000D01*
X83101000Y-80899000D02*
X82300000Y-81700000D01*
X102350000Y-65924999D02*
X102350000Y-67275000D01*
X102200000Y-67425000D02*
X102302817Y-67425000D01*
X102350000Y-65924999D02*
X102724999Y-65550000D01*
X74082000Y-55400000D02*
X73673000Y-54991000D01*
X83566000Y-80899000D02*
X83101000Y-80899000D01*
X100650000Y-60400000D02*
X99025000Y-60400000D01*
X102750001Y-64624999D02*
X102724999Y-64624999D01*
X99025000Y-60400000D02*
X99000000Y-60375000D01*
X105600000Y-58400000D02*
X105600000Y-58923820D01*
X98013900Y-58350000D02*
X96450000Y-58350000D01*
X80636300Y-89789000D02*
X79817000Y-89789000D01*
X95778300Y-63800000D02*
X94779900Y-63800000D01*
X74168000Y-54229000D02*
X74168000Y-54496000D01*
X99050000Y-72050000D02*
X98074700Y-72050000D01*
X73450000Y-53973600D02*
X73912600Y-53973600D01*
X94779900Y-63800000D02*
X94350000Y-63370100D01*
X84010500Y-89598500D02*
X83909000Y-89700000D01*
X103800000Y-68922183D02*
X103800000Y-69225000D01*
X105600000Y-58400000D02*
X104547793Y-58400000D01*
X88353300Y-66300000D02*
X88357300Y-66304000D01*
X69719400Y-53973600D02*
X73450000Y-53973600D01*
X68917100Y-69987500D02*
X68917100Y-75449502D01*
X101925000Y-64624999D02*
X102724999Y-64624999D01*
X89087100Y-68146400D02*
X90670600Y-69729900D01*
X80725300Y-89700000D02*
X80636300Y-89789000D01*
X99050000Y-71803200D02*
X99050000Y-70974700D01*
X90200000Y-73450000D02*
X90200000Y-72624700D01*
%TO.N,VBUS*%
X104025300Y-58150000D02*
X104025300Y-54600600D01*
X94724501Y-55965301D02*
X94724501Y-54841501D01*
X103200000Y-58150000D02*
X104025300Y-58150000D01*
X101950000Y-51500000D02*
X101950000Y-52525300D01*
X83820000Y-46160000D02*
X84745300Y-46160000D01*
X91469600Y-49591600D02*
X91469600Y-51586600D01*
X99688800Y-58350000D02*
X98741600Y-57402800D01*
X84745300Y-49332200D02*
X84745300Y-46160000D01*
X85196600Y-53405100D02*
X85196600Y-50616100D01*
X96162000Y-57402800D02*
X94724501Y-55965301D01*
X102374700Y-58150000D02*
X102174700Y-58350000D01*
X93100000Y-54400000D02*
X94283000Y-54400000D01*
X98741600Y-57402800D02*
X96162000Y-57402800D01*
X84744200Y-50163700D02*
X84744200Y-49333300D01*
X84744200Y-49333300D02*
X84745300Y-49332200D01*
X86054598Y-54930000D02*
X85812299Y-54687701D01*
X86807800Y-54930000D02*
X86054598Y-54930000D01*
X103200000Y-58150000D02*
X102374700Y-58150000D01*
X102174700Y-58350000D02*
X100614100Y-58350000D01*
X86721500Y-54930000D02*
X85196600Y-53405100D01*
X104025300Y-54600600D02*
X101950000Y-52525300D01*
X85196600Y-50616100D02*
X84744200Y-50163700D01*
X91469600Y-51586600D02*
X94488000Y-54605000D01*
X100614100Y-58350000D02*
X99688800Y-58350000D01*
%TO.N,VBAT*%
X88472800Y-53927000D02*
X88591700Y-53808100D01*
X83586300Y-72134000D02*
X82761000Y-72134000D01*
X81718400Y-68654000D02*
X81718400Y-71091400D01*
X105650000Y-51500000D02*
X104624700Y-51500000D01*
X89408000Y-54930000D02*
X88595300Y-54930000D01*
X81718400Y-71091400D02*
X82761000Y-72134000D01*
X88472800Y-53927000D02*
X88072000Y-53526300D01*
X105650000Y-51500000D02*
X105650000Y-56350000D01*
X104371700Y-51247000D02*
X104624700Y-51500000D01*
X88595300Y-54049600D02*
X88472800Y-53927000D01*
X88595300Y-54930000D02*
X88595300Y-54049600D01*
X88072000Y-52451000D02*
X88072000Y-53526300D01*
X105650000Y-56350000D02*
X105600000Y-56400000D01*
X103715200Y-51247000D02*
X104371700Y-51247000D01*
%TO.N,Net-(U4-PA00{slash}EINT0{slash}SERCOM1.0)*%
X84154300Y-62014000D02*
X82879000Y-62014000D01*
X82879000Y-62150600D02*
X82831600Y-62198000D01*
X87421700Y-63800000D02*
X86423300Y-63800000D01*
X82879000Y-62014000D02*
X82879000Y-62150600D01*
X86423300Y-63800000D02*
X86423300Y-63007700D01*
X84154300Y-62014000D02*
X85429600Y-62014000D01*
X86423300Y-63007700D02*
X85429600Y-62014000D01*
X81956300Y-62198000D02*
X82831600Y-62198000D01*
%TO.N,/REGOUT*%
X73628300Y-56400000D02*
X73178300Y-56850000D01*
X72303000Y-56850000D02*
X73178300Y-56850000D01*
X75050000Y-56400000D02*
X73628300Y-56400000D01*
%TO.N,/CPOUT*%
X80850500Y-53782500D02*
X80899000Y-53734000D01*
X80850500Y-55621000D02*
X80850500Y-53782500D01*
X79571500Y-56900000D02*
X80850500Y-55621000D01*
X79050000Y-56900000D02*
X79571500Y-56900000D01*
%TO.N,/EN*%
X100614100Y-56450000D02*
X103200000Y-56450000D01*
%TO.N,/D13*%
X95778300Y-68800000D02*
X96776700Y-68800000D01*
X99568000Y-49110000D02*
X100393300Y-49110000D01*
X100417300Y-49086000D02*
X100393300Y-49110000D01*
X96776700Y-68800000D02*
X96776700Y-68768600D01*
X102561100Y-49086000D02*
X100417300Y-49086000D01*
X96776700Y-68768600D02*
X98571600Y-66973700D01*
%TO.N,/D9*%
X83586300Y-70434000D02*
X85110300Y-70434000D01*
X85935600Y-69787700D02*
X85935600Y-70434000D01*
X86423300Y-69300000D02*
X85935600Y-69787700D01*
X87421700Y-69300000D02*
X86423300Y-69300000D01*
X85110300Y-70434000D02*
X85935600Y-70434000D01*
%TO.N,/SCL*%
X78350000Y-60047204D02*
X78350000Y-85587000D01*
X80536100Y-57075800D02*
X80536100Y-57861105D01*
X81103700Y-56508200D02*
X80536100Y-57075800D01*
X78350000Y-85587000D02*
X79504000Y-86741000D01*
X80536100Y-57861105D02*
X78350000Y-60047204D01*
X79775700Y-55400000D02*
X79050000Y-55400000D01*
X99058600Y-63975000D02*
X99058600Y-62083600D01*
X79504000Y-86741000D02*
X79754000Y-86741000D01*
X97233600Y-65800000D02*
X95778300Y-65800000D01*
X99058600Y-62083600D02*
X99000000Y-62025000D01*
X80081500Y-55094200D02*
X79775700Y-55400000D01*
X99058600Y-63975000D02*
X97233600Y-65800000D01*
X99058600Y-63975000D02*
X100475000Y-63975000D01*
%TO.N,/SDA*%
X98219600Y-66300000D02*
X95778300Y-66300000D01*
X79050000Y-54392800D02*
X79306100Y-54136700D01*
X98885950Y-65198050D02*
X99459000Y-64625000D01*
X81261100Y-58197700D02*
X78800000Y-60658800D01*
X78800000Y-82866000D02*
X79627000Y-83693000D01*
X98885950Y-65633650D02*
X98219600Y-66300000D01*
X103550000Y-66360000D02*
X103550000Y-67015000D01*
X78800000Y-60658800D02*
X78800000Y-82866000D01*
X81261100Y-57560800D02*
X81261100Y-58197700D01*
X79050000Y-54900000D02*
X79050000Y-54392800D01*
X98885950Y-65198050D02*
X98885950Y-65633650D01*
X103550000Y-67015000D02*
X103940000Y-67405000D01*
X99459000Y-64625000D02*
X100475000Y-64625000D01*
%TO.N,/D1*%
X87600000Y-73790000D02*
X87600000Y-74400000D01*
X89850001Y-71539999D02*
X87600000Y-73790000D01*
X89850001Y-70728300D02*
X89850001Y-71539999D01*
%TO.N,/D0*%
X90350000Y-70728300D02*
X90350000Y-71726700D01*
X88672900Y-73403800D02*
X88672900Y-74308900D01*
X90350000Y-71726700D02*
X88672900Y-73403800D01*
%TO.N,/MISO*%
X92850000Y-71726700D02*
X92850000Y-72025900D01*
X92850000Y-70728300D02*
X92850000Y-71726700D01*
%TO.N,/MOSI*%
X90947600Y-68981200D02*
X91696300Y-69729900D01*
X91696300Y-69729900D02*
X91850000Y-69729900D01*
X91850000Y-70728300D02*
X91850000Y-69729900D01*
%TO.N,/SCK*%
X92659800Y-69420100D02*
X92350000Y-69729900D01*
X92350000Y-70728300D02*
X92350000Y-69729900D01*
%TO.N,/A1*%
X86423300Y-66854000D02*
X86129300Y-67148000D01*
X86423300Y-66800000D02*
X86423300Y-66854000D01*
X87421700Y-66800000D02*
X86423300Y-66800000D01*
%TO.N,/A0*%
X88420100Y-64800000D02*
X88420100Y-65212200D01*
X87421700Y-64800000D02*
X88420100Y-64800000D01*
X88420100Y-65212200D02*
X88786600Y-65578700D01*
%TO.N,/~{RESET}*%
X96089500Y-56241800D02*
X96482000Y-55849300D01*
X92850000Y-58250000D02*
X92800000Y-58200000D01*
X96482000Y-54628000D02*
X96482000Y-50528000D01*
X92850000Y-62371700D02*
X92850000Y-58250000D01*
X96482000Y-55849300D02*
X96482000Y-54628000D01*
%TO.N,/D8*%
X81489500Y-67873400D02*
X79380900Y-65764800D01*
X79380900Y-60714800D02*
X82570300Y-57525400D01*
X82570300Y-49798604D02*
X82207096Y-49435400D01*
X79380900Y-65764800D02*
X79380900Y-60714800D01*
X84468400Y-68800000D02*
X83541800Y-67873400D01*
X82207096Y-49435400D02*
X82201400Y-49435400D01*
X82570300Y-57525400D02*
X82570300Y-49798604D01*
X81788000Y-49022000D02*
X81788000Y-48294000D01*
X87421700Y-68800000D02*
X84468400Y-68800000D01*
X83541800Y-67873400D02*
X81489500Y-67873400D01*
X82201400Y-49435400D02*
X81788000Y-49022000D01*
%TO.N,Net-(U4-PA01{slash}EINT1{slash}SERCOM1.1)*%
X82879000Y-64414000D02*
X82879000Y-63769400D01*
X81956300Y-63722000D02*
X82831600Y-63722000D01*
X84154300Y-64414000D02*
X85429600Y-64414000D01*
X84154300Y-64414000D02*
X82879000Y-64414000D01*
X85543600Y-64300000D02*
X85429600Y-64414000D01*
X87421700Y-64300000D02*
X85543600Y-64300000D01*
X82879000Y-63769400D02*
X82831600Y-63722000D01*
%TO.N,/SWCLK*%
X105580000Y-62160000D02*
X105395300Y-61975300D01*
X90350000Y-60825500D02*
X90350000Y-62371700D01*
X91200000Y-59975500D02*
X90350000Y-60825500D01*
%TO.N,/SWDIO*%
X90200000Y-59600000D02*
X89850000Y-59950000D01*
X89850000Y-59950000D02*
X89850000Y-62371700D01*
%TO.N,/SD_CS*%
X88770600Y-69650500D02*
X88850000Y-69729900D01*
X88770600Y-69434700D02*
X88770600Y-69650500D01*
X88850000Y-70728300D02*
X88850000Y-69729900D01*
%TO.N,/D7*%
X95778300Y-66800000D02*
X94779900Y-66800000D01*
X94228900Y-67351000D02*
X94228900Y-68399200D01*
X94779900Y-66800000D02*
X94228900Y-67351000D01*
%TO.N,/D-*%
X97677300Y-60601900D02*
X90819600Y-53744200D01*
X97050500Y-65300000D02*
X97677300Y-64673200D01*
X97677300Y-64673200D02*
X97677300Y-60601900D01*
X95778300Y-65300000D02*
X97050500Y-65300000D01*
X90819600Y-53744200D02*
X90819600Y-49591600D01*
%TO.N,/D+*%
X97227000Y-60787304D02*
X90169600Y-53729904D01*
X96913600Y-64800000D02*
X97227000Y-64486600D01*
X90169600Y-53729904D02*
X90169600Y-49591600D01*
X95778300Y-64800000D02*
X96913600Y-64800000D01*
X97227000Y-64486600D02*
X97227000Y-60787304D01*
%TO.N,/INT*%
X74426000Y-57400000D02*
X73533000Y-58293000D01*
X91059000Y-66294000D02*
X90678000Y-66294000D01*
X94065000Y-69300000D02*
X91059000Y-66294000D01*
X75050000Y-57400000D02*
X74426000Y-57400000D01*
X83058000Y-60579000D02*
X80993900Y-60579000D01*
X95778300Y-69300000D02*
X94065000Y-69300000D01*
X90678000Y-66294000D02*
X90678000Y-66303200D01*
%TO.N,Net-(U4-VDDCORE)*%
X91350000Y-61200000D02*
X91950000Y-60600000D01*
X91910700Y-59600000D02*
X91186000Y-58875300D01*
X91950000Y-60600000D02*
X91950000Y-59600000D01*
X91950000Y-59600000D02*
X91910700Y-59600000D01*
X91186000Y-58875300D02*
X91186000Y-58000000D01*
X91350000Y-62371700D02*
X91350000Y-61200000D01*
%TO.N,Net-(CHG1-K)*%
X83020300Y-55248200D02*
X83020300Y-49985000D01*
X83820000Y-48260000D02*
X83820000Y-49185300D01*
X83020300Y-49985000D02*
X83820000Y-49185300D01*
X88050000Y-58547000D02*
X86319100Y-58547000D01*
X86319100Y-58547000D02*
X83020300Y-55248200D01*
%TO.N,Net-(L1-A)*%
X81915000Y-46419000D02*
X80047500Y-46419000D01*
X80047500Y-46419000D02*
X80010000Y-46456500D01*
%TO.N,Net-(L2-A)*%
X97282000Y-48548000D02*
X98207300Y-48548000D01*
X98742700Y-48012600D02*
X98207300Y-48548000D01*
X99568000Y-47410000D02*
X98742700Y-47410000D01*
X98742700Y-47410000D02*
X98742700Y-48012600D01*
%TO.N,Net-(L3-A)*%
X73450000Y-45700000D02*
X73450000Y-47900000D01*
%TO.N,Net-(U2-PROG)*%
X86807800Y-56830000D02*
X85882500Y-56830000D01*
X85882500Y-56782500D02*
X84300000Y-55200000D01*
X84300000Y-55200000D02*
X84300000Y-54200000D01*
X85882500Y-56830000D02*
X85882500Y-56782500D01*
%TO.N,Net-(U2-STAT)*%
X90333300Y-57284300D02*
X89895900Y-57721700D01*
X89895900Y-57721700D02*
X89750000Y-57721700D01*
X90333300Y-56830000D02*
X90333300Y-57284300D01*
X89750000Y-58547000D02*
X89750000Y-57721700D01*
X89408000Y-56830000D02*
X90333300Y-56830000D01*
D49*
%TO.N,/RF*%
X91100000Y-90699999D02*
X91100000Y-91700000D01*
D48*
%TO.N,Net-(U3-SDA{slash}_SPI_CS_N)*%
X80647000Y-83693000D02*
X82293000Y-83693000D01*
X82293000Y-83693000D02*
X82300000Y-83700000D01*
%TO.N,Net-(U3-SCL{slash}_SPI_CLK)*%
X80774000Y-86741000D02*
X82259000Y-86741000D01*
X82259000Y-86741000D02*
X82300000Y-86700000D01*
%TD*%
%TA.AperFunction,Conductor*%
%TO.N,GND*%
G36*
X100592121Y-65328501D02*
G01*
X100638614Y-65382157D01*
X100650000Y-65434499D01*
X100650000Y-66607999D01*
X100698585Y-66607999D01*
X100698597Y-66607998D01*
X100759093Y-66601493D01*
X100895964Y-66550443D01*
X100895965Y-66550443D01*
X101012904Y-66462903D01*
X101098819Y-66348134D01*
X101155654Y-66305587D01*
X101226470Y-66300522D01*
X101288782Y-66334547D01*
X101300555Y-66348133D01*
X101339379Y-66399995D01*
X101386739Y-66463260D01*
X101420551Y-66488571D01*
X101463098Y-66545407D01*
X101468164Y-66616222D01*
X101434139Y-66678535D01*
X101370715Y-66741959D01*
X101280698Y-66887899D01*
X101226763Y-67050666D01*
X101216500Y-67151119D01*
X101216500Y-67698880D01*
X101216499Y-67698880D01*
X101226763Y-67799333D01*
X101226764Y-67799336D01*
X101280698Y-67962101D01*
X101370715Y-68108040D01*
X101373928Y-68111253D01*
X101407956Y-68173561D01*
X101402895Y-68244377D01*
X101373938Y-68289442D01*
X101371112Y-68292267D01*
X101371109Y-68292271D01*
X101281152Y-68438115D01*
X101227257Y-68600758D01*
X101227255Y-68600770D01*
X101217000Y-68701147D01*
X101217000Y-68721000D01*
X102328000Y-68721000D01*
X102396121Y-68741002D01*
X102442614Y-68794658D01*
X102454000Y-68847000D01*
X102454000Y-69103000D01*
X102433998Y-69171121D01*
X102380342Y-69217614D01*
X102328000Y-69229000D01*
X101217000Y-69229000D01*
X101217000Y-69248852D01*
X101227255Y-69349229D01*
X101227257Y-69349241D01*
X101281152Y-69511884D01*
X101371112Y-69657733D01*
X101374766Y-69662354D01*
X101401325Y-69728196D01*
X101388070Y-69797944D01*
X101339211Y-69849455D01*
X101275927Y-69866500D01*
X99608553Y-69866500D01*
X99592711Y-69864750D01*
X99592684Y-69865044D01*
X99584791Y-69864298D01*
X99515724Y-69866469D01*
X99513745Y-69866500D01*
X99484844Y-69866500D01*
X99484840Y-69866500D01*
X99484830Y-69866501D01*
X99477879Y-69867379D01*
X99471967Y-69867844D01*
X99424812Y-69869326D01*
X99424810Y-69869327D01*
X99405355Y-69874978D01*
X99386002Y-69878986D01*
X99365910Y-69881524D01*
X99365902Y-69881526D01*
X99322036Y-69898893D01*
X99316421Y-69900816D01*
X99271107Y-69913982D01*
X99271102Y-69913984D01*
X99253663Y-69924297D01*
X99235918Y-69932990D01*
X99217080Y-69940449D01*
X99194978Y-69956507D01*
X99178912Y-69968180D01*
X99173961Y-69971433D01*
X99133340Y-69995455D01*
X99119007Y-70009787D01*
X99103981Y-70022620D01*
X99087595Y-70034526D01*
X99087594Y-70034526D01*
X99057518Y-70070880D01*
X99053523Y-70075271D01*
X98661336Y-70467457D01*
X98648901Y-70477421D01*
X98649089Y-70477648D01*
X98642979Y-70482702D01*
X98595694Y-70533055D01*
X98594319Y-70534474D01*
X98573863Y-70554931D01*
X98569560Y-70560477D01*
X98565714Y-70564979D01*
X98533417Y-70599374D01*
X98533411Y-70599383D01*
X98523651Y-70617135D01*
X98512803Y-70633650D01*
X98500386Y-70649658D01*
X98481645Y-70692964D01*
X98479034Y-70698294D01*
X98456305Y-70739639D01*
X98456303Y-70739644D01*
X98451267Y-70759259D01*
X98444864Y-70777962D01*
X98436819Y-70796552D01*
X98429437Y-70843157D01*
X98428233Y-70848970D01*
X98421299Y-70875973D01*
X98384985Y-70936979D01*
X98365406Y-70951878D01*
X98326350Y-70975968D01*
X98326341Y-70975975D01*
X98200975Y-71101341D01*
X98200970Y-71101347D01*
X98145494Y-71191288D01*
X98109158Y-71250199D01*
X98107884Y-71252264D01*
X98080958Y-71333521D01*
X98040544Y-71391892D01*
X97981067Y-71418335D01*
X97974812Y-71419325D01*
X97955360Y-71424977D01*
X97936002Y-71428986D01*
X97915907Y-71431524D01*
X97915905Y-71431525D01*
X97872024Y-71448897D01*
X97866409Y-71450819D01*
X97821110Y-71463980D01*
X97821104Y-71463982D01*
X97803666Y-71474295D01*
X97785920Y-71482989D01*
X97767081Y-71490448D01*
X97767080Y-71490449D01*
X97728913Y-71518178D01*
X97723952Y-71521437D01*
X97683337Y-71545458D01*
X97669007Y-71559787D01*
X97653981Y-71572620D01*
X97637595Y-71584526D01*
X97637594Y-71584526D01*
X97607518Y-71620880D01*
X97603522Y-71625271D01*
X96610396Y-72618399D01*
X95623900Y-73604895D01*
X95561588Y-73638920D01*
X95534805Y-73641800D01*
X91697000Y-73641800D01*
X91628879Y-73621798D01*
X91582386Y-73568142D01*
X91571000Y-73515800D01*
X91571000Y-72467000D01*
X91551156Y-72467000D01*
X91530669Y-72469093D01*
X91460868Y-72456117D01*
X91409163Y-72407465D01*
X91391969Y-72338582D01*
X91402224Y-72293710D01*
X91406264Y-72284371D01*
X91418359Y-72256419D01*
X91420953Y-72251123D01*
X91443695Y-72209760D01*
X91448733Y-72190134D01*
X91455137Y-72171432D01*
X91463180Y-72152847D01*
X91463179Y-72152847D01*
X91463181Y-72152845D01*
X91470561Y-72106247D01*
X91471762Y-72100440D01*
X91483500Y-72054730D01*
X91483500Y-72034474D01*
X91485048Y-72014782D01*
X91485587Y-72011379D01*
X91515989Y-71947225D01*
X91576252Y-71909689D01*
X91623502Y-71905797D01*
X91661662Y-71909900D01*
X91810853Y-71909900D01*
X91878974Y-71929902D01*
X91925467Y-71983558D01*
X91936163Y-72022730D01*
X91956457Y-72215827D01*
X91983723Y-72299741D01*
X92015472Y-72397454D01*
X92015475Y-72397461D01*
X92062118Y-72478247D01*
X92079000Y-72541248D01*
X92079000Y-73196000D01*
X92783000Y-73196000D01*
X92783000Y-73151147D01*
X92782999Y-73151145D01*
X92775037Y-73073206D01*
X92788011Y-73003406D01*
X92836664Y-72951700D01*
X92900384Y-72934400D01*
X92945487Y-72934400D01*
X93132288Y-72894694D01*
X93306752Y-72817018D01*
X93461253Y-72704766D01*
X93473073Y-72691639D01*
X93589034Y-72562851D01*
X93589035Y-72562849D01*
X93589040Y-72562844D01*
X93684527Y-72397456D01*
X93743542Y-72215828D01*
X93763504Y-72025900D01*
X93763503Y-72025899D01*
X93763837Y-72022730D01*
X93790850Y-71957073D01*
X93849071Y-71916443D01*
X93889147Y-71909900D01*
X94038333Y-71909900D01*
X94038339Y-71909900D01*
X94086540Y-71904718D01*
X94113461Y-71904718D01*
X94161662Y-71909900D01*
X94161668Y-71909900D01*
X94538332Y-71909900D01*
X94538338Y-71909900D01*
X94538345Y-71909899D01*
X94538349Y-71909899D01*
X94598896Y-71903390D01*
X94598899Y-71903389D01*
X94598901Y-71903389D01*
X94600001Y-71902979D01*
X94617745Y-71896360D01*
X94735904Y-71852289D01*
X94750683Y-71841226D01*
X94852961Y-71764661D01*
X94940587Y-71647607D01*
X94940587Y-71647606D01*
X94940589Y-71647604D01*
X94991689Y-71510601D01*
X94992389Y-71504097D01*
X94998199Y-71450049D01*
X94998200Y-71450032D01*
X94998200Y-70074200D01*
X95018202Y-70006079D01*
X95071858Y-69959586D01*
X95124200Y-69948200D01*
X96500032Y-69948200D01*
X96500038Y-69948200D01*
X96500045Y-69948199D01*
X96500049Y-69948199D01*
X96560596Y-69941690D01*
X96560599Y-69941689D01*
X96560601Y-69941689D01*
X96697604Y-69890589D01*
X96709714Y-69881524D01*
X96814661Y-69802961D01*
X96902287Y-69685907D01*
X96902287Y-69685906D01*
X96902289Y-69685904D01*
X96953389Y-69548901D01*
X96954003Y-69543197D01*
X96960261Y-69484983D01*
X96962052Y-69485175D01*
X96983120Y-69424857D01*
X97039050Y-69381127D01*
X97046590Y-69378408D01*
X97048575Y-69377764D01*
X97055525Y-69373352D01*
X97076667Y-69362580D01*
X97084317Y-69359552D01*
X97131378Y-69325359D01*
X97134608Y-69323165D01*
X97183718Y-69292000D01*
X97189358Y-69285993D01*
X97207144Y-69270312D01*
X97213807Y-69265472D01*
X97250884Y-69220651D01*
X97253470Y-69217718D01*
X97293286Y-69175321D01*
X97297250Y-69168108D01*
X97310585Y-69148486D01*
X97315833Y-69142144D01*
X97321376Y-69130361D01*
X97346288Y-69094914D01*
X98522100Y-67919104D01*
X98584413Y-67885079D01*
X98611196Y-67882200D01*
X98667087Y-67882200D01*
X98853888Y-67842494D01*
X99028352Y-67764818D01*
X99182853Y-67652566D01*
X99216156Y-67615579D01*
X99310634Y-67510651D01*
X99310635Y-67510649D01*
X99310640Y-67510644D01*
X99406127Y-67345256D01*
X99465142Y-67163628D01*
X99485104Y-66973700D01*
X99465142Y-66783772D01*
X99406127Y-66602144D01*
X99310640Y-66436756D01*
X99233395Y-66350967D01*
X99202680Y-66286962D01*
X99211443Y-66216509D01*
X99237935Y-66177567D01*
X99274607Y-66140895D01*
X99287042Y-66130934D01*
X99286855Y-66130707D01*
X99292966Y-66125651D01*
X99292965Y-66125651D01*
X99292968Y-66125650D01*
X99317055Y-66099999D01*
X99792000Y-66099999D01*
X99792000Y-66148596D01*
X99798505Y-66209092D01*
X99849555Y-66345963D01*
X99849555Y-66345964D01*
X99937095Y-66462903D01*
X100054034Y-66550443D01*
X100190906Y-66601493D01*
X100251402Y-66607998D01*
X100251415Y-66607999D01*
X100300000Y-66607999D01*
X100300000Y-66099999D01*
X99792000Y-66099999D01*
X99317055Y-66099999D01*
X99340302Y-66075242D01*
X99341617Y-66073885D01*
X99362084Y-66053420D01*
X99366379Y-66047882D01*
X99370221Y-66043381D01*
X99402536Y-66008971D01*
X99412295Y-65991217D01*
X99423147Y-65974696D01*
X99435563Y-65958691D01*
X99445220Y-65936373D01*
X99486801Y-65884472D01*
X99497203Y-65876916D01*
X99608165Y-65753679D01*
X99668609Y-65716440D01*
X99739592Y-65717791D01*
X99790895Y-65748895D01*
X99791999Y-65749999D01*
X100300000Y-65749999D01*
X100300000Y-65434499D01*
X100320002Y-65366378D01*
X100373658Y-65319885D01*
X100426000Y-65308499D01*
X100524000Y-65308499D01*
X100592121Y-65328501D01*
G37*
%TD.AperFunction*%
%TA.AperFunction,Conductor*%
G36*
X85163806Y-67070234D02*
G01*
X85208274Y-67125579D01*
X85217105Y-67160458D01*
X85235757Y-67337927D01*
X85260531Y-67414172D01*
X85294773Y-67519556D01*
X85294776Y-67519561D01*
X85390258Y-67684941D01*
X85390265Y-67684951D01*
X85518044Y-67826864D01*
X85539557Y-67842494D01*
X85671786Y-67938564D01*
X85715140Y-67994786D01*
X85721215Y-68065522D01*
X85688084Y-68128314D01*
X85626264Y-68163225D01*
X85597725Y-68166500D01*
X84782995Y-68166500D01*
X84714874Y-68146498D01*
X84693900Y-68129595D01*
X84074060Y-67509755D01*
X84040034Y-67447443D01*
X84045099Y-67376628D01*
X84074058Y-67331566D01*
X84133585Y-67272040D01*
X84142644Y-67257352D01*
X84195431Y-67209874D01*
X84249885Y-67197500D01*
X84546747Y-67197500D01*
X84562588Y-67199249D01*
X84562616Y-67198956D01*
X84570501Y-67199700D01*
X84570509Y-67199702D01*
X84631808Y-67197775D01*
X84639576Y-67197531D01*
X84641555Y-67197500D01*
X84670451Y-67197500D01*
X84670456Y-67197500D01*
X84677418Y-67196619D01*
X84683319Y-67196154D01*
X84730489Y-67194673D01*
X84749947Y-67189019D01*
X84769294Y-67185013D01*
X84789397Y-67182474D01*
X84833279Y-67165099D01*
X84838874Y-67163183D01*
X84867416Y-67154891D01*
X84884191Y-67150019D01*
X84884195Y-67150017D01*
X84901626Y-67139708D01*
X84919380Y-67131009D01*
X84938217Y-67123552D01*
X84976396Y-67095811D01*
X84981334Y-67092567D01*
X85021962Y-67068542D01*
X85021962Y-67068541D01*
X85027659Y-67065173D01*
X85096476Y-67047715D01*
X85163806Y-67070234D01*
G37*
%TD.AperFunction*%
%TA.AperFunction,Conductor*%
G36*
X94103527Y-64023602D02*
G01*
X94124501Y-64040505D01*
X94272653Y-64188657D01*
X94282620Y-64201097D01*
X94282847Y-64200910D01*
X94287899Y-64207017D01*
X94287900Y-64207018D01*
X94317983Y-64235268D01*
X94338288Y-64254335D01*
X94339677Y-64255681D01*
X94344863Y-64260867D01*
X94360126Y-64276131D01*
X94365668Y-64280430D01*
X94370181Y-64284285D01*
X94404579Y-64316586D01*
X94404580Y-64316586D01*
X94404582Y-64316588D01*
X94422329Y-64326344D01*
X94438859Y-64337202D01*
X94454857Y-64349612D01*
X94454858Y-64349612D01*
X94454859Y-64349613D01*
X94498164Y-64368352D01*
X94503485Y-64370959D01*
X94532195Y-64386743D01*
X94582253Y-64437086D01*
X94595801Y-64485044D01*
X94596839Y-64484933D01*
X94602134Y-64534179D01*
X94602134Y-64561118D01*
X94596700Y-64611653D01*
X94596700Y-64988333D01*
X94596701Y-64988355D01*
X94601880Y-65036534D01*
X94601880Y-65063466D01*
X94596701Y-65111645D01*
X94596700Y-65111667D01*
X94596700Y-65488332D01*
X94596701Y-65488354D01*
X94601880Y-65536533D01*
X94601880Y-65563465D01*
X94596701Y-65611644D01*
X94596700Y-65611666D01*
X94596700Y-65988346D01*
X94601881Y-66036530D01*
X94601881Y-66063468D01*
X94596446Y-66114019D01*
X94569277Y-66179611D01*
X94531974Y-66207999D01*
X94533127Y-66209948D01*
X94508862Y-66224297D01*
X94491115Y-66232991D01*
X94472283Y-66240447D01*
X94472281Y-66240448D01*
X94434114Y-66268178D01*
X94429154Y-66271436D01*
X94388536Y-66295459D01*
X94388533Y-66295461D01*
X94374212Y-66309783D01*
X94359183Y-66322619D01*
X94342793Y-66334527D01*
X94312713Y-66370886D01*
X94308717Y-66375277D01*
X93840233Y-66843760D01*
X93827801Y-66853720D01*
X93827989Y-66853947D01*
X93821882Y-66858999D01*
X93774594Y-66909355D01*
X93773219Y-66910774D01*
X93752763Y-66931231D01*
X93748460Y-66936777D01*
X93744614Y-66941279D01*
X93712317Y-66975674D01*
X93712311Y-66975683D01*
X93702551Y-66993435D01*
X93691703Y-67009950D01*
X93679286Y-67025958D01*
X93660545Y-67069264D01*
X93657934Y-67074594D01*
X93635205Y-67115939D01*
X93635203Y-67115944D01*
X93630167Y-67135559D01*
X93623764Y-67154262D01*
X93615719Y-67172852D01*
X93608337Y-67219456D01*
X93607133Y-67225268D01*
X93595400Y-67270968D01*
X93595400Y-67291223D01*
X93593849Y-67310933D01*
X93590680Y-67330942D01*
X93590680Y-67330943D01*
X93595120Y-67377917D01*
X93595400Y-67383850D01*
X93595400Y-67630305D01*
X93575398Y-67698426D01*
X93521742Y-67744919D01*
X93451468Y-67755023D01*
X93386888Y-67725529D01*
X93380305Y-67719400D01*
X91566244Y-65905339D01*
X91556279Y-65892901D01*
X91556052Y-65893090D01*
X91551001Y-65886984D01*
X91551000Y-65886982D01*
X91518289Y-65856265D01*
X91500627Y-65839679D01*
X91499237Y-65838332D01*
X91483953Y-65823048D01*
X91478776Y-65817870D01*
X91478771Y-65817866D01*
X91473230Y-65813567D01*
X91468718Y-65809714D01*
X91434321Y-65777414D01*
X91434319Y-65777412D01*
X91434317Y-65777411D01*
X91427905Y-65772752D01*
X91428586Y-65771813D01*
X91405737Y-65753702D01*
X91289253Y-65624334D01*
X91134752Y-65512082D01*
X90960288Y-65434406D01*
X90773487Y-65394700D01*
X90582513Y-65394700D01*
X90395709Y-65434406D01*
X90327648Y-65464709D01*
X90257281Y-65474143D01*
X90192984Y-65444036D01*
X90155171Y-65383947D01*
X90150400Y-65349602D01*
X90150400Y-64923995D01*
X90170402Y-64855874D01*
X90187305Y-64834899D01*
X90981701Y-64040504D01*
X91044013Y-64006479D01*
X91070796Y-64003600D01*
X94035406Y-64003600D01*
X94103527Y-64023602D01*
G37*
%TD.AperFunction*%
%TA.AperFunction,Conductor*%
G36*
X80527421Y-61964002D02*
G01*
X80573914Y-62017658D01*
X80585300Y-62070000D01*
X80585300Y-64705000D01*
X80605153Y-64705000D01*
X80605152Y-64704999D01*
X80705529Y-64694744D01*
X80705541Y-64694742D01*
X80868184Y-64640847D01*
X81014027Y-64550890D01*
X81016846Y-64548072D01*
X81019260Y-64546753D01*
X81019786Y-64546338D01*
X81019856Y-64546427D01*
X81079156Y-64514043D01*
X81149972Y-64519104D01*
X81195045Y-64548070D01*
X81198260Y-64551285D01*
X81344199Y-64641302D01*
X81506964Y-64695236D01*
X81527056Y-64697288D01*
X81607420Y-64705500D01*
X81607428Y-64705500D01*
X82155179Y-64705500D01*
X82215682Y-64699317D01*
X82225067Y-64698359D01*
X82294868Y-64711333D01*
X82339811Y-64749645D01*
X82353625Y-64768658D01*
X82355840Y-64771919D01*
X82387000Y-64821018D01*
X82393007Y-64826659D01*
X82408688Y-64844446D01*
X82413526Y-64851105D01*
X82413527Y-64851106D01*
X82458321Y-64888163D01*
X82461291Y-64890781D01*
X82503679Y-64930587D01*
X82510896Y-64934554D01*
X82530511Y-64947884D01*
X82536856Y-64953133D01*
X82589482Y-64977897D01*
X82592968Y-64979672D01*
X82643940Y-65007695D01*
X82643942Y-65007695D01*
X82645631Y-65008624D01*
X82695688Y-65058970D01*
X82702983Y-65075005D01*
X82753410Y-65210202D01*
X82753412Y-65210207D01*
X82841038Y-65327261D01*
X82926846Y-65391496D01*
X82969393Y-65448332D01*
X82974457Y-65519148D01*
X82940432Y-65581460D01*
X82890970Y-65611968D01*
X82792202Y-65644696D01*
X82646259Y-65734715D01*
X82646253Y-65734720D01*
X82643042Y-65737932D01*
X82580730Y-65771958D01*
X82509915Y-65766893D01*
X82464852Y-65737932D01*
X82462034Y-65735114D01*
X82462028Y-65735109D01*
X82316184Y-65645152D01*
X82153541Y-65591257D01*
X82153529Y-65591255D01*
X82053152Y-65581000D01*
X82033300Y-65581000D01*
X82033300Y-66692000D01*
X82013298Y-66760121D01*
X81959642Y-66806614D01*
X81907300Y-66818000D01*
X81651300Y-66818000D01*
X81583179Y-66797998D01*
X81536686Y-66744342D01*
X81525300Y-66692000D01*
X81525300Y-65581000D01*
X81505447Y-65581000D01*
X81405070Y-65591255D01*
X81405058Y-65591257D01*
X81242415Y-65645152D01*
X81096571Y-65735109D01*
X81096565Y-65735114D01*
X80975414Y-65856265D01*
X80975409Y-65856271D01*
X80885452Y-66002115D01*
X80857285Y-66087119D01*
X80816871Y-66145491D01*
X80751315Y-66172746D01*
X80681430Y-66160233D01*
X80648586Y-66136581D01*
X80051305Y-65539300D01*
X80017279Y-65476988D01*
X80014400Y-65450205D01*
X80014400Y-64820091D01*
X80034402Y-64751970D01*
X80051305Y-64730996D01*
X80077300Y-64705001D01*
X80077300Y-62070000D01*
X80097302Y-62001879D01*
X80150958Y-61955386D01*
X80203300Y-61944000D01*
X80459300Y-61944000D01*
X80527421Y-61964002D01*
G37*
%TD.AperFunction*%
%TA.AperFunction,Conductor*%
G36*
X83412312Y-56536570D02*
G01*
X83418895Y-56542699D01*
X85811853Y-58935657D01*
X85821820Y-58948097D01*
X85822047Y-58947910D01*
X85827099Y-58954017D01*
X85827100Y-58954018D01*
X85860432Y-58985319D01*
X85877488Y-59001335D01*
X85878877Y-59002681D01*
X85899331Y-59023135D01*
X85904870Y-59027431D01*
X85909382Y-59031285D01*
X85943779Y-59063586D01*
X85961527Y-59073342D01*
X85978057Y-59084201D01*
X85994059Y-59096614D01*
X86032592Y-59113288D01*
X86037362Y-59115352D01*
X86042683Y-59117958D01*
X86084040Y-59140695D01*
X86084048Y-59140697D01*
X86103658Y-59145732D01*
X86122367Y-59152137D01*
X86140955Y-59160181D01*
X86187577Y-59167564D01*
X86193362Y-59168763D01*
X86239070Y-59180500D01*
X86259324Y-59180500D01*
X86279034Y-59182051D01*
X86281241Y-59182400D01*
X86299043Y-59185220D01*
X86332970Y-59182012D01*
X86346017Y-59180780D01*
X86351950Y-59180500D01*
X87192757Y-59180500D01*
X87260878Y-59200502D01*
X87300585Y-59241315D01*
X87313179Y-59262148D01*
X87313189Y-59262161D01*
X87434839Y-59383811D01*
X87434844Y-59383815D01*
X87434845Y-59383816D01*
X87582087Y-59472827D01*
X87746351Y-59524013D01*
X87817735Y-59530500D01*
X88332264Y-59530499D01*
X88403649Y-59524013D01*
X88567913Y-59472827D01*
X88715155Y-59383816D01*
X88810906Y-59288064D01*
X88873216Y-59254041D01*
X88944032Y-59259105D01*
X88989093Y-59288064D01*
X89084845Y-59383816D01*
X89227322Y-59469947D01*
X89275270Y-59522304D01*
X89287448Y-59590936D01*
X89286496Y-59599998D01*
X89287665Y-59611127D01*
X89274888Y-59680965D01*
X89272770Y-59684989D01*
X89256305Y-59714939D01*
X89256303Y-59714944D01*
X89251267Y-59734559D01*
X89244864Y-59753262D01*
X89236819Y-59771852D01*
X89229437Y-59818456D01*
X89228233Y-59824268D01*
X89216500Y-59869968D01*
X89216500Y-59890223D01*
X89214949Y-59909933D01*
X89211780Y-59929942D01*
X89211780Y-59929943D01*
X89216220Y-59976917D01*
X89216500Y-59982850D01*
X89216500Y-61068981D01*
X89196498Y-61137102D01*
X89142842Y-61183595D01*
X89077033Y-61194259D01*
X89038352Y-61190101D01*
X89038343Y-61190100D01*
X89038338Y-61190100D01*
X88661662Y-61190100D01*
X88661650Y-61190100D01*
X88601103Y-61196609D01*
X88601095Y-61196611D01*
X88464097Y-61247710D01*
X88464092Y-61247712D01*
X88347038Y-61335338D01*
X88259412Y-61452392D01*
X88259410Y-61452397D01*
X88208311Y-61589395D01*
X88208309Y-61589403D01*
X88201800Y-61649950D01*
X88201800Y-63025800D01*
X88181798Y-63093921D01*
X88128142Y-63140414D01*
X88075800Y-63151800D01*
X87183744Y-63151800D01*
X87115623Y-63131798D01*
X87069130Y-63078142D01*
X87057806Y-63029757D01*
X87057288Y-63013283D01*
X87057114Y-63007738D01*
X87056831Y-62998723D01*
X87056800Y-62996744D01*
X87056800Y-62967849D01*
X87056800Y-62967844D01*
X87055919Y-62960878D01*
X87055455Y-62954982D01*
X87053973Y-62907811D01*
X87048322Y-62888364D01*
X87044312Y-62869000D01*
X87043436Y-62862062D01*
X87041774Y-62848903D01*
X87024397Y-62805014D01*
X87022483Y-62799423D01*
X87009318Y-62754107D01*
X86999006Y-62736670D01*
X86990310Y-62718921D01*
X86982852Y-62700083D01*
X86955112Y-62661903D01*
X86951864Y-62656958D01*
X86927842Y-62616338D01*
X86913514Y-62602010D01*
X86900684Y-62586989D01*
X86888772Y-62570593D01*
X86888769Y-62570591D01*
X86888769Y-62570590D01*
X86852407Y-62540508D01*
X86848026Y-62536522D01*
X85936846Y-61625343D01*
X85926880Y-61612902D01*
X85926653Y-61613091D01*
X85921599Y-61606981D01*
X85871226Y-61559678D01*
X85869836Y-61558331D01*
X85858505Y-61547000D01*
X85849376Y-61537870D01*
X85849372Y-61537866D01*
X85843825Y-61533563D01*
X85839317Y-61529712D01*
X85804925Y-61497417D01*
X85804919Y-61497413D01*
X85787163Y-61487651D01*
X85770647Y-61476802D01*
X85754641Y-61464386D01*
X85723889Y-61451078D01*
X85711340Y-61445648D01*
X85706007Y-61443035D01*
X85662971Y-61419376D01*
X85612912Y-61369031D01*
X85605616Y-61352994D01*
X85555189Y-61217796D01*
X85555187Y-61217792D01*
X85467561Y-61100738D01*
X85350507Y-61013112D01*
X85350502Y-61013110D01*
X85213504Y-60962011D01*
X85213496Y-60962009D01*
X85152949Y-60955500D01*
X85152938Y-60955500D01*
X84064345Y-60955500D01*
X83996224Y-60935498D01*
X83949731Y-60881842D01*
X83939627Y-60811568D01*
X83944513Y-60790562D01*
X83951542Y-60768929D01*
X83960741Y-60681402D01*
X83971504Y-60579000D01*
X83951542Y-60389072D01*
X83892527Y-60207444D01*
X83797040Y-60042056D01*
X83797038Y-60042054D01*
X83797034Y-60042048D01*
X83669255Y-59900135D01*
X83514752Y-59787882D01*
X83340288Y-59710206D01*
X83153487Y-59670500D01*
X82962513Y-59670500D01*
X82775711Y-59710206D01*
X82601247Y-59787882D01*
X82446747Y-59900133D01*
X82443437Y-59903810D01*
X82382991Y-59941050D01*
X82349800Y-59945500D01*
X81702100Y-59945500D01*
X81633979Y-59925498D01*
X81608463Y-59903810D01*
X81605152Y-59900133D01*
X81512616Y-59832902D01*
X81450652Y-59787882D01*
X81447274Y-59786378D01*
X81445637Y-59784986D01*
X81444931Y-59784579D01*
X81445005Y-59784449D01*
X81393178Y-59740398D01*
X81372528Y-59672471D01*
X81391880Y-59604163D01*
X81409423Y-59582180D01*
X82958960Y-58032643D01*
X82971398Y-58022680D01*
X82971210Y-58022453D01*
X82977316Y-58017401D01*
X82977315Y-58017401D01*
X82977318Y-58017400D01*
X83024637Y-57967008D01*
X83025951Y-57965652D01*
X83046435Y-57945170D01*
X83050745Y-57939612D01*
X83054574Y-57935129D01*
X83086886Y-57900721D01*
X83096646Y-57882965D01*
X83107495Y-57866450D01*
X83119914Y-57850441D01*
X83138663Y-57807110D01*
X83141253Y-57801823D01*
X83163995Y-57760460D01*
X83169033Y-57740834D01*
X83175437Y-57722132D01*
X83183480Y-57703547D01*
X83183479Y-57703547D01*
X83183481Y-57703545D01*
X83190861Y-57656947D01*
X83192062Y-57651140D01*
X83203800Y-57605430D01*
X83203800Y-57585175D01*
X83205351Y-57565463D01*
X83208520Y-57545457D01*
X83205561Y-57514157D01*
X83204080Y-57498480D01*
X83203800Y-57492548D01*
X83203800Y-56631794D01*
X83223802Y-56563673D01*
X83277458Y-56517180D01*
X83347732Y-56507076D01*
X83412312Y-56536570D01*
G37*
%TD.AperFunction*%
%TA.AperFunction,Conductor*%
G36*
X93864331Y-58330064D02*
G01*
X93897832Y-58354041D01*
X96556594Y-61012803D01*
X96590620Y-61075115D01*
X96593499Y-61101898D01*
X96593499Y-62097000D01*
X96593500Y-63025800D01*
X96573498Y-63093921D01*
X96519842Y-63140414D01*
X96467500Y-63151800D01*
X95124200Y-63151800D01*
X95056079Y-63131798D01*
X95009586Y-63078142D01*
X94998200Y-63025800D01*
X94998200Y-61649967D01*
X94998199Y-61649950D01*
X94991690Y-61589403D01*
X94991688Y-61589395D01*
X94954600Y-61489960D01*
X94940589Y-61452396D01*
X94940588Y-61452394D01*
X94940587Y-61452392D01*
X94852961Y-61335338D01*
X94735907Y-61247712D01*
X94735902Y-61247710D01*
X94598904Y-61196611D01*
X94598896Y-61196609D01*
X94538349Y-61190100D01*
X94538338Y-61190100D01*
X94161662Y-61190100D01*
X94161657Y-61190100D01*
X94161645Y-61190101D01*
X94113466Y-61195280D01*
X94086534Y-61195280D01*
X94038355Y-61190101D01*
X94038343Y-61190100D01*
X94038339Y-61190100D01*
X93661663Y-61190100D01*
X93661653Y-61190100D01*
X93625954Y-61193938D01*
X93622968Y-61194259D01*
X93553101Y-61181655D01*
X93501138Y-61133276D01*
X93483500Y-61068982D01*
X93483500Y-58846994D01*
X93503502Y-58778873D01*
X93515864Y-58762683D01*
X93539040Y-58736944D01*
X93634527Y-58571556D01*
X93688905Y-58404198D01*
X93728977Y-58345594D01*
X93794374Y-58317957D01*
X93864331Y-58330064D01*
G37*
%TD.AperFunction*%
%TA.AperFunction,Conductor*%
G36*
X71107121Y-54627102D02*
G01*
X71153614Y-54680758D01*
X71165000Y-54733100D01*
X71165000Y-54737000D01*
X72251000Y-54737000D01*
X72319121Y-54757002D01*
X72365614Y-54810658D01*
X72377000Y-54863000D01*
X72377000Y-55119000D01*
X72356998Y-55187121D01*
X72303342Y-55233614D01*
X72251000Y-55245000D01*
X71165000Y-55245000D01*
X71165000Y-55289852D01*
X71175255Y-55390229D01*
X71175257Y-55390241D01*
X71229152Y-55552884D01*
X71319109Y-55698728D01*
X71319114Y-55698734D01*
X71342447Y-55722067D01*
X71376473Y-55784379D01*
X71371408Y-55855194D01*
X71328861Y-55912030D01*
X71262341Y-55936841D01*
X71213719Y-55930767D01*
X71052232Y-55877256D01*
X71052229Y-55877255D01*
X70951852Y-55867000D01*
X70932000Y-55867000D01*
X70932000Y-57833000D01*
X70951853Y-57833000D01*
X70951852Y-57832999D01*
X71052229Y-57822744D01*
X71052241Y-57822742D01*
X71214884Y-57768847D01*
X71360727Y-57678890D01*
X71363546Y-57676072D01*
X71365960Y-57674753D01*
X71366486Y-57674338D01*
X71366556Y-57674427D01*
X71425856Y-57642043D01*
X71496672Y-57647104D01*
X71541745Y-57676070D01*
X71544960Y-57679285D01*
X71690899Y-57769302D01*
X71853664Y-57823236D01*
X71873756Y-57825288D01*
X71954120Y-57833500D01*
X71954128Y-57833500D01*
X72501877Y-57833500D01*
X72520743Y-57831571D01*
X72542371Y-57829362D01*
X72612171Y-57842335D01*
X72663878Y-57890986D01*
X72681073Y-57959869D01*
X72675012Y-57993645D01*
X72639457Y-58103070D01*
X72619496Y-58292999D01*
X72639457Y-58482927D01*
X72650827Y-58517918D01*
X72689703Y-58637565D01*
X72691731Y-58708531D01*
X72655069Y-58769329D01*
X72591357Y-58800654D01*
X72569870Y-58802500D01*
X69044853Y-58802500D01*
X69029011Y-58800750D01*
X69028984Y-58801044D01*
X69021090Y-58800297D01*
X68963457Y-58802109D01*
X68894742Y-58784256D01*
X68846587Y-58732087D01*
X68833500Y-58676171D01*
X68833500Y-57104000D01*
X69720000Y-57104000D01*
X69720000Y-57148852D01*
X69730255Y-57249229D01*
X69730257Y-57249241D01*
X69784152Y-57411884D01*
X69874109Y-57557728D01*
X69874114Y-57557734D01*
X69995265Y-57678885D01*
X69995271Y-57678890D01*
X70141115Y-57768847D01*
X70303758Y-57822742D01*
X70303770Y-57822744D01*
X70404147Y-57832999D01*
X70404147Y-57833000D01*
X70424000Y-57833000D01*
X70424000Y-57104000D01*
X69720000Y-57104000D01*
X68833500Y-57104000D01*
X68833500Y-56596000D01*
X69720000Y-56596000D01*
X70424000Y-56596000D01*
X70424000Y-55867000D01*
X70404147Y-55867000D01*
X70303770Y-55877255D01*
X70303758Y-55877257D01*
X70141115Y-55931152D01*
X69995271Y-56021109D01*
X69995265Y-56021114D01*
X69874114Y-56142265D01*
X69874109Y-56142271D01*
X69784152Y-56288115D01*
X69730257Y-56450758D01*
X69730255Y-56450770D01*
X69720000Y-56551147D01*
X69720000Y-56596000D01*
X68833500Y-56596000D01*
X68833500Y-55807594D01*
X68853502Y-55739473D01*
X68870405Y-55718499D01*
X69944900Y-54644005D01*
X70007212Y-54609979D01*
X70033995Y-54607100D01*
X71039000Y-54607100D01*
X71107121Y-54627102D01*
G37*
%TD.AperFunction*%
%TA.AperFunction,Conductor*%
G36*
X102347459Y-57103502D02*
G01*
X102368433Y-57120405D01*
X102458933Y-57210905D01*
X102492959Y-57273217D01*
X102487894Y-57344032D01*
X102458933Y-57389096D01*
X102365726Y-57482302D01*
X102303414Y-57516327D01*
X102280593Y-57519144D01*
X102274815Y-57519325D01*
X102274807Y-57519327D01*
X102255349Y-57524979D01*
X102236004Y-57528985D01*
X102215906Y-57531525D01*
X102215897Y-57531527D01*
X102172031Y-57548894D01*
X102166416Y-57550817D01*
X102121108Y-57563981D01*
X102103664Y-57574297D01*
X102085918Y-57582990D01*
X102067082Y-57590448D01*
X102028909Y-57618181D01*
X102023948Y-57621440D01*
X101983337Y-57645458D01*
X101969008Y-57659786D01*
X101953987Y-57672615D01*
X101931185Y-57689184D01*
X101929900Y-57687416D01*
X101876556Y-57714402D01*
X101853659Y-57716500D01*
X101836791Y-57716500D01*
X101768670Y-57696498D01*
X101747696Y-57679595D01*
X101722101Y-57654000D01*
X101542168Y-57654000D01*
X101474047Y-57633998D01*
X101466657Y-57628867D01*
X101460304Y-57624111D01*
X101460302Y-57624110D01*
X101323304Y-57573011D01*
X101323296Y-57573009D01*
X101262749Y-57566500D01*
X101262738Y-57566500D01*
X100486100Y-57566500D01*
X100417979Y-57546498D01*
X100371486Y-57492842D01*
X100360100Y-57440500D01*
X100360100Y-57359500D01*
X100380102Y-57291379D01*
X100433758Y-57244886D01*
X100486100Y-57233500D01*
X101262732Y-57233500D01*
X101262738Y-57233500D01*
X101262745Y-57233499D01*
X101262749Y-57233499D01*
X101323296Y-57226990D01*
X101323299Y-57226989D01*
X101323301Y-57226989D01*
X101460304Y-57175889D01*
X101466657Y-57171132D01*
X101533177Y-57146321D01*
X101542168Y-57146000D01*
X101722101Y-57146000D01*
X101747696Y-57120405D01*
X101810008Y-57086379D01*
X101836791Y-57083500D01*
X102279338Y-57083500D01*
X102347459Y-57103502D01*
G37*
%TD.AperFunction*%
%TA.AperFunction,Conductor*%
G36*
X88066314Y-55306400D02*
G01*
X88097231Y-55331901D01*
X88097522Y-55331592D01*
X88102328Y-55336106D01*
X88103009Y-55336667D01*
X88103297Y-55337015D01*
X88109307Y-55342659D01*
X88124988Y-55360446D01*
X88129826Y-55367105D01*
X88129827Y-55367106D01*
X88174621Y-55404163D01*
X88177591Y-55406781D01*
X88219979Y-55446587D01*
X88227196Y-55450554D01*
X88246805Y-55463879D01*
X88253156Y-55469133D01*
X88253158Y-55469133D01*
X88254309Y-55470086D01*
X88294051Y-55528917D01*
X88300000Y-55567176D01*
X88300000Y-55626000D01*
X88479932Y-55626000D01*
X88548053Y-55646002D01*
X88555439Y-55651130D01*
X88561796Y-55655889D01*
X88610399Y-55674017D01*
X88698795Y-55706988D01*
X88698803Y-55706990D01*
X88759350Y-55713499D01*
X88759355Y-55713499D01*
X88759362Y-55713500D01*
X88759368Y-55713500D01*
X89536000Y-55713500D01*
X89604121Y-55733502D01*
X89650614Y-55787158D01*
X89662000Y-55839500D01*
X89662000Y-55920500D01*
X89641998Y-55988621D01*
X89588342Y-56035114D01*
X89536000Y-56046500D01*
X88759350Y-56046500D01*
X88698803Y-56053009D01*
X88698795Y-56053011D01*
X88561797Y-56104110D01*
X88561795Y-56104111D01*
X88555443Y-56108867D01*
X88488923Y-56133679D01*
X88479932Y-56134000D01*
X88300000Y-56134000D01*
X88300000Y-56203597D01*
X88306505Y-56264094D01*
X88323721Y-56310252D01*
X88328785Y-56381068D01*
X88323721Y-56398315D01*
X88306011Y-56445797D01*
X88306009Y-56445804D01*
X88299500Y-56506350D01*
X88299500Y-57153649D01*
X88306009Y-57214196D01*
X88306011Y-57214204D01*
X88357110Y-57351202D01*
X88357112Y-57351207D01*
X88365186Y-57361992D01*
X88389996Y-57428513D01*
X88374904Y-57497887D01*
X88324701Y-57548088D01*
X88264317Y-57563500D01*
X87951481Y-57563500D01*
X87883360Y-57543498D01*
X87836867Y-57489842D01*
X87826763Y-57419568D01*
X87850615Y-57361989D01*
X87858689Y-57351204D01*
X87909789Y-57214201D01*
X87910144Y-57210905D01*
X87916299Y-57153649D01*
X87916300Y-57153632D01*
X87916300Y-56506367D01*
X87916299Y-56506350D01*
X87909790Y-56445803D01*
X87909788Y-56445795D01*
X87858689Y-56308797D01*
X87858687Y-56308792D01*
X87771061Y-56191738D01*
X87654007Y-56104112D01*
X87654002Y-56104110D01*
X87517004Y-56053011D01*
X87516996Y-56053009D01*
X87456449Y-56046500D01*
X87456438Y-56046500D01*
X86159162Y-56046500D01*
X86159157Y-56046500D01*
X86159145Y-56046501D01*
X86113671Y-56051389D01*
X86043802Y-56038782D01*
X86011110Y-56015206D01*
X85877071Y-55881167D01*
X85843045Y-55818855D01*
X85848110Y-55748040D01*
X85890657Y-55691204D01*
X85957177Y-55666393D01*
X86010197Y-55674016D01*
X86056278Y-55691204D01*
X86098598Y-55706989D01*
X86098603Y-55706990D01*
X86159150Y-55713499D01*
X86159155Y-55713499D01*
X86159162Y-55713500D01*
X86159168Y-55713500D01*
X87456432Y-55713500D01*
X87456438Y-55713500D01*
X87456445Y-55713499D01*
X87456449Y-55713499D01*
X87516996Y-55706990D01*
X87516999Y-55706989D01*
X87517001Y-55706989D01*
X87654004Y-55655889D01*
X87660358Y-55651133D01*
X87771061Y-55568261D01*
X87858687Y-55451207D01*
X87858687Y-55451206D01*
X87858689Y-55451204D01*
X87887875Y-55372952D01*
X87930420Y-55316120D01*
X87996940Y-55291309D01*
X88066314Y-55306400D01*
G37*
%TD.AperFunction*%
%TA.AperFunction,Conductor*%
G36*
X92303765Y-56769166D02*
G01*
X92336610Y-56792818D01*
X92648273Y-57104481D01*
X92682299Y-57166793D01*
X92677234Y-57237608D01*
X92634687Y-57294444D01*
X92585376Y-57316822D01*
X92517715Y-57331204D01*
X92343247Y-57408882D01*
X92296482Y-57442859D01*
X92229614Y-57466717D01*
X92160462Y-57450635D01*
X92110983Y-57399721D01*
X92108229Y-57394175D01*
X92105304Y-57387904D01*
X92105303Y-57387902D01*
X92105302Y-57387899D01*
X92015285Y-57241960D01*
X92012070Y-57238745D01*
X91978043Y-57176438D01*
X91983104Y-57105622D01*
X92012072Y-57060546D01*
X92014890Y-57057727D01*
X92104846Y-56911886D01*
X92127910Y-56842282D01*
X92168323Y-56783910D01*
X92233879Y-56756653D01*
X92303765Y-56769166D01*
G37*
%TD.AperFunction*%
%TA.AperFunction,Conductor*%
G36*
X87213088Y-53387976D02*
G01*
X87220515Y-53396547D01*
X87222974Y-53399657D01*
X87348341Y-53525024D01*
X87348349Y-53525031D01*
X87384498Y-53547328D01*
X87431975Y-53600114D01*
X87439343Y-53619401D01*
X87446979Y-53645673D01*
X87450992Y-53665046D01*
X87453524Y-53685092D01*
X87453526Y-53685097D01*
X87470910Y-53729007D01*
X87472826Y-53734601D01*
X87486013Y-53779966D01*
X87496303Y-53797361D01*
X87505008Y-53815126D01*
X87512447Y-53833916D01*
X87540206Y-53872123D01*
X87543462Y-53877080D01*
X87567505Y-53917723D01*
X87567506Y-53917724D01*
X87567507Y-53917725D01*
X87581801Y-53932016D01*
X87594667Y-53947082D01*
X87595732Y-53948548D01*
X87596684Y-53949859D01*
X87620523Y-54016734D01*
X87604422Y-54085881D01*
X87553493Y-54135346D01*
X87483906Y-54149425D01*
X87481258Y-54149168D01*
X87456449Y-54146500D01*
X87456438Y-54146500D01*
X86886095Y-54146500D01*
X86817974Y-54126498D01*
X86797000Y-54109595D01*
X86558886Y-53871481D01*
X86524860Y-53809169D01*
X86529925Y-53738354D01*
X86572472Y-53681518D01*
X86608349Y-53662781D01*
X86744524Y-53617657D01*
X86895339Y-53524634D01*
X86895345Y-53524629D01*
X87020624Y-53399350D01*
X87022832Y-53396558D01*
X87024837Y-53395137D01*
X87025825Y-53394150D01*
X87025993Y-53394318D01*
X87080768Y-53355522D01*
X87151693Y-53352323D01*
X87213088Y-53387976D01*
G37*
%TD.AperFunction*%
%TA.AperFunction,Conductor*%
G36*
X94265721Y-49482602D02*
G01*
X94312214Y-49536258D01*
X94323600Y-49588600D01*
X94323600Y-50824600D01*
X94722379Y-50824600D01*
X94722400Y-50824598D01*
X94880233Y-50809527D01*
X94880248Y-50809524D01*
X95083277Y-50749910D01*
X95271354Y-50652949D01*
X95437685Y-50522144D01*
X95437691Y-50522139D01*
X95498274Y-50452222D01*
X95558000Y-50413838D01*
X95628996Y-50413838D01*
X95688723Y-50452221D01*
X95718216Y-50516801D01*
X95719499Y-50534734D01*
X95719499Y-51021151D01*
X95726008Y-51081698D01*
X95726010Y-51081706D01*
X95777108Y-51218703D01*
X95777109Y-51218704D01*
X95777110Y-51218706D01*
X95790249Y-51236257D01*
X95823367Y-51280498D01*
X95848178Y-51347019D01*
X95848499Y-51356007D01*
X95848499Y-52002453D01*
X95828497Y-52070574D01*
X95774841Y-52117067D01*
X95704567Y-52127171D01*
X95639987Y-52097677D01*
X95615258Y-52068599D01*
X95561636Y-51981663D01*
X95561629Y-51981654D01*
X95436345Y-51856370D01*
X95436339Y-51856365D01*
X95285525Y-51763342D01*
X95117321Y-51707606D01*
X95117318Y-51707605D01*
X95013516Y-51697000D01*
X94742000Y-51697000D01*
X94742000Y-52833000D01*
X94721998Y-52901121D01*
X94668342Y-52947614D01*
X94616000Y-52959000D01*
X94360000Y-52959000D01*
X94291879Y-52938998D01*
X94245386Y-52885342D01*
X94234000Y-52833000D01*
X94234000Y-51697000D01*
X93962483Y-51697000D01*
X93858681Y-51707605D01*
X93858678Y-51707606D01*
X93690474Y-51763342D01*
X93539660Y-51856365D01*
X93539654Y-51856370D01*
X93414370Y-51981654D01*
X93414365Y-51981660D01*
X93321340Y-52132478D01*
X93283560Y-52246493D01*
X93243147Y-52304864D01*
X93177590Y-52332120D01*
X93107705Y-52319607D01*
X93074861Y-52295956D01*
X92635270Y-51856365D01*
X92140002Y-51361097D01*
X92105979Y-51298787D01*
X92103099Y-51272004D01*
X92103099Y-50930694D01*
X92103099Y-50576805D01*
X92118516Y-50516414D01*
X92120480Y-50512815D01*
X92120489Y-50512804D01*
X92171589Y-50375801D01*
X92172307Y-50369130D01*
X92178099Y-50315249D01*
X92178100Y-50315232D01*
X92178100Y-50135035D01*
X92198102Y-50066914D01*
X92251758Y-50020421D01*
X92322032Y-50010317D01*
X92386612Y-50039811D01*
X92418714Y-50082693D01*
X92505679Y-50273120D01*
X92628421Y-50445487D01*
X92628422Y-50445488D01*
X92781564Y-50591509D01*
X92781565Y-50591510D01*
X92959575Y-50705908D01*
X92959580Y-50705911D01*
X93156014Y-50784552D01*
X93156020Y-50784553D01*
X93363794Y-50824599D01*
X93363803Y-50824600D01*
X93815600Y-50824600D01*
X93815600Y-49918613D01*
X93854765Y-49841748D01*
X93874586Y-49716600D01*
X93854765Y-49591452D01*
X93829387Y-49541645D01*
X93835602Y-49520479D01*
X93889258Y-49473986D01*
X93941600Y-49462600D01*
X94197600Y-49462600D01*
X94265721Y-49482602D01*
G37*
%TD.AperFunction*%
%TA.AperFunction,Conductor*%
G36*
X84026610Y-49978759D02*
G01*
X84083446Y-50021306D01*
X84108257Y-50087826D01*
X84108167Y-50095687D01*
X84108249Y-50095685D01*
X84108498Y-50103608D01*
X84108498Y-50103609D01*
X84109438Y-50133540D01*
X84110669Y-50172674D01*
X84110700Y-50174653D01*
X84110700Y-50203551D01*
X84110701Y-50203572D01*
X84111578Y-50210520D01*
X84112044Y-50216432D01*
X84113526Y-50263588D01*
X84113527Y-50263593D01*
X84119177Y-50283039D01*
X84123186Y-50302397D01*
X84125725Y-50322493D01*
X84125726Y-50322499D01*
X84143093Y-50366362D01*
X84145016Y-50371979D01*
X84158182Y-50417293D01*
X84168494Y-50434731D01*
X84177188Y-50452479D01*
X84184644Y-50471309D01*
X84184650Y-50471320D01*
X84212377Y-50509483D01*
X84215637Y-50514446D01*
X84239660Y-50555065D01*
X84253979Y-50569384D01*
X84266817Y-50584414D01*
X84278726Y-50600804D01*
X84278730Y-50600809D01*
X84315080Y-50630880D01*
X84319473Y-50634877D01*
X84435963Y-50751367D01*
X84526195Y-50841598D01*
X84560220Y-50903910D01*
X84563100Y-50930694D01*
X84563100Y-51555708D01*
X84554000Y-51586699D01*
X84554000Y-52294115D01*
X84560221Y-52305508D01*
X84563100Y-52332291D01*
X84563100Y-52653000D01*
X84543098Y-52721121D01*
X84489442Y-52767614D01*
X84437100Y-52779000D01*
X84172000Y-52779000D01*
X84103879Y-52758998D01*
X84057386Y-52705342D01*
X84046000Y-52653000D01*
X84046000Y-51616999D01*
X83967778Y-51617000D01*
X83896443Y-51623481D01*
X83817284Y-51648148D01*
X83746297Y-51649317D01*
X83685947Y-51611922D01*
X83655395Y-51547836D01*
X83653800Y-51527853D01*
X83653800Y-50299594D01*
X83673802Y-50231473D01*
X83690699Y-50210504D01*
X83893486Y-50007717D01*
X83955794Y-49973695D01*
X84026610Y-49978759D01*
G37*
%TD.AperFunction*%
%TA.AperFunction,Conductor*%
G36*
X70320681Y-44470502D02*
G01*
X70367174Y-44524158D01*
X70377278Y-44594432D01*
X70347784Y-44659012D01*
X70324830Y-44679713D01*
X70216194Y-44755779D01*
X70216184Y-44755788D01*
X70066855Y-44905117D01*
X70066846Y-44905127D01*
X69945714Y-45078123D01*
X69856458Y-45269533D01*
X69856456Y-45269538D01*
X69801795Y-45473539D01*
X69785811Y-45656242D01*
X69783388Y-45683932D01*
X69801795Y-45894326D01*
X69815457Y-45945312D01*
X69856456Y-46098325D01*
X69856458Y-46098330D01*
X69945713Y-46289738D01*
X70030196Y-46410393D01*
X70066851Y-46462741D01*
X70216190Y-46612080D01*
X70389193Y-46733218D01*
X70580604Y-46822474D01*
X70784605Y-46877136D01*
X70994999Y-46895543D01*
X71205393Y-46877136D01*
X71409394Y-46822474D01*
X71600805Y-46733218D01*
X71773808Y-46612080D01*
X71923147Y-46462741D01*
X72044285Y-46289738D01*
X72133541Y-46098327D01*
X72188203Y-45894326D01*
X72206610Y-45683932D01*
X72188203Y-45473538D01*
X72133541Y-45269537D01*
X72044285Y-45078127D01*
X72044284Y-45078126D01*
X72044283Y-45078123D01*
X71923151Y-44905127D01*
X71923148Y-44905124D01*
X71857768Y-44839744D01*
X71773808Y-44755784D01*
X71732942Y-44727169D01*
X71665168Y-44679713D01*
X71620840Y-44624256D01*
X71613531Y-44553636D01*
X71645562Y-44490276D01*
X71706763Y-44454291D01*
X71737439Y-44450500D01*
X76502560Y-44450500D01*
X76570681Y-44470502D01*
X76617174Y-44524158D01*
X76627278Y-44594432D01*
X76597784Y-44659012D01*
X76574830Y-44679713D01*
X76466194Y-44755779D01*
X76466184Y-44755788D01*
X76316855Y-44905117D01*
X76316846Y-44905127D01*
X76195714Y-45078123D01*
X76128064Y-45223199D01*
X76081146Y-45276484D01*
X76012869Y-45295945D01*
X75944909Y-45275403D01*
X75898844Y-45221380D01*
X75894264Y-45209581D01*
X75869392Y-45134521D01*
X75780204Y-44989925D01*
X75780199Y-44989919D01*
X75660080Y-44869800D01*
X75660074Y-44869795D01*
X75515479Y-44780607D01*
X75354210Y-44727169D01*
X75354206Y-44727168D01*
X75254681Y-44717000D01*
X75241500Y-44717000D01*
X75241500Y-46682999D01*
X75254673Y-46682999D01*
X75354208Y-46672831D01*
X75515478Y-46619392D01*
X75660074Y-46530204D01*
X75660080Y-46530199D01*
X75780199Y-46410080D01*
X75780204Y-46410074D01*
X75869393Y-46265477D01*
X75900489Y-46171633D01*
X75940902Y-46113261D01*
X76006458Y-46086004D01*
X76076344Y-46098517D01*
X76128370Y-46146826D01*
X76134289Y-46158014D01*
X76195713Y-46289738D01*
X76280196Y-46410393D01*
X76316851Y-46462741D01*
X76466190Y-46612080D01*
X76639193Y-46733218D01*
X76830604Y-46822474D01*
X77034605Y-46877136D01*
X77244999Y-46895543D01*
X77455393Y-46877136D01*
X77659394Y-46822474D01*
X77850805Y-46733218D01*
X78023808Y-46612080D01*
X78173147Y-46462741D01*
X78294285Y-46289738D01*
X78383541Y-46098327D01*
X78438203Y-45894326D01*
X78456610Y-45683932D01*
X78438203Y-45473538D01*
X78383541Y-45269537D01*
X78294285Y-45078127D01*
X78294284Y-45078126D01*
X78294283Y-45078123D01*
X78173151Y-44905127D01*
X78173148Y-44905124D01*
X78107768Y-44839744D01*
X78023808Y-44755784D01*
X77982942Y-44727169D01*
X77915168Y-44679713D01*
X77870840Y-44624256D01*
X77863531Y-44553636D01*
X77895562Y-44490276D01*
X77956763Y-44454291D01*
X77987439Y-44450500D01*
X105408229Y-44450500D01*
X105411762Y-44450599D01*
X105414233Y-44450737D01*
X105525718Y-44456998D01*
X105697622Y-44467397D01*
X105704362Y-44468171D01*
X105840366Y-44491280D01*
X105989174Y-44518550D01*
X105995255Y-44519980D01*
X106131359Y-44559191D01*
X106132661Y-44559581D01*
X106272808Y-44603252D01*
X106278130Y-44605180D01*
X106360227Y-44639186D01*
X106410553Y-44660032D01*
X106412236Y-44660758D01*
X106531826Y-44714581D01*
X106544572Y-44720318D01*
X106549191Y-44722629D01*
X106675441Y-44792404D01*
X106677437Y-44793559D01*
X106800923Y-44868209D01*
X106804769Y-44870732D01*
X106922711Y-44954417D01*
X106925108Y-44956205D01*
X107038328Y-45044907D01*
X107041428Y-45047502D01*
X107149420Y-45144009D01*
X107151954Y-45146405D01*
X107253592Y-45248043D01*
X107255992Y-45250581D01*
X107352490Y-45358563D01*
X107355097Y-45361677D01*
X107399270Y-45418059D01*
X107443793Y-45474890D01*
X107445581Y-45477287D01*
X107529266Y-45595229D01*
X107531798Y-45599090D01*
X107566917Y-45657184D01*
X107606413Y-45722517D01*
X107607613Y-45724592D01*
X107640233Y-45783612D01*
X107677369Y-45850807D01*
X107679680Y-45855426D01*
X107739212Y-45987698D01*
X107739966Y-45989445D01*
X107794812Y-46121852D01*
X107796757Y-46127222D01*
X107840417Y-46267337D01*
X107840807Y-46268639D01*
X107880018Y-46404743D01*
X107881449Y-46410831D01*
X107908717Y-46559624D01*
X107931826Y-46695636D01*
X107932602Y-46702389D01*
X107943006Y-46874398D01*
X107949401Y-46988238D01*
X107949500Y-46991771D01*
X107949500Y-92708228D01*
X107949401Y-92711761D01*
X107943006Y-92825600D01*
X107932602Y-92997609D01*
X107931826Y-93004362D01*
X107908717Y-93140374D01*
X107881449Y-93289167D01*
X107880018Y-93295255D01*
X107840807Y-93431359D01*
X107840417Y-93432661D01*
X107796757Y-93572776D01*
X107794812Y-93578146D01*
X107739966Y-93710553D01*
X107739212Y-93712300D01*
X107679680Y-93844572D01*
X107677369Y-93849191D01*
X107607639Y-93975362D01*
X107606413Y-93977481D01*
X107531801Y-94100904D01*
X107529266Y-94104769D01*
X107445581Y-94222711D01*
X107443793Y-94225108D01*
X107355108Y-94338308D01*
X107352490Y-94341435D01*
X107256004Y-94449404D01*
X107253575Y-94451973D01*
X107151973Y-94553575D01*
X107149404Y-94556004D01*
X107041435Y-94652490D01*
X107038308Y-94655108D01*
X106925108Y-94743793D01*
X106922711Y-94745581D01*
X106804769Y-94829266D01*
X106800904Y-94831801D01*
X106677481Y-94906413D01*
X106675362Y-94907639D01*
X106549191Y-94977369D01*
X106544572Y-94979680D01*
X106412300Y-95039212D01*
X106410553Y-95039966D01*
X106278146Y-95094812D01*
X106272776Y-95096757D01*
X106132661Y-95140417D01*
X106131359Y-95140807D01*
X105995255Y-95180018D01*
X105989167Y-95181449D01*
X105840374Y-95208717D01*
X105704362Y-95231826D01*
X105697609Y-95232602D01*
X105525600Y-95243006D01*
X105411763Y-95249401D01*
X105408229Y-95249500D01*
X66041771Y-95249500D01*
X66038238Y-95249401D01*
X65924398Y-95243006D01*
X65752389Y-95232602D01*
X65745636Y-95231826D01*
X65609624Y-95208717D01*
X65460831Y-95181449D01*
X65454743Y-95180018D01*
X65318639Y-95140807D01*
X65317337Y-95140417D01*
X65197096Y-95102950D01*
X65177217Y-95096755D01*
X65171852Y-95094812D01*
X65039445Y-95039966D01*
X65037698Y-95039212D01*
X64905426Y-94979680D01*
X64900807Y-94977369D01*
X64827779Y-94937009D01*
X64774592Y-94907613D01*
X64772530Y-94906420D01*
X64649090Y-94831798D01*
X64645229Y-94829266D01*
X64527287Y-94745581D01*
X64524890Y-94743793D01*
X64468059Y-94699270D01*
X64411677Y-94655097D01*
X64408563Y-94652490D01*
X64345310Y-94595964D01*
X64300581Y-94555992D01*
X64298043Y-94553592D01*
X64196405Y-94451954D01*
X64194009Y-94449420D01*
X64097502Y-94341428D01*
X64094907Y-94338328D01*
X64006205Y-94225108D01*
X64004417Y-94222711D01*
X63920732Y-94104769D01*
X63918209Y-94100923D01*
X63843559Y-93977437D01*
X63842404Y-93975441D01*
X63772629Y-93849191D01*
X63770318Y-93844572D01*
X63764581Y-93831826D01*
X63710758Y-93712236D01*
X63710032Y-93710553D01*
X63662582Y-93596000D01*
X63655180Y-93578130D01*
X63653252Y-93572808D01*
X63609581Y-93432661D01*
X63609191Y-93431359D01*
X63569980Y-93295255D01*
X63568549Y-93289167D01*
X63541280Y-93140366D01*
X63518171Y-93004362D01*
X63517397Y-92997622D01*
X63506992Y-92825600D01*
X63500597Y-92711728D01*
X63500548Y-92710003D01*
X63926573Y-92710003D01*
X63946256Y-92997765D01*
X63946257Y-92997770D01*
X63946258Y-92997778D01*
X63975027Y-93136220D01*
X64004943Y-93280189D01*
X64004945Y-93280197D01*
X64052644Y-93414409D01*
X64101541Y-93551992D01*
X64234247Y-93808103D01*
X64400591Y-94043758D01*
X64597474Y-94254568D01*
X64597483Y-94254575D01*
X64597487Y-94254579D01*
X64821220Y-94436600D01*
X64821222Y-94436601D01*
X64821228Y-94436606D01*
X65067686Y-94586481D01*
X65332256Y-94701400D01*
X65610011Y-94779223D01*
X65895761Y-94818499D01*
X65895775Y-94818500D01*
X66184225Y-94818500D01*
X66184238Y-94818499D01*
X66396000Y-94789392D01*
X66469989Y-94779223D01*
X66747744Y-94701400D01*
X67012314Y-94586481D01*
X67258772Y-94436606D01*
X67482526Y-94254568D01*
X67623147Y-94104000D01*
X81042000Y-94104000D01*
X81042000Y-94398597D01*
X81048505Y-94459093D01*
X81099555Y-94595964D01*
X81099555Y-94595965D01*
X81187095Y-94712904D01*
X81304034Y-94800444D01*
X81440906Y-94851494D01*
X81501402Y-94857999D01*
X81501415Y-94858000D01*
X82046000Y-94858000D01*
X82046000Y-94104000D01*
X81042000Y-94104000D01*
X67623147Y-94104000D01*
X67679409Y-94043758D01*
X67845753Y-93808103D01*
X67978459Y-93551992D01*
X68075055Y-93280196D01*
X68133742Y-92997778D01*
X68136737Y-92954000D01*
X81042000Y-92954000D01*
X81042000Y-93098597D01*
X81048505Y-93159096D01*
X81050318Y-93166766D01*
X81048149Y-93167278D01*
X81052401Y-93226797D01*
X81049524Y-93236590D01*
X81048505Y-93240903D01*
X81042000Y-93301402D01*
X81042000Y-93596000D01*
X82046000Y-93596000D01*
X82046000Y-92954000D01*
X81042000Y-92954000D01*
X68136737Y-92954000D01*
X68145545Y-92825227D01*
X68153427Y-92710003D01*
X68153427Y-92709996D01*
X68133743Y-92422234D01*
X68133742Y-92422229D01*
X68133742Y-92422222D01*
X68075055Y-92139804D01*
X68009020Y-91954000D01*
X81042000Y-91954000D01*
X81042000Y-92098597D01*
X81048505Y-92159096D01*
X81050318Y-92166766D01*
X81048149Y-92167278D01*
X81052401Y-92226797D01*
X81049524Y-92236590D01*
X81048505Y-92240903D01*
X81042000Y-92301402D01*
X81042000Y-92446000D01*
X82046000Y-92446000D01*
X82046000Y-91954000D01*
X81042000Y-91954000D01*
X68009020Y-91954000D01*
X67978459Y-91868008D01*
X67845753Y-91611897D01*
X67679409Y-91376242D01*
X67482526Y-91165432D01*
X67482516Y-91165424D01*
X67482512Y-91165420D01*
X67258779Y-90983399D01*
X67258775Y-90983396D01*
X67258772Y-90983394D01*
X67012314Y-90833519D01*
X67012310Y-90833517D01*
X67012308Y-90833516D01*
X66903713Y-90786347D01*
X66747744Y-90718600D01*
X66520354Y-90654888D01*
X66469986Y-90640776D01*
X66469988Y-90640776D01*
X66184238Y-90601500D01*
X66184225Y-90601500D01*
X65895775Y-90601500D01*
X65895761Y-90601500D01*
X65610012Y-90640776D01*
X65453957Y-90684501D01*
X65332256Y-90718600D01*
X65296055Y-90734323D01*
X65067691Y-90833516D01*
X65067686Y-90833518D01*
X65067686Y-90833519D01*
X64866840Y-90955657D01*
X64821220Y-90983399D01*
X64597487Y-91165420D01*
X64597471Y-91165435D01*
X64400591Y-91376242D01*
X64234247Y-91611896D01*
X64234247Y-91611897D01*
X64101541Y-91868007D01*
X64004945Y-92139802D01*
X64004943Y-92139810D01*
X63972445Y-92296204D01*
X63948121Y-92413261D01*
X63946257Y-92422229D01*
X63946256Y-92422234D01*
X63926573Y-92709996D01*
X63926573Y-92710003D01*
X63500548Y-92710003D01*
X63500499Y-92708264D01*
X63500499Y-90043000D01*
X76909000Y-90043000D01*
X76909000Y-90314516D01*
X76919605Y-90418318D01*
X76919606Y-90418321D01*
X76975342Y-90586525D01*
X77068365Y-90737339D01*
X77068370Y-90737345D01*
X77193654Y-90862629D01*
X77193660Y-90862634D01*
X77344474Y-90955657D01*
X77512678Y-91011393D01*
X77512681Y-91011394D01*
X77616483Y-91021999D01*
X77616483Y-91022000D01*
X77663000Y-91022000D01*
X77663000Y-90043000D01*
X76909000Y-90043000D01*
X63500499Y-90043000D01*
X63500499Y-89535000D01*
X76909000Y-89535000D01*
X77663000Y-89535000D01*
X77663000Y-88556000D01*
X77616483Y-88556000D01*
X77512681Y-88566605D01*
X77512678Y-88566606D01*
X77344474Y-88622342D01*
X77193660Y-88715365D01*
X77193654Y-88715370D01*
X77068370Y-88840654D01*
X77068365Y-88840660D01*
X76975342Y-88991474D01*
X76919606Y-89159678D01*
X76919605Y-89159681D01*
X76909000Y-89263483D01*
X76909000Y-89535000D01*
X63500499Y-89535000D01*
X63500499Y-75664415D01*
X63520501Y-75596295D01*
X63552386Y-75562517D01*
X64587979Y-74809359D01*
X64595785Y-74805004D01*
X64600379Y-74800384D01*
X64600383Y-74800383D01*
X64600384Y-74800379D01*
X64600507Y-74800256D01*
X64601564Y-74793735D01*
X64600500Y-74784847D01*
X64600500Y-69987500D01*
X66821996Y-69987500D01*
X66841957Y-70177427D01*
X66851855Y-70207889D01*
X66900973Y-70359056D01*
X66900976Y-70359061D01*
X66996458Y-70524441D01*
X66996465Y-70524451D01*
X67124244Y-70666364D01*
X67124247Y-70666366D01*
X67278748Y-70778618D01*
X67453212Y-70856294D01*
X67640013Y-70896000D01*
X67830987Y-70896000D01*
X68017788Y-70856294D01*
X68106352Y-70816862D01*
X68176718Y-70807429D01*
X68241015Y-70837535D01*
X68278829Y-70897624D01*
X68283600Y-70931970D01*
X68283600Y-74746976D01*
X68263598Y-74815097D01*
X68251237Y-74831286D01*
X68178057Y-74912561D01*
X68082576Y-75077940D01*
X68082573Y-75077947D01*
X68023557Y-75259574D01*
X68003596Y-75449502D01*
X68023557Y-75639429D01*
X68053626Y-75731972D01*
X68082573Y-75821058D01*
X68082576Y-75821063D01*
X68178058Y-75986443D01*
X68178065Y-75986453D01*
X68305844Y-76128366D01*
X68305847Y-76128368D01*
X68460348Y-76240620D01*
X68634812Y-76318296D01*
X68821613Y-76358002D01*
X69012587Y-76358002D01*
X69199388Y-76318296D01*
X69373852Y-76240620D01*
X69528353Y-76128368D01*
X69656140Y-75986446D01*
X69751627Y-75821058D01*
X69810642Y-75639430D01*
X69830604Y-75449502D01*
X69810642Y-75259574D01*
X69751627Y-75077946D01*
X69673652Y-74942889D01*
X69656142Y-74912561D01*
X69656141Y-74912560D01*
X69656140Y-74912558D01*
X69582963Y-74831286D01*
X69552246Y-74767278D01*
X69550600Y-74746976D01*
X69550600Y-74550935D01*
X72695630Y-74550935D01*
X72705966Y-74618399D01*
X72726444Y-74752071D01*
X72746832Y-74807120D01*
X72797111Y-74942881D01*
X72797115Y-74942889D01*
X72904744Y-75115566D01*
X72904754Y-75115579D01*
X73039095Y-75256903D01*
X73044941Y-75263053D01*
X73044944Y-75263055D01*
X73211952Y-75379296D01*
X73211953Y-75379297D01*
X73398938Y-75459539D01*
X73398941Y-75459539D01*
X73398942Y-75459540D01*
X73598259Y-75500500D01*
X73598260Y-75500500D01*
X73750741Y-75500500D01*
X73750742Y-75500500D01*
X73750743Y-75500499D01*
X73750760Y-75500499D01*
X73844833Y-75490931D01*
X73902438Y-75485074D01*
X74096588Y-75424159D01*
X74274502Y-75325409D01*
X74274503Y-75325408D01*
X74274505Y-75325407D01*
X74397640Y-75219698D01*
X74428895Y-75192866D01*
X74553448Y-75031958D01*
X74614520Y-74907454D01*
X74643058Y-74849276D01*
X74643058Y-74849274D01*
X74643060Y-74849271D01*
X74694063Y-74652285D01*
X74704369Y-74449064D01*
X74673556Y-74247929D01*
X74602886Y-74057113D01*
X74547364Y-73968036D01*
X74495255Y-73884433D01*
X74495245Y-73884420D01*
X74355063Y-73736951D01*
X74355061Y-73736949D01*
X74355059Y-73736947D01*
X74355055Y-73736944D01*
X74188047Y-73620703D01*
X74188046Y-73620702D01*
X74001061Y-73540460D01*
X73844388Y-73508264D01*
X73801741Y-73499500D01*
X73649258Y-73499500D01*
X73649239Y-73499500D01*
X73497566Y-73514925D01*
X73497563Y-73514925D01*
X73497562Y-73514926D01*
X73444965Y-73531428D01*
X73303413Y-73575840D01*
X73125494Y-73674592D01*
X72971109Y-73807129D01*
X72971102Y-73807136D01*
X72846555Y-73968036D01*
X72846550Y-73968044D01*
X72756941Y-74150723D01*
X72705936Y-74347719D01*
X72705936Y-74347722D01*
X72695630Y-74550935D01*
X69550600Y-74550935D01*
X69550600Y-70059293D01*
X69552833Y-70035679D01*
X69554374Y-70027600D01*
X69554374Y-70027599D01*
X69554375Y-70027594D01*
X69550723Y-69969550D01*
X69550600Y-69965615D01*
X69550600Y-67050935D01*
X72695630Y-67050935D01*
X72714308Y-67172852D01*
X72726444Y-67252071D01*
X72754711Y-67328397D01*
X72797111Y-67442881D01*
X72797115Y-67442889D01*
X72904744Y-67615566D01*
X72904754Y-67615579D01*
X73027703Y-67744919D01*
X73044941Y-67763053D01*
X73047477Y-67764818D01*
X73211952Y-67879296D01*
X73211953Y-67879297D01*
X73398938Y-67959539D01*
X73398941Y-67959539D01*
X73398942Y-67959540D01*
X73598259Y-68000500D01*
X73598260Y-68000500D01*
X73750741Y-68000500D01*
X73750742Y-68000500D01*
X73750743Y-68000499D01*
X73750760Y-68000499D01*
X73844833Y-67990931D01*
X73902438Y-67985074D01*
X74096588Y-67924159D01*
X74274502Y-67825409D01*
X74274503Y-67825408D01*
X74274505Y-67825407D01*
X74397987Y-67719400D01*
X74428895Y-67692866D01*
X74553448Y-67531958D01*
X74611225Y-67414172D01*
X74643058Y-67349276D01*
X74643058Y-67349274D01*
X74643060Y-67349271D01*
X74694063Y-67152285D01*
X74704369Y-66949064D01*
X74673556Y-66747929D01*
X74602886Y-66557113D01*
X74547364Y-66468036D01*
X74495255Y-66384433D01*
X74495245Y-66384420D01*
X74355063Y-66236951D01*
X74355061Y-66236949D01*
X74355059Y-66236947D01*
X74349434Y-66233032D01*
X74188047Y-66120703D01*
X74188046Y-66120702D01*
X74001061Y-66040460D01*
X73847823Y-66008970D01*
X73801741Y-65999500D01*
X73649258Y-65999500D01*
X73649239Y-65999500D01*
X73497566Y-66014925D01*
X73497563Y-66014925D01*
X73497562Y-66014926D01*
X73444965Y-66031428D01*
X73303413Y-66075840D01*
X73125494Y-66174592D01*
X72971109Y-66307129D01*
X72971102Y-66307136D01*
X72846555Y-66468036D01*
X72846550Y-66468044D01*
X72756941Y-66650723D01*
X72705936Y-66847719D01*
X72705936Y-66847722D01*
X72695630Y-67050935D01*
X69550600Y-67050935D01*
X69550600Y-62984000D01*
X71922000Y-62984000D01*
X71922000Y-64778597D01*
X71928505Y-64839093D01*
X71979555Y-64975964D01*
X71979555Y-64975965D01*
X72067095Y-65092904D01*
X72184034Y-65180444D01*
X72320906Y-65231494D01*
X72381402Y-65237999D01*
X72381415Y-65238000D01*
X73476000Y-65238000D01*
X73476000Y-62984000D01*
X73984000Y-62984000D01*
X73984000Y-65238000D01*
X75078585Y-65238000D01*
X75078597Y-65237999D01*
X75139093Y-65231494D01*
X75275964Y-65180444D01*
X75275965Y-65180444D01*
X75392904Y-65092904D01*
X75480444Y-64975965D01*
X75480444Y-64975964D01*
X75531494Y-64839093D01*
X75537999Y-64778597D01*
X75538000Y-64778585D01*
X75538000Y-62984000D01*
X73984000Y-62984000D01*
X73476000Y-62984000D01*
X71922000Y-62984000D01*
X69550600Y-62984000D01*
X69550600Y-60195500D01*
X69570602Y-60127379D01*
X69624258Y-60080886D01*
X69676600Y-60069500D01*
X72086067Y-60069500D01*
X72154188Y-60089502D01*
X72200681Y-60143158D01*
X72210785Y-60213432D01*
X72181291Y-60278012D01*
X72161577Y-60296368D01*
X72067094Y-60367097D01*
X71979555Y-60484034D01*
X71979555Y-60484035D01*
X71928505Y-60620906D01*
X71922000Y-60681402D01*
X71922000Y-62476000D01*
X75538000Y-62476000D01*
X75538000Y-62262161D01*
X75558002Y-62194040D01*
X75611658Y-62147547D01*
X75681932Y-62137443D01*
X75703634Y-62142557D01*
X75800761Y-62174742D01*
X75800770Y-62174744D01*
X75901147Y-62184999D01*
X75901147Y-62185000D01*
X75946000Y-62185000D01*
X75946000Y-61481000D01*
X76454000Y-61481000D01*
X76454000Y-62185000D01*
X76498853Y-62185000D01*
X76498852Y-62184999D01*
X76599229Y-62174744D01*
X76599241Y-62174742D01*
X76761884Y-62120847D01*
X76907728Y-62030890D01*
X76907734Y-62030885D01*
X77028885Y-61909734D01*
X77028890Y-61909728D01*
X77118847Y-61763884D01*
X77172742Y-61601241D01*
X77172744Y-61601229D01*
X77182999Y-61500852D01*
X77183000Y-61500852D01*
X77183000Y-61481000D01*
X76454000Y-61481000D01*
X75946000Y-61481000D01*
X75946000Y-61099000D01*
X75966002Y-61030879D01*
X76019658Y-60984386D01*
X76072000Y-60973000D01*
X77183000Y-60973000D01*
X77183000Y-60953147D01*
X77172744Y-60852770D01*
X77172742Y-60852758D01*
X77118847Y-60690115D01*
X77028890Y-60544271D01*
X77028885Y-60544265D01*
X77026067Y-60541447D01*
X77024749Y-60539034D01*
X77024338Y-60538514D01*
X77024426Y-60538443D01*
X76992041Y-60479135D01*
X76997106Y-60408320D01*
X77026073Y-60363251D01*
X77029285Y-60360040D01*
X77119302Y-60214101D01*
X77173236Y-60051336D01*
X77178840Y-59996484D01*
X77183500Y-59950880D01*
X77183500Y-59403119D01*
X77173236Y-59302666D01*
X77173236Y-59302664D01*
X77147212Y-59224130D01*
X77144773Y-59153178D01*
X77181081Y-59092168D01*
X77244610Y-59060472D01*
X77266818Y-59058500D01*
X77407911Y-59058500D01*
X77407918Y-59058500D01*
X77521019Y-59043610D01*
X77521018Y-59043610D01*
X77529208Y-59042532D01*
X77529478Y-59044586D01*
X77570522Y-59044586D01*
X77570792Y-59042532D01*
X77578981Y-59043610D01*
X77692082Y-59058500D01*
X77692089Y-59058500D01*
X77907911Y-59058500D01*
X77907918Y-59058500D01*
X78021019Y-59043610D01*
X78021019Y-59043609D01*
X78029207Y-59042532D01*
X78029442Y-59044322D01*
X78070624Y-59044322D01*
X78070924Y-59042045D01*
X78160760Y-59053872D01*
X78225687Y-59082594D01*
X78264779Y-59141859D01*
X78265624Y-59212851D01*
X78233409Y-59267889D01*
X77961339Y-59539959D01*
X77948900Y-59549927D01*
X77949087Y-59550153D01*
X77942982Y-59555203D01*
X77895662Y-59605592D01*
X77894288Y-59607010D01*
X77873872Y-59627426D01*
X77873868Y-59627431D01*
X77869567Y-59632975D01*
X77865715Y-59637484D01*
X77833415Y-59671881D01*
X77833411Y-59671886D01*
X77823652Y-59689636D01*
X77812806Y-59706147D01*
X77800391Y-59722154D01*
X77800387Y-59722160D01*
X77781645Y-59765468D01*
X77779034Y-59770798D01*
X77756305Y-59812143D01*
X77756303Y-59812148D01*
X77751267Y-59831763D01*
X77744864Y-59850466D01*
X77736819Y-59869056D01*
X77729437Y-59915660D01*
X77728233Y-59921472D01*
X77716500Y-59967172D01*
X77716500Y-59987427D01*
X77714949Y-60007137D01*
X77711780Y-60027146D01*
X77711780Y-60027147D01*
X77716220Y-60074121D01*
X77716500Y-60080054D01*
X77716500Y-81134500D01*
X77696498Y-81202621D01*
X77642842Y-81249114D01*
X77590500Y-81260500D01*
X77530013Y-81260500D01*
X77343211Y-81300206D01*
X77168747Y-81377882D01*
X77008905Y-81494015D01*
X77007761Y-81492440D01*
X76952146Y-81519122D01*
X76881693Y-81510349D01*
X76842764Y-81483861D01*
X76200403Y-80841500D01*
X75545405Y-80186501D01*
X75511379Y-80124189D01*
X75508500Y-80097406D01*
X75508500Y-76861367D01*
X75508499Y-76861350D01*
X75501990Y-76800803D01*
X75501988Y-76800795D01*
X75452753Y-76668794D01*
X75450889Y-76663796D01*
X75450888Y-76663794D01*
X75450887Y-76663792D01*
X75363261Y-76546738D01*
X75246207Y-76459112D01*
X75246202Y-76459110D01*
X75109204Y-76408011D01*
X75109196Y-76408009D01*
X75048649Y-76401500D01*
X75048638Y-76401500D01*
X72351362Y-76401500D01*
X72351350Y-76401500D01*
X72290803Y-76408009D01*
X72290795Y-76408011D01*
X72153797Y-76459110D01*
X72153792Y-76459112D01*
X72036738Y-76546738D01*
X71949112Y-76663792D01*
X71949110Y-76663797D01*
X71898011Y-76800795D01*
X71898009Y-76800803D01*
X71891500Y-76861350D01*
X71891500Y-80958649D01*
X71898009Y-81019196D01*
X71898011Y-81019204D01*
X71949110Y-81156202D01*
X71949112Y-81156207D01*
X72036738Y-81273261D01*
X72153792Y-81360887D01*
X72153794Y-81360888D01*
X72153796Y-81360889D01*
X72199356Y-81377882D01*
X72290795Y-81411988D01*
X72290803Y-81411990D01*
X72351350Y-81418499D01*
X72351355Y-81418499D01*
X72351362Y-81418500D01*
X74933404Y-81418500D01*
X75001525Y-81438502D01*
X75022499Y-81455405D01*
X76124754Y-82557660D01*
X76134719Y-82570097D01*
X76134946Y-82569910D01*
X76139998Y-82576017D01*
X76190370Y-82623319D01*
X76191759Y-82624665D01*
X76202007Y-82634913D01*
X76212223Y-82645130D01*
X76212227Y-82645133D01*
X76212229Y-82645135D01*
X76217781Y-82649442D01*
X76222268Y-82653273D01*
X76244958Y-82674581D01*
X76256676Y-82685585D01*
X76256678Y-82685586D01*
X76274427Y-82695343D01*
X76290952Y-82706198D01*
X76306958Y-82718614D01*
X76348685Y-82736670D01*
X76350261Y-82737352D01*
X76355582Y-82739958D01*
X76396939Y-82762695D01*
X76396947Y-82762697D01*
X76416557Y-82767732D01*
X76435266Y-82774137D01*
X76453854Y-82782181D01*
X76500476Y-82789564D01*
X76506261Y-82790763D01*
X76551969Y-82802500D01*
X76572223Y-82802500D01*
X76591933Y-82804051D01*
X76594140Y-82804400D01*
X76611942Y-82807220D01*
X76645869Y-82804012D01*
X76658916Y-82802780D01*
X76664849Y-82802500D01*
X76917300Y-82802500D01*
X76985421Y-82822502D01*
X77010937Y-82844190D01*
X77014247Y-82847866D01*
X77168748Y-82960118D01*
X77343212Y-83037794D01*
X77530013Y-83077500D01*
X77590500Y-83077500D01*
X77658621Y-83097502D01*
X77705114Y-83151158D01*
X77716500Y-83203500D01*
X77716500Y-85503146D01*
X77714751Y-85518988D01*
X77715044Y-85519016D01*
X77714298Y-85526908D01*
X77716469Y-85595974D01*
X77716500Y-85597953D01*
X77716500Y-85626851D01*
X77716501Y-85626872D01*
X77717378Y-85633820D01*
X77717844Y-85639732D01*
X77719326Y-85686888D01*
X77719327Y-85686893D01*
X77724977Y-85706339D01*
X77728986Y-85725697D01*
X77731525Y-85745793D01*
X77731526Y-85745799D01*
X77748893Y-85789662D01*
X77750816Y-85795279D01*
X77763982Y-85840593D01*
X77774294Y-85858031D01*
X77782988Y-85875779D01*
X77790444Y-85894609D01*
X77790450Y-85894620D01*
X77818177Y-85932783D01*
X77821437Y-85937746D01*
X77845460Y-85978365D01*
X77859779Y-85992684D01*
X77872617Y-86007714D01*
X77874053Y-86009690D01*
X77884528Y-86024107D01*
X77912794Y-86047491D01*
X77920886Y-86054185D01*
X77925267Y-86058171D01*
X78708596Y-86841500D01*
X78989813Y-87122717D01*
X79021714Y-87176655D01*
X79023730Y-87183596D01*
X79023732Y-87183600D01*
X79106492Y-87323539D01*
X79106498Y-87323546D01*
X79221453Y-87438501D01*
X79221460Y-87438507D01*
X79361399Y-87521267D01*
X79361402Y-87521267D01*
X79361404Y-87521269D01*
X79517534Y-87566629D01*
X79554011Y-87569500D01*
X79953988Y-87569499D01*
X79990466Y-87566629D01*
X80146596Y-87521269D01*
X80199862Y-87489767D01*
X80268675Y-87472308D01*
X80328137Y-87489766D01*
X80381404Y-87521269D01*
X80537534Y-87566629D01*
X80574011Y-87569500D01*
X80650130Y-87569499D01*
X80718249Y-87589500D01*
X80764743Y-87643155D01*
X80774848Y-87713429D01*
X80745355Y-87778010D01*
X80685630Y-87816395D01*
X80676329Y-87818745D01*
X80617714Y-87831204D01*
X80443247Y-87908882D01*
X80288744Y-88021135D01*
X80160965Y-88163048D01*
X80160958Y-88163058D01*
X80065476Y-88328438D01*
X80065473Y-88328445D01*
X80019986Y-88468437D01*
X79979912Y-88527042D01*
X79914515Y-88554679D01*
X79900153Y-88555500D01*
X79516455Y-88555500D01*
X79412574Y-88566112D01*
X79244261Y-88621885D01*
X79093347Y-88714970D01*
X79093341Y-88714975D01*
X78967971Y-88840345D01*
X78965511Y-88843457D01*
X78963281Y-88845035D01*
X78962780Y-88845537D01*
X78962694Y-88845451D01*
X78907568Y-88884483D01*
X78836643Y-88887671D01*
X78775254Y-88852008D01*
X78767837Y-88843446D01*
X78765632Y-88840657D01*
X78640345Y-88715370D01*
X78640339Y-88715365D01*
X78489525Y-88622342D01*
X78321321Y-88566606D01*
X78321318Y-88566605D01*
X78217516Y-88556000D01*
X78171000Y-88556000D01*
X78171000Y-91022000D01*
X78217517Y-91022000D01*
X78217516Y-91021999D01*
X78321318Y-91011394D01*
X78321321Y-91011393D01*
X78489525Y-90955657D01*
X78640339Y-90862634D01*
X78640345Y-90862629D01*
X78765624Y-90737350D01*
X78767832Y-90734558D01*
X78769837Y-90733137D01*
X78770825Y-90732150D01*
X78770993Y-90732318D01*
X78825768Y-90693522D01*
X78896693Y-90690323D01*
X78958088Y-90725976D01*
X78965515Y-90734547D01*
X78967974Y-90737657D01*
X79093341Y-90863024D01*
X79093347Y-90863029D01*
X79093348Y-90863030D01*
X79244262Y-90956115D01*
X79412574Y-91011887D01*
X79516455Y-91022500D01*
X80117544Y-91022499D01*
X80221426Y-91011887D01*
X80389738Y-90956115D01*
X80393169Y-90953999D01*
X81042000Y-90953999D01*
X81042000Y-91098596D01*
X81048505Y-91159095D01*
X81050318Y-91166765D01*
X81048149Y-91167277D01*
X81052401Y-91226796D01*
X81049525Y-91236590D01*
X81048505Y-91240908D01*
X81042000Y-91301402D01*
X81042000Y-91446000D01*
X82046000Y-91446000D01*
X82046000Y-90953999D01*
X81042000Y-90953999D01*
X80393169Y-90953999D01*
X80540652Y-90863030D01*
X80666030Y-90737652D01*
X80759115Y-90586738D01*
X80800296Y-90462458D01*
X80840710Y-90404087D01*
X80906266Y-90376831D01*
X80976152Y-90389344D01*
X81008996Y-90412996D01*
X81041999Y-90445999D01*
X81188533Y-90445999D01*
X81256654Y-90466001D01*
X81264042Y-90471131D01*
X81303792Y-90500888D01*
X81303794Y-90500889D01*
X81303796Y-90500890D01*
X81362875Y-90522925D01*
X81440795Y-90551989D01*
X81440803Y-90551991D01*
X81501350Y-90558500D01*
X81501355Y-90558500D01*
X81501362Y-90558501D01*
X81501368Y-90558501D01*
X82428000Y-90558501D01*
X82496121Y-90578503D01*
X82542614Y-90632159D01*
X82554000Y-90684501D01*
X82554000Y-94858000D01*
X83056809Y-94858000D01*
X83084055Y-94866000D01*
X83117000Y-94866000D01*
X90283001Y-94866000D01*
X90304096Y-94844905D01*
X90366408Y-94810879D01*
X90393191Y-94808000D01*
X90846000Y-94808000D01*
X90846000Y-94054000D01*
X91354000Y-94054000D01*
X91354000Y-94808000D01*
X91898585Y-94808000D01*
X91898597Y-94807999D01*
X91959093Y-94801494D01*
X92095964Y-94750444D01*
X92095965Y-94750444D01*
X92212904Y-94662904D01*
X92300444Y-94545965D01*
X92300444Y-94545964D01*
X92351494Y-94409093D01*
X92357999Y-94348597D01*
X92358000Y-94348585D01*
X92358000Y-94054000D01*
X91354000Y-94054000D01*
X90846000Y-94054000D01*
X90846000Y-92954000D01*
X91354000Y-92954000D01*
X91354000Y-93546000D01*
X92358000Y-93546000D01*
X92358000Y-93251414D01*
X92357999Y-93251404D01*
X92351232Y-93188471D01*
X92351232Y-93161529D01*
X92357999Y-93098595D01*
X92358000Y-93098585D01*
X92358000Y-92954000D01*
X91354000Y-92954000D01*
X90846000Y-92954000D01*
X90846000Y-92704846D01*
X90866002Y-92636725D01*
X90919658Y-92590232D01*
X90989932Y-92580128D01*
X90998198Y-92581600D01*
X91007136Y-92583500D01*
X91007140Y-92583500D01*
X91192860Y-92583500D01*
X91297524Y-92561253D01*
X91323721Y-92558500D01*
X91898632Y-92558500D01*
X91898638Y-92558500D01*
X91898645Y-92558499D01*
X91898649Y-92558499D01*
X91959196Y-92551990D01*
X91959199Y-92551989D01*
X91959201Y-92551989D01*
X92096204Y-92500889D01*
X92135955Y-92471131D01*
X92202475Y-92446321D01*
X92211464Y-92446000D01*
X92358000Y-92446000D01*
X92358000Y-92301414D01*
X92357999Y-92301402D01*
X92351494Y-92240906D01*
X92349681Y-92233231D01*
X92352068Y-92232666D01*
X92347857Y-92173960D01*
X92351158Y-92162714D01*
X92351988Y-92159203D01*
X92351987Y-92159203D01*
X92351989Y-92159201D01*
X92358500Y-92098638D01*
X92358500Y-91301362D01*
X92352001Y-91240908D01*
X92351990Y-91240803D01*
X92350177Y-91233132D01*
X92352379Y-91232611D01*
X92348127Y-91173226D01*
X92350930Y-91163680D01*
X92351989Y-91159200D01*
X92358499Y-91098648D01*
X92358500Y-91098631D01*
X92358500Y-90301366D01*
X92358499Y-90301349D01*
X92351990Y-90240803D01*
X92350177Y-90233132D01*
X92352168Y-90232661D01*
X92347859Y-90172516D01*
X92350233Y-90164432D01*
X92351494Y-90159094D01*
X92357999Y-90098598D01*
X92358000Y-90098586D01*
X92358000Y-89954001D01*
X92211467Y-89954001D01*
X92143346Y-89933999D01*
X92135958Y-89928869D01*
X92096207Y-89899111D01*
X92096202Y-89899109D01*
X91959204Y-89848010D01*
X91959196Y-89848008D01*
X91898649Y-89841499D01*
X91898638Y-89841499D01*
X91323721Y-89841499D01*
X91297524Y-89838746D01*
X91192860Y-89816499D01*
X91007140Y-89816499D01*
X90902476Y-89838746D01*
X90876279Y-89841499D01*
X90301350Y-89841499D01*
X90240803Y-89848008D01*
X90240795Y-89848010D01*
X90103797Y-89899109D01*
X90103792Y-89899111D01*
X90064042Y-89928869D01*
X89997522Y-89953680D01*
X89988533Y-89954001D01*
X89841999Y-89954001D01*
X89836596Y-89959403D01*
X89821998Y-90009121D01*
X89768342Y-90055614D01*
X89716000Y-90067000D01*
X84986952Y-90067000D01*
X84918831Y-90046998D01*
X84872338Y-89993342D01*
X84862234Y-89923068D01*
X84867119Y-89902063D01*
X84868079Y-89899111D01*
X84904042Y-89788428D01*
X84924004Y-89598500D01*
X84904042Y-89408572D01*
X84845027Y-89226944D01*
X84749540Y-89061556D01*
X84749538Y-89061554D01*
X84749534Y-89061548D01*
X84652698Y-88954001D01*
X89842000Y-88954001D01*
X89842000Y-89098598D01*
X89848505Y-89159097D01*
X89850318Y-89166767D01*
X89848148Y-89167279D01*
X89852403Y-89226787D01*
X89849524Y-89236592D01*
X89848505Y-89240904D01*
X89842000Y-89301403D01*
X89842000Y-89446001D01*
X90846000Y-89446001D01*
X90846000Y-88954001D01*
X91354000Y-88954001D01*
X91354000Y-89446001D01*
X92358000Y-89446001D01*
X92358000Y-89301415D01*
X92357999Y-89301403D01*
X92351494Y-89240906D01*
X92349681Y-89233231D01*
X92351852Y-89232717D01*
X92347595Y-89173223D01*
X92350470Y-89163431D01*
X92351494Y-89159095D01*
X92357999Y-89098598D01*
X92358000Y-89098586D01*
X92358000Y-88954001D01*
X91354000Y-88954001D01*
X90846000Y-88954001D01*
X89842000Y-88954001D01*
X84652698Y-88954001D01*
X84621755Y-88919635D01*
X84467252Y-88807382D01*
X84292788Y-88729706D01*
X84105987Y-88690000D01*
X83915013Y-88690000D01*
X83728205Y-88729707D01*
X83723433Y-88731258D01*
X83652465Y-88733284D01*
X83591668Y-88696620D01*
X83560345Y-88632907D01*
X83558500Y-88611424D01*
X83558500Y-88301368D01*
X83558499Y-88301351D01*
X83551990Y-88240804D01*
X83550177Y-88233133D01*
X83552379Y-88232612D01*
X83548127Y-88173227D01*
X83550930Y-88163681D01*
X83551989Y-88159201D01*
X83558499Y-88098649D01*
X89841500Y-88098649D01*
X89848009Y-88159195D01*
X89849823Y-88166867D01*
X89847834Y-88167336D01*
X89852135Y-88227505D01*
X89849758Y-88235600D01*
X89848504Y-88240905D01*
X89842000Y-88301400D01*
X89842000Y-88446001D01*
X89988537Y-88446001D01*
X90056658Y-88466003D01*
X90064046Y-88471133D01*
X90103792Y-88500887D01*
X90103794Y-88500888D01*
X90103796Y-88500889D01*
X90162875Y-88522924D01*
X90240795Y-88551988D01*
X90240803Y-88551990D01*
X90301350Y-88558499D01*
X90301355Y-88558499D01*
X90301362Y-88558500D01*
X90301368Y-88558500D01*
X91898632Y-88558500D01*
X91898638Y-88558500D01*
X91898645Y-88558499D01*
X91898649Y-88558499D01*
X91959196Y-88551990D01*
X91959199Y-88551989D01*
X91959201Y-88551989D01*
X92096204Y-88500889D01*
X92096207Y-88500887D01*
X92135954Y-88471133D01*
X92202474Y-88446322D01*
X92211463Y-88446001D01*
X92358000Y-88446001D01*
X92358000Y-88301415D01*
X92357999Y-88301403D01*
X92351494Y-88240907D01*
X92349681Y-88233232D01*
X92352066Y-88232668D01*
X92347859Y-88173949D01*
X92351160Y-88162707D01*
X92351988Y-88159203D01*
X92351987Y-88159203D01*
X92351989Y-88159201D01*
X92358500Y-88098638D01*
X92358500Y-87301362D01*
X92351989Y-87240799D01*
X92351989Y-87240798D01*
X92350177Y-87233129D01*
X92352168Y-87232658D01*
X92347859Y-87172515D01*
X92350233Y-87164429D01*
X92351494Y-87159092D01*
X92357999Y-87098596D01*
X92358000Y-87098584D01*
X92358000Y-86953999D01*
X92211463Y-86953999D01*
X92143342Y-86933997D01*
X92135954Y-86928867D01*
X92096207Y-86899112D01*
X92096202Y-86899110D01*
X91959204Y-86848011D01*
X91959196Y-86848009D01*
X91898649Y-86841500D01*
X91898638Y-86841500D01*
X90301362Y-86841500D01*
X90301350Y-86841500D01*
X90240803Y-86848009D01*
X90240795Y-86848011D01*
X90103797Y-86899110D01*
X90103792Y-86899112D01*
X90064046Y-86928867D01*
X89997526Y-86953678D01*
X89988537Y-86953999D01*
X89842000Y-86953999D01*
X89842000Y-87098596D01*
X89848505Y-87159095D01*
X89850318Y-87166765D01*
X89847938Y-87167327D01*
X89852133Y-87226081D01*
X89848833Y-87237321D01*
X89848009Y-87240804D01*
X89841500Y-87301350D01*
X89841500Y-88098649D01*
X83558499Y-88098649D01*
X83558500Y-88098632D01*
X83558500Y-87301367D01*
X83558499Y-87301350D01*
X83551989Y-87240798D01*
X83550177Y-87233129D01*
X83552379Y-87232608D01*
X83548130Y-87173220D01*
X83550930Y-87163682D01*
X83551989Y-87159201D01*
X83558499Y-87098649D01*
X83558500Y-87098632D01*
X83558500Y-86301367D01*
X83558499Y-86301350D01*
X83551989Y-86240798D01*
X83550177Y-86233129D01*
X83552166Y-86232658D01*
X83547863Y-86172502D01*
X83550236Y-86164419D01*
X83551494Y-86159094D01*
X83557999Y-86098597D01*
X83558000Y-86098585D01*
X83558000Y-85954000D01*
X83411464Y-85954000D01*
X83411461Y-85953999D01*
X89842000Y-85953999D01*
X89842000Y-86098596D01*
X89848505Y-86159095D01*
X89850318Y-86166765D01*
X89848148Y-86167277D01*
X89852403Y-86226785D01*
X89849524Y-86236590D01*
X89848505Y-86240902D01*
X89842000Y-86301401D01*
X89842000Y-86445999D01*
X90846000Y-86445999D01*
X90846000Y-85953999D01*
X91354000Y-85953999D01*
X91354000Y-86445999D01*
X92358000Y-86445999D01*
X92358000Y-86301413D01*
X92357999Y-86301401D01*
X92351494Y-86240904D01*
X92349681Y-86233229D01*
X92351852Y-86232715D01*
X92347595Y-86173221D01*
X92350470Y-86163429D01*
X92351494Y-86159093D01*
X92357999Y-86098596D01*
X92358000Y-86098584D01*
X92358000Y-85953999D01*
X91354000Y-85953999D01*
X90846000Y-85953999D01*
X89842000Y-85953999D01*
X83411461Y-85953999D01*
X83343343Y-85933998D01*
X83335962Y-85928873D01*
X83296204Y-85899111D01*
X83296203Y-85899110D01*
X83159204Y-85848011D01*
X83159196Y-85848009D01*
X83098649Y-85841500D01*
X83098638Y-85841500D01*
X81501362Y-85841500D01*
X81501350Y-85841500D01*
X81440803Y-85848009D01*
X81440795Y-85848011D01*
X81303797Y-85899110D01*
X81303796Y-85899110D01*
X81285910Y-85912500D01*
X81264044Y-85928868D01*
X81197525Y-85953679D01*
X81188536Y-85954000D01*
X81161361Y-85954000D01*
X81126208Y-85948997D01*
X81010465Y-85915370D01*
X80973998Y-85912500D01*
X80574012Y-85912500D01*
X80537535Y-85915370D01*
X80381400Y-85960732D01*
X80328138Y-85992231D01*
X80259321Y-86009690D01*
X80199862Y-85992231D01*
X80146599Y-85960732D01*
X79990464Y-85915370D01*
X79953998Y-85912500D01*
X79953989Y-85912500D01*
X79623596Y-85912500D01*
X79555475Y-85892498D01*
X79534500Y-85875595D01*
X79020404Y-85361498D01*
X78986379Y-85299186D01*
X78983500Y-85272403D01*
X78983500Y-84954001D01*
X81042000Y-84954001D01*
X81042000Y-85098601D01*
X81048504Y-85159096D01*
X81050317Y-85166766D01*
X81048148Y-85167278D01*
X81052400Y-85226797D01*
X81049524Y-85236591D01*
X81048504Y-85240909D01*
X81042000Y-85301399D01*
X81042000Y-85446000D01*
X82046000Y-85446000D01*
X82046000Y-84954001D01*
X82554000Y-84954001D01*
X82554000Y-85446000D01*
X83558000Y-85446000D01*
X83558000Y-85301414D01*
X83557999Y-85301402D01*
X83551494Y-85240903D01*
X83549682Y-85233234D01*
X83551853Y-85232720D01*
X83547593Y-85173229D01*
X83550467Y-85163440D01*
X83551494Y-85159094D01*
X83557994Y-85098649D01*
X89841500Y-85098649D01*
X89848009Y-85159196D01*
X89849823Y-85166868D01*
X89847833Y-85167338D01*
X89852137Y-85227497D01*
X89849760Y-85235593D01*
X89848505Y-85240902D01*
X89842000Y-85301401D01*
X89842000Y-85445999D01*
X89988535Y-85445999D01*
X90056656Y-85466001D01*
X90064026Y-85471117D01*
X90103796Y-85500889D01*
X90103799Y-85500890D01*
X90240795Y-85551988D01*
X90240803Y-85551990D01*
X90301350Y-85558499D01*
X90301355Y-85558499D01*
X90301362Y-85558500D01*
X90301368Y-85558500D01*
X91898632Y-85558500D01*
X91898638Y-85558500D01*
X91898645Y-85558499D01*
X91898649Y-85558499D01*
X91959196Y-85551990D01*
X91959199Y-85551989D01*
X91959201Y-85551989D01*
X92096204Y-85500889D01*
X92135958Y-85471129D01*
X92202477Y-85446320D01*
X92211465Y-85445999D01*
X92358000Y-85445999D01*
X92358000Y-85301413D01*
X92357999Y-85301401D01*
X92351494Y-85240905D01*
X92349681Y-85233230D01*
X92352066Y-85232666D01*
X92347859Y-85173947D01*
X92351158Y-85162711D01*
X92351984Y-85159213D01*
X92351989Y-85159201D01*
X92358500Y-85098638D01*
X92358500Y-84301362D01*
X92357945Y-84296204D01*
X92351989Y-84240798D01*
X92350177Y-84233129D01*
X92352379Y-84232608D01*
X92348130Y-84173220D01*
X92350930Y-84163682D01*
X92351989Y-84159201D01*
X92358499Y-84098649D01*
X92358500Y-84098632D01*
X92358500Y-83301367D01*
X92358499Y-83301350D01*
X92351989Y-83240798D01*
X92350177Y-83233129D01*
X92352379Y-83232608D01*
X92348130Y-83173220D01*
X92350930Y-83163682D01*
X92351989Y-83159201D01*
X92358499Y-83098649D01*
X92358500Y-83098632D01*
X92358500Y-82301367D01*
X92358499Y-82301350D01*
X92351989Y-82240798D01*
X92350177Y-82233129D01*
X92352377Y-82232609D01*
X92348132Y-82173209D01*
X92350932Y-82163673D01*
X92351989Y-82159201D01*
X92358499Y-82098649D01*
X92358500Y-82098632D01*
X92358500Y-81301367D01*
X92358499Y-81301350D01*
X92351990Y-81240803D01*
X92351988Y-81240795D01*
X92300889Y-81103797D01*
X92300887Y-81103792D01*
X92213261Y-80986738D01*
X92096207Y-80899112D01*
X92096202Y-80899110D01*
X91959204Y-80848011D01*
X91959196Y-80848009D01*
X91898649Y-80841500D01*
X91898638Y-80841500D01*
X90301362Y-80841500D01*
X90301350Y-80841500D01*
X90240803Y-80848009D01*
X90240795Y-80848011D01*
X90103797Y-80899110D01*
X90103792Y-80899112D01*
X89986738Y-80986738D01*
X89899112Y-81103792D01*
X89899110Y-81103797D01*
X89848011Y-81240795D01*
X89848009Y-81240803D01*
X89841500Y-81301350D01*
X89841500Y-82098649D01*
X89848009Y-82159196D01*
X89849823Y-82166868D01*
X89847620Y-82167388D01*
X89851870Y-82226779D01*
X89849067Y-82236325D01*
X89848010Y-82240798D01*
X89841500Y-82301350D01*
X89841500Y-83098649D01*
X89848009Y-83159195D01*
X89849823Y-83166867D01*
X89847624Y-83167386D01*
X89851866Y-83226799D01*
X89849068Y-83236327D01*
X89848009Y-83240804D01*
X89841500Y-83301350D01*
X89841500Y-84098649D01*
X89848009Y-84159195D01*
X89849823Y-84166867D01*
X89847624Y-84167386D01*
X89851866Y-84226799D01*
X89849068Y-84236327D01*
X89848009Y-84240804D01*
X89841500Y-84301350D01*
X89841500Y-85098649D01*
X83557994Y-85098649D01*
X83557999Y-85098598D01*
X83558000Y-85098586D01*
X83558000Y-84954001D01*
X82554000Y-84954001D01*
X82046000Y-84954001D01*
X81042000Y-84954001D01*
X78983500Y-84954001D01*
X78983500Y-84456738D01*
X79003502Y-84388617D01*
X79057158Y-84342124D01*
X79127432Y-84332020D01*
X79192012Y-84361514D01*
X79198595Y-84367643D01*
X79221453Y-84390501D01*
X79221460Y-84390507D01*
X79361399Y-84473267D01*
X79361402Y-84473267D01*
X79361404Y-84473269D01*
X79517534Y-84518629D01*
X79554011Y-84521500D01*
X79953988Y-84521499D01*
X79990466Y-84518629D01*
X80146596Y-84473269D01*
X80199862Y-84441767D01*
X80268675Y-84424308D01*
X80328137Y-84441766D01*
X80381404Y-84473269D01*
X80537534Y-84518629D01*
X80574011Y-84521500D01*
X80973988Y-84521499D01*
X81010466Y-84518629D01*
X81166596Y-84473269D01*
X81166596Y-84473268D01*
X81174209Y-84471057D01*
X81174870Y-84473333D01*
X81233530Y-84466079D01*
X81288647Y-84489548D01*
X81303796Y-84500889D01*
X81303797Y-84500889D01*
X81303798Y-84500890D01*
X81440795Y-84551988D01*
X81440803Y-84551990D01*
X81501350Y-84558499D01*
X81501355Y-84558499D01*
X81501362Y-84558500D01*
X81501368Y-84558500D01*
X83098632Y-84558500D01*
X83098638Y-84558500D01*
X83098645Y-84558499D01*
X83098649Y-84558499D01*
X83159196Y-84551990D01*
X83159199Y-84551989D01*
X83159201Y-84551989D01*
X83296204Y-84500889D01*
X83296207Y-84500887D01*
X83335954Y-84471133D01*
X83402474Y-84446322D01*
X83411463Y-84446001D01*
X83558000Y-84446001D01*
X83558000Y-84301415D01*
X83557999Y-84301403D01*
X83551494Y-84240907D01*
X83549681Y-84233232D01*
X83552066Y-84232668D01*
X83547859Y-84173949D01*
X83551160Y-84162707D01*
X83551988Y-84159203D01*
X83551987Y-84159203D01*
X83551989Y-84159201D01*
X83558500Y-84098638D01*
X83558500Y-83301362D01*
X83551989Y-83240799D01*
X83551989Y-83240798D01*
X83550177Y-83233129D01*
X83552379Y-83232608D01*
X83548130Y-83173220D01*
X83550930Y-83163682D01*
X83551989Y-83159201D01*
X83558499Y-83098649D01*
X83558500Y-83098632D01*
X83558500Y-82301367D01*
X83558499Y-82301350D01*
X83551990Y-82240803D01*
X83550177Y-82233132D01*
X83552380Y-82232611D01*
X83548125Y-82173236D01*
X83550926Y-82163696D01*
X83551988Y-82159203D01*
X83551987Y-82159203D01*
X83551989Y-82159201D01*
X83558500Y-82098638D01*
X83558500Y-81931422D01*
X83578502Y-81863301D01*
X83632158Y-81816808D01*
X83658304Y-81808175D01*
X83661480Y-81807500D01*
X83661487Y-81807500D01*
X83689806Y-81801480D01*
X83760592Y-81806882D01*
X83817225Y-81849699D01*
X83841718Y-81916337D01*
X83841998Y-81924726D01*
X83841998Y-82098584D01*
X83841999Y-82098597D01*
X83848504Y-82159093D01*
X83899554Y-82295964D01*
X83899554Y-82295965D01*
X83987094Y-82412904D01*
X84104033Y-82500444D01*
X84240905Y-82551494D01*
X84301401Y-82557999D01*
X84301414Y-82558000D01*
X84445999Y-82558000D01*
X84445999Y-82098649D01*
X84841500Y-82098649D01*
X84848009Y-82159196D01*
X84848011Y-82159204D01*
X84899109Y-82296201D01*
X84899110Y-82296202D01*
X84899111Y-82296204D01*
X84928867Y-82335953D01*
X84953678Y-82402473D01*
X84953999Y-82411462D01*
X84953999Y-82558000D01*
X85098584Y-82558000D01*
X85098596Y-82557999D01*
X85159092Y-82551494D01*
X85166768Y-82549681D01*
X85167332Y-82552068D01*
X85226039Y-82547857D01*
X85237298Y-82551162D01*
X85240798Y-82551989D01*
X85301350Y-82558499D01*
X85301355Y-82558499D01*
X85301362Y-82558500D01*
X85301368Y-82558500D01*
X86098632Y-82558500D01*
X86098638Y-82558500D01*
X86098645Y-82558499D01*
X86098649Y-82558499D01*
X86159201Y-82551989D01*
X86166871Y-82550177D01*
X86167391Y-82552379D01*
X86226780Y-82548130D01*
X86236317Y-82550930D01*
X86240798Y-82551989D01*
X86301350Y-82558499D01*
X86301355Y-82558499D01*
X86301362Y-82558500D01*
X86301368Y-82558500D01*
X87098632Y-82558500D01*
X87098638Y-82558500D01*
X87098645Y-82558499D01*
X87098649Y-82558499D01*
X87159201Y-82551989D01*
X87166871Y-82550177D01*
X87167391Y-82552379D01*
X87226780Y-82548130D01*
X87236317Y-82550930D01*
X87240798Y-82551989D01*
X87301350Y-82558499D01*
X87301355Y-82558499D01*
X87301362Y-82558500D01*
X87301368Y-82558500D01*
X88098632Y-82558500D01*
X88098638Y-82558500D01*
X88159201Y-82551989D01*
X88159204Y-82551987D01*
X88166878Y-82550175D01*
X88167349Y-82552169D01*
X88227475Y-82547857D01*
X88235563Y-82550232D01*
X88240906Y-82551494D01*
X88301402Y-82557999D01*
X88301415Y-82558000D01*
X88446000Y-82558000D01*
X88446000Y-82411463D01*
X88466002Y-82343342D01*
X88471132Y-82335954D01*
X88471133Y-82335953D01*
X88500889Y-82296204D01*
X88549129Y-82166868D01*
X88551988Y-82159204D01*
X88551990Y-82159196D01*
X88558499Y-82098649D01*
X88558500Y-82098632D01*
X88558500Y-81554000D01*
X88954000Y-81554000D01*
X88954000Y-82558000D01*
X89098585Y-82558000D01*
X89098597Y-82557999D01*
X89159093Y-82551494D01*
X89295964Y-82500444D01*
X89295965Y-82500444D01*
X89412904Y-82412904D01*
X89500444Y-82295965D01*
X89500444Y-82295964D01*
X89551494Y-82159093D01*
X89557999Y-82098597D01*
X89558000Y-82098585D01*
X89558000Y-81554000D01*
X88954000Y-81554000D01*
X88558500Y-81554000D01*
X88558500Y-80501367D01*
X88558499Y-80501350D01*
X88551990Y-80440803D01*
X88551988Y-80440795D01*
X88514187Y-80339449D01*
X88500889Y-80303796D01*
X88471131Y-80264044D01*
X88446321Y-80197525D01*
X88446000Y-80188536D01*
X88446000Y-80042000D01*
X88954000Y-80042000D01*
X88954000Y-81046000D01*
X89558000Y-81046000D01*
X89558000Y-80501414D01*
X89557999Y-80501402D01*
X89551494Y-80440906D01*
X89500444Y-80304035D01*
X89500444Y-80304034D01*
X89412904Y-80187095D01*
X89295965Y-80099555D01*
X89159093Y-80048505D01*
X89098597Y-80042000D01*
X88954000Y-80042000D01*
X88446000Y-80042000D01*
X88301402Y-80042000D01*
X88240903Y-80048505D01*
X88233234Y-80050318D01*
X88232672Y-80047940D01*
X88173906Y-80052131D01*
X88162675Y-80048832D01*
X88159195Y-80048009D01*
X88098649Y-80041500D01*
X88098638Y-80041500D01*
X87301362Y-80041500D01*
X87301350Y-80041500D01*
X87240804Y-80048009D01*
X87233133Y-80049823D01*
X87232613Y-80047624D01*
X87173201Y-80051866D01*
X87163672Y-80049068D01*
X87159195Y-80048009D01*
X87098649Y-80041500D01*
X87098638Y-80041500D01*
X86301362Y-80041500D01*
X86301350Y-80041500D01*
X86240804Y-80048009D01*
X86233133Y-80049823D01*
X86232613Y-80047624D01*
X86173201Y-80051866D01*
X86163672Y-80049068D01*
X86159195Y-80048009D01*
X86098649Y-80041500D01*
X86098638Y-80041500D01*
X85301362Y-80041500D01*
X85301350Y-80041500D01*
X85240804Y-80048009D01*
X85233133Y-80049823D01*
X85232663Y-80047838D01*
X85172477Y-80052131D01*
X85164394Y-80049757D01*
X85159095Y-80048505D01*
X85098596Y-80042000D01*
X84953999Y-80042000D01*
X84953999Y-80188537D01*
X84933997Y-80256658D01*
X84928867Y-80264046D01*
X84899112Y-80303792D01*
X84899110Y-80303797D01*
X84848011Y-80440795D01*
X84848009Y-80440803D01*
X84841500Y-80501350D01*
X84841500Y-82098649D01*
X84445999Y-82098649D01*
X84445999Y-81150565D01*
X84452167Y-81111626D01*
X84459541Y-81088933D01*
X84459542Y-81088926D01*
X84479504Y-80899000D01*
X84459542Y-80709072D01*
X84452166Y-80686371D01*
X84445999Y-80647434D01*
X84445999Y-80042000D01*
X84301401Y-80042000D01*
X84240904Y-80048505D01*
X84097870Y-80101854D01*
X84027054Y-80106918D01*
X84002589Y-80098905D01*
X83893460Y-80050318D01*
X83848288Y-80030206D01*
X83661487Y-79990500D01*
X83470513Y-79990500D01*
X83283711Y-80030206D01*
X83109247Y-80107882D01*
X82954749Y-80220132D01*
X82954748Y-80220132D01*
X82903570Y-80276970D01*
X82853932Y-80308112D01*
X82854678Y-80309835D01*
X82847411Y-80312979D01*
X82829963Y-80323297D01*
X82812217Y-80331990D01*
X82793383Y-80339448D01*
X82793382Y-80339448D01*
X82793381Y-80339449D01*
X82755209Y-80367181D01*
X82750248Y-80370440D01*
X82709638Y-80394458D01*
X82695311Y-80408784D01*
X82680285Y-80421617D01*
X82663895Y-80433525D01*
X82663893Y-80433527D01*
X82633808Y-80469892D01*
X82629812Y-80474283D01*
X82299498Y-80804596D01*
X82237188Y-80838620D01*
X82210405Y-80841500D01*
X81501350Y-80841500D01*
X81440803Y-80848009D01*
X81440795Y-80848011D01*
X81303797Y-80899110D01*
X81303792Y-80899112D01*
X81186738Y-80986738D01*
X81099112Y-81103792D01*
X81099110Y-81103797D01*
X81048011Y-81240795D01*
X81048009Y-81240803D01*
X81041500Y-81301350D01*
X81041500Y-82098649D01*
X81048009Y-82159196D01*
X81049823Y-82166868D01*
X81047620Y-82167388D01*
X81051870Y-82226779D01*
X81049067Y-82236325D01*
X81048010Y-82240798D01*
X81041500Y-82301350D01*
X81041500Y-82738500D01*
X81021498Y-82806621D01*
X80967842Y-82853114D01*
X80915500Y-82864500D01*
X80574012Y-82864500D01*
X80537535Y-82867370D01*
X80381400Y-82912732D01*
X80328138Y-82944231D01*
X80259321Y-82961690D01*
X80199862Y-82944231D01*
X80146599Y-82912732D01*
X79990464Y-82867370D01*
X79953998Y-82864500D01*
X79953989Y-82864500D01*
X79746595Y-82864500D01*
X79678474Y-82844498D01*
X79657500Y-82827595D01*
X79470405Y-82640500D01*
X79436379Y-82578188D01*
X79433500Y-82551405D01*
X79433500Y-67017494D01*
X79453502Y-66949373D01*
X79507158Y-66902880D01*
X79577432Y-66892776D01*
X79642012Y-66922270D01*
X79648595Y-66928399D01*
X80859227Y-68139031D01*
X80893253Y-68201343D01*
X80888188Y-68272158D01*
X80885241Y-68279370D01*
X80883872Y-68282444D01*
X80824857Y-68464071D01*
X80804896Y-68653999D01*
X80824857Y-68843927D01*
X80837604Y-68883156D01*
X80883873Y-69025556D01*
X80883876Y-69025561D01*
X80978039Y-69188657D01*
X80979360Y-69190944D01*
X81052537Y-69272215D01*
X81083253Y-69336220D01*
X81084900Y-69356524D01*
X81084900Y-71007546D01*
X81083151Y-71023387D01*
X81083444Y-71023415D01*
X81082698Y-71031307D01*
X81084869Y-71100364D01*
X81084900Y-71102344D01*
X81084900Y-71131251D01*
X81084901Y-71131272D01*
X81085778Y-71138220D01*
X81086244Y-71144132D01*
X81087726Y-71191288D01*
X81087727Y-71191293D01*
X81093377Y-71210739D01*
X81097386Y-71230097D01*
X81099925Y-71250193D01*
X81099926Y-71250199D01*
X81117293Y-71294062D01*
X81119216Y-71299679D01*
X81132382Y-71344993D01*
X81142694Y-71362431D01*
X81151388Y-71380179D01*
X81158844Y-71399009D01*
X81158850Y-71399020D01*
X81186577Y-71437183D01*
X81189837Y-71442146D01*
X81205807Y-71469149D01*
X81211835Y-71479342D01*
X81213860Y-71482765D01*
X81228179Y-71497084D01*
X81241017Y-71512114D01*
X81246692Y-71519924D01*
X81252928Y-71528507D01*
X81273418Y-71545458D01*
X81289286Y-71558585D01*
X81293667Y-71562571D01*
X81785824Y-72054728D01*
X82253752Y-72522656D01*
X82263722Y-72535100D01*
X82263950Y-72534913D01*
X82269001Y-72541019D01*
X82319371Y-72588319D01*
X82320761Y-72589666D01*
X82331009Y-72599914D01*
X82341224Y-72610130D01*
X82341228Y-72610133D01*
X82341230Y-72610135D01*
X82346782Y-72614442D01*
X82351269Y-72618273D01*
X82373959Y-72639581D01*
X82385677Y-72650585D01*
X82385679Y-72650586D01*
X82403428Y-72660343D01*
X82419954Y-72671199D01*
X82430424Y-72679321D01*
X82435959Y-72683614D01*
X82454505Y-72691639D01*
X82479262Y-72702352D01*
X82484583Y-72704958D01*
X82525940Y-72727695D01*
X82525948Y-72727697D01*
X82545558Y-72732732D01*
X82564267Y-72739137D01*
X82582855Y-72747181D01*
X82629477Y-72754564D01*
X82635262Y-72755763D01*
X82680970Y-72767500D01*
X82701224Y-72767500D01*
X82720930Y-72769051D01*
X82738057Y-72771763D01*
X82802211Y-72802172D01*
X82807429Y-72807100D01*
X82871145Y-72870816D01*
X83018387Y-72959827D01*
X83182651Y-73011013D01*
X83254035Y-73017500D01*
X83918564Y-73017499D01*
X83989949Y-73011013D01*
X84154213Y-72959827D01*
X84283600Y-72881609D01*
X84352242Y-72863485D01*
X84413967Y-72881609D01*
X84542593Y-72959366D01*
X84706747Y-73010518D01*
X84778077Y-73016999D01*
X84856299Y-73016998D01*
X84856300Y-73016998D01*
X84856300Y-72363000D01*
X85364300Y-72363000D01*
X85364300Y-73016999D01*
X85442522Y-73016999D01*
X85513853Y-73010518D01*
X85678006Y-72959366D01*
X85825140Y-72870421D01*
X85825150Y-72870413D01*
X85946713Y-72748850D01*
X85946721Y-72748840D01*
X86035666Y-72601706D01*
X86086818Y-72437553D01*
X86086818Y-72437552D01*
X86093299Y-72366222D01*
X86093300Y-72363000D01*
X85364300Y-72363000D01*
X84856300Y-72363000D01*
X84856300Y-71981000D01*
X84876302Y-71912879D01*
X84929958Y-71866386D01*
X84982300Y-71855000D01*
X86093299Y-71855000D01*
X86093299Y-71851778D01*
X86086818Y-71780446D01*
X86035666Y-71616293D01*
X85946721Y-71469159D01*
X85946713Y-71469149D01*
X85851013Y-71373449D01*
X85816987Y-71311137D01*
X85822052Y-71240322D01*
X85851012Y-71195259D01*
X85879103Y-71167168D01*
X85946667Y-71099603D01*
X86008977Y-71065580D01*
X86027844Y-71062949D01*
X86055250Y-71061225D01*
X86063081Y-71058679D01*
X86086231Y-71053505D01*
X86094397Y-71052474D01*
X86148461Y-71031067D01*
X86152138Y-71029743D01*
X86207475Y-71011764D01*
X86214425Y-71007352D01*
X86235567Y-70996580D01*
X86243217Y-70993552D01*
X86290278Y-70959359D01*
X86293508Y-70957165D01*
X86342618Y-70926000D01*
X86348258Y-70919993D01*
X86366044Y-70904312D01*
X86372707Y-70899472D01*
X86409784Y-70854651D01*
X86412370Y-70851718D01*
X86452186Y-70809321D01*
X86456150Y-70802108D01*
X86469485Y-70782486D01*
X86474733Y-70776144D01*
X86499491Y-70723528D01*
X86501279Y-70720018D01*
X86529295Y-70669060D01*
X86531343Y-70661081D01*
X86539374Y-70638773D01*
X86542883Y-70631318D01*
X86553783Y-70574173D01*
X86554640Y-70570345D01*
X86556018Y-70564979D01*
X86569100Y-70514030D01*
X86569100Y-70505792D01*
X86571333Y-70482179D01*
X86572874Y-70474100D01*
X86572874Y-70474099D01*
X86572875Y-70474094D01*
X86569223Y-70416050D01*
X86569100Y-70412115D01*
X86569100Y-70102294D01*
X86589102Y-70034173D01*
X86606005Y-70013199D01*
X86634099Y-69985105D01*
X86696411Y-69951079D01*
X86723194Y-69948200D01*
X87954352Y-69948200D01*
X88022473Y-69968202D01*
X88047988Y-69989890D01*
X88159336Y-70113556D01*
X88160100Y-70114243D01*
X88160413Y-70114751D01*
X88163765Y-70118474D01*
X88163084Y-70119086D01*
X88197346Y-70174685D01*
X88201800Y-70207889D01*
X88201800Y-71450049D01*
X88208309Y-71510596D01*
X88208311Y-71510604D01*
X88259410Y-71647602D01*
X88259412Y-71647607D01*
X88347038Y-71764661D01*
X88449318Y-71841226D01*
X88491865Y-71898061D01*
X88496930Y-71968877D01*
X88462905Y-72031189D01*
X88462904Y-72031189D01*
X87211335Y-73282758D01*
X87198900Y-73292722D01*
X87199088Y-73292949D01*
X87192983Y-73297999D01*
X87145679Y-73348372D01*
X87144303Y-73349792D01*
X87123860Y-73370234D01*
X87119560Y-73375777D01*
X87115713Y-73380280D01*
X87083417Y-73414674D01*
X87083411Y-73414683D01*
X87073651Y-73432435D01*
X87062803Y-73448950D01*
X87050386Y-73464958D01*
X87031645Y-73508264D01*
X87029034Y-73513594D01*
X87006305Y-73554939D01*
X87006303Y-73554944D01*
X87001267Y-73574559D01*
X86994864Y-73593262D01*
X86986819Y-73611852D01*
X86979437Y-73658456D01*
X86978233Y-73664268D01*
X86966500Y-73709968D01*
X86966177Y-73712525D01*
X86965366Y-73714382D01*
X86964529Y-73717646D01*
X86964002Y-73717510D01*
X86937792Y-73777600D01*
X86934808Y-73781037D01*
X86860959Y-73863055D01*
X86860958Y-73863057D01*
X86765476Y-74028438D01*
X86765473Y-74028445D01*
X86706457Y-74210072D01*
X86686496Y-74400000D01*
X86706457Y-74589927D01*
X86726719Y-74652285D01*
X86765473Y-74771556D01*
X86781748Y-74799745D01*
X86860958Y-74936941D01*
X86860965Y-74936951D01*
X86988744Y-75078864D01*
X86988747Y-75078866D01*
X87143248Y-75191118D01*
X87317712Y-75268794D01*
X87504513Y-75308500D01*
X87695487Y-75308500D01*
X87882288Y-75268794D01*
X88056752Y-75191118D01*
X88136208Y-75133388D01*
X88203074Y-75109530D01*
X88261514Y-75120216D01*
X88390612Y-75177694D01*
X88577413Y-75217400D01*
X88768387Y-75217400D01*
X88955188Y-75177694D01*
X89129652Y-75100018D01*
X89253168Y-75010277D01*
X89320034Y-74986420D01*
X89389186Y-75002500D01*
X89438666Y-75053413D01*
X89452766Y-75122996D01*
X89427008Y-75189155D01*
X89420865Y-75196524D01*
X89360961Y-75263054D01*
X89360958Y-75263058D01*
X89265476Y-75428438D01*
X89265473Y-75428444D01*
X89262195Y-75438534D01*
X89206457Y-75610072D01*
X89186496Y-75799999D01*
X89206457Y-75989927D01*
X89236526Y-76082470D01*
X89265473Y-76171556D01*
X89271273Y-76181602D01*
X89360958Y-76336941D01*
X89360965Y-76336951D01*
X89488744Y-76478864D01*
X89488747Y-76478866D01*
X89643248Y-76591118D01*
X89817712Y-76668794D01*
X90004513Y-76708500D01*
X90195487Y-76708500D01*
X90382288Y-76668794D01*
X90556752Y-76591118D01*
X90711253Y-76478866D01*
X90729040Y-76459112D01*
X90839034Y-76336951D01*
X90839035Y-76336949D01*
X90839040Y-76336944D01*
X90934527Y-76171556D01*
X90993542Y-75989928D01*
X91013504Y-75800000D01*
X90993542Y-75610072D01*
X90934527Y-75428444D01*
X90875040Y-75325409D01*
X90850381Y-75282698D01*
X90833500Y-75219698D01*
X90833500Y-75034800D01*
X90853502Y-74966679D01*
X90907158Y-74920186D01*
X90959500Y-74908800D01*
X95765547Y-74908800D01*
X95781388Y-74910549D01*
X95781416Y-74910256D01*
X95789301Y-74911000D01*
X95789309Y-74911002D01*
X95850608Y-74909075D01*
X95858376Y-74908831D01*
X95860355Y-74908800D01*
X95889251Y-74908800D01*
X95889256Y-74908800D01*
X95896218Y-74907919D01*
X95902119Y-74907454D01*
X95949289Y-74905973D01*
X95968747Y-74900319D01*
X95988094Y-74896313D01*
X96008197Y-74893774D01*
X96052079Y-74876399D01*
X96057674Y-74874483D01*
X96086216Y-74866191D01*
X96102991Y-74861319D01*
X96102995Y-74861317D01*
X96120426Y-74851008D01*
X96138180Y-74842309D01*
X96157017Y-74834852D01*
X96195186Y-74807118D01*
X96200144Y-74803862D01*
X96240762Y-74779842D01*
X96255085Y-74765518D01*
X96270124Y-74752674D01*
X96286507Y-74740772D01*
X96316593Y-74704403D01*
X96320561Y-74700041D01*
X98022366Y-72998236D01*
X98084676Y-72964212D01*
X98155491Y-72969277D01*
X98200554Y-72998237D01*
X98275524Y-73073206D01*
X98326348Y-73124030D01*
X98477262Y-73217115D01*
X98645574Y-73272887D01*
X98749455Y-73283500D01*
X99350544Y-73283499D01*
X99454426Y-73272887D01*
X99622738Y-73217115D01*
X99773652Y-73124030D01*
X99899030Y-72998652D01*
X99899037Y-72998639D01*
X99901478Y-72995554D01*
X99903709Y-72993973D01*
X99904220Y-72993463D01*
X99904307Y-72993550D01*
X99959416Y-72954521D01*
X100030340Y-72951324D01*
X100091734Y-72986980D01*
X100099161Y-72995551D01*
X100101369Y-72998344D01*
X100226654Y-73123629D01*
X100226660Y-73123634D01*
X100377474Y-73216657D01*
X100545678Y-73272393D01*
X100545681Y-73272394D01*
X100649483Y-73282999D01*
X100649483Y-73283000D01*
X100696000Y-73283000D01*
X100696000Y-72304000D01*
X101204000Y-72304000D01*
X101204000Y-73283000D01*
X101250517Y-73283000D01*
X101250516Y-73282999D01*
X101354318Y-73272394D01*
X101354321Y-73272393D01*
X101522525Y-73216657D01*
X101673339Y-73123634D01*
X101673345Y-73123629D01*
X101798629Y-72998345D01*
X101798634Y-72998339D01*
X101891657Y-72847525D01*
X101947393Y-72679321D01*
X101947394Y-72679318D01*
X101957999Y-72575516D01*
X101958000Y-72575516D01*
X101958000Y-72304000D01*
X101204000Y-72304000D01*
X100696000Y-72304000D01*
X100696000Y-71922000D01*
X100716002Y-71853879D01*
X100769658Y-71807386D01*
X100822000Y-71796000D01*
X101958000Y-71796000D01*
X101958000Y-71524483D01*
X101947394Y-71420681D01*
X101947393Y-71420678D01*
X101907118Y-71299133D01*
X101904678Y-71228178D01*
X101940986Y-71167168D01*
X102004515Y-71135473D01*
X102026723Y-71133500D01*
X102441147Y-71133500D01*
X102456988Y-71135249D01*
X102457016Y-71134956D01*
X102464901Y-71135700D01*
X102464909Y-71135702D01*
X102526208Y-71133775D01*
X102533976Y-71133531D01*
X102535955Y-71133500D01*
X102564851Y-71133500D01*
X102564856Y-71133500D01*
X102571818Y-71132619D01*
X102577719Y-71132154D01*
X102624889Y-71130673D01*
X102644347Y-71125019D01*
X102663694Y-71121013D01*
X102683797Y-71118474D01*
X102727679Y-71101099D01*
X102733274Y-71099183D01*
X102761816Y-71090891D01*
X102778591Y-71086019D01*
X102778595Y-71086017D01*
X102796026Y-71075708D01*
X102813780Y-71067009D01*
X102832617Y-71059552D01*
X102870786Y-71031818D01*
X102875744Y-71028562D01*
X102916362Y-71004542D01*
X102930685Y-70990218D01*
X102945724Y-70977374D01*
X102947650Y-70975975D01*
X102962107Y-70965472D01*
X102992193Y-70929103D01*
X102996161Y-70924741D01*
X103750501Y-70170401D01*
X103812811Y-70136378D01*
X103839594Y-70133499D01*
X104132262Y-70133499D01*
X104132264Y-70133499D01*
X104203649Y-70127013D01*
X104300626Y-70096793D01*
X104371611Y-70095624D01*
X104431961Y-70133019D01*
X104438658Y-70141156D01*
X104442316Y-70146000D01*
X105288314Y-70146000D01*
X105272359Y-70161955D01*
X105214835Y-70274852D01*
X105195014Y-70400000D01*
X105214835Y-70525148D01*
X105272359Y-70638045D01*
X105288314Y-70654000D01*
X104442317Y-70654000D01*
X104492158Y-70829174D01*
X104492160Y-70829179D01*
X104589885Y-71025438D01*
X104722005Y-71200395D01*
X104838448Y-71306547D01*
X104875314Y-71367221D01*
X104873525Y-71438196D01*
X104838448Y-71492777D01*
X104721634Y-71599266D01*
X104589458Y-71774297D01*
X104491691Y-71970639D01*
X104491688Y-71970646D01*
X104431667Y-72181602D01*
X104431667Y-72181606D01*
X104411430Y-72399995D01*
X104411430Y-72400004D01*
X104431667Y-72618393D01*
X104431667Y-72618397D01*
X104491688Y-72829353D01*
X104491690Y-72829358D01*
X104491691Y-72829361D01*
X104589457Y-73025701D01*
X104589458Y-73025702D01*
X104721634Y-73200733D01*
X104838077Y-73306885D01*
X104874943Y-73367559D01*
X104873154Y-73438534D01*
X104838077Y-73493115D01*
X104721634Y-73599266D01*
X104589458Y-73774297D01*
X104491691Y-73970639D01*
X104491688Y-73970646D01*
X104431667Y-74181602D01*
X104431667Y-74181606D01*
X104411430Y-74399995D01*
X104411430Y-74400004D01*
X104431667Y-74618393D01*
X104431667Y-74618397D01*
X104491688Y-74829353D01*
X104491690Y-74829358D01*
X104491691Y-74829361D01*
X104589457Y-75025701D01*
X104589458Y-75025702D01*
X104721634Y-75200733D01*
X104838077Y-75306885D01*
X104874943Y-75367559D01*
X104873154Y-75438534D01*
X104838077Y-75493115D01*
X104721634Y-75599266D01*
X104589458Y-75774297D01*
X104491691Y-75970639D01*
X104491688Y-75970646D01*
X104431667Y-76181602D01*
X104431667Y-76181606D01*
X104411430Y-76399995D01*
X104411430Y-76400004D01*
X104431667Y-76618393D01*
X104431667Y-76618397D01*
X104491688Y-76829353D01*
X104491690Y-76829358D01*
X104491691Y-76829361D01*
X104589457Y-77025701D01*
X104589458Y-77025702D01*
X104721634Y-77200733D01*
X104838077Y-77306885D01*
X104874943Y-77367559D01*
X104873154Y-77438534D01*
X104838077Y-77493115D01*
X104721634Y-77599266D01*
X104589458Y-77774297D01*
X104491691Y-77970639D01*
X104491688Y-77970646D01*
X104431667Y-78181602D01*
X104431667Y-78181606D01*
X104411430Y-78399995D01*
X104411430Y-78400004D01*
X104431667Y-78618393D01*
X104431667Y-78618397D01*
X104491688Y-78829353D01*
X104491690Y-78829358D01*
X104491691Y-78829361D01*
X104589457Y-79025701D01*
X104589458Y-79025702D01*
X104721634Y-79200733D01*
X104838077Y-79306885D01*
X104874943Y-79367559D01*
X104873154Y-79438534D01*
X104838077Y-79493115D01*
X104721634Y-79599266D01*
X104589458Y-79774297D01*
X104491691Y-79970639D01*
X104491688Y-79970646D01*
X104431667Y-80181602D01*
X104431667Y-80181606D01*
X104411430Y-80399995D01*
X104411430Y-80400004D01*
X104431667Y-80618393D01*
X104431667Y-80618397D01*
X104491688Y-80829353D01*
X104491690Y-80829358D01*
X104491691Y-80829361D01*
X104589457Y-81025701D01*
X104589458Y-81025702D01*
X104721637Y-81200736D01*
X104883721Y-81348495D01*
X104883724Y-81348497D01*
X104883726Y-81348498D01*
X104883727Y-81348499D01*
X105070209Y-81463964D01*
X105070213Y-81463965D01*
X105070214Y-81463966D01*
X105274725Y-81543195D01*
X105274728Y-81543195D01*
X105274732Y-81543197D01*
X105490333Y-81583500D01*
X105490336Y-81583500D01*
X105709664Y-81583500D01*
X105709667Y-81583500D01*
X105925268Y-81543197D01*
X105925272Y-81543195D01*
X105925274Y-81543195D01*
X106056286Y-81492440D01*
X106129791Y-81463964D01*
X106316273Y-81348499D01*
X106316275Y-81348496D01*
X106316278Y-81348495D01*
X106478362Y-81200736D01*
X106511989Y-81156207D01*
X106610543Y-81025701D01*
X106708309Y-80829361D01*
X106768332Y-80618399D01*
X106781882Y-80472172D01*
X106788570Y-80400004D01*
X106788570Y-80399995D01*
X106775287Y-80256658D01*
X106768332Y-80181601D01*
X106708309Y-79970639D01*
X106610543Y-79774299D01*
X106478364Y-79599266D01*
X106478362Y-79599263D01*
X106361923Y-79493115D01*
X106325056Y-79432441D01*
X106326845Y-79361467D01*
X106361923Y-79306885D01*
X106478362Y-79200736D01*
X106478364Y-79200734D01*
X106610543Y-79025701D01*
X106708309Y-78829361D01*
X106768332Y-78618399D01*
X106788570Y-78400000D01*
X106768332Y-78181601D01*
X106708309Y-77970639D01*
X106610543Y-77774299D01*
X106478364Y-77599266D01*
X106478362Y-77599263D01*
X106361923Y-77493115D01*
X106325056Y-77432441D01*
X106326845Y-77361467D01*
X106361923Y-77306885D01*
X106478362Y-77200736D01*
X106478364Y-77200734D01*
X106610543Y-77025701D01*
X106708309Y-76829361D01*
X106768332Y-76618399D01*
X106783092Y-76459112D01*
X106788570Y-76400004D01*
X106788570Y-76399995D01*
X106768332Y-76181606D01*
X106768332Y-76181602D01*
X106753185Y-76128366D01*
X106708309Y-75970639D01*
X106610543Y-75774299D01*
X106524832Y-75660800D01*
X106478362Y-75599263D01*
X106361923Y-75493115D01*
X106325056Y-75432441D01*
X106326845Y-75361467D01*
X106361923Y-75306885D01*
X106478362Y-75200736D01*
X106478364Y-75200734D01*
X106610543Y-75025701D01*
X106708309Y-74829361D01*
X106768332Y-74618399D01*
X106780474Y-74487359D01*
X106788570Y-74400004D01*
X106788570Y-74399995D01*
X106768332Y-74181606D01*
X106768332Y-74181602D01*
X106759546Y-74150723D01*
X106708309Y-73970639D01*
X106610543Y-73774299D01*
X106508309Y-73638920D01*
X106478362Y-73599263D01*
X106361923Y-73493115D01*
X106325056Y-73432441D01*
X106326845Y-73361467D01*
X106361923Y-73306885D01*
X106478362Y-73200736D01*
X106478364Y-73200734D01*
X106610543Y-73025701D01*
X106708309Y-72829361D01*
X106768332Y-72618399D01*
X106781888Y-72472107D01*
X106788570Y-72400004D01*
X106788570Y-72399995D01*
X106774772Y-72251099D01*
X106768332Y-72181601D01*
X106708309Y-71970639D01*
X106610543Y-71774299D01*
X106524832Y-71660800D01*
X106478362Y-71599263D01*
X106361552Y-71492777D01*
X106324685Y-71432103D01*
X106326474Y-71361129D01*
X106361552Y-71306547D01*
X106477991Y-71200398D01*
X106610114Y-71025438D01*
X106707839Y-70829179D01*
X106707841Y-70829174D01*
X106757683Y-70654000D01*
X105911686Y-70654000D01*
X105927641Y-70638045D01*
X105985165Y-70525148D01*
X106004986Y-70400000D01*
X105985165Y-70274852D01*
X105927641Y-70161955D01*
X105911686Y-70146000D01*
X106757683Y-70146000D01*
X106707841Y-69970825D01*
X106707839Y-69970820D01*
X106610114Y-69774561D01*
X106477994Y-69599604D01*
X106361551Y-69493452D01*
X106324685Y-69432777D01*
X106326474Y-69361803D01*
X106361550Y-69307223D01*
X106478364Y-69200734D01*
X106481651Y-69196382D01*
X106503275Y-69167747D01*
X106610543Y-69025701D01*
X106708309Y-68829361D01*
X106768332Y-68618399D01*
X106785038Y-68438115D01*
X106788570Y-68400004D01*
X106788570Y-68399995D01*
X106774149Y-68244377D01*
X106768332Y-68181601D01*
X106708309Y-67970639D01*
X106610543Y-67774299D01*
X106478364Y-67599266D01*
X106478362Y-67599263D01*
X106361923Y-67493115D01*
X106325056Y-67432441D01*
X106326845Y-67361467D01*
X106361923Y-67306885D01*
X106478362Y-67200736D01*
X106479485Y-67199249D01*
X106610543Y-67025701D01*
X106708309Y-66829361D01*
X106768332Y-66618399D01*
X106782265Y-66468042D01*
X106788570Y-66400004D01*
X106788570Y-66399995D01*
X106776657Y-66271436D01*
X106768332Y-66181601D01*
X106708309Y-65970639D01*
X106610543Y-65774299D01*
X106540096Y-65681012D01*
X106478365Y-65599266D01*
X106361921Y-65493114D01*
X106325055Y-65432440D01*
X106326844Y-65361466D01*
X106361919Y-65306886D01*
X106478364Y-65200734D01*
X106610543Y-65025701D01*
X106708309Y-64829361D01*
X106768332Y-64618399D01*
X106785097Y-64437483D01*
X106788570Y-64400004D01*
X106788570Y-64399995D01*
X106777830Y-64284101D01*
X106768332Y-64181601D01*
X106708309Y-63970639D01*
X106610543Y-63774299D01*
X106552345Y-63697232D01*
X106478365Y-63599266D01*
X106361922Y-63493114D01*
X106325056Y-63432439D01*
X106326845Y-63361465D01*
X106361921Y-63306884D01*
X106478364Y-63200734D01*
X106610543Y-63025701D01*
X106708309Y-62829361D01*
X106768332Y-62618399D01*
X106788570Y-62400000D01*
X106768332Y-62181601D01*
X106708309Y-61970639D01*
X106610543Y-61774299D01*
X106534045Y-61672999D01*
X106478365Y-61599266D01*
X106361921Y-61493114D01*
X106325055Y-61432440D01*
X106326844Y-61361466D01*
X106361919Y-61306886D01*
X106478364Y-61200734D01*
X106610543Y-61025701D01*
X106708309Y-60829361D01*
X106768332Y-60618399D01*
X106788570Y-60400000D01*
X106787557Y-60389072D01*
X106776709Y-60272000D01*
X106768332Y-60181601D01*
X106708309Y-59970639D01*
X106610543Y-59774299D01*
X106553168Y-59698322D01*
X106478365Y-59599266D01*
X106361922Y-59493114D01*
X106325056Y-59432439D01*
X106326845Y-59361465D01*
X106361921Y-59306884D01*
X106478364Y-59200734D01*
X106490081Y-59185219D01*
X106518037Y-59148198D01*
X106610543Y-59025701D01*
X106708309Y-58829361D01*
X106768332Y-58618399D01*
X106788570Y-58400000D01*
X106783528Y-58345594D01*
X106773908Y-58241779D01*
X106768332Y-58181601D01*
X106708309Y-57970639D01*
X106610543Y-57774299D01*
X106534686Y-57673849D01*
X106509597Y-57607435D01*
X106524397Y-57537998D01*
X106559728Y-57497050D01*
X106561767Y-57495524D01*
X106638261Y-57438261D01*
X106667112Y-57399721D01*
X106725887Y-57321207D01*
X106725887Y-57321206D01*
X106725889Y-57321204D01*
X106776989Y-57184201D01*
X106777551Y-57178981D01*
X106783499Y-57123649D01*
X106783500Y-57123632D01*
X106783500Y-55676367D01*
X106783499Y-55676350D01*
X106776990Y-55615803D01*
X106776988Y-55615795D01*
X106736748Y-55507911D01*
X106725889Y-55478796D01*
X106725888Y-55478794D01*
X106725887Y-55478792D01*
X106638261Y-55361738D01*
X106521207Y-55274112D01*
X106521202Y-55274110D01*
X106384198Y-55223009D01*
X106380512Y-55222138D01*
X106377951Y-55220679D01*
X106376816Y-55220256D01*
X106376884Y-55220071D01*
X106318820Y-55187000D01*
X106285919Y-55124087D01*
X106283500Y-55099518D01*
X106283500Y-53968966D01*
X106283500Y-52834054D01*
X106303501Y-52765937D01*
X106357157Y-52719444D01*
X106396032Y-52708780D01*
X106398637Y-52708500D01*
X106398638Y-52708500D01*
X106412682Y-52706990D01*
X106459196Y-52701990D01*
X106459199Y-52701989D01*
X106459201Y-52701989D01*
X106596204Y-52650889D01*
X106601238Y-52647121D01*
X106713261Y-52563261D01*
X106800887Y-52446207D01*
X106800887Y-52446206D01*
X106800889Y-52446204D01*
X106851989Y-52309201D01*
X106852456Y-52304864D01*
X106858499Y-52248649D01*
X106858500Y-52248632D01*
X106858500Y-50751367D01*
X106858499Y-50751350D01*
X106851990Y-50690803D01*
X106851988Y-50690795D01*
X106809262Y-50576244D01*
X106800889Y-50553796D01*
X106800888Y-50553794D01*
X106800887Y-50553792D01*
X106713261Y-50436738D01*
X106596207Y-50349112D01*
X106596202Y-50349110D01*
X106459204Y-50298011D01*
X106459196Y-50298009D01*
X106398649Y-50291500D01*
X106398638Y-50291500D01*
X104901362Y-50291500D01*
X104901350Y-50291500D01*
X104840803Y-50298009D01*
X104840795Y-50298011D01*
X104703797Y-50349110D01*
X104703792Y-50349112D01*
X104586738Y-50436738D01*
X104505772Y-50544897D01*
X104448936Y-50587444D01*
X104378120Y-50592508D01*
X104330843Y-50571324D01*
X104326454Y-50568135D01*
X104326453Y-50568134D01*
X104171952Y-50455882D01*
X103997488Y-50378206D01*
X103810687Y-50338500D01*
X103619713Y-50338500D01*
X103432911Y-50378206D01*
X103258444Y-50455883D01*
X103209407Y-50491511D01*
X103142539Y-50515369D01*
X103073388Y-50499287D01*
X103034478Y-50465082D01*
X103024850Y-50452221D01*
X103013261Y-50436739D01*
X103010579Y-50434731D01*
X102896207Y-50349112D01*
X102896202Y-50349110D01*
X102759204Y-50298011D01*
X102759196Y-50298009D01*
X102698649Y-50291500D01*
X102698638Y-50291500D01*
X101201362Y-50291500D01*
X101201350Y-50291500D01*
X101140803Y-50298009D01*
X101140795Y-50298011D01*
X101003797Y-50349110D01*
X101003792Y-50349112D01*
X100886738Y-50436738D01*
X100799112Y-50553792D01*
X100799110Y-50553797D01*
X100748011Y-50690795D01*
X100748009Y-50690803D01*
X100741500Y-50751350D01*
X100741500Y-52248649D01*
X100748009Y-52309196D01*
X100748011Y-52309204D01*
X100799110Y-52446202D01*
X100799112Y-52446207D01*
X100886738Y-52563261D01*
X101003792Y-52650887D01*
X101003794Y-52650888D01*
X101003796Y-52650889D01*
X101062875Y-52672924D01*
X101140795Y-52701988D01*
X101140803Y-52701990D01*
X101201350Y-52708499D01*
X101201355Y-52708499D01*
X101201362Y-52708500D01*
X101250754Y-52708500D01*
X101318875Y-52728502D01*
X101357754Y-52773370D01*
X101359949Y-52772073D01*
X101374294Y-52796331D01*
X101382988Y-52814079D01*
X101390444Y-52832909D01*
X101390450Y-52832920D01*
X101418177Y-52871083D01*
X101421437Y-52876046D01*
X101445460Y-52916665D01*
X101459779Y-52930984D01*
X101472617Y-52946014D01*
X101473780Y-52947614D01*
X101484528Y-52962407D01*
X101501039Y-52976066D01*
X101520886Y-52992485D01*
X101525267Y-52996471D01*
X102440788Y-53911992D01*
X103354895Y-54826099D01*
X103388921Y-54888411D01*
X103391800Y-54915194D01*
X103391800Y-55440500D01*
X103371798Y-55508621D01*
X103318142Y-55555114D01*
X103265800Y-55566500D01*
X102867738Y-55566500D01*
X102796353Y-55572986D01*
X102796352Y-55572986D01*
X102632093Y-55624170D01*
X102632088Y-55624172D01*
X102484844Y-55713184D01*
X102464527Y-55733502D01*
X102418432Y-55779596D01*
X102356123Y-55813620D01*
X102329339Y-55816500D01*
X101625658Y-55816500D01*
X101557537Y-55796498D01*
X101550149Y-55791368D01*
X101460307Y-55724112D01*
X101460302Y-55724110D01*
X101323304Y-55673011D01*
X101323296Y-55673009D01*
X101262749Y-55666500D01*
X101262738Y-55666500D01*
X99965462Y-55666500D01*
X99965450Y-55666500D01*
X99904903Y-55673009D01*
X99904895Y-55673011D01*
X99767897Y-55724110D01*
X99767892Y-55724112D01*
X99650838Y-55811738D01*
X99563212Y-55928792D01*
X99563210Y-55928797D01*
X99512111Y-56065795D01*
X99512109Y-56065803D01*
X99505600Y-56126350D01*
X99505600Y-56773649D01*
X99512109Y-56834195D01*
X99512110Y-56834199D01*
X99529821Y-56881683D01*
X99534885Y-56952499D01*
X99529821Y-56969747D01*
X99509948Y-57023029D01*
X99467401Y-57079865D01*
X99400881Y-57104676D01*
X99331507Y-57089585D01*
X99302797Y-57068092D01*
X99248845Y-57014140D01*
X99238880Y-57001702D01*
X99238653Y-57001891D01*
X99233599Y-56995781D01*
X99183226Y-56948478D01*
X99181836Y-56947131D01*
X99171589Y-56936884D01*
X99161375Y-56926669D01*
X99159671Y-56925167D01*
X99159326Y-56924620D01*
X99158570Y-56923864D01*
X99158741Y-56923692D01*
X99121800Y-56865115D01*
X99117718Y-56817185D01*
X99122400Y-56773638D01*
X99122400Y-56126362D01*
X99122399Y-56126350D01*
X99115890Y-56065803D01*
X99115888Y-56065795D01*
X99082659Y-55976706D01*
X99064789Y-55928796D01*
X99064788Y-55928794D01*
X99064787Y-55928792D01*
X98977161Y-55811738D01*
X98860107Y-55724112D01*
X98860102Y-55724110D01*
X98715716Y-55670256D01*
X98716432Y-55668335D01*
X98664038Y-55638492D01*
X98631138Y-55575579D01*
X98637474Y-55504866D01*
X98679214Y-55450142D01*
X98698905Y-55435402D01*
X98786445Y-55318463D01*
X98786445Y-55318462D01*
X98837495Y-55181591D01*
X98844000Y-55121095D01*
X98844001Y-55121083D01*
X98844001Y-54881998D01*
X97954001Y-54881998D01*
X97885880Y-54861996D01*
X97839387Y-54808340D01*
X97828001Y-54755998D01*
X97828001Y-53675498D01*
X98336001Y-53675498D01*
X98336001Y-54373998D01*
X98844001Y-54373998D01*
X98844001Y-54134912D01*
X98844000Y-54134900D01*
X98837495Y-54074404D01*
X98786445Y-53937533D01*
X98786445Y-53937532D01*
X98698905Y-53820593D01*
X98581966Y-53733053D01*
X98445094Y-53682003D01*
X98384598Y-53675498D01*
X98336001Y-53675498D01*
X97828001Y-53675498D01*
X97779403Y-53675498D01*
X97718907Y-53682003D01*
X97582036Y-53733053D01*
X97582035Y-53733053D01*
X97465096Y-53820593D01*
X97383180Y-53930021D01*
X97326344Y-53972568D01*
X97255528Y-53977632D01*
X97193216Y-53943607D01*
X97181444Y-53930021D01*
X97140632Y-53875503D01*
X97115821Y-53808983D01*
X97115500Y-53799994D01*
X97115500Y-52579000D01*
X97115500Y-51356001D01*
X97135501Y-51287884D01*
X97140618Y-51280514D01*
X97181445Y-51225975D01*
X97238279Y-51183431D01*
X97309095Y-51178367D01*
X97371407Y-51212392D01*
X97383179Y-51225978D01*
X97465096Y-51335406D01*
X97582035Y-51422946D01*
X97718907Y-51473996D01*
X97779403Y-51480501D01*
X97779416Y-51480502D01*
X97828001Y-51480502D01*
X97828001Y-50782002D01*
X98336001Y-50782002D01*
X98336001Y-51480502D01*
X98384586Y-51480502D01*
X98384598Y-51480501D01*
X98445094Y-51473996D01*
X98581965Y-51422946D01*
X98581966Y-51422946D01*
X98698905Y-51335406D01*
X98786445Y-51218467D01*
X98786445Y-51218466D01*
X98837495Y-51081595D01*
X98844000Y-51021099D01*
X98844001Y-51021087D01*
X98844001Y-50782002D01*
X98336001Y-50782002D01*
X97828001Y-50782002D01*
X97828001Y-49575502D01*
X97779403Y-49575502D01*
X97718907Y-49582007D01*
X97582036Y-49633057D01*
X97582035Y-49633057D01*
X97465098Y-49720596D01*
X97383180Y-49830025D01*
X97326344Y-49872571D01*
X97255528Y-49877635D01*
X97193216Y-49843610D01*
X97181444Y-49830025D01*
X97129914Y-49761190D01*
X97099260Y-49720241D01*
X97099258Y-49720240D01*
X97099258Y-49720239D01*
X96982206Y-49632614D01*
X96982201Y-49632612D01*
X96845203Y-49581513D01*
X96845195Y-49581511D01*
X96784648Y-49575002D01*
X96784637Y-49575002D01*
X96179361Y-49575002D01*
X96179349Y-49575002D01*
X96118802Y-49581511D01*
X96118794Y-49581513D01*
X95981796Y-49632612D01*
X95981788Y-49632616D01*
X95971424Y-49640375D01*
X95904903Y-49665184D01*
X95835530Y-49650091D01*
X95785329Y-49599887D01*
X95773348Y-49563880D01*
X95772726Y-49564031D01*
X95721423Y-49352559D01*
X95721422Y-49352554D01*
X95633522Y-49160084D01*
X95633520Y-49160080D01*
X95510778Y-48987712D01*
X95510777Y-48987711D01*
X95357636Y-48841691D01*
X95299289Y-48804194D01*
X95252796Y-48750538D01*
X95242692Y-48680265D01*
X95272185Y-48615684D01*
X95291902Y-48597327D01*
X95351503Y-48552710D01*
X96298500Y-48552710D01*
X96308675Y-48652309D01*
X96308676Y-48652314D01*
X96332171Y-48723217D01*
X96362151Y-48813692D01*
X96451400Y-48958387D01*
X96451405Y-48958393D01*
X96571606Y-49078594D01*
X96571612Y-49078599D01*
X96571613Y-49078600D01*
X96716308Y-49167849D01*
X96877686Y-49221324D01*
X96977289Y-49231500D01*
X97586710Y-49231499D01*
X97686314Y-49221324D01*
X97787196Y-49187895D01*
X97826829Y-49181500D01*
X98123447Y-49181500D01*
X98139288Y-49183249D01*
X98139316Y-49182956D01*
X98147201Y-49183700D01*
X98147209Y-49183702D01*
X98208508Y-49181775D01*
X98216276Y-49181531D01*
X98218255Y-49181500D01*
X98247151Y-49181500D01*
X98247156Y-49181500D01*
X98254118Y-49180619D01*
X98260019Y-49180154D01*
X98307189Y-49178673D01*
X98326647Y-49173019D01*
X98345994Y-49169013D01*
X98366097Y-49166474D01*
X98409985Y-49149096D01*
X98415568Y-49147185D01*
X98423359Y-49144922D01*
X98494354Y-49145131D01*
X98553967Y-49183691D01*
X98583270Y-49248358D01*
X98584500Y-49265920D01*
X98584500Y-49342261D01*
X98590986Y-49413646D01*
X98590987Y-49413650D01*
X98593495Y-49421700D01*
X98594660Y-49492687D01*
X98557262Y-49553035D01*
X98493174Y-49583584D01*
X98453009Y-49582121D01*
X98452931Y-49582850D01*
X98384598Y-49575502D01*
X98336001Y-49575502D01*
X98336001Y-50274002D01*
X98844001Y-50274002D01*
X98844001Y-50058428D01*
X98864003Y-49990307D01*
X98917659Y-49943814D01*
X98987933Y-49933710D01*
X99007485Y-49938133D01*
X99088920Y-49963508D01*
X99164351Y-49987013D01*
X99235735Y-49993500D01*
X99900264Y-49993499D01*
X99971649Y-49987013D01*
X100135913Y-49935827D01*
X100283155Y-49846816D01*
X100349669Y-49780300D01*
X100411979Y-49746276D01*
X100430854Y-49743645D01*
X100433143Y-49743500D01*
X100433156Y-49743500D01*
X100440118Y-49742619D01*
X100446019Y-49742154D01*
X100493189Y-49740673D01*
X100512647Y-49735019D01*
X100531994Y-49731013D01*
X100552097Y-49728474D01*
X100552417Y-49728347D01*
X100553086Y-49728219D01*
X100559776Y-49726502D01*
X100559884Y-49726922D01*
X100598798Y-49719500D01*
X101852900Y-49719500D01*
X101921021Y-49739502D01*
X101946537Y-49761190D01*
X101949847Y-49764866D01*
X102104348Y-49877118D01*
X102278812Y-49954794D01*
X102465613Y-49994500D01*
X102656587Y-49994500D01*
X102843388Y-49954794D01*
X103017852Y-49877118D01*
X103172353Y-49764866D01*
X103175663Y-49761190D01*
X103300134Y-49622951D01*
X103300135Y-49622949D01*
X103300140Y-49622944D01*
X103395627Y-49457556D01*
X103454642Y-49275928D01*
X103474604Y-49086000D01*
X103454642Y-48896072D01*
X103395627Y-48714444D01*
X103300140Y-48549056D01*
X103300138Y-48549054D01*
X103300134Y-48549048D01*
X103172355Y-48407135D01*
X103017852Y-48294882D01*
X102843388Y-48217206D01*
X102656587Y-48177500D01*
X102465613Y-48177500D01*
X102278811Y-48217206D01*
X102104347Y-48294882D01*
X101949847Y-48407133D01*
X101946537Y-48410810D01*
X101886091Y-48448050D01*
X101852900Y-48452500D01*
X100501153Y-48452500D01*
X100485311Y-48450750D01*
X100485284Y-48451044D01*
X100477388Y-48450297D01*
X100466807Y-48450630D01*
X100398093Y-48432776D01*
X100373758Y-48413787D01*
X100309066Y-48349095D01*
X100275040Y-48286783D01*
X100280105Y-48215968D01*
X100309064Y-48170906D01*
X100404816Y-48075155D01*
X100493827Y-47927913D01*
X100545013Y-47763649D01*
X100551500Y-47692265D01*
X100551499Y-47177736D01*
X100545013Y-47106351D01*
X100508758Y-46990003D01*
X103296573Y-46990003D01*
X103316256Y-47277765D01*
X103316257Y-47277770D01*
X103316258Y-47277778D01*
X103346508Y-47423347D01*
X103374943Y-47560189D01*
X103374945Y-47560197D01*
X103413165Y-47667737D01*
X103471541Y-47831992D01*
X103604247Y-48088103D01*
X103770591Y-48323758D01*
X103967474Y-48534568D01*
X103967483Y-48534575D01*
X103967487Y-48534579D01*
X104191220Y-48716600D01*
X104191222Y-48716601D01*
X104191228Y-48716606D01*
X104437686Y-48866481D01*
X104702256Y-48981400D01*
X104980011Y-49059223D01*
X105265761Y-49098499D01*
X105265775Y-49098500D01*
X105554225Y-49098500D01*
X105554238Y-49098499D01*
X105770165Y-49068820D01*
X105839989Y-49059223D01*
X106117744Y-48981400D01*
X106382314Y-48866481D01*
X106628772Y-48716606D01*
X106852526Y-48534568D01*
X107049409Y-48323758D01*
X107215753Y-48088103D01*
X107348459Y-47831992D01*
X107445055Y-47560196D01*
X107503742Y-47277778D01*
X107504196Y-47271136D01*
X107523427Y-46990003D01*
X107523427Y-46989996D01*
X107503743Y-46702234D01*
X107503742Y-46702229D01*
X107503742Y-46702222D01*
X107445055Y-46419804D01*
X107348459Y-46148008D01*
X107215753Y-45891897D01*
X107049409Y-45656242D01*
X106852526Y-45445432D01*
X106852516Y-45445424D01*
X106852512Y-45445420D01*
X106628779Y-45263399D01*
X106628775Y-45263396D01*
X106628772Y-45263394D01*
X106382314Y-45113519D01*
X106382310Y-45113517D01*
X106382308Y-45113516D01*
X106230341Y-45047508D01*
X106117744Y-44998600D01*
X105890354Y-44934888D01*
X105839986Y-44920776D01*
X105839988Y-44920776D01*
X105554238Y-44881500D01*
X105554225Y-44881500D01*
X105265775Y-44881500D01*
X105265761Y-44881500D01*
X104980012Y-44920776D01*
X104853566Y-44956205D01*
X104702256Y-44998600D01*
X104702253Y-44998601D01*
X104702254Y-44998601D01*
X104437691Y-45113516D01*
X104437686Y-45113518D01*
X104437686Y-45113519D01*
X104279720Y-45209581D01*
X104191220Y-45263399D01*
X103967487Y-45445420D01*
X103967471Y-45445435D01*
X103770591Y-45656242D01*
X103604247Y-45891896D01*
X103604247Y-45891897D01*
X103471541Y-46148007D01*
X103374945Y-46419802D01*
X103374943Y-46419810D01*
X103342067Y-46578024D01*
X103320279Y-46682876D01*
X103316257Y-46702229D01*
X103316256Y-46702234D01*
X103296573Y-46989996D01*
X103296573Y-46990003D01*
X100508758Y-46990003D01*
X100493827Y-46942087D01*
X100404816Y-46794845D01*
X100404815Y-46794844D01*
X100404811Y-46794839D01*
X100283160Y-46673188D01*
X100283155Y-46673184D01*
X100167005Y-46602969D01*
X100135913Y-46584173D01*
X100135912Y-46584172D01*
X100135911Y-46584172D01*
X100135906Y-46584170D01*
X99971646Y-46532986D01*
X99919722Y-46528268D01*
X99900265Y-46526500D01*
X99900262Y-46526500D01*
X99235738Y-46526500D01*
X99164353Y-46532986D01*
X99164352Y-46532986D01*
X99000093Y-46584170D01*
X99000090Y-46584171D01*
X98852848Y-46673181D01*
X98852842Y-46673186D01*
X98786327Y-46739700D01*
X98724015Y-46773724D01*
X98705162Y-46776353D01*
X98702858Y-46776498D01*
X98685012Y-46778751D01*
X98681077Y-46779123D01*
X98623053Y-46782774D01*
X98623040Y-46782777D01*
X98615208Y-46785322D01*
X98592074Y-46790493D01*
X98583910Y-46791524D01*
X98583900Y-46791527D01*
X98529864Y-46812920D01*
X98526143Y-46814259D01*
X98470822Y-46832237D01*
X98463860Y-46836655D01*
X98442737Y-46847417D01*
X98435083Y-46850447D01*
X98388055Y-46884614D01*
X98384784Y-46886837D01*
X98335685Y-46917996D01*
X98335675Y-46918005D01*
X98330031Y-46924015D01*
X98312353Y-46939615D01*
X98311327Y-46940362D01*
X98244483Y-46964287D01*
X98237164Y-46964500D01*
X96299001Y-46964500D01*
X96299001Y-46977673D01*
X96309168Y-47077208D01*
X96362607Y-47238478D01*
X96451796Y-47383075D01*
X96451799Y-47383079D01*
X96477270Y-47408550D01*
X96511296Y-47470862D01*
X96506231Y-47541677D01*
X96477273Y-47586738D01*
X96451402Y-47612609D01*
X96451400Y-47612612D01*
X96362151Y-47757307D01*
X96308675Y-47918690D01*
X96298500Y-48018280D01*
X96298500Y-48552710D01*
X95351503Y-48552710D01*
X95382504Y-48529503D01*
X95470044Y-48412565D01*
X95470044Y-48412564D01*
X95521094Y-48275693D01*
X95527599Y-48215197D01*
X95527600Y-48215185D01*
X95527600Y-47170600D01*
X94219600Y-47170600D01*
X94219600Y-46682876D01*
X94216544Y-46662600D01*
X95527600Y-46662600D01*
X95527600Y-46456500D01*
X96299000Y-46456500D01*
X97028000Y-46456500D01*
X97028000Y-45765000D01*
X97536000Y-45765000D01*
X97536000Y-46456500D01*
X98264999Y-46456500D01*
X98264998Y-46443326D01*
X98254831Y-46343791D01*
X98201392Y-46182521D01*
X98112204Y-46037925D01*
X98112199Y-46037919D01*
X97992080Y-45917800D01*
X97992074Y-45917795D01*
X97847479Y-45828607D01*
X97686210Y-45775169D01*
X97686206Y-45775168D01*
X97586681Y-45765000D01*
X97536000Y-45765000D01*
X97028000Y-45765000D01*
X97027999Y-45764999D01*
X96977327Y-45765000D01*
X96877791Y-45775168D01*
X96716521Y-45828607D01*
X96571925Y-45917795D01*
X96571919Y-45917800D01*
X96451800Y-46037919D01*
X96451795Y-46037925D01*
X96362607Y-46182520D01*
X96309169Y-46343789D01*
X96309168Y-46343793D01*
X96299000Y-46443318D01*
X96299000Y-46456500D01*
X95527600Y-46456500D01*
X95527600Y-45618014D01*
X95527599Y-45618002D01*
X95521094Y-45557506D01*
X95470044Y-45420635D01*
X95470044Y-45420634D01*
X95382504Y-45303695D01*
X95265565Y-45216155D01*
X95128693Y-45165105D01*
X95068197Y-45158600D01*
X94023600Y-45158600D01*
X94023600Y-46343631D01*
X93935860Y-46292975D01*
X93803608Y-46262790D01*
X93668335Y-46272927D01*
X93542059Y-46322487D01*
X93515599Y-46343587D01*
X93515600Y-45158600D01*
X92471002Y-45158600D01*
X92410506Y-45165105D01*
X92273635Y-45216155D01*
X92273634Y-45216155D01*
X92156695Y-45303695D01*
X92069155Y-45420634D01*
X92069153Y-45420639D01*
X92046237Y-45482079D01*
X92003690Y-45538915D01*
X91937170Y-45563725D01*
X91867796Y-45548633D01*
X91827314Y-45513555D01*
X91782504Y-45453695D01*
X91665565Y-45366155D01*
X91528693Y-45315105D01*
X91468197Y-45308600D01*
X91173600Y-45308600D01*
X91173600Y-46944600D01*
X91153598Y-47012721D01*
X91099942Y-47059214D01*
X91047600Y-47070600D01*
X89291600Y-47070600D01*
X89223479Y-47050598D01*
X89176986Y-46996942D01*
X89165600Y-46944600D01*
X89165600Y-45308600D01*
X89673600Y-45308600D01*
X89673600Y-46562600D01*
X90665600Y-46562600D01*
X90665600Y-45308600D01*
X90371002Y-45308600D01*
X90310505Y-45315105D01*
X90213632Y-45351237D01*
X90142816Y-45356301D01*
X90125568Y-45351237D01*
X90028694Y-45315105D01*
X89968197Y-45308600D01*
X89673600Y-45308600D01*
X89165600Y-45308600D01*
X88871002Y-45308600D01*
X88810506Y-45315105D01*
X88673635Y-45366155D01*
X88673634Y-45366155D01*
X88556697Y-45453694D01*
X88511885Y-45513556D01*
X88455049Y-45556102D01*
X88384233Y-45561166D01*
X88321921Y-45527141D01*
X88292961Y-45482078D01*
X88270044Y-45420634D01*
X88182504Y-45303695D01*
X88065565Y-45216155D01*
X87928693Y-45165105D01*
X87868197Y-45158600D01*
X86823600Y-45158600D01*
X86823599Y-46343631D01*
X86735860Y-46292975D01*
X86603608Y-46262790D01*
X86468335Y-46272927D01*
X86342059Y-46322487D01*
X86315600Y-46343587D01*
X86315600Y-45158600D01*
X85271002Y-45158600D01*
X85210506Y-45165105D01*
X85073635Y-45216155D01*
X85073634Y-45216155D01*
X84956695Y-45303695D01*
X84869155Y-45420634D01*
X84869153Y-45420639D01*
X84860740Y-45443196D01*
X84818193Y-45500032D01*
X84751673Y-45524842D01*
X84750598Y-45524914D01*
X84747236Y-45525125D01*
X84727349Y-45526376D01*
X84723418Y-45526500D01*
X84364830Y-45526500D01*
X84325198Y-45520105D01*
X84224311Y-45486675D01*
X84124719Y-45476500D01*
X83515289Y-45476500D01*
X83415690Y-45486675D01*
X83415687Y-45486675D01*
X83415686Y-45486676D01*
X83335723Y-45513172D01*
X83254307Y-45540151D01*
X83109612Y-45629400D01*
X83109606Y-45629405D01*
X82989405Y-45749606D01*
X82989398Y-45749614D01*
X82968810Y-45782994D01*
X82916024Y-45830471D01*
X82845949Y-45841874D01*
X82780834Y-45813581D01*
X82753743Y-45782033D01*
X82751815Y-45778844D01*
X82751811Y-45778839D01*
X82630160Y-45657188D01*
X82630155Y-45657184D01*
X82533991Y-45599051D01*
X82482913Y-45568173D01*
X82482912Y-45568172D01*
X82482911Y-45568172D01*
X82482906Y-45568170D01*
X82318646Y-45516986D01*
X82266722Y-45512268D01*
X82247265Y-45510500D01*
X82247262Y-45510500D01*
X81582738Y-45510500D01*
X81511353Y-45516986D01*
X81511352Y-45516986D01*
X81347093Y-45568170D01*
X81347088Y-45568172D01*
X81199844Y-45657184D01*
X81199839Y-45657188D01*
X81108433Y-45748595D01*
X81046121Y-45782621D01*
X81019338Y-45785500D01*
X80894678Y-45785500D01*
X80826557Y-45765498D01*
X80805583Y-45748595D01*
X80720393Y-45663405D01*
X80720387Y-45663400D01*
X80575692Y-45574151D01*
X80544228Y-45563725D01*
X80414314Y-45520676D01*
X80414311Y-45520675D01*
X80414309Y-45520675D01*
X80314719Y-45510500D01*
X79705289Y-45510500D01*
X79605690Y-45520675D01*
X79605687Y-45520675D01*
X79605686Y-45520676D01*
X79550644Y-45538915D01*
X79444307Y-45574151D01*
X79299612Y-45663400D01*
X79299606Y-45663405D01*
X79179405Y-45783606D01*
X79179400Y-45783612D01*
X79090151Y-45928307D01*
X79036675Y-46089690D01*
X79026500Y-46189280D01*
X79026500Y-46723710D01*
X79036590Y-46822474D01*
X79036676Y-46823314D01*
X79090151Y-46984692D01*
X79179400Y-47129387D01*
X79205271Y-47155258D01*
X79239296Y-47217568D01*
X79234232Y-47288384D01*
X79205273Y-47333447D01*
X79179795Y-47358925D01*
X79090607Y-47503520D01*
X79037169Y-47664789D01*
X79037168Y-47664793D01*
X79027000Y-47764318D01*
X79027000Y-47777500D01*
X80138000Y-47777500D01*
X80206121Y-47797502D01*
X80252614Y-47851158D01*
X80264000Y-47903500D01*
X80264000Y-48976999D01*
X80314673Y-48976999D01*
X80414208Y-48966831D01*
X80575478Y-48913392D01*
X80720074Y-48824204D01*
X80720080Y-48824199D01*
X80840199Y-48704080D01*
X80840204Y-48704074D01*
X80850516Y-48687356D01*
X80903301Y-48639877D01*
X80973376Y-48628473D01*
X81038492Y-48656764D01*
X81065585Y-48688314D01*
X81078184Y-48709155D01*
X81078188Y-48709160D01*
X81117594Y-48748565D01*
X81151620Y-48810876D01*
X81154500Y-48837661D01*
X81154500Y-48938146D01*
X81152751Y-48953988D01*
X81153044Y-48954016D01*
X81152298Y-48961908D01*
X81154469Y-49030974D01*
X81154500Y-49032953D01*
X81154500Y-49061851D01*
X81154501Y-49061872D01*
X81155378Y-49068820D01*
X81155844Y-49074732D01*
X81157326Y-49121888D01*
X81157327Y-49121893D01*
X81162977Y-49141339D01*
X81166986Y-49160697D01*
X81169525Y-49180793D01*
X81169526Y-49180799D01*
X81186893Y-49224662D01*
X81188816Y-49230279D01*
X81201982Y-49275593D01*
X81212294Y-49293031D01*
X81220988Y-49310779D01*
X81228444Y-49329609D01*
X81228450Y-49329620D01*
X81256177Y-49367783D01*
X81259437Y-49372746D01*
X81283460Y-49413365D01*
X81297779Y-49427684D01*
X81310617Y-49442714D01*
X81322526Y-49459104D01*
X81322530Y-49459109D01*
X81358880Y-49489180D01*
X81363273Y-49493177D01*
X81694157Y-49824062D01*
X81704119Y-49836496D01*
X81704346Y-49836309D01*
X81709400Y-49842418D01*
X81714084Y-49846817D01*
X81759772Y-49889720D01*
X81761161Y-49891066D01*
X81771390Y-49901295D01*
X81781624Y-49911530D01*
X81781628Y-49911533D01*
X81781630Y-49911535D01*
X81787182Y-49915842D01*
X81791679Y-49919683D01*
X81823080Y-49949170D01*
X81828804Y-49954545D01*
X81839299Y-49963508D01*
X81899895Y-50024104D01*
X81933921Y-50086416D01*
X81936800Y-50113199D01*
X81936800Y-51405990D01*
X81916798Y-51474111D01*
X81863142Y-51520604D01*
X81792868Y-51530708D01*
X81728288Y-51501214D01*
X81721705Y-51495085D01*
X81606734Y-51380114D01*
X81606728Y-51380109D01*
X81460884Y-51290152D01*
X81298241Y-51236257D01*
X81298229Y-51236255D01*
X81197852Y-51226000D01*
X81153000Y-51226000D01*
X81153000Y-52312000D01*
X81132998Y-52380121D01*
X81079342Y-52426614D01*
X81027000Y-52438000D01*
X79916000Y-52438000D01*
X79916000Y-52457852D01*
X79926255Y-52558229D01*
X79926257Y-52558241D01*
X79980152Y-52720884D01*
X80070110Y-52866729D01*
X80070113Y-52866733D01*
X80072931Y-52869551D01*
X80074247Y-52871961D01*
X80074662Y-52872486D01*
X80074572Y-52872556D01*
X80106957Y-52931863D01*
X80101892Y-53002678D01*
X80072942Y-53047731D01*
X80069721Y-53050952D01*
X80069715Y-53050959D01*
X79979696Y-53196902D01*
X79952130Y-53280092D01*
X79911716Y-53338464D01*
X79846160Y-53365719D01*
X79776275Y-53353206D01*
X79768720Y-53348619D01*
X79768569Y-53348883D01*
X79762853Y-53345583D01*
X79762852Y-53345582D01*
X79588388Y-53267906D01*
X79401587Y-53228200D01*
X79210613Y-53228200D01*
X79023811Y-53267906D01*
X78849346Y-53345582D01*
X78843629Y-53348884D01*
X78843023Y-53347835D01*
X78782479Y-53369426D01*
X78713330Y-53353333D01*
X78698605Y-53343594D01*
X78661491Y-53315116D01*
X78520887Y-53256876D01*
X78440000Y-53246227D01*
X78440000Y-53272690D01*
X78419998Y-53340811D01*
X78366342Y-53387304D01*
X78296068Y-53397408D01*
X78237296Y-53372653D01*
X78209295Y-53351166D01*
X78167429Y-53293830D01*
X78160000Y-53251205D01*
X78160000Y-53246228D01*
X78159999Y-53246228D01*
X78070926Y-53257955D01*
X78070627Y-53255687D01*
X78029440Y-53255684D01*
X78029206Y-53257468D01*
X78021019Y-53256390D01*
X77981635Y-53251205D01*
X77907920Y-53241500D01*
X77907918Y-53241500D01*
X77692082Y-53241500D01*
X77692079Y-53241500D01*
X77570793Y-53257468D01*
X77570524Y-53255422D01*
X77529476Y-53255422D01*
X77529207Y-53257468D01*
X77407920Y-53241500D01*
X77407918Y-53241500D01*
X77192082Y-53241500D01*
X77192079Y-53241500D01*
X77070793Y-53257468D01*
X77070524Y-53255422D01*
X77029476Y-53255422D01*
X77029207Y-53257468D01*
X76907920Y-53241500D01*
X76907918Y-53241500D01*
X76692082Y-53241500D01*
X76692079Y-53241500D01*
X76570793Y-53257468D01*
X76570524Y-53255422D01*
X76529476Y-53255422D01*
X76529207Y-53257468D01*
X76407920Y-53241500D01*
X76407918Y-53241500D01*
X76192082Y-53241500D01*
X76192079Y-53241500D01*
X76070793Y-53257468D01*
X76070524Y-53255422D01*
X76029476Y-53255422D01*
X76029207Y-53257468D01*
X75907920Y-53241500D01*
X75907918Y-53241500D01*
X75692082Y-53241500D01*
X75692079Y-53241500D01*
X75578982Y-53256389D01*
X75438255Y-53314680D01*
X75438247Y-53314685D01*
X75317408Y-53407408D01*
X75224685Y-53528247D01*
X75224680Y-53528255D01*
X75166389Y-53668982D01*
X75151500Y-53782079D01*
X75151500Y-54125500D01*
X75131498Y-54193621D01*
X75077842Y-54240114D01*
X75025500Y-54251500D01*
X74924622Y-54251500D01*
X74856501Y-54231498D01*
X74810008Y-54177842D01*
X74800417Y-54136864D01*
X74799914Y-54136944D01*
X74798820Y-54130043D01*
X74798684Y-54129459D01*
X74798673Y-54129110D01*
X74793022Y-54109663D01*
X74789012Y-54090300D01*
X74788454Y-54085881D01*
X74786474Y-54070203D01*
X74769099Y-54026320D01*
X74767179Y-54020711D01*
X74766024Y-54016734D01*
X74754018Y-53975407D01*
X74743706Y-53957970D01*
X74735010Y-53940221D01*
X74727552Y-53921383D01*
X74699812Y-53883203D01*
X74696564Y-53878258D01*
X74672542Y-53837638D01*
X74658214Y-53823310D01*
X74645384Y-53808289D01*
X74633472Y-53791893D01*
X74597119Y-53761819D01*
X74592726Y-53757822D01*
X74419842Y-53584937D01*
X74409879Y-53572502D01*
X74409653Y-53572690D01*
X74404600Y-53566582D01*
X74354226Y-53519278D01*
X74352836Y-53517931D01*
X74342590Y-53507685D01*
X74332376Y-53497470D01*
X74332372Y-53497466D01*
X74326825Y-53493163D01*
X74322317Y-53489312D01*
X74287925Y-53457017D01*
X74287919Y-53457013D01*
X74270163Y-53447251D01*
X74253647Y-53436402D01*
X74237641Y-53423986D01*
X74199650Y-53407546D01*
X74194340Y-53405248D01*
X74189007Y-53402635D01*
X74148799Y-53380531D01*
X74098741Y-53330185D01*
X74083500Y-53270116D01*
X74083500Y-51930000D01*
X79916000Y-51930000D01*
X80645000Y-51930000D01*
X80645000Y-51226000D01*
X80600147Y-51226000D01*
X80499770Y-51236255D01*
X80499758Y-51236257D01*
X80337115Y-51290152D01*
X80191271Y-51380109D01*
X80191265Y-51380114D01*
X80070114Y-51501265D01*
X80070109Y-51501271D01*
X79980152Y-51647115D01*
X79926257Y-51809758D01*
X79926255Y-51809770D01*
X79916000Y-51910147D01*
X79916000Y-51930000D01*
X74083500Y-51930000D01*
X74083500Y-50457242D01*
X74103502Y-50389121D01*
X74144317Y-50349412D01*
X74165155Y-50336816D01*
X74286816Y-50215155D01*
X74375827Y-50067913D01*
X74427013Y-49903649D01*
X74433500Y-49832265D01*
X74433499Y-49317736D01*
X74427013Y-49246351D01*
X74383762Y-49107552D01*
X74375829Y-49082093D01*
X74375827Y-49082088D01*
X74375827Y-49082087D01*
X74286816Y-48934845D01*
X74286815Y-48934844D01*
X74286811Y-48934839D01*
X74191067Y-48839095D01*
X74157041Y-48776783D01*
X74162106Y-48705968D01*
X74191067Y-48660905D01*
X74286811Y-48565160D01*
X74286816Y-48565155D01*
X74375827Y-48417913D01*
X74417088Y-48285500D01*
X79027001Y-48285500D01*
X79027001Y-48298673D01*
X79037168Y-48398208D01*
X79090607Y-48559478D01*
X79179795Y-48704074D01*
X79179800Y-48704080D01*
X79299919Y-48824199D01*
X79299925Y-48824204D01*
X79444520Y-48913392D01*
X79605789Y-48966830D01*
X79605793Y-48966831D01*
X79705318Y-48976999D01*
X79756000Y-48976998D01*
X79756000Y-48285500D01*
X79027001Y-48285500D01*
X74417088Y-48285500D01*
X74427013Y-48253649D01*
X74433500Y-48182265D01*
X74433499Y-47667736D01*
X74427013Y-47596351D01*
X74375827Y-47432087D01*
X74286816Y-47284845D01*
X74286815Y-47284844D01*
X74286811Y-47284839D01*
X74165158Y-47163186D01*
X74144314Y-47150585D01*
X74096366Y-47098225D01*
X74083500Y-47042757D01*
X74083500Y-46602969D01*
X74103502Y-46534848D01*
X74157158Y-46488355D01*
X74227432Y-46478251D01*
X74292012Y-46507745D01*
X74298598Y-46513876D01*
X74314925Y-46530204D01*
X74459520Y-46619392D01*
X74620787Y-46672830D01*
X74720327Y-46682999D01*
X74733500Y-46682998D01*
X74733500Y-44717000D01*
X74733499Y-44716999D01*
X74720335Y-44717000D01*
X74620792Y-44727168D01*
X74459521Y-44780607D01*
X74314925Y-44869795D01*
X74289447Y-44895273D01*
X74227134Y-44929297D01*
X74156319Y-44924231D01*
X74111258Y-44895271D01*
X74085387Y-44869400D01*
X73940692Y-44780151D01*
X73779314Y-44726676D01*
X73779311Y-44726675D01*
X73779309Y-44726675D01*
X73679719Y-44716500D01*
X73145289Y-44716500D01*
X73045690Y-44726675D01*
X73045687Y-44726675D01*
X73045686Y-44726676D01*
X72965723Y-44753172D01*
X72884307Y-44780151D01*
X72739612Y-44869400D01*
X72739606Y-44869405D01*
X72619405Y-44989606D01*
X72619400Y-44989612D01*
X72530151Y-45134307D01*
X72530151Y-45134308D01*
X72487377Y-45263394D01*
X72476675Y-45295690D01*
X72466500Y-45395280D01*
X72466500Y-46004710D01*
X72476675Y-46104309D01*
X72476676Y-46104314D01*
X72502591Y-46182520D01*
X72530151Y-46265692D01*
X72619400Y-46410387D01*
X72619405Y-46410393D01*
X72739606Y-46530594D01*
X72739610Y-46530597D01*
X72739613Y-46530600D01*
X72743483Y-46532987D01*
X72756646Y-46541106D01*
X72804125Y-46593891D01*
X72816500Y-46648347D01*
X72816500Y-47042757D01*
X72796498Y-47110878D01*
X72755686Y-47150585D01*
X72734841Y-47163186D01*
X72613188Y-47284839D01*
X72613184Y-47284844D01*
X72524172Y-47432088D01*
X72524170Y-47432093D01*
X72472986Y-47596353D01*
X72466500Y-47667737D01*
X72466500Y-48182261D01*
X72472986Y-48253646D01*
X72472986Y-48253647D01*
X72524170Y-48417906D01*
X72524172Y-48417911D01*
X72524173Y-48417913D01*
X72594700Y-48534579D01*
X72613184Y-48565155D01*
X72613188Y-48565160D01*
X72708933Y-48660905D01*
X72742959Y-48723217D01*
X72737894Y-48794032D01*
X72708933Y-48839095D01*
X72613188Y-48934839D01*
X72613184Y-48934844D01*
X72524172Y-49082088D01*
X72524170Y-49082093D01*
X72472986Y-49246353D01*
X72466500Y-49317737D01*
X72466500Y-49832261D01*
X72472986Y-49903646D01*
X72472986Y-49903647D01*
X72524170Y-50067906D01*
X72524172Y-50067911D01*
X72524173Y-50067913D01*
X72553605Y-50116600D01*
X72613184Y-50215155D01*
X72613188Y-50215160D01*
X72734838Y-50336810D01*
X72734841Y-50336812D01*
X72734845Y-50336816D01*
X72755682Y-50349412D01*
X72803632Y-50401770D01*
X72816500Y-50457242D01*
X72816500Y-53214100D01*
X72796498Y-53282221D01*
X72742842Y-53328714D01*
X72690500Y-53340100D01*
X69803253Y-53340100D01*
X69787411Y-53338350D01*
X69787384Y-53338644D01*
X69779491Y-53337898D01*
X69710424Y-53340069D01*
X69708445Y-53340100D01*
X69679544Y-53340100D01*
X69679540Y-53340100D01*
X69679530Y-53340101D01*
X69672579Y-53340979D01*
X69666667Y-53341444D01*
X69619512Y-53342926D01*
X69619510Y-53342927D01*
X69600055Y-53348578D01*
X69580702Y-53352586D01*
X69560610Y-53355124D01*
X69560602Y-53355126D01*
X69516736Y-53372493D01*
X69511121Y-53374416D01*
X69465807Y-53387582D01*
X69448364Y-53397897D01*
X69430618Y-53406590D01*
X69411782Y-53414048D01*
X69373609Y-53441781D01*
X69368648Y-53445040D01*
X69328038Y-53469058D01*
X69313711Y-53483384D01*
X69298685Y-53496217D01*
X69282295Y-53508125D01*
X69282293Y-53508127D01*
X69252208Y-53544492D01*
X69248212Y-53548883D01*
X67811336Y-54985757D01*
X67798901Y-54995721D01*
X67799089Y-54995948D01*
X67792979Y-55001002D01*
X67745694Y-55051355D01*
X67744319Y-55052774D01*
X67723863Y-55073231D01*
X67719560Y-55078777D01*
X67715714Y-55083279D01*
X67683417Y-55117674D01*
X67683411Y-55117683D01*
X67673651Y-55135435D01*
X67662803Y-55151950D01*
X67650386Y-55167958D01*
X67631645Y-55211264D01*
X67629034Y-55216594D01*
X67606305Y-55257939D01*
X67606303Y-55257944D01*
X67601267Y-55277559D01*
X67594864Y-55296262D01*
X67586819Y-55314852D01*
X67579437Y-55361456D01*
X67578233Y-55367268D01*
X67566500Y-55412968D01*
X67566500Y-55433223D01*
X67564949Y-55452933D01*
X67561780Y-55472942D01*
X67561780Y-55472943D01*
X67566220Y-55519917D01*
X67566500Y-55525850D01*
X67566500Y-59097446D01*
X67564751Y-59113288D01*
X67565044Y-59113316D01*
X67564298Y-59121208D01*
X67566469Y-59190274D01*
X67566500Y-59192253D01*
X67566500Y-59221151D01*
X67566501Y-59221172D01*
X67567378Y-59228120D01*
X67567844Y-59234032D01*
X67569326Y-59281188D01*
X67569327Y-59281193D01*
X67574977Y-59300639D01*
X67578986Y-59319997D01*
X67581525Y-59340093D01*
X67581526Y-59340099D01*
X67598893Y-59383962D01*
X67600816Y-59389579D01*
X67613982Y-59434893D01*
X67624294Y-59452331D01*
X67632988Y-59470079D01*
X67640444Y-59488909D01*
X67640450Y-59488920D01*
X67668177Y-59527083D01*
X67671437Y-59532046D01*
X67695460Y-59572665D01*
X67709779Y-59586984D01*
X67722617Y-59602014D01*
X67726748Y-59607699D01*
X67734528Y-59618407D01*
X67752138Y-59632975D01*
X67770886Y-59648485D01*
X67775267Y-59652471D01*
X67888264Y-59765468D01*
X67991353Y-59868557D01*
X68001320Y-59880997D01*
X68001547Y-59880810D01*
X68006599Y-59886917D01*
X68006600Y-59886918D01*
X68010119Y-59890223D01*
X68056988Y-59934235D01*
X68058377Y-59935581D01*
X68063846Y-59941050D01*
X68078826Y-59956031D01*
X68084368Y-59960330D01*
X68088881Y-59964185D01*
X68102440Y-59976917D01*
X68123279Y-59996486D01*
X68123280Y-59996486D01*
X68123282Y-59996488D01*
X68141029Y-60006244D01*
X68157559Y-60017102D01*
X68173559Y-60029513D01*
X68207640Y-60044260D01*
X68262214Y-60089670D01*
X68283575Y-60157377D01*
X68283600Y-60159898D01*
X68283600Y-69043029D01*
X68263598Y-69111150D01*
X68209942Y-69157643D01*
X68139668Y-69167747D01*
X68106352Y-69158136D01*
X68017790Y-69118706D01*
X67830987Y-69079000D01*
X67640013Y-69079000D01*
X67453211Y-69118706D01*
X67278747Y-69196382D01*
X67124244Y-69308635D01*
X66996465Y-69450548D01*
X66996458Y-69450558D01*
X66900976Y-69615938D01*
X66900973Y-69615945D01*
X66841957Y-69797572D01*
X66821996Y-69987500D01*
X64600500Y-69987500D01*
X64600500Y-65215251D01*
X64601568Y-65206390D01*
X64600534Y-65199917D01*
X64600535Y-65199915D01*
X64600533Y-65199912D01*
X64600506Y-65199741D01*
X64596013Y-65195206D01*
X64588293Y-65190867D01*
X63552390Y-64437483D01*
X63509063Y-64381240D01*
X63500500Y-64335582D01*
X63500500Y-46991770D01*
X63500550Y-46990003D01*
X63926573Y-46990003D01*
X63946256Y-47277765D01*
X63946257Y-47277770D01*
X63946258Y-47277778D01*
X63976508Y-47423347D01*
X64004943Y-47560189D01*
X64004945Y-47560197D01*
X64043165Y-47667737D01*
X64101541Y-47831992D01*
X64234247Y-48088103D01*
X64400591Y-48323758D01*
X64597474Y-48534568D01*
X64597483Y-48534575D01*
X64597487Y-48534579D01*
X64821220Y-48716600D01*
X64821222Y-48716601D01*
X64821228Y-48716606D01*
X65067686Y-48866481D01*
X65332256Y-48981400D01*
X65610011Y-49059223D01*
X65895761Y-49098499D01*
X65895775Y-49098500D01*
X66184225Y-49098500D01*
X66184238Y-49098499D01*
X66400165Y-49068820D01*
X66469989Y-49059223D01*
X66747744Y-48981400D01*
X67012314Y-48866481D01*
X67258772Y-48716606D01*
X67482526Y-48534568D01*
X67679409Y-48323758D01*
X67845753Y-48088103D01*
X67978459Y-47831992D01*
X68075055Y-47560196D01*
X68133742Y-47277778D01*
X68134196Y-47271136D01*
X68153427Y-46990003D01*
X68153427Y-46989996D01*
X68133743Y-46702234D01*
X68133742Y-46702229D01*
X68133742Y-46702222D01*
X68075055Y-46419804D01*
X67978459Y-46148008D01*
X67845753Y-45891897D01*
X67679409Y-45656242D01*
X67482526Y-45445432D01*
X67482516Y-45445424D01*
X67482512Y-45445420D01*
X67258779Y-45263399D01*
X67258775Y-45263396D01*
X67258772Y-45263394D01*
X67012314Y-45113519D01*
X67012310Y-45113517D01*
X67012308Y-45113516D01*
X66860341Y-45047508D01*
X66747744Y-44998600D01*
X66520354Y-44934888D01*
X66469986Y-44920776D01*
X66469988Y-44920776D01*
X66184238Y-44881500D01*
X66184225Y-44881500D01*
X65895775Y-44881500D01*
X65895761Y-44881500D01*
X65610012Y-44920776D01*
X65483566Y-44956205D01*
X65332256Y-44998600D01*
X65332253Y-44998601D01*
X65332254Y-44998601D01*
X65067691Y-45113516D01*
X65067686Y-45113518D01*
X65067686Y-45113519D01*
X64909720Y-45209581D01*
X64821220Y-45263399D01*
X64597487Y-45445420D01*
X64597471Y-45445435D01*
X64400591Y-45656242D01*
X64234247Y-45891896D01*
X64234247Y-45891897D01*
X64101541Y-46148007D01*
X64004945Y-46419802D01*
X64004943Y-46419810D01*
X63972067Y-46578024D01*
X63950279Y-46682876D01*
X63946257Y-46702229D01*
X63946256Y-46702234D01*
X63926573Y-46989996D01*
X63926573Y-46990003D01*
X63500550Y-46990003D01*
X63500599Y-46988237D01*
X63501944Y-46964287D01*
X63506992Y-46874398D01*
X63517397Y-46702373D01*
X63518172Y-46695635D01*
X63521986Y-46673188D01*
X63541285Y-46559601D01*
X63568552Y-46410816D01*
X63569980Y-46404743D01*
X63587540Y-46343793D01*
X63609191Y-46268639D01*
X63609567Y-46267380D01*
X63653257Y-46127177D01*
X63655174Y-46121883D01*
X63710051Y-45989399D01*
X63710737Y-45987810D01*
X63770325Y-45855410D01*
X63772620Y-45850823D01*
X63842430Y-45724512D01*
X63843532Y-45722607D01*
X63918224Y-45599051D01*
X63920710Y-45595261D01*
X64004437Y-45477259D01*
X64006178Y-45474925D01*
X64094931Y-45361640D01*
X64097475Y-45358601D01*
X64194042Y-45250542D01*
X64196370Y-45248080D01*
X64298080Y-45146370D01*
X64300542Y-45144042D01*
X64408601Y-45047475D01*
X64411640Y-45044931D01*
X64524925Y-44956178D01*
X64527259Y-44954437D01*
X64645261Y-44870710D01*
X64649051Y-44868224D01*
X64772607Y-44793532D01*
X64774512Y-44792430D01*
X64900823Y-44722620D01*
X64905410Y-44720325D01*
X65037810Y-44660737D01*
X65039399Y-44660051D01*
X65171883Y-44605174D01*
X65177177Y-44603257D01*
X65317380Y-44559567D01*
X65318639Y-44559191D01*
X65368095Y-44544943D01*
X65454750Y-44519978D01*
X65460816Y-44518552D01*
X65609601Y-44491285D01*
X65745641Y-44468171D01*
X65752373Y-44467397D01*
X65924399Y-44456992D01*
X66035202Y-44450769D01*
X66038238Y-44450599D01*
X66041771Y-44450500D01*
X70252560Y-44450500D01*
X70320681Y-44470502D01*
G37*
%TD.AperFunction*%
%TD*%
%TA.AperFunction,NonConductor*%
G36*
X86465721Y-49482602D02*
G01*
X86512214Y-49536258D01*
X86512316Y-49536730D01*
X86484435Y-49591452D01*
X86464614Y-49716600D01*
X86484435Y-49841748D01*
X86523600Y-49918613D01*
X86523600Y-50824600D01*
X86922379Y-50824600D01*
X86922400Y-50824598D01*
X87080233Y-50809527D01*
X87080248Y-50809524D01*
X87283277Y-50749910D01*
X87471354Y-50652949D01*
X87637685Y-50522144D01*
X87637691Y-50522139D01*
X87776256Y-50362225D01*
X87776257Y-50362224D01*
X87882054Y-50178977D01*
X87882058Y-50178968D01*
X87916530Y-50079370D01*
X87957712Y-50021538D01*
X88023623Y-49995151D01*
X88093336Y-50008587D01*
X88144719Y-50057580D01*
X88161600Y-50120580D01*
X88161600Y-50315197D01*
X88168105Y-50375693D01*
X88219155Y-50512564D01*
X88219155Y-50512565D01*
X88306695Y-50629504D01*
X88423634Y-50717044D01*
X88560506Y-50768094D01*
X88621002Y-50774599D01*
X88621015Y-50774600D01*
X88669600Y-50774600D01*
X88669600Y-50625392D01*
X88689602Y-50557271D01*
X88743258Y-50510778D01*
X88813532Y-50500674D01*
X88878112Y-50530168D01*
X88896468Y-50549883D01*
X88956338Y-50629861D01*
X89008320Y-50668773D01*
X89018228Y-50676191D01*
X89019109Y-50676850D01*
X89061656Y-50733685D01*
X89068913Y-50773914D01*
X89069599Y-50774600D01*
X89118185Y-50774600D01*
X89118192Y-50774599D01*
X89178773Y-50768085D01*
X89205714Y-50768085D01*
X89210397Y-50768588D01*
X89210399Y-50768589D01*
X89258726Y-50773784D01*
X89270952Y-50775099D01*
X89270953Y-50775099D01*
X89270962Y-50775100D01*
X89410100Y-50775100D01*
X89478221Y-50795102D01*
X89524714Y-50848758D01*
X89536100Y-50901100D01*
X89536100Y-53170990D01*
X89516098Y-53239111D01*
X89462442Y-53285604D01*
X89392168Y-53295708D01*
X89327588Y-53266214D01*
X89316464Y-53255300D01*
X89202955Y-53129235D01*
X89154673Y-53094157D01*
X89132437Y-53078001D01*
X89089084Y-53021780D01*
X89080499Y-52976071D01*
X89080499Y-51925456D01*
X89069887Y-51821574D01*
X89014115Y-51653262D01*
X88921030Y-51502348D01*
X88921027Y-51502345D01*
X88921024Y-51502341D01*
X88795658Y-51376975D01*
X88795652Y-51376970D01*
X88761666Y-51356007D01*
X88644738Y-51283885D01*
X88560581Y-51255998D01*
X88476427Y-51228113D01*
X88476420Y-51228112D01*
X88372553Y-51217500D01*
X87771455Y-51217500D01*
X87667574Y-51228112D01*
X87499261Y-51283885D01*
X87348347Y-51376970D01*
X87348341Y-51376975D01*
X87222971Y-51502345D01*
X87220511Y-51505457D01*
X87218281Y-51507035D01*
X87217780Y-51507537D01*
X87217694Y-51507451D01*
X87162568Y-51546483D01*
X87091643Y-51549671D01*
X87030254Y-51514008D01*
X87022837Y-51505446D01*
X87020632Y-51502657D01*
X86895345Y-51377370D01*
X86895339Y-51377365D01*
X86744525Y-51284342D01*
X86576321Y-51228606D01*
X86576318Y-51228605D01*
X86472516Y-51218000D01*
X86426000Y-51218000D01*
X86426000Y-52579000D01*
X86405998Y-52647121D01*
X86352342Y-52693614D01*
X86300000Y-52705000D01*
X85956100Y-52705000D01*
X85887979Y-52684998D01*
X85841486Y-52631342D01*
X85830100Y-52579000D01*
X85830100Y-52323000D01*
X85850102Y-52254879D01*
X85903758Y-52208386D01*
X85907409Y-52207591D01*
X85918000Y-52197000D01*
X85918000Y-51217999D01*
X85902164Y-51202163D01*
X85887979Y-51197998D01*
X85841486Y-51144342D01*
X85830100Y-51092000D01*
X85830100Y-50950600D01*
X85850102Y-50882479D01*
X85903758Y-50835986D01*
X85956100Y-50824600D01*
X86015600Y-50824600D01*
X86015600Y-49588600D01*
X86035602Y-49520479D01*
X86089258Y-49473986D01*
X86141600Y-49462600D01*
X86397600Y-49462600D01*
X86465721Y-49482602D01*
G37*
%TD.AperFunction*%
%TA.AperFunction,NonConductor*%
G36*
X102746121Y-60166002D02*
G01*
X102792614Y-60219658D01*
X102804000Y-60272000D01*
X102804000Y-61547000D01*
X102783998Y-61615121D01*
X102730342Y-61661614D01*
X102698440Y-61668553D01*
X102690474Y-61672999D01*
X102681154Y-61688110D01*
X102681153Y-61688113D01*
X102627257Y-61850758D01*
X102627255Y-61850770D01*
X102617000Y-61951147D01*
X102617000Y-61971000D01*
X103640500Y-61971000D01*
X103708621Y-61991002D01*
X103755114Y-62044658D01*
X103766500Y-62097000D01*
X103766500Y-62353000D01*
X103746498Y-62421121D01*
X103692842Y-62467614D01*
X103640500Y-62479000D01*
X102617000Y-62479000D01*
X102617000Y-62498852D01*
X102627255Y-62599229D01*
X102627257Y-62599241D01*
X102681152Y-62761884D01*
X102771110Y-62907729D01*
X102771113Y-62907733D01*
X102773931Y-62910551D01*
X102775247Y-62912961D01*
X102775662Y-62913486D01*
X102775572Y-62913556D01*
X102807957Y-62972863D01*
X102802892Y-63043678D01*
X102773942Y-63088731D01*
X102770721Y-63091952D01*
X102770715Y-63091959D01*
X102680698Y-63237898D01*
X102660779Y-63298011D01*
X102639565Y-63362034D01*
X102639561Y-63362045D01*
X102599147Y-63420416D01*
X102533590Y-63447672D01*
X102463705Y-63435159D01*
X102444447Y-63423280D01*
X102345965Y-63349556D01*
X102209093Y-63298506D01*
X102148597Y-63292001D01*
X102100000Y-63292001D01*
X102100000Y-63815499D01*
X102079998Y-63883620D01*
X102026342Y-63930113D01*
X101974000Y-63941499D01*
X101876000Y-63941499D01*
X101807879Y-63921497D01*
X101761386Y-63867841D01*
X101750000Y-63815499D01*
X101750000Y-63292001D01*
X101701402Y-63292001D01*
X101640906Y-63298506D01*
X101504035Y-63349556D01*
X101504034Y-63349556D01*
X101387097Y-63437095D01*
X101301180Y-63551866D01*
X101244344Y-63594412D01*
X101173528Y-63599476D01*
X101111216Y-63565451D01*
X101099444Y-63551866D01*
X101035913Y-63467000D01*
X101013261Y-63436740D01*
X101013259Y-63436739D01*
X101013259Y-63436738D01*
X100896207Y-63349113D01*
X100896202Y-63349111D01*
X100759204Y-63298012D01*
X100759196Y-63298010D01*
X100698649Y-63291501D01*
X100698638Y-63291501D01*
X100251362Y-63291501D01*
X100251350Y-63291501D01*
X100190804Y-63298010D01*
X100190800Y-63298011D01*
X100095502Y-63333556D01*
X100051470Y-63341500D01*
X99818100Y-63341500D01*
X99749979Y-63321498D01*
X99703486Y-63267842D01*
X99692100Y-63215500D01*
X99692100Y-62862062D01*
X99712102Y-62793941D01*
X99729005Y-62772967D01*
X99836811Y-62665160D01*
X99836816Y-62665155D01*
X99925827Y-62517913D01*
X99977013Y-62353649D01*
X99983500Y-62282265D01*
X99983499Y-61767736D01*
X99979192Y-61720335D01*
X99992948Y-61650685D01*
X100042177Y-61599528D01*
X100111248Y-61583107D01*
X100144305Y-61589330D01*
X100197572Y-61606981D01*
X100245567Y-61622885D01*
X100245568Y-61622885D01*
X100245574Y-61622887D01*
X100349455Y-61633500D01*
X100950544Y-61633499D01*
X101054426Y-61622887D01*
X101222738Y-61567115D01*
X101373652Y-61474030D01*
X101499030Y-61348652D01*
X101499037Y-61348639D01*
X101501478Y-61345554D01*
X101503709Y-61343973D01*
X101504220Y-61343463D01*
X101504307Y-61343550D01*
X101559416Y-61304521D01*
X101630340Y-61301324D01*
X101691734Y-61336980D01*
X101699161Y-61345551D01*
X101701369Y-61348344D01*
X101826654Y-61473629D01*
X101826660Y-61473634D01*
X101977474Y-61566657D01*
X102145678Y-61622393D01*
X102145681Y-61622394D01*
X102249483Y-61632999D01*
X102249483Y-61633000D01*
X102296000Y-61633000D01*
X102296000Y-60272000D01*
X102316002Y-60203879D01*
X102369658Y-60157386D01*
X102422000Y-60146000D01*
X102678000Y-60146000D01*
X102746121Y-60166002D01*
G37*
%TD.AperFunction*%
M02*
