%TF.GenerationSoftware,KiCad,Pcbnew,7.0.5*%
%TF.CreationDate,2023-10-04T06:58:16-05:00*%
%TF.ProjectId,dropkick,64726f70-6b69-4636-9b2e-6b696361645f,rev?*%
%TF.SameCoordinates,Original*%
%TF.FileFunction,Copper,L2,Bot*%
%TF.FilePolarity,Positive*%
%FSLAX46Y46*%
G04 Gerber Fmt 4.6, Leading zero omitted, Abs format (unit mm)*
G04 Created by KiCad (PCBNEW 7.0.5) date 2023-10-04 06:58:16*
%MOMM*%
%LPD*%
G01*
G04 APERTURE LIST*
%TA.AperFunction,ComponentPad*%
%ADD10C,3.200000*%
%TD*%
%TA.AperFunction,ComponentPad*%
%ADD11R,1.350000X1.350000*%
%TD*%
%TA.AperFunction,ComponentPad*%
%ADD12O,1.350000X1.350000*%
%TD*%
%TA.AperFunction,ComponentPad*%
%ADD13O,2.400000X1.200000*%
%TD*%
%TA.AperFunction,ComponentPad*%
%ADD14R,2.500000X2.500000*%
%TD*%
%TA.AperFunction,SMDPad,CuDef*%
%ADD15R,1.500000X0.700000*%
%TD*%
%TA.AperFunction,SMDPad,CuDef*%
%ADD16R,1.400000X1.800000*%
%TD*%
%TA.AperFunction,SMDPad,CuDef*%
%ADD17R,1.900000X1.400000*%
%TD*%
%TA.AperFunction,SMDPad,CuDef*%
%ADD18R,4.600000X1.000000*%
%TD*%
%TA.AperFunction,SMDPad,CuDef*%
%ADD19R,3.400000X1.600000*%
%TD*%
%TA.AperFunction,SMDPad,CuDef*%
%ADD20R,1.092200X2.006600*%
%TD*%
%TA.AperFunction,ComponentPad*%
%ADD21C,1.397000*%
%TD*%
%TA.AperFunction,SMDPad,CuDef*%
%ADD22R,0.650000X2.760000*%
%TD*%
%TA.AperFunction,SMDPad,CuDef*%
%ADD23R,0.650000X2.750000*%
%TD*%
%TA.AperFunction,ViaPad*%
%ADD24C,0.800000*%
%TD*%
%TA.AperFunction,Conductor*%
%ADD25C,0.250000*%
%TD*%
G04 APERTURE END LIST*
D10*
%TO.P,H2,P$1*%
%TO.N,N/C*%
X105410000Y-46990000D03*
%TD*%
D11*
%TO.P,J1,1,Pin_1*%
%TO.N,VBAT*%
X105600000Y-56400000D03*
D12*
%TO.P,J1,2,Pin_2*%
%TO.N,+3V3*%
X105600000Y-58400000D03*
%TO.P,J1,3,Pin_3*%
%TO.N,/~{RESET}*%
X105600000Y-60400000D03*
%TO.P,J1,4,Pin_4*%
%TO.N,/SWCLK*%
X105600000Y-62400000D03*
%TO.P,J1,5,Pin_5*%
%TO.N,/SWDIO*%
X105600000Y-64400000D03*
%TO.P,J1,6,Pin_6*%
%TO.N,/SCL*%
X105600000Y-66400000D03*
%TO.P,J1,7,Pin_7*%
%TO.N,/SDA*%
X105600000Y-68400000D03*
%TO.P,J1,8,Pin_8*%
%TO.N,GND*%
X105600000Y-70400000D03*
%TO.P,J1,9,Pin_9*%
%TO.N,/AREF*%
X105600000Y-72400000D03*
%TO.P,J1,10,Pin_10*%
%TO.N,/A0*%
X105600000Y-74400000D03*
%TO.P,J1,11,Pin_11*%
%TO.N,/A1*%
X105600000Y-76400000D03*
%TO.P,J1,12,Pin_12*%
%TO.N,/D0*%
X105600000Y-78400000D03*
%TO.P,J1,13,Pin_13*%
%TO.N,/D1*%
X105600000Y-80400000D03*
%TD*%
D10*
%TO.P,H1,P$1*%
%TO.N,N/C*%
X66040000Y-46990000D03*
%TD*%
%TO.P,H3,P$1*%
%TO.N,N/C*%
X66040000Y-92710000D03*
%TD*%
D13*
%TO.P,X1,SPRT@1,GND*%
%TO.N,GND*%
X94069600Y-49716600D03*
%TO.P,X1,SPRT@2,GND*%
X86269600Y-49716600D03*
D14*
%TO.P,X1,SPRT@3,GND*%
X93769600Y-46916600D03*
%TO.P,X1,SPRT@4,GND*%
X86569600Y-46916600D03*
%TD*%
D15*
%TO.P,X3,1,DAT2*%
%TO.N,unconnected-(X3-DAT2-Pad1)*%
X69500000Y-66800000D03*
%TO.P,X3,2,CS*%
%TO.N,/SD_CS*%
X69900000Y-67900000D03*
%TO.P,X3,3,DATA_IN*%
%TO.N,/MOSI*%
X69500000Y-69000000D03*
%TO.P,X3,4,SD_VDD*%
%TO.N,+3V3*%
X69100000Y-70100000D03*
%TO.P,X3,5,SCLK*%
%TO.N,/SCK*%
X69500000Y-71200000D03*
%TO.P,X3,6,GND@3*%
%TO.N,GND*%
X69100000Y-72300000D03*
%TO.P,X3,7,DATA_OUT*%
%TO.N,/MISO*%
X69500000Y-73400000D03*
%TO.P,X3,8,DAT1*%
%TO.N,unconnected-(X3-DAT1-Pad8)*%
X69500000Y-74500000D03*
D16*
%TO.P,X3,CD1,CARD_DETECT*%
%TO.N,/D7*%
X79700000Y-73800000D03*
%TO.P,X3,CD2,CARD_DETECT1*%
%TO.N,unconnected-(X3-CARD_DETECT1-PadCD2)*%
X79700000Y-67800000D03*
D17*
%TO.P,X3,MT1,GND@2*%
%TO.N,GND*%
X66600000Y-75400000D03*
%TO.P,X3,MT2,GND@1*%
X65700000Y-62200000D03*
%TD*%
D18*
%TO.P,X2,1,1*%
%TO.N,GND*%
X67350000Y-57550000D03*
%TO.P,X2,2,2*%
%TO.N,Net-(SW1-Pad2)*%
X67350000Y-55550000D03*
D19*
%TO.P,X2,NC1*%
%TO.N,N/C*%
X72550000Y-59950000D03*
%TO.P,X2,NC2*%
X72550000Y-53150000D03*
%TD*%
D20*
%TO.P,SW1,1,1*%
%TO.N,unconnected-(SW1-Pad1)*%
X71120000Y-49784000D03*
%TO.P,SW1,2,2*%
%TO.N,Net-(SW1-Pad2)*%
X73120001Y-49784000D03*
%TO.P,SW1,3,3*%
%TO.N,VBAT*%
X75120002Y-49784000D03*
D21*
%TO.P,SW1,4*%
%TO.N,N/C*%
X70994999Y-45683932D03*
%TO.P,SW1,5*%
X77244999Y-45683932D03*
%TD*%
D22*
%TO.P,J2,1*%
%TO.N,+3V3*%
X97028000Y-52580000D03*
%TO.P,J2,2*%
%TO.N,/SWDIO*%
X97028000Y-56640000D03*
%TO.P,J2,3*%
%TO.N,GND*%
X98298000Y-52580000D03*
D23*
%TO.P,J2,4*%
%TO.N,/SWCLK*%
X98298000Y-56640000D03*
D22*
%TO.P,J2,5*%
%TO.N,GND*%
X99568000Y-52580000D03*
%TO.P,J2,6*%
%TO.N,unconnected-(J2-Pad6)*%
X99568000Y-56640000D03*
%TO.P,J2,7*%
%TO.N,unconnected-(J2-Pad7)*%
X100838000Y-52580000D03*
%TO.P,J2,8*%
%TO.N,unconnected-(J2-Pad8)*%
X100838000Y-56640000D03*
%TO.P,J2,9*%
%TO.N,GND*%
X102108000Y-52580000D03*
%TO.P,J2,10*%
%TO.N,/~{RESET}*%
X102108000Y-56640000D03*
%TD*%
D24*
%TO.N,/VBACKUP*%
X77625500Y-82169000D03*
X80900000Y-88700000D03*
%TO.N,GND*%
X83820000Y-50800000D03*
X80391000Y-65532000D03*
X99949000Y-50292000D03*
X80949200Y-49716600D03*
X69391000Y-58654300D03*
X103574613Y-59923902D03*
X67933900Y-74075900D03*
X77625500Y-61976000D03*
%TO.N,/AREF*%
X86140900Y-65053700D03*
%TO.N,+3V3*%
X83566000Y-80899000D03*
X94000000Y-55900000D03*
X68917100Y-75449502D03*
X90100000Y-75800000D03*
X67735500Y-69987500D03*
X84010500Y-89598500D03*
%TO.N,VBUS*%
X93100000Y-54400000D03*
X85812299Y-54687701D03*
%TO.N,VBAT*%
X88591700Y-53808100D03*
X103715200Y-51247000D03*
X81718400Y-68654000D03*
%TO.N,/D13*%
X102561100Y-49086000D03*
X98571600Y-66973700D03*
%TO.N,/SCL*%
X99058600Y-63975000D03*
X80081500Y-55094200D03*
X81103700Y-56508200D03*
%TO.N,/SDA*%
X79306100Y-54136700D03*
X98885950Y-65198050D03*
X81261100Y-57560800D03*
X103550000Y-66360000D03*
%TO.N,/D1*%
X87600000Y-74400000D03*
%TO.N,/D0*%
X88672900Y-74308900D03*
%TO.N,/MISO*%
X92850000Y-72025900D03*
%TO.N,/MOSI*%
X90947600Y-68981200D03*
%TO.N,/SCK*%
X92659800Y-69420100D03*
%TO.N,/A1*%
X86129300Y-67148000D03*
%TO.N,/A0*%
X88786600Y-65578700D03*
%TO.N,/~{RESET}*%
X92800000Y-58200000D03*
X96089500Y-56241800D03*
%TO.N,/SWCLK*%
X91200000Y-59975500D03*
%TO.N,/SWDIO*%
X90200000Y-59600000D03*
%TO.N,/SD_CS*%
X88770600Y-69434700D03*
%TO.N,/D7*%
X94228900Y-68399200D03*
%TO.N,/INT*%
X90678000Y-66303200D03*
X80993900Y-60579000D03*
X73533000Y-58293000D03*
X83058000Y-60579000D03*
%TD*%
D25*
%TO.N,/VBACKUP*%
X77625500Y-82705500D02*
X77978000Y-83058000D01*
X77978000Y-85778000D02*
X77978000Y-83058000D01*
X80900000Y-88700000D02*
X77978000Y-85778000D01*
X77625500Y-82169000D02*
X77625500Y-82705500D01*
%TO.N,GND*%
X67350000Y-57550000D02*
X69975300Y-57550000D01*
X99568000Y-52580000D02*
X99568000Y-50673000D01*
X69100000Y-72300000D02*
X68024700Y-72300000D01*
X86869600Y-49716600D02*
X80949200Y-49716600D01*
X103574613Y-59923902D02*
X103973100Y-59525415D01*
X67416400Y-73558400D02*
X67416400Y-72908300D01*
X67416300Y-73558400D02*
X66600000Y-74374700D01*
X100875000Y-50292000D02*
X102108000Y-51525000D01*
X69975300Y-58198000D02*
X69975300Y-57550000D01*
X67416400Y-73558400D02*
X67416300Y-73558400D01*
X103973100Y-56150400D02*
X102108000Y-54285300D01*
X66600000Y-75400000D02*
X66600000Y-74374700D01*
X67416400Y-72908300D02*
X68024700Y-72300000D01*
X68220400Y-58654300D02*
X69391000Y-58654300D01*
X99568000Y-50673000D02*
X99949000Y-50292000D01*
X67933900Y-74075900D02*
X67416400Y-73558400D01*
X102108000Y-54285300D02*
X102108000Y-52580000D01*
X69391000Y-58654300D02*
X69519000Y-58654300D01*
X102108000Y-51525000D02*
X102108000Y-52580000D01*
X65700000Y-62200000D02*
X65700000Y-61174700D01*
X103973100Y-59525415D02*
X103973100Y-56150400D01*
X98298000Y-52580000D02*
X99568000Y-52580000D01*
X65700000Y-61174700D02*
X68220400Y-58654300D01*
X69519000Y-58654300D02*
X69975300Y-58198000D01*
X93469600Y-49716600D02*
X86869600Y-49716600D01*
X99949000Y-50292000D02*
X100875000Y-50292000D01*
%TO.N,/AREF*%
X86140900Y-65053700D02*
X86350000Y-64844600D01*
X95416800Y-64844600D02*
X101532200Y-70960000D01*
X86350000Y-64844600D02*
X95416800Y-64844600D01*
X104160000Y-70960000D02*
X105600000Y-72400000D01*
X101532200Y-70960000D02*
X104160000Y-70960000D01*
%TO.N,+3V3*%
X87874604Y-75311000D02*
X88089103Y-75525499D01*
X69100000Y-70100000D02*
X68024700Y-70100000D01*
X67735500Y-69987500D02*
X67912200Y-69987500D01*
X95883000Y-52580000D02*
X97028000Y-52580000D01*
X84010500Y-89598500D02*
X83947000Y-89662000D01*
X83312000Y-75311000D02*
X87874604Y-75311000D01*
X83566000Y-89662000D02*
X83566000Y-80899000D01*
X95758000Y-54142000D02*
X95758000Y-52705000D01*
X83400000Y-75399000D02*
X83312000Y-75311000D01*
X83400000Y-80733000D02*
X83400000Y-75399000D01*
X95758000Y-52705000D02*
X95883000Y-52580000D01*
X83566000Y-80899000D02*
X83400000Y-80733000D01*
X68917100Y-75555100D02*
X68917100Y-75449502D01*
X69092599Y-75625001D02*
X81727999Y-75625001D01*
X89825499Y-75525499D02*
X90100000Y-75800000D01*
X88089103Y-75525499D02*
X89825499Y-75525499D01*
X68917100Y-75449502D02*
X69092599Y-75625001D01*
X81727999Y-75625001D02*
X82042000Y-75311000D01*
X67912200Y-69987500D02*
X68024700Y-70100000D01*
X82042000Y-75311000D02*
X83312000Y-75311000D01*
X83947000Y-89662000D02*
X83566000Y-89662000D01*
X94000000Y-55900000D02*
X95758000Y-54142000D01*
%TO.N,VBUS*%
X92600000Y-54900000D02*
X86024598Y-54900000D01*
X93100000Y-54400000D02*
X92600000Y-54900000D01*
X86024598Y-54900000D02*
X85812299Y-54687701D01*
%TO.N,VBAT*%
X81718400Y-59112400D02*
X81718400Y-68654000D01*
X96483000Y-49567000D02*
X100249305Y-49567000D01*
X88591700Y-53343600D02*
X81657400Y-53343600D01*
X88591700Y-53808100D02*
X88591700Y-53343600D01*
X96362300Y-49657000D02*
X96393000Y-49657000D01*
X75120000Y-49784000D02*
X75120000Y-51112600D01*
X100493305Y-49811000D02*
X102279200Y-49811000D01*
X81657400Y-53343600D02*
X78580800Y-53343600D01*
X92675700Y-53343600D02*
X96362300Y-49657000D01*
X79073895Y-53343600D02*
X78581100Y-53836395D01*
X88591700Y-53343600D02*
X92675700Y-53343600D01*
X102279200Y-49811000D02*
X103715200Y-51247000D01*
X77351000Y-53343600D02*
X75120000Y-51112600D01*
X96393000Y-49657000D02*
X96483000Y-49567000D01*
X78580800Y-53343600D02*
X77351000Y-53343600D01*
X78581100Y-55975100D02*
X81718400Y-59112400D01*
X100249305Y-49567000D02*
X100493305Y-49811000D01*
X78581100Y-53836395D02*
X78581100Y-55975100D01*
X81657400Y-53343600D02*
X79073895Y-53343600D01*
%TO.N,/D13*%
X106875400Y-53347700D02*
X106875400Y-68735610D01*
X104200000Y-68414214D02*
X104200000Y-68363604D01*
X98771500Y-66773800D02*
X98571600Y-66973700D01*
X102561100Y-49086000D02*
X102613700Y-49086000D01*
X106875400Y-68735610D02*
X106211010Y-69400000D01*
X105185786Y-69400000D02*
X104200000Y-68414214D01*
X102610196Y-66773800D02*
X98771500Y-66773800D01*
X104200000Y-68363604D02*
X102610196Y-66773800D01*
X102613700Y-49086000D02*
X106875400Y-53347700D01*
X106211010Y-69400000D02*
X105185786Y-69400000D01*
%TO.N,/SCL*%
X88709000Y-61150000D02*
X84067200Y-56508200D01*
X96233600Y-61150000D02*
X88709000Y-61150000D01*
X104400000Y-66184695D02*
X104400000Y-66400000D01*
X102190305Y-63975000D02*
X104400000Y-66184695D01*
X104400000Y-66400000D02*
X105600000Y-66400000D01*
X80081500Y-55486000D02*
X81103700Y-56508200D01*
X84067200Y-56508200D02*
X81103700Y-56508200D01*
X99058600Y-63975000D02*
X96233600Y-61150000D01*
X80081500Y-55094200D02*
X80081500Y-55486000D01*
X99058600Y-63975000D02*
X102190305Y-63975000D01*
%TO.N,/SDA*%
X81075100Y-57560800D02*
X81261100Y-57560800D01*
X103560000Y-66360000D02*
X105600000Y-68400000D01*
X98885950Y-65198050D02*
X95287900Y-61600000D01*
X103550000Y-66340000D02*
X103550000Y-66360000D01*
X98885950Y-65198050D02*
X99326000Y-65638100D01*
X102868100Y-65678100D02*
X103550000Y-66360000D01*
X103550000Y-66360000D02*
X103560000Y-66360000D01*
X79306100Y-55791800D02*
X81075100Y-57560800D01*
X84357800Y-57560800D02*
X81261100Y-57560800D01*
X88397000Y-61600000D02*
X84357800Y-57560800D01*
X102868100Y-65638100D02*
X102868100Y-65678100D01*
X79306100Y-54136700D02*
X79306100Y-55791800D01*
X99326000Y-65638100D02*
X102868100Y-65638100D01*
X95287900Y-61600000D02*
X88397000Y-61600000D01*
%TO.N,/D1*%
X88275499Y-75075499D02*
X100275499Y-75075499D01*
X87600000Y-74400000D02*
X88275499Y-75075499D01*
X100275499Y-75075499D02*
X105600000Y-80400000D01*
%TO.N,/D0*%
X88672900Y-74308900D02*
X98408900Y-74308900D01*
X98417800Y-74300000D02*
X101500000Y-74300000D01*
X101500000Y-74300000D02*
X105600000Y-78400000D01*
X98408900Y-74308900D02*
X98417800Y-74300000D01*
%TO.N,/MISO*%
X81402496Y-75061800D02*
X77361800Y-75061800D01*
X77361800Y-75061800D02*
X75100000Y-72800000D01*
X75100000Y-72800000D02*
X70500000Y-72800000D01*
X70500000Y-72800000D02*
X69900000Y-73400000D01*
X81603296Y-74861000D02*
X81402496Y-75061800D01*
X87390795Y-73583900D02*
X86113695Y-74861000D01*
X92850000Y-72025900D02*
X91017000Y-73858900D01*
X88973205Y-73583900D02*
X87390795Y-73583900D01*
X91017000Y-73858900D02*
X89248205Y-73858900D01*
X89248205Y-73858900D02*
X88973205Y-73583900D01*
X86113695Y-74861000D02*
X81603296Y-74861000D01*
%TO.N,/MOSI*%
X70575300Y-69000000D02*
X71748600Y-70173300D01*
X69500000Y-69000000D02*
X70575300Y-69000000D01*
X89755500Y-70173300D02*
X90947600Y-68981200D01*
X71748600Y-70173300D02*
X89755500Y-70173300D01*
%TO.N,/SCK*%
X92659800Y-69420100D02*
X90879900Y-71200000D01*
X90879900Y-71200000D02*
X69500000Y-71200000D01*
%TO.N,/A1*%
X95428000Y-67148000D02*
X103680000Y-75400000D01*
X104600000Y-75400000D02*
X105600000Y-76400000D01*
X103680000Y-75400000D02*
X104600000Y-75400000D01*
X86129300Y-67148000D02*
X95428000Y-67148000D01*
%TO.N,/A0*%
X94656700Y-65578700D02*
X102578000Y-73500000D01*
X88786600Y-65578700D02*
X94656700Y-65578700D01*
X102578000Y-73500000D02*
X104700000Y-73500000D01*
X104700000Y-73500000D02*
X105600000Y-74400000D01*
%TO.N,/~{RESET}*%
X96577700Y-54735300D02*
X101288300Y-54735300D01*
X102108000Y-59508000D02*
X102108000Y-56640000D01*
X94131300Y-58200000D02*
X96089500Y-56241800D01*
X101288300Y-54735300D02*
X102108000Y-55555000D01*
X96089500Y-56241800D02*
X96089500Y-55223500D01*
X92800000Y-58200000D02*
X94131300Y-58200000D01*
X104600000Y-61400000D02*
X104000000Y-61400000D01*
X102108000Y-55555000D02*
X102108000Y-56640000D01*
X96089500Y-55223500D02*
X96577700Y-54735300D01*
X105600000Y-60400000D02*
X104600000Y-61400000D01*
X104000000Y-61400000D02*
X102108000Y-59508000D01*
%TO.N,/SWCLK*%
X96930400Y-59707900D02*
X97619150Y-59019150D01*
X97638300Y-59000000D02*
X97619150Y-59019150D01*
X97619150Y-59019150D02*
X98298000Y-58340300D01*
X101544296Y-59707900D02*
X96930400Y-59707900D01*
X98298000Y-56640000D02*
X98298000Y-57690000D01*
X98298000Y-58340300D02*
X98298000Y-56640000D01*
X91200000Y-59975500D02*
X91467600Y-59707900D01*
X91467600Y-59707900D02*
X96930400Y-59707900D01*
X105600000Y-62400000D02*
X104236396Y-62400000D01*
X104236396Y-62400000D02*
X101544296Y-59707900D01*
%TO.N,/SWDIO*%
X90317795Y-60700000D02*
X101900000Y-60700000D01*
X90200000Y-60582205D02*
X90317795Y-60700000D01*
X90200000Y-59600000D02*
X90600000Y-59200000D01*
X90600000Y-59200000D02*
X96173300Y-59200000D01*
X90200000Y-59600000D02*
X90200000Y-60582205D01*
X101900000Y-60700000D02*
X105600000Y-64400000D01*
X97028000Y-58345300D02*
X97028000Y-56640000D01*
X96173300Y-59200000D02*
X97028000Y-58345300D01*
%TO.N,/SD_CS*%
X70975300Y-67900000D02*
X72510000Y-69434700D01*
X69900000Y-67900000D02*
X70975300Y-67900000D01*
X72510000Y-69434700D02*
X88770600Y-69434700D01*
%TO.N,/D7*%
X87204399Y-73133900D02*
X85927299Y-74411000D01*
X80725300Y-73800000D02*
X79700000Y-73800000D01*
X81416900Y-74411000D02*
X81376600Y-74451300D01*
X85927299Y-74411000D02*
X81416900Y-74411000D01*
X89707000Y-73408900D02*
X89434601Y-73408900D01*
X89434601Y-73408900D02*
X89159601Y-73133900D01*
X89159601Y-73133900D02*
X87204399Y-73133900D01*
X81376600Y-74451300D02*
X80725300Y-73800000D01*
X94228900Y-68399200D02*
X94228900Y-68887000D01*
X94228900Y-68887000D02*
X89707000Y-73408900D01*
%TO.N,Net-(SW1-Pad2)*%
X73120000Y-51112600D02*
X71550600Y-51112600D01*
X69975300Y-52687900D02*
X69975300Y-55550000D01*
X71550600Y-51112600D02*
X69975300Y-52687900D01*
X67350000Y-55550000D02*
X69975300Y-55550000D01*
X73120000Y-49784000D02*
X73120000Y-51112600D01*
%TO.N,/INT*%
X76835000Y-59944000D02*
X77470000Y-60579000D01*
X75184000Y-58293000D02*
X76835000Y-59944000D01*
X77470000Y-60579000D02*
X80899000Y-60579000D01*
X86365095Y-66303200D02*
X83058000Y-62996105D01*
X83058000Y-62996105D02*
X83058000Y-60706000D01*
X90678000Y-66303200D02*
X86365095Y-66303200D01*
X73533000Y-58293000D02*
X75184000Y-58293000D01*
X83058000Y-60706000D02*
X83058000Y-60579000D01*
%TD*%
%TA.AperFunction,Conductor*%
%TO.N,GND*%
G36*
X90150425Y-71853502D02*
G01*
X90196918Y-71907158D01*
X90207022Y-71977432D01*
X90177528Y-72042012D01*
X90171399Y-72048596D01*
X89648264Y-72571729D01*
X89585952Y-72605754D01*
X89515136Y-72600689D01*
X89491829Y-72587702D01*
X89491464Y-72588321D01*
X89484643Y-72584287D01*
X89484642Y-72584286D01*
X89455624Y-72571729D01*
X89441341Y-72565548D01*
X89436009Y-72562936D01*
X89394662Y-72540205D01*
X89375037Y-72535166D01*
X89356337Y-72528764D01*
X89337746Y-72520719D01*
X89337744Y-72520718D01*
X89337743Y-72520718D01*
X89291143Y-72513337D01*
X89285330Y-72512133D01*
X89239631Y-72500400D01*
X89219377Y-72500400D01*
X89199667Y-72498849D01*
X89179658Y-72495680D01*
X89179657Y-72495680D01*
X89132684Y-72500120D01*
X89126751Y-72500400D01*
X87288252Y-72500400D01*
X87272410Y-72498650D01*
X87272383Y-72498944D01*
X87264490Y-72498198D01*
X87195423Y-72500369D01*
X87193444Y-72500400D01*
X87164543Y-72500400D01*
X87164539Y-72500400D01*
X87164529Y-72500401D01*
X87157578Y-72501279D01*
X87151666Y-72501744D01*
X87104511Y-72503226D01*
X87104509Y-72503227D01*
X87085054Y-72508878D01*
X87065701Y-72512886D01*
X87045609Y-72515424D01*
X87045601Y-72515426D01*
X87001735Y-72532793D01*
X86996120Y-72534716D01*
X86950806Y-72547882D01*
X86933363Y-72558197D01*
X86915617Y-72566890D01*
X86896781Y-72574348D01*
X86858608Y-72602081D01*
X86853647Y-72605340D01*
X86813037Y-72629358D01*
X86798710Y-72643684D01*
X86783684Y-72656517D01*
X86767294Y-72668425D01*
X86767292Y-72668427D01*
X86737207Y-72704792D01*
X86733211Y-72709183D01*
X85701799Y-73740595D01*
X85639487Y-73774620D01*
X85612704Y-73777500D01*
X81650895Y-73777500D01*
X81582774Y-73757498D01*
X81561800Y-73740595D01*
X81232544Y-73411339D01*
X81222579Y-73398901D01*
X81222352Y-73399090D01*
X81217301Y-73392984D01*
X81217300Y-73392982D01*
X81166926Y-73345678D01*
X81165537Y-73344332D01*
X81155290Y-73334085D01*
X81145076Y-73323870D01*
X81145072Y-73323866D01*
X81139525Y-73319563D01*
X81135017Y-73315712D01*
X81100625Y-73283417D01*
X81100619Y-73283413D01*
X81082863Y-73273651D01*
X81066347Y-73262802D01*
X81050341Y-73250386D01*
X81019589Y-73237078D01*
X81007040Y-73231648D01*
X81001707Y-73229035D01*
X80973799Y-73213693D01*
X80923741Y-73163348D01*
X80908500Y-73103278D01*
X80908500Y-72851367D01*
X80908499Y-72851350D01*
X80901990Y-72790803D01*
X80901988Y-72790795D01*
X80863176Y-72686739D01*
X80850889Y-72653796D01*
X80850888Y-72653794D01*
X80850887Y-72653792D01*
X80763261Y-72536738D01*
X80646207Y-72449112D01*
X80646202Y-72449110D01*
X80509204Y-72398011D01*
X80509196Y-72398009D01*
X80448649Y-72391500D01*
X80448638Y-72391500D01*
X78951362Y-72391500D01*
X78951350Y-72391500D01*
X78890803Y-72398009D01*
X78890795Y-72398011D01*
X78753797Y-72449110D01*
X78753792Y-72449112D01*
X78636738Y-72536738D01*
X78549112Y-72653792D01*
X78549110Y-72653797D01*
X78498011Y-72790795D01*
X78498009Y-72790803D01*
X78491500Y-72851350D01*
X78491500Y-74302300D01*
X78471498Y-74370421D01*
X78417842Y-74416914D01*
X78365500Y-74428300D01*
X77676395Y-74428300D01*
X77608274Y-74408298D01*
X77587300Y-74391395D01*
X75607244Y-72411339D01*
X75597279Y-72398901D01*
X75597052Y-72399090D01*
X75592001Y-72392984D01*
X75592000Y-72392982D01*
X75541626Y-72345678D01*
X75540237Y-72344332D01*
X75529990Y-72334085D01*
X75519776Y-72323870D01*
X75519772Y-72323866D01*
X75514225Y-72319563D01*
X75509717Y-72315712D01*
X75475325Y-72283417D01*
X75475319Y-72283413D01*
X75457563Y-72273651D01*
X75441047Y-72262802D01*
X75425041Y-72250386D01*
X75394289Y-72237078D01*
X75381740Y-72231648D01*
X75376408Y-72229036D01*
X75335061Y-72206305D01*
X75315436Y-72201266D01*
X75296736Y-72194864D01*
X75278145Y-72186819D01*
X75278143Y-72186818D01*
X75278142Y-72186818D01*
X75231542Y-72179437D01*
X75225729Y-72178233D01*
X75180030Y-72166500D01*
X75159776Y-72166500D01*
X75140066Y-72164949D01*
X75120057Y-72161780D01*
X75120056Y-72161780D01*
X75073083Y-72166220D01*
X75067150Y-72166500D01*
X70653543Y-72166500D01*
X70585422Y-72146498D01*
X70538929Y-72092842D01*
X70528825Y-72022568D01*
X70558319Y-71957988D01*
X70578034Y-71939632D01*
X70588804Y-71931569D01*
X70613261Y-71913261D01*
X70635171Y-71883991D01*
X70692006Y-71841445D01*
X70736040Y-71833500D01*
X90082304Y-71833500D01*
X90150425Y-71853502D01*
G37*
%TD.AperFunction*%
%TA.AperFunction,Conductor*%
G36*
X95262196Y-67878151D02*
G01*
X95264367Y-67880271D01*
X100835501Y-73451405D01*
X100869527Y-73513717D01*
X100864462Y-73584532D01*
X100821915Y-73641368D01*
X100755395Y-73666179D01*
X100746406Y-73666500D01*
X98501654Y-73666500D01*
X98485812Y-73664750D01*
X98485785Y-73665044D01*
X98477892Y-73664297D01*
X98408813Y-73666469D01*
X98406834Y-73666500D01*
X98377944Y-73666500D01*
X98377940Y-73666500D01*
X98377929Y-73666501D01*
X98370990Y-73667377D01*
X98365077Y-73667843D01*
X98317911Y-73669325D01*
X98317909Y-73669326D01*
X98314224Y-73670397D01*
X98279071Y-73675400D01*
X92400594Y-73675400D01*
X92332473Y-73655398D01*
X92285980Y-73601742D01*
X92275876Y-73531468D01*
X92305370Y-73466888D01*
X92311499Y-73460305D01*
X92800499Y-72971305D01*
X92862811Y-72937279D01*
X92889594Y-72934400D01*
X92945487Y-72934400D01*
X93132288Y-72894694D01*
X93306752Y-72817018D01*
X93461253Y-72704766D01*
X93507150Y-72653792D01*
X93589034Y-72562851D01*
X93589035Y-72562849D01*
X93589040Y-72562844D01*
X93684527Y-72397456D01*
X93743542Y-72215828D01*
X93763504Y-72025900D01*
X93743542Y-71835972D01*
X93684527Y-71654344D01*
X93589040Y-71488956D01*
X93589038Y-71488954D01*
X93589034Y-71488948D01*
X93461255Y-71347035D01*
X93306752Y-71234782D01*
X93132287Y-71157105D01*
X93130350Y-71156694D01*
X93129334Y-71156145D01*
X93126008Y-71155065D01*
X93126205Y-71154456D01*
X93067876Y-71122966D01*
X93033555Y-71060817D01*
X93038282Y-70989978D01*
X93067449Y-70944354D01*
X94617557Y-69394245D01*
X94629992Y-69384284D01*
X94629805Y-69384057D01*
X94635916Y-69379001D01*
X94635915Y-69379001D01*
X94635918Y-69379000D01*
X94683252Y-69328592D01*
X94684567Y-69327235D01*
X94705034Y-69306770D01*
X94709329Y-69301232D01*
X94713171Y-69296731D01*
X94745486Y-69262321D01*
X94755245Y-69244567D01*
X94766097Y-69228046D01*
X94778513Y-69212041D01*
X94797247Y-69168748D01*
X94799861Y-69163412D01*
X94808611Y-69147496D01*
X94822595Y-69122060D01*
X94823695Y-69117774D01*
X94852101Y-69064797D01*
X94967934Y-68936151D01*
X94967935Y-68936149D01*
X94967940Y-68936144D01*
X95063427Y-68770756D01*
X95122442Y-68589128D01*
X95142404Y-68399200D01*
X95122442Y-68209272D01*
X95063427Y-68027644D01*
X95063420Y-68027633D01*
X95060740Y-68021610D01*
X95063276Y-68020480D01*
X95049413Y-67963407D01*
X95072614Y-67896308D01*
X95128409Y-67852405D01*
X95199082Y-67845636D01*
X95262196Y-67878151D01*
G37*
%TD.AperFunction*%
%TA.AperFunction,Conductor*%
G36*
X102363723Y-67427302D02*
G01*
X102384697Y-67444205D01*
X103607657Y-68667165D01*
X103635712Y-68709872D01*
X103640445Y-68721825D01*
X103640450Y-68721834D01*
X103668177Y-68759997D01*
X103671437Y-68764960D01*
X103695460Y-68805579D01*
X103709779Y-68819898D01*
X103722617Y-68834928D01*
X103732156Y-68848057D01*
X103734528Y-68851321D01*
X103746644Y-68861344D01*
X103770886Y-68881399D01*
X103775267Y-68885385D01*
X104186602Y-69296720D01*
X104550564Y-69660682D01*
X104584590Y-69722994D01*
X104579525Y-69793809D01*
X104574260Y-69805939D01*
X104492159Y-69970821D01*
X104492159Y-69970822D01*
X104432160Y-70181695D01*
X104428226Y-70224148D01*
X104402023Y-70290132D01*
X104344306Y-70331475D01*
X104273400Y-70335051D01*
X104271431Y-70334562D01*
X104240030Y-70326500D01*
X104219776Y-70326500D01*
X104200066Y-70324949D01*
X104180057Y-70321780D01*
X104180056Y-70321780D01*
X104133083Y-70326220D01*
X104127150Y-70326500D01*
X101846794Y-70326500D01*
X101778673Y-70306498D01*
X101757699Y-70289595D01*
X99237939Y-67769834D01*
X99203913Y-67707522D01*
X99208978Y-67636706D01*
X99233397Y-67596430D01*
X99302616Y-67519556D01*
X99310634Y-67510651D01*
X99310634Y-67510650D01*
X99310640Y-67510644D01*
X99333933Y-67470298D01*
X99385316Y-67421306D01*
X99443052Y-67407300D01*
X102295602Y-67407300D01*
X102363723Y-67427302D01*
G37*
%TD.AperFunction*%
%TA.AperFunction,Conductor*%
G36*
X101653527Y-61353502D02*
G01*
X101674501Y-61370405D01*
X104394424Y-64090328D01*
X104428450Y-64152640D01*
X104430792Y-64191048D01*
X104421161Y-64294986D01*
X104412393Y-64389616D01*
X104411430Y-64400004D01*
X104431667Y-64618393D01*
X104431667Y-64618397D01*
X104491688Y-64829353D01*
X104491690Y-64829358D01*
X104491691Y-64829361D01*
X104589457Y-65025701D01*
X104589458Y-65025702D01*
X104721637Y-65200736D01*
X104838077Y-65306885D01*
X104874944Y-65367559D01*
X104873155Y-65438533D01*
X104838078Y-65493115D01*
X104804707Y-65523537D01*
X104740890Y-65554648D01*
X104670384Y-65546318D01*
X104630726Y-65519517D01*
X102697550Y-63586340D01*
X102687588Y-63573904D01*
X102687361Y-63574093D01*
X102682307Y-63567984D01*
X102631947Y-63520694D01*
X102630524Y-63519315D01*
X102610085Y-63498875D01*
X102610084Y-63498874D01*
X102610075Y-63498865D01*
X102604530Y-63494563D01*
X102600021Y-63490711D01*
X102565630Y-63458417D01*
X102565624Y-63458413D01*
X102547868Y-63448651D01*
X102531352Y-63437802D01*
X102515346Y-63425386D01*
X102475169Y-63408000D01*
X102472045Y-63406648D01*
X102466713Y-63404036D01*
X102425366Y-63381305D01*
X102405741Y-63376266D01*
X102387041Y-63369864D01*
X102376681Y-63365381D01*
X102368450Y-63361819D01*
X102368448Y-63361818D01*
X102368447Y-63361818D01*
X102321847Y-63354437D01*
X102316034Y-63353233D01*
X102270335Y-63341500D01*
X102250081Y-63341500D01*
X102230371Y-63339949D01*
X102210362Y-63336780D01*
X102210361Y-63336780D01*
X102163388Y-63341220D01*
X102157455Y-63341500D01*
X99766800Y-63341500D01*
X99698679Y-63321498D01*
X99673163Y-63299810D01*
X99669852Y-63296133D01*
X99515352Y-63183882D01*
X99340888Y-63106206D01*
X99154087Y-63066500D01*
X99098195Y-63066500D01*
X99030074Y-63046498D01*
X99009100Y-63029595D01*
X97528100Y-61548595D01*
X97494074Y-61486283D01*
X97499139Y-61415468D01*
X97541686Y-61358632D01*
X97608206Y-61333821D01*
X97617195Y-61333500D01*
X101585406Y-61333500D01*
X101653527Y-61353502D01*
G37*
%TD.AperFunction*%
%TA.AperFunction,Conductor*%
G36*
X104478582Y-51866986D02*
G01*
X104529885Y-51898090D01*
X106204995Y-53573199D01*
X106239020Y-53635511D01*
X106241900Y-53662294D01*
X106241900Y-55090500D01*
X106221898Y-55158621D01*
X106168242Y-55205114D01*
X106115900Y-55216500D01*
X104876350Y-55216500D01*
X104815803Y-55223009D01*
X104815795Y-55223011D01*
X104678797Y-55274110D01*
X104678792Y-55274112D01*
X104561738Y-55361738D01*
X104474112Y-55478792D01*
X104474110Y-55478797D01*
X104423011Y-55615795D01*
X104423009Y-55615803D01*
X104416500Y-55676350D01*
X104416500Y-57123649D01*
X104423009Y-57184196D01*
X104423011Y-57184204D01*
X104474110Y-57321202D01*
X104474112Y-57321207D01*
X104561738Y-57438261D01*
X104640271Y-57497050D01*
X104682818Y-57553886D01*
X104687882Y-57624702D01*
X104665312Y-57673850D01*
X104589458Y-57774297D01*
X104491691Y-57970639D01*
X104491688Y-57970646D01*
X104431667Y-58181602D01*
X104431667Y-58181606D01*
X104411430Y-58399995D01*
X104411430Y-58400004D01*
X104431667Y-58618393D01*
X104431667Y-58618397D01*
X104491688Y-58829353D01*
X104491690Y-58829358D01*
X104491691Y-58829361D01*
X104589457Y-59025701D01*
X104600862Y-59040803D01*
X104721634Y-59200733D01*
X104838077Y-59306885D01*
X104874943Y-59367559D01*
X104873154Y-59438534D01*
X104838077Y-59493115D01*
X104721634Y-59599266D01*
X104589458Y-59774297D01*
X104491691Y-59970639D01*
X104491688Y-59970646D01*
X104431667Y-60181602D01*
X104431667Y-60181606D01*
X104411430Y-60399994D01*
X104411430Y-60399997D01*
X104411430Y-60400000D01*
X104421833Y-60512263D01*
X104430792Y-60608949D01*
X104417160Y-60678625D01*
X104394424Y-60709670D01*
X104389094Y-60715000D01*
X104326782Y-60749026D01*
X104255967Y-60743961D01*
X104210904Y-60715000D01*
X103501376Y-60005472D01*
X102778405Y-59282500D01*
X102744379Y-59220188D01*
X102741500Y-59193405D01*
X102741500Y-58487325D01*
X102761502Y-58419204D01*
X102791993Y-58386455D01*
X102796261Y-58383261D01*
X102883889Y-58266204D01*
X102934989Y-58129201D01*
X102938281Y-58098585D01*
X102941499Y-58068649D01*
X102941500Y-58068632D01*
X102941500Y-55211367D01*
X102941499Y-55211350D01*
X102934990Y-55150803D01*
X102934988Y-55150795D01*
X102900845Y-55059257D01*
X102883889Y-55013796D01*
X102883888Y-55013794D01*
X102883887Y-55013792D01*
X102796261Y-54896738D01*
X102679207Y-54809112D01*
X102679202Y-54809110D01*
X102542204Y-54758011D01*
X102542196Y-54758009D01*
X102481649Y-54751500D01*
X102481638Y-54751500D01*
X102252594Y-54751500D01*
X102184473Y-54731498D01*
X102163499Y-54714595D01*
X102131999Y-54683095D01*
X102097973Y-54620783D01*
X102103038Y-54549968D01*
X102145585Y-54493132D01*
X102212105Y-54468321D01*
X102221094Y-54468000D01*
X102481585Y-54468000D01*
X102481597Y-54467999D01*
X102542093Y-54461494D01*
X102678964Y-54410444D01*
X102678965Y-54410444D01*
X102795904Y-54322904D01*
X102883444Y-54205965D01*
X102883444Y-54205964D01*
X102934494Y-54069093D01*
X102940999Y-54008597D01*
X102941000Y-54008585D01*
X102941000Y-52834000D01*
X101980000Y-52834000D01*
X101911879Y-52813998D01*
X101865386Y-52760342D01*
X101854000Y-52708000D01*
X101854000Y-52452000D01*
X101874002Y-52383879D01*
X101927658Y-52337386D01*
X101980000Y-52326000D01*
X102941000Y-52326000D01*
X102941000Y-52054767D01*
X102961002Y-51986646D01*
X103014658Y-51940153D01*
X103084932Y-51930049D01*
X103141060Y-51952830D01*
X103258448Y-52038118D01*
X103432912Y-52115794D01*
X103619713Y-52155500D01*
X103810687Y-52155500D01*
X103997488Y-52115794D01*
X104171952Y-52038118D01*
X104326453Y-51925866D01*
X104347155Y-51902873D01*
X104407599Y-51865635D01*
X104478582Y-51866986D01*
G37*
%TD.AperFunction*%
%TA.AperFunction,Conductor*%
G36*
X85023403Y-53997102D02*
G01*
X85069896Y-54050758D01*
X85080000Y-54121032D01*
X85064401Y-54166098D01*
X85042808Y-54203500D01*
X84998459Y-54280315D01*
X84977772Y-54316145D01*
X84971060Y-54336802D01*
X84918756Y-54497773D01*
X84898795Y-54687700D01*
X84918756Y-54877628D01*
X84948825Y-54970171D01*
X84977772Y-55059257D01*
X84977775Y-55059262D01*
X85073257Y-55224642D01*
X85073264Y-55224652D01*
X85201043Y-55366565D01*
X85246908Y-55399888D01*
X85355547Y-55478819D01*
X85530011Y-55556495D01*
X85716812Y-55596201D01*
X85907786Y-55596201D01*
X86094587Y-55556495D01*
X86121769Y-55544392D01*
X86173017Y-55533500D01*
X92516147Y-55533500D01*
X92531988Y-55535249D01*
X92532016Y-55534956D01*
X92539901Y-55535700D01*
X92539909Y-55535702D01*
X92601208Y-55533775D01*
X92608976Y-55533531D01*
X92610955Y-55533500D01*
X92639851Y-55533500D01*
X92639856Y-55533500D01*
X92646818Y-55532619D01*
X92652719Y-55532154D01*
X92699889Y-55530673D01*
X92719347Y-55525019D01*
X92738694Y-55521013D01*
X92758797Y-55518474D01*
X92802679Y-55501099D01*
X92808274Y-55499183D01*
X92842272Y-55489307D01*
X92853591Y-55486019D01*
X92853595Y-55486017D01*
X92871026Y-55475708D01*
X92888780Y-55467009D01*
X92907617Y-55459552D01*
X92945801Y-55431808D01*
X92950739Y-55428565D01*
X92969714Y-55417343D01*
X93038530Y-55399888D01*
X93105861Y-55422408D01*
X93150327Y-55477755D01*
X93157812Y-55548356D01*
X93153680Y-55564737D01*
X93106457Y-55710071D01*
X93086496Y-55900000D01*
X93106457Y-56089927D01*
X93128965Y-56159196D01*
X93165473Y-56271556D01*
X93165476Y-56271561D01*
X93260958Y-56436941D01*
X93260965Y-56436951D01*
X93388744Y-56578864D01*
X93388747Y-56578866D01*
X93543248Y-56691118D01*
X93717712Y-56768794D01*
X93904513Y-56808500D01*
X94095487Y-56808500D01*
X94282288Y-56768794D01*
X94353968Y-56736879D01*
X94424334Y-56727445D01*
X94488631Y-56757551D01*
X94526445Y-56817639D01*
X94525770Y-56888632D01*
X94494313Y-56941081D01*
X94311757Y-57123638D01*
X93905798Y-57529596D01*
X93843488Y-57563620D01*
X93816705Y-57566500D01*
X93508200Y-57566500D01*
X93440079Y-57546498D01*
X93414563Y-57524810D01*
X93411252Y-57521133D01*
X93256752Y-57408882D01*
X93082288Y-57331206D01*
X92895487Y-57291500D01*
X92704513Y-57291500D01*
X92517711Y-57331206D01*
X92343247Y-57408882D01*
X92188744Y-57521135D01*
X92060965Y-57663048D01*
X92060958Y-57663058D01*
X91972155Y-57816870D01*
X91965473Y-57828444D01*
X91962363Y-57838015D01*
X91906457Y-58010072D01*
X91886496Y-58200000D01*
X91906457Y-58389926D01*
X91910239Y-58401565D01*
X91912265Y-58472533D01*
X91875602Y-58533331D01*
X91811889Y-58564655D01*
X91790405Y-58566500D01*
X90683849Y-58566500D01*
X90668010Y-58564751D01*
X90667983Y-58565045D01*
X90660091Y-58564299D01*
X90591044Y-58566469D01*
X90589065Y-58566500D01*
X90560144Y-58566500D01*
X90553172Y-58567379D01*
X90547265Y-58567844D01*
X90500110Y-58569326D01*
X90500105Y-58569327D01*
X90480660Y-58574977D01*
X90461302Y-58578986D01*
X90441207Y-58581524D01*
X90441205Y-58581525D01*
X90397324Y-58598897D01*
X90391709Y-58600819D01*
X90346410Y-58613980D01*
X90346404Y-58613982D01*
X90328966Y-58624295D01*
X90311220Y-58632989D01*
X90292381Y-58640448D01*
X90292380Y-58640449D01*
X90254223Y-58668172D01*
X90249271Y-58671426D01*
X90245019Y-58673941D01*
X90180859Y-58691500D01*
X90104513Y-58691500D01*
X89917711Y-58731206D01*
X89743247Y-58808882D01*
X89588744Y-58921135D01*
X89460965Y-59063048D01*
X89460958Y-59063058D01*
X89365476Y-59228438D01*
X89365473Y-59228445D01*
X89306457Y-59410072D01*
X89286496Y-59600000D01*
X89306457Y-59789927D01*
X89336526Y-59882470D01*
X89365473Y-59971556D01*
X89460960Y-60136944D01*
X89534137Y-60218215D01*
X89564853Y-60282220D01*
X89566500Y-60302524D01*
X89566500Y-60390500D01*
X89546498Y-60458621D01*
X89492842Y-60505114D01*
X89440500Y-60516500D01*
X89023594Y-60516500D01*
X88955473Y-60496498D01*
X88934499Y-60479595D01*
X84574444Y-56119539D01*
X84564479Y-56107101D01*
X84564252Y-56107290D01*
X84559201Y-56101184D01*
X84559200Y-56101182D01*
X84552019Y-56094439D01*
X84508827Y-56053879D01*
X84507437Y-56052532D01*
X84496905Y-56042000D01*
X84486976Y-56032070D01*
X84486972Y-56032066D01*
X84481425Y-56027763D01*
X84476917Y-56023912D01*
X84442525Y-55991617D01*
X84442519Y-55991613D01*
X84424763Y-55981851D01*
X84408247Y-55971002D01*
X84392241Y-55958586D01*
X84361489Y-55945278D01*
X84348940Y-55939848D01*
X84343608Y-55937236D01*
X84302261Y-55914505D01*
X84282636Y-55909466D01*
X84263936Y-55903064D01*
X84245345Y-55895019D01*
X84245343Y-55895018D01*
X84245342Y-55895018D01*
X84198742Y-55887637D01*
X84192929Y-55886433D01*
X84147230Y-55874700D01*
X84126976Y-55874700D01*
X84107266Y-55873149D01*
X84087257Y-55869980D01*
X84087256Y-55869980D01*
X84040283Y-55874420D01*
X84034350Y-55874700D01*
X81811900Y-55874700D01*
X81743779Y-55854698D01*
X81718263Y-55833010D01*
X81714952Y-55829333D01*
X81560452Y-55717082D01*
X81385988Y-55639406D01*
X81199187Y-55599700D01*
X81143295Y-55599700D01*
X81075174Y-55579698D01*
X81054200Y-55562795D01*
X80980712Y-55489307D01*
X80946686Y-55426995D01*
X80949975Y-55361273D01*
X80956919Y-55339904D01*
X80975042Y-55284128D01*
X80995004Y-55094200D01*
X80975042Y-54904272D01*
X80916027Y-54722644D01*
X80820540Y-54557256D01*
X80820538Y-54557254D01*
X80820534Y-54557248D01*
X80692755Y-54415335D01*
X80538252Y-54303082D01*
X80363783Y-54225403D01*
X80357508Y-54223365D01*
X80358281Y-54220985D01*
X80305738Y-54192615D01*
X80271419Y-54130464D01*
X80276150Y-54059625D01*
X80318428Y-54002589D01*
X80384830Y-53977465D01*
X80394412Y-53977100D01*
X81577370Y-53977100D01*
X84955282Y-53977100D01*
X85023403Y-53997102D01*
G37*
%TD.AperFunction*%
%TA.AperFunction,Conductor*%
G36*
X70320681Y-44470502D02*
G01*
X70367174Y-44524158D01*
X70377278Y-44594432D01*
X70347784Y-44659012D01*
X70324830Y-44679713D01*
X70216194Y-44755779D01*
X70216184Y-44755788D01*
X70066855Y-44905117D01*
X70066846Y-44905127D01*
X69945714Y-45078123D01*
X69856458Y-45269533D01*
X69856456Y-45269538D01*
X69801795Y-45473539D01*
X69785811Y-45656242D01*
X69783388Y-45683932D01*
X69801795Y-45894326D01*
X69826814Y-45987698D01*
X69856456Y-46098325D01*
X69856458Y-46098330D01*
X69945713Y-46289738D01*
X69995472Y-46360802D01*
X70066851Y-46462741D01*
X70216190Y-46612080D01*
X70389193Y-46733218D01*
X70580604Y-46822474D01*
X70784605Y-46877136D01*
X70994999Y-46895543D01*
X71205393Y-46877136D01*
X71409394Y-46822474D01*
X71600805Y-46733218D01*
X71773808Y-46612080D01*
X71923147Y-46462741D01*
X72044285Y-46289738D01*
X72133541Y-46098327D01*
X72188203Y-45894326D01*
X72206610Y-45683932D01*
X72188203Y-45473538D01*
X72133541Y-45269537D01*
X72044285Y-45078127D01*
X72044284Y-45078126D01*
X72044283Y-45078123D01*
X71923151Y-44905127D01*
X71923148Y-44905124D01*
X71857768Y-44839744D01*
X71773808Y-44755784D01*
X71726458Y-44722629D01*
X71665168Y-44679713D01*
X71620840Y-44624256D01*
X71613531Y-44553636D01*
X71645562Y-44490276D01*
X71706763Y-44454291D01*
X71737439Y-44450500D01*
X76502560Y-44450500D01*
X76570681Y-44470502D01*
X76617174Y-44524158D01*
X76627278Y-44594432D01*
X76597784Y-44659012D01*
X76574830Y-44679713D01*
X76466194Y-44755779D01*
X76466184Y-44755788D01*
X76316855Y-44905117D01*
X76316846Y-44905127D01*
X76195714Y-45078123D01*
X76106458Y-45269533D01*
X76106456Y-45269538D01*
X76051795Y-45473539D01*
X76035811Y-45656242D01*
X76033388Y-45683932D01*
X76051795Y-45894326D01*
X76076814Y-45987698D01*
X76106456Y-46098325D01*
X76106458Y-46098330D01*
X76195713Y-46289738D01*
X76245472Y-46360802D01*
X76316851Y-46462741D01*
X76466190Y-46612080D01*
X76639193Y-46733218D01*
X76830604Y-46822474D01*
X77034605Y-46877136D01*
X77244999Y-46895543D01*
X77455393Y-46877136D01*
X77659394Y-46822474D01*
X77850805Y-46733218D01*
X78023808Y-46612080D01*
X78173147Y-46462741D01*
X78294285Y-46289738D01*
X78383541Y-46098327D01*
X78438203Y-45894326D01*
X78456610Y-45683932D01*
X78438203Y-45473538D01*
X78383541Y-45269537D01*
X78294285Y-45078127D01*
X78294284Y-45078126D01*
X78294283Y-45078123D01*
X78173151Y-44905127D01*
X78173148Y-44905124D01*
X78107768Y-44839744D01*
X78023808Y-44755784D01*
X77976458Y-44722629D01*
X77915168Y-44679713D01*
X77870840Y-44624256D01*
X77863531Y-44553636D01*
X77895562Y-44490276D01*
X77956763Y-44454291D01*
X77987439Y-44450500D01*
X105408229Y-44450500D01*
X105411762Y-44450599D01*
X105414233Y-44450737D01*
X105525718Y-44456998D01*
X105697622Y-44467397D01*
X105704362Y-44468171D01*
X105840366Y-44491280D01*
X105989174Y-44518550D01*
X105995255Y-44519980D01*
X106131359Y-44559191D01*
X106132661Y-44559581D01*
X106272808Y-44603252D01*
X106278130Y-44605180D01*
X106360227Y-44639186D01*
X106410553Y-44660032D01*
X106412236Y-44660758D01*
X106531826Y-44714581D01*
X106544572Y-44720318D01*
X106549191Y-44722629D01*
X106675441Y-44792404D01*
X106677437Y-44793559D01*
X106800923Y-44868209D01*
X106804769Y-44870732D01*
X106922711Y-44954417D01*
X106925108Y-44956205D01*
X107038328Y-45044907D01*
X107041428Y-45047502D01*
X107149420Y-45144009D01*
X107151954Y-45146405D01*
X107253592Y-45248043D01*
X107255992Y-45250581D01*
X107303457Y-45303695D01*
X107352490Y-45358563D01*
X107355097Y-45361677D01*
X107399270Y-45418059D01*
X107443793Y-45474890D01*
X107445581Y-45477287D01*
X107529266Y-45595229D01*
X107531798Y-45599090D01*
X107543238Y-45618014D01*
X107606413Y-45722517D01*
X107607613Y-45724592D01*
X107642395Y-45787524D01*
X107677369Y-45850807D01*
X107679680Y-45855426D01*
X107739212Y-45987698D01*
X107739966Y-45989445D01*
X107794812Y-46121852D01*
X107796757Y-46127222D01*
X107840417Y-46267337D01*
X107840807Y-46268639D01*
X107880018Y-46404743D01*
X107881449Y-46410831D01*
X107908717Y-46559624D01*
X107931826Y-46695636D01*
X107932602Y-46702389D01*
X107943006Y-46874398D01*
X107949401Y-46988238D01*
X107949500Y-46991771D01*
X107949500Y-92708228D01*
X107949401Y-92711761D01*
X107943006Y-92825600D01*
X107932602Y-92997609D01*
X107931826Y-93004362D01*
X107908717Y-93140374D01*
X107881449Y-93289167D01*
X107880018Y-93295255D01*
X107840807Y-93431359D01*
X107840417Y-93432661D01*
X107796757Y-93572776D01*
X107794812Y-93578146D01*
X107739966Y-93710553D01*
X107739212Y-93712300D01*
X107679680Y-93844572D01*
X107677369Y-93849191D01*
X107607639Y-93975362D01*
X107606413Y-93977481D01*
X107531801Y-94100904D01*
X107529266Y-94104769D01*
X107445581Y-94222711D01*
X107443793Y-94225108D01*
X107355108Y-94338308D01*
X107352490Y-94341435D01*
X107256004Y-94449404D01*
X107253575Y-94451973D01*
X107151973Y-94553575D01*
X107149404Y-94556004D01*
X107041435Y-94652490D01*
X107038308Y-94655108D01*
X106925108Y-94743793D01*
X106922711Y-94745581D01*
X106804769Y-94829266D01*
X106800904Y-94831801D01*
X106677481Y-94906413D01*
X106675362Y-94907639D01*
X106549191Y-94977369D01*
X106544572Y-94979680D01*
X106412300Y-95039212D01*
X106410553Y-95039966D01*
X106278146Y-95094812D01*
X106272776Y-95096757D01*
X106132661Y-95140417D01*
X106131359Y-95140807D01*
X105995255Y-95180018D01*
X105989167Y-95181449D01*
X105840374Y-95208717D01*
X105704362Y-95231826D01*
X105697609Y-95232602D01*
X105525600Y-95243006D01*
X105411763Y-95249401D01*
X105408229Y-95249500D01*
X66041771Y-95249500D01*
X66038238Y-95249401D01*
X65924398Y-95243006D01*
X65752389Y-95232602D01*
X65745636Y-95231826D01*
X65609624Y-95208717D01*
X65460831Y-95181449D01*
X65454743Y-95180018D01*
X65318639Y-95140807D01*
X65317337Y-95140417D01*
X65197096Y-95102950D01*
X65177217Y-95096755D01*
X65171852Y-95094812D01*
X65039445Y-95039966D01*
X65037698Y-95039212D01*
X64905426Y-94979680D01*
X64900807Y-94977369D01*
X64827779Y-94937009D01*
X64774592Y-94907613D01*
X64772530Y-94906420D01*
X64649090Y-94831798D01*
X64645229Y-94829266D01*
X64527287Y-94745581D01*
X64524890Y-94743793D01*
X64468059Y-94699270D01*
X64411677Y-94655097D01*
X64408563Y-94652490D01*
X64357983Y-94607289D01*
X64300581Y-94555992D01*
X64298043Y-94553592D01*
X64196405Y-94451954D01*
X64194009Y-94449420D01*
X64097502Y-94341428D01*
X64094907Y-94338328D01*
X64006205Y-94225108D01*
X64004417Y-94222711D01*
X63920732Y-94104769D01*
X63918209Y-94100923D01*
X63843559Y-93977437D01*
X63842404Y-93975441D01*
X63772629Y-93849191D01*
X63770318Y-93844572D01*
X63764581Y-93831826D01*
X63710758Y-93712236D01*
X63710032Y-93710553D01*
X63698925Y-93683739D01*
X63655180Y-93578130D01*
X63653252Y-93572808D01*
X63609581Y-93432661D01*
X63609191Y-93431359D01*
X63569980Y-93295255D01*
X63568549Y-93289167D01*
X63541280Y-93140366D01*
X63518171Y-93004362D01*
X63517397Y-92997622D01*
X63506992Y-92825600D01*
X63500597Y-92711728D01*
X63500548Y-92710003D01*
X63926573Y-92710003D01*
X63946256Y-92997765D01*
X63946257Y-92997770D01*
X63946258Y-92997778D01*
X63975027Y-93136220D01*
X64004943Y-93280189D01*
X64004945Y-93280196D01*
X64101541Y-93551992D01*
X64234247Y-93808103D01*
X64400591Y-94043758D01*
X64597474Y-94254568D01*
X64597483Y-94254575D01*
X64597487Y-94254579D01*
X64821220Y-94436600D01*
X64821222Y-94436601D01*
X64821228Y-94436606D01*
X65067686Y-94586481D01*
X65332256Y-94701400D01*
X65610011Y-94779223D01*
X65895761Y-94818499D01*
X65895775Y-94818500D01*
X66184225Y-94818500D01*
X66184238Y-94818499D01*
X66396000Y-94789392D01*
X66469989Y-94779223D01*
X66747744Y-94701400D01*
X67012314Y-94586481D01*
X67258772Y-94436606D01*
X67482526Y-94254568D01*
X67679409Y-94043758D01*
X67845753Y-93808103D01*
X67978459Y-93551992D01*
X68075055Y-93280196D01*
X68133742Y-92997778D01*
X68145545Y-92825227D01*
X68153427Y-92710003D01*
X68153427Y-92709996D01*
X68133743Y-92422234D01*
X68133742Y-92422229D01*
X68133742Y-92422222D01*
X68075055Y-92139804D01*
X67978459Y-91868008D01*
X67845753Y-91611897D01*
X67679409Y-91376242D01*
X67482526Y-91165432D01*
X67482516Y-91165424D01*
X67482512Y-91165420D01*
X67258779Y-90983399D01*
X67258775Y-90983396D01*
X67258772Y-90983394D01*
X67012314Y-90833519D01*
X67012310Y-90833517D01*
X67012308Y-90833516D01*
X66903713Y-90786347D01*
X66747744Y-90718600D01*
X66520354Y-90654888D01*
X66469986Y-90640776D01*
X66469988Y-90640776D01*
X66184238Y-90601500D01*
X66184225Y-90601500D01*
X65895775Y-90601500D01*
X65895761Y-90601500D01*
X65610012Y-90640776D01*
X65437572Y-90689091D01*
X65332256Y-90718600D01*
X65332253Y-90718601D01*
X65332254Y-90718601D01*
X65067691Y-90833516D01*
X64821220Y-90983399D01*
X64597487Y-91165420D01*
X64597471Y-91165435D01*
X64400591Y-91376242D01*
X64234247Y-91611896D01*
X64234247Y-91611897D01*
X64101541Y-91868007D01*
X64004945Y-92139802D01*
X64004943Y-92139810D01*
X63946257Y-92422229D01*
X63946256Y-92422234D01*
X63926573Y-92709996D01*
X63926573Y-92710003D01*
X63500548Y-92710003D01*
X63500499Y-92708264D01*
X63500499Y-82169000D01*
X76711996Y-82169000D01*
X76731957Y-82358927D01*
X76762026Y-82451470D01*
X76790973Y-82540556D01*
X76790976Y-82540561D01*
X76886458Y-82705941D01*
X76886465Y-82705951D01*
X76977534Y-82807093D01*
X77005938Y-82860063D01*
X77007025Y-82864297D01*
X77024393Y-82908163D01*
X77026316Y-82913779D01*
X77039482Y-82959094D01*
X77049794Y-82976531D01*
X77058488Y-82994279D01*
X77065944Y-83013109D01*
X77065950Y-83013120D01*
X77093677Y-83051283D01*
X77096937Y-83056246D01*
X77120960Y-83096865D01*
X77135279Y-83111184D01*
X77148117Y-83126214D01*
X77149372Y-83127941D01*
X77160028Y-83142607D01*
X77188294Y-83165991D01*
X77196386Y-83172685D01*
X77200767Y-83176671D01*
X77307595Y-83283499D01*
X77341621Y-83345811D01*
X77344500Y-83372594D01*
X77344500Y-85694146D01*
X77342751Y-85709988D01*
X77343044Y-85710016D01*
X77342298Y-85717908D01*
X77344469Y-85786974D01*
X77344500Y-85788953D01*
X77344500Y-85817851D01*
X77344501Y-85817872D01*
X77345378Y-85824820D01*
X77345844Y-85830732D01*
X77347326Y-85877888D01*
X77347327Y-85877893D01*
X77352977Y-85897339D01*
X77356986Y-85916697D01*
X77359525Y-85936793D01*
X77359526Y-85936799D01*
X77376893Y-85980662D01*
X77378816Y-85986279D01*
X77391982Y-86031593D01*
X77402294Y-86049031D01*
X77410988Y-86066779D01*
X77418444Y-86085609D01*
X77418450Y-86085620D01*
X77446177Y-86123783D01*
X77449437Y-86128746D01*
X77473460Y-86169365D01*
X77487779Y-86183684D01*
X77500617Y-86198714D01*
X77510156Y-86211843D01*
X77512528Y-86215107D01*
X77540794Y-86238491D01*
X77548886Y-86245185D01*
X77553267Y-86249171D01*
X79467143Y-88163048D01*
X79952877Y-88648782D01*
X79986903Y-88711094D01*
X79989092Y-88724706D01*
X80006457Y-88889927D01*
X80016110Y-88919634D01*
X80065473Y-89071556D01*
X80065476Y-89071561D01*
X80160958Y-89236941D01*
X80160965Y-89236951D01*
X80288744Y-89378864D01*
X80288747Y-89378866D01*
X80443248Y-89491118D01*
X80617712Y-89568794D01*
X80804513Y-89608500D01*
X80995487Y-89608500D01*
X81182288Y-89568794D01*
X81356752Y-89491118D01*
X81511253Y-89378866D01*
X81639040Y-89236944D01*
X81734527Y-89071556D01*
X81793542Y-88889928D01*
X81813504Y-88700000D01*
X81793542Y-88510072D01*
X81734527Y-88328444D01*
X81639040Y-88163056D01*
X81639038Y-88163054D01*
X81639034Y-88163048D01*
X81511255Y-88021135D01*
X81356752Y-87908882D01*
X81182288Y-87831206D01*
X80995487Y-87791500D01*
X80939594Y-87791500D01*
X80871473Y-87771498D01*
X80850499Y-87754595D01*
X78648405Y-85552500D01*
X78614379Y-85490188D01*
X78611500Y-85463405D01*
X78611500Y-83141855D01*
X78613249Y-83126014D01*
X78612956Y-83125987D01*
X78613702Y-83118093D01*
X78611531Y-83049023D01*
X78611500Y-83047044D01*
X78611500Y-83018149D01*
X78611500Y-83018144D01*
X78610619Y-83011178D01*
X78610155Y-83005282D01*
X78608673Y-82958110D01*
X78603022Y-82938663D01*
X78599012Y-82919300D01*
X78597955Y-82910930D01*
X78596474Y-82899203D01*
X78579099Y-82855320D01*
X78577179Y-82849711D01*
X78564018Y-82804407D01*
X78553705Y-82786969D01*
X78545010Y-82769222D01*
X78537552Y-82750383D01*
X78509821Y-82712215D01*
X78506562Y-82707255D01*
X78482541Y-82666636D01*
X78478688Y-82661668D01*
X78452743Y-82595581D01*
X78458417Y-82545508D01*
X78460024Y-82540559D01*
X78460027Y-82540556D01*
X78519042Y-82358928D01*
X78539004Y-82169000D01*
X78519042Y-81979072D01*
X78460027Y-81797444D01*
X78364540Y-81632056D01*
X78364538Y-81632054D01*
X78364534Y-81632048D01*
X78236755Y-81490135D01*
X78082252Y-81377882D01*
X77907788Y-81300206D01*
X77720987Y-81260500D01*
X77530013Y-81260500D01*
X77343211Y-81300206D01*
X77168747Y-81377882D01*
X77014244Y-81490135D01*
X76886465Y-81632048D01*
X76886458Y-81632058D01*
X76790976Y-81797438D01*
X76790973Y-81797445D01*
X76731957Y-81979072D01*
X76711996Y-82169000D01*
X63500499Y-82169000D01*
X63500499Y-75664415D01*
X63503557Y-75654000D01*
X65142000Y-75654000D01*
X65142000Y-76148597D01*
X65148505Y-76209093D01*
X65199555Y-76345964D01*
X65199555Y-76345965D01*
X65287095Y-76462904D01*
X65404034Y-76550444D01*
X65540906Y-76601494D01*
X65601402Y-76607999D01*
X65601415Y-76608000D01*
X66346000Y-76608000D01*
X66346000Y-75654000D01*
X65142000Y-75654000D01*
X63503557Y-75654000D01*
X63520501Y-75596295D01*
X63552386Y-75562517D01*
X64125097Y-75146000D01*
X65142000Y-75146000D01*
X66346000Y-75146000D01*
X66346000Y-74192000D01*
X65601402Y-74192000D01*
X65540906Y-74198505D01*
X65404035Y-74249555D01*
X65404034Y-74249555D01*
X65287095Y-74337095D01*
X65199555Y-74454034D01*
X65199555Y-74454035D01*
X65148505Y-74590906D01*
X65142000Y-74651402D01*
X65142000Y-75146000D01*
X64125097Y-75146000D01*
X64587979Y-74809359D01*
X64595785Y-74805004D01*
X64600379Y-74800384D01*
X64600383Y-74800383D01*
X64600384Y-74800379D01*
X64600507Y-74800256D01*
X64601564Y-74793735D01*
X64600500Y-74784847D01*
X64600500Y-65215251D01*
X64601568Y-65206390D01*
X64600534Y-65199917D01*
X64600535Y-65199915D01*
X64600533Y-65199912D01*
X64600506Y-65199741D01*
X64596013Y-65195206D01*
X64588293Y-65190867D01*
X63552390Y-64437483D01*
X63509063Y-64381240D01*
X63500500Y-64335582D01*
X63500500Y-62454000D01*
X64242000Y-62454000D01*
X64242000Y-62948597D01*
X64248505Y-63009093D01*
X64299555Y-63145964D01*
X64299555Y-63145965D01*
X64387095Y-63262904D01*
X64504034Y-63350444D01*
X64640906Y-63401494D01*
X64701402Y-63407999D01*
X64701415Y-63408000D01*
X65446000Y-63408000D01*
X65446000Y-62454000D01*
X65954000Y-62454000D01*
X65954000Y-63408000D01*
X66698585Y-63408000D01*
X66698597Y-63407999D01*
X66759093Y-63401494D01*
X66895964Y-63350444D01*
X66895965Y-63350444D01*
X67012904Y-63262904D01*
X67100444Y-63145965D01*
X67100444Y-63145964D01*
X67151494Y-63009093D01*
X67157999Y-62948597D01*
X67158000Y-62948585D01*
X67158000Y-62454000D01*
X65954000Y-62454000D01*
X65446000Y-62454000D01*
X64242000Y-62454000D01*
X63500500Y-62454000D01*
X63500500Y-61946000D01*
X64242000Y-61946000D01*
X65446000Y-61946000D01*
X65446000Y-60992000D01*
X65954000Y-60992000D01*
X65954000Y-61946000D01*
X67158000Y-61946000D01*
X67158000Y-61451414D01*
X67157999Y-61451402D01*
X67151494Y-61390906D01*
X67100444Y-61254035D01*
X67100444Y-61254034D01*
X67012904Y-61137095D01*
X66895965Y-61049555D01*
X66759093Y-60998505D01*
X66698597Y-60992000D01*
X65954000Y-60992000D01*
X65446000Y-60992000D01*
X64701402Y-60992000D01*
X64640906Y-60998505D01*
X64504035Y-61049555D01*
X64504034Y-61049555D01*
X64387095Y-61137095D01*
X64299555Y-61254034D01*
X64299555Y-61254035D01*
X64248505Y-61390906D01*
X64242000Y-61451402D01*
X64242000Y-61946000D01*
X63500500Y-61946000D01*
X63500500Y-57804000D01*
X64542000Y-57804000D01*
X64542000Y-58098597D01*
X64548505Y-58159093D01*
X64599555Y-58295964D01*
X64599555Y-58295965D01*
X64687095Y-58412904D01*
X64804034Y-58500444D01*
X64940906Y-58551494D01*
X65001402Y-58557999D01*
X65001415Y-58558000D01*
X67096000Y-58558000D01*
X67096000Y-57804000D01*
X67604000Y-57804000D01*
X67604000Y-58558000D01*
X69698585Y-58558000D01*
X69698597Y-58557999D01*
X69759093Y-58551494D01*
X69895964Y-58500444D01*
X69895965Y-58500444D01*
X70012904Y-58412904D01*
X70100444Y-58295965D01*
X70100444Y-58295964D01*
X70151494Y-58159093D01*
X70157999Y-58098597D01*
X70158000Y-58098585D01*
X70158000Y-57804000D01*
X67604000Y-57804000D01*
X67096000Y-57804000D01*
X64542000Y-57804000D01*
X63500500Y-57804000D01*
X63500500Y-56098649D01*
X64541500Y-56098649D01*
X64548009Y-56159196D01*
X64548011Y-56159204D01*
X64599110Y-56296202D01*
X64599112Y-56296207D01*
X64686738Y-56413261D01*
X64735073Y-56449444D01*
X64777620Y-56506280D01*
X64782684Y-56577096D01*
X64748659Y-56639408D01*
X64735074Y-56651180D01*
X64687094Y-56687097D01*
X64599555Y-56804034D01*
X64599555Y-56804035D01*
X64548505Y-56940906D01*
X64542000Y-57001402D01*
X64542000Y-57296000D01*
X70158000Y-57296000D01*
X70158000Y-57001414D01*
X70157999Y-57001402D01*
X70151494Y-56940906D01*
X70100444Y-56804035D01*
X70100444Y-56804034D01*
X70012904Y-56687095D01*
X69964926Y-56651180D01*
X69922379Y-56594345D01*
X69917314Y-56523529D01*
X69951339Y-56461217D01*
X69964926Y-56449444D01*
X70013261Y-56413261D01*
X70100889Y-56296204D01*
X70130946Y-56215618D01*
X70173491Y-56158786D01*
X70210060Y-56139822D01*
X70247175Y-56127764D01*
X70254125Y-56123352D01*
X70275267Y-56112580D01*
X70282917Y-56109552D01*
X70329978Y-56075359D01*
X70333208Y-56073165D01*
X70382318Y-56042000D01*
X70387958Y-56035993D01*
X70405744Y-56020312D01*
X70412407Y-56015472D01*
X70449484Y-55970651D01*
X70452070Y-55967718D01*
X70491886Y-55925321D01*
X70495850Y-55918108D01*
X70509185Y-55898486D01*
X70514433Y-55892144D01*
X70539191Y-55839528D01*
X70540979Y-55836018D01*
X70568995Y-55785060D01*
X70571043Y-55777081D01*
X70579074Y-55754773D01*
X70582583Y-55747318D01*
X70593483Y-55690173D01*
X70594340Y-55686345D01*
X70608800Y-55630030D01*
X70608800Y-55621792D01*
X70611033Y-55598179D01*
X70612574Y-55590100D01*
X70612574Y-55590099D01*
X70612575Y-55590094D01*
X70608923Y-55532050D01*
X70608800Y-55528115D01*
X70608800Y-54578070D01*
X70628802Y-54509949D01*
X70682458Y-54463456D01*
X70748268Y-54452792D01*
X70776282Y-54455803D01*
X70801352Y-54458499D01*
X70801353Y-54458499D01*
X70801362Y-54458500D01*
X70801368Y-54458500D01*
X74298632Y-54458500D01*
X74298638Y-54458500D01*
X74298645Y-54458499D01*
X74298649Y-54458499D01*
X74359196Y-54451990D01*
X74359199Y-54451989D01*
X74359201Y-54451989D01*
X74496204Y-54400889D01*
X74600380Y-54322904D01*
X74613261Y-54313261D01*
X74700887Y-54196207D01*
X74700887Y-54196206D01*
X74700889Y-54196204D01*
X74751989Y-54059201D01*
X74755297Y-54028438D01*
X74758499Y-53998649D01*
X74758500Y-53998632D01*
X74758500Y-52301367D01*
X74758499Y-52301350D01*
X74751990Y-52240803D01*
X74751988Y-52240795D01*
X74705364Y-52115794D01*
X74700889Y-52103796D01*
X74700888Y-52103794D01*
X74700887Y-52103792D01*
X74613261Y-51986738D01*
X74496207Y-51899112D01*
X74496202Y-51899110D01*
X74359204Y-51848011D01*
X74359196Y-51848009D01*
X74298649Y-51841500D01*
X74298638Y-51841500D01*
X73587419Y-51841500D01*
X73519298Y-51821498D01*
X73472805Y-51767842D01*
X73462701Y-51697568D01*
X73492195Y-51632988D01*
X73519906Y-51609114D01*
X73527015Y-51604602D01*
X73527015Y-51604601D01*
X73527018Y-51604600D01*
X73532658Y-51598593D01*
X73550444Y-51582912D01*
X73557107Y-51578072D01*
X73594184Y-51533251D01*
X73596770Y-51530318D01*
X73636586Y-51487921D01*
X73640550Y-51480708D01*
X73653885Y-51461086D01*
X73659133Y-51454744D01*
X73683891Y-51402128D01*
X73685679Y-51398618D01*
X73713695Y-51347660D01*
X73713695Y-51347657D01*
X73715630Y-51344139D01*
X73765975Y-51294081D01*
X73781996Y-51286792D01*
X73912305Y-51238189D01*
X74029362Y-51150561D01*
X74029367Y-51150553D01*
X74030900Y-51149022D01*
X74032816Y-51147975D01*
X74036576Y-51145161D01*
X74036980Y-51145701D01*
X74093210Y-51114993D01*
X74164026Y-51120054D01*
X74203319Y-51145304D01*
X74203427Y-51145161D01*
X74205436Y-51146665D01*
X74209096Y-51149017D01*
X74210638Y-51150559D01*
X74327693Y-51238186D01*
X74327694Y-51238186D01*
X74327698Y-51238189D01*
X74458042Y-51286805D01*
X74514874Y-51329350D01*
X74529838Y-51359351D01*
X74530835Y-51358920D01*
X74533982Y-51366193D01*
X74544294Y-51383631D01*
X74552988Y-51401379D01*
X74560444Y-51420209D01*
X74560450Y-51420220D01*
X74588177Y-51458383D01*
X74591437Y-51463346D01*
X74615460Y-51503965D01*
X74629779Y-51518284D01*
X74642617Y-51533314D01*
X74652156Y-51546443D01*
X74654528Y-51549707D01*
X74682794Y-51573091D01*
X74690886Y-51579785D01*
X74695267Y-51583771D01*
X75776429Y-52664933D01*
X76843753Y-53732257D01*
X76853720Y-53744697D01*
X76853947Y-53744510D01*
X76858999Y-53750617D01*
X76909388Y-53797935D01*
X76910777Y-53799281D01*
X76921018Y-53809522D01*
X76931226Y-53819731D01*
X76936768Y-53824030D01*
X76941281Y-53827885D01*
X76975679Y-53860186D01*
X76975680Y-53860186D01*
X76975682Y-53860188D01*
X76993429Y-53869944D01*
X77009959Y-53880802D01*
X77025959Y-53893213D01*
X77057136Y-53906704D01*
X77069251Y-53911947D01*
X77074585Y-53914559D01*
X77115940Y-53937295D01*
X77135562Y-53942333D01*
X77154263Y-53948735D01*
X77172855Y-53956781D01*
X77219470Y-53964163D01*
X77225242Y-53965358D01*
X77270970Y-53977100D01*
X77291231Y-53977100D01*
X77310939Y-53978650D01*
X77330943Y-53981819D01*
X77364459Y-53978651D01*
X77377910Y-53977380D01*
X77383842Y-53977100D01*
X77821600Y-53977100D01*
X77889721Y-53997102D01*
X77936214Y-54050758D01*
X77947600Y-54103100D01*
X77947600Y-55891246D01*
X77945851Y-55907088D01*
X77946144Y-55907116D01*
X77945398Y-55915008D01*
X77947569Y-55984074D01*
X77947600Y-55986053D01*
X77947600Y-56014951D01*
X77947601Y-56014972D01*
X77948478Y-56021920D01*
X77948944Y-56027832D01*
X77950426Y-56074988D01*
X77950427Y-56074993D01*
X77956077Y-56094439D01*
X77960086Y-56113797D01*
X77962625Y-56133893D01*
X77962626Y-56133899D01*
X77979993Y-56177762D01*
X77981916Y-56183379D01*
X77995082Y-56228693D01*
X78005394Y-56246131D01*
X78014088Y-56263879D01*
X78021544Y-56282709D01*
X78021550Y-56282720D01*
X78049277Y-56320883D01*
X78052537Y-56325846D01*
X78076560Y-56366465D01*
X78090879Y-56380784D01*
X78103717Y-56395814D01*
X78113256Y-56408943D01*
X78115628Y-56412207D01*
X78127809Y-56422284D01*
X78151986Y-56442285D01*
X78156367Y-56446271D01*
X79604597Y-57894501D01*
X81047995Y-59337899D01*
X81082021Y-59400211D01*
X81084900Y-59426994D01*
X81084900Y-59544500D01*
X81064898Y-59612621D01*
X81011242Y-59659114D01*
X80958900Y-59670500D01*
X80898413Y-59670500D01*
X80711611Y-59710206D01*
X80537147Y-59787882D01*
X80382647Y-59900133D01*
X80379337Y-59903810D01*
X80318891Y-59941050D01*
X80285700Y-59945500D01*
X77784595Y-59945500D01*
X77716474Y-59925498D01*
X77695499Y-59908595D01*
X77253495Y-59466590D01*
X77253475Y-59466571D01*
X75691244Y-57904339D01*
X75681279Y-57891901D01*
X75681052Y-57892090D01*
X75676001Y-57885984D01*
X75676000Y-57885982D01*
X75625625Y-57838677D01*
X75624236Y-57837331D01*
X75613990Y-57827085D01*
X75603776Y-57816870D01*
X75603772Y-57816866D01*
X75598225Y-57812563D01*
X75593717Y-57808712D01*
X75559325Y-57776417D01*
X75559319Y-57776413D01*
X75541563Y-57766651D01*
X75525047Y-57755802D01*
X75509041Y-57743386D01*
X75478289Y-57730078D01*
X75465740Y-57724648D01*
X75460408Y-57722036D01*
X75419061Y-57699305D01*
X75399436Y-57694266D01*
X75380736Y-57687864D01*
X75362145Y-57679819D01*
X75362143Y-57679818D01*
X75362142Y-57679818D01*
X75315542Y-57672437D01*
X75309729Y-57671233D01*
X75264030Y-57659500D01*
X75243776Y-57659500D01*
X75224066Y-57657949D01*
X75204057Y-57654780D01*
X75204056Y-57654780D01*
X75157083Y-57659220D01*
X75151150Y-57659500D01*
X74241200Y-57659500D01*
X74173079Y-57639498D01*
X74147563Y-57617810D01*
X74144252Y-57614133D01*
X73989752Y-57501882D01*
X73815288Y-57424206D01*
X73628487Y-57384500D01*
X73437513Y-57384500D01*
X73250711Y-57424206D01*
X73076247Y-57501882D01*
X72921744Y-57614135D01*
X72793965Y-57756048D01*
X72793958Y-57756058D01*
X72698476Y-57921438D01*
X72698473Y-57921445D01*
X72639457Y-58103072D01*
X72619496Y-58292999D01*
X72639457Y-58482925D01*
X72640813Y-58489303D01*
X72635411Y-58560093D01*
X72592594Y-58616726D01*
X72525957Y-58641220D01*
X72517566Y-58641500D01*
X70801350Y-58641500D01*
X70740803Y-58648009D01*
X70740795Y-58648011D01*
X70603797Y-58699110D01*
X70603792Y-58699112D01*
X70486738Y-58786738D01*
X70399112Y-58903792D01*
X70399110Y-58903797D01*
X70348011Y-59040795D01*
X70348009Y-59040803D01*
X70341500Y-59101350D01*
X70341500Y-60798649D01*
X70348009Y-60859196D01*
X70348011Y-60859204D01*
X70399110Y-60996202D01*
X70399112Y-60996207D01*
X70486738Y-61113261D01*
X70603792Y-61200887D01*
X70603794Y-61200888D01*
X70603796Y-61200889D01*
X70647578Y-61217219D01*
X70740795Y-61251988D01*
X70740803Y-61251990D01*
X70801350Y-61258499D01*
X70801355Y-61258499D01*
X70801362Y-61258500D01*
X70801368Y-61258500D01*
X74298632Y-61258500D01*
X74298638Y-61258500D01*
X74298645Y-61258499D01*
X74298649Y-61258499D01*
X74359196Y-61251990D01*
X74359199Y-61251989D01*
X74359201Y-61251989D01*
X74496204Y-61200889D01*
X74496369Y-61200766D01*
X74613261Y-61113261D01*
X74700887Y-60996207D01*
X74700887Y-60996206D01*
X74700889Y-60996204D01*
X74751989Y-60859201D01*
X74758500Y-60798638D01*
X74758500Y-59101362D01*
X74755967Y-59077809D01*
X74768574Y-59007940D01*
X74816952Y-58955978D01*
X74885743Y-58938420D01*
X74953107Y-58960841D01*
X74970341Y-58975245D01*
X76962753Y-60967657D01*
X76972720Y-60980097D01*
X76972947Y-60979910D01*
X76977999Y-60986017D01*
X77028388Y-61033335D01*
X77029777Y-61034681D01*
X77050231Y-61055135D01*
X77055770Y-61059431D01*
X77060282Y-61063285D01*
X77094678Y-61095585D01*
X77094682Y-61095588D01*
X77112430Y-61105345D01*
X77128957Y-61116201D01*
X77144960Y-61128614D01*
X77188259Y-61147351D01*
X77193585Y-61149960D01*
X77234935Y-61172693D01*
X77234938Y-61172694D01*
X77234940Y-61172695D01*
X77254562Y-61177733D01*
X77273263Y-61184135D01*
X77285814Y-61189567D01*
X77291852Y-61192180D01*
X77291853Y-61192180D01*
X77291855Y-61192181D01*
X77338477Y-61199564D01*
X77344262Y-61200763D01*
X77389970Y-61212500D01*
X77410224Y-61212500D01*
X77429934Y-61214051D01*
X77432141Y-61214400D01*
X77449943Y-61217220D01*
X77483870Y-61214012D01*
X77496917Y-61212780D01*
X77502850Y-61212500D01*
X80285700Y-61212500D01*
X80353821Y-61232502D01*
X80379337Y-61254190D01*
X80382647Y-61257866D01*
X80537148Y-61370118D01*
X80711612Y-61447794D01*
X80898413Y-61487500D01*
X80958900Y-61487500D01*
X81027021Y-61507502D01*
X81073514Y-61561158D01*
X81084900Y-61613500D01*
X81084900Y-66588691D01*
X81064898Y-66656812D01*
X81011242Y-66703305D01*
X80940968Y-66713409D01*
X80876388Y-66683915D01*
X80857311Y-66660244D01*
X80856290Y-66661010D01*
X80763261Y-66536738D01*
X80646207Y-66449112D01*
X80646202Y-66449110D01*
X80509204Y-66398011D01*
X80509196Y-66398009D01*
X80448649Y-66391500D01*
X80448638Y-66391500D01*
X78951362Y-66391500D01*
X78951350Y-66391500D01*
X78890803Y-66398009D01*
X78890795Y-66398011D01*
X78753797Y-66449110D01*
X78753792Y-66449112D01*
X78636738Y-66536738D01*
X78549112Y-66653792D01*
X78549110Y-66653797D01*
X78498011Y-66790795D01*
X78498009Y-66790803D01*
X78491500Y-66851350D01*
X78491500Y-68675200D01*
X78471498Y-68743321D01*
X78417842Y-68789814D01*
X78365500Y-68801200D01*
X72824594Y-68801200D01*
X72756473Y-68781198D01*
X72735499Y-68764295D01*
X72119215Y-68148011D01*
X71482544Y-67511339D01*
X71472579Y-67498901D01*
X71472352Y-67499090D01*
X71467301Y-67492984D01*
X71467300Y-67492982D01*
X71416925Y-67445677D01*
X71415536Y-67444331D01*
X71405290Y-67434085D01*
X71395076Y-67423870D01*
X71395072Y-67423866D01*
X71389525Y-67419563D01*
X71385017Y-67415712D01*
X71350625Y-67383417D01*
X71350619Y-67383413D01*
X71332863Y-67373651D01*
X71316347Y-67362802D01*
X71300341Y-67350386D01*
X71269589Y-67337078D01*
X71257040Y-67331648D01*
X71251708Y-67329036D01*
X71210361Y-67306305D01*
X71190736Y-67301266D01*
X71172036Y-67294864D01*
X71153445Y-67286819D01*
X71143424Y-67285231D01*
X71129905Y-67283090D01*
X71065753Y-67252675D01*
X71048752Y-67234150D01*
X71022176Y-67198649D01*
X71013261Y-67186739D01*
X71013260Y-67186738D01*
X70896207Y-67099112D01*
X70896204Y-67099111D01*
X70840466Y-67078321D01*
X70803884Y-67050935D01*
X72695630Y-67050935D01*
X72711156Y-67152277D01*
X72726444Y-67252071D01*
X72737932Y-67283090D01*
X72797111Y-67442881D01*
X72797115Y-67442889D01*
X72904744Y-67615566D01*
X72904754Y-67615579D01*
X73044936Y-67763048D01*
X73044941Y-67763053D01*
X73044944Y-67763055D01*
X73211952Y-67879296D01*
X73211953Y-67879297D01*
X73398938Y-67959539D01*
X73398941Y-67959539D01*
X73398942Y-67959540D01*
X73598259Y-68000500D01*
X73598260Y-68000500D01*
X73750741Y-68000500D01*
X73750742Y-68000500D01*
X73750743Y-68000499D01*
X73750760Y-68000499D01*
X73844833Y-67990931D01*
X73902438Y-67985074D01*
X74096588Y-67924159D01*
X74274502Y-67825409D01*
X74274503Y-67825408D01*
X74274505Y-67825407D01*
X74428890Y-67692870D01*
X74428895Y-67692866D01*
X74553448Y-67531958D01*
X74608580Y-67419563D01*
X74643058Y-67349276D01*
X74643058Y-67349274D01*
X74643060Y-67349271D01*
X74694063Y-67152285D01*
X74704369Y-66949064D01*
X74673556Y-66747929D01*
X74602886Y-66557113D01*
X74535569Y-66449112D01*
X74495255Y-66384433D01*
X74495245Y-66384420D01*
X74355063Y-66236951D01*
X74355061Y-66236949D01*
X74355059Y-66236947D01*
X74307431Y-66203797D01*
X74188047Y-66120703D01*
X74188046Y-66120702D01*
X74001061Y-66040460D01*
X73851570Y-66009740D01*
X73801741Y-65999500D01*
X73649258Y-65999500D01*
X73649239Y-65999500D01*
X73497566Y-66014925D01*
X73497563Y-66014925D01*
X73497562Y-66014926D01*
X73444965Y-66031428D01*
X73303413Y-66075840D01*
X73125494Y-66174592D01*
X72971109Y-66307129D01*
X72971102Y-66307136D01*
X72846555Y-66468036D01*
X72846550Y-66468044D01*
X72756941Y-66650723D01*
X72705936Y-66847719D01*
X72705936Y-66847722D01*
X72695630Y-67050935D01*
X70803884Y-67050935D01*
X70783631Y-67035773D01*
X70758821Y-66969253D01*
X70758500Y-66960266D01*
X70758500Y-66401367D01*
X70758499Y-66401350D01*
X70751990Y-66340803D01*
X70751988Y-66340795D01*
X70721619Y-66259374D01*
X70700889Y-66203796D01*
X70700888Y-66203794D01*
X70700887Y-66203792D01*
X70613261Y-66086738D01*
X70496207Y-65999112D01*
X70496202Y-65999110D01*
X70359204Y-65948011D01*
X70359196Y-65948009D01*
X70298649Y-65941500D01*
X70298638Y-65941500D01*
X68701362Y-65941500D01*
X68701350Y-65941500D01*
X68640803Y-65948009D01*
X68640795Y-65948011D01*
X68503797Y-65999110D01*
X68503792Y-65999112D01*
X68386738Y-66086738D01*
X68299112Y-66203792D01*
X68299110Y-66203797D01*
X68248011Y-66340795D01*
X68248009Y-66340803D01*
X68241500Y-66401350D01*
X68241500Y-67198649D01*
X68248009Y-67259196D01*
X68248011Y-67259204D01*
X68299110Y-67396202D01*
X68299112Y-67396207D01*
X68386738Y-67513261D01*
X68503791Y-67600886D01*
X68503792Y-67600886D01*
X68503796Y-67600889D01*
X68559535Y-67621679D01*
X68616368Y-67664224D01*
X68641179Y-67730744D01*
X68641500Y-67739733D01*
X68641500Y-68060266D01*
X68621498Y-68128387D01*
X68567842Y-68174880D01*
X68559534Y-68178321D01*
X68503795Y-68199111D01*
X68503792Y-68199112D01*
X68386738Y-68286738D01*
X68299112Y-68403792D01*
X68299110Y-68403797D01*
X68248011Y-68540795D01*
X68248009Y-68540803D01*
X68241500Y-68601350D01*
X68241500Y-69024285D01*
X68221498Y-69092406D01*
X68167842Y-69138899D01*
X68097568Y-69149003D01*
X68064253Y-69139392D01*
X68017792Y-69118706D01*
X67830987Y-69079000D01*
X67640013Y-69079000D01*
X67453211Y-69118706D01*
X67278747Y-69196382D01*
X67124244Y-69308635D01*
X66996465Y-69450548D01*
X66996458Y-69450558D01*
X66900976Y-69615938D01*
X66900973Y-69615945D01*
X66841957Y-69797572D01*
X66821996Y-69987500D01*
X66841957Y-70177427D01*
X66857138Y-70224148D01*
X66900973Y-70359056D01*
X66900976Y-70359061D01*
X66996458Y-70524441D01*
X66996465Y-70524451D01*
X67124244Y-70666364D01*
X67124247Y-70666366D01*
X67278748Y-70778618D01*
X67453212Y-70856294D01*
X67640013Y-70896000D01*
X67830991Y-70896000D01*
X67957037Y-70869207D01*
X67982446Y-70863806D01*
X68053237Y-70869207D01*
X68084151Y-70886183D01*
X68103796Y-70900889D01*
X68159535Y-70921679D01*
X68216368Y-70964224D01*
X68241179Y-71030744D01*
X68241500Y-71039733D01*
X68241500Y-71360800D01*
X68221498Y-71428921D01*
X68167842Y-71475414D01*
X68159533Y-71478855D01*
X68104038Y-71499553D01*
X68104034Y-71499555D01*
X67987095Y-71587095D01*
X67899555Y-71704034D01*
X67899555Y-71704035D01*
X67848505Y-71840906D01*
X67842000Y-71901402D01*
X67842000Y-72046000D01*
X68602009Y-72046000D01*
X68632803Y-72051556D01*
X68633130Y-72050177D01*
X68640799Y-72051989D01*
X68701350Y-72058499D01*
X68701355Y-72058499D01*
X68701362Y-72058500D01*
X68701368Y-72058500D01*
X69228000Y-72058500D01*
X69296121Y-72078502D01*
X69342614Y-72132158D01*
X69354000Y-72184500D01*
X69354000Y-72415500D01*
X69333998Y-72483621D01*
X69280342Y-72530114D01*
X69228000Y-72541500D01*
X68701350Y-72541500D01*
X68640799Y-72548010D01*
X68633130Y-72549823D01*
X68632803Y-72548443D01*
X68602009Y-72554000D01*
X67842000Y-72554000D01*
X67842000Y-72698597D01*
X67848505Y-72759093D01*
X67899555Y-72895964D01*
X67899555Y-72895965D01*
X67987095Y-73012904D01*
X68104034Y-73100444D01*
X68104036Y-73100445D01*
X68159531Y-73121143D01*
X68216368Y-73163689D01*
X68241179Y-73230209D01*
X68241500Y-73239199D01*
X68241500Y-73798649D01*
X68248009Y-73859195D01*
X68248010Y-73859199D01*
X68265454Y-73905967D01*
X68270518Y-73976783D01*
X68265454Y-73994030D01*
X68248011Y-74040797D01*
X68248009Y-74040804D01*
X68241500Y-74101350D01*
X68241500Y-74401958D01*
X68221498Y-74470079D01*
X68167842Y-74516572D01*
X68097568Y-74526676D01*
X68032988Y-74497182D01*
X68007474Y-74460462D01*
X68004762Y-74461943D01*
X68000444Y-74454034D01*
X67912904Y-74337095D01*
X67795965Y-74249555D01*
X67659093Y-74198505D01*
X67598597Y-74192000D01*
X66854000Y-74192000D01*
X66854000Y-76608000D01*
X67598585Y-76608000D01*
X67598597Y-76607999D01*
X67659093Y-76601494D01*
X67795964Y-76550444D01*
X67795965Y-76550444D01*
X67912904Y-76462904D01*
X68000444Y-76345965D01*
X68000444Y-76345964D01*
X68051494Y-76209093D01*
X68056224Y-76165104D01*
X68083393Y-76099512D01*
X68141711Y-76059021D01*
X68212663Y-76056487D01*
X68273721Y-76092714D01*
X68275124Y-76094246D01*
X68305847Y-76128368D01*
X68460348Y-76240620D01*
X68634812Y-76318296D01*
X68821613Y-76358002D01*
X69012587Y-76358002D01*
X69199388Y-76318296D01*
X69309223Y-76269394D01*
X69360473Y-76258501D01*
X81644146Y-76258501D01*
X81659987Y-76260250D01*
X81660015Y-76259957D01*
X81667900Y-76260701D01*
X81667908Y-76260703D01*
X81729207Y-76258776D01*
X81736975Y-76258532D01*
X81738954Y-76258501D01*
X81767850Y-76258501D01*
X81767855Y-76258501D01*
X81774817Y-76257620D01*
X81780718Y-76257155D01*
X81827888Y-76255674D01*
X81847346Y-76250020D01*
X81866693Y-76246014D01*
X81886796Y-76243475D01*
X81930678Y-76226100D01*
X81936273Y-76224184D01*
X81964815Y-76215892D01*
X81981590Y-76211020D01*
X81981594Y-76211018D01*
X81999025Y-76200709D01*
X82016779Y-76192010D01*
X82035616Y-76184553D01*
X82073785Y-76156819D01*
X82078743Y-76153563D01*
X82119361Y-76129543D01*
X82133684Y-76115219D01*
X82148723Y-76102375D01*
X82152664Y-76099512D01*
X82165106Y-76090473D01*
X82195187Y-76054109D01*
X82199166Y-76049736D01*
X82267500Y-75981403D01*
X82329814Y-75947379D01*
X82356595Y-75944500D01*
X82640500Y-75944500D01*
X82708621Y-75964502D01*
X82755114Y-76018158D01*
X82766500Y-76070500D01*
X82766500Y-80433013D01*
X82749620Y-80496012D01*
X82731472Y-80527444D01*
X82731470Y-80527449D01*
X82672457Y-80709071D01*
X82652496Y-80899000D01*
X82672457Y-81088927D01*
X82702526Y-81181470D01*
X82731473Y-81270556D01*
X82759841Y-81319691D01*
X82776473Y-81348499D01*
X82826960Y-81435944D01*
X82900137Y-81517215D01*
X82930853Y-81581220D01*
X82932500Y-81601524D01*
X82932500Y-89590206D01*
X82930268Y-89613818D01*
X82928725Y-89621903D01*
X82928725Y-89621906D01*
X82932376Y-89679949D01*
X82932500Y-89683883D01*
X82932500Y-89701855D01*
X82934751Y-89719688D01*
X82935123Y-89723623D01*
X82938775Y-89781651D01*
X82941321Y-89789487D01*
X82946493Y-89812626D01*
X82947524Y-89820789D01*
X82947527Y-89820799D01*
X82968924Y-89874842D01*
X82970264Y-89878565D01*
X82988236Y-89933875D01*
X82988237Y-89933876D01*
X82988237Y-89933878D01*
X82992652Y-89940834D01*
X83003417Y-89961962D01*
X83006447Y-89969616D01*
X83040616Y-90016646D01*
X83042840Y-90019919D01*
X83062514Y-90050920D01*
X83074000Y-90069018D01*
X83077251Y-90072071D01*
X83079029Y-90075097D01*
X83079053Y-90075126D01*
X83079048Y-90075129D01*
X83113217Y-90133280D01*
X83117000Y-90163921D01*
X83117000Y-94866000D01*
X90283000Y-94866000D01*
X90283000Y-90067000D01*
X84986952Y-90067000D01*
X84918831Y-90046998D01*
X84872338Y-89993342D01*
X84862234Y-89923068D01*
X84867119Y-89902063D01*
X84875365Y-89876687D01*
X84904042Y-89788428D01*
X84924004Y-89598500D01*
X84904042Y-89408572D01*
X84845027Y-89226944D01*
X84749540Y-89061556D01*
X84749538Y-89061554D01*
X84749534Y-89061548D01*
X84621755Y-88919635D01*
X84562410Y-88876519D01*
X84467252Y-88807382D01*
X84292788Y-88729706D01*
X84292785Y-88729705D01*
X84286553Y-88727680D01*
X84227951Y-88687601D01*
X84200320Y-88622202D01*
X84199500Y-88607850D01*
X84199500Y-81601524D01*
X84219502Y-81533403D01*
X84231858Y-81517220D01*
X84305040Y-81435944D01*
X84400527Y-81270556D01*
X84459542Y-81088928D01*
X84479504Y-80899000D01*
X84459542Y-80709072D01*
X84400527Y-80527444D01*
X84305040Y-80362056D01*
X84305038Y-80362054D01*
X84305034Y-80362048D01*
X84177257Y-80220137D01*
X84085437Y-80153424D01*
X84042084Y-80097201D01*
X84033500Y-80051489D01*
X84033500Y-76070500D01*
X84053502Y-76002379D01*
X84107158Y-75955886D01*
X84159500Y-75944500D01*
X87559977Y-75944500D01*
X87628098Y-75964502D01*
X87646216Y-75978637D01*
X87647480Y-75979824D01*
X87648878Y-75981178D01*
X87654146Y-75986446D01*
X87669329Y-76001630D01*
X87674871Y-76005929D01*
X87679384Y-76009784D01*
X87713782Y-76042085D01*
X87713783Y-76042085D01*
X87713785Y-76042087D01*
X87731532Y-76051843D01*
X87748062Y-76062701D01*
X87764062Y-76075112D01*
X87795239Y-76088603D01*
X87807354Y-76093846D01*
X87812688Y-76096458D01*
X87854043Y-76119194D01*
X87873665Y-76124232D01*
X87892366Y-76130634D01*
X87910958Y-76138680D01*
X87957573Y-76146062D01*
X87963345Y-76147257D01*
X88009073Y-76158999D01*
X88029334Y-76158999D01*
X88049042Y-76160549D01*
X88069046Y-76163718D01*
X88102562Y-76160550D01*
X88116013Y-76159279D01*
X88121945Y-76158999D01*
X89185477Y-76158999D01*
X89253598Y-76179001D01*
X89294596Y-76221999D01*
X89360958Y-76336941D01*
X89360965Y-76336951D01*
X89488744Y-76478864D01*
X89488747Y-76478866D01*
X89643248Y-76591118D01*
X89817712Y-76668794D01*
X90004513Y-76708500D01*
X90195487Y-76708500D01*
X90382288Y-76668794D01*
X90556752Y-76591118D01*
X90711253Y-76478866D01*
X90782269Y-76399995D01*
X90839034Y-76336951D01*
X90839035Y-76336949D01*
X90839040Y-76336944D01*
X90934527Y-76171556D01*
X90993542Y-75989928D01*
X91011209Y-75821829D01*
X91038223Y-75756172D01*
X91096445Y-75715542D01*
X91136520Y-75708999D01*
X99960905Y-75708999D01*
X100029026Y-75729001D01*
X100050000Y-75745904D01*
X104394424Y-80090328D01*
X104428450Y-80152640D01*
X104430792Y-80191048D01*
X104428097Y-80220134D01*
X104411431Y-80399995D01*
X104411430Y-80400004D01*
X104431667Y-80618393D01*
X104431667Y-80618397D01*
X104491688Y-80829353D01*
X104491690Y-80829358D01*
X104491691Y-80829361D01*
X104589457Y-81025701D01*
X104589458Y-81025702D01*
X104721637Y-81200736D01*
X104883721Y-81348495D01*
X104883724Y-81348497D01*
X104883726Y-81348498D01*
X104883727Y-81348499D01*
X105070209Y-81463964D01*
X105070213Y-81463965D01*
X105070214Y-81463966D01*
X105274725Y-81543195D01*
X105274728Y-81543195D01*
X105274732Y-81543197D01*
X105490333Y-81583500D01*
X105490336Y-81583500D01*
X105709664Y-81583500D01*
X105709667Y-81583500D01*
X105925268Y-81543197D01*
X105925272Y-81543195D01*
X105925274Y-81543195D01*
X106062236Y-81490135D01*
X106129791Y-81463964D01*
X106316273Y-81348499D01*
X106316275Y-81348496D01*
X106316278Y-81348495D01*
X106478362Y-81200736D01*
X106478364Y-81200734D01*
X106610543Y-81025701D01*
X106708309Y-80829361D01*
X106768332Y-80618399D01*
X106788570Y-80400000D01*
X106768332Y-80181601D01*
X106708309Y-79970639D01*
X106610543Y-79774299D01*
X106478364Y-79599266D01*
X106478362Y-79599263D01*
X106361923Y-79493115D01*
X106325056Y-79432441D01*
X106326845Y-79361467D01*
X106361923Y-79306885D01*
X106478362Y-79200736D01*
X106478364Y-79200734D01*
X106610543Y-79025701D01*
X106708309Y-78829361D01*
X106768332Y-78618399D01*
X106788570Y-78400000D01*
X106768332Y-78181601D01*
X106708309Y-77970639D01*
X106610543Y-77774299D01*
X106478364Y-77599266D01*
X106478362Y-77599263D01*
X106361923Y-77493115D01*
X106325056Y-77432441D01*
X106326845Y-77361467D01*
X106361923Y-77306885D01*
X106478362Y-77200736D01*
X106478364Y-77200734D01*
X106610543Y-77025701D01*
X106708309Y-76829361D01*
X106768332Y-76618399D01*
X106788570Y-76400000D01*
X106784678Y-76358002D01*
X106775458Y-76258501D01*
X106768332Y-76181601D01*
X106708309Y-75970639D01*
X106610543Y-75774299D01*
X106519697Y-75654000D01*
X106478362Y-75599263D01*
X106361923Y-75493115D01*
X106325056Y-75432441D01*
X106326845Y-75361467D01*
X106361923Y-75306885D01*
X106478362Y-75200736D01*
X106519697Y-75146000D01*
X106610543Y-75025701D01*
X106708309Y-74829361D01*
X106768332Y-74618399D01*
X106783563Y-74454034D01*
X106788570Y-74400004D01*
X106788570Y-74399995D01*
X106769898Y-74198505D01*
X106768332Y-74181601D01*
X106708309Y-73970639D01*
X106610543Y-73774299D01*
X106494554Y-73620705D01*
X106478362Y-73599263D01*
X106361923Y-73493115D01*
X106325056Y-73432441D01*
X106326845Y-73361467D01*
X106361923Y-73306885D01*
X106478362Y-73200736D01*
X106478364Y-73200734D01*
X106610543Y-73025701D01*
X106708309Y-72829361D01*
X106768332Y-72618399D01*
X106787134Y-72415500D01*
X106788570Y-72400004D01*
X106788570Y-72399995D01*
X106777767Y-72283417D01*
X106768332Y-72181601D01*
X106708309Y-71970639D01*
X106610543Y-71774299D01*
X106478364Y-71599266D01*
X106478362Y-71599263D01*
X106361552Y-71492777D01*
X106324685Y-71432103D01*
X106326474Y-71361129D01*
X106361552Y-71306547D01*
X106477991Y-71200398D01*
X106610114Y-71025438D01*
X106707839Y-70829179D01*
X106707841Y-70829174D01*
X106757683Y-70654000D01*
X105911686Y-70654000D01*
X105927641Y-70638045D01*
X105985165Y-70525148D01*
X106004986Y-70400000D01*
X105985165Y-70274852D01*
X105927641Y-70161955D01*
X105911686Y-70146000D01*
X106757683Y-70146000D01*
X106707842Y-69970827D01*
X106707838Y-69970815D01*
X106691158Y-69937318D01*
X106678698Y-69867423D01*
X106706005Y-69801888D01*
X106714843Y-69792069D01*
X107264057Y-69242855D01*
X107276492Y-69232894D01*
X107276305Y-69232667D01*
X107282416Y-69227611D01*
X107282415Y-69227611D01*
X107282418Y-69227610D01*
X107329752Y-69177202D01*
X107331067Y-69175845D01*
X107351534Y-69155380D01*
X107355829Y-69149842D01*
X107359671Y-69145341D01*
X107391986Y-69110931D01*
X107401745Y-69093177D01*
X107412597Y-69076656D01*
X107425013Y-69060651D01*
X107443747Y-69017358D01*
X107446361Y-69012022D01*
X107469094Y-68970671D01*
X107469095Y-68970670D01*
X107474133Y-68951045D01*
X107480538Y-68932340D01*
X107488581Y-68913755D01*
X107495963Y-68867135D01*
X107497161Y-68861354D01*
X107508900Y-68815640D01*
X107508900Y-68795378D01*
X107510451Y-68775668D01*
X107512682Y-68761586D01*
X107513619Y-68755667D01*
X107510421Y-68721831D01*
X107509180Y-68708699D01*
X107508900Y-68702767D01*
X107508900Y-53431553D01*
X107510649Y-53415711D01*
X107510356Y-53415684D01*
X107511102Y-53407791D01*
X107508931Y-53338711D01*
X107508900Y-53336732D01*
X107508900Y-53307850D01*
X107508900Y-53307844D01*
X107508020Y-53300882D01*
X107507556Y-53294993D01*
X107506074Y-53247811D01*
X107500417Y-53228342D01*
X107496412Y-53208998D01*
X107493874Y-53188903D01*
X107476500Y-53145022D01*
X107474581Y-53139416D01*
X107461418Y-53094107D01*
X107451106Y-53076670D01*
X107442410Y-53058921D01*
X107434952Y-53040083D01*
X107407212Y-53001903D01*
X107403964Y-52996958D01*
X107379942Y-52956338D01*
X107365614Y-52942010D01*
X107352784Y-52926989D01*
X107340872Y-52910593D01*
X107340869Y-52910591D01*
X107340869Y-52910590D01*
X107304507Y-52880508D01*
X107300126Y-52876522D01*
X103502044Y-49078439D01*
X103468018Y-49016127D01*
X103465829Y-49002514D01*
X103464273Y-48987712D01*
X103454642Y-48896072D01*
X103395627Y-48714444D01*
X103300140Y-48549056D01*
X103300138Y-48549054D01*
X103300134Y-48549048D01*
X103172355Y-48407135D01*
X103017852Y-48294882D01*
X102843388Y-48217206D01*
X102656587Y-48177500D01*
X102465613Y-48177500D01*
X102278811Y-48217206D01*
X102104347Y-48294882D01*
X101949844Y-48407135D01*
X101822065Y-48549048D01*
X101822058Y-48549058D01*
X101746306Y-48680265D01*
X101726573Y-48714444D01*
X101720849Y-48732062D01*
X101667557Y-48896072D01*
X101649838Y-49064670D01*
X101622825Y-49130327D01*
X101564604Y-49170957D01*
X101524528Y-49177500D01*
X100809847Y-49177500D01*
X100741726Y-49157498D01*
X100723595Y-49143351D01*
X100690932Y-49112679D01*
X100689541Y-49111331D01*
X100676709Y-49098499D01*
X100669081Y-49090870D01*
X100669077Y-49090866D01*
X100663530Y-49086563D01*
X100659022Y-49082712D01*
X100624630Y-49050417D01*
X100624624Y-49050413D01*
X100606868Y-49040651D01*
X100590352Y-49029802D01*
X100574346Y-49017386D01*
X100539978Y-49002514D01*
X100531045Y-48998648D01*
X100525713Y-48996036D01*
X100484366Y-48973305D01*
X100464741Y-48968266D01*
X100446041Y-48961864D01*
X100427450Y-48953819D01*
X100427448Y-48953818D01*
X100427447Y-48953818D01*
X100380847Y-48946437D01*
X100375034Y-48945233D01*
X100329335Y-48933500D01*
X100309081Y-48933500D01*
X100289371Y-48931949D01*
X100269362Y-48928780D01*
X100269361Y-48928780D01*
X100222388Y-48933220D01*
X100216455Y-48933500D01*
X96566853Y-48933500D01*
X96551011Y-48931750D01*
X96550984Y-48932044D01*
X96543091Y-48931298D01*
X96474024Y-48933469D01*
X96472045Y-48933500D01*
X96443144Y-48933500D01*
X96443140Y-48933500D01*
X96443130Y-48933501D01*
X96436179Y-48934379D01*
X96430267Y-48934844D01*
X96383112Y-48936326D01*
X96383110Y-48936327D01*
X96363655Y-48941978D01*
X96344302Y-48945986D01*
X96324210Y-48948524D01*
X96324202Y-48948526D01*
X96280336Y-48965893D01*
X96274721Y-48967816D01*
X96229407Y-48980982D01*
X96229402Y-48980984D01*
X96211963Y-48991297D01*
X96194218Y-48999990D01*
X96175380Y-49007449D01*
X96163437Y-49016127D01*
X96137212Y-49035180D01*
X96132261Y-49038433D01*
X96091640Y-49062455D01*
X96077307Y-49076787D01*
X96062281Y-49089620D01*
X96045890Y-49101529D01*
X96037922Y-49109010D01*
X96031832Y-49114047D01*
X96016514Y-49125178D01*
X96011548Y-49128441D01*
X95970939Y-49152457D01*
X95956611Y-49166784D01*
X95941585Y-49179617D01*
X95925195Y-49191525D01*
X95925193Y-49191527D01*
X95895113Y-49227886D01*
X95891117Y-49232277D01*
X95865235Y-49258158D01*
X95802923Y-49292184D01*
X95732108Y-49287119D01*
X95675272Y-49244572D01*
X95661526Y-49221404D01*
X95633522Y-49160082D01*
X95633520Y-49160080D01*
X95510778Y-48987712D01*
X95510777Y-48987711D01*
X95357636Y-48841691D01*
X95299289Y-48804194D01*
X95252796Y-48750538D01*
X95242692Y-48680265D01*
X95272185Y-48615684D01*
X95291902Y-48597327D01*
X95382504Y-48529503D01*
X95470044Y-48412565D01*
X95470044Y-48412564D01*
X95521094Y-48275693D01*
X95527599Y-48215197D01*
X95527600Y-48215185D01*
X95527600Y-47170600D01*
X94219600Y-47170600D01*
X94219600Y-46990003D01*
X103296573Y-46990003D01*
X103316256Y-47277765D01*
X103316257Y-47277770D01*
X103316258Y-47277778D01*
X103347087Y-47426135D01*
X103374943Y-47560189D01*
X103374945Y-47560196D01*
X103471541Y-47831992D01*
X103604247Y-48088103D01*
X103770591Y-48323758D01*
X103967474Y-48534568D01*
X103967483Y-48534575D01*
X103967487Y-48534579D01*
X104191220Y-48716600D01*
X104191222Y-48716601D01*
X104191228Y-48716606D01*
X104437686Y-48866481D01*
X104702256Y-48981400D01*
X104980011Y-49059223D01*
X105265761Y-49098499D01*
X105265775Y-49098500D01*
X105554225Y-49098500D01*
X105554238Y-49098499D01*
X105766000Y-49069392D01*
X105839989Y-49059223D01*
X106117744Y-48981400D01*
X106382314Y-48866481D01*
X106628772Y-48716606D01*
X106852526Y-48534568D01*
X107049409Y-48323758D01*
X107215753Y-48088103D01*
X107348459Y-47831992D01*
X107445055Y-47560196D01*
X107503742Y-47277778D01*
X107523427Y-46990000D01*
X107523420Y-46989901D01*
X107503743Y-46702234D01*
X107503742Y-46702229D01*
X107503742Y-46702222D01*
X107445055Y-46419804D01*
X107348459Y-46148008D01*
X107215753Y-45891897D01*
X107049409Y-45656242D01*
X106852526Y-45445432D01*
X106852516Y-45445424D01*
X106852512Y-45445420D01*
X106628779Y-45263399D01*
X106628775Y-45263396D01*
X106628772Y-45263394D01*
X106382314Y-45113519D01*
X106382310Y-45113517D01*
X106382308Y-45113516D01*
X106230341Y-45047508D01*
X106117744Y-44998600D01*
X105890354Y-44934888D01*
X105839986Y-44920776D01*
X105839988Y-44920776D01*
X105554238Y-44881500D01*
X105554225Y-44881500D01*
X105265775Y-44881500D01*
X105265761Y-44881500D01*
X104980012Y-44920776D01*
X104853566Y-44956205D01*
X104702256Y-44998600D01*
X104702253Y-44998601D01*
X104702254Y-44998601D01*
X104437691Y-45113516D01*
X104437686Y-45113518D01*
X104437686Y-45113519D01*
X104383608Y-45146405D01*
X104191220Y-45263399D01*
X103967487Y-45445420D01*
X103967471Y-45445435D01*
X103770591Y-45656242D01*
X103604247Y-45891896D01*
X103604247Y-45891897D01*
X103471541Y-46148007D01*
X103374945Y-46419802D01*
X103374943Y-46419810D01*
X103341144Y-46582462D01*
X103320279Y-46682876D01*
X103316257Y-46702229D01*
X103316256Y-46702234D01*
X103296573Y-46989996D01*
X103296573Y-46990003D01*
X94219600Y-46990003D01*
X94219600Y-46682876D01*
X94216544Y-46662600D01*
X95527600Y-46662600D01*
X95527600Y-45618014D01*
X95527599Y-45618002D01*
X95521094Y-45557506D01*
X95470044Y-45420635D01*
X95470044Y-45420634D01*
X95382504Y-45303695D01*
X95265565Y-45216155D01*
X95128693Y-45165105D01*
X95068197Y-45158600D01*
X94023600Y-45158600D01*
X94023600Y-46343631D01*
X93935860Y-46292975D01*
X93803608Y-46262790D01*
X93668335Y-46272927D01*
X93542059Y-46322487D01*
X93515600Y-46343587D01*
X93515600Y-45158600D01*
X92471002Y-45158600D01*
X92410506Y-45165105D01*
X92273635Y-45216155D01*
X92273634Y-45216155D01*
X92156695Y-45303695D01*
X92069155Y-45420634D01*
X92069155Y-45420635D01*
X92018105Y-45557506D01*
X92011600Y-45618002D01*
X92011600Y-46662600D01*
X93319600Y-46662600D01*
X93319600Y-47150324D01*
X93322656Y-47170600D01*
X92011600Y-47170600D01*
X92011600Y-48127167D01*
X91991598Y-48195288D01*
X91937942Y-48241781D01*
X91933819Y-48243575D01*
X91816764Y-48292061D01*
X91816757Y-48292065D01*
X91691318Y-48388318D01*
X91595065Y-48513757D01*
X91595063Y-48513760D01*
X91534555Y-48659839D01*
X91513918Y-48816599D01*
X91513918Y-48816600D01*
X91534555Y-48973360D01*
X91587645Y-49101529D01*
X91595064Y-49119441D01*
X91691318Y-49244882D01*
X91816759Y-49341136D01*
X91962838Y-49401644D01*
X92080239Y-49417100D01*
X92080246Y-49417100D01*
X92158954Y-49417100D01*
X92158961Y-49417100D01*
X92260765Y-49403697D01*
X92330912Y-49414636D01*
X92372434Y-49446106D01*
X92386726Y-49462600D01*
X93157914Y-49462600D01*
X93141959Y-49478555D01*
X93084435Y-49591452D01*
X93064614Y-49716600D01*
X93084435Y-49841748D01*
X93141959Y-49954645D01*
X93157914Y-49970600D01*
X92391080Y-49970600D01*
X92417775Y-50080638D01*
X92417777Y-50080645D01*
X92505677Y-50273115D01*
X92505679Y-50273119D01*
X92628421Y-50445487D01*
X92628422Y-50445488D01*
X92781564Y-50591509D01*
X92781565Y-50591510D01*
X92959575Y-50705908D01*
X92959580Y-50705911D01*
X93156014Y-50784552D01*
X93156020Y-50784553D01*
X93363794Y-50824599D01*
X93363803Y-50824600D01*
X93815600Y-50824600D01*
X93815600Y-49970600D01*
X93781286Y-49970600D01*
X93797241Y-49954645D01*
X93854765Y-49841748D01*
X93874586Y-49716600D01*
X93854765Y-49591452D01*
X93797241Y-49478555D01*
X93781286Y-49462600D01*
X94197600Y-49462600D01*
X94265721Y-49482602D01*
X94312214Y-49536258D01*
X94323600Y-49588600D01*
X94323600Y-50747605D01*
X94303598Y-50815726D01*
X94286695Y-50836700D01*
X92450200Y-52673195D01*
X92387888Y-52707221D01*
X92361105Y-52710100D01*
X88663494Y-52710100D01*
X88639883Y-52707868D01*
X88636491Y-52707221D01*
X88631796Y-52706325D01*
X88631790Y-52706325D01*
X88617552Y-52707221D01*
X88573750Y-52709976D01*
X88569817Y-52710100D01*
X79157744Y-52710100D01*
X79141905Y-52708351D01*
X79141878Y-52708645D01*
X79133986Y-52707899D01*
X79064939Y-52710069D01*
X79062960Y-52710100D01*
X77665595Y-52710100D01*
X77597474Y-52690098D01*
X77576500Y-52673195D01*
X76117055Y-51213750D01*
X76083029Y-51151438D01*
X76088094Y-51080623D01*
X76105282Y-51049145D01*
X76116991Y-51033504D01*
X76168091Y-50896501D01*
X76170858Y-50870770D01*
X76174601Y-50835949D01*
X76174602Y-50835932D01*
X76174602Y-49970600D01*
X84591080Y-49970600D01*
X84617775Y-50080638D01*
X84617777Y-50080645D01*
X84705677Y-50273115D01*
X84705679Y-50273119D01*
X84828421Y-50445487D01*
X84828422Y-50445488D01*
X84981564Y-50591509D01*
X84981565Y-50591510D01*
X85159575Y-50705908D01*
X85159580Y-50705911D01*
X85356014Y-50784552D01*
X85356020Y-50784553D01*
X85563794Y-50824599D01*
X85563803Y-50824600D01*
X86015600Y-50824600D01*
X86015600Y-49970600D01*
X84591080Y-49970600D01*
X76174602Y-49970600D01*
X76174602Y-49462600D01*
X84586726Y-49462600D01*
X86557914Y-49462600D01*
X86541959Y-49478555D01*
X86484435Y-49591452D01*
X86464614Y-49716600D01*
X86484435Y-49841748D01*
X86541959Y-49954645D01*
X86557914Y-49970600D01*
X86523600Y-49970600D01*
X86523600Y-50824600D01*
X86922379Y-50824600D01*
X86922400Y-50824598D01*
X87080233Y-50809527D01*
X87080248Y-50809524D01*
X87283277Y-50749910D01*
X87471354Y-50652949D01*
X87637685Y-50522144D01*
X87637691Y-50522139D01*
X87776256Y-50362225D01*
X87776257Y-50362224D01*
X87882054Y-50178977D01*
X87882058Y-50178968D01*
X87951262Y-49979015D01*
X87951264Y-49979009D01*
X87952473Y-49970600D01*
X87181286Y-49970600D01*
X87197241Y-49954645D01*
X87254765Y-49841748D01*
X87274586Y-49716600D01*
X87254765Y-49591452D01*
X87197241Y-49478555D01*
X87181286Y-49462600D01*
X87948117Y-49462600D01*
X87957966Y-49450076D01*
X88015798Y-49408894D01*
X88073452Y-49403041D01*
X88180239Y-49417100D01*
X88180246Y-49417100D01*
X88258954Y-49417100D01*
X88258961Y-49417100D01*
X88376362Y-49401644D01*
X88522441Y-49341136D01*
X88647882Y-49244882D01*
X88744136Y-49119441D01*
X88804644Y-48973362D01*
X88825282Y-48816600D01*
X88804644Y-48659838D01*
X88744136Y-48513759D01*
X88647882Y-48388318D01*
X88522441Y-48292064D01*
X88522438Y-48292062D01*
X88522435Y-48292061D01*
X88405381Y-48243575D01*
X88350100Y-48199027D01*
X88327680Y-48131663D01*
X88327600Y-48127167D01*
X88327600Y-47170600D01*
X87019600Y-47170600D01*
X87019600Y-46682876D01*
X87016544Y-46662600D01*
X88327600Y-46662600D01*
X88327600Y-45618014D01*
X88327599Y-45618002D01*
X88321094Y-45557506D01*
X88270044Y-45420635D01*
X88270044Y-45420634D01*
X88182504Y-45303695D01*
X88065565Y-45216155D01*
X87928693Y-45165105D01*
X87868197Y-45158600D01*
X86823600Y-45158600D01*
X86823600Y-46343631D01*
X86735860Y-46292975D01*
X86603608Y-46262790D01*
X86468335Y-46272927D01*
X86342059Y-46322487D01*
X86315600Y-46343587D01*
X86315600Y-45158600D01*
X85271002Y-45158600D01*
X85210506Y-45165105D01*
X85073635Y-45216155D01*
X85073634Y-45216155D01*
X84956695Y-45303695D01*
X84869155Y-45420634D01*
X84869155Y-45420635D01*
X84818105Y-45557506D01*
X84811600Y-45618002D01*
X84811600Y-46662600D01*
X86119600Y-46662600D01*
X86119600Y-47150324D01*
X86122656Y-47170600D01*
X84811600Y-47170600D01*
X84811600Y-48215197D01*
X84818105Y-48275693D01*
X84869155Y-48412564D01*
X84869155Y-48412565D01*
X84956695Y-48529504D01*
X85045538Y-48596011D01*
X85088085Y-48652847D01*
X85093149Y-48723663D01*
X85059124Y-48785975D01*
X85047917Y-48795921D01*
X84901520Y-48911049D01*
X84901508Y-48911060D01*
X84762943Y-49070974D01*
X84762942Y-49070975D01*
X84657145Y-49254222D01*
X84657141Y-49254231D01*
X84587937Y-49454184D01*
X84587935Y-49454190D01*
X84586726Y-49462600D01*
X76174602Y-49462600D01*
X76174602Y-48732067D01*
X76174601Y-48732050D01*
X76168092Y-48671503D01*
X76168090Y-48671495D01*
X76122422Y-48549058D01*
X76116991Y-48534496D01*
X76116990Y-48534494D01*
X76116989Y-48534492D01*
X76029363Y-48417438D01*
X75912309Y-48329812D01*
X75912304Y-48329810D01*
X75775306Y-48278711D01*
X75775298Y-48278709D01*
X75714751Y-48272200D01*
X75714740Y-48272200D01*
X74525264Y-48272200D01*
X74525252Y-48272200D01*
X74464705Y-48278709D01*
X74464697Y-48278711D01*
X74327699Y-48329810D01*
X74327694Y-48329812D01*
X74210639Y-48417439D01*
X74209091Y-48418988D01*
X74207171Y-48420036D01*
X74203427Y-48422839D01*
X74203023Y-48422300D01*
X74146776Y-48453009D01*
X74075961Y-48447940D01*
X74036683Y-48422695D01*
X74036576Y-48422839D01*
X74034566Y-48421334D01*
X74030906Y-48418982D01*
X74029364Y-48417440D01*
X73912308Y-48329812D01*
X73912303Y-48329810D01*
X73775305Y-48278711D01*
X73775297Y-48278709D01*
X73714750Y-48272200D01*
X73714739Y-48272200D01*
X72525263Y-48272200D01*
X72525251Y-48272200D01*
X72464704Y-48278709D01*
X72464696Y-48278711D01*
X72327698Y-48329810D01*
X72327693Y-48329812D01*
X72210638Y-48417439D01*
X72209090Y-48418988D01*
X72207170Y-48420036D01*
X72203426Y-48422839D01*
X72203022Y-48422300D01*
X72146775Y-48453009D01*
X72075960Y-48447940D01*
X72036682Y-48422695D01*
X72036575Y-48422839D01*
X72034565Y-48421334D01*
X72030905Y-48418982D01*
X72029363Y-48417440D01*
X71912307Y-48329812D01*
X71912302Y-48329810D01*
X71775304Y-48278711D01*
X71775296Y-48278709D01*
X71714749Y-48272200D01*
X71714738Y-48272200D01*
X70525262Y-48272200D01*
X70525250Y-48272200D01*
X70464703Y-48278709D01*
X70464695Y-48278711D01*
X70327697Y-48329810D01*
X70327692Y-48329812D01*
X70210638Y-48417438D01*
X70123012Y-48534492D01*
X70123010Y-48534497D01*
X70071911Y-48671495D01*
X70071909Y-48671503D01*
X70065400Y-48732050D01*
X70065400Y-50835949D01*
X70071909Y-50896496D01*
X70071911Y-50896504D01*
X70123010Y-51033502D01*
X70123012Y-51033507D01*
X70210638Y-51150561D01*
X70326471Y-51237273D01*
X70369018Y-51294109D01*
X70374082Y-51364925D01*
X70340057Y-51427236D01*
X69586636Y-52180657D01*
X69574201Y-52190621D01*
X69574389Y-52190848D01*
X69568279Y-52195902D01*
X69520994Y-52246255D01*
X69519619Y-52247674D01*
X69499163Y-52268131D01*
X69494860Y-52273677D01*
X69491014Y-52278179D01*
X69458717Y-52312574D01*
X69458711Y-52312583D01*
X69448951Y-52330335D01*
X69438103Y-52346850D01*
X69425686Y-52362858D01*
X69406945Y-52406164D01*
X69404334Y-52411494D01*
X69381605Y-52452839D01*
X69381603Y-52452844D01*
X69376567Y-52472459D01*
X69370164Y-52491162D01*
X69362119Y-52509752D01*
X69354737Y-52556356D01*
X69353533Y-52562168D01*
X69341800Y-52607868D01*
X69341800Y-52628123D01*
X69340249Y-52647833D01*
X69337080Y-52667842D01*
X69337080Y-52667843D01*
X69341520Y-52714817D01*
X69341800Y-52720750D01*
X69341800Y-54415500D01*
X69321798Y-54483621D01*
X69268142Y-54530114D01*
X69215800Y-54541500D01*
X65001350Y-54541500D01*
X64940803Y-54548009D01*
X64940795Y-54548011D01*
X64803797Y-54599110D01*
X64803792Y-54599112D01*
X64686738Y-54686738D01*
X64599112Y-54803792D01*
X64599110Y-54803797D01*
X64548011Y-54940795D01*
X64548009Y-54940803D01*
X64541500Y-55001350D01*
X64541500Y-56098649D01*
X63500500Y-56098649D01*
X63500500Y-46991770D01*
X63500550Y-46990003D01*
X63926573Y-46990003D01*
X63946256Y-47277765D01*
X63946257Y-47277770D01*
X63946258Y-47277778D01*
X63977087Y-47426135D01*
X64004943Y-47560189D01*
X64004945Y-47560196D01*
X64101541Y-47831992D01*
X64234247Y-48088103D01*
X64400591Y-48323758D01*
X64597474Y-48534568D01*
X64597483Y-48534575D01*
X64597487Y-48534579D01*
X64821220Y-48716600D01*
X64821222Y-48716601D01*
X64821228Y-48716606D01*
X65067686Y-48866481D01*
X65332256Y-48981400D01*
X65610011Y-49059223D01*
X65895761Y-49098499D01*
X65895775Y-49098500D01*
X66184225Y-49098500D01*
X66184238Y-49098499D01*
X66396000Y-49069392D01*
X66469989Y-49059223D01*
X66747744Y-48981400D01*
X67012314Y-48866481D01*
X67258772Y-48716606D01*
X67482526Y-48534568D01*
X67679409Y-48323758D01*
X67845753Y-48088103D01*
X67978459Y-47831992D01*
X68075055Y-47560196D01*
X68133742Y-47277778D01*
X68153427Y-46990000D01*
X68153420Y-46989901D01*
X68133743Y-46702234D01*
X68133742Y-46702229D01*
X68133742Y-46702222D01*
X68075055Y-46419804D01*
X67978459Y-46148008D01*
X67845753Y-45891897D01*
X67679409Y-45656242D01*
X67482526Y-45445432D01*
X67482516Y-45445424D01*
X67482512Y-45445420D01*
X67258779Y-45263399D01*
X67258775Y-45263396D01*
X67258772Y-45263394D01*
X67012314Y-45113519D01*
X67012310Y-45113517D01*
X67012308Y-45113516D01*
X66860341Y-45047508D01*
X66747744Y-44998600D01*
X66520354Y-44934888D01*
X66469986Y-44920776D01*
X66469988Y-44920776D01*
X66184238Y-44881500D01*
X66184225Y-44881500D01*
X65895775Y-44881500D01*
X65895761Y-44881500D01*
X65610012Y-44920776D01*
X65483566Y-44956205D01*
X65332256Y-44998600D01*
X65332253Y-44998601D01*
X65332254Y-44998601D01*
X65067691Y-45113516D01*
X65067686Y-45113518D01*
X65067686Y-45113519D01*
X65013608Y-45146405D01*
X64821220Y-45263399D01*
X64597487Y-45445420D01*
X64597471Y-45445435D01*
X64400591Y-45656242D01*
X64234247Y-45891896D01*
X64234247Y-45891897D01*
X64101541Y-46148007D01*
X64004945Y-46419802D01*
X64004943Y-46419810D01*
X63971144Y-46582462D01*
X63950279Y-46682876D01*
X63946257Y-46702229D01*
X63946256Y-46702234D01*
X63926573Y-46989996D01*
X63926573Y-46990003D01*
X63500550Y-46990003D01*
X63500599Y-46988237D01*
X63506992Y-46874398D01*
X63517397Y-46702373D01*
X63518172Y-46695635D01*
X63523785Y-46662600D01*
X63541285Y-46559601D01*
X63568552Y-46410816D01*
X63569980Y-46404743D01*
X63609191Y-46268639D01*
X63609567Y-46267380D01*
X63653257Y-46127177D01*
X63655174Y-46121883D01*
X63710051Y-45989399D01*
X63710737Y-45987810D01*
X63770325Y-45855410D01*
X63772620Y-45850823D01*
X63842430Y-45724512D01*
X63843532Y-45722607D01*
X63918224Y-45599051D01*
X63920710Y-45595261D01*
X64004437Y-45477259D01*
X64006178Y-45474925D01*
X64094931Y-45361640D01*
X64097475Y-45358601D01*
X64194042Y-45250542D01*
X64196370Y-45248080D01*
X64298080Y-45146370D01*
X64300542Y-45144042D01*
X64408601Y-45047475D01*
X64411640Y-45044931D01*
X64524925Y-44956178D01*
X64527259Y-44954437D01*
X64645261Y-44870710D01*
X64649051Y-44868224D01*
X64772607Y-44793532D01*
X64774512Y-44792430D01*
X64900823Y-44722620D01*
X64905410Y-44720325D01*
X65037810Y-44660737D01*
X65039399Y-44660051D01*
X65171883Y-44605174D01*
X65177177Y-44603257D01*
X65317380Y-44559567D01*
X65318639Y-44559191D01*
X65368095Y-44544943D01*
X65454750Y-44519978D01*
X65460816Y-44518552D01*
X65609601Y-44491285D01*
X65745641Y-44468171D01*
X65752373Y-44467397D01*
X65924399Y-44456992D01*
X66035202Y-44450769D01*
X66038238Y-44450599D01*
X66041771Y-44450500D01*
X70252560Y-44450500D01*
X70320681Y-44470502D01*
G37*
%TD.AperFunction*%
%TD*%
%TA.AperFunction,NonConductor*%
G36*
X101753923Y-50464502D02*
G01*
X101800416Y-50518158D01*
X101810520Y-50588432D01*
X101781026Y-50653012D01*
X101721300Y-50691396D01*
X101699272Y-50695778D01*
X101673905Y-50698505D01*
X101537037Y-50749553D01*
X101533911Y-50751261D01*
X101530430Y-50752018D01*
X101528594Y-50752703D01*
X101528495Y-50752439D01*
X101464536Y-50766352D01*
X101413144Y-50751262D01*
X101409204Y-50749111D01*
X101272204Y-50698011D01*
X101272196Y-50698009D01*
X101251435Y-50695778D01*
X101185843Y-50668610D01*
X101145351Y-50610292D01*
X101142817Y-50539340D01*
X101179044Y-50478282D01*
X101242530Y-50446502D01*
X101264903Y-50444500D01*
X101685802Y-50444500D01*
X101753923Y-50464502D01*
G37*
%TD.AperFunction*%
%TA.AperFunction,NonConductor*%
G36*
X100000885Y-50220502D02*
G01*
X100019013Y-50234647D01*
X100051677Y-50265320D01*
X100053066Y-50266666D01*
X100059515Y-50273115D01*
X100073529Y-50287130D01*
X100073533Y-50287133D01*
X100073535Y-50287135D01*
X100079087Y-50291442D01*
X100083574Y-50295273D01*
X100106264Y-50316581D01*
X100117982Y-50327585D01*
X100117984Y-50327586D01*
X100135733Y-50337343D01*
X100152258Y-50348198D01*
X100168264Y-50360614D01*
X100209991Y-50378670D01*
X100211567Y-50379352D01*
X100216888Y-50381958D01*
X100258245Y-50404695D01*
X100258253Y-50404697D01*
X100277863Y-50409732D01*
X100296572Y-50416137D01*
X100315160Y-50424181D01*
X100361782Y-50431564D01*
X100367567Y-50432763D01*
X100413275Y-50444500D01*
X100413284Y-50444500D01*
X100421138Y-50445493D01*
X100420899Y-50447378D01*
X100479218Y-50464502D01*
X100525711Y-50518158D01*
X100535815Y-50588432D01*
X100506321Y-50653012D01*
X100446595Y-50691396D01*
X100424565Y-50695778D01*
X100403803Y-50698009D01*
X100403795Y-50698011D01*
X100266795Y-50749111D01*
X100262852Y-50751264D01*
X100258466Y-50752217D01*
X100258353Y-50752260D01*
X100258346Y-50752243D01*
X100193476Y-50766351D01*
X100142092Y-50751263D01*
X100138964Y-50749555D01*
X100002093Y-50698505D01*
X99941597Y-50692000D01*
X99822000Y-50692000D01*
X99822000Y-52708000D01*
X99801998Y-52776121D01*
X99748342Y-52822614D01*
X99696000Y-52834000D01*
X98170000Y-52834000D01*
X98101879Y-52813998D01*
X98055386Y-52760342D01*
X98044000Y-52708000D01*
X98044000Y-50692000D01*
X98552000Y-50692000D01*
X98552000Y-52326000D01*
X99314000Y-52326000D01*
X99314000Y-50692000D01*
X99194402Y-50692000D01*
X99133906Y-50698505D01*
X98997033Y-50749556D01*
X98993376Y-50751553D01*
X98989308Y-50752437D01*
X98988594Y-50752704D01*
X98988555Y-50752601D01*
X98924000Y-50766638D01*
X98872624Y-50751553D01*
X98868966Y-50749556D01*
X98732093Y-50698505D01*
X98671597Y-50692000D01*
X98552000Y-50692000D01*
X98044000Y-50692000D01*
X97924402Y-50692000D01*
X97863905Y-50698505D01*
X97727037Y-50749553D01*
X97723911Y-50751261D01*
X97720430Y-50752018D01*
X97718594Y-50752703D01*
X97718495Y-50752439D01*
X97654536Y-50766352D01*
X97603144Y-50751262D01*
X97599204Y-50749111D01*
X97462204Y-50698011D01*
X97462196Y-50698009D01*
X97401649Y-50691500D01*
X97401638Y-50691500D01*
X96654362Y-50691500D01*
X96654350Y-50691500D01*
X96593803Y-50698009D01*
X96593802Y-50698010D01*
X96593799Y-50698010D01*
X96593799Y-50698011D01*
X96535858Y-50719622D01*
X96465043Y-50724687D01*
X96402731Y-50690661D01*
X96368706Y-50628349D01*
X96373770Y-50557534D01*
X96402727Y-50512475D01*
X96677800Y-50237402D01*
X96740110Y-50203379D01*
X96766893Y-50200500D01*
X99932764Y-50200500D01*
X100000885Y-50220502D01*
G37*
%TD.AperFunction*%
%TA.AperFunction,NonConductor*%
G36*
X84111327Y-58214302D02*
G01*
X84132301Y-58231205D01*
X87889753Y-61988657D01*
X87899720Y-62001097D01*
X87899947Y-62000910D01*
X87904999Y-62007017D01*
X87955388Y-62054335D01*
X87956777Y-62055681D01*
X87967018Y-62065922D01*
X87977226Y-62076131D01*
X87982768Y-62080430D01*
X87987281Y-62084285D01*
X88021679Y-62116586D01*
X88021680Y-62116586D01*
X88021682Y-62116588D01*
X88039429Y-62126344D01*
X88055959Y-62137202D01*
X88071959Y-62149613D01*
X88103136Y-62163104D01*
X88115251Y-62168347D01*
X88120585Y-62170959D01*
X88161940Y-62193695D01*
X88181562Y-62198733D01*
X88200263Y-62205135D01*
X88218855Y-62213181D01*
X88265470Y-62220563D01*
X88271242Y-62221758D01*
X88316970Y-62233500D01*
X88337231Y-62233500D01*
X88356939Y-62235050D01*
X88376943Y-62238219D01*
X88410459Y-62235051D01*
X88423910Y-62233780D01*
X88429842Y-62233500D01*
X94973306Y-62233500D01*
X95041427Y-62253502D01*
X95062401Y-62270405D01*
X97938827Y-65146832D01*
X97972853Y-65209144D01*
X97975042Y-65222756D01*
X97992407Y-65387977D01*
X97998085Y-65405451D01*
X98051423Y-65569606D01*
X98063569Y-65590644D01*
X98146908Y-65734991D01*
X98146915Y-65735001D01*
X98274694Y-65876914D01*
X98298259Y-65894035D01*
X98341613Y-65950257D01*
X98347688Y-66020993D01*
X98314557Y-66083785D01*
X98275447Y-66111077D01*
X98114854Y-66182578D01*
X98114848Y-66182582D01*
X97960346Y-66294834D01*
X97955658Y-66300041D01*
X97895212Y-66337279D01*
X97824228Y-66335927D01*
X97772928Y-66304824D01*
X96873555Y-65405451D01*
X95924044Y-64455939D01*
X95914079Y-64443501D01*
X95913852Y-64443690D01*
X95908801Y-64437584D01*
X95908800Y-64437582D01*
X95858426Y-64390278D01*
X95857037Y-64388932D01*
X95842937Y-64374832D01*
X95836576Y-64368470D01*
X95836572Y-64368466D01*
X95831025Y-64364163D01*
X95826517Y-64360312D01*
X95792125Y-64328017D01*
X95792119Y-64328013D01*
X95774363Y-64318251D01*
X95757847Y-64307402D01*
X95741841Y-64294986D01*
X95711089Y-64281678D01*
X95698540Y-64276248D01*
X95693208Y-64273636D01*
X95651861Y-64250905D01*
X95632236Y-64245866D01*
X95613536Y-64239464D01*
X95594945Y-64231419D01*
X95594943Y-64231418D01*
X95594942Y-64231418D01*
X95548342Y-64224037D01*
X95542529Y-64222833D01*
X95496830Y-64211100D01*
X95476576Y-64211100D01*
X95456866Y-64209549D01*
X95436857Y-64206380D01*
X95436856Y-64206380D01*
X95389883Y-64210820D01*
X95383950Y-64211100D01*
X86508804Y-64211100D01*
X86457556Y-64200207D01*
X86423190Y-64184906D01*
X86236387Y-64145200D01*
X86045413Y-64145200D01*
X85858611Y-64184906D01*
X85684147Y-64262582D01*
X85529649Y-64374832D01*
X85529642Y-64374838D01*
X85525139Y-64379839D01*
X85464690Y-64417074D01*
X85393706Y-64415716D01*
X85342415Y-64384616D01*
X84544139Y-63586340D01*
X83728405Y-62770605D01*
X83694379Y-62708293D01*
X83691500Y-62681510D01*
X83691500Y-61281524D01*
X83711502Y-61213403D01*
X83723858Y-61197220D01*
X83797040Y-61115944D01*
X83892527Y-60950556D01*
X83951542Y-60768928D01*
X83971504Y-60579000D01*
X83951542Y-60389072D01*
X83892527Y-60207444D01*
X83797040Y-60042056D01*
X83797038Y-60042054D01*
X83797034Y-60042048D01*
X83669255Y-59900135D01*
X83514752Y-59787882D01*
X83340288Y-59710206D01*
X83153487Y-59670500D01*
X82962513Y-59670500D01*
X82775711Y-59710206D01*
X82601247Y-59787882D01*
X82551961Y-59823691D01*
X82485093Y-59847550D01*
X82415941Y-59831469D01*
X82366461Y-59780555D01*
X82351900Y-59721755D01*
X82351900Y-59196255D01*
X82353649Y-59180414D01*
X82353356Y-59180387D01*
X82354102Y-59172493D01*
X82351931Y-59103423D01*
X82351900Y-59101444D01*
X82351900Y-59072549D01*
X82351900Y-59072544D01*
X82351019Y-59065578D01*
X82350555Y-59059682D01*
X82349073Y-59012510D01*
X82343422Y-58993063D01*
X82339412Y-58973700D01*
X82337788Y-58960841D01*
X82336874Y-58953603D01*
X82319499Y-58909720D01*
X82317579Y-58904111D01*
X82317488Y-58903797D01*
X82304418Y-58858807D01*
X82294105Y-58841369D01*
X82285410Y-58823622D01*
X82277952Y-58804783D01*
X82250221Y-58766615D01*
X82246962Y-58761655D01*
X82246025Y-58760071D01*
X82222942Y-58721037D01*
X82222941Y-58721035D01*
X82208618Y-58706712D01*
X82195777Y-58691679D01*
X82183871Y-58675292D01*
X82171842Y-58665341D01*
X82147508Y-58645210D01*
X82143136Y-58641231D01*
X81911299Y-58409394D01*
X81877274Y-58347083D01*
X81882339Y-58276268D01*
X81924886Y-58219432D01*
X81991406Y-58194621D01*
X82000395Y-58194300D01*
X84043206Y-58194300D01*
X84111327Y-58214302D01*
G37*
%TD.AperFunction*%
%TA.AperFunction,NonConductor*%
G36*
X82560412Y-63394875D02*
G01*
X82567037Y-63401046D01*
X82567485Y-63401494D01*
X82567836Y-63401845D01*
X82580617Y-63416819D01*
X82584366Y-63421978D01*
X82592528Y-63433212D01*
X82611191Y-63448651D01*
X82628886Y-63463290D01*
X82633267Y-63467276D01*
X84083528Y-64917537D01*
X85488969Y-66322978D01*
X85522995Y-66385290D01*
X85517930Y-66456105D01*
X85493511Y-66496383D01*
X85390261Y-66611054D01*
X85390258Y-66611058D01*
X85294776Y-66776438D01*
X85294773Y-66776444D01*
X85280299Y-66820986D01*
X85235757Y-66958072D01*
X85215796Y-67147999D01*
X85235757Y-67337927D01*
X85261032Y-67415712D01*
X85294773Y-67519556D01*
X85294776Y-67519561D01*
X85390258Y-67684941D01*
X85390265Y-67684951D01*
X85518044Y-67826864D01*
X85553198Y-67852405D01*
X85672548Y-67939118D01*
X85847012Y-68016794D01*
X86033813Y-68056500D01*
X86224787Y-68056500D01*
X86411588Y-68016794D01*
X86586052Y-67939118D01*
X86740553Y-67826866D01*
X86743862Y-67823190D01*
X86804309Y-67785950D01*
X86837500Y-67781500D01*
X93318246Y-67781500D01*
X93386367Y-67801502D01*
X93432860Y-67855158D01*
X93442964Y-67925432D01*
X93427365Y-67970500D01*
X93394376Y-68027638D01*
X93394373Y-68027645D01*
X93335357Y-68209272D01*
X93315396Y-68399200D01*
X93328401Y-68522942D01*
X93315628Y-68592781D01*
X93267126Y-68644627D01*
X93198293Y-68662021D01*
X93130983Y-68639439D01*
X93129030Y-68638048D01*
X93116552Y-68628982D01*
X92942088Y-68551306D01*
X92755287Y-68511600D01*
X92564313Y-68511600D01*
X92377511Y-68551306D01*
X92203047Y-68628982D01*
X92048546Y-68741234D01*
X92030221Y-68761586D01*
X91969775Y-68798824D01*
X91898791Y-68797472D01*
X91839807Y-68757957D01*
X91816753Y-68716211D01*
X91812385Y-68702767D01*
X91782127Y-68609644D01*
X91686640Y-68444256D01*
X91686638Y-68444254D01*
X91686634Y-68444248D01*
X91558855Y-68302335D01*
X91404352Y-68190082D01*
X91229888Y-68112406D01*
X91043087Y-68072700D01*
X90852113Y-68072700D01*
X90665311Y-68112406D01*
X90490847Y-68190082D01*
X90336344Y-68302335D01*
X90208565Y-68444248D01*
X90208558Y-68444258D01*
X90113076Y-68609638D01*
X90113073Y-68609645D01*
X90054057Y-68791272D01*
X90036692Y-68956492D01*
X90009679Y-69022149D01*
X90000477Y-69032416D01*
X89839936Y-69192957D01*
X89777624Y-69226983D01*
X89706809Y-69221918D01*
X89649973Y-69179371D01*
X89631008Y-69142798D01*
X89605127Y-69063144D01*
X89509640Y-68897756D01*
X89509638Y-68897754D01*
X89509634Y-68897748D01*
X89381855Y-68755835D01*
X89227352Y-68643582D01*
X89052888Y-68565906D01*
X88866087Y-68526200D01*
X88675113Y-68526200D01*
X88488311Y-68565906D01*
X88313847Y-68643582D01*
X88159347Y-68755833D01*
X88156037Y-68759510D01*
X88095591Y-68796750D01*
X88062400Y-68801200D01*
X82756370Y-68801200D01*
X82688249Y-68781198D01*
X82641756Y-68727542D01*
X82631060Y-68662031D01*
X82631117Y-68661481D01*
X82631904Y-68654000D01*
X82611942Y-68464072D01*
X82552927Y-68282444D01*
X82457440Y-68117056D01*
X82384263Y-68035784D01*
X82353546Y-67971776D01*
X82351900Y-67951474D01*
X82351900Y-63490099D01*
X82371902Y-63421978D01*
X82425558Y-63375485D01*
X82495832Y-63365381D01*
X82560412Y-63394875D01*
G37*
%TD.AperFunction*%
M02*
