%TF.GenerationSoftware,KiCad,Pcbnew,(6.0.1)*%
%TF.CreationDate,2022-01-27T18:06:15-06:00*%
%TF.ProjectId,dropkick,64726f70-6b69-4636-9b2e-6b696361645f,rev?*%
%TF.SameCoordinates,Original*%
%TF.FileFunction,Soldermask,Bot*%
%TF.FilePolarity,Negative*%
%FSLAX46Y46*%
G04 Gerber Fmt 4.6, Leading zero omitted, Abs format (unit mm)*
G04 Created by KiCad (PCBNEW (6.0.1)) date 2022-01-27 18:06:15*
%MOMM*%
%LPD*%
G01*
G04 APERTURE LIST*
G04 Aperture macros list*
%AMRoundRect*
0 Rectangle with rounded corners*
0 $1 Rounding radius*
0 $2 $3 $4 $5 $6 $7 $8 $9 X,Y pos of 4 corners*
0 Add a 4 corners polygon primitive as box body*
4,1,4,$2,$3,$4,$5,$6,$7,$8,$9,$2,$3,0*
0 Add four circle primitives for the rounded corners*
1,1,$1+$1,$2,$3*
1,1,$1+$1,$4,$5*
1,1,$1+$1,$6,$7*
1,1,$1+$1,$8,$9*
0 Add four rect primitives between the rounded corners*
20,1,$1+$1,$2,$3,$4,$5,0*
20,1,$1+$1,$4,$5,$6,$7,0*
20,1,$1+$1,$6,$7,$8,$9,0*
20,1,$1+$1,$8,$9,$2,$3,0*%
G04 Aperture macros list end*
%ADD10C,3.301600*%
%ADD11C,0.700000*%
%ADD12O,2.501600X1.301600*%
%ADD13RoundRect,0.050800X-1.250000X1.250000X-1.250000X-1.250000X1.250000X-1.250000X1.250000X1.250000X0*%
%ADD14C,1.070000*%
%ADD15C,1.400000*%
%ADD16R,1.700000X1.700000*%
%ADD17O,1.700000X1.700000*%
%ADD18RoundRect,0.050800X0.750000X-0.350000X0.750000X0.350000X-0.750000X0.350000X-0.750000X-0.350000X0*%
%ADD19RoundRect,0.050800X-0.700000X-0.900000X0.700000X-0.900000X0.700000X0.900000X-0.700000X0.900000X0*%
%ADD20RoundRect,0.050800X0.950000X-0.700000X0.950000X0.700000X-0.950000X0.700000X-0.950000X-0.700000X0*%
%ADD21RoundRect,0.050800X2.300000X-0.500000X2.300000X0.500000X-2.300000X0.500000X-2.300000X-0.500000X0*%
%ADD22RoundRect,0.050800X-1.700000X-0.800000X1.700000X-0.800000X1.700000X0.800000X-1.700000X0.800000X0*%
%ADD23R,1.092200X2.006600*%
%ADD24C,1.397000*%
%ADD25R,0.650000X2.760000*%
%ADD26R,0.650000X2.750000*%
G04 APERTURE END LIST*
D10*
%TO.C,H2*%
X105410000Y-46990000D03*
%TD*%
%TO.C,H1*%
X66040000Y-46990000D03*
%TD*%
%TO.C,H4*%
X105410000Y-92710000D03*
%TD*%
%TO.C,H3*%
X66040000Y-92710000D03*
%TD*%
D11*
%TO.C,X1*%
X88219600Y-48816600D03*
X92119600Y-48816600D03*
D12*
X94069600Y-49716600D03*
X86269600Y-49716600D03*
D13*
X93769600Y-46916600D03*
X86569600Y-46916600D03*
%TD*%
D14*
%TO.C,B1*%
X73700000Y-67000000D03*
D15*
X73700000Y-74500000D03*
%TD*%
D16*
%TO.C,J1*%
X105700000Y-60800000D03*
D17*
X105700000Y-63340000D03*
X105700000Y-65880000D03*
X105700000Y-68420000D03*
X105700000Y-70960000D03*
X105700000Y-73500000D03*
X105700000Y-76040000D03*
X105700000Y-78580000D03*
%TD*%
D18*
%TO.C,X3*%
X69500000Y-66800000D03*
X69900000Y-67900000D03*
X69500000Y-69000000D03*
X69100000Y-70100000D03*
X69500000Y-71200000D03*
X69100000Y-72300000D03*
X69500000Y-73400000D03*
X69500000Y-74500000D03*
D19*
X79700000Y-73800000D03*
X79700000Y-67800000D03*
D20*
X66600000Y-75400000D03*
X65700000Y-62200000D03*
%TD*%
D21*
%TO.C,X2*%
X67350000Y-57550000D03*
X67350000Y-55550000D03*
D22*
X72550000Y-59950000D03*
X72550000Y-53150000D03*
%TD*%
D23*
%TO.C,SW1*%
X71120000Y-49784000D03*
X73120001Y-49784000D03*
X75120002Y-49784000D03*
D24*
X70994999Y-45683932D03*
X77244999Y-45683932D03*
%TD*%
D25*
%TO.C,JP2*%
X97028000Y-52580000D03*
X97028000Y-56640000D03*
X98298000Y-52580000D03*
D26*
X98298000Y-56640000D03*
D25*
X99568000Y-52580000D03*
X99568000Y-56640000D03*
X100838000Y-52580000D03*
X100838000Y-56640000D03*
X102108000Y-52580000D03*
X102108000Y-56640000D03*
%TD*%
M02*
