M48
; DRILL file {KiCad (6.0.1)} date Thu Jan 27 18:06:19 2022
; FORMAT={-:-/ absolute / inch / decimal}
; #@! TF.CreationDate,2022-01-27T18:06:19-06:00
; #@! TF.GenerationSoftware,Kicad,Pcbnew,(6.0.1)
; #@! TF.FileFunction,Plated,1,2,PTH
FMAT,2
INCH
; #@! TA.AperFunction,Plated,PTH,ViaDrill
T1C0.0157
; #@! TA.AperFunction,Plated,PTH,ComponentDrill
T2C0.0315
; #@! TA.AperFunction,Plated,PTH,ComponentDrill
T3C0.0350
; #@! TA.AperFunction,Plated,PTH,ComponentDrill
T4C0.0354
; #@! TA.AperFunction,Plated,PTH,ComponentDrill
T5C0.0394
; #@! TA.AperFunction,Plated,PTH,ComponentDrill
T6C0.0984
%
G90
G05
T1
X2.6668Y-2.7554
X2.6746Y-2.9164
X2.7319Y-2.3092
X3.055Y-2.3557
X3.1223Y-2.1314
X3.1528Y-2.1691
X3.1614Y-3.3189
X3.187Y-1.9573
X3.1931Y-2.2247
X3.1993Y-2.2662
X3.2062Y-2.3668
X3.2173Y-2.7029
X3.2559Y-3.0079
X3.3784Y-2.1531
X3.3909Y-2.6436
X3.3914Y-2.5612
X3.4879Y-2.1184
X3.4911Y-2.9255
X3.4949Y-2.7336
X3.4955Y-2.5818
X3.5252Y-2.4001
X3.5646Y-2.4029
X3.5806Y-2.7158
X3.648Y-2.7331
X3.6555Y-2.3044
X3.6555Y-2.8357
X3.6654Y-2.1417
X3.7008Y-2.2008
X3.7098Y-2.6929
X3.7831Y-2.2142
X3.8808Y-2.6368
X3.9105Y-2.5842
X3.9248Y-2.1483
X4.0064Y-2.6589
X4.0378Y-1.9325
X4.0833Y-2.0176
X4.0934Y-2.3346
T2
X3.4201Y-1.9573
X3.6799Y-1.9573
T3
X2.7951Y-1.7986
X3.0411Y-1.7986
T5
X4.1614Y-2.3937
X4.1614Y-2.4937
X4.1614Y-2.5937
X4.1614Y-2.6937
X4.1614Y-2.7937
X4.1614Y-2.8937
X4.1614Y-2.9937
X4.1614Y-3.0937
T6
X2.6Y-1.85
X2.6Y-3.65
X4.15Y-1.85
X4.15Y-3.65
T4
G00X3.4083Y-1.8392
M15
G01X3.4083Y-1.855
M16
G05
G00X3.6917Y-1.8392
M15
G01X3.6917Y-1.855
M16
G05
T0
M30
