%TF.GenerationSoftware,KiCad,Pcbnew,(6.0.1)*%
%TF.CreationDate,2022-01-27T18:06:15-06:00*%
%TF.ProjectId,dropkick,64726f70-6b69-4636-9b2e-6b696361645f,rev?*%
%TF.SameCoordinates,Original*%
%TF.FileFunction,Copper,L2,Bot*%
%TF.FilePolarity,Positive*%
%FSLAX46Y46*%
G04 Gerber Fmt 4.6, Leading zero omitted, Abs format (unit mm)*
G04 Created by KiCad (PCBNEW (6.0.1)) date 2022-01-27 18:06:15*
%MOMM*%
%LPD*%
G01*
G04 APERTURE LIST*
%TA.AperFunction,ComponentPad*%
%ADD10C,3.200000*%
%TD*%
%TA.AperFunction,ComponentPad*%
%ADD11O,2.400000X1.200000*%
%TD*%
%TA.AperFunction,ComponentPad*%
%ADD12R,2.500000X2.500000*%
%TD*%
%TA.AperFunction,ComponentPad*%
%ADD13R,1.700000X1.700000*%
%TD*%
%TA.AperFunction,ComponentPad*%
%ADD14O,1.700000X1.700000*%
%TD*%
%TA.AperFunction,SMDPad,CuDef*%
%ADD15R,1.500000X0.700000*%
%TD*%
%TA.AperFunction,SMDPad,CuDef*%
%ADD16R,1.400000X1.800000*%
%TD*%
%TA.AperFunction,SMDPad,CuDef*%
%ADD17R,1.900000X1.400000*%
%TD*%
%TA.AperFunction,SMDPad,CuDef*%
%ADD18R,4.600000X1.000000*%
%TD*%
%TA.AperFunction,SMDPad,CuDef*%
%ADD19R,3.400000X1.600000*%
%TD*%
%TA.AperFunction,SMDPad,CuDef*%
%ADD20R,1.092200X2.006600*%
%TD*%
%TA.AperFunction,ComponentPad*%
%ADD21C,1.397000*%
%TD*%
%TA.AperFunction,SMDPad,CuDef*%
%ADD22R,0.650000X2.760000*%
%TD*%
%TA.AperFunction,SMDPad,CuDef*%
%ADD23R,0.650000X2.750000*%
%TD*%
%TA.AperFunction,ViaPad*%
%ADD24C,0.800000*%
%TD*%
%TA.AperFunction,Conductor*%
%ADD25C,0.250000*%
%TD*%
G04 APERTURE END LIST*
D10*
%TO.P,H2,P$1*%
%TO.N,N/C*%
X105410000Y-46990000D03*
%TD*%
%TO.P,H1,P$1*%
%TO.N,N/C*%
X66040000Y-46990000D03*
%TD*%
%TO.P,H4,P$1*%
%TO.N,N/C*%
X105410000Y-92710000D03*
%TD*%
%TO.P,H3,P$1*%
%TO.N,N/C*%
X66040000Y-92710000D03*
%TD*%
D11*
%TO.P,X1,SPRT@1,GND*%
%TO.N,GND*%
X94069600Y-49716600D03*
%TO.P,X1,SPRT@2,GND*%
X86269600Y-49716600D03*
D12*
%TO.P,X1,SPRT@3,GND*%
X93769600Y-46916600D03*
%TO.P,X1,SPRT@4,GND*%
X86569600Y-46916600D03*
%TD*%
D13*
%TO.P,J1,1,Pin_1*%
%TO.N,VBAT*%
X105700000Y-60800000D03*
D14*
%TO.P,J1,2,Pin_2*%
%TO.N,/SCL*%
X105700000Y-63340000D03*
%TO.P,J1,3,Pin_3*%
%TO.N,/SDA*%
X105700000Y-65880000D03*
%TO.P,J1,4,Pin_4*%
%TO.N,GND*%
X105700000Y-68420000D03*
%TO.P,J1,5,Pin_5*%
%TO.N,/AREF*%
X105700000Y-70960000D03*
%TO.P,J1,6,Pin_6*%
%TO.N,/A0*%
X105700000Y-73500000D03*
%TO.P,J1,7,Pin_7*%
%TO.N,/A1*%
X105700000Y-76040000D03*
%TO.P,J1,8,Pin_8*%
%TO.N,/D0*%
X105700000Y-78580000D03*
%TD*%
D15*
%TO.P,X3,1,DAT2*%
%TO.N,unconnected-(X3-Pad1)*%
X69500000Y-66800000D03*
%TO.P,X3,2,CS*%
%TO.N,/SD_CS*%
X69900000Y-67900000D03*
%TO.P,X3,3,DATA_IN*%
%TO.N,/MOSI*%
X69500000Y-69000000D03*
%TO.P,X3,4,SD_VDD*%
%TO.N,+3V3*%
X69100000Y-70100000D03*
%TO.P,X3,5,SCLK*%
%TO.N,/SCK*%
X69500000Y-71200000D03*
%TO.P,X3,6,GND@3*%
%TO.N,GND*%
X69100000Y-72300000D03*
%TO.P,X3,7,DATA_OUT*%
%TO.N,/MISO*%
X69500000Y-73400000D03*
%TO.P,X3,8,DAT1*%
%TO.N,unconnected-(X3-Pad8)*%
X69500000Y-74500000D03*
D16*
%TO.P,X3,CD1,CARD_DETECT*%
%TO.N,/D7*%
X79700000Y-73800000D03*
%TO.P,X3,CD2,CARD_DETECT1*%
%TO.N,unconnected-(X3-PadCD2)*%
X79700000Y-67800000D03*
D17*
%TO.P,X3,MT1,GND@2*%
%TO.N,GND*%
X66600000Y-75400000D03*
%TO.P,X3,MT2,GND@1*%
X65700000Y-62200000D03*
%TD*%
D18*
%TO.P,X2,1,1*%
%TO.N,GND*%
X67350000Y-57550000D03*
%TO.P,X2,2,2*%
%TO.N,Net-(SW1-Pad2)*%
X67350000Y-55550000D03*
D19*
%TO.P,X2,NC1*%
%TO.N,N/C*%
X72550000Y-59950000D03*
%TO.P,X2,NC2*%
X72550000Y-53150000D03*
%TD*%
D20*
%TO.P,SW1,1,1*%
%TO.N,unconnected-(SW1-Pad1)*%
X71120000Y-49784000D03*
%TO.P,SW1,2,2*%
%TO.N,Net-(SW1-Pad2)*%
X73120001Y-49784000D03*
%TO.P,SW1,3,3*%
%TO.N,VBAT*%
X75120002Y-49784000D03*
D21*
%TO.P,SW1,4*%
%TO.N,N/C*%
X70994999Y-45683932D03*
%TO.P,SW1,5*%
X77244999Y-45683932D03*
%TD*%
D22*
%TO.P,JP2,1*%
%TO.N,+3V3*%
X97028000Y-52580000D03*
%TO.P,JP2,2*%
%TO.N,/SWDIO*%
X97028000Y-56640000D03*
%TO.P,JP2,3*%
%TO.N,GND*%
X98298000Y-52580000D03*
D23*
%TO.P,JP2,4*%
%TO.N,/SWCLK*%
X98298000Y-56640000D03*
D22*
%TO.P,JP2,5*%
%TO.N,GND*%
X99568000Y-52580000D03*
%TO.P,JP2,6*%
%TO.N,unconnected-(JP2-Pad6)*%
X99568000Y-56640000D03*
%TO.P,JP2,7*%
%TO.N,unconnected-(JP2-Pad7)*%
X100838000Y-52580000D03*
%TO.P,JP2,8*%
%TO.N,unconnected-(JP2-Pad8)*%
X100838000Y-56640000D03*
%TO.P,JP2,9*%
%TO.N,GND*%
X102108000Y-52580000D03*
%TO.P,JP2,10*%
%TO.N,/{slash}RESET*%
X102108000Y-56640000D03*
%TD*%
D24*
%TO.N,GND*%
X82700000Y-76400000D03*
X80949200Y-49716600D03*
X99688800Y-54567800D03*
X101762100Y-67535200D03*
X80300000Y-84300000D03*
X69391000Y-58654300D03*
X103973100Y-59298100D03*
X81436500Y-60116900D03*
X67933900Y-74075900D03*
X77596700Y-59835500D03*
%TO.N,/AREF*%
X86140900Y-65053700D03*
%TO.N,+3V3*%
X94000000Y-55900000D03*
X67735500Y-69987500D03*
%TO.N,VBUS*%
X93100000Y-54400000D03*
X85812299Y-54687701D03*
%TO.N,VBAT*%
X88591700Y-53808100D03*
X103715200Y-51247000D03*
X81718400Y-68654000D03*
%TO.N,/D13*%
X102561100Y-49086000D03*
X98571600Y-66973700D03*
%TO.N,/SCL*%
X80081500Y-55094200D03*
X81103700Y-56508200D03*
%TO.N,/SDA*%
X79306100Y-54136700D03*
X99326000Y-65638100D03*
X81261100Y-57560800D03*
%TO.N,/D0*%
X88672900Y-74308900D03*
%TO.N,/MISO*%
X92850000Y-72025900D03*
%TO.N,/MOSI*%
X90947600Y-68981200D03*
%TO.N,/SCK*%
X92659800Y-69420100D03*
%TO.N,/A1*%
X86129300Y-67148000D03*
%TO.N,/A0*%
X88786600Y-65578700D03*
%TO.N,/~{RESET}*%
X92850000Y-58532500D03*
X96089500Y-56241800D03*
%TO.N,/SWCLK*%
X90541500Y-61033700D03*
%TO.N,/SWDIO*%
X89539400Y-60962700D03*
%TO.N,/SD_CS*%
X88770600Y-69434700D03*
%TO.N,/D7*%
X94228900Y-68399200D03*
%TD*%
D25*
%TO.N,GND*%
X67350000Y-57550000D02*
X69975300Y-57550000D01*
X69100000Y-72300000D02*
X68024700Y-72300000D01*
X99709200Y-54547400D02*
X99688800Y-54567800D01*
X86869600Y-49716600D02*
X80949200Y-49716600D01*
X81155100Y-59835500D02*
X77596700Y-59835500D01*
X67416400Y-73558400D02*
X67416400Y-72908300D01*
X67416300Y-73558400D02*
X66600000Y-74374700D01*
X99709200Y-54426500D02*
X99568000Y-54285300D01*
X69975300Y-58198000D02*
X69975300Y-57550000D01*
X67416400Y-73558400D02*
X67416300Y-73558400D01*
X66600000Y-75400000D02*
X66600000Y-74374700D01*
X67416400Y-72908300D02*
X68024700Y-72300000D01*
X68220400Y-58654300D02*
X69391000Y-58654300D01*
X103973100Y-56150400D02*
X103973100Y-59298100D01*
X102108000Y-52580000D02*
X102108000Y-54285300D01*
X75959200Y-58198000D02*
X69975300Y-58198000D01*
X99850400Y-54285300D02*
X99709200Y-54426500D01*
X67933900Y-74075900D02*
X67416400Y-73558400D01*
X102108000Y-54285300D02*
X103973100Y-56150400D01*
X69391000Y-58654300D02*
X69519000Y-58654300D01*
X81436500Y-60116900D02*
X81155100Y-59835500D01*
X105700000Y-68420000D02*
X102646900Y-68420000D01*
X102646900Y-68420000D02*
X101762100Y-67535200D01*
X65700000Y-62200000D02*
X65700000Y-61174700D01*
X77596700Y-59835500D02*
X75959200Y-58198000D01*
X98298000Y-54285300D02*
X99568000Y-54285300D01*
X99709200Y-54426500D02*
X99709200Y-54547400D01*
X98298000Y-52580000D02*
X98298000Y-54285300D01*
X65700000Y-61174700D02*
X68220400Y-58654300D01*
X69519000Y-58654300D02*
X69975300Y-58198000D01*
X93469600Y-49716600D02*
X86869600Y-49716600D01*
X102108000Y-54285300D02*
X99850400Y-54285300D01*
X99568000Y-52580000D02*
X99568000Y-54285300D01*
%TO.N,/AREF*%
X86140900Y-65053700D02*
X86350000Y-64844600D01*
X95416800Y-64844600D02*
X101532200Y-70960000D01*
X86350000Y-64844600D02*
X95416800Y-64844600D01*
X101532200Y-70960000D02*
X105700000Y-70960000D01*
%TO.N,+3V3*%
X97028000Y-53972000D02*
X97028000Y-52580000D01*
X69100000Y-70100000D02*
X68024700Y-70100000D01*
X67735500Y-69987500D02*
X67912200Y-69987500D01*
X95100000Y-55900000D02*
X97028000Y-53972000D01*
X67912200Y-69987500D02*
X68024700Y-70100000D01*
X94000000Y-55900000D02*
X95100000Y-55900000D01*
%TO.N,VBUS*%
X92600000Y-54900000D02*
X86024598Y-54900000D01*
X93100000Y-54400000D02*
X92600000Y-54900000D01*
X86024598Y-54900000D02*
X85812299Y-54687701D01*
%TO.N,VBAT*%
X78580800Y-53343600D02*
X78580800Y-56034600D01*
X88591700Y-53808100D02*
X88591700Y-53343600D01*
X75120000Y-49784000D02*
X75120000Y-51112600D01*
X102892500Y-50424300D02*
X103715200Y-51247000D01*
X95595000Y-50424300D02*
X102892500Y-50424300D01*
X78580800Y-56034600D02*
X82161900Y-59615700D01*
X88591700Y-53343600D02*
X78580800Y-53343600D01*
X88591700Y-53343600D02*
X92675700Y-53343600D01*
X82161900Y-59615700D02*
X82161900Y-68210500D01*
X77351000Y-53343600D02*
X75120000Y-51112600D01*
X78580800Y-53343600D02*
X77351000Y-53343600D01*
X82161900Y-68210500D02*
X81718400Y-68654000D01*
X92675700Y-53343600D02*
X95595000Y-50424300D01*
%TO.N,/D13*%
X102613700Y-49086000D02*
X102561100Y-49086000D01*
X102623400Y-67055400D02*
X106211000Y-67055400D01*
X102341800Y-66773800D02*
X102623400Y-67055400D01*
X98571600Y-66973700D02*
X98771500Y-66773800D01*
X106875400Y-53347700D02*
X102613700Y-49086000D01*
X98771500Y-66773800D02*
X102341800Y-66773800D01*
X106875400Y-66391000D02*
X106875400Y-53347700D01*
X106211000Y-67055400D02*
X106875400Y-66391000D01*
%TO.N,/SCL*%
X80081500Y-55094200D02*
X81278900Y-56291600D01*
X88285900Y-63340000D02*
X81278900Y-56333000D01*
X81278900Y-56291600D02*
X81278900Y-56333000D01*
X81278900Y-56333000D02*
X81103700Y-56508200D01*
X105700000Y-63340000D02*
X88285900Y-63340000D01*
%TO.N,/SDA*%
X81075100Y-57560800D02*
X81261100Y-57560800D01*
X104282800Y-65638100D02*
X99326000Y-65638100D01*
X105700000Y-65880000D02*
X104524700Y-65880000D01*
X99326000Y-65638100D02*
X97653800Y-63965900D01*
X79306100Y-55791800D02*
X81075100Y-57560800D01*
X104524700Y-65880000D02*
X104282800Y-65638100D01*
X97653800Y-63965900D02*
X87666200Y-63965900D01*
X87666200Y-63965900D02*
X81261100Y-57560800D01*
X79306100Y-54136700D02*
X79306100Y-55791800D01*
%TO.N,/D0*%
X104524700Y-78580000D02*
X100253600Y-74308900D01*
X100253600Y-74308900D02*
X88672900Y-74308900D01*
X105700000Y-78580000D02*
X104524700Y-78580000D01*
%TO.N,/MISO*%
X70500000Y-72800000D02*
X69900000Y-73400000D01*
X86743500Y-75061800D02*
X77366200Y-75061800D01*
X91292300Y-73583600D02*
X88221700Y-73583600D01*
X88221700Y-73583600D02*
X86743500Y-75061800D01*
X75100000Y-72800000D02*
X70500000Y-72800000D01*
X77366200Y-75061800D02*
X75704400Y-73400000D01*
X75700000Y-73400000D02*
X75100000Y-72800000D01*
X92850000Y-72025900D02*
X91292300Y-73583600D01*
X75704400Y-73400000D02*
X75700000Y-73400000D01*
%TO.N,/MOSI*%
X70575300Y-69000000D02*
X71748600Y-70173300D01*
X69500000Y-69000000D02*
X70575300Y-69000000D01*
X89755500Y-70173300D02*
X90947600Y-68981200D01*
X71748600Y-70173300D02*
X89755500Y-70173300D01*
%TO.N,/SCK*%
X92659800Y-69420100D02*
X90879900Y-71200000D01*
X90879900Y-71200000D02*
X69500000Y-71200000D01*
%TO.N,/A1*%
X104261100Y-76040000D02*
X105700000Y-76040000D01*
X86129300Y-67148000D02*
X95369100Y-67148000D01*
X95369100Y-67148000D02*
X104261100Y-76040000D01*
%TO.N,/A0*%
X94656700Y-65578700D02*
X88786600Y-65578700D01*
X105700000Y-73500000D02*
X102578000Y-73500000D01*
X102578000Y-73500000D02*
X94656700Y-65578700D01*
%TO.N,/~{RESET}*%
X93798800Y-58532500D02*
X92850000Y-58532500D01*
X96089500Y-56241800D02*
X93798800Y-58532500D01*
%TO.N,/SWCLK*%
X95604600Y-61033700D02*
X90541500Y-61033700D01*
X98298000Y-56640000D02*
X98298000Y-58340300D01*
X98298000Y-58340300D02*
X95604600Y-61033700D01*
%TO.N,/SWDIO*%
X97028000Y-58345300D02*
X96115400Y-59257900D01*
X97028000Y-56640000D02*
X97028000Y-58345300D01*
X96115400Y-59257900D02*
X91244200Y-59257900D01*
X91244200Y-59257900D02*
X89539400Y-60962700D01*
%TO.N,/SD_CS*%
X70975300Y-67900000D02*
X72510000Y-69434700D01*
X69900000Y-67900000D02*
X70975300Y-67900000D01*
X72510000Y-69434700D02*
X88770600Y-69434700D01*
%TO.N,/D7*%
X90133400Y-72982500D02*
X81542800Y-72982500D01*
X81542800Y-72982500D02*
X80725300Y-73800000D01*
X79700000Y-73800000D02*
X80725300Y-73800000D01*
X94228900Y-68887000D02*
X90133400Y-72982500D01*
X94228900Y-68399200D02*
X94228900Y-68887000D01*
%TO.N,Net-(SW1-Pad2)*%
X73120000Y-51112600D02*
X71550600Y-51112600D01*
X69975300Y-52687900D02*
X69975300Y-55550000D01*
X71550600Y-51112600D02*
X69975300Y-52687900D01*
X67350000Y-55550000D02*
X69975300Y-55550000D01*
X73120000Y-49784000D02*
X73120000Y-51112600D01*
%TD*%
%TA.AperFunction,Conductor*%
%TO.N,GND*%
G36*
X69872069Y-44978002D02*
G01*
X69918562Y-45031658D01*
X69928666Y-45101932D01*
X69918143Y-45137250D01*
X69864468Y-45252357D01*
X69856457Y-45269537D01*
X69855035Y-45274845D01*
X69855034Y-45274847D01*
X69812305Y-45434313D01*
X69801795Y-45473538D01*
X69783388Y-45683932D01*
X69801795Y-45894326D01*
X69856457Y-46098327D01*
X69858779Y-46103308D01*
X69858780Y-46103309D01*
X69869639Y-46126595D01*
X69945713Y-46289737D01*
X70066851Y-46462741D01*
X70216190Y-46612080D01*
X70220698Y-46615237D01*
X70220701Y-46615239D01*
X70314995Y-46681264D01*
X70389193Y-46733218D01*
X70394175Y-46735541D01*
X70394180Y-46735544D01*
X70575622Y-46820151D01*
X70580604Y-46822474D01*
X70585912Y-46823896D01*
X70585914Y-46823897D01*
X70779290Y-46875712D01*
X70779292Y-46875712D01*
X70784605Y-46877136D01*
X70994999Y-46895543D01*
X71205393Y-46877136D01*
X71210706Y-46875712D01*
X71210708Y-46875712D01*
X71404084Y-46823897D01*
X71404086Y-46823896D01*
X71409394Y-46822474D01*
X71414376Y-46820151D01*
X71595818Y-46735544D01*
X71595823Y-46735541D01*
X71600805Y-46733218D01*
X71675003Y-46681264D01*
X71769297Y-46615239D01*
X71769300Y-46615237D01*
X71773808Y-46612080D01*
X71923147Y-46462741D01*
X72044285Y-46289737D01*
X72120360Y-46126595D01*
X72131218Y-46103309D01*
X72131219Y-46103308D01*
X72133541Y-46098327D01*
X72188203Y-45894326D01*
X72206610Y-45683932D01*
X72188203Y-45473538D01*
X72177693Y-45434313D01*
X72134964Y-45274847D01*
X72134963Y-45274845D01*
X72133541Y-45269537D01*
X72125530Y-45252357D01*
X72071855Y-45137250D01*
X72061194Y-45067058D01*
X72090174Y-45002245D01*
X72149594Y-44963389D01*
X72186050Y-44958000D01*
X76053948Y-44958000D01*
X76122069Y-44978002D01*
X76168562Y-45031658D01*
X76178666Y-45101932D01*
X76168143Y-45137250D01*
X76114468Y-45252357D01*
X76106457Y-45269537D01*
X76105035Y-45274845D01*
X76105034Y-45274847D01*
X76062305Y-45434313D01*
X76051795Y-45473538D01*
X76033388Y-45683932D01*
X76051795Y-45894326D01*
X76106457Y-46098327D01*
X76108779Y-46103308D01*
X76108780Y-46103309D01*
X76119639Y-46126595D01*
X76195713Y-46289737D01*
X76316851Y-46462741D01*
X76466190Y-46612080D01*
X76470698Y-46615237D01*
X76470701Y-46615239D01*
X76564995Y-46681264D01*
X76639193Y-46733218D01*
X76644175Y-46735541D01*
X76644180Y-46735544D01*
X76825622Y-46820151D01*
X76830604Y-46822474D01*
X76835912Y-46823896D01*
X76835914Y-46823897D01*
X77029290Y-46875712D01*
X77029292Y-46875712D01*
X77034605Y-46877136D01*
X77244999Y-46895543D01*
X77455393Y-46877136D01*
X77460706Y-46875712D01*
X77460708Y-46875712D01*
X77654084Y-46823897D01*
X77654086Y-46823896D01*
X77659394Y-46822474D01*
X77664376Y-46820151D01*
X77845818Y-46735544D01*
X77845823Y-46735541D01*
X77850805Y-46733218D01*
X77925003Y-46681264D01*
X78019297Y-46615239D01*
X78019300Y-46615237D01*
X78023808Y-46612080D01*
X78173147Y-46462741D01*
X78294285Y-46289737D01*
X78370360Y-46126595D01*
X78381218Y-46103309D01*
X78381219Y-46103308D01*
X78383541Y-46098327D01*
X78438203Y-45894326D01*
X78456610Y-45683932D01*
X78438203Y-45473538D01*
X78427693Y-45434313D01*
X78384964Y-45274847D01*
X78384963Y-45274845D01*
X78383541Y-45269537D01*
X78375530Y-45252357D01*
X78321855Y-45137250D01*
X78311194Y-45067058D01*
X78340174Y-45002245D01*
X78399594Y-44963389D01*
X78436050Y-44958000D01*
X85067442Y-44958000D01*
X85135563Y-44978002D01*
X85182056Y-45031658D01*
X85192160Y-45101932D01*
X85162666Y-45166512D01*
X85111672Y-45201982D01*
X85081546Y-45213276D01*
X85065951Y-45221814D01*
X84963876Y-45298315D01*
X84951315Y-45310876D01*
X84874814Y-45412951D01*
X84866276Y-45428546D01*
X84821122Y-45548994D01*
X84817495Y-45564249D01*
X84811969Y-45615114D01*
X84811600Y-45621928D01*
X84811600Y-46644485D01*
X84816075Y-46659724D01*
X84817465Y-46660929D01*
X84825148Y-46662600D01*
X88309484Y-46662600D01*
X88324723Y-46658125D01*
X88325928Y-46656735D01*
X88327599Y-46649052D01*
X88327599Y-45621931D01*
X88327229Y-45615110D01*
X88321705Y-45564248D01*
X88318079Y-45548996D01*
X88272924Y-45428546D01*
X88264386Y-45412951D01*
X88187885Y-45310876D01*
X88175324Y-45298315D01*
X88073249Y-45221814D01*
X88057654Y-45213276D01*
X88027528Y-45201982D01*
X87970763Y-45159340D01*
X87946064Y-45092778D01*
X87961272Y-45023429D01*
X88011558Y-44973311D01*
X88071758Y-44958000D01*
X92267442Y-44958000D01*
X92335563Y-44978002D01*
X92382056Y-45031658D01*
X92392160Y-45101932D01*
X92362666Y-45166512D01*
X92311672Y-45201982D01*
X92281546Y-45213276D01*
X92265951Y-45221814D01*
X92163876Y-45298315D01*
X92151315Y-45310876D01*
X92074814Y-45412951D01*
X92066276Y-45428546D01*
X92021122Y-45548994D01*
X92017495Y-45564249D01*
X92011969Y-45615114D01*
X92011600Y-45621928D01*
X92011600Y-46644485D01*
X92016075Y-46659724D01*
X92017465Y-46660929D01*
X92025148Y-46662600D01*
X95509484Y-46662600D01*
X95524723Y-46658125D01*
X95525928Y-46656735D01*
X95527599Y-46649052D01*
X95527599Y-45621931D01*
X95527229Y-45615110D01*
X95521705Y-45564248D01*
X95518079Y-45548996D01*
X95472924Y-45428546D01*
X95464386Y-45412951D01*
X95387885Y-45310876D01*
X95375324Y-45298315D01*
X95273249Y-45221814D01*
X95257654Y-45213276D01*
X95227528Y-45201982D01*
X95170763Y-45159340D01*
X95146064Y-45092778D01*
X95161272Y-45023429D01*
X95211558Y-44973311D01*
X95271758Y-44958000D01*
X104243471Y-44958000D01*
X104311592Y-44978002D01*
X104358085Y-45031658D01*
X104368189Y-45101932D01*
X104338695Y-45166512D01*
X104308177Y-45192116D01*
X104207521Y-45252357D01*
X104207517Y-45252360D01*
X104203839Y-45254561D01*
X103979472Y-45434313D01*
X103781577Y-45642851D01*
X103613814Y-45876317D01*
X103611805Y-45880112D01*
X103611804Y-45880113D01*
X103589972Y-45921346D01*
X103479288Y-46130392D01*
X103380489Y-46400373D01*
X103319245Y-46681264D01*
X103318909Y-46685534D01*
X103308315Y-46820151D01*
X103296689Y-46967869D01*
X103313238Y-47254883D01*
X103314063Y-47259088D01*
X103314064Y-47259096D01*
X103346010Y-47421921D01*
X103368586Y-47536995D01*
X103369973Y-47541045D01*
X103369974Y-47541050D01*
X103460321Y-47804930D01*
X103461710Y-47808986D01*
X103590885Y-48065822D01*
X103753721Y-48302750D01*
X103756608Y-48305923D01*
X103756609Y-48305924D01*
X103858148Y-48417514D01*
X103947206Y-48515388D01*
X103950501Y-48518143D01*
X103950502Y-48518144D01*
X104150475Y-48685346D01*
X104167759Y-48699798D01*
X104411298Y-48852571D01*
X104673318Y-48970877D01*
X104677437Y-48972097D01*
X104944857Y-49051311D01*
X104944862Y-49051312D01*
X104948970Y-49052529D01*
X104953204Y-49053177D01*
X104953209Y-49053178D01*
X105201811Y-49091219D01*
X105233153Y-49096015D01*
X105379485Y-49098314D01*
X105516317Y-49100464D01*
X105516323Y-49100464D01*
X105520608Y-49100531D01*
X105524860Y-49100016D01*
X105524868Y-49100016D01*
X105801756Y-49066508D01*
X105801761Y-49066507D01*
X105806017Y-49065992D01*
X105996091Y-49016127D01*
X106079954Y-48994126D01*
X106079955Y-48994126D01*
X106084097Y-48993039D01*
X106349704Y-48883021D01*
X106597922Y-48737974D01*
X106824159Y-48560582D01*
X106829788Y-48554774D01*
X107021244Y-48357206D01*
X107024227Y-48354128D01*
X107026760Y-48350680D01*
X107026764Y-48350675D01*
X107176054Y-48147440D01*
X107194425Y-48122431D01*
X107205269Y-48102459D01*
X107255352Y-48052137D01*
X107324690Y-48036881D01*
X107391269Y-48061534D01*
X107433951Y-48118268D01*
X107442000Y-48162581D01*
X107442000Y-52714206D01*
X107421998Y-52782327D01*
X107368342Y-52828820D01*
X107298068Y-52838924D01*
X107233488Y-52809430D01*
X107226905Y-52803301D01*
X103502044Y-49078439D01*
X103468018Y-49016127D01*
X103465829Y-49002514D01*
X103464948Y-48994126D01*
X103454642Y-48896072D01*
X103395627Y-48714444D01*
X103371097Y-48671956D01*
X103328079Y-48597448D01*
X103300140Y-48549056D01*
X103287381Y-48534885D01*
X103176775Y-48412045D01*
X103176774Y-48412044D01*
X103172353Y-48407134D01*
X103033050Y-48305924D01*
X103023194Y-48298763D01*
X103023193Y-48298762D01*
X103017852Y-48294882D01*
X103011824Y-48292198D01*
X103011822Y-48292197D01*
X102849419Y-48219891D01*
X102849418Y-48219891D01*
X102843388Y-48217206D01*
X102745725Y-48196447D01*
X102663044Y-48178872D01*
X102663039Y-48178872D01*
X102656587Y-48177500D01*
X102465613Y-48177500D01*
X102459161Y-48178872D01*
X102459156Y-48178872D01*
X102376475Y-48196447D01*
X102278812Y-48217206D01*
X102272782Y-48219891D01*
X102272781Y-48219891D01*
X102110378Y-48292197D01*
X102110376Y-48292198D01*
X102104348Y-48294882D01*
X102099007Y-48298762D01*
X102099006Y-48298763D01*
X102089150Y-48305924D01*
X101949847Y-48407134D01*
X101945426Y-48412044D01*
X101945425Y-48412045D01*
X101834820Y-48534885D01*
X101822060Y-48549056D01*
X101794121Y-48597448D01*
X101751104Y-48671956D01*
X101726573Y-48714444D01*
X101667558Y-48896072D01*
X101666868Y-48902633D01*
X101666868Y-48902635D01*
X101658193Y-48985175D01*
X101647596Y-49086000D01*
X101648286Y-49092565D01*
X101665772Y-49258931D01*
X101667558Y-49275928D01*
X101726573Y-49457556D01*
X101729876Y-49463278D01*
X101729877Y-49463279D01*
X101809852Y-49601800D01*
X101826590Y-49670796D01*
X101803369Y-49737887D01*
X101747562Y-49781774D01*
X101700733Y-49790800D01*
X95673768Y-49790800D01*
X95662585Y-49790273D01*
X95655092Y-49788598D01*
X95647166Y-49788847D01*
X95647165Y-49788847D01*
X95587002Y-49790738D01*
X95583044Y-49790800D01*
X95555144Y-49790800D01*
X95551154Y-49791304D01*
X95539320Y-49792236D01*
X95495111Y-49793626D01*
X95487495Y-49795839D01*
X95487493Y-49795839D01*
X95475652Y-49799279D01*
X95456293Y-49803288D01*
X95454983Y-49803454D01*
X95436203Y-49805826D01*
X95428837Y-49808742D01*
X95428831Y-49808744D01*
X95395098Y-49822100D01*
X95383868Y-49825945D01*
X95349017Y-49836070D01*
X95341407Y-49838281D01*
X95334584Y-49842316D01*
X95323966Y-49848595D01*
X95306213Y-49857292D01*
X95298568Y-49860319D01*
X95287383Y-49864748D01*
X95280968Y-49869409D01*
X95251612Y-49890737D01*
X95241695Y-49897251D01*
X95203638Y-49919758D01*
X95189701Y-49933695D01*
X95127389Y-49967721D01*
X95100606Y-49970600D01*
X94341715Y-49970600D01*
X94326476Y-49975075D01*
X94325271Y-49976465D01*
X94323600Y-49984148D01*
X94323600Y-50747606D01*
X94303598Y-50815727D01*
X94286696Y-50836699D01*
X92450200Y-52673195D01*
X92387888Y-52707221D01*
X92361105Y-52710100D01*
X88663493Y-52710100D01*
X88639884Y-52707868D01*
X88639581Y-52707810D01*
X88639577Y-52707810D01*
X88631794Y-52706325D01*
X88575749Y-52709851D01*
X88567838Y-52710100D01*
X78652593Y-52710100D01*
X78628984Y-52707868D01*
X78628681Y-52707810D01*
X78628677Y-52707810D01*
X78620894Y-52706325D01*
X78564849Y-52709851D01*
X78556938Y-52710100D01*
X77665595Y-52710100D01*
X77597474Y-52690098D01*
X77576500Y-52673195D01*
X76117105Y-51213800D01*
X76083079Y-51151488D01*
X76088144Y-51080673D01*
X76105374Y-51049140D01*
X76111331Y-51041192D01*
X76111332Y-51041190D01*
X76116717Y-51034005D01*
X76167847Y-50897616D01*
X76174602Y-50835434D01*
X76174602Y-49983999D01*
X84594312Y-49983999D01*
X84615794Y-50073137D01*
X84619683Y-50084432D01*
X84702229Y-50265982D01*
X84708176Y-50276324D01*
X84823568Y-50438997D01*
X84831361Y-50448025D01*
X84975431Y-50585942D01*
X84984796Y-50593338D01*
X85152341Y-50701521D01*
X85162945Y-50707017D01*
X85347912Y-50781561D01*
X85359370Y-50784955D01*
X85556528Y-50823457D01*
X85565391Y-50824534D01*
X85568100Y-50824600D01*
X85997485Y-50824600D01*
X86012724Y-50820125D01*
X86013929Y-50818735D01*
X86015600Y-50811052D01*
X86015600Y-50806485D01*
X86523600Y-50806485D01*
X86528075Y-50821724D01*
X86529465Y-50822929D01*
X86537148Y-50824600D01*
X86919432Y-50824600D01*
X86925408Y-50824315D01*
X87074094Y-50810129D01*
X87085828Y-50807870D01*
X87277199Y-50751728D01*
X87288275Y-50747298D01*
X87465578Y-50655981D01*
X87475624Y-50649531D01*
X87632457Y-50526338D01*
X87641106Y-50518101D01*
X87771812Y-50367477D01*
X87778747Y-50357753D01*
X87878610Y-50185133D01*
X87883584Y-50174269D01*
X87949007Y-49985873D01*
X87949248Y-49984884D01*
X87949122Y-49983999D01*
X92394312Y-49983999D01*
X92415794Y-50073137D01*
X92419683Y-50084432D01*
X92502229Y-50265982D01*
X92508176Y-50276324D01*
X92623568Y-50438997D01*
X92631361Y-50448025D01*
X92775431Y-50585942D01*
X92784796Y-50593338D01*
X92952341Y-50701521D01*
X92962945Y-50707017D01*
X93147912Y-50781561D01*
X93159370Y-50784955D01*
X93356528Y-50823457D01*
X93365391Y-50824534D01*
X93368100Y-50824600D01*
X93797485Y-50824600D01*
X93812724Y-50820125D01*
X93813929Y-50818735D01*
X93815600Y-50811052D01*
X93815600Y-49988715D01*
X93811125Y-49973476D01*
X93809735Y-49972271D01*
X93802052Y-49970600D01*
X92409198Y-49970600D01*
X92395667Y-49974573D01*
X92394312Y-49983999D01*
X87949122Y-49983999D01*
X87947780Y-49974592D01*
X87934215Y-49970600D01*
X86541715Y-49970600D01*
X86526476Y-49975075D01*
X86525271Y-49976465D01*
X86523600Y-49984148D01*
X86523600Y-50806485D01*
X86015600Y-50806485D01*
X86015600Y-49988715D01*
X86011125Y-49973476D01*
X86009735Y-49972271D01*
X86002052Y-49970600D01*
X84609198Y-49970600D01*
X84595667Y-49974573D01*
X84594312Y-49983999D01*
X76174602Y-49983999D01*
X76174602Y-49448316D01*
X84589952Y-49448316D01*
X84591420Y-49458608D01*
X84604985Y-49462600D01*
X87608410Y-49462600D01*
X87676531Y-49482602D01*
X87684939Y-49488504D01*
X87766831Y-49551116D01*
X87766835Y-49551119D01*
X87772252Y-49555260D01*
X87941304Y-49634090D01*
X88123340Y-49674780D01*
X88129063Y-49675100D01*
X88266196Y-49675100D01*
X88405037Y-49660017D01*
X88581823Y-49600522D01*
X88741709Y-49504453D01*
X88877236Y-49376292D01*
X88895941Y-49348768D01*
X88978246Y-49227660D01*
X88978247Y-49227658D01*
X88982080Y-49222018D01*
X89014671Y-49140537D01*
X89048815Y-49055170D01*
X89048816Y-49055168D01*
X89051351Y-49048829D01*
X89078529Y-48884663D01*
X89080701Y-48871542D01*
X89080701Y-48871539D01*
X89081816Y-48864805D01*
X89081268Y-48854338D01*
X89076763Y-48768395D01*
X91257384Y-48768395D01*
X91257741Y-48775211D01*
X91257741Y-48775215D01*
X91262437Y-48864805D01*
X91267147Y-48954667D01*
X91316680Y-49134498D01*
X91403675Y-49299498D01*
X91408080Y-49304711D01*
X91408083Y-49304715D01*
X91519664Y-49436753D01*
X91519668Y-49436757D01*
X91524071Y-49441967D01*
X91529495Y-49446114D01*
X91529496Y-49446115D01*
X91666831Y-49551116D01*
X91666835Y-49551119D01*
X91672252Y-49555260D01*
X91841304Y-49634090D01*
X92023340Y-49674780D01*
X92029063Y-49675100D01*
X92166196Y-49675100D01*
X92305037Y-49660017D01*
X92481823Y-49600522D01*
X92641709Y-49504453D01*
X92649536Y-49497052D01*
X92651685Y-49495955D01*
X92652101Y-49495639D01*
X92652158Y-49495714D01*
X92712770Y-49464780D01*
X92736108Y-49462600D01*
X95730002Y-49462600D01*
X95743533Y-49458627D01*
X95744888Y-49449201D01*
X95723406Y-49360063D01*
X95719517Y-49348768D01*
X95636971Y-49167218D01*
X95631024Y-49156876D01*
X95515632Y-48994203D01*
X95507839Y-48985175D01*
X95363769Y-48847258D01*
X95354397Y-48839856D01*
X95299061Y-48804126D01*
X95252683Y-48750371D01*
X95242730Y-48680076D01*
X95272362Y-48615558D01*
X95291845Y-48597448D01*
X95375325Y-48534884D01*
X95387885Y-48522324D01*
X95464386Y-48420249D01*
X95472924Y-48404654D01*
X95518078Y-48284206D01*
X95521705Y-48268951D01*
X95527231Y-48218086D01*
X95527600Y-48211272D01*
X95527600Y-47188715D01*
X95523125Y-47173476D01*
X95521735Y-47172271D01*
X95514052Y-47170600D01*
X92029716Y-47170600D01*
X92014477Y-47175075D01*
X92013272Y-47176465D01*
X92011601Y-47184148D01*
X92011601Y-47856582D01*
X91991599Y-47924703D01*
X91937943Y-47971196D01*
X91925793Y-47976000D01*
X91757377Y-48032678D01*
X91597491Y-48128747D01*
X91461964Y-48256908D01*
X91458129Y-48262551D01*
X91395894Y-48354128D01*
X91357120Y-48411182D01*
X91354588Y-48417511D01*
X91354587Y-48417514D01*
X91290385Y-48578030D01*
X91287849Y-48584371D01*
X91282686Y-48615558D01*
X91266316Y-48714444D01*
X91257384Y-48768395D01*
X89076763Y-48768395D01*
X89073168Y-48699798D01*
X89072053Y-48678533D01*
X89022520Y-48498702D01*
X88935525Y-48333702D01*
X88931120Y-48328489D01*
X88931117Y-48328485D01*
X88819536Y-48196447D01*
X88819532Y-48196443D01*
X88815129Y-48191233D01*
X88809704Y-48187085D01*
X88672369Y-48082084D01*
X88672365Y-48082081D01*
X88666948Y-48077940D01*
X88497896Y-47999110D01*
X88426110Y-47983064D01*
X88363997Y-47948685D01*
X88330329Y-47886180D01*
X88327600Y-47860100D01*
X88327600Y-47188715D01*
X88323125Y-47173476D01*
X88321735Y-47172271D01*
X88314052Y-47170600D01*
X84829716Y-47170600D01*
X84814477Y-47175075D01*
X84813272Y-47176465D01*
X84811601Y-47184148D01*
X84811601Y-48211269D01*
X84811971Y-48218090D01*
X84817495Y-48268952D01*
X84821121Y-48284204D01*
X84866276Y-48404654D01*
X84874814Y-48420249D01*
X84951315Y-48522324D01*
X84963876Y-48534885D01*
X85045575Y-48596115D01*
X85088090Y-48652974D01*
X85093116Y-48723793D01*
X85059056Y-48786086D01*
X85047843Y-48796027D01*
X84906743Y-48906862D01*
X84898094Y-48915099D01*
X84767388Y-49065723D01*
X84760453Y-49075447D01*
X84660590Y-49248067D01*
X84655616Y-49258931D01*
X84590193Y-49447327D01*
X84589952Y-49448316D01*
X76174602Y-49448316D01*
X76174602Y-48732566D01*
X76167847Y-48670384D01*
X76116717Y-48533995D01*
X76029363Y-48417439D01*
X75912807Y-48330085D01*
X75776418Y-48278955D01*
X75714236Y-48272200D01*
X74525768Y-48272200D01*
X74463586Y-48278955D01*
X74327197Y-48330085D01*
X74299724Y-48350675D01*
X74217823Y-48412056D01*
X74217821Y-48412058D01*
X74210641Y-48417439D01*
X74207470Y-48421670D01*
X74146789Y-48454808D01*
X74075973Y-48449745D01*
X74032761Y-48421975D01*
X74029362Y-48417439D01*
X73912806Y-48330085D01*
X73776417Y-48278955D01*
X73714235Y-48272200D01*
X72525767Y-48272200D01*
X72463585Y-48278955D01*
X72327196Y-48330085D01*
X72299723Y-48350675D01*
X72217822Y-48412056D01*
X72217820Y-48412058D01*
X72210640Y-48417439D01*
X72207469Y-48421670D01*
X72146788Y-48454808D01*
X72075972Y-48449745D01*
X72032760Y-48421975D01*
X72029361Y-48417439D01*
X71912805Y-48330085D01*
X71776416Y-48278955D01*
X71714234Y-48272200D01*
X70525766Y-48272200D01*
X70463584Y-48278955D01*
X70327195Y-48330085D01*
X70210639Y-48417439D01*
X70123285Y-48533995D01*
X70072155Y-48670384D01*
X70065400Y-48732566D01*
X70065400Y-50835434D01*
X70072155Y-50897616D01*
X70123285Y-51034005D01*
X70210639Y-51150561D01*
X70217818Y-51155941D01*
X70217820Y-51155943D01*
X70326471Y-51237373D01*
X70368986Y-51294233D01*
X70374011Y-51365051D01*
X70340001Y-51427294D01*
X69583047Y-52184248D01*
X69574761Y-52191788D01*
X69568282Y-52195900D01*
X69562857Y-52201677D01*
X69521657Y-52245551D01*
X69518902Y-52248393D01*
X69499165Y-52268130D01*
X69496685Y-52271327D01*
X69488982Y-52280347D01*
X69458714Y-52312579D01*
X69454895Y-52319525D01*
X69454893Y-52319528D01*
X69448952Y-52330334D01*
X69438101Y-52346853D01*
X69425686Y-52362859D01*
X69422541Y-52370128D01*
X69422538Y-52370132D01*
X69408126Y-52403437D01*
X69402909Y-52414087D01*
X69381605Y-52452840D01*
X69379634Y-52460515D01*
X69379634Y-52460516D01*
X69376567Y-52472462D01*
X69370163Y-52491166D01*
X69362119Y-52509755D01*
X69360880Y-52517578D01*
X69360877Y-52517588D01*
X69355201Y-52553424D01*
X69352795Y-52565044D01*
X69341800Y-52607870D01*
X69341800Y-52628124D01*
X69340249Y-52647834D01*
X69337080Y-52667843D01*
X69341075Y-52710100D01*
X69341241Y-52711861D01*
X69341800Y-52723719D01*
X69341800Y-54415500D01*
X69321798Y-54483621D01*
X69268142Y-54530114D01*
X69215800Y-54541500D01*
X65001866Y-54541500D01*
X64939684Y-54548255D01*
X64803295Y-54599385D01*
X64686739Y-54686739D01*
X64599385Y-54803295D01*
X64548255Y-54939684D01*
X64541500Y-55001866D01*
X64541500Y-56098134D01*
X64548255Y-56160316D01*
X64599385Y-56296705D01*
X64686739Y-56413261D01*
X64693919Y-56418642D01*
X64735074Y-56449486D01*
X64777589Y-56506345D01*
X64782615Y-56577164D01*
X64748555Y-56639457D01*
X64735075Y-56651138D01*
X64694274Y-56681717D01*
X64681715Y-56694276D01*
X64605214Y-56796351D01*
X64596676Y-56811946D01*
X64551522Y-56932394D01*
X64547895Y-56947649D01*
X64542369Y-56998514D01*
X64542000Y-57005328D01*
X64542000Y-57277885D01*
X64546475Y-57293124D01*
X64547865Y-57294329D01*
X64555548Y-57296000D01*
X70139884Y-57296000D01*
X70155123Y-57291525D01*
X70156328Y-57290135D01*
X70157999Y-57282452D01*
X70157999Y-57005331D01*
X70157629Y-56998510D01*
X70152105Y-56947648D01*
X70148479Y-56932396D01*
X70103324Y-56811946D01*
X70094786Y-56796351D01*
X70018285Y-56694276D01*
X70005726Y-56681717D01*
X69964925Y-56651138D01*
X69922411Y-56594278D01*
X69917386Y-56523460D01*
X69951446Y-56461166D01*
X69964926Y-56449486D01*
X70006081Y-56418642D01*
X70013261Y-56413261D01*
X70100615Y-56296705D01*
X70131095Y-56215399D01*
X70173737Y-56158636D01*
X70210141Y-56139797D01*
X70226477Y-56134489D01*
X70247175Y-56127764D01*
X70253872Y-56123514D01*
X70254131Y-56123350D01*
X70275258Y-56112585D01*
X70275546Y-56112471D01*
X70275551Y-56112468D01*
X70282917Y-56109552D01*
X70289325Y-56104896D01*
X70289331Y-56104893D01*
X70328352Y-56076542D01*
X70334889Y-56072099D01*
X70382318Y-56042000D01*
X70387959Y-56035993D01*
X70405746Y-56020312D01*
X70405991Y-56020134D01*
X70405993Y-56020132D01*
X70412407Y-56015472D01*
X70417462Y-56009362D01*
X70448203Y-55972204D01*
X70453434Y-55966270D01*
X70486458Y-55931102D01*
X70486460Y-55931099D01*
X70491886Y-55925321D01*
X70495858Y-55918097D01*
X70509181Y-55898494D01*
X70509380Y-55898254D01*
X70509384Y-55898247D01*
X70514433Y-55892144D01*
X70538347Y-55841324D01*
X70541929Y-55834292D01*
X70568995Y-55785060D01*
X70570965Y-55777385D01*
X70570968Y-55777379D01*
X70571044Y-55777081D01*
X70579076Y-55754772D01*
X70579206Y-55754497D01*
X70579209Y-55754489D01*
X70582583Y-55747318D01*
X70593106Y-55692151D01*
X70594832Y-55684429D01*
X70606829Y-55637707D01*
X70606829Y-55637706D01*
X70608800Y-55630030D01*
X70608800Y-55621793D01*
X70611032Y-55598184D01*
X70611090Y-55597881D01*
X70611090Y-55597877D01*
X70612575Y-55590094D01*
X70609049Y-55534049D01*
X70608800Y-55526138D01*
X70608800Y-54577956D01*
X70628802Y-54509835D01*
X70682458Y-54463342D01*
X70748407Y-54452693D01*
X70798467Y-54458131D01*
X70798471Y-54458131D01*
X70801866Y-54458500D01*
X74298134Y-54458500D01*
X74360316Y-54451745D01*
X74496705Y-54400615D01*
X74613261Y-54313261D01*
X74700615Y-54196705D01*
X74751745Y-54060316D01*
X74758500Y-53998134D01*
X74758500Y-52301866D01*
X74751745Y-52239684D01*
X74700615Y-52103295D01*
X74613261Y-51986739D01*
X74496705Y-51899385D01*
X74360316Y-51848255D01*
X74298134Y-51841500D01*
X73587418Y-51841500D01*
X73519297Y-51821498D01*
X73472804Y-51767842D01*
X73462700Y-51697568D01*
X73492194Y-51632988D01*
X73514271Y-51613967D01*
X73514216Y-51613901D01*
X73517527Y-51611162D01*
X73519901Y-51609116D01*
X73527018Y-51604600D01*
X73532659Y-51598593D01*
X73550446Y-51582912D01*
X73550691Y-51582734D01*
X73550693Y-51582732D01*
X73557107Y-51578072D01*
X73562162Y-51571962D01*
X73592903Y-51534804D01*
X73598134Y-51528870D01*
X73631158Y-51493702D01*
X73631160Y-51493699D01*
X73636586Y-51487921D01*
X73640558Y-51480697D01*
X73653881Y-51461094D01*
X73654080Y-51460854D01*
X73654084Y-51460847D01*
X73659133Y-51454744D01*
X73683047Y-51403924D01*
X73686629Y-51396892D01*
X73713695Y-51347660D01*
X73715965Y-51348909D01*
X73751861Y-51302909D01*
X73781104Y-51287288D01*
X73904396Y-51241068D01*
X73904397Y-51241067D01*
X73912806Y-51237915D01*
X74029362Y-51150561D01*
X74032534Y-51146328D01*
X74093223Y-51113192D01*
X74164038Y-51118259D01*
X74207242Y-51146026D01*
X74210641Y-51150561D01*
X74327197Y-51237915D01*
X74335606Y-51241067D01*
X74335607Y-51241068D01*
X74458915Y-51287294D01*
X74515680Y-51329935D01*
X74530323Y-51355236D01*
X74531771Y-51358582D01*
X74533982Y-51366193D01*
X74538015Y-51373012D01*
X74538017Y-51373017D01*
X74544293Y-51383628D01*
X74552988Y-51401376D01*
X74560448Y-51420217D01*
X74565110Y-51426633D01*
X74565110Y-51426634D01*
X74586436Y-51455987D01*
X74592952Y-51465907D01*
X74595531Y-51470267D01*
X74615458Y-51503962D01*
X74629779Y-51518283D01*
X74642619Y-51533316D01*
X74654528Y-51549707D01*
X74660634Y-51554758D01*
X74688605Y-51577898D01*
X74697384Y-51585888D01*
X76847343Y-53735847D01*
X76854887Y-53744137D01*
X76859000Y-53750618D01*
X76864777Y-53756043D01*
X76908667Y-53797258D01*
X76911509Y-53800013D01*
X76931230Y-53819734D01*
X76934425Y-53822212D01*
X76943447Y-53829918D01*
X76975679Y-53860186D01*
X76982628Y-53864006D01*
X76993432Y-53869946D01*
X77009956Y-53880799D01*
X77025959Y-53893213D01*
X77066543Y-53910776D01*
X77077173Y-53915983D01*
X77115940Y-53937295D01*
X77123617Y-53939266D01*
X77123622Y-53939268D01*
X77135558Y-53942332D01*
X77154266Y-53948737D01*
X77172855Y-53956781D01*
X77180680Y-53958020D01*
X77180682Y-53958021D01*
X77216519Y-53963697D01*
X77228140Y-53966104D01*
X77263289Y-53975128D01*
X77270970Y-53977100D01*
X77291231Y-53977100D01*
X77310940Y-53978651D01*
X77330943Y-53981819D01*
X77338835Y-53981073D01*
X77344062Y-53980579D01*
X77374954Y-53977659D01*
X77386811Y-53977100D01*
X77821300Y-53977100D01*
X77889421Y-53997102D01*
X77935914Y-54050758D01*
X77947300Y-54103100D01*
X77947300Y-55955833D01*
X77946773Y-55967016D01*
X77945098Y-55974509D01*
X77945347Y-55982435D01*
X77945347Y-55982436D01*
X77947238Y-56042586D01*
X77947300Y-56046545D01*
X77947300Y-56074456D01*
X77947797Y-56078390D01*
X77947797Y-56078391D01*
X77947805Y-56078456D01*
X77948738Y-56090293D01*
X77950127Y-56134489D01*
X77955348Y-56152460D01*
X77955778Y-56153939D01*
X77959787Y-56173300D01*
X77962326Y-56193397D01*
X77965245Y-56200768D01*
X77965245Y-56200770D01*
X77978604Y-56234512D01*
X77982449Y-56245742D01*
X77991611Y-56277279D01*
X77994782Y-56288193D01*
X77998815Y-56295012D01*
X77998817Y-56295017D01*
X78005093Y-56305628D01*
X78013788Y-56323376D01*
X78021248Y-56342217D01*
X78025910Y-56348633D01*
X78025910Y-56348634D01*
X78047236Y-56377987D01*
X78053752Y-56387907D01*
X78071929Y-56418642D01*
X78076258Y-56425962D01*
X78090579Y-56440283D01*
X78103419Y-56455316D01*
X78115328Y-56471707D01*
X78121434Y-56476758D01*
X78149405Y-56499898D01*
X78158184Y-56507888D01*
X81491495Y-59841199D01*
X81525521Y-59903511D01*
X81528400Y-59930294D01*
X81528400Y-67664401D01*
X81508398Y-67732522D01*
X81454742Y-67779015D01*
X81442117Y-67783930D01*
X81436112Y-67785206D01*
X81430085Y-67787889D01*
X81430086Y-67787889D01*
X81267678Y-67860197D01*
X81267676Y-67860198D01*
X81261648Y-67862882D01*
X81256307Y-67866762D01*
X81256306Y-67866763D01*
X81248863Y-67872171D01*
X81113526Y-67970500D01*
X81108561Y-67974107D01*
X81041694Y-67997965D01*
X80972542Y-67981885D01*
X80923062Y-67930971D01*
X80908500Y-67872171D01*
X80908500Y-66851866D01*
X80901745Y-66789684D01*
X80850615Y-66653295D01*
X80763261Y-66536739D01*
X80646705Y-66449385D01*
X80510316Y-66398255D01*
X80448134Y-66391500D01*
X78951866Y-66391500D01*
X78889684Y-66398255D01*
X78753295Y-66449385D01*
X78636739Y-66536739D01*
X78549385Y-66653295D01*
X78498255Y-66789684D01*
X78491500Y-66851866D01*
X78491500Y-68675200D01*
X78471498Y-68743321D01*
X78417842Y-68789814D01*
X78365500Y-68801200D01*
X72824594Y-68801200D01*
X72756473Y-68781198D01*
X72735499Y-68764295D01*
X72119460Y-68148255D01*
X71478952Y-67507747D01*
X71471412Y-67499461D01*
X71467300Y-67492982D01*
X71456052Y-67482419D01*
X71417649Y-67446357D01*
X71414807Y-67443602D01*
X71395070Y-67423865D01*
X71391873Y-67421385D01*
X71382851Y-67413680D01*
X71350621Y-67383414D01*
X71343675Y-67379595D01*
X71343672Y-67379593D01*
X71332866Y-67373652D01*
X71316347Y-67362801D01*
X71315883Y-67362441D01*
X71300341Y-67350386D01*
X71293072Y-67347241D01*
X71293068Y-67347238D01*
X71259763Y-67332826D01*
X71249113Y-67327609D01*
X71210360Y-67306305D01*
X71190737Y-67301267D01*
X71172034Y-67294863D01*
X71160720Y-67289967D01*
X71160719Y-67289967D01*
X71153445Y-67286819D01*
X71145622Y-67285580D01*
X71145612Y-67285577D01*
X71129954Y-67283097D01*
X71065801Y-67252683D01*
X71048842Y-67234215D01*
X71013261Y-67186739D01*
X70896705Y-67099385D01*
X70886092Y-67095406D01*
X70840270Y-67078228D01*
X70788968Y-67039690D01*
X72437037Y-67039690D01*
X72464025Y-67262715D01*
X72530082Y-67477435D01*
X72532652Y-67482415D01*
X72532654Y-67482419D01*
X72622555Y-67656599D01*
X72633118Y-67677064D01*
X72636531Y-67681511D01*
X72636531Y-67681512D01*
X72640031Y-67686073D01*
X72769877Y-67855292D01*
X72936036Y-68006485D01*
X72940783Y-68009463D01*
X72940786Y-68009465D01*
X73069229Y-68090036D01*
X73126344Y-68125864D01*
X73334783Y-68209656D01*
X73554767Y-68255213D01*
X73559378Y-68255479D01*
X73559379Y-68255479D01*
X73609952Y-68258395D01*
X73609956Y-68258395D01*
X73611775Y-68258500D01*
X73756999Y-68258500D01*
X73759786Y-68258251D01*
X73759792Y-68258251D01*
X73829929Y-68251991D01*
X73923762Y-68243617D01*
X73929176Y-68242136D01*
X73929181Y-68242135D01*
X74085445Y-68199385D01*
X74140451Y-68184337D01*
X74145509Y-68181925D01*
X74145513Y-68181923D01*
X74263042Y-68125864D01*
X74343218Y-68087622D01*
X74525654Y-67956529D01*
X74611493Y-67867950D01*
X74678089Y-67799229D01*
X74678091Y-67799226D01*
X74681992Y-67795201D01*
X74807290Y-67608738D01*
X74897588Y-67403033D01*
X74899108Y-67396705D01*
X74948722Y-67190046D01*
X74948722Y-67190045D01*
X74950032Y-67184589D01*
X74956164Y-67078228D01*
X74962640Y-66965917D01*
X74962640Y-66965914D01*
X74962963Y-66960310D01*
X74935975Y-66737285D01*
X74869918Y-66522565D01*
X74865756Y-66514500D01*
X74769454Y-66327919D01*
X74769454Y-66327918D01*
X74766882Y-66322936D01*
X74630123Y-66144708D01*
X74463964Y-65993515D01*
X74459217Y-65990537D01*
X74459214Y-65990535D01*
X74278405Y-65877115D01*
X74273656Y-65874136D01*
X74065217Y-65790344D01*
X73845233Y-65744787D01*
X73840622Y-65744521D01*
X73840621Y-65744521D01*
X73790048Y-65741605D01*
X73790044Y-65741605D01*
X73788225Y-65741500D01*
X73643001Y-65741500D01*
X73640214Y-65741749D01*
X73640208Y-65741749D01*
X73570071Y-65748009D01*
X73476238Y-65756383D01*
X73470824Y-65757864D01*
X73470819Y-65757865D01*
X73356262Y-65789205D01*
X73259549Y-65815663D01*
X73254491Y-65818075D01*
X73254487Y-65818077D01*
X73233625Y-65828028D01*
X73056782Y-65912378D01*
X72874346Y-66043471D01*
X72870439Y-66047503D01*
X72739538Y-66182582D01*
X72718008Y-66204799D01*
X72592710Y-66391262D01*
X72502412Y-66596967D01*
X72501103Y-66602418D01*
X72501102Y-66602422D01*
X72454258Y-66797540D01*
X72449968Y-66815411D01*
X72437037Y-67039690D01*
X70788968Y-67039690D01*
X70783505Y-67035586D01*
X70758806Y-66969024D01*
X70758500Y-66960246D01*
X70758500Y-66401866D01*
X70751745Y-66339684D01*
X70700615Y-66203295D01*
X70613261Y-66086739D01*
X70496705Y-65999385D01*
X70360316Y-65948255D01*
X70298134Y-65941500D01*
X68701866Y-65941500D01*
X68639684Y-65948255D01*
X68503295Y-65999385D01*
X68386739Y-66086739D01*
X68299385Y-66203295D01*
X68248255Y-66339684D01*
X68241500Y-66401866D01*
X68241500Y-67198134D01*
X68248255Y-67260316D01*
X68299385Y-67396705D01*
X68386739Y-67513261D01*
X68503295Y-67600615D01*
X68511703Y-67603767D01*
X68559730Y-67621772D01*
X68616495Y-67664414D01*
X68641194Y-67730976D01*
X68641500Y-67739754D01*
X68641500Y-68060246D01*
X68621498Y-68128367D01*
X68567842Y-68174860D01*
X68559730Y-68178228D01*
X68517758Y-68193963D01*
X68503295Y-68199385D01*
X68386739Y-68286739D01*
X68299385Y-68403295D01*
X68248255Y-68539684D01*
X68241500Y-68601866D01*
X68241500Y-69024286D01*
X68221498Y-69092407D01*
X68167842Y-69138900D01*
X68097568Y-69149004D01*
X68064250Y-69139392D01*
X68023823Y-69121392D01*
X68023815Y-69121389D01*
X68017788Y-69118706D01*
X67924387Y-69098853D01*
X67837444Y-69080372D01*
X67837439Y-69080372D01*
X67830987Y-69079000D01*
X67640013Y-69079000D01*
X67633561Y-69080372D01*
X67633556Y-69080372D01*
X67546613Y-69098853D01*
X67453212Y-69118706D01*
X67447182Y-69121391D01*
X67447181Y-69121391D01*
X67284778Y-69193697D01*
X67284776Y-69193698D01*
X67278748Y-69196382D01*
X67124247Y-69308634D01*
X67119826Y-69313544D01*
X67119825Y-69313545D01*
X67051285Y-69389667D01*
X66996460Y-69450556D01*
X66900973Y-69615944D01*
X66841958Y-69797572D01*
X66841268Y-69804133D01*
X66841268Y-69804135D01*
X66835546Y-69858577D01*
X66821996Y-69987500D01*
X66822686Y-69994065D01*
X66836391Y-70124457D01*
X66841958Y-70177428D01*
X66900973Y-70359056D01*
X66996460Y-70524444D01*
X67124247Y-70666366D01*
X67278748Y-70778618D01*
X67284776Y-70781302D01*
X67284778Y-70781303D01*
X67447181Y-70853609D01*
X67453212Y-70856294D01*
X67514057Y-70869227D01*
X67633556Y-70894628D01*
X67633561Y-70894628D01*
X67640013Y-70896000D01*
X67830987Y-70896000D01*
X67837439Y-70894628D01*
X67837444Y-70894628D01*
X67982360Y-70863825D01*
X68053151Y-70869227D01*
X68084121Y-70886245D01*
X68103295Y-70900615D01*
X68111703Y-70903767D01*
X68159730Y-70921772D01*
X68216495Y-70964414D01*
X68241194Y-71030976D01*
X68241500Y-71039754D01*
X68241500Y-71360780D01*
X68221498Y-71428901D01*
X68167842Y-71475394D01*
X68159731Y-71478762D01*
X68111944Y-71496677D01*
X68096351Y-71505214D01*
X67994276Y-71581715D01*
X67981715Y-71594276D01*
X67905214Y-71696351D01*
X67896676Y-71711946D01*
X67851522Y-71832394D01*
X67847895Y-71847649D01*
X67842369Y-71898514D01*
X67842000Y-71905328D01*
X67842000Y-72027885D01*
X67846475Y-72043124D01*
X67847865Y-72044329D01*
X67855548Y-72046000D01*
X68605014Y-72046000D01*
X68633165Y-72049301D01*
X68639684Y-72051745D01*
X68647532Y-72052598D01*
X68647534Y-72052598D01*
X68698469Y-72058131D01*
X68701866Y-72058500D01*
X69228000Y-72058500D01*
X69296121Y-72078502D01*
X69342614Y-72132158D01*
X69354000Y-72184500D01*
X69354000Y-72415500D01*
X69333998Y-72483621D01*
X69280342Y-72530114D01*
X69228000Y-72541500D01*
X68701866Y-72541500D01*
X68698469Y-72541869D01*
X68647534Y-72547402D01*
X68647532Y-72547402D01*
X68639684Y-72548255D01*
X68633165Y-72550699D01*
X68605014Y-72554000D01*
X67860116Y-72554000D01*
X67844877Y-72558475D01*
X67843672Y-72559865D01*
X67842001Y-72567548D01*
X67842001Y-72694669D01*
X67842371Y-72701490D01*
X67847895Y-72752352D01*
X67851521Y-72767604D01*
X67896676Y-72888054D01*
X67905214Y-72903649D01*
X67981715Y-73005724D01*
X67994276Y-73018285D01*
X68096351Y-73094786D01*
X68111944Y-73103323D01*
X68159731Y-73121238D01*
X68216495Y-73163880D01*
X68241194Y-73230442D01*
X68241500Y-73239220D01*
X68241500Y-73798134D01*
X68241869Y-73801531D01*
X68245081Y-73831095D01*
X68248255Y-73860316D01*
X68251027Y-73867709D01*
X68251027Y-73867711D01*
X68265295Y-73905771D01*
X68270478Y-73976578D01*
X68265295Y-73994229D01*
X68252662Y-74027927D01*
X68248255Y-74039684D01*
X68241500Y-74101866D01*
X68241500Y-74404461D01*
X68221498Y-74472582D01*
X68167842Y-74519075D01*
X68097568Y-74529179D01*
X68032988Y-74499685D01*
X68004980Y-74464970D01*
X67994788Y-74446354D01*
X67918285Y-74344276D01*
X67905724Y-74331715D01*
X67803649Y-74255214D01*
X67788054Y-74246676D01*
X67667606Y-74201522D01*
X67652351Y-74197895D01*
X67601486Y-74192369D01*
X67594672Y-74192000D01*
X66872115Y-74192000D01*
X66856876Y-74196475D01*
X66855671Y-74197865D01*
X66854000Y-74205548D01*
X66854000Y-75127885D01*
X66858475Y-75143124D01*
X66859865Y-75144329D01*
X66867548Y-75146000D01*
X68039884Y-75146000D01*
X68055123Y-75141525D01*
X68056328Y-75140135D01*
X68060878Y-75119217D01*
X68065475Y-75120217D01*
X68078001Y-75077556D01*
X68131657Y-75031063D01*
X68201931Y-75020959D01*
X68266511Y-75050453D01*
X68294518Y-75085166D01*
X68296235Y-75088301D01*
X68299385Y-75096705D01*
X68304769Y-75103888D01*
X68304769Y-75103889D01*
X68308403Y-75108738D01*
X68386739Y-75213261D01*
X68503295Y-75300615D01*
X68639684Y-75351745D01*
X68701866Y-75358500D01*
X70298134Y-75358500D01*
X70360316Y-75351745D01*
X70496705Y-75300615D01*
X70613261Y-75213261D01*
X70700615Y-75096705D01*
X70751745Y-74960316D01*
X70758500Y-74898134D01*
X70758500Y-74101866D01*
X70751745Y-74039684D01*
X70747338Y-74027927D01*
X70734705Y-73994229D01*
X70729522Y-73923422D01*
X70734705Y-73905771D01*
X70748973Y-73867711D01*
X70748973Y-73867709D01*
X70751745Y-73860316D01*
X70754920Y-73831095D01*
X70758131Y-73801531D01*
X70758500Y-73798134D01*
X70758500Y-73559500D01*
X70778502Y-73491379D01*
X70832158Y-73444886D01*
X70884500Y-73433500D01*
X72683356Y-73433500D01*
X72751477Y-73453502D01*
X72797970Y-73507158D01*
X72808074Y-73577432D01*
X72773840Y-73647185D01*
X72723757Y-73698867D01*
X72718008Y-73704799D01*
X72592710Y-73891262D01*
X72502412Y-74096967D01*
X72501103Y-74102418D01*
X72501102Y-74102422D01*
X72451278Y-74309954D01*
X72449968Y-74315411D01*
X72449645Y-74321016D01*
X72438226Y-74519075D01*
X72437037Y-74539690D01*
X72464025Y-74762715D01*
X72530082Y-74977435D01*
X72532652Y-74982415D01*
X72532654Y-74982419D01*
X72614357Y-75140716D01*
X72633118Y-75177064D01*
X72769877Y-75355292D01*
X72936036Y-75506485D01*
X72940783Y-75509463D01*
X72940786Y-75509465D01*
X73108072Y-75614402D01*
X73126344Y-75625864D01*
X73334783Y-75709656D01*
X73554767Y-75755213D01*
X73559378Y-75755479D01*
X73559379Y-75755479D01*
X73609952Y-75758395D01*
X73609956Y-75758395D01*
X73611775Y-75758500D01*
X73756999Y-75758500D01*
X73759786Y-75758251D01*
X73759792Y-75758251D01*
X73829929Y-75751991D01*
X73923762Y-75743617D01*
X73929176Y-75742136D01*
X73929181Y-75742135D01*
X74085851Y-75699274D01*
X74140451Y-75684337D01*
X74145509Y-75681925D01*
X74145513Y-75681923D01*
X74266386Y-75624269D01*
X74343218Y-75587622D01*
X74525654Y-75456529D01*
X74620651Y-75358500D01*
X74678089Y-75299229D01*
X74678091Y-75299226D01*
X74681992Y-75295201D01*
X74807290Y-75108738D01*
X74897588Y-74903033D01*
X74898959Y-74897325D01*
X74948722Y-74690046D01*
X74948722Y-74690045D01*
X74950032Y-74684589D01*
X74961987Y-74477240D01*
X74962640Y-74465917D01*
X74962640Y-74465914D01*
X74962963Y-74460310D01*
X74935975Y-74237285D01*
X74869918Y-74022565D01*
X74856650Y-73996857D01*
X74769454Y-73827919D01*
X74769454Y-73827918D01*
X74766882Y-73822936D01*
X74630123Y-73644708D01*
X74628957Y-73643647D01*
X74598132Y-73581105D01*
X74606157Y-73510564D01*
X74651046Y-73455559D01*
X74722266Y-73433500D01*
X74785406Y-73433500D01*
X74853527Y-73453502D01*
X74874501Y-73470405D01*
X75196343Y-73792247D01*
X75203887Y-73800537D01*
X75208000Y-73807018D01*
X75213777Y-73812443D01*
X75257667Y-73853658D01*
X75260509Y-73856413D01*
X75280230Y-73876134D01*
X75283425Y-73878612D01*
X75292447Y-73886318D01*
X75324679Y-73916586D01*
X75324585Y-73916686D01*
X75328676Y-73920180D01*
X76862548Y-75454053D01*
X76870088Y-75462339D01*
X76874200Y-75468818D01*
X76879977Y-75474243D01*
X76923851Y-75515443D01*
X76926693Y-75518198D01*
X76946430Y-75537935D01*
X76949627Y-75540415D01*
X76958647Y-75548118D01*
X76990879Y-75578386D01*
X76997825Y-75582205D01*
X76997828Y-75582207D01*
X77008634Y-75588148D01*
X77025153Y-75598999D01*
X77041159Y-75611414D01*
X77048428Y-75614559D01*
X77048432Y-75614562D01*
X77081737Y-75628974D01*
X77092387Y-75634191D01*
X77131140Y-75655495D01*
X77138815Y-75657466D01*
X77138816Y-75657466D01*
X77150762Y-75660533D01*
X77169467Y-75666937D01*
X77188055Y-75674981D01*
X77195878Y-75676220D01*
X77195888Y-75676223D01*
X77231724Y-75681899D01*
X77243344Y-75684305D01*
X77275159Y-75692473D01*
X77286170Y-75695300D01*
X77306424Y-75695300D01*
X77326134Y-75696851D01*
X77346143Y-75700020D01*
X77354035Y-75699274D01*
X77372780Y-75697502D01*
X77390162Y-75695859D01*
X77402019Y-75695300D01*
X86664733Y-75695300D01*
X86675916Y-75695827D01*
X86683409Y-75697502D01*
X86691335Y-75697253D01*
X86691336Y-75697253D01*
X86751486Y-75695362D01*
X86755445Y-75695300D01*
X86783356Y-75695300D01*
X86787291Y-75694803D01*
X86787356Y-75694795D01*
X86799193Y-75693862D01*
X86831451Y-75692848D01*
X86835470Y-75692722D01*
X86843389Y-75692473D01*
X86862843Y-75686821D01*
X86882200Y-75682813D01*
X86894430Y-75681268D01*
X86894431Y-75681268D01*
X86902297Y-75680274D01*
X86909668Y-75677355D01*
X86909670Y-75677355D01*
X86943412Y-75663996D01*
X86954642Y-75660151D01*
X86989483Y-75650029D01*
X86989484Y-75650029D01*
X86997093Y-75647818D01*
X87003912Y-75643785D01*
X87003917Y-75643783D01*
X87014528Y-75637507D01*
X87032276Y-75628812D01*
X87051117Y-75621352D01*
X87086887Y-75595364D01*
X87096807Y-75588848D01*
X87128035Y-75570380D01*
X87128038Y-75570378D01*
X87134862Y-75566342D01*
X87149183Y-75552021D01*
X87164217Y-75539180D01*
X87174194Y-75531931D01*
X87180607Y-75527272D01*
X87208798Y-75493195D01*
X87216788Y-75484416D01*
X87802780Y-74898424D01*
X87865092Y-74864398D01*
X87935907Y-74869463D01*
X87985510Y-74903208D01*
X88061647Y-74987766D01*
X88137740Y-75043051D01*
X88191035Y-75081772D01*
X88216148Y-75100018D01*
X88222176Y-75102702D01*
X88222178Y-75102703D01*
X88330292Y-75150838D01*
X88390612Y-75177694D01*
X88484012Y-75197547D01*
X88570956Y-75216028D01*
X88570961Y-75216028D01*
X88577413Y-75217400D01*
X88768387Y-75217400D01*
X88774839Y-75216028D01*
X88774844Y-75216028D01*
X88861788Y-75197547D01*
X88955188Y-75177694D01*
X89015508Y-75150838D01*
X89123622Y-75102703D01*
X89123624Y-75102702D01*
X89129652Y-75100018D01*
X89154766Y-75081772D01*
X89262571Y-75003446D01*
X89284153Y-74987766D01*
X89288568Y-74982863D01*
X89293480Y-74978440D01*
X89294605Y-74979689D01*
X89347914Y-74946849D01*
X89381100Y-74942400D01*
X99939006Y-74942400D01*
X100007127Y-74962402D01*
X100028101Y-74979305D01*
X104021043Y-78972247D01*
X104028587Y-78980537D01*
X104032700Y-78987018D01*
X104038477Y-78992443D01*
X104082367Y-79033658D01*
X104085209Y-79036413D01*
X104104931Y-79056135D01*
X104108055Y-79058558D01*
X104108059Y-79058562D01*
X104108124Y-79058612D01*
X104117145Y-79066317D01*
X104149379Y-79096586D01*
X104156327Y-79100405D01*
X104156329Y-79100407D01*
X104167132Y-79106346D01*
X104183659Y-79117202D01*
X104193398Y-79124757D01*
X104193400Y-79124758D01*
X104199660Y-79129614D01*
X104240240Y-79147174D01*
X104250888Y-79152391D01*
X104289640Y-79173695D01*
X104297316Y-79175666D01*
X104297319Y-79175667D01*
X104309262Y-79178733D01*
X104327967Y-79185137D01*
X104346555Y-79193181D01*
X104354378Y-79194420D01*
X104354388Y-79194423D01*
X104390224Y-79200099D01*
X104401844Y-79202505D01*
X104436985Y-79211527D01*
X104439336Y-79212130D01*
X104439337Y-79212131D01*
X104444669Y-79213500D01*
X104444448Y-79214360D01*
X104503425Y-79240077D01*
X104529996Y-79270873D01*
X104597287Y-79380683D01*
X104597291Y-79380688D01*
X104599987Y-79385088D01*
X104746250Y-79553938D01*
X104918126Y-79696632D01*
X105111000Y-79809338D01*
X105319692Y-79889030D01*
X105324760Y-79890061D01*
X105324763Y-79890062D01*
X105432017Y-79911883D01*
X105538597Y-79933567D01*
X105543772Y-79933757D01*
X105543774Y-79933757D01*
X105756673Y-79941564D01*
X105756677Y-79941564D01*
X105761837Y-79941753D01*
X105766957Y-79941097D01*
X105766959Y-79941097D01*
X105978288Y-79914025D01*
X105978289Y-79914025D01*
X105983416Y-79913368D01*
X105988366Y-79911883D01*
X106192429Y-79850661D01*
X106192434Y-79850659D01*
X106197384Y-79849174D01*
X106397994Y-79750896D01*
X106579860Y-79621173D01*
X106738096Y-79463489D01*
X106868453Y-79282077D01*
X106873991Y-79270873D01*
X106965136Y-79086453D01*
X106965137Y-79086451D01*
X106967430Y-79081811D01*
X107032370Y-78868069D01*
X107061529Y-78646590D01*
X107063156Y-78580000D01*
X107044852Y-78357361D01*
X106990431Y-78140702D01*
X106901354Y-77935840D01*
X106780014Y-77748277D01*
X106629670Y-77583051D01*
X106625619Y-77579852D01*
X106625615Y-77579848D01*
X106458414Y-77447800D01*
X106458410Y-77447798D01*
X106454359Y-77444598D01*
X106413053Y-77421796D01*
X106363084Y-77371364D01*
X106348312Y-77301921D01*
X106373428Y-77235516D01*
X106400780Y-77208909D01*
X106444603Y-77177650D01*
X106579860Y-77081173D01*
X106738096Y-76923489D01*
X106868453Y-76742077D01*
X106872611Y-76733665D01*
X106965136Y-76546453D01*
X106965137Y-76546451D01*
X106967430Y-76541811D01*
X107032370Y-76328069D01*
X107061529Y-76106590D01*
X107063156Y-76040000D01*
X107044852Y-75817361D01*
X106990431Y-75600702D01*
X106901354Y-75395840D01*
X106824886Y-75277638D01*
X106782822Y-75212617D01*
X106782820Y-75212614D01*
X106780014Y-75208277D01*
X106629670Y-75043051D01*
X106625619Y-75039852D01*
X106625615Y-75039848D01*
X106458414Y-74907800D01*
X106458410Y-74907798D01*
X106454359Y-74904598D01*
X106413053Y-74881796D01*
X106363084Y-74831364D01*
X106348312Y-74761921D01*
X106373428Y-74695516D01*
X106400780Y-74668909D01*
X106444603Y-74637650D01*
X106579860Y-74541173D01*
X106602036Y-74519075D01*
X106713200Y-74408298D01*
X106738096Y-74383489D01*
X106755297Y-74359552D01*
X106865435Y-74206277D01*
X106868453Y-74202077D01*
X106872012Y-74194877D01*
X106965136Y-74006453D01*
X106965137Y-74006451D01*
X106967430Y-74001811D01*
X107012364Y-73853916D01*
X107030865Y-73793023D01*
X107030865Y-73793021D01*
X107032370Y-73788069D01*
X107061529Y-73566590D01*
X107063156Y-73500000D01*
X107044852Y-73277361D01*
X106990431Y-73060702D01*
X106901354Y-72855840D01*
X106803620Y-72704766D01*
X106782822Y-72672617D01*
X106782820Y-72672614D01*
X106780014Y-72668277D01*
X106629670Y-72503051D01*
X106625619Y-72499852D01*
X106625615Y-72499848D01*
X106458414Y-72367800D01*
X106458410Y-72367798D01*
X106454359Y-72364598D01*
X106413053Y-72341796D01*
X106363084Y-72291364D01*
X106348312Y-72221921D01*
X106373428Y-72155516D01*
X106400780Y-72128909D01*
X106451344Y-72092842D01*
X106579860Y-72001173D01*
X106738096Y-71843489D01*
X106743498Y-71835972D01*
X106865435Y-71666277D01*
X106868453Y-71662077D01*
X106872611Y-71653665D01*
X106965136Y-71466453D01*
X106965137Y-71466451D01*
X106967430Y-71461811D01*
X107032370Y-71248069D01*
X107061529Y-71026590D01*
X107063156Y-70960000D01*
X107044852Y-70737361D01*
X106990431Y-70520702D01*
X106901354Y-70315840D01*
X106811811Y-70177428D01*
X106782822Y-70132617D01*
X106782820Y-70132614D01*
X106780014Y-70128277D01*
X106629670Y-69963051D01*
X106625619Y-69959852D01*
X106625615Y-69959848D01*
X106458414Y-69827800D01*
X106458410Y-69827798D01*
X106454359Y-69824598D01*
X106412569Y-69801529D01*
X106362598Y-69751097D01*
X106347826Y-69681654D01*
X106372942Y-69615248D01*
X106400294Y-69588641D01*
X106575328Y-69463792D01*
X106583200Y-69457139D01*
X106734052Y-69306812D01*
X106740730Y-69298965D01*
X106865003Y-69126020D01*
X106870313Y-69117183D01*
X106964670Y-68926267D01*
X106968469Y-68916672D01*
X107030377Y-68712910D01*
X107032555Y-68702837D01*
X107033986Y-68691962D01*
X107031775Y-68677778D01*
X107018617Y-68674000D01*
X104383225Y-68674000D01*
X104369694Y-68677973D01*
X104368257Y-68687966D01*
X104398565Y-68822446D01*
X104401645Y-68832275D01*
X104481770Y-69029603D01*
X104486413Y-69038794D01*
X104597694Y-69220388D01*
X104603777Y-69228699D01*
X104743213Y-69389667D01*
X104750580Y-69396883D01*
X104914434Y-69532916D01*
X104922881Y-69538831D01*
X104991969Y-69579203D01*
X105040693Y-69630842D01*
X105053764Y-69700625D01*
X105027033Y-69766396D01*
X104986584Y-69799752D01*
X104973607Y-69806507D01*
X104969474Y-69809610D01*
X104969471Y-69809612D01*
X104799100Y-69937530D01*
X104794965Y-69940635D01*
X104640629Y-70102138D01*
X104637715Y-70106410D01*
X104637714Y-70106411D01*
X104525095Y-70271504D01*
X104470184Y-70316507D01*
X104421007Y-70326500D01*
X101846794Y-70326500D01*
X101778673Y-70306498D01*
X101757699Y-70289595D01*
X99237939Y-67769835D01*
X99203913Y-67707523D01*
X99208978Y-67636708D01*
X99233398Y-67596430D01*
X99306221Y-67515552D01*
X99306222Y-67515551D01*
X99310640Y-67510644D01*
X99333934Y-67470298D01*
X99385316Y-67421306D01*
X99443052Y-67407300D01*
X102027206Y-67407300D01*
X102095327Y-67427302D01*
X102116301Y-67444205D01*
X102119743Y-67447647D01*
X102127287Y-67455937D01*
X102131400Y-67462418D01*
X102137177Y-67467843D01*
X102181067Y-67509058D01*
X102183909Y-67511813D01*
X102203631Y-67531535D01*
X102206755Y-67533958D01*
X102206759Y-67533962D01*
X102206824Y-67534012D01*
X102215845Y-67541717D01*
X102248079Y-67571986D01*
X102255027Y-67575805D01*
X102255029Y-67575807D01*
X102265832Y-67581746D01*
X102282359Y-67592602D01*
X102292098Y-67600157D01*
X102292100Y-67600158D01*
X102298360Y-67605014D01*
X102338940Y-67622574D01*
X102349588Y-67627791D01*
X102374376Y-67641418D01*
X102388340Y-67649095D01*
X102396016Y-67651066D01*
X102396019Y-67651067D01*
X102407962Y-67654133D01*
X102426666Y-67660537D01*
X102435626Y-67664414D01*
X102445255Y-67668581D01*
X102453078Y-67669820D01*
X102453088Y-67669823D01*
X102488924Y-67675499D01*
X102500544Y-67677905D01*
X102532359Y-67686073D01*
X102543370Y-67688900D01*
X102563624Y-67688900D01*
X102583334Y-67690451D01*
X102603343Y-67693620D01*
X102611235Y-67692874D01*
X102647361Y-67689459D01*
X102659219Y-67688900D01*
X104344715Y-67688900D01*
X104412836Y-67708902D01*
X104459329Y-67762558D01*
X104469433Y-67832832D01*
X104459003Y-67867950D01*
X104423338Y-67944783D01*
X104419775Y-67954470D01*
X104364389Y-68154183D01*
X104365912Y-68162607D01*
X104378292Y-68166000D01*
X107018344Y-68166000D01*
X107031875Y-68162027D01*
X107033180Y-68152947D01*
X106991214Y-67985875D01*
X106987894Y-67976124D01*
X106902972Y-67780814D01*
X106898105Y-67771739D01*
X106782427Y-67592927D01*
X106776135Y-67584756D01*
X106762417Y-67569680D01*
X106731366Y-67505834D01*
X106739762Y-67435336D01*
X106766517Y-67395787D01*
X107226905Y-66935399D01*
X107289217Y-66901373D01*
X107360032Y-66906438D01*
X107416868Y-66948985D01*
X107441679Y-67015505D01*
X107442000Y-67024494D01*
X107442000Y-91535855D01*
X107421998Y-91603976D01*
X107368342Y-91650469D01*
X107298068Y-91660573D01*
X107233488Y-91631079D01*
X107212913Y-91608306D01*
X107209870Y-91603976D01*
X107052441Y-91379977D01*
X106856740Y-91169378D01*
X106634268Y-90987287D01*
X106389142Y-90837073D01*
X106371048Y-90829130D01*
X106129830Y-90723243D01*
X106125898Y-90721517D01*
X106099963Y-90714129D01*
X105853534Y-90643932D01*
X105853535Y-90643932D01*
X105849406Y-90642756D01*
X105636704Y-90612485D01*
X105569036Y-90602854D01*
X105569034Y-90602854D01*
X105564784Y-90602249D01*
X105560495Y-90602227D01*
X105560488Y-90602226D01*
X105281583Y-90600765D01*
X105281576Y-90600765D01*
X105277297Y-90600743D01*
X105273053Y-90601302D01*
X105273049Y-90601302D01*
X105147660Y-90617810D01*
X104992266Y-90638268D01*
X104988126Y-90639401D01*
X104988124Y-90639401D01*
X104911311Y-90660415D01*
X104714964Y-90714129D01*
X104711016Y-90715813D01*
X104454476Y-90825237D01*
X104454472Y-90825239D01*
X104450524Y-90826923D01*
X104325960Y-90901473D01*
X104207521Y-90972357D01*
X104207517Y-90972360D01*
X104203839Y-90974561D01*
X103979472Y-91154313D01*
X103781577Y-91362851D01*
X103657965Y-91534874D01*
X103631056Y-91572323D01*
X103613814Y-91596317D01*
X103479288Y-91850392D01*
X103380489Y-92120373D01*
X103319245Y-92401264D01*
X103296689Y-92687869D01*
X103313238Y-92974883D01*
X103314063Y-92979088D01*
X103314064Y-92979096D01*
X103346010Y-93141921D01*
X103368586Y-93256995D01*
X103369973Y-93261045D01*
X103369974Y-93261050D01*
X103398575Y-93344585D01*
X103461710Y-93528986D01*
X103590885Y-93785822D01*
X103753721Y-94022750D01*
X103947206Y-94235388D01*
X103950501Y-94238143D01*
X103950502Y-94238144D01*
X104001258Y-94280582D01*
X104167759Y-94419798D01*
X104228616Y-94457974D01*
X104310377Y-94509263D01*
X104357454Y-94562407D01*
X104368326Y-94632566D01*
X104339542Y-94697465D01*
X104280239Y-94736500D01*
X104243420Y-94742000D01*
X90409000Y-94742000D01*
X90340879Y-94721998D01*
X90294386Y-94668342D01*
X90283000Y-94616000D01*
X90283000Y-90067000D01*
X83117000Y-90067000D01*
X83117000Y-94616000D01*
X83096998Y-94684121D01*
X83043342Y-94730614D01*
X82991000Y-94742000D01*
X67207232Y-94742000D01*
X67139111Y-94721998D01*
X67092618Y-94668342D01*
X67082514Y-94598068D01*
X67112008Y-94533488D01*
X67143662Y-94507212D01*
X67224213Y-94460142D01*
X67224220Y-94460137D01*
X67227922Y-94457974D01*
X67454159Y-94280582D01*
X67495285Y-94238144D01*
X67651244Y-94077206D01*
X67654227Y-94074128D01*
X67656760Y-94070680D01*
X67656764Y-94070675D01*
X67821887Y-93845886D01*
X67824425Y-93842431D01*
X67961604Y-93589779D01*
X68012414Y-93455314D01*
X68061707Y-93324866D01*
X68061708Y-93324862D01*
X68063225Y-93320848D01*
X68127407Y-93040613D01*
X68152963Y-92754260D01*
X68153427Y-92710000D01*
X68133873Y-92423175D01*
X68129336Y-92401264D01*
X68076443Y-92145855D01*
X68075574Y-92141658D01*
X67979607Y-91870657D01*
X67871175Y-91660573D01*
X67849715Y-91618995D01*
X67849715Y-91618994D01*
X67847750Y-91615188D01*
X67842914Y-91608306D01*
X67684904Y-91383482D01*
X67682441Y-91379977D01*
X67486740Y-91169378D01*
X67264268Y-90987287D01*
X67019142Y-90837073D01*
X67001048Y-90829130D01*
X66759830Y-90723243D01*
X66755898Y-90721517D01*
X66729963Y-90714129D01*
X66483534Y-90643932D01*
X66483535Y-90643932D01*
X66479406Y-90642756D01*
X66266704Y-90612485D01*
X66199036Y-90602854D01*
X66199034Y-90602854D01*
X66194784Y-90602249D01*
X66190495Y-90602227D01*
X66190488Y-90602226D01*
X65911583Y-90600765D01*
X65911576Y-90600765D01*
X65907297Y-90600743D01*
X65903053Y-90601302D01*
X65903049Y-90601302D01*
X65777660Y-90617810D01*
X65622266Y-90638268D01*
X65618126Y-90639401D01*
X65618124Y-90639401D01*
X65541311Y-90660415D01*
X65344964Y-90714129D01*
X65341016Y-90715813D01*
X65084476Y-90825237D01*
X65084472Y-90825239D01*
X65080524Y-90826923D01*
X64955960Y-90901473D01*
X64837521Y-90972357D01*
X64837517Y-90972360D01*
X64833839Y-90974561D01*
X64609472Y-91154313D01*
X64411577Y-91362851D01*
X64319418Y-91491104D01*
X64261056Y-91572323D01*
X64243814Y-91596317D01*
X64241801Y-91600118D01*
X64241086Y-91601272D01*
X64188189Y-91648626D01*
X64118087Y-91659865D01*
X64053038Y-91631420D01*
X64013694Y-91572323D01*
X64008000Y-91534874D01*
X64008000Y-76144669D01*
X65142001Y-76144669D01*
X65142371Y-76151490D01*
X65147895Y-76202352D01*
X65151521Y-76217604D01*
X65196676Y-76338054D01*
X65205214Y-76353649D01*
X65281715Y-76455724D01*
X65294276Y-76468285D01*
X65396351Y-76544786D01*
X65411946Y-76553324D01*
X65532394Y-76598478D01*
X65547649Y-76602105D01*
X65598514Y-76607631D01*
X65605328Y-76608000D01*
X66327885Y-76608000D01*
X66343124Y-76603525D01*
X66344329Y-76602135D01*
X66346000Y-76594452D01*
X66346000Y-76589884D01*
X66854000Y-76589884D01*
X66858475Y-76605123D01*
X66859865Y-76606328D01*
X66867548Y-76607999D01*
X67594669Y-76607999D01*
X67601490Y-76607629D01*
X67652352Y-76602105D01*
X67667604Y-76598479D01*
X67788054Y-76553324D01*
X67803649Y-76544786D01*
X67905724Y-76468285D01*
X67918285Y-76455724D01*
X67994786Y-76353649D01*
X68003324Y-76338054D01*
X68048478Y-76217606D01*
X68052105Y-76202351D01*
X68057631Y-76151486D01*
X68058000Y-76144672D01*
X68058000Y-75672115D01*
X68053525Y-75656876D01*
X68052135Y-75655671D01*
X68044452Y-75654000D01*
X66872115Y-75654000D01*
X66856876Y-75658475D01*
X66855671Y-75659865D01*
X66854000Y-75667548D01*
X66854000Y-76589884D01*
X66346000Y-76589884D01*
X66346000Y-75672115D01*
X66341525Y-75656876D01*
X66340135Y-75655671D01*
X66332452Y-75654000D01*
X65160116Y-75654000D01*
X65144877Y-75658475D01*
X65143672Y-75659865D01*
X65142001Y-75667548D01*
X65142001Y-76144669D01*
X64008000Y-76144669D01*
X64008000Y-75922849D01*
X64028002Y-75854728D01*
X64059890Y-75820948D01*
X64312121Y-75637507D01*
X64881397Y-75223488D01*
X64888235Y-75218851D01*
X64932631Y-75190840D01*
X64964778Y-75154440D01*
X64971423Y-75147472D01*
X64973386Y-75145565D01*
X65036184Y-75112445D01*
X65106919Y-75118534D01*
X65143696Y-75140716D01*
X65147865Y-75144329D01*
X65155548Y-75146000D01*
X66327885Y-75146000D01*
X66343124Y-75141525D01*
X66344329Y-75140135D01*
X66346000Y-75132452D01*
X66346000Y-74210116D01*
X66341525Y-74194877D01*
X66340135Y-74193672D01*
X66332452Y-74192001D01*
X65605331Y-74192001D01*
X65598510Y-74192371D01*
X65547648Y-74197895D01*
X65532396Y-74201521D01*
X65411946Y-74246676D01*
X65396352Y-74255214D01*
X65309565Y-74320257D01*
X65243059Y-74345105D01*
X65173676Y-74330052D01*
X65123446Y-74279878D01*
X65108000Y-74219431D01*
X65108000Y-65221525D01*
X65108274Y-65213223D01*
X65111139Y-65169828D01*
X65111731Y-65160870D01*
X65101200Y-65113456D01*
X65099477Y-65104009D01*
X65093868Y-65064845D01*
X65092595Y-65055955D01*
X65088877Y-65047778D01*
X65087004Y-65041371D01*
X65084475Y-65033804D01*
X65082124Y-65027575D01*
X65080179Y-65018818D01*
X65056772Y-64976280D01*
X65052462Y-64967687D01*
X65036082Y-64931660D01*
X65036081Y-64931658D01*
X65032367Y-64923490D01*
X65026510Y-64916693D01*
X65022897Y-64911043D01*
X65018388Y-64904552D01*
X65014356Y-64899196D01*
X65010027Y-64891329D01*
X64975607Y-64857057D01*
X64969085Y-64850048D01*
X64937381Y-64813253D01*
X64889972Y-64782524D01*
X64884442Y-64778726D01*
X64103956Y-64211100D01*
X64059890Y-64179052D01*
X64016563Y-64122809D01*
X64008000Y-64077151D01*
X64008000Y-63063064D01*
X64028002Y-62994943D01*
X64081658Y-62948450D01*
X64151932Y-62938346D01*
X64216512Y-62967840D01*
X64251982Y-63018834D01*
X64296676Y-63138054D01*
X64305214Y-63153649D01*
X64381715Y-63255724D01*
X64394276Y-63268285D01*
X64496351Y-63344786D01*
X64511946Y-63353324D01*
X64632394Y-63398478D01*
X64647649Y-63402105D01*
X64698514Y-63407631D01*
X64705328Y-63408000D01*
X65427885Y-63408000D01*
X65443124Y-63403525D01*
X65444329Y-63402135D01*
X65446000Y-63394452D01*
X65446000Y-63389884D01*
X65954000Y-63389884D01*
X65958475Y-63405123D01*
X65959865Y-63406328D01*
X65967548Y-63407999D01*
X66694669Y-63407999D01*
X66701490Y-63407629D01*
X66752352Y-63402105D01*
X66767604Y-63398479D01*
X66888054Y-63353324D01*
X66903649Y-63344786D01*
X67005724Y-63268285D01*
X67018285Y-63255724D01*
X67094786Y-63153649D01*
X67103324Y-63138054D01*
X67148478Y-63017606D01*
X67152105Y-63002351D01*
X67157631Y-62951486D01*
X67158000Y-62944672D01*
X67158000Y-62472115D01*
X67153525Y-62456876D01*
X67152135Y-62455671D01*
X67144452Y-62454000D01*
X65972115Y-62454000D01*
X65956876Y-62458475D01*
X65955671Y-62459865D01*
X65954000Y-62467548D01*
X65954000Y-63389884D01*
X65446000Y-63389884D01*
X65446000Y-61927885D01*
X65954000Y-61927885D01*
X65958475Y-61943124D01*
X65959865Y-61944329D01*
X65967548Y-61946000D01*
X67139884Y-61946000D01*
X67155123Y-61941525D01*
X67156328Y-61940135D01*
X67157999Y-61932452D01*
X67157999Y-61455331D01*
X67157629Y-61448510D01*
X67152105Y-61397648D01*
X67148479Y-61382396D01*
X67103324Y-61261946D01*
X67094786Y-61246351D01*
X67018285Y-61144276D01*
X67005724Y-61131715D01*
X66903649Y-61055214D01*
X66888054Y-61046676D01*
X66767606Y-61001522D01*
X66752351Y-60997895D01*
X66701486Y-60992369D01*
X66694672Y-60992000D01*
X65972115Y-60992000D01*
X65956876Y-60996475D01*
X65955671Y-60997865D01*
X65954000Y-61005548D01*
X65954000Y-61927885D01*
X65446000Y-61927885D01*
X65446000Y-61010116D01*
X65441525Y-60994877D01*
X65440135Y-60993672D01*
X65432452Y-60992001D01*
X64705331Y-60992001D01*
X64698510Y-60992371D01*
X64647648Y-60997895D01*
X64632396Y-61001521D01*
X64511946Y-61046676D01*
X64496351Y-61055214D01*
X64394276Y-61131715D01*
X64381715Y-61144276D01*
X64305214Y-61246351D01*
X64296676Y-61261946D01*
X64251982Y-61381166D01*
X64209340Y-61437930D01*
X64142779Y-61462630D01*
X64073430Y-61447422D01*
X64023312Y-61397136D01*
X64008000Y-61336936D01*
X64008000Y-60798134D01*
X70341500Y-60798134D01*
X70348255Y-60860316D01*
X70399385Y-60996705D01*
X70486739Y-61113261D01*
X70603295Y-61200615D01*
X70739684Y-61251745D01*
X70801866Y-61258500D01*
X74298134Y-61258500D01*
X74360316Y-61251745D01*
X74496705Y-61200615D01*
X74613261Y-61113261D01*
X74700615Y-60996705D01*
X74751745Y-60860316D01*
X74758500Y-60798134D01*
X74758500Y-59101866D01*
X74751745Y-59039684D01*
X74700615Y-58903295D01*
X74613261Y-58786739D01*
X74496705Y-58699385D01*
X74360316Y-58648255D01*
X74298134Y-58641500D01*
X70801866Y-58641500D01*
X70739684Y-58648255D01*
X70603295Y-58699385D01*
X70486739Y-58786739D01*
X70399385Y-58903295D01*
X70348255Y-59039684D01*
X70341500Y-59101866D01*
X70341500Y-60798134D01*
X64008000Y-60798134D01*
X64008000Y-58094669D01*
X64542001Y-58094669D01*
X64542371Y-58101490D01*
X64547895Y-58152352D01*
X64551521Y-58167604D01*
X64596676Y-58288054D01*
X64605214Y-58303649D01*
X64681715Y-58405724D01*
X64694276Y-58418285D01*
X64796351Y-58494786D01*
X64811946Y-58503324D01*
X64932394Y-58548478D01*
X64947649Y-58552105D01*
X64998514Y-58557631D01*
X65005328Y-58558000D01*
X67077885Y-58558000D01*
X67093124Y-58553525D01*
X67094329Y-58552135D01*
X67096000Y-58544452D01*
X67096000Y-58539884D01*
X67604000Y-58539884D01*
X67608475Y-58555123D01*
X67609865Y-58556328D01*
X67617548Y-58557999D01*
X69694669Y-58557999D01*
X69701490Y-58557629D01*
X69752352Y-58552105D01*
X69767604Y-58548479D01*
X69888054Y-58503324D01*
X69903649Y-58494786D01*
X70005724Y-58418285D01*
X70018285Y-58405724D01*
X70094786Y-58303649D01*
X70103324Y-58288054D01*
X70148478Y-58167606D01*
X70152105Y-58152351D01*
X70157631Y-58101486D01*
X70158000Y-58094672D01*
X70158000Y-57822115D01*
X70153525Y-57806876D01*
X70152135Y-57805671D01*
X70144452Y-57804000D01*
X67622115Y-57804000D01*
X67606876Y-57808475D01*
X67605671Y-57809865D01*
X67604000Y-57817548D01*
X67604000Y-58539884D01*
X67096000Y-58539884D01*
X67096000Y-57822115D01*
X67091525Y-57806876D01*
X67090135Y-57805671D01*
X67082452Y-57804000D01*
X64560116Y-57804000D01*
X64544877Y-57808475D01*
X64543672Y-57809865D01*
X64542001Y-57817548D01*
X64542001Y-58094669D01*
X64008000Y-58094669D01*
X64008000Y-48161859D01*
X64028002Y-48093738D01*
X64081658Y-48047245D01*
X64151932Y-48037141D01*
X64216512Y-48066635D01*
X64237840Y-48090492D01*
X64362978Y-48272569D01*
X64383721Y-48302750D01*
X64386608Y-48305923D01*
X64386609Y-48305924D01*
X64488148Y-48417514D01*
X64577206Y-48515388D01*
X64580501Y-48518143D01*
X64580502Y-48518144D01*
X64780475Y-48685346D01*
X64797759Y-48699798D01*
X65041298Y-48852571D01*
X65303318Y-48970877D01*
X65307437Y-48972097D01*
X65574857Y-49051311D01*
X65574862Y-49051312D01*
X65578970Y-49052529D01*
X65583204Y-49053177D01*
X65583209Y-49053178D01*
X65831811Y-49091219D01*
X65863153Y-49096015D01*
X66009485Y-49098314D01*
X66146317Y-49100464D01*
X66146323Y-49100464D01*
X66150608Y-49100531D01*
X66154860Y-49100016D01*
X66154868Y-49100016D01*
X66431756Y-49066508D01*
X66431761Y-49066507D01*
X66436017Y-49065992D01*
X66626091Y-49016127D01*
X66709954Y-48994126D01*
X66709955Y-48994126D01*
X66714097Y-48993039D01*
X66979704Y-48883021D01*
X67227922Y-48737974D01*
X67454159Y-48560582D01*
X67459788Y-48554774D01*
X67651244Y-48357206D01*
X67654227Y-48354128D01*
X67656760Y-48350680D01*
X67656764Y-48350675D01*
X67806054Y-48147440D01*
X67824425Y-48122431D01*
X67826471Y-48118663D01*
X67959554Y-47873555D01*
X67959555Y-47873553D01*
X67961604Y-47869779D01*
X68063225Y-47600848D01*
X68127407Y-47320613D01*
X68139179Y-47188715D01*
X68152743Y-47036726D01*
X68152743Y-47036724D01*
X68152963Y-47034260D01*
X68153427Y-46990000D01*
X68153258Y-46987520D01*
X68134165Y-46707452D01*
X68134164Y-46707446D01*
X68133873Y-46703175D01*
X68129336Y-46681264D01*
X68076443Y-46425855D01*
X68075574Y-46421658D01*
X67979607Y-46150657D01*
X67847750Y-45895188D01*
X67834488Y-45876317D01*
X67744702Y-45748565D01*
X67682441Y-45659977D01*
X67579309Y-45548994D01*
X67489661Y-45452521D01*
X67489658Y-45452519D01*
X67486740Y-45449378D01*
X67264268Y-45267287D01*
X67140486Y-45191433D01*
X67092855Y-45138785D01*
X67081248Y-45068743D01*
X67109351Y-45003546D01*
X67168242Y-44963892D01*
X67206321Y-44958000D01*
X69803948Y-44958000D01*
X69872069Y-44978002D01*
G37*
%TD.AperFunction*%
%TA.AperFunction,Conductor*%
G36*
X90150426Y-71853502D02*
G01*
X90196919Y-71907158D01*
X90207023Y-71977432D01*
X90177529Y-72042012D01*
X90171400Y-72048595D01*
X89907900Y-72312095D01*
X89845588Y-72346121D01*
X89818805Y-72349000D01*
X81621568Y-72349000D01*
X81610385Y-72348473D01*
X81602892Y-72346798D01*
X81594966Y-72347047D01*
X81594965Y-72347047D01*
X81534802Y-72348938D01*
X81530844Y-72349000D01*
X81502944Y-72349000D01*
X81498954Y-72349504D01*
X81487120Y-72350436D01*
X81442911Y-72351826D01*
X81435295Y-72354039D01*
X81435293Y-72354039D01*
X81423452Y-72357479D01*
X81404093Y-72361488D01*
X81402783Y-72361654D01*
X81384003Y-72364026D01*
X81376637Y-72366942D01*
X81376631Y-72366944D01*
X81342898Y-72380300D01*
X81331668Y-72384145D01*
X81296817Y-72394270D01*
X81289207Y-72396481D01*
X81282384Y-72400516D01*
X81271766Y-72406795D01*
X81254013Y-72415492D01*
X81253993Y-72415500D01*
X81235183Y-72422948D01*
X81228768Y-72427609D01*
X81199412Y-72448937D01*
X81189495Y-72455451D01*
X81151438Y-72477958D01*
X81137117Y-72492279D01*
X81122084Y-72505119D01*
X81105693Y-72517028D01*
X81100642Y-72523133D01*
X81100637Y-72523138D01*
X81077506Y-72551098D01*
X81069518Y-72559876D01*
X81007135Y-72622259D01*
X80944823Y-72656285D01*
X80874008Y-72651220D01*
X80817217Y-72608732D01*
X80763261Y-72536739D01*
X80646705Y-72449385D01*
X80510316Y-72398255D01*
X80448134Y-72391500D01*
X78951866Y-72391500D01*
X78889684Y-72398255D01*
X78753295Y-72449385D01*
X78636739Y-72536739D01*
X78549385Y-72653295D01*
X78498255Y-72789684D01*
X78491500Y-72851866D01*
X78491500Y-74302300D01*
X78471498Y-74370421D01*
X78417842Y-74416914D01*
X78365500Y-74428300D01*
X77680794Y-74428300D01*
X77612673Y-74408298D01*
X77591699Y-74391395D01*
X76913539Y-73713234D01*
X76208052Y-73007747D01*
X76200512Y-72999461D01*
X76196400Y-72992982D01*
X76146748Y-72946356D01*
X76143907Y-72943602D01*
X76124170Y-72923865D01*
X76120973Y-72921385D01*
X76111951Y-72913680D01*
X76079721Y-72883414D01*
X76079815Y-72883314D01*
X76075726Y-72879822D01*
X75603647Y-72407742D01*
X75596113Y-72399463D01*
X75592000Y-72392982D01*
X75542348Y-72346356D01*
X75539507Y-72343602D01*
X75519770Y-72323865D01*
X75516573Y-72321385D01*
X75507551Y-72313680D01*
X75500085Y-72306669D01*
X75475321Y-72283414D01*
X75468375Y-72279595D01*
X75468372Y-72279593D01*
X75457566Y-72273652D01*
X75441047Y-72262801D01*
X75433101Y-72256638D01*
X75425041Y-72250386D01*
X75417772Y-72247241D01*
X75417768Y-72247238D01*
X75384463Y-72232826D01*
X75373813Y-72227609D01*
X75335060Y-72206305D01*
X75315437Y-72201267D01*
X75296734Y-72194863D01*
X75285420Y-72189967D01*
X75285419Y-72189967D01*
X75278145Y-72186819D01*
X75270322Y-72185580D01*
X75270312Y-72185577D01*
X75234476Y-72179901D01*
X75222856Y-72177495D01*
X75187711Y-72168472D01*
X75187710Y-72168472D01*
X75180030Y-72166500D01*
X75159776Y-72166500D01*
X75140065Y-72164949D01*
X75127886Y-72163020D01*
X75120057Y-72161780D01*
X75112165Y-72162526D01*
X75076039Y-72165941D01*
X75064181Y-72166500D01*
X70653583Y-72166500D01*
X70585462Y-72146498D01*
X70538969Y-72092842D01*
X70528865Y-72022568D01*
X70558359Y-71957988D01*
X70578018Y-71939674D01*
X70606081Y-71918642D01*
X70613261Y-71913261D01*
X70635241Y-71883933D01*
X70692100Y-71841420D01*
X70736066Y-71833500D01*
X90082305Y-71833500D01*
X90150426Y-71853502D01*
G37*
%TD.AperFunction*%
%TA.AperFunction,Conductor*%
G36*
X83003912Y-60199970D02*
G01*
X83010495Y-60206099D01*
X86800401Y-63996005D01*
X86834427Y-64058317D01*
X86829362Y-64129132D01*
X86786815Y-64185968D01*
X86720295Y-64210779D01*
X86711306Y-64211100D01*
X86508804Y-64211100D01*
X86457556Y-64200207D01*
X86429223Y-64187592D01*
X86429215Y-64187589D01*
X86423188Y-64184906D01*
X86329788Y-64165053D01*
X86242844Y-64146572D01*
X86242839Y-64146572D01*
X86236387Y-64145200D01*
X86045413Y-64145200D01*
X86038961Y-64146572D01*
X86038956Y-64146572D01*
X85952012Y-64165053D01*
X85858612Y-64184906D01*
X85852582Y-64187591D01*
X85852581Y-64187591D01*
X85690178Y-64259897D01*
X85690176Y-64259898D01*
X85684148Y-64262582D01*
X85529647Y-64374834D01*
X85401860Y-64516756D01*
X85306373Y-64682144D01*
X85247358Y-64863772D01*
X85246668Y-64870333D01*
X85246668Y-64870335D01*
X85230421Y-65024919D01*
X85227396Y-65053700D01*
X85247358Y-65243628D01*
X85306373Y-65425256D01*
X85401860Y-65590644D01*
X85406278Y-65595551D01*
X85406279Y-65595552D01*
X85454579Y-65649195D01*
X85529647Y-65732566D01*
X85564468Y-65757865D01*
X85661039Y-65828028D01*
X85684148Y-65844818D01*
X85690176Y-65847502D01*
X85690178Y-65847503D01*
X85830469Y-65909964D01*
X85858612Y-65922494D01*
X85948028Y-65941500D01*
X86038956Y-65960828D01*
X86038961Y-65960828D01*
X86045413Y-65962200D01*
X86236387Y-65962200D01*
X86242839Y-65960828D01*
X86242844Y-65960828D01*
X86333772Y-65941500D01*
X86423188Y-65922494D01*
X86451331Y-65909964D01*
X86591622Y-65847503D01*
X86591624Y-65847502D01*
X86597652Y-65844818D01*
X86620762Y-65828028D01*
X86717332Y-65757865D01*
X86752153Y-65732566D01*
X86827221Y-65649195D01*
X86875521Y-65595552D01*
X86875522Y-65595551D01*
X86879940Y-65590644D01*
X86908544Y-65541100D01*
X86959926Y-65492107D01*
X87017663Y-65478100D01*
X87749071Y-65478100D01*
X87817192Y-65498102D01*
X87863685Y-65551758D01*
X87874381Y-65590929D01*
X87891927Y-65757865D01*
X87893058Y-65768628D01*
X87952073Y-65950256D01*
X88047560Y-66115644D01*
X88051978Y-66120551D01*
X88051979Y-66120552D01*
X88126481Y-66203295D01*
X88175347Y-66257566D01*
X88194663Y-66271600D01*
X88215259Y-66286564D01*
X88258613Y-66342787D01*
X88264688Y-66413523D01*
X88231556Y-66476314D01*
X88169736Y-66511226D01*
X88141198Y-66514500D01*
X86837500Y-66514500D01*
X86769379Y-66494498D01*
X86750153Y-66478157D01*
X86749880Y-66478460D01*
X86744968Y-66474037D01*
X86740553Y-66469134D01*
X86646815Y-66401029D01*
X86591394Y-66360763D01*
X86591393Y-66360762D01*
X86586052Y-66356882D01*
X86580024Y-66354198D01*
X86580022Y-66354197D01*
X86417619Y-66281891D01*
X86417618Y-66281891D01*
X86411588Y-66279206D01*
X86318188Y-66259353D01*
X86231244Y-66240872D01*
X86231239Y-66240872D01*
X86224787Y-66239500D01*
X86033813Y-66239500D01*
X86027361Y-66240872D01*
X86027356Y-66240872D01*
X85940412Y-66259353D01*
X85847012Y-66279206D01*
X85840982Y-66281891D01*
X85840981Y-66281891D01*
X85678578Y-66354197D01*
X85678576Y-66354198D01*
X85672548Y-66356882D01*
X85518047Y-66469134D01*
X85513626Y-66474044D01*
X85513625Y-66474045D01*
X85465110Y-66527927D01*
X85390260Y-66611056D01*
X85386959Y-66616774D01*
X85300618Y-66766321D01*
X85294773Y-66776444D01*
X85235758Y-66958072D01*
X85235068Y-66964633D01*
X85235068Y-66964635D01*
X85228777Y-67024494D01*
X85215796Y-67148000D01*
X85216486Y-67154565D01*
X85231646Y-67298801D01*
X85235758Y-67337928D01*
X85294773Y-67519556D01*
X85298076Y-67525278D01*
X85298077Y-67525279D01*
X85327250Y-67575807D01*
X85390260Y-67684944D01*
X85394678Y-67689851D01*
X85394679Y-67689852D01*
X85495209Y-67801502D01*
X85518047Y-67826866D01*
X85574594Y-67867950D01*
X85661335Y-67930971D01*
X85672548Y-67939118D01*
X85678576Y-67941802D01*
X85678578Y-67941803D01*
X85840981Y-68014109D01*
X85847012Y-68016794D01*
X85940412Y-68036647D01*
X86027356Y-68055128D01*
X86027361Y-68055128D01*
X86033813Y-68056500D01*
X86224787Y-68056500D01*
X86231239Y-68055128D01*
X86231244Y-68055128D01*
X86318188Y-68036647D01*
X86411588Y-68016794D01*
X86417619Y-68014109D01*
X86580022Y-67941803D01*
X86580024Y-67941802D01*
X86586052Y-67939118D01*
X86597266Y-67930971D01*
X86732342Y-67832832D01*
X86740553Y-67826866D01*
X86744968Y-67821963D01*
X86749880Y-67817540D01*
X86751005Y-67818789D01*
X86804314Y-67785949D01*
X86837500Y-67781500D01*
X93318246Y-67781500D01*
X93386367Y-67801502D01*
X93432860Y-67855158D01*
X93442964Y-67925432D01*
X93427365Y-67970500D01*
X93404869Y-68009465D01*
X93394373Y-68027644D01*
X93335358Y-68209272D01*
X93334668Y-68215833D01*
X93334668Y-68215835D01*
X93321095Y-68344976D01*
X93315396Y-68399200D01*
X93324341Y-68484302D01*
X93328402Y-68522941D01*
X93315630Y-68592780D01*
X93267128Y-68644626D01*
X93198295Y-68662021D01*
X93129034Y-68638050D01*
X93121897Y-68632865D01*
X93121894Y-68632863D01*
X93116552Y-68628982D01*
X93110524Y-68626298D01*
X93110522Y-68626297D01*
X92948119Y-68553991D01*
X92948118Y-68553991D01*
X92942088Y-68551306D01*
X92848688Y-68531453D01*
X92761744Y-68512972D01*
X92761739Y-68512972D01*
X92755287Y-68511600D01*
X92564313Y-68511600D01*
X92557861Y-68512972D01*
X92557856Y-68512972D01*
X92470912Y-68531453D01*
X92377512Y-68551306D01*
X92371482Y-68553991D01*
X92371481Y-68553991D01*
X92209078Y-68626297D01*
X92209076Y-68626298D01*
X92203048Y-68628982D01*
X92197707Y-68632862D01*
X92197706Y-68632863D01*
X92190567Y-68638050D01*
X92048547Y-68741234D01*
X92044126Y-68746144D01*
X92044125Y-68746145D01*
X92030222Y-68761586D01*
X91969776Y-68798826D01*
X91898792Y-68797474D01*
X91839808Y-68757961D01*
X91816753Y-68716212D01*
X91807576Y-68687966D01*
X91782127Y-68609644D01*
X91777637Y-68601866D01*
X91741735Y-68539684D01*
X91686640Y-68444256D01*
X91670147Y-68425938D01*
X91563275Y-68307245D01*
X91563274Y-68307244D01*
X91558853Y-68302334D01*
X91459757Y-68230336D01*
X91409694Y-68193963D01*
X91409693Y-68193962D01*
X91404352Y-68190082D01*
X91398324Y-68187398D01*
X91398322Y-68187397D01*
X91235919Y-68115091D01*
X91235918Y-68115091D01*
X91229888Y-68112406D01*
X91124646Y-68090036D01*
X91049544Y-68074072D01*
X91049539Y-68074072D01*
X91043087Y-68072700D01*
X90852113Y-68072700D01*
X90845661Y-68074072D01*
X90845656Y-68074072D01*
X90770554Y-68090036D01*
X90665312Y-68112406D01*
X90659282Y-68115091D01*
X90659281Y-68115091D01*
X90496878Y-68187397D01*
X90496876Y-68187398D01*
X90490848Y-68190082D01*
X90485507Y-68193962D01*
X90485506Y-68193963D01*
X90435443Y-68230336D01*
X90336347Y-68302334D01*
X90331926Y-68307244D01*
X90331925Y-68307245D01*
X90225054Y-68425938D01*
X90208560Y-68444256D01*
X90153465Y-68539684D01*
X90117564Y-68601866D01*
X90113073Y-68609644D01*
X90054058Y-68791272D01*
X90053368Y-68797833D01*
X90053368Y-68797835D01*
X90049748Y-68832275D01*
X90039433Y-68930426D01*
X90036693Y-68956492D01*
X90009680Y-69022149D01*
X90000478Y-69032417D01*
X89839937Y-69192958D01*
X89777625Y-69226984D01*
X89706810Y-69221919D01*
X89649974Y-69179372D01*
X89631009Y-69142800D01*
X89623180Y-69118706D01*
X89605127Y-69063144D01*
X89591069Y-69038794D01*
X89561546Y-68987659D01*
X89509640Y-68897756D01*
X89467119Y-68850531D01*
X89386275Y-68760745D01*
X89386274Y-68760744D01*
X89381853Y-68755834D01*
X89227352Y-68643582D01*
X89221324Y-68640898D01*
X89221322Y-68640897D01*
X89058919Y-68568591D01*
X89058918Y-68568591D01*
X89052888Y-68565906D01*
X88939498Y-68541804D01*
X88872544Y-68527572D01*
X88872539Y-68527572D01*
X88866087Y-68526200D01*
X88675113Y-68526200D01*
X88668661Y-68527572D01*
X88668656Y-68527572D01*
X88601702Y-68541804D01*
X88488312Y-68565906D01*
X88482282Y-68568591D01*
X88482281Y-68568591D01*
X88319878Y-68640897D01*
X88319876Y-68640898D01*
X88313848Y-68643582D01*
X88308507Y-68647462D01*
X88308506Y-68647463D01*
X88213882Y-68716212D01*
X88159347Y-68755834D01*
X88154932Y-68760737D01*
X88150020Y-68765160D01*
X88148895Y-68763911D01*
X88095586Y-68796751D01*
X88062400Y-68801200D01*
X82767400Y-68801200D01*
X82699279Y-68781198D01*
X82652786Y-68727542D01*
X82642682Y-68657268D01*
X82670469Y-68599514D01*
X82668401Y-68598012D01*
X82673062Y-68591597D01*
X82678486Y-68585821D01*
X82688247Y-68568066D01*
X82699098Y-68551547D01*
X82711514Y-68535541D01*
X82716967Y-68522941D01*
X82729074Y-68494963D01*
X82734291Y-68484313D01*
X82755595Y-68445560D01*
X82760633Y-68425937D01*
X82767037Y-68407234D01*
X82771933Y-68395920D01*
X82771933Y-68395919D01*
X82775081Y-68388645D01*
X82776320Y-68380822D01*
X82776323Y-68380812D01*
X82781999Y-68344976D01*
X82784405Y-68333356D01*
X82793428Y-68298211D01*
X82793428Y-68298210D01*
X82795400Y-68290530D01*
X82795400Y-68270276D01*
X82796951Y-68250565D01*
X82798052Y-68243617D01*
X82800120Y-68230557D01*
X82795959Y-68186538D01*
X82795400Y-68174681D01*
X82795400Y-60295194D01*
X82815402Y-60227073D01*
X82869058Y-60180580D01*
X82939332Y-60170476D01*
X83003912Y-60199970D01*
G37*
%TD.AperFunction*%
%TA.AperFunction,Conductor*%
G36*
X104478584Y-51866987D02*
G01*
X104529886Y-51898090D01*
X105414122Y-52782327D01*
X106204995Y-53573200D01*
X106239021Y-53635512D01*
X106241900Y-53662295D01*
X106241900Y-59315500D01*
X106221898Y-59383621D01*
X106168242Y-59430114D01*
X106115900Y-59441500D01*
X104801866Y-59441500D01*
X104739684Y-59448255D01*
X104603295Y-59499385D01*
X104486739Y-59586739D01*
X104399385Y-59703295D01*
X104348255Y-59839684D01*
X104341500Y-59901866D01*
X104341500Y-61698134D01*
X104348255Y-61760316D01*
X104399385Y-61896705D01*
X104486739Y-62013261D01*
X104603295Y-62100615D01*
X104611704Y-62103767D01*
X104611705Y-62103768D01*
X104720451Y-62144535D01*
X104777216Y-62187176D01*
X104801916Y-62253738D01*
X104786709Y-62323087D01*
X104767316Y-62349568D01*
X104654572Y-62467548D01*
X104640629Y-62482138D01*
X104637715Y-62486410D01*
X104637714Y-62486411D01*
X104525095Y-62651504D01*
X104470184Y-62696507D01*
X104421007Y-62706500D01*
X88600495Y-62706500D01*
X88532374Y-62686498D01*
X88511400Y-62669595D01*
X81895013Y-56053208D01*
X81874989Y-56027113D01*
X81846043Y-55976977D01*
X81842740Y-55971256D01*
X81800751Y-55924623D01*
X81792411Y-55913269D01*
X81792337Y-55913326D01*
X81787479Y-55907063D01*
X81783442Y-55900237D01*
X81769118Y-55885913D01*
X81756276Y-55870878D01*
X81744372Y-55854493D01*
X81717852Y-55832554D01*
X81718501Y-55831770D01*
X81715849Y-55830329D01*
X81714953Y-55829334D01*
X81709603Y-55825447D01*
X81704700Y-55821032D01*
X81704879Y-55820833D01*
X81699111Y-55815906D01*
X81028622Y-55145417D01*
X80994596Y-55083105D01*
X80992407Y-55069492D01*
X80975732Y-54910835D01*
X80975732Y-54910833D01*
X80975042Y-54904272D01*
X80916027Y-54722644D01*
X80892191Y-54681358D01*
X80823841Y-54562974D01*
X80820540Y-54557256D01*
X80812436Y-54548255D01*
X80697175Y-54420245D01*
X80697174Y-54420244D01*
X80692753Y-54415334D01*
X80564882Y-54322430D01*
X80543594Y-54306963D01*
X80543593Y-54306962D01*
X80538252Y-54303082D01*
X80532224Y-54300398D01*
X80532222Y-54300397D01*
X80369819Y-54228091D01*
X80369818Y-54228091D01*
X80363788Y-54225406D01*
X80357331Y-54224034D01*
X80353944Y-54222933D01*
X80295339Y-54182859D01*
X80267702Y-54117463D01*
X80279809Y-54047506D01*
X80327815Y-53995200D01*
X80392881Y-53977100D01*
X84955282Y-53977100D01*
X85023403Y-53997102D01*
X85069896Y-54050758D01*
X85080000Y-54121032D01*
X85064401Y-54166099D01*
X84977772Y-54316145D01*
X84918757Y-54497773D01*
X84918067Y-54504334D01*
X84918067Y-54504336D01*
X84908203Y-54598186D01*
X84898795Y-54687701D01*
X84899485Y-54694266D01*
X84910861Y-54802499D01*
X84918757Y-54877629D01*
X84977772Y-55059257D01*
X85073259Y-55224645D01*
X85077677Y-55229552D01*
X85077678Y-55229553D01*
X85108353Y-55263621D01*
X85201046Y-55366567D01*
X85355547Y-55478819D01*
X85361575Y-55481503D01*
X85361577Y-55481504D01*
X85502829Y-55544393D01*
X85530011Y-55556495D01*
X85623412Y-55576348D01*
X85710355Y-55594829D01*
X85710360Y-55594829D01*
X85716812Y-55596201D01*
X85907786Y-55596201D01*
X85914238Y-55594829D01*
X85914243Y-55594829D01*
X86055807Y-55564738D01*
X86094587Y-55556495D01*
X86100620Y-55553809D01*
X86100623Y-55553808D01*
X86121769Y-55544393D01*
X86173017Y-55533500D01*
X92521233Y-55533500D01*
X92532416Y-55534027D01*
X92539909Y-55535702D01*
X92547835Y-55535453D01*
X92547836Y-55535453D01*
X92607986Y-55533562D01*
X92611945Y-55533500D01*
X92639856Y-55533500D01*
X92643791Y-55533003D01*
X92643856Y-55532995D01*
X92655693Y-55532062D01*
X92687951Y-55531048D01*
X92691970Y-55530922D01*
X92699889Y-55530673D01*
X92719343Y-55525021D01*
X92738700Y-55521013D01*
X92750930Y-55519468D01*
X92750931Y-55519468D01*
X92758797Y-55518474D01*
X92766168Y-55515555D01*
X92766170Y-55515555D01*
X92799912Y-55502196D01*
X92811142Y-55498351D01*
X92845983Y-55488229D01*
X92845984Y-55488229D01*
X92853593Y-55486018D01*
X92860412Y-55481985D01*
X92860417Y-55481983D01*
X92871028Y-55475707D01*
X92888776Y-55467012D01*
X92907617Y-55459552D01*
X92943387Y-55433564D01*
X92953307Y-55427048D01*
X92969707Y-55417349D01*
X93038524Y-55399889D01*
X93105855Y-55422405D01*
X93150324Y-55477750D01*
X93157813Y-55548350D01*
X93153680Y-55564738D01*
X93143903Y-55594829D01*
X93106458Y-55710072D01*
X93105768Y-55716633D01*
X93105768Y-55716635D01*
X93094546Y-55823409D01*
X93086496Y-55900000D01*
X93087186Y-55906565D01*
X93102599Y-56053208D01*
X93106458Y-56089928D01*
X93165473Y-56271556D01*
X93168776Y-56277278D01*
X93168777Y-56277279D01*
X93190072Y-56314163D01*
X93260960Y-56436944D01*
X93265378Y-56441851D01*
X93265379Y-56441852D01*
X93323449Y-56506345D01*
X93388747Y-56578866D01*
X93409960Y-56594278D01*
X93530309Y-56681717D01*
X93543248Y-56691118D01*
X93549276Y-56693802D01*
X93549278Y-56693803D01*
X93624840Y-56727445D01*
X93717712Y-56768794D01*
X93811113Y-56788647D01*
X93898056Y-56807128D01*
X93898061Y-56807128D01*
X93904513Y-56808500D01*
X94095487Y-56808500D01*
X94101939Y-56807128D01*
X94101944Y-56807128D01*
X94188887Y-56788647D01*
X94282288Y-56768794D01*
X94288315Y-56766111D01*
X94288323Y-56766108D01*
X94353972Y-56736879D01*
X94424339Y-56727445D01*
X94488636Y-56757552D01*
X94526449Y-56817641D01*
X94525773Y-56888634D01*
X94494317Y-56941079D01*
X93607143Y-57828252D01*
X93544833Y-57862276D01*
X93474017Y-57857211D01*
X93443989Y-57841091D01*
X93312094Y-57745263D01*
X93312093Y-57745262D01*
X93306752Y-57741382D01*
X93300724Y-57738698D01*
X93300722Y-57738697D01*
X93138319Y-57666391D01*
X93138318Y-57666391D01*
X93132288Y-57663706D01*
X93038887Y-57643853D01*
X92951944Y-57625372D01*
X92951939Y-57625372D01*
X92945487Y-57624000D01*
X92754513Y-57624000D01*
X92748061Y-57625372D01*
X92748056Y-57625372D01*
X92661113Y-57643853D01*
X92567712Y-57663706D01*
X92561682Y-57666391D01*
X92561681Y-57666391D01*
X92399278Y-57738697D01*
X92399276Y-57738698D01*
X92393248Y-57741382D01*
X92238747Y-57853634D01*
X92110960Y-57995556D01*
X92107659Y-58001274D01*
X92020434Y-58152352D01*
X92015473Y-58160944D01*
X91956458Y-58342572D01*
X91955768Y-58349133D01*
X91955768Y-58349135D01*
X91949444Y-58409305D01*
X91939563Y-58503324D01*
X91938696Y-58511570D01*
X91911683Y-58577227D01*
X91853461Y-58617857D01*
X91813386Y-58624400D01*
X91322967Y-58624400D01*
X91311784Y-58623873D01*
X91304291Y-58622198D01*
X91296365Y-58622447D01*
X91296364Y-58622447D01*
X91236214Y-58624338D01*
X91232255Y-58624400D01*
X91204344Y-58624400D01*
X91200410Y-58624897D01*
X91200409Y-58624897D01*
X91200344Y-58624905D01*
X91188507Y-58625838D01*
X91156690Y-58626838D01*
X91152229Y-58626978D01*
X91144310Y-58627227D01*
X91126654Y-58632356D01*
X91124858Y-58632878D01*
X91105506Y-58636886D01*
X91098435Y-58637780D01*
X91085403Y-58639426D01*
X91078034Y-58642343D01*
X91078032Y-58642344D01*
X91044297Y-58655700D01*
X91033069Y-58659545D01*
X90990607Y-58671882D01*
X90983785Y-58675916D01*
X90983779Y-58675919D01*
X90973168Y-58682194D01*
X90955418Y-58690890D01*
X90943956Y-58695428D01*
X90943951Y-58695431D01*
X90936583Y-58698348D01*
X90922373Y-58708672D01*
X90900825Y-58724327D01*
X90890907Y-58730843D01*
X90872219Y-58741895D01*
X90852837Y-58753358D01*
X90838513Y-58767682D01*
X90823481Y-58780521D01*
X90807093Y-58792428D01*
X90778912Y-58826493D01*
X90770922Y-58835273D01*
X89588900Y-60017295D01*
X89526588Y-60051321D01*
X89499805Y-60054200D01*
X89443913Y-60054200D01*
X89437461Y-60055572D01*
X89437456Y-60055572D01*
X89350513Y-60074053D01*
X89257112Y-60093906D01*
X89251082Y-60096591D01*
X89251081Y-60096591D01*
X89088678Y-60168897D01*
X89088676Y-60168898D01*
X89082648Y-60171582D01*
X89077307Y-60175462D01*
X89077306Y-60175463D01*
X89043575Y-60199970D01*
X88928147Y-60283834D01*
X88923726Y-60288744D01*
X88923725Y-60288745D01*
X88841381Y-60380198D01*
X88800360Y-60425756D01*
X88704873Y-60591144D01*
X88645858Y-60772772D01*
X88645168Y-60779333D01*
X88645168Y-60779335D01*
X88636657Y-60860316D01*
X88625896Y-60962700D01*
X88626586Y-60969265D01*
X88629015Y-60992371D01*
X88645858Y-61152628D01*
X88704873Y-61334256D01*
X88800360Y-61499644D01*
X88804778Y-61504551D01*
X88804779Y-61504552D01*
X88894646Y-61604359D01*
X88928147Y-61641566D01*
X89082648Y-61753818D01*
X89088676Y-61756502D01*
X89088678Y-61756503D01*
X89233400Y-61820937D01*
X89257112Y-61831494D01*
X89350512Y-61851347D01*
X89437456Y-61869828D01*
X89437461Y-61869828D01*
X89443913Y-61871200D01*
X89634887Y-61871200D01*
X89641339Y-61869828D01*
X89641344Y-61869828D01*
X89780060Y-61840342D01*
X89821688Y-61831494D01*
X89827721Y-61828808D01*
X89827724Y-61828807D01*
X89924037Y-61785926D01*
X89994404Y-61776492D01*
X90049346Y-61799097D01*
X90084748Y-61824818D01*
X90090776Y-61827502D01*
X90090778Y-61827503D01*
X90253181Y-61899809D01*
X90259212Y-61902494D01*
X90352612Y-61922347D01*
X90439556Y-61940828D01*
X90439561Y-61940828D01*
X90446013Y-61942200D01*
X90636987Y-61942200D01*
X90643439Y-61940828D01*
X90643444Y-61940828D01*
X90730388Y-61922347D01*
X90823788Y-61902494D01*
X90829819Y-61899809D01*
X90992222Y-61827503D01*
X90992224Y-61827502D01*
X90998252Y-61824818D01*
X91101317Y-61749937D01*
X91147414Y-61716445D01*
X91152753Y-61712566D01*
X91157168Y-61707663D01*
X91162080Y-61703240D01*
X91163205Y-61704489D01*
X91216514Y-61671649D01*
X91249700Y-61667200D01*
X95525833Y-61667200D01*
X95537016Y-61667727D01*
X95544509Y-61669402D01*
X95552435Y-61669153D01*
X95552436Y-61669153D01*
X95612586Y-61667262D01*
X95616545Y-61667200D01*
X95644456Y-61667200D01*
X95648391Y-61666703D01*
X95648456Y-61666695D01*
X95660293Y-61665762D01*
X95692551Y-61664748D01*
X95696570Y-61664622D01*
X95704489Y-61664373D01*
X95723943Y-61658721D01*
X95743300Y-61654713D01*
X95755530Y-61653168D01*
X95755531Y-61653168D01*
X95763397Y-61652174D01*
X95770768Y-61649255D01*
X95770770Y-61649255D01*
X95804512Y-61635896D01*
X95815742Y-61632051D01*
X95850583Y-61621929D01*
X95850584Y-61621929D01*
X95858193Y-61619718D01*
X95865012Y-61615685D01*
X95865017Y-61615683D01*
X95875628Y-61609407D01*
X95893376Y-61600712D01*
X95912217Y-61593252D01*
X95947987Y-61567264D01*
X95957907Y-61560748D01*
X95989135Y-61542280D01*
X95989138Y-61542278D01*
X95995962Y-61538242D01*
X96010283Y-61523921D01*
X96025317Y-61511080D01*
X96035294Y-61503831D01*
X96041707Y-61499172D01*
X96069898Y-61465095D01*
X96077888Y-61456316D01*
X98690253Y-58843952D01*
X98698539Y-58836412D01*
X98705018Y-58832300D01*
X98751644Y-58782648D01*
X98754398Y-58779807D01*
X98774135Y-58760070D01*
X98776615Y-58756873D01*
X98784320Y-58747851D01*
X98814586Y-58715621D01*
X98818405Y-58708675D01*
X98818407Y-58708672D01*
X98824348Y-58697866D01*
X98835199Y-58681347D01*
X98842758Y-58671601D01*
X98847614Y-58665341D01*
X98850759Y-58658072D01*
X98850762Y-58658068D01*
X98865174Y-58624763D01*
X98870391Y-58614113D01*
X98891695Y-58575360D01*
X98893668Y-58567675D01*
X98894852Y-58564685D01*
X98938526Y-58508711D01*
X99005529Y-58485234D01*
X99056233Y-58493085D01*
X99132684Y-58521745D01*
X99194866Y-58528500D01*
X99941134Y-58528500D01*
X100003316Y-58521745D01*
X100075229Y-58494786D01*
X100131301Y-58473766D01*
X100131304Y-58473764D01*
X100139705Y-58470615D01*
X100144164Y-58467273D01*
X100211848Y-58452470D01*
X100261561Y-58467067D01*
X100266295Y-58470615D01*
X100274696Y-58473764D01*
X100274699Y-58473766D01*
X100330771Y-58494786D01*
X100402684Y-58521745D01*
X100464866Y-58528500D01*
X101211134Y-58528500D01*
X101273316Y-58521745D01*
X101345229Y-58494786D01*
X101401301Y-58473766D01*
X101401304Y-58473764D01*
X101409705Y-58470615D01*
X101414164Y-58467273D01*
X101481848Y-58452470D01*
X101531561Y-58467067D01*
X101536295Y-58470615D01*
X101544696Y-58473764D01*
X101544699Y-58473766D01*
X101600771Y-58494786D01*
X101672684Y-58521745D01*
X101734866Y-58528500D01*
X102481134Y-58528500D01*
X102543316Y-58521745D01*
X102679705Y-58470615D01*
X102796261Y-58383261D01*
X102883615Y-58266705D01*
X102934745Y-58130316D01*
X102941500Y-58068134D01*
X102941500Y-55211866D01*
X102934745Y-55149684D01*
X102883615Y-55013295D01*
X102796261Y-54896739D01*
X102679705Y-54809385D01*
X102543316Y-54758255D01*
X102481134Y-54751500D01*
X101734866Y-54751500D01*
X101672684Y-54758255D01*
X101661622Y-54762402D01*
X101544699Y-54806234D01*
X101544696Y-54806236D01*
X101536295Y-54809385D01*
X101531836Y-54812727D01*
X101464152Y-54827530D01*
X101414439Y-54812933D01*
X101409705Y-54809385D01*
X101401304Y-54806236D01*
X101401301Y-54806234D01*
X101284378Y-54762402D01*
X101273316Y-54758255D01*
X101211134Y-54751500D01*
X100464866Y-54751500D01*
X100402684Y-54758255D01*
X100391622Y-54762402D01*
X100274699Y-54806234D01*
X100274696Y-54806236D01*
X100266295Y-54809385D01*
X100261836Y-54812727D01*
X100194152Y-54827530D01*
X100144439Y-54812933D01*
X100139705Y-54809385D01*
X100131304Y-54806236D01*
X100131301Y-54806234D01*
X100014378Y-54762402D01*
X100003316Y-54758255D01*
X99941134Y-54751500D01*
X99194866Y-54751500D01*
X99132684Y-54758255D01*
X98996295Y-54809385D01*
X98989109Y-54814771D01*
X98988944Y-54814861D01*
X98919587Y-54830030D01*
X98871895Y-54816026D01*
X98869705Y-54814385D01*
X98733316Y-54763255D01*
X98671134Y-54756500D01*
X97924866Y-54756500D01*
X97862684Y-54763255D01*
X97726295Y-54814385D01*
X97724665Y-54815607D01*
X97658717Y-54830030D01*
X97607056Y-54814861D01*
X97606891Y-54814771D01*
X97599705Y-54809385D01*
X97463316Y-54758255D01*
X97431005Y-54754745D01*
X97365443Y-54727503D01*
X97325017Y-54669140D01*
X97322561Y-54598186D01*
X97355518Y-54540387D01*
X97401162Y-54494743D01*
X97459490Y-54462161D01*
X97463316Y-54461745D01*
X97497391Y-54448971D01*
X97591301Y-54413766D01*
X97591304Y-54413764D01*
X97599705Y-54410615D01*
X97604490Y-54407029D01*
X97672374Y-54392182D01*
X97724035Y-54407351D01*
X97734942Y-54413323D01*
X97855394Y-54458478D01*
X97870649Y-54462105D01*
X97921514Y-54467631D01*
X97928328Y-54468000D01*
X98025885Y-54468000D01*
X98041124Y-54463525D01*
X98042329Y-54462135D01*
X98044000Y-54454452D01*
X98044000Y-54449884D01*
X98552000Y-54449884D01*
X98556475Y-54465123D01*
X98557865Y-54466328D01*
X98565548Y-54467999D01*
X98667669Y-54467999D01*
X98674490Y-54467629D01*
X98725352Y-54462105D01*
X98740604Y-54458479D01*
X98861058Y-54413323D01*
X98872491Y-54407063D01*
X98941848Y-54391894D01*
X98993509Y-54407063D01*
X99004942Y-54413323D01*
X99125394Y-54458478D01*
X99140649Y-54462105D01*
X99191514Y-54467631D01*
X99198328Y-54468000D01*
X99295885Y-54468000D01*
X99311124Y-54463525D01*
X99312329Y-54462135D01*
X99314000Y-54454452D01*
X99314000Y-52852115D01*
X99309525Y-52836876D01*
X99308135Y-52835671D01*
X99300452Y-52834000D01*
X98570115Y-52834000D01*
X98554876Y-52838475D01*
X98553671Y-52839865D01*
X98552000Y-52847548D01*
X98552000Y-54449884D01*
X98044000Y-54449884D01*
X98044000Y-52452000D01*
X98064002Y-52383879D01*
X98117658Y-52337386D01*
X98170000Y-52326000D01*
X99696000Y-52326000D01*
X99764121Y-52346002D01*
X99810614Y-52399658D01*
X99822000Y-52452000D01*
X99822000Y-54449884D01*
X99826475Y-54465123D01*
X99827865Y-54466328D01*
X99835548Y-54467999D01*
X99937669Y-54467999D01*
X99944490Y-54467629D01*
X99995352Y-54462105D01*
X100010604Y-54458479D01*
X100131058Y-54413323D01*
X100141965Y-54407351D01*
X100211322Y-54392182D01*
X100261268Y-54406847D01*
X100266295Y-54410615D01*
X100274696Y-54413764D01*
X100274699Y-54413766D01*
X100355414Y-54444024D01*
X100402684Y-54461745D01*
X100464866Y-54468500D01*
X101211134Y-54468500D01*
X101273316Y-54461745D01*
X101320586Y-54444024D01*
X101401301Y-54413766D01*
X101401304Y-54413764D01*
X101409705Y-54410615D01*
X101414490Y-54407029D01*
X101482374Y-54392182D01*
X101534035Y-54407351D01*
X101544942Y-54413323D01*
X101665394Y-54458478D01*
X101680649Y-54462105D01*
X101731514Y-54467631D01*
X101738328Y-54468000D01*
X101835885Y-54468000D01*
X101851124Y-54463525D01*
X101852329Y-54462135D01*
X101854000Y-54454452D01*
X101854000Y-54449884D01*
X102362000Y-54449884D01*
X102366475Y-54465123D01*
X102367865Y-54466328D01*
X102375548Y-54467999D01*
X102477669Y-54467999D01*
X102484490Y-54467629D01*
X102535352Y-54462105D01*
X102550604Y-54458479D01*
X102671054Y-54413324D01*
X102686649Y-54404786D01*
X102788724Y-54328285D01*
X102801285Y-54315724D01*
X102877786Y-54213649D01*
X102886324Y-54198054D01*
X102931478Y-54077606D01*
X102935105Y-54062351D01*
X102940631Y-54011486D01*
X102941000Y-54004672D01*
X102941000Y-52852115D01*
X102936525Y-52836876D01*
X102935135Y-52835671D01*
X102927452Y-52834000D01*
X102380115Y-52834000D01*
X102364876Y-52838475D01*
X102363671Y-52839865D01*
X102362000Y-52847548D01*
X102362000Y-54449884D01*
X101854000Y-54449884D01*
X101854000Y-52452000D01*
X101874002Y-52383879D01*
X101927658Y-52337386D01*
X101980000Y-52326000D01*
X102922884Y-52326000D01*
X102938123Y-52321525D01*
X102939328Y-52320135D01*
X102940999Y-52312452D01*
X102940999Y-52054766D01*
X102961001Y-51986645D01*
X103014657Y-51940152D01*
X103084931Y-51930048D01*
X103141059Y-51952830D01*
X103258448Y-52038118D01*
X103264476Y-52040802D01*
X103264478Y-52040803D01*
X103423723Y-52111703D01*
X103432912Y-52115794D01*
X103526312Y-52135647D01*
X103613256Y-52154128D01*
X103613261Y-52154128D01*
X103619713Y-52155500D01*
X103810687Y-52155500D01*
X103817139Y-52154128D01*
X103817144Y-52154128D01*
X103904087Y-52135647D01*
X103997488Y-52115794D01*
X104006677Y-52111703D01*
X104165922Y-52040803D01*
X104165924Y-52040802D01*
X104171952Y-52038118D01*
X104232787Y-51993919D01*
X104321114Y-51929745D01*
X104326453Y-51925866D01*
X104330868Y-51920962D01*
X104330872Y-51920959D01*
X104347155Y-51902875D01*
X104407601Y-51865635D01*
X104478584Y-51866987D01*
G37*
%TD.AperFunction*%
%TA.AperFunction,Conductor*%
G36*
X96136621Y-51077802D02*
G01*
X96183114Y-51131458D01*
X96194500Y-51183800D01*
X96194500Y-53857406D01*
X96174498Y-53925527D01*
X96157595Y-53946501D01*
X94874500Y-55229595D01*
X94812188Y-55263621D01*
X94785405Y-55266500D01*
X94708200Y-55266500D01*
X94640079Y-55246498D01*
X94620853Y-55230157D01*
X94620580Y-55230460D01*
X94615668Y-55226037D01*
X94611253Y-55221134D01*
X94456752Y-55108882D01*
X94450724Y-55106198D01*
X94450722Y-55106197D01*
X94288319Y-55033891D01*
X94288318Y-55033891D01*
X94282288Y-55031206D01*
X94160331Y-55005283D01*
X94101944Y-54992872D01*
X94101939Y-54992872D01*
X94095487Y-54991500D01*
X94025780Y-54991500D01*
X93957659Y-54971498D01*
X93911166Y-54917842D01*
X93901062Y-54847568D01*
X93916662Y-54802499D01*
X93931222Y-54777281D01*
X93931223Y-54777278D01*
X93934527Y-54771556D01*
X93993542Y-54589928D01*
X93997631Y-54551029D01*
X94012814Y-54406565D01*
X94013504Y-54400000D01*
X94004646Y-54315724D01*
X93994232Y-54216635D01*
X93994232Y-54216633D01*
X93993542Y-54210072D01*
X93934527Y-54028444D01*
X93917028Y-53998134D01*
X93875108Y-53925527D01*
X93839040Y-53863056D01*
X93831569Y-53854758D01*
X93715675Y-53726045D01*
X93715674Y-53726044D01*
X93711253Y-53721134D01*
X93556752Y-53608882D01*
X93550720Y-53606197D01*
X93545000Y-53602894D01*
X93545640Y-53601785D01*
X93496855Y-53560318D01*
X93476207Y-53492390D01*
X93495561Y-53424083D01*
X93513106Y-53402098D01*
X95820499Y-51094705D01*
X95882811Y-51060679D01*
X95909594Y-51057800D01*
X96068500Y-51057800D01*
X96136621Y-51077802D01*
G37*
%TD.AperFunction*%
%TD*%
%TA.AperFunction,NonConductor*%
G36*
X104492395Y-63993502D02*
G01*
X104531707Y-64033665D01*
X104599987Y-64145088D01*
X104746250Y-64313938D01*
X104918126Y-64456632D01*
X104977334Y-64491230D01*
X104991445Y-64499476D01*
X105040169Y-64551114D01*
X105053240Y-64620897D01*
X105026509Y-64686669D01*
X104986055Y-64720027D01*
X104973607Y-64726507D01*
X104969474Y-64729610D01*
X104969471Y-64729612D01*
X104799148Y-64857494D01*
X104794965Y-64860635D01*
X104655505Y-65006572D01*
X104649357Y-65013005D01*
X104587833Y-65048435D01*
X104518081Y-65043542D01*
X104517859Y-65044405D01*
X104498237Y-65039367D01*
X104479534Y-65032963D01*
X104468220Y-65028067D01*
X104468219Y-65028067D01*
X104460945Y-65024919D01*
X104453122Y-65023680D01*
X104453112Y-65023677D01*
X104417276Y-65018001D01*
X104405656Y-65015595D01*
X104370511Y-65006572D01*
X104370510Y-65006572D01*
X104362830Y-65004600D01*
X104342576Y-65004600D01*
X104322865Y-65003049D01*
X104310686Y-65001120D01*
X104302857Y-64999880D01*
X104294965Y-65000626D01*
X104258839Y-65004041D01*
X104246981Y-65004600D01*
X100034200Y-65004600D01*
X99966079Y-64984598D01*
X99946853Y-64968257D01*
X99946580Y-64968560D01*
X99941668Y-64964137D01*
X99937253Y-64959234D01*
X99806689Y-64864373D01*
X99788094Y-64850863D01*
X99788093Y-64850862D01*
X99782752Y-64846982D01*
X99776724Y-64844298D01*
X99776722Y-64844297D01*
X99614319Y-64771991D01*
X99614318Y-64771991D01*
X99608288Y-64769306D01*
X99500186Y-64746328D01*
X99427944Y-64730972D01*
X99427939Y-64730972D01*
X99421487Y-64729600D01*
X99365595Y-64729600D01*
X99297474Y-64709598D01*
X99276499Y-64692695D01*
X98772400Y-64188595D01*
X98738375Y-64126283D01*
X98743440Y-64055467D01*
X98785987Y-63998632D01*
X98852507Y-63973821D01*
X98861496Y-63973500D01*
X104424274Y-63973500D01*
X104492395Y-63993502D01*
G37*
%TD.AperFunction*%
%TA.AperFunction,NonConductor*%
G36*
X95255191Y-67943076D02*
G01*
X95295239Y-67970043D01*
X99526462Y-72201267D01*
X103757448Y-76432253D01*
X103764988Y-76440539D01*
X103769100Y-76447018D01*
X103774877Y-76452443D01*
X103818751Y-76493643D01*
X103821593Y-76496398D01*
X103841330Y-76516135D01*
X103844527Y-76518615D01*
X103853547Y-76526318D01*
X103885779Y-76556586D01*
X103892725Y-76560405D01*
X103892728Y-76560407D01*
X103903534Y-76566348D01*
X103920053Y-76577199D01*
X103936059Y-76589614D01*
X103943328Y-76592759D01*
X103943332Y-76592762D01*
X103976637Y-76607174D01*
X103987287Y-76612391D01*
X104026040Y-76633695D01*
X104033715Y-76635666D01*
X104033716Y-76635666D01*
X104045662Y-76638733D01*
X104064367Y-76645137D01*
X104082955Y-76653181D01*
X104090778Y-76654420D01*
X104090788Y-76654423D01*
X104126624Y-76660099D01*
X104138244Y-76662505D01*
X104173389Y-76671528D01*
X104181070Y-76673500D01*
X104201324Y-76673500D01*
X104221034Y-76675051D01*
X104241043Y-76678220D01*
X104248935Y-76677474D01*
X104285061Y-76674059D01*
X104296919Y-76673500D01*
X104424274Y-76673500D01*
X104492395Y-76693502D01*
X104531707Y-76733665D01*
X104599987Y-76845088D01*
X104746250Y-77013938D01*
X104918126Y-77156632D01*
X104988595Y-77197811D01*
X104991445Y-77199476D01*
X105040169Y-77251114D01*
X105053240Y-77320897D01*
X105026509Y-77386669D01*
X104986055Y-77420027D01*
X104973607Y-77426507D01*
X104969474Y-77429610D01*
X104969471Y-77429612D01*
X104945247Y-77447800D01*
X104794965Y-77560635D01*
X104791393Y-77564373D01*
X104691618Y-77668781D01*
X104630093Y-77704211D01*
X104559181Y-77700754D01*
X104511429Y-77670825D01*
X102663127Y-75822522D01*
X100757252Y-73916647D01*
X100749712Y-73908361D01*
X100745600Y-73901882D01*
X100695948Y-73855256D01*
X100693107Y-73852502D01*
X100673370Y-73832765D01*
X100670173Y-73830285D01*
X100661151Y-73822580D01*
X100628921Y-73792314D01*
X100621975Y-73788495D01*
X100621972Y-73788493D01*
X100611166Y-73782552D01*
X100594647Y-73771701D01*
X100594183Y-73771341D01*
X100578641Y-73759286D01*
X100571372Y-73756141D01*
X100571368Y-73756138D01*
X100538063Y-73741726D01*
X100527413Y-73736509D01*
X100488660Y-73715205D01*
X100469037Y-73710167D01*
X100450334Y-73703763D01*
X100439020Y-73698867D01*
X100439019Y-73698867D01*
X100431745Y-73695719D01*
X100423922Y-73694480D01*
X100423912Y-73694477D01*
X100388076Y-73688801D01*
X100376456Y-73686395D01*
X100341311Y-73677372D01*
X100341310Y-73677372D01*
X100333630Y-73675400D01*
X100313376Y-73675400D01*
X100293665Y-73673849D01*
X100281486Y-73671920D01*
X100273657Y-73670680D01*
X100265765Y-73671426D01*
X100229639Y-73674841D01*
X100217781Y-73675400D01*
X92400594Y-73675400D01*
X92332473Y-73655398D01*
X92285980Y-73601742D01*
X92275876Y-73531468D01*
X92305370Y-73466888D01*
X92311499Y-73460305D01*
X92800499Y-72971305D01*
X92862811Y-72937279D01*
X92889594Y-72934400D01*
X92945487Y-72934400D01*
X92951939Y-72933028D01*
X92951944Y-72933028D01*
X93042966Y-72913680D01*
X93132288Y-72894694D01*
X93147202Y-72888054D01*
X93300722Y-72819703D01*
X93300724Y-72819702D01*
X93306752Y-72817018D01*
X93314342Y-72811504D01*
X93395757Y-72752352D01*
X93461253Y-72704766D01*
X93500027Y-72661703D01*
X93584621Y-72567752D01*
X93584622Y-72567751D01*
X93589040Y-72562844D01*
X93676221Y-72411842D01*
X93681223Y-72403179D01*
X93681224Y-72403178D01*
X93684527Y-72397456D01*
X93743542Y-72215828D01*
X93745073Y-72201267D01*
X93762814Y-72032465D01*
X93763504Y-72025900D01*
X93748583Y-71883934D01*
X93744232Y-71842535D01*
X93744232Y-71842533D01*
X93743542Y-71835972D01*
X93684527Y-71654344D01*
X93589040Y-71488956D01*
X93461253Y-71347034D01*
X93362157Y-71275036D01*
X93312094Y-71238663D01*
X93312093Y-71238662D01*
X93306752Y-71234782D01*
X93300724Y-71232098D01*
X93300722Y-71232097D01*
X93138319Y-71159791D01*
X93138318Y-71159791D01*
X93132288Y-71157106D01*
X93125832Y-71155734D01*
X93119548Y-71153692D01*
X93120330Y-71151285D01*
X93067874Y-71122963D01*
X93033554Y-71060812D01*
X93038284Y-70989973D01*
X93067452Y-70944352D01*
X94621147Y-69390657D01*
X94629437Y-69383113D01*
X94635918Y-69379000D01*
X94682559Y-69329332D01*
X94685313Y-69326491D01*
X94705035Y-69306769D01*
X94707512Y-69303576D01*
X94715217Y-69294555D01*
X94740059Y-69268100D01*
X94745486Y-69262321D01*
X94749307Y-69255371D01*
X94755246Y-69244568D01*
X94766102Y-69228041D01*
X94773657Y-69218302D01*
X94773658Y-69218300D01*
X94778514Y-69212040D01*
X94796074Y-69171460D01*
X94801291Y-69160812D01*
X94818775Y-69129009D01*
X94818776Y-69129007D01*
X94822595Y-69122060D01*
X94824567Y-69114379D01*
X94827483Y-69107014D01*
X94829118Y-69107661D01*
X94852099Y-69064798D01*
X94967940Y-68936144D01*
X95063427Y-68770756D01*
X95122442Y-68589128D01*
X95123520Y-68578878D01*
X95141714Y-68405765D01*
X95141714Y-68405764D01*
X95142404Y-68399200D01*
X95136705Y-68344976D01*
X95123132Y-68215835D01*
X95123132Y-68215833D01*
X95122442Y-68209272D01*
X95086311Y-68098073D01*
X95084283Y-68027107D01*
X95120946Y-67966309D01*
X95184658Y-67934984D01*
X95255191Y-67943076D01*
G37*
%TD.AperFunction*%
M02*
