%TF.GenerationSoftware,KiCad,Pcbnew,(6.0.0-0)*%
%TF.CreationDate,2022-01-15T19:35:46-06:00*%
%TF.ProjectId,dropkick,64726f70-6b69-4636-9b2e-6b696361645f,rev?*%
%TF.SameCoordinates,Original*%
%TF.FileFunction,Soldermask,Bot*%
%TF.FilePolarity,Negative*%
%FSLAX46Y46*%
G04 Gerber Fmt 4.6, Leading zero omitted, Abs format (unit mm)*
G04 Created by KiCad (PCBNEW (6.0.0-0)) date 2022-01-15 19:35:46*
%MOMM*%
%LPD*%
G01*
G04 APERTURE LIST*
G04 Aperture macros list*
%AMRoundRect*
0 Rectangle with rounded corners*
0 $1 Rounding radius*
0 $2 $3 $4 $5 $6 $7 $8 $9 X,Y pos of 4 corners*
0 Add a 4 corners polygon primitive as box body*
4,1,4,$2,$3,$4,$5,$6,$7,$8,$9,$2,$3,0*
0 Add four circle primitives for the rounded corners*
1,1,$1+$1,$2,$3*
1,1,$1+$1,$4,$5*
1,1,$1+$1,$6,$7*
1,1,$1+$1,$8,$9*
0 Add four rect primitives between the rounded corners*
20,1,$1+$1,$2,$3,$4,$5,0*
20,1,$1+$1,$4,$5,$6,$7,0*
20,1,$1+$1,$6,$7,$8,$9,0*
20,1,$1+$1,$8,$9,$2,$3,0*%
G04 Aperture macros list end*
%ADD10C,3.301600*%
%ADD11C,1.778000*%
%ADD12C,0.700000*%
%ADD13O,2.501600X1.301600*%
%ADD14RoundRect,0.050800X-1.250000X1.250000X-1.250000X-1.250000X1.250000X-1.250000X1.250000X1.250000X0*%
%ADD15C,1.400000*%
%ADD16C,1.070000*%
%ADD17RoundRect,0.050800X0.350000X0.750000X-0.350000X0.750000X-0.350000X-0.750000X0.350000X-0.750000X0*%
%ADD18RoundRect,0.050800X0.900000X-0.700000X0.900000X0.700000X-0.900000X0.700000X-0.900000X-0.700000X0*%
%ADD19RoundRect,0.050800X0.700000X0.950000X-0.700000X0.950000X-0.700000X-0.950000X0.700000X-0.950000X0*%
%ADD20RoundRect,0.050800X2.300000X-0.500000X2.300000X0.500000X-2.300000X0.500000X-2.300000X-0.500000X0*%
%ADD21RoundRect,0.050800X-1.700000X-0.800000X1.700000X-0.800000X1.700000X0.800000X-1.700000X0.800000X0*%
%ADD22R,1.092200X2.006600*%
%ADD23C,1.397000*%
%ADD24R,0.650000X2.760000*%
%ADD25R,0.650000X2.750000*%
%ADD26RoundRect,0.050800X-0.500000X0.537500X-0.500000X-0.537500X0.500000X-0.537500X0.500000X0.537500X0*%
G04 APERTURE END LIST*
D10*
%TO.C,H2*%
X105410000Y-46990000D03*
%TD*%
%TO.C,H1*%
X66040000Y-46990000D03*
%TD*%
%TO.C,H4*%
X105410000Y-92710000D03*
%TD*%
%TO.C,H3*%
X66040000Y-92710000D03*
%TD*%
D11*
%TO.C,JP5*%
X66040000Y-88900000D03*
X66040000Y-86360000D03*
X66040000Y-83820000D03*
X66040000Y-81280000D03*
X66040000Y-78740000D03*
X66040000Y-76200000D03*
X66040000Y-73660000D03*
X66040000Y-71120000D03*
X66040000Y-68580000D03*
X66040000Y-66040000D03*
X66040000Y-63500000D03*
X66040000Y-60960000D03*
X66040000Y-58420000D03*
X66040000Y-55880000D03*
X66040000Y-53340000D03*
X66040000Y-50800000D03*
%TD*%
%TO.C,JP4*%
X105410000Y-54610000D03*
X105410000Y-57150000D03*
X105410000Y-59690000D03*
X105410000Y-62230000D03*
X105410000Y-64770000D03*
X105410000Y-67310000D03*
X105410000Y-69850000D03*
X105410000Y-72390000D03*
X105410000Y-74930000D03*
X105410000Y-77470000D03*
X105410000Y-80010000D03*
X105410000Y-82550000D03*
%TD*%
D12*
%TO.C,X1*%
X88219600Y-48816600D03*
X92119600Y-48816600D03*
D13*
X94069600Y-49716600D03*
X86269600Y-49716600D03*
D14*
X93769600Y-46916600D03*
X86569600Y-46916600D03*
%TD*%
D15*
%TO.C,B1*%
X75438000Y-73596000D03*
D16*
X75438000Y-66096000D03*
%TD*%
D17*
%TO.C,X3*%
X74200000Y-88952000D03*
X75300000Y-88552000D03*
X76400000Y-88952000D03*
X77500000Y-89352000D03*
X78600000Y-88952000D03*
X79700000Y-89352000D03*
X80800000Y-88952000D03*
X81900000Y-88952000D03*
D18*
X81200000Y-78752000D03*
X75200000Y-78752000D03*
D19*
X82800000Y-91852000D03*
X69600000Y-92752000D03*
%TD*%
D20*
%TO.C,X2*%
X71614000Y-56880000D03*
X71614000Y-54880000D03*
D21*
X76814000Y-59280000D03*
X76814000Y-52480000D03*
%TD*%
D22*
%TO.C,SW1*%
X71120000Y-49784000D03*
X73120001Y-49784000D03*
X75120002Y-49784000D03*
D23*
X70994999Y-45683932D03*
X77244999Y-45683932D03*
%TD*%
D24*
%TO.C,JP2*%
X97028000Y-52580000D03*
X97028000Y-56640000D03*
X98298000Y-52580000D03*
D25*
X98298000Y-56640000D03*
D24*
X99568000Y-52580000D03*
X99568000Y-56640000D03*
X100838000Y-52580000D03*
X100838000Y-56640000D03*
X102108000Y-52580000D03*
X102108000Y-56640000D03*
%TD*%
D26*
%TO.C,SJ4*%
X82400000Y-57350000D03*
X82400000Y-59050000D03*
%TD*%
M02*
