%TF.GenerationSoftware,KiCad,Pcbnew,(6.0.0-0)*%
%TF.CreationDate,2022-01-15T19:35:46-06:00*%
%TF.ProjectId,dropkick,64726f70-6b69-4636-9b2e-6b696361645f,rev?*%
%TF.SameCoordinates,Original*%
%TF.FileFunction,Legend,Top*%
%TF.FilePolarity,Positive*%
%FSLAX46Y46*%
G04 Gerber Fmt 4.6, Leading zero omitted, Abs format (unit mm)*
G04 Created by KiCad (PCBNEW (6.0.0-0)) date 2022-01-15 19:35:46*
%MOMM*%
%LPD*%
G01*
G04 APERTURE LIST*
%ADD10C,0.146304*%
%ADD11C,0.150000*%
%ADD12C,0.100000*%
%ADD13C,0.200000*%
%ADD14C,0.304800*%
%ADD15C,0.120000*%
%ADD16C,0.203200*%
%ADD17C,0.127000*%
G04 APERTURE END LIST*
D10*
%TO.C,C12*%
X79704786Y-61565358D02*
X79736524Y-61597095D01*
X79768262Y-61692309D01*
X79768262Y-61755785D01*
X79736524Y-61850999D01*
X79673048Y-61914474D01*
X79609572Y-61946212D01*
X79482620Y-61977950D01*
X79387407Y-61977950D01*
X79260455Y-61946212D01*
X79196979Y-61914474D01*
X79133504Y-61850999D01*
X79101766Y-61755785D01*
X79101766Y-61692309D01*
X79133504Y-61597095D01*
X79165241Y-61565358D01*
X79768262Y-60930599D02*
X79768262Y-61311454D01*
X79768262Y-61121027D02*
X79101766Y-61121027D01*
X79196979Y-61184503D01*
X79260455Y-61247978D01*
X79292193Y-61311454D01*
X79165241Y-60676696D02*
X79133504Y-60644958D01*
X79101766Y-60581482D01*
X79101766Y-60422793D01*
X79133504Y-60359317D01*
X79165241Y-60327579D01*
X79228717Y-60295841D01*
X79292193Y-60295841D01*
X79387407Y-60327579D01*
X79768262Y-60708434D01*
X79768262Y-60295841D01*
%TO.C,CHG1*%
X84104786Y-51165358D02*
X84136524Y-51197095D01*
X84168262Y-51292309D01*
X84168262Y-51355785D01*
X84136524Y-51450999D01*
X84073048Y-51514474D01*
X84009572Y-51546212D01*
X83882620Y-51577950D01*
X83787407Y-51577950D01*
X83660455Y-51546212D01*
X83596979Y-51514474D01*
X83533504Y-51450999D01*
X83501766Y-51355785D01*
X83501766Y-51292309D01*
X83533504Y-51197095D01*
X83565241Y-51165358D01*
X84168262Y-50879716D02*
X83501766Y-50879716D01*
X83819145Y-50879716D02*
X83819145Y-50498862D01*
X84168262Y-50498862D02*
X83501766Y-50498862D01*
X83533504Y-49832366D02*
X83501766Y-49895841D01*
X83501766Y-49991055D01*
X83533504Y-50086269D01*
X83596979Y-50149745D01*
X83660455Y-50181482D01*
X83787407Y-50213220D01*
X83882620Y-50213220D01*
X84009572Y-50181482D01*
X84073048Y-50149745D01*
X84136524Y-50086269D01*
X84168262Y-49991055D01*
X84168262Y-49927579D01*
X84136524Y-49832366D01*
X84104786Y-49800628D01*
X83882620Y-49800628D01*
X83882620Y-49927579D01*
X84168262Y-49165870D02*
X84168262Y-49546724D01*
X84168262Y-49356297D02*
X83501766Y-49356297D01*
X83596979Y-49419773D01*
X83660455Y-49483249D01*
X83692193Y-49546724D01*
%TO.C,R2*%
X86368262Y-72765358D02*
X86050883Y-72987523D01*
X86368262Y-73146212D02*
X85701766Y-73146212D01*
X85701766Y-72892309D01*
X85733504Y-72828833D01*
X85765241Y-72797095D01*
X85828717Y-72765358D01*
X85923931Y-72765358D01*
X85987407Y-72797095D01*
X86019145Y-72828833D01*
X86050883Y-72892309D01*
X86050883Y-73146212D01*
X85765241Y-72511454D02*
X85733504Y-72479716D01*
X85701766Y-72416241D01*
X85701766Y-72257551D01*
X85733504Y-72194075D01*
X85765241Y-72162337D01*
X85828717Y-72130599D01*
X85892193Y-72130599D01*
X85987407Y-72162337D01*
X86368262Y-72543192D01*
X86368262Y-72130599D01*
D11*
%TO.C,SW2*%
X100226761Y-53911333D02*
X100274380Y-53768476D01*
X100274380Y-53530380D01*
X100226761Y-53435142D01*
X100179142Y-53387523D01*
X100083904Y-53339904D01*
X99988666Y-53339904D01*
X99893428Y-53387523D01*
X99845809Y-53435142D01*
X99798190Y-53530380D01*
X99750571Y-53720857D01*
X99702952Y-53816095D01*
X99655333Y-53863714D01*
X99560095Y-53911333D01*
X99464857Y-53911333D01*
X99369619Y-53863714D01*
X99322000Y-53816095D01*
X99274380Y-53720857D01*
X99274380Y-53482761D01*
X99322000Y-53339904D01*
X99274380Y-53006571D02*
X100274380Y-52768476D01*
X99560095Y-52578000D01*
X100274380Y-52387523D01*
X99274380Y-52149428D01*
X99369619Y-51816095D02*
X99322000Y-51768476D01*
X99274380Y-51673238D01*
X99274380Y-51435142D01*
X99322000Y-51339904D01*
X99369619Y-51292285D01*
X99464857Y-51244666D01*
X99560095Y-51244666D01*
X99702952Y-51292285D01*
X100274380Y-51863714D01*
X100274380Y-51244666D01*
X96652380Y-53600000D02*
X96890476Y-53600000D01*
X96795238Y-53838095D02*
X96890476Y-53600000D01*
X96795238Y-53361904D01*
X97080952Y-53742857D02*
X96890476Y-53600000D01*
X97080952Y-53457142D01*
D10*
%TO.C,C2*%
X102504786Y-73565358D02*
X102536524Y-73597095D01*
X102568262Y-73692309D01*
X102568262Y-73755785D01*
X102536524Y-73850999D01*
X102473048Y-73914474D01*
X102409572Y-73946212D01*
X102282620Y-73977950D01*
X102187407Y-73977950D01*
X102060455Y-73946212D01*
X101996979Y-73914474D01*
X101933504Y-73850999D01*
X101901766Y-73755785D01*
X101901766Y-73692309D01*
X101933504Y-73597095D01*
X101965241Y-73565358D01*
X101965241Y-73311454D02*
X101933504Y-73279716D01*
X101901766Y-73216241D01*
X101901766Y-73057551D01*
X101933504Y-72994075D01*
X101965241Y-72962337D01*
X102028717Y-72930599D01*
X102092193Y-72930599D01*
X102187407Y-72962337D01*
X102568262Y-73343192D01*
X102568262Y-72930599D01*
%TO.C,C7*%
X80634641Y-60904786D02*
X80602904Y-60936524D01*
X80507690Y-60968262D01*
X80444214Y-60968262D01*
X80349000Y-60936524D01*
X80285525Y-60873048D01*
X80253787Y-60809572D01*
X80222049Y-60682620D01*
X80222049Y-60587407D01*
X80253787Y-60460455D01*
X80285525Y-60396979D01*
X80349000Y-60333504D01*
X80444214Y-60301766D01*
X80507690Y-60301766D01*
X80602904Y-60333504D01*
X80634641Y-60365241D01*
X80856807Y-60301766D02*
X81301137Y-60301766D01*
X81015496Y-60968262D01*
%TO.C,C10*%
X92704786Y-56965358D02*
X92736524Y-56997095D01*
X92768262Y-57092309D01*
X92768262Y-57155785D01*
X92736524Y-57250999D01*
X92673048Y-57314474D01*
X92609572Y-57346212D01*
X92482620Y-57377950D01*
X92387407Y-57377950D01*
X92260455Y-57346212D01*
X92196979Y-57314474D01*
X92133504Y-57250999D01*
X92101766Y-57155785D01*
X92101766Y-57092309D01*
X92133504Y-56997095D01*
X92165241Y-56965358D01*
X92768262Y-56330599D02*
X92768262Y-56711454D01*
X92768262Y-56521027D02*
X92101766Y-56521027D01*
X92196979Y-56584503D01*
X92260455Y-56647978D01*
X92292193Y-56711454D01*
X92101766Y-55918007D02*
X92101766Y-55854531D01*
X92133504Y-55791055D01*
X92165241Y-55759317D01*
X92228717Y-55727579D01*
X92355669Y-55695841D01*
X92514358Y-55695841D01*
X92641310Y-55727579D01*
X92704786Y-55759317D01*
X92736524Y-55791055D01*
X92768262Y-55854531D01*
X92768262Y-55918007D01*
X92736524Y-55981482D01*
X92704786Y-56013220D01*
X92641310Y-56044958D01*
X92514358Y-56076696D01*
X92355669Y-56076696D01*
X92228717Y-56044958D01*
X92165241Y-56013220D01*
X92133504Y-55981482D01*
X92101766Y-55918007D01*
%TO.C,C8*%
X80434641Y-62304786D02*
X80402904Y-62336524D01*
X80307690Y-62368262D01*
X80244214Y-62368262D01*
X80149000Y-62336524D01*
X80085525Y-62273048D01*
X80053787Y-62209572D01*
X80022049Y-62082620D01*
X80022049Y-61987407D01*
X80053787Y-61860455D01*
X80085525Y-61796979D01*
X80149000Y-61733504D01*
X80244214Y-61701766D01*
X80307690Y-61701766D01*
X80402904Y-61733504D01*
X80434641Y-61765241D01*
X80815496Y-61987407D02*
X80752021Y-61955669D01*
X80720283Y-61923931D01*
X80688545Y-61860455D01*
X80688545Y-61828717D01*
X80720283Y-61765241D01*
X80752021Y-61733504D01*
X80815496Y-61701766D01*
X80942448Y-61701766D01*
X81005924Y-61733504D01*
X81037662Y-61765241D01*
X81069400Y-61828717D01*
X81069400Y-61860455D01*
X81037662Y-61923931D01*
X81005924Y-61955669D01*
X80942448Y-61987407D01*
X80815496Y-61987407D01*
X80752021Y-62019145D01*
X80720283Y-62050883D01*
X80688545Y-62114358D01*
X80688545Y-62241310D01*
X80720283Y-62304786D01*
X80752021Y-62336524D01*
X80815496Y-62368262D01*
X80942448Y-62368262D01*
X81005924Y-62336524D01*
X81037662Y-62304786D01*
X81069400Y-62241310D01*
X81069400Y-62114358D01*
X81037662Y-62050883D01*
X81005924Y-62019145D01*
X80942448Y-61987407D01*
%TO.C,L2*%
X96234262Y-48704833D02*
X96234262Y-49022212D01*
X95567766Y-49022212D01*
X95631241Y-48514406D02*
X95599504Y-48482668D01*
X95567766Y-48419192D01*
X95567766Y-48260503D01*
X95599504Y-48197027D01*
X95631241Y-48165289D01*
X95694717Y-48133551D01*
X95758193Y-48133551D01*
X95853407Y-48165289D01*
X96234262Y-48546144D01*
X96234262Y-48133551D01*
%TO.C,R11*%
X70568262Y-50965358D02*
X70250883Y-51187523D01*
X70568262Y-51346212D02*
X69901766Y-51346212D01*
X69901766Y-51092309D01*
X69933504Y-51028833D01*
X69965241Y-50997095D01*
X70028717Y-50965358D01*
X70123931Y-50965358D01*
X70187407Y-50997095D01*
X70219145Y-51028833D01*
X70250883Y-51092309D01*
X70250883Y-51346212D01*
X70568262Y-50330599D02*
X70568262Y-50711454D01*
X70568262Y-50521027D02*
X69901766Y-50521027D01*
X69996979Y-50584503D01*
X70060455Y-50647978D01*
X70092193Y-50711454D01*
X70568262Y-49695841D02*
X70568262Y-50076696D01*
X70568262Y-49886269D02*
X69901766Y-49886269D01*
X69996979Y-49949745D01*
X70060455Y-50013220D01*
X70092193Y-50076696D01*
%TO.C,R7*%
X86634641Y-58768262D02*
X86412476Y-58450883D01*
X86253787Y-58768262D02*
X86253787Y-58101766D01*
X86507690Y-58101766D01*
X86571166Y-58133504D01*
X86602904Y-58165241D01*
X86634641Y-58228717D01*
X86634641Y-58323931D01*
X86602904Y-58387407D01*
X86571166Y-58419145D01*
X86507690Y-58450883D01*
X86253787Y-58450883D01*
X86856807Y-58101766D02*
X87301137Y-58101766D01*
X87015496Y-58768262D01*
%TO.C,C4*%
X102904786Y-63565358D02*
X102936524Y-63597095D01*
X102968262Y-63692309D01*
X102968262Y-63755785D01*
X102936524Y-63850999D01*
X102873048Y-63914474D01*
X102809572Y-63946212D01*
X102682620Y-63977950D01*
X102587407Y-63977950D01*
X102460455Y-63946212D01*
X102396979Y-63914474D01*
X102333504Y-63850999D01*
X102301766Y-63755785D01*
X102301766Y-63692309D01*
X102333504Y-63597095D01*
X102365241Y-63565358D01*
X102523931Y-62994075D02*
X102968262Y-62994075D01*
X102270028Y-63152765D02*
X102746096Y-63311454D01*
X102746096Y-62898862D01*
%TO.C,TP1*%
X75723573Y-81470766D02*
X76104428Y-81470766D01*
X75914000Y-82137262D02*
X75914000Y-81470766D01*
X76326593Y-82137262D02*
X76326593Y-81470766D01*
X76580496Y-81470766D01*
X76643972Y-81502504D01*
X76675710Y-81534241D01*
X76707448Y-81597717D01*
X76707448Y-81692931D01*
X76675710Y-81756407D01*
X76643972Y-81788145D01*
X76580496Y-81819883D01*
X76326593Y-81819883D01*
X77342206Y-82137262D02*
X76961351Y-82137262D01*
X77151779Y-82137262D02*
X77151779Y-81470766D01*
X77088303Y-81565979D01*
X77024827Y-81629455D01*
X76961351Y-81661193D01*
%TO.C,R8*%
X99968262Y-46165358D02*
X99650883Y-46387523D01*
X99968262Y-46546212D02*
X99301766Y-46546212D01*
X99301766Y-46292309D01*
X99333504Y-46228833D01*
X99365241Y-46197095D01*
X99428717Y-46165358D01*
X99523931Y-46165358D01*
X99587407Y-46197095D01*
X99619145Y-46228833D01*
X99650883Y-46292309D01*
X99650883Y-46546212D01*
X99587407Y-45784503D02*
X99555669Y-45847978D01*
X99523931Y-45879716D01*
X99460455Y-45911454D01*
X99428717Y-45911454D01*
X99365241Y-45879716D01*
X99333504Y-45847978D01*
X99301766Y-45784503D01*
X99301766Y-45657551D01*
X99333504Y-45594075D01*
X99365241Y-45562337D01*
X99428717Y-45530599D01*
X99460455Y-45530599D01*
X99523931Y-45562337D01*
X99555669Y-45594075D01*
X99587407Y-45657551D01*
X99587407Y-45784503D01*
X99619145Y-45847978D01*
X99650883Y-45879716D01*
X99714358Y-45911454D01*
X99841310Y-45911454D01*
X99904786Y-45879716D01*
X99936524Y-45847978D01*
X99968262Y-45784503D01*
X99968262Y-45657551D01*
X99936524Y-45594075D01*
X99904786Y-45562337D01*
X99841310Y-45530599D01*
X99714358Y-45530599D01*
X99650883Y-45562337D01*
X99619145Y-45594075D01*
X99587407Y-45657551D01*
%TO.C,JP5*%
X67501766Y-51755785D02*
X67977834Y-51755785D01*
X68073048Y-51787523D01*
X68136524Y-51850999D01*
X68168262Y-51946212D01*
X68168262Y-52009688D01*
X68168262Y-51438406D02*
X67501766Y-51438406D01*
X67501766Y-51184503D01*
X67533504Y-51121027D01*
X67565241Y-51089289D01*
X67628717Y-51057551D01*
X67723931Y-51057551D01*
X67787407Y-51089289D01*
X67819145Y-51121027D01*
X67850883Y-51184503D01*
X67850883Y-51438406D01*
X67501766Y-50454531D02*
X67501766Y-50771910D01*
X67819145Y-50803648D01*
X67787407Y-50771910D01*
X67755669Y-50708434D01*
X67755669Y-50549745D01*
X67787407Y-50486269D01*
X67819145Y-50454531D01*
X67882620Y-50422793D01*
X68041310Y-50422793D01*
X68104786Y-50454531D01*
X68136524Y-50486269D01*
X68168262Y-50549745D01*
X68168262Y-50708434D01*
X68136524Y-50771910D01*
X68104786Y-50803648D01*
%TO.C,C5*%
X80136641Y-85883786D02*
X80104904Y-85915524D01*
X80009690Y-85947262D01*
X79946214Y-85947262D01*
X79851000Y-85915524D01*
X79787525Y-85852048D01*
X79755787Y-85788572D01*
X79724049Y-85661620D01*
X79724049Y-85566407D01*
X79755787Y-85439455D01*
X79787525Y-85375979D01*
X79851000Y-85312504D01*
X79946214Y-85280766D01*
X80009690Y-85280766D01*
X80104904Y-85312504D01*
X80136641Y-85344241D01*
X80739662Y-85280766D02*
X80422283Y-85280766D01*
X80390545Y-85598145D01*
X80422283Y-85566407D01*
X80485758Y-85534669D01*
X80644448Y-85534669D01*
X80707924Y-85566407D01*
X80739662Y-85598145D01*
X80771400Y-85661620D01*
X80771400Y-85820310D01*
X80739662Y-85883786D01*
X80707924Y-85915524D01*
X80644448Y-85947262D01*
X80485758Y-85947262D01*
X80422283Y-85915524D01*
X80390545Y-85883786D01*
%TO.C,R1*%
X84968262Y-72565358D02*
X84650883Y-72787523D01*
X84968262Y-72946212D02*
X84301766Y-72946212D01*
X84301766Y-72692309D01*
X84333504Y-72628833D01*
X84365241Y-72597095D01*
X84428717Y-72565358D01*
X84523931Y-72565358D01*
X84587407Y-72597095D01*
X84619145Y-72628833D01*
X84650883Y-72692309D01*
X84650883Y-72946212D01*
X84968262Y-71930599D02*
X84968262Y-72311454D01*
X84968262Y-72121027D02*
X84301766Y-72121027D01*
X84396979Y-72184503D01*
X84460455Y-72247978D01*
X84492193Y-72311454D01*
D12*
%TO.C,X5*%
X84936428Y-58876190D02*
X85269761Y-59376190D01*
X85269761Y-58876190D02*
X84936428Y-59376190D01*
X85698333Y-58876190D02*
X85460238Y-58876190D01*
X85436428Y-59114285D01*
X85460238Y-59090476D01*
X85507857Y-59066666D01*
X85626904Y-59066666D01*
X85674523Y-59090476D01*
X85698333Y-59114285D01*
X85722142Y-59161904D01*
X85722142Y-59280952D01*
X85698333Y-59328571D01*
X85674523Y-59352380D01*
X85626904Y-59376190D01*
X85507857Y-59376190D01*
X85460238Y-59352380D01*
X85436428Y-59328571D01*
D10*
%TO.C,R10*%
X74548641Y-89249262D02*
X74326476Y-88931883D01*
X74167787Y-89249262D02*
X74167787Y-88582766D01*
X74421690Y-88582766D01*
X74485166Y-88614504D01*
X74516904Y-88646241D01*
X74548641Y-88709717D01*
X74548641Y-88804931D01*
X74516904Y-88868407D01*
X74485166Y-88900145D01*
X74421690Y-88931883D01*
X74167787Y-88931883D01*
X75183400Y-89249262D02*
X74802545Y-89249262D01*
X74992972Y-89249262D02*
X74992972Y-88582766D01*
X74929496Y-88677979D01*
X74866021Y-88741455D01*
X74802545Y-88773193D01*
X75595992Y-88582766D02*
X75659468Y-88582766D01*
X75722944Y-88614504D01*
X75754682Y-88646241D01*
X75786420Y-88709717D01*
X75818158Y-88836669D01*
X75818158Y-88995358D01*
X75786420Y-89122310D01*
X75754682Y-89185786D01*
X75722944Y-89217524D01*
X75659468Y-89249262D01*
X75595992Y-89249262D01*
X75532517Y-89217524D01*
X75500779Y-89185786D01*
X75469041Y-89122310D01*
X75437303Y-88995358D01*
X75437303Y-88836669D01*
X75469041Y-88709717D01*
X75500779Y-88646241D01*
X75532517Y-88614504D01*
X75595992Y-88582766D01*
%TO.C,U6*%
X100453787Y-59101766D02*
X100453787Y-59641310D01*
X100485525Y-59704786D01*
X100517262Y-59736524D01*
X100580738Y-59768262D01*
X100707690Y-59768262D01*
X100771166Y-59736524D01*
X100802904Y-59704786D01*
X100834641Y-59641310D01*
X100834641Y-59101766D01*
X101437662Y-59101766D02*
X101310710Y-59101766D01*
X101247234Y-59133504D01*
X101215496Y-59165241D01*
X101152021Y-59260455D01*
X101120283Y-59387407D01*
X101120283Y-59641310D01*
X101152021Y-59704786D01*
X101183758Y-59736524D01*
X101247234Y-59768262D01*
X101374186Y-59768262D01*
X101437662Y-59736524D01*
X101469400Y-59704786D01*
X101501137Y-59641310D01*
X101501137Y-59482620D01*
X101469400Y-59419145D01*
X101437662Y-59387407D01*
X101374186Y-59355669D01*
X101247234Y-59355669D01*
X101183758Y-59387407D01*
X101152021Y-59419145D01*
X101120283Y-59482620D01*
%TO.C,C3*%
X94519786Y-51365358D02*
X94551524Y-51397095D01*
X94583262Y-51492309D01*
X94583262Y-51555785D01*
X94551524Y-51650999D01*
X94488048Y-51714474D01*
X94424572Y-51746212D01*
X94297620Y-51777950D01*
X94202407Y-51777950D01*
X94075455Y-51746212D01*
X94011979Y-51714474D01*
X93948504Y-51650999D01*
X93916766Y-51555785D01*
X93916766Y-51492309D01*
X93948504Y-51397095D01*
X93980241Y-51365358D01*
X93916766Y-51143192D02*
X93916766Y-50730599D01*
X94170669Y-50952765D01*
X94170669Y-50857551D01*
X94202407Y-50794075D01*
X94234145Y-50762337D01*
X94297620Y-50730599D01*
X94456310Y-50730599D01*
X94519786Y-50762337D01*
X94551524Y-50794075D01*
X94583262Y-50857551D01*
X94583262Y-51047978D01*
X94551524Y-51111454D01*
X94519786Y-51143192D01*
%TO.C,JP4*%
X106540566Y-52819585D02*
X107016634Y-52819585D01*
X107111848Y-52851323D01*
X107175324Y-52914799D01*
X107207062Y-53010012D01*
X107207062Y-53073488D01*
X107207062Y-52502206D02*
X106540566Y-52502206D01*
X106540566Y-52248303D01*
X106572304Y-52184827D01*
X106604041Y-52153089D01*
X106667517Y-52121351D01*
X106762731Y-52121351D01*
X106826207Y-52153089D01*
X106857945Y-52184827D01*
X106889683Y-52248303D01*
X106889683Y-52502206D01*
X106762731Y-51550069D02*
X107207062Y-51550069D01*
X106508828Y-51708758D02*
X106984896Y-51867448D01*
X106984896Y-51454855D01*
%TO.C,C13*%
X75834641Y-49704786D02*
X75802904Y-49736524D01*
X75707690Y-49768262D01*
X75644214Y-49768262D01*
X75549000Y-49736524D01*
X75485525Y-49673048D01*
X75453787Y-49609572D01*
X75422049Y-49482620D01*
X75422049Y-49387407D01*
X75453787Y-49260455D01*
X75485525Y-49196979D01*
X75549000Y-49133504D01*
X75644214Y-49101766D01*
X75707690Y-49101766D01*
X75802904Y-49133504D01*
X75834641Y-49165241D01*
X76469400Y-49768262D02*
X76088545Y-49768262D01*
X76278972Y-49768262D02*
X76278972Y-49101766D01*
X76215496Y-49196979D01*
X76152021Y-49260455D01*
X76088545Y-49292193D01*
X76691565Y-49101766D02*
X77104158Y-49101766D01*
X76881992Y-49355669D01*
X76977206Y-49355669D01*
X77040682Y-49387407D01*
X77072420Y-49419145D01*
X77104158Y-49482620D01*
X77104158Y-49641310D01*
X77072420Y-49704786D01*
X77040682Y-49736524D01*
X76977206Y-49768262D01*
X76786779Y-49768262D01*
X76723303Y-49736524D01*
X76691565Y-49704786D01*
%TO.C,C9*%
X85434641Y-54104786D02*
X85402904Y-54136524D01*
X85307690Y-54168262D01*
X85244214Y-54168262D01*
X85149000Y-54136524D01*
X85085525Y-54073048D01*
X85053787Y-54009572D01*
X85022049Y-53882620D01*
X85022049Y-53787407D01*
X85053787Y-53660455D01*
X85085525Y-53596979D01*
X85149000Y-53533504D01*
X85244214Y-53501766D01*
X85307690Y-53501766D01*
X85402904Y-53533504D01*
X85434641Y-53565241D01*
X85752021Y-54168262D02*
X85878972Y-54168262D01*
X85942448Y-54136524D01*
X85974186Y-54104786D01*
X86037662Y-54009572D01*
X86069400Y-53882620D01*
X86069400Y-53628717D01*
X86037662Y-53565241D01*
X86005924Y-53533504D01*
X85942448Y-53501766D01*
X85815496Y-53501766D01*
X85752021Y-53533504D01*
X85720283Y-53565241D01*
X85688545Y-53628717D01*
X85688545Y-53787407D01*
X85720283Y-53850883D01*
X85752021Y-53882620D01*
X85815496Y-53914358D01*
X85942448Y-53914358D01*
X86005924Y-53882620D01*
X86037662Y-53850883D01*
X86069400Y-53787407D01*
%TO.C,D2*%
X72104262Y-92710212D02*
X71437766Y-92710212D01*
X71437766Y-92551523D01*
X71469504Y-92456309D01*
X71532979Y-92392833D01*
X71596455Y-92361095D01*
X71723407Y-92329358D01*
X71818620Y-92329358D01*
X71945572Y-92361095D01*
X72009048Y-92392833D01*
X72072524Y-92456309D01*
X72104262Y-92551523D01*
X72104262Y-92710212D01*
X71501241Y-92075454D02*
X71469504Y-92043716D01*
X71437766Y-91980241D01*
X71437766Y-91821551D01*
X71469504Y-91758075D01*
X71501241Y-91726337D01*
X71564717Y-91694599D01*
X71628193Y-91694599D01*
X71723407Y-91726337D01*
X72104262Y-92107192D01*
X72104262Y-91694599D01*
%TO.C,R6*%
X82768262Y-52565358D02*
X82450883Y-52787523D01*
X82768262Y-52946212D02*
X82101766Y-52946212D01*
X82101766Y-52692309D01*
X82133504Y-52628833D01*
X82165241Y-52597095D01*
X82228717Y-52565358D01*
X82323931Y-52565358D01*
X82387407Y-52597095D01*
X82419145Y-52628833D01*
X82450883Y-52692309D01*
X82450883Y-52946212D01*
X82101766Y-51994075D02*
X82101766Y-52121027D01*
X82133504Y-52184503D01*
X82165241Y-52216241D01*
X82260455Y-52279716D01*
X82387407Y-52311454D01*
X82641310Y-52311454D01*
X82704786Y-52279716D01*
X82736524Y-52247978D01*
X82768262Y-52184503D01*
X82768262Y-52057551D01*
X82736524Y-51994075D01*
X82704786Y-51962337D01*
X82641310Y-51930599D01*
X82482620Y-51930599D01*
X82419145Y-51962337D01*
X82387407Y-51994075D01*
X82355669Y-52057551D01*
X82355669Y-52184503D01*
X82387407Y-52247978D01*
X82419145Y-52279716D01*
X82482620Y-52311454D01*
%TO.C,C1*%
X82834641Y-64504786D02*
X82802904Y-64536524D01*
X82707690Y-64568262D01*
X82644214Y-64568262D01*
X82549000Y-64536524D01*
X82485525Y-64473048D01*
X82453787Y-64409572D01*
X82422049Y-64282620D01*
X82422049Y-64187407D01*
X82453787Y-64060455D01*
X82485525Y-63996979D01*
X82549000Y-63933504D01*
X82644214Y-63901766D01*
X82707690Y-63901766D01*
X82802904Y-63933504D01*
X82834641Y-63965241D01*
X83469400Y-64568262D02*
X83088545Y-64568262D01*
X83278972Y-64568262D02*
X83278972Y-63901766D01*
X83215496Y-63996979D01*
X83152021Y-64060455D01*
X83088545Y-64092193D01*
%TO.C,D1*%
X102983787Y-49952262D02*
X102983787Y-49285766D01*
X103142476Y-49285766D01*
X103237690Y-49317504D01*
X103301166Y-49380979D01*
X103332904Y-49444455D01*
X103364641Y-49571407D01*
X103364641Y-49666620D01*
X103332904Y-49793572D01*
X103301166Y-49857048D01*
X103237690Y-49920524D01*
X103142476Y-49952262D01*
X102983787Y-49952262D01*
X103999400Y-49952262D02*
X103618545Y-49952262D01*
X103808972Y-49952262D02*
X103808972Y-49285766D01*
X103745496Y-49380979D01*
X103682021Y-49444455D01*
X103618545Y-49476193D01*
D11*
%TO.C,U2*%
X83543380Y-92961904D02*
X84352904Y-92961904D01*
X84448142Y-92914285D01*
X84495761Y-92866666D01*
X84543380Y-92771428D01*
X84543380Y-92580952D01*
X84495761Y-92485714D01*
X84448142Y-92438095D01*
X84352904Y-92390476D01*
X83543380Y-92390476D01*
X83638619Y-91961904D02*
X83591000Y-91914285D01*
X83543380Y-91819047D01*
X83543380Y-91580952D01*
X83591000Y-91485714D01*
X83638619Y-91438095D01*
X83733857Y-91390476D01*
X83829095Y-91390476D01*
X83971952Y-91438095D01*
X84543380Y-92009523D01*
X84543380Y-91390476D01*
D10*
%TO.C,R9*%
X78768262Y-47965358D02*
X78450883Y-48187523D01*
X78768262Y-48346212D02*
X78101766Y-48346212D01*
X78101766Y-48092309D01*
X78133504Y-48028833D01*
X78165241Y-47997095D01*
X78228717Y-47965358D01*
X78323931Y-47965358D01*
X78387407Y-47997095D01*
X78419145Y-48028833D01*
X78450883Y-48092309D01*
X78450883Y-48346212D01*
X78768262Y-47647978D02*
X78768262Y-47521027D01*
X78736524Y-47457551D01*
X78704786Y-47425813D01*
X78609572Y-47362337D01*
X78482620Y-47330599D01*
X78228717Y-47330599D01*
X78165241Y-47362337D01*
X78133504Y-47394075D01*
X78101766Y-47457551D01*
X78101766Y-47584503D01*
X78133504Y-47647978D01*
X78165241Y-47679716D01*
X78228717Y-47711454D01*
X78387407Y-47711454D01*
X78450883Y-47679716D01*
X78482620Y-47647978D01*
X78514358Y-47584503D01*
X78514358Y-47457551D01*
X78482620Y-47394075D01*
X78450883Y-47362337D01*
X78387407Y-47330599D01*
%TO.C,C11*%
X68434641Y-81104786D02*
X68402904Y-81136524D01*
X68307690Y-81168262D01*
X68244214Y-81168262D01*
X68149000Y-81136524D01*
X68085525Y-81073048D01*
X68053787Y-81009572D01*
X68022049Y-80882620D01*
X68022049Y-80787407D01*
X68053787Y-80660455D01*
X68085525Y-80596979D01*
X68149000Y-80533504D01*
X68244214Y-80501766D01*
X68307690Y-80501766D01*
X68402904Y-80533504D01*
X68434641Y-80565241D01*
X69069400Y-81168262D02*
X68688545Y-81168262D01*
X68878972Y-81168262D02*
X68878972Y-80501766D01*
X68815496Y-80596979D01*
X68752021Y-80660455D01*
X68688545Y-80692193D01*
X69704158Y-81168262D02*
X69323303Y-81168262D01*
X69513730Y-81168262D02*
X69513730Y-80501766D01*
X69450254Y-80596979D01*
X69386779Y-80660455D01*
X69323303Y-80692193D01*
D13*
%TO.C,B1*%
X74787142Y-69742857D02*
X75001428Y-69814285D01*
X75072857Y-69885714D01*
X75144285Y-70028571D01*
X75144285Y-70242857D01*
X75072857Y-70385714D01*
X75001428Y-70457142D01*
X74858571Y-70528571D01*
X74287142Y-70528571D01*
X74287142Y-69028571D01*
X74787142Y-69028571D01*
X74930000Y-69100000D01*
X75001428Y-69171428D01*
X75072857Y-69314285D01*
X75072857Y-69457142D01*
X75001428Y-69600000D01*
X74930000Y-69671428D01*
X74787142Y-69742857D01*
X74287142Y-69742857D01*
X76572857Y-70528571D02*
X75715714Y-70528571D01*
X76144285Y-70528571D02*
X76144285Y-69028571D01*
X76001428Y-69242857D01*
X75858571Y-69385714D01*
X75715714Y-69457142D01*
D10*
%TO.C,U5*%
X75853787Y-50501766D02*
X75853787Y-51041310D01*
X75885525Y-51104786D01*
X75917262Y-51136524D01*
X75980738Y-51168262D01*
X76107690Y-51168262D01*
X76171166Y-51136524D01*
X76202904Y-51104786D01*
X76234641Y-51041310D01*
X76234641Y-50501766D01*
X76869400Y-50501766D02*
X76552021Y-50501766D01*
X76520283Y-50819145D01*
X76552021Y-50787407D01*
X76615496Y-50755669D01*
X76774186Y-50755669D01*
X76837662Y-50787407D01*
X76869400Y-50819145D01*
X76901137Y-50882620D01*
X76901137Y-51041310D01*
X76869400Y-51104786D01*
X76837662Y-51136524D01*
X76774186Y-51168262D01*
X76615496Y-51168262D01*
X76552021Y-51136524D01*
X76520283Y-51104786D01*
%TO.C,R14*%
X78168262Y-61565358D02*
X77850883Y-61787523D01*
X78168262Y-61946212D02*
X77501766Y-61946212D01*
X77501766Y-61692309D01*
X77533504Y-61628833D01*
X77565241Y-61597095D01*
X77628717Y-61565358D01*
X77723931Y-61565358D01*
X77787407Y-61597095D01*
X77819145Y-61628833D01*
X77850883Y-61692309D01*
X77850883Y-61946212D01*
X78168262Y-60930599D02*
X78168262Y-61311454D01*
X78168262Y-61121027D02*
X77501766Y-61121027D01*
X77596979Y-61184503D01*
X77660455Y-61247978D01*
X77692193Y-61311454D01*
X77723931Y-60359317D02*
X78168262Y-60359317D01*
X77470028Y-60518007D02*
X77946096Y-60676696D01*
X77946096Y-60264103D01*
D11*
%TO.C,U1*%
X87638095Y-60452380D02*
X87638095Y-61261904D01*
X87685714Y-61357142D01*
X87733333Y-61404761D01*
X87828571Y-61452380D01*
X88019047Y-61452380D01*
X88114285Y-61404761D01*
X88161904Y-61357142D01*
X88209523Y-61261904D01*
X88209523Y-60452380D01*
X89209523Y-61452380D02*
X88638095Y-61452380D01*
X88923809Y-61452380D02*
X88923809Y-60452380D01*
X88828571Y-60595238D01*
X88733333Y-60690476D01*
X88638095Y-60738095D01*
D10*
%TO.C,L1*%
X81968262Y-49828833D02*
X81968262Y-50146212D01*
X81301766Y-50146212D01*
X81968262Y-49257551D02*
X81968262Y-49638406D01*
X81968262Y-49447978D02*
X81301766Y-49447978D01*
X81396979Y-49511454D01*
X81460455Y-49574930D01*
X81492193Y-49638406D01*
%TO.C,R3*%
X103238262Y-53565358D02*
X102920883Y-53787523D01*
X103238262Y-53946212D02*
X102571766Y-53946212D01*
X102571766Y-53692309D01*
X102603504Y-53628833D01*
X102635241Y-53597095D01*
X102698717Y-53565358D01*
X102793931Y-53565358D01*
X102857407Y-53597095D01*
X102889145Y-53628833D01*
X102920883Y-53692309D01*
X102920883Y-53946212D01*
X102571766Y-53343192D02*
X102571766Y-52930599D01*
X102825669Y-53152765D01*
X102825669Y-53057551D01*
X102857407Y-52994075D01*
X102889145Y-52962337D01*
X102952620Y-52930599D01*
X103111310Y-52930599D01*
X103174786Y-52962337D01*
X103206524Y-52994075D01*
X103238262Y-53057551D01*
X103238262Y-53247978D01*
X103206524Y-53311454D01*
X103174786Y-53343192D01*
%TO.C,U3*%
X84653787Y-56501766D02*
X84653787Y-57041310D01*
X84685525Y-57104786D01*
X84717262Y-57136524D01*
X84780738Y-57168262D01*
X84907690Y-57168262D01*
X84971166Y-57136524D01*
X85002904Y-57104786D01*
X85034641Y-57041310D01*
X85034641Y-56501766D01*
X85288545Y-56501766D02*
X85701137Y-56501766D01*
X85478972Y-56755669D01*
X85574186Y-56755669D01*
X85637662Y-56787407D01*
X85669400Y-56819145D01*
X85701137Y-56882620D01*
X85701137Y-57041310D01*
X85669400Y-57104786D01*
X85637662Y-57136524D01*
X85574186Y-57168262D01*
X85383758Y-57168262D01*
X85320283Y-57136524D01*
X85288545Y-57104786D01*
D11*
%TO.C,U4*%
X70029428Y-57353142D02*
X70515142Y-57353142D01*
X70572285Y-57324571D01*
X70600857Y-57296000D01*
X70629428Y-57238857D01*
X70629428Y-57124571D01*
X70600857Y-57067428D01*
X70572285Y-57038857D01*
X70515142Y-57010285D01*
X70029428Y-57010285D01*
X70229428Y-56467428D02*
X70629428Y-56467428D01*
X70000857Y-56610285D02*
X70429428Y-56753142D01*
X70429428Y-56381714D01*
D10*
%TO.C,C6*%
X71704786Y-60965358D02*
X71736524Y-60997095D01*
X71768262Y-61092309D01*
X71768262Y-61155785D01*
X71736524Y-61250999D01*
X71673048Y-61314474D01*
X71609572Y-61346212D01*
X71482620Y-61377950D01*
X71387407Y-61377950D01*
X71260455Y-61346212D01*
X71196979Y-61314474D01*
X71133504Y-61250999D01*
X71101766Y-61155785D01*
X71101766Y-61092309D01*
X71133504Y-60997095D01*
X71165241Y-60965358D01*
X71101766Y-60394075D02*
X71101766Y-60521027D01*
X71133504Y-60584503D01*
X71165241Y-60616241D01*
X71260455Y-60679716D01*
X71387407Y-60711454D01*
X71641310Y-60711454D01*
X71704786Y-60679716D01*
X71736524Y-60647978D01*
X71768262Y-60584503D01*
X71768262Y-60457551D01*
X71736524Y-60394075D01*
X71704786Y-60362337D01*
X71641310Y-60330599D01*
X71482620Y-60330599D01*
X71419145Y-60362337D01*
X71387407Y-60394075D01*
X71355669Y-60457551D01*
X71355669Y-60584503D01*
X71387407Y-60647978D01*
X71419145Y-60679716D01*
X71482620Y-60711454D01*
D14*
%TO.C,C12*%
X79902000Y-58547000D02*
X79102000Y-58547000D01*
%TO.C,CHG1*%
G36*
X84264500Y-47541000D02*
G01*
X83375500Y-47541000D01*
X83375500Y-47350500D01*
X84264500Y-47350500D01*
X84264500Y-47541000D01*
G37*
G36*
X83820000Y-47591000D02*
G01*
X83286600Y-46879800D01*
X84353400Y-46879800D01*
X83820000Y-47591000D01*
G37*
%TO.C,R2*%
X86506000Y-70270000D02*
X85706000Y-70270000D01*
D15*
%TO.C,SW2*%
X98668741Y-55054500D02*
X99060000Y-55054500D01*
X99060000Y-50101500D02*
X98668741Y-50101500D01*
X97495261Y-50101500D02*
X97068739Y-50101500D01*
X95504000Y-55054500D02*
X95895259Y-55054500D01*
X95895259Y-50101500D02*
X95504000Y-50101500D01*
X97068739Y-55054500D02*
X97495261Y-55054500D01*
X95504000Y-50101500D02*
X95504000Y-55054500D01*
X99060000Y-55054500D02*
X99060000Y-50101500D01*
D14*
%TO.C,C2*%
X102743000Y-70866000D02*
X101727000Y-70866000D01*
%TO.C,C7*%
X82804000Y-60852000D02*
X82804000Y-60052000D01*
%TO.C,C10*%
X90786000Y-57150000D02*
X91586000Y-57150000D01*
%TO.C,C8*%
X82804000Y-62376000D02*
X82804000Y-61576000D01*
%TO.C,L2*%
G36*
X97726500Y-47357500D02*
G01*
X96837500Y-47357500D01*
X96837500Y-47167000D01*
X97726500Y-47167000D01*
X97726500Y-47357500D01*
G37*
G36*
X97815400Y-47828200D02*
G01*
X96748600Y-47828200D01*
X97282000Y-47117000D01*
X97815400Y-47828200D01*
G37*
D16*
%TO.C,R11*%
X73790000Y-53208000D02*
X70990000Y-53208000D01*
X70990000Y-49408000D02*
X73790000Y-49408000D01*
D14*
%TO.C,R7*%
X88900000Y-58147000D02*
X88900000Y-58947000D01*
%TO.C,C4*%
X102235000Y-60960000D02*
X103251000Y-60960000D01*
D16*
%TO.C,TP1*%
X75422000Y-82042000D02*
G75*
G03*
X75422000Y-82042000I-1000000J0D01*
G01*
D14*
%TO.C,R8*%
X99168000Y-48260000D02*
X99968000Y-48260000D01*
%TO.C,C5*%
X77724000Y-85452000D02*
X77724000Y-86252000D01*
%TO.C,R1*%
X84182000Y-70270000D02*
X84982000Y-70270000D01*
D17*
%TO.C,X5*%
X86252000Y-61068000D02*
X86252000Y-61868000D01*
X85162000Y-61868000D02*
X85162000Y-61068000D01*
X86552000Y-61068000D02*
X86552000Y-61868000D01*
X85452000Y-61868000D02*
X85452000Y-61068000D01*
D14*
%TO.C,R10*%
X72136000Y-88754000D02*
X72136000Y-89554000D01*
D16*
%TO.C,U6*%
X98264000Y-57800000D02*
X98264000Y-57000000D01*
X98514000Y-55750000D02*
X100114000Y-55750000D01*
X98514000Y-59050000D02*
X100114000Y-59050000D01*
D14*
%TO.C,C3*%
X93980000Y-53655000D02*
X94996000Y-53655000D01*
D17*
%TO.C,X1*%
X92669600Y-49916600D02*
X91869600Y-49916600D01*
X88469600Y-49916600D02*
X87669600Y-49916600D01*
X93969600Y-44516600D02*
X86369600Y-44516600D01*
X86369600Y-44516600D02*
X86369600Y-45416600D01*
X93969600Y-45416600D02*
X93969600Y-44516600D01*
D14*
%TO.C,C13*%
X78943200Y-49231600D02*
X78943200Y-50031600D01*
%TO.C,C9*%
X87122000Y-52959000D02*
X87122000Y-51943000D01*
%TO.C,D2*%
G36*
X73310544Y-91948000D02*
G01*
X72485456Y-91948000D01*
X72898000Y-91432320D01*
X73310544Y-91948000D01*
G37*
G36*
X73279000Y-91554300D02*
G01*
X72517000Y-91554300D01*
X72517000Y-91427300D01*
X73279000Y-91427300D01*
X73279000Y-91554300D01*
G37*
%TO.C,R6*%
X83420000Y-53506000D02*
X84220000Y-53506000D01*
%TO.C,C1*%
X84074000Y-65932000D02*
X84074000Y-65132000D01*
D16*
%TO.C,D1*%
X104300000Y-51400000D02*
X103700000Y-51000000D01*
X104300000Y-50600000D02*
X104300000Y-51400000D01*
X103127000Y-50300000D02*
X104873000Y-50300000D01*
X103700000Y-51000000D02*
X104300000Y-50600000D01*
X104873000Y-51700000D02*
X103127000Y-51700000D01*
G36*
X104301600Y-51389841D02*
G01*
X103716838Y-51000000D01*
X104301600Y-50610159D01*
X104301600Y-51389841D01*
G37*
G36*
X103700000Y-51500000D02*
G01*
X103500000Y-51500000D01*
X103500000Y-50500000D01*
X103700000Y-50500000D01*
X103700000Y-51500000D01*
G37*
D17*
%TO.C,U2*%
X85976000Y-80093000D02*
X85976000Y-77213000D01*
X85976000Y-77213000D02*
X88856000Y-77213000D01*
X85976000Y-92713000D02*
X85976000Y-89833000D01*
X101476000Y-92713000D02*
X98596000Y-92713000D01*
X101476000Y-77213000D02*
X98596000Y-77213000D01*
X88856000Y-92713000D02*
X85976000Y-92713000D01*
X101476000Y-89833000D02*
X101476000Y-92713000D01*
X101476000Y-77213000D02*
X101476000Y-80093000D01*
D13*
X90026000Y-93463000D02*
G75*
G03*
X90026000Y-93463000I-100000J0D01*
G01*
D14*
%TO.C,R9*%
X80156000Y-47205000D02*
X79356000Y-47205000D01*
%TO.C,C11*%
X69596000Y-78740000D02*
X69596000Y-79756000D01*
%TO.C,B1*%
X79238000Y-76696000D02*
X78338000Y-77196000D01*
X68338000Y-76696000D02*
X71538000Y-76696000D01*
X71538000Y-76696000D02*
X72538000Y-77196000D01*
X77038000Y-62196000D02*
X77938000Y-62396000D01*
X82538000Y-76696000D02*
X79238000Y-76696000D01*
X67638000Y-68296000D02*
X67438000Y-69596000D01*
X67838000Y-71996000D02*
X68338000Y-73496000D01*
X77938000Y-62396000D02*
X78938000Y-62796000D01*
X73938000Y-61996000D02*
X72538000Y-62396000D01*
X68338000Y-73546000D02*
X68338000Y-76696000D01*
X71238000Y-63096000D02*
X70138000Y-63896000D01*
X72538000Y-77196000D02*
X73738000Y-77496000D01*
X83338000Y-70296000D02*
X83138000Y-71596000D01*
X82538000Y-73546000D02*
X82538000Y-76696000D01*
X70138000Y-63896000D02*
X69338000Y-64696000D01*
X82438000Y-66296000D02*
X82938000Y-67296000D01*
X78338000Y-77196000D02*
X77438000Y-77496000D01*
X83138000Y-71596000D02*
X82538000Y-73496000D01*
X77438000Y-77496000D02*
X77038000Y-77496000D01*
X72538000Y-62396000D02*
X71238000Y-63096000D01*
X80938000Y-64196000D02*
X81738000Y-65096000D01*
X68038000Y-66896000D02*
X67638000Y-68296000D01*
X78938000Y-62796000D02*
X79938000Y-63296000D01*
X69338000Y-64696000D02*
X68638000Y-65696000D01*
X83338000Y-68796000D02*
X83338000Y-70296000D01*
X81738000Y-65096000D02*
X82438000Y-66296000D01*
X82938000Y-67296000D02*
X83338000Y-68796000D01*
X79938000Y-63296000D02*
X80938000Y-64196000D01*
X68638000Y-65696000D02*
X68038000Y-66896000D01*
X67438000Y-69596000D02*
X67538000Y-70796000D01*
X67538000Y-70796000D02*
X67838000Y-72096000D01*
D16*
%TO.C,U5*%
X76582000Y-55848000D02*
X76232000Y-55848000D01*
X80232000Y-52198000D02*
X80232000Y-51848000D01*
X76582000Y-51848000D02*
X76232000Y-52198000D01*
X80232000Y-55498000D02*
X80232000Y-55848000D01*
X80232000Y-51848000D02*
X79882000Y-51848000D01*
X79882000Y-55848000D02*
X80232000Y-55848000D01*
X76232000Y-55848000D02*
X76232000Y-55498000D01*
X76276200Y-51765200D02*
G75*
G03*
X76276200Y-51765200I-127000J0D01*
G01*
D14*
%TO.C,R14*%
X78124000Y-58547000D02*
X77324000Y-58547000D01*
D15*
%TO.C,U1*%
X96227900Y-62313560D02*
X96227900Y-61903800D01*
X88963500Y-61903800D02*
X88963500Y-62313560D01*
X95818140Y-69168200D02*
X96227900Y-69168200D01*
X88963500Y-68758440D02*
X88963500Y-69168200D01*
X96227900Y-69168200D02*
X96227900Y-68758440D01*
X96227900Y-61903800D02*
X95818140Y-61903800D01*
X89373260Y-61903800D02*
X88963500Y-61903800D01*
X88963500Y-69168200D02*
X89373260Y-69168200D01*
D12*
X93155201Y-70641400D02*
X93155201Y-70895400D01*
X93155201Y-70895400D02*
X93536201Y-70895400D01*
X93536201Y-70895400D02*
X93536201Y-70641400D01*
X93536201Y-70641400D02*
X93155201Y-70641400D01*
G36*
X93536201Y-70895400D02*
G01*
X93155201Y-70895400D01*
X93155201Y-70641400D01*
X93536201Y-70641400D01*
X93536201Y-70895400D01*
G37*
X93536201Y-70895400D02*
X93155201Y-70895400D01*
X93155201Y-70641400D01*
X93536201Y-70641400D01*
X93536201Y-70895400D01*
X87236300Y-67095499D02*
X87236300Y-67476499D01*
X87236300Y-67476499D02*
X87490300Y-67476499D01*
X87490300Y-67476499D02*
X87490300Y-67095499D01*
X87490300Y-67095499D02*
X87236300Y-67095499D01*
G36*
X87490300Y-67476499D02*
G01*
X87236300Y-67476499D01*
X87236300Y-67095499D01*
X87490300Y-67095499D01*
X87490300Y-67476499D01*
G37*
X87490300Y-67476499D02*
X87236300Y-67476499D01*
X87236300Y-67095499D01*
X87490300Y-67095499D01*
X87490300Y-67476499D01*
X97955100Y-65595499D02*
X97955100Y-65976500D01*
X97955100Y-65976500D02*
X97701100Y-65976500D01*
X97701100Y-65976500D02*
X97701100Y-65595499D01*
X97701100Y-65595499D02*
X97955100Y-65595499D01*
G36*
X97955100Y-65976500D02*
G01*
X97701100Y-65976500D01*
X97701100Y-65595499D01*
X97955100Y-65595499D01*
X97955100Y-65976500D01*
G37*
X97955100Y-65976500D02*
X97701100Y-65976500D01*
X97701100Y-65595499D01*
X97955100Y-65595499D01*
X97955100Y-65976500D01*
X93655200Y-60430600D02*
X93655200Y-60176600D01*
X93655200Y-60176600D02*
X94036200Y-60176600D01*
X94036200Y-60176600D02*
X94036200Y-60430600D01*
X94036200Y-60430600D02*
X93655200Y-60430600D01*
G36*
X94036200Y-60430600D02*
G01*
X93655200Y-60430600D01*
X93655200Y-60176600D01*
X94036200Y-60176600D01*
X94036200Y-60430600D01*
G37*
X94036200Y-60430600D02*
X93655200Y-60430600D01*
X93655200Y-60176600D01*
X94036200Y-60176600D01*
X94036200Y-60430600D01*
%TO.C,L1*%
G36*
X82232500Y-47103500D02*
G01*
X81343500Y-47103500D01*
X81343500Y-46913000D01*
X82232500Y-46913000D01*
X82232500Y-47103500D01*
G37*
G36*
X82321400Y-47574200D02*
G01*
X81254600Y-47574200D01*
X81788000Y-46863000D01*
X82321400Y-47574200D01*
G37*
D14*
%TO.C,R3*%
X102470000Y-56007000D02*
X103270000Y-56007000D01*
D16*
%TO.C,U3*%
X87307900Y-54230000D02*
X88907900Y-54230000D01*
X87057900Y-56280000D02*
X87057900Y-55480000D01*
X87307900Y-57530000D02*
X88907900Y-57530000D01*
D15*
%TO.C,U4*%
X72697718Y-57574000D02*
X72082282Y-57574000D01*
X72697718Y-54707000D02*
X72082282Y-54707000D01*
X72135711Y-57109000D02*
G75*
G03*
X72135711Y-57109000I-70711J0D01*
G01*
D14*
%TO.C,C6*%
X73298000Y-59690000D02*
X72498000Y-59690000D01*
D15*
%TO.C,SW1*%
X68239899Y-49784000D02*
G75*
G03*
X68239899Y-49784000I-381000J0D01*
G01*
%TD*%
M02*
