%TF.GenerationSoftware,KiCad,Pcbnew,(6.0.1)*%
%TF.CreationDate,2022-01-27T18:06:15-06:00*%
%TF.ProjectId,dropkick,64726f70-6b69-4636-9b2e-6b696361645f,rev?*%
%TF.SameCoordinates,Original*%
%TF.FileFunction,Paste,Top*%
%TF.FilePolarity,Positive*%
%FSLAX46Y46*%
G04 Gerber Fmt 4.6, Leading zero omitted, Abs format (unit mm)*
G04 Created by KiCad (PCBNEW (6.0.1)) date 2022-01-27 18:06:15*
%MOMM*%
%LPD*%
G01*
G04 APERTURE LIST*
G04 Aperture macros list*
%AMRoundRect*
0 Rectangle with rounded corners*
0 $1 Rounding radius*
0 $2 $3 $4 $5 $6 $7 $8 $9 X,Y pos of 4 corners*
0 Add a 4 corners polygon primitive as box body*
4,1,4,$2,$3,$4,$5,$6,$7,$8,$9,$2,$3,0*
0 Add four circle primitives for the rounded corners*
1,1,$1+$1,$2,$3*
1,1,$1+$1,$4,$5*
1,1,$1+$1,$6,$7*
1,1,$1+$1,$8,$9*
0 Add four rect primitives between the rounded corners*
20,1,$1+$1,$2,$3,$4,$5,0*
20,1,$1+$1,$4,$5,$6,$7,0*
20,1,$1+$1,$6,$7,$8,$9,0*
20,1,$1+$1,$8,$9,$2,$3,0*%
G04 Aperture macros list end*
%ADD10C,0.100000*%
%ADD11C,0.180000*%
%ADD12R,1.100000X1.000000*%
%ADD13R,1.200000X1.200000*%
%ADD14R,1.000000X1.100000*%
%ADD15R,0.508000X0.889000*%
%ADD16R,1.300000X1.500000*%
%ADD17RoundRect,0.200000X-0.275000X0.200000X-0.275000X-0.200000X0.275000X-0.200000X0.275000X0.200000X0*%
%ADD18RoundRect,0.200000X0.275000X-0.200000X0.275000X0.200000X-0.275000X0.200000X-0.275000X-0.200000X0*%
%ADD19R,1.500000X1.300000*%
%ADD20R,1.500000X0.700000*%
%ADD21R,1.500000X1.000000*%
%ADD22R,0.700000X1.500000*%
%ADD23R,1.900000X1.100000*%
%ADD24R,1.200000X0.550000*%
%ADD25R,1.000000X2.000000*%
%ADD26R,0.400000X1.350000*%
%ADD27R,2.200000X1.050000*%
%ADD28R,1.000000X1.000000*%
%ADD29R,0.800000X0.800000*%
%ADD30RoundRect,0.200000X0.200000X0.275000X-0.200000X0.275000X-0.200000X-0.275000X0.200000X-0.275000X0*%
%ADD31R,1.400000X1.400000*%
%ADD32R,2.600000X4.000000*%
%ADD33RoundRect,0.070000X0.070000X-0.330000X0.070000X0.330000X-0.070000X0.330000X-0.070000X-0.330000X0*%
%ADD34RoundRect,0.070000X-0.330000X-0.070000X0.330000X-0.070000X0.330000X0.070000X-0.330000X0.070000X0*%
%ADD35RoundRect,0.070000X-0.070000X0.330000X-0.070000X-0.330000X0.070000X-0.330000X0.070000X0.330000X0*%
%ADD36RoundRect,0.070000X0.330000X0.070000X-0.330000X0.070000X-0.330000X-0.070000X0.330000X-0.070000X0*%
%ADD37R,1.346200X0.279400*%
%ADD38R,0.279400X1.346200*%
%ADD39R,0.350000X0.350000*%
G04 APERTURE END LIST*
%TO.C,X1*%
G36*
X94936535Y-49171879D02*
G01*
X95076788Y-49270123D01*
X95184089Y-49398046D01*
X95254624Y-49549383D01*
X95284831Y-49720875D01*
X95186834Y-50031882D01*
X95076788Y-50163077D01*
X94940033Y-50258871D01*
X94783147Y-50316005D01*
X94622378Y-50330100D01*
X93516822Y-50330100D01*
X93356053Y-50316005D01*
X93199167Y-50258871D01*
X93062412Y-50163077D01*
X92955111Y-50035154D01*
X92884576Y-49883817D01*
X92855122Y-49716600D01*
X92884576Y-49549383D01*
X92955111Y-49398046D01*
X93062412Y-49270123D01*
X93199167Y-49174329D01*
X93356053Y-49117195D01*
X93516822Y-49103100D01*
X94626560Y-49103100D01*
X94936535Y-49171879D01*
G37*
G36*
X87819600Y-48166600D02*
G01*
X85319600Y-48166600D01*
X85319600Y-45666600D01*
X87819600Y-45666600D01*
X87819600Y-48166600D01*
G37*
G36*
X95019600Y-48166600D02*
G01*
X92519600Y-48166600D01*
X92519600Y-45666600D01*
X95019600Y-45666600D01*
X95019600Y-48166600D01*
G37*
G36*
X87136535Y-49171879D02*
G01*
X87276788Y-49270123D01*
X87384089Y-49398046D01*
X87454624Y-49549383D01*
X87484831Y-49720875D01*
X87386834Y-50031882D01*
X87276788Y-50163077D01*
X87140033Y-50258871D01*
X86983147Y-50316005D01*
X86822378Y-50330100D01*
X85716822Y-50330100D01*
X85556053Y-50316005D01*
X85399167Y-50258871D01*
X85262412Y-50163077D01*
X85155111Y-50035154D01*
X85084576Y-49883817D01*
X85055122Y-49716600D01*
X85084576Y-49549383D01*
X85155111Y-49398046D01*
X85262412Y-49270123D01*
X85399167Y-49174329D01*
X85556053Y-49117195D01*
X85716822Y-49103100D01*
X86826560Y-49103100D01*
X87136535Y-49171879D01*
G37*
%TO.C,U5*%
G36*
X77350000Y-57350000D02*
G01*
X76750000Y-57350000D01*
X76750000Y-56750000D01*
X77350000Y-56750000D01*
X77350000Y-57350000D01*
G37*
G36*
X78250000Y-55550000D02*
G01*
X77650000Y-55550000D01*
X77650000Y-54950000D01*
X78250000Y-54950000D01*
X78250000Y-55550000D01*
G37*
G36*
X76450000Y-57350000D02*
G01*
X75850000Y-57350000D01*
X75850000Y-56750000D01*
X76450000Y-56750000D01*
X76450000Y-57350000D01*
G37*
G36*
X78250000Y-57350000D02*
G01*
X77650000Y-57350000D01*
X77650000Y-56750000D01*
X78250000Y-56750000D01*
X78250000Y-57350000D01*
G37*
G36*
X78250000Y-56450000D02*
G01*
X77650000Y-56450000D01*
X77650000Y-55850000D01*
X78250000Y-55850000D01*
X78250000Y-56450000D01*
G37*
G36*
X76450000Y-56450000D02*
G01*
X75850000Y-56450000D01*
X75850000Y-55850000D01*
X76450000Y-55850000D01*
X76450000Y-56450000D01*
G37*
G36*
X76450000Y-55550000D02*
G01*
X75850000Y-55550000D01*
X75850000Y-54950000D01*
X76450000Y-54950000D01*
X76450000Y-55550000D01*
G37*
G36*
X77350000Y-56450000D02*
G01*
X76750000Y-56450000D01*
X76750000Y-55850000D01*
X77350000Y-55850000D01*
X77350000Y-56450000D01*
G37*
G36*
X77350000Y-55550000D02*
G01*
X76750000Y-55550000D01*
X76750000Y-54950000D01*
X77350000Y-54950000D01*
X77350000Y-55550000D01*
G37*
D10*
%TO.C,U1*%
X89947400Y-64897400D02*
X89947400Y-66450000D01*
X89947400Y-66450000D02*
X91500000Y-66450000D01*
X91500000Y-66450000D02*
X91500000Y-64897400D01*
X91500000Y-64897400D02*
X89947400Y-64897400D01*
G36*
X91500000Y-66450000D02*
G01*
X89947400Y-66450000D01*
X89947400Y-64897400D01*
X91500000Y-64897400D01*
X91500000Y-66450000D01*
G37*
X91500000Y-66450000D02*
X89947400Y-66450000D01*
X89947400Y-64897400D01*
X91500000Y-64897400D01*
X91500000Y-66450000D01*
X91700000Y-66650000D02*
X91700000Y-68202600D01*
X91700000Y-68202600D02*
X93252600Y-68202600D01*
X93252600Y-68202600D02*
X93252600Y-66650000D01*
X93252600Y-66650000D02*
X91700000Y-66650000D01*
G36*
X93252600Y-68202600D02*
G01*
X91700000Y-68202600D01*
X91700000Y-66650000D01*
X93252600Y-66650000D01*
X93252600Y-68202600D01*
G37*
X93252600Y-68202600D02*
X91700000Y-68202600D01*
X91700000Y-66650000D01*
X93252600Y-66650000D01*
X93252600Y-68202600D01*
X89947400Y-66650000D02*
X89947400Y-68202600D01*
X89947400Y-68202600D02*
X91500000Y-68202600D01*
X91500000Y-68202600D02*
X91500000Y-66650000D01*
X91500000Y-66650000D02*
X89947400Y-66650000D01*
G36*
X91500000Y-68202600D02*
G01*
X89947400Y-68202600D01*
X89947400Y-66650000D01*
X91500000Y-66650000D01*
X91500000Y-68202600D01*
G37*
X91500000Y-68202600D02*
X89947400Y-68202600D01*
X89947400Y-66650000D01*
X91500000Y-66650000D01*
X91500000Y-68202600D01*
X91700000Y-64897400D02*
X91700000Y-66450000D01*
X91700000Y-66450000D02*
X93252600Y-66450000D01*
X93252600Y-66450000D02*
X93252600Y-64897400D01*
X93252600Y-64897400D02*
X91700000Y-64897400D01*
G36*
X93252600Y-66450000D02*
G01*
X91700000Y-66450000D01*
X91700000Y-64897400D01*
X93252600Y-64897400D01*
X93252600Y-66450000D01*
G37*
X93252600Y-66450000D02*
X91700000Y-66450000D01*
X91700000Y-64897400D01*
X93252600Y-64897400D01*
X93252600Y-66450000D01*
%TO.C,U4*%
D11*
X102015000Y-63975001D02*
G75*
G03*
X102015000Y-63975001I-90000J0D01*
G01*
X100565000Y-65275001D02*
G75*
G03*
X100565000Y-65275001I-90000J0D01*
G01*
X100565000Y-64624999D02*
G75*
G03*
X100565000Y-64624999I-90000J0D01*
G01*
X102015000Y-65924999D02*
G75*
G03*
X102015000Y-65924999I-90000J0D01*
G01*
X100565000Y-65924999D02*
G75*
G03*
X100565000Y-65924999I-90000J0D01*
G01*
X102015000Y-64624999D02*
G75*
G03*
X102015000Y-64624999I-90000J0D01*
G01*
X100565000Y-63975001D02*
G75*
G03*
X100565000Y-63975001I-90000J0D01*
G01*
X102015000Y-65275001D02*
G75*
G03*
X102015000Y-65275001I-90000J0D01*
G01*
%TD*%
D12*
%TO.C,C12*%
X72303000Y-56850000D03*
X70603000Y-56850000D03*
%TD*%
D13*
%TO.C,CHG1*%
X83820000Y-46160000D03*
X83820000Y-48260000D03*
%TD*%
D14*
%TO.C,R2*%
X85110300Y-70434000D03*
X85110300Y-72134000D03*
%TD*%
D15*
%TO.C,SW2*%
X96481999Y-54627998D03*
X98082001Y-54627998D03*
X98082001Y-50528002D03*
X96481999Y-50528002D03*
%TD*%
D16*
%TO.C,C2*%
X99050000Y-72050000D03*
X100950000Y-72050000D03*
%TD*%
D12*
%TO.C,C7*%
X81956300Y-62198000D03*
X80256300Y-62198000D03*
%TD*%
D17*
%TO.C,R11*%
X100450000Y-60825000D03*
X100450000Y-62475000D03*
%TD*%
D14*
%TO.C,C10*%
X91186000Y-58000000D03*
X91186000Y-56300000D03*
%TD*%
D12*
%TO.C,C8*%
X81956300Y-63722000D03*
X80256300Y-63722000D03*
%TD*%
D13*
%TO.C,L2*%
X97282000Y-48548000D03*
X97282000Y-46448000D03*
%TD*%
D18*
%TO.C,R12*%
X103150000Y-69525000D03*
X103150000Y-67875000D03*
%TD*%
D12*
%TO.C,R7*%
X88050000Y-58547000D03*
X89750000Y-58547000D03*
%TD*%
D19*
%TO.C,C4*%
X102600000Y-61950000D03*
X102600000Y-60050000D03*
%TD*%
D20*
%TO.C,U2*%
X82300000Y-81700000D03*
X82300000Y-82700000D03*
X82300000Y-83700000D03*
X82300000Y-84700001D03*
X82300000Y-85700000D03*
X82300000Y-86700000D03*
X82300000Y-87700000D03*
X82300000Y-88700001D03*
X82300000Y-89700001D03*
X82300000Y-90699999D03*
X82300000Y-91700000D03*
X82300000Y-92700000D03*
D21*
X82300000Y-93850000D03*
X91100000Y-93800000D03*
D20*
X91100000Y-92700000D03*
X91100000Y-91700000D03*
X91100000Y-90699999D03*
X91100000Y-89700001D03*
X91100000Y-88700001D03*
X91100000Y-87700000D03*
X91100000Y-86699999D03*
X91100000Y-85699999D03*
X91100000Y-84700000D03*
X91100000Y-83700000D03*
X91100000Y-82700000D03*
X91100000Y-81700000D03*
D22*
X88700000Y-81300000D03*
X87700000Y-81300000D03*
X86700000Y-81300000D03*
X85700000Y-81300000D03*
X84699999Y-81300000D03*
%TD*%
D14*
%TO.C,R8*%
X99568000Y-49110000D03*
X99568000Y-47410000D03*
%TD*%
D12*
%TO.C,C5*%
X90200000Y-73450000D03*
X91900000Y-73450000D03*
%TD*%
D14*
%TO.C,R1*%
X83586300Y-72134000D03*
X83586300Y-70434000D03*
%TD*%
D23*
%TO.C,X5*%
X84154300Y-62014000D03*
X84154300Y-64414000D03*
%TD*%
D14*
%TO.C,R10*%
X73450000Y-49600000D03*
X73450000Y-47900000D03*
%TD*%
D24*
%TO.C,U6*%
X100614100Y-58350000D03*
X100614100Y-57400000D03*
X100614100Y-56450000D03*
X98013900Y-56450000D03*
X98013900Y-58350000D03*
%TD*%
D19*
%TO.C,C3*%
X94488000Y-54605000D03*
X94488000Y-52705000D03*
%TD*%
D25*
%TO.C,X1*%
X90919600Y-46816600D03*
X89419600Y-46816600D03*
D26*
X90169600Y-49591600D03*
X90819600Y-49591600D03*
X88869600Y-49591600D03*
X89519600Y-49591600D03*
X91469600Y-49591600D03*
%TD*%
D27*
%TO.C,X4*%
X98700000Y-91575000D03*
X98700000Y-88625000D03*
D28*
X97200000Y-90100000D03*
%TD*%
D12*
%TO.C,C13*%
X78093200Y-49631600D03*
X79793200Y-49631600D03*
%TD*%
D16*
%TO.C,C9*%
X88072000Y-52451000D03*
X86172000Y-52451000D03*
%TD*%
D29*
%TO.C,D2*%
X73450000Y-45700000D03*
X74950000Y-45700000D03*
%TD*%
D14*
%TO.C,R6*%
X84300000Y-54200000D03*
X84300000Y-52500000D03*
%TD*%
D30*
%TO.C,R5*%
X95125000Y-90100000D03*
X93475000Y-90100000D03*
%TD*%
D12*
%TO.C,C1*%
X83404300Y-66564000D03*
X81704300Y-66564000D03*
%TD*%
D31*
%TO.C,D1*%
X105650000Y-51500000D03*
X101950000Y-51500000D03*
%TD*%
D14*
%TO.C,R9*%
X79756000Y-46355000D03*
X79756000Y-48055000D03*
%TD*%
D16*
%TO.C,C11*%
X79550000Y-89900000D03*
X77650000Y-89900000D03*
%TD*%
D32*
%TO.C,B1*%
X73700000Y-78910000D03*
X73730000Y-62730000D03*
%TD*%
D33*
%TO.C,U5*%
X78300000Y-54150000D03*
X77800000Y-54150000D03*
X77300000Y-54150000D03*
X76800000Y-54150000D03*
X76300000Y-54150000D03*
X75800000Y-54150000D03*
D34*
X75050000Y-54900000D03*
X75050000Y-55400000D03*
X75050000Y-55900000D03*
X75050000Y-56400000D03*
X75050000Y-56900000D03*
X75050000Y-57400000D03*
D35*
X75800000Y-58150000D03*
X76300000Y-58150000D03*
X76800000Y-58150000D03*
X77300000Y-58150000D03*
X77800000Y-58150000D03*
X78300000Y-58150000D03*
D36*
X79050000Y-57400000D03*
X79050000Y-56900000D03*
X79050000Y-56400000D03*
X79050000Y-55900000D03*
X79050000Y-55400000D03*
X79050000Y-54900000D03*
%TD*%
D12*
%TO.C,R14*%
X72303000Y-55274000D03*
X70603000Y-55274000D03*
%TD*%
D30*
%TO.C,R4*%
X95125000Y-91800000D03*
X93475000Y-91800000D03*
%TD*%
D37*
%TO.C,U1*%
X87421700Y-63800000D03*
X87421700Y-64299999D03*
X87421700Y-64800001D03*
X87421700Y-65300000D03*
X87421700Y-65799999D03*
X87421700Y-66300000D03*
X87421700Y-66800000D03*
X87421700Y-67300001D03*
X87421700Y-67800000D03*
X87421700Y-68299999D03*
X87421700Y-68800001D03*
X87421700Y-69300000D03*
D38*
X88850000Y-70728300D03*
X89349999Y-70728300D03*
X89850001Y-70728300D03*
X90350000Y-70728300D03*
X90849999Y-70728300D03*
X91350000Y-70728300D03*
X91850000Y-70728300D03*
X92350001Y-70728300D03*
X92850000Y-70728300D03*
X93349999Y-70728300D03*
X93850001Y-70728300D03*
X94350000Y-70728300D03*
D37*
X95778300Y-69300000D03*
X95778300Y-68800001D03*
X95778300Y-68299999D03*
X95778300Y-67800000D03*
X95778300Y-67300001D03*
X95778300Y-66800000D03*
X95778300Y-66300000D03*
X95778300Y-65799999D03*
X95778300Y-65300000D03*
X95778300Y-64800001D03*
X95778300Y-64299999D03*
X95778300Y-63800000D03*
D38*
X94350000Y-62371700D03*
X93850001Y-62371700D03*
X93349999Y-62371700D03*
X92850000Y-62371700D03*
X92350001Y-62371700D03*
X91850000Y-62371700D03*
X91350000Y-62371700D03*
X90849999Y-62371700D03*
X90350000Y-62371700D03*
X89850001Y-62371700D03*
X89349999Y-62371700D03*
X88850000Y-62371700D03*
%TD*%
D13*
%TO.C,L1*%
X81788000Y-48294000D03*
X81788000Y-46194000D03*
%TD*%
D14*
%TO.C,R3*%
X103200000Y-58150000D03*
X103200000Y-56450000D03*
%TD*%
D12*
%TO.C,SJ4*%
X72250000Y-58450000D03*
X70550000Y-58450000D03*
%TD*%
D24*
%TO.C,U3*%
X89408000Y-56830000D03*
X89408000Y-55880000D03*
X89408000Y-54930000D03*
X86807800Y-54930000D03*
X86807800Y-56830000D03*
%TD*%
D39*
%TO.C,U4*%
X100475000Y-65924999D03*
X100475000Y-65275001D03*
X100475000Y-64624999D03*
X100475000Y-63975001D03*
X101925000Y-63975001D03*
X101925000Y-64624999D03*
X101925000Y-65275001D03*
X101925000Y-65924999D03*
%TD*%
D14*
%TO.C,C6*%
X100350000Y-69650000D03*
X100350000Y-67950000D03*
%TD*%
M02*
