M48
; DRILL file {KiCad (6.0.0-0)} date Saturday, January 15, 2022 at 07:35:54 PM
; FORMAT={-:-/ absolute / inch / decimal}
; #@! TF.CreationDate,2022-01-15T19:35:54-06:00
; #@! TF.GenerationSoftware,Kicad,Pcbnew,(6.0.0-0)
; #@! TF.FileFunction,MixedPlating,1,2
FMAT,2
INCH
; #@! TA.AperFunction,Plated,PTH,ViaDrill
T1C0.0157
; #@! TA.AperFunction,Plated,PTH,ComponentDrill
T2C0.0315
; #@! TA.AperFunction,Plated,PTH,ComponentDrill
T3C0.0350
; #@! TA.AperFunction,Plated,PTH,ComponentDrill
T4C0.0354
; #@! TA.AperFunction,Plated,PTH,ComponentDrill
T5C0.0394
; #@! TA.AperFunction,Plated,PTH,ComponentDrill
T6C0.0984
; #@! TA.AperFunction,NonPlated,NPTH,ComponentDrill
T7C0.0276
; #@! TA.AperFunction,NonPlated,NPTH,ComponentDrill
T8C0.0591
%
G90
G05
T1
X2.5255Y-3.447
X2.7449Y-2.925
X2.7586Y-2.1164
X2.8478Y-2.9289
X2.8478Y-3.3787
X2.8638Y-2.8171
X2.8961Y-2.9705
X2.904Y-2.1042
X2.9438Y-2.8218
X2.96Y-3.5398
X3.0026Y-1.9557
X3.0126Y-2.2337
X3.0163Y-2.2759
X3.0265Y-3.428
X3.1587Y-2.2264
X3.2347Y-2.0604
X3.2544Y-2.1175
X3.2867Y-2.7291
X3.3303Y-2.5113
X3.3582Y-2.0082
X3.37Y-3.5061
X3.3787Y-2.3104
X3.4411Y-2.3882
X3.4525Y-2.762
X3.4715Y-2.4135
X3.4891Y-2.8218
X3.516Y-2.0154
X3.545Y-2.8814
X3.5495Y-2.6914
X3.5515Y-2.5822
X3.5677Y-2.1706
X3.5813Y-2.4668
X3.5955Y-2.8336
X3.6072Y-2.1714
X3.6079Y-2.3655
X3.6214Y-2.4767
X3.6303Y-2.0601
X3.6463Y-2.8824
X3.675Y-2.8466
X3.6809Y-2.959
X3.7194Y-2.6923
X3.7388Y-2.915
X3.7489Y-2.52
X3.7674Y-2.8164
X3.7832Y-2.0889
X3.8742Y-2.423
X3.8877Y-2.5022
X3.9216Y-2.4022
X3.9216Y-2.5623
X3.9403Y-2.4736
X3.9593Y-2.7292
X3.9972Y-1.9175
X4.0075Y-2.5442
X4.225Y-2.5961
T2
X3.4201Y-1.9573
X3.6799Y-1.9573
T3
X2.7951Y-1.7986
X3.0411Y-1.7986
T5
X2.6Y-2.0
X2.6Y-2.1
X2.6Y-2.2
X2.6Y-2.3
X2.6Y-2.4
X2.6Y-2.5
X2.6Y-2.6
X2.6Y-2.7
X2.6Y-2.8
X2.6Y-2.9
X2.6Y-3.0
X2.6Y-3.1
X2.6Y-3.2
X2.6Y-3.3
X2.6Y-3.4
X2.6Y-3.5
X4.15Y-2.15
X4.15Y-2.25
X4.15Y-2.35
X4.15Y-2.45
X4.15Y-2.55
X4.15Y-2.65
X4.15Y-2.75
X4.15Y-2.85
X4.15Y-2.95
X4.15Y-3.05
X4.15Y-3.15
X4.15Y-3.25
T6
X2.6Y-1.85
X2.6Y-3.65
X4.15Y-1.85
X4.15Y-3.65
T7
X3.4732Y-1.9219
X3.6268Y-1.9219
T8
X2.97Y-2.6022
X2.97Y-2.8975
T4
G00X3.4083Y-1.8392
M15
G01X3.4083Y-1.855
M16
G05
G00X3.6917Y-1.8392
M15
G01X3.6917Y-1.855
M16
G05
T0
M30
