%TF.GenerationSoftware,KiCad,Pcbnew,(6.0.1)*%
%TF.CreationDate,2022-01-27T18:06:15-06:00*%
%TF.ProjectId,dropkick,64726f70-6b69-4636-9b2e-6b696361645f,rev?*%
%TF.SameCoordinates,Original*%
%TF.FileFunction,Legend,Bot*%
%TF.FilePolarity,Positive*%
%FSLAX46Y46*%
G04 Gerber Fmt 4.6, Leading zero omitted, Abs format (unit mm)*
G04 Created by KiCad (PCBNEW (6.0.1)) date 2022-01-27 18:06:15*
%MOMM*%
%LPD*%
G01*
G04 APERTURE LIST*
%ADD10C,0.150000*%
%ADD11C,0.250000*%
%ADD12C,0.146304*%
%ADD13C,0.127000*%
%ADD14C,0.203200*%
%ADD15C,0.120000*%
%ADD16C,0.100000*%
%ADD17C,0.310000*%
%ADD18C,0.010000*%
G04 APERTURE END LIST*
D10*
X104342857Y-60352380D02*
X104009523Y-61352380D01*
X103676190Y-60352380D01*
X103009523Y-60828571D02*
X102866666Y-60876190D01*
X102819047Y-60923809D01*
X102771428Y-61019047D01*
X102771428Y-61161904D01*
X102819047Y-61257142D01*
X102866666Y-61304761D01*
X102961904Y-61352380D01*
X103342857Y-61352380D01*
X103342857Y-60352380D01*
X103009523Y-60352380D01*
X102914285Y-60400000D01*
X102866666Y-60447619D01*
X102819047Y-60542857D01*
X102819047Y-60638095D01*
X102866666Y-60733333D01*
X102914285Y-60780952D01*
X103009523Y-60828571D01*
X103342857Y-60828571D01*
X102390476Y-61066666D02*
X101914285Y-61066666D01*
X102485714Y-61352380D02*
X102152380Y-60352380D01*
X101819047Y-61352380D01*
X101628571Y-60352380D02*
X101057142Y-60352380D01*
X101342857Y-61352380D02*
X101342857Y-60352380D01*
D11*
X102251785Y-84144857D02*
X102251785Y-82944857D01*
X101966071Y-82944857D01*
X101794642Y-83002000D01*
X101680357Y-83116285D01*
X101623214Y-83230571D01*
X101566071Y-83459142D01*
X101566071Y-83630571D01*
X101623214Y-83859142D01*
X101680357Y-83973428D01*
X101794642Y-84087714D01*
X101966071Y-84144857D01*
X102251785Y-84144857D01*
X101051785Y-84144857D02*
X101051785Y-83344857D01*
X101051785Y-83573428D02*
X100994642Y-83459142D01*
X100937500Y-83402000D01*
X100823214Y-83344857D01*
X100708928Y-83344857D01*
X100137500Y-84144857D02*
X100251785Y-84087714D01*
X100308928Y-84030571D01*
X100366071Y-83916285D01*
X100366071Y-83573428D01*
X100308928Y-83459142D01*
X100251785Y-83402000D01*
X100137500Y-83344857D01*
X99966071Y-83344857D01*
X99851785Y-83402000D01*
X99794642Y-83459142D01*
X99737500Y-83573428D01*
X99737500Y-83916285D01*
X99794642Y-84030571D01*
X99851785Y-84087714D01*
X99966071Y-84144857D01*
X100137500Y-84144857D01*
X99223214Y-83344857D02*
X99223214Y-84544857D01*
X99223214Y-83402000D02*
X99108928Y-83344857D01*
X98880357Y-83344857D01*
X98766071Y-83402000D01*
X98708928Y-83459142D01*
X98651785Y-83573428D01*
X98651785Y-83916285D01*
X98708928Y-84030571D01*
X98766071Y-84087714D01*
X98880357Y-84144857D01*
X99108928Y-84144857D01*
X99223214Y-84087714D01*
X98137500Y-84144857D02*
X98137500Y-82944857D01*
X98023214Y-83687714D02*
X97680357Y-84144857D01*
X97680357Y-83344857D02*
X98137500Y-83802000D01*
X97166071Y-84144857D02*
X97166071Y-83344857D01*
X97166071Y-82944857D02*
X97223214Y-83002000D01*
X97166071Y-83059142D01*
X97108928Y-83002000D01*
X97166071Y-82944857D01*
X97166071Y-83059142D01*
X96080357Y-84087714D02*
X96194642Y-84144857D01*
X96423214Y-84144857D01*
X96537500Y-84087714D01*
X96594642Y-84030571D01*
X96651785Y-83916285D01*
X96651785Y-83573428D01*
X96594642Y-83459142D01*
X96537500Y-83402000D01*
X96423214Y-83344857D01*
X96194642Y-83344857D01*
X96080357Y-83402000D01*
X95566071Y-84144857D02*
X95566071Y-82944857D01*
X95451785Y-83687714D02*
X95108928Y-84144857D01*
X95108928Y-83344857D02*
X95566071Y-83802000D01*
X93851785Y-82944857D02*
X93451785Y-84144857D01*
X93051785Y-82944857D01*
X92766071Y-82944857D02*
X92023214Y-82944857D01*
X92423214Y-83402000D01*
X92251785Y-83402000D01*
X92137500Y-83459142D01*
X92080357Y-83516285D01*
X92023214Y-83630571D01*
X92023214Y-83916285D01*
X92080357Y-84030571D01*
X92137500Y-84087714D01*
X92251785Y-84144857D01*
X92594642Y-84144857D01*
X92708928Y-84087714D01*
X92766071Y-84030571D01*
X101566071Y-87894571D02*
X101623214Y-87951714D01*
X101794642Y-88008857D01*
X101908928Y-88008857D01*
X102080357Y-87951714D01*
X102194642Y-87837428D01*
X102251785Y-87723142D01*
X102308928Y-87494571D01*
X102308928Y-87323142D01*
X102251785Y-87094571D01*
X102194642Y-86980285D01*
X102080357Y-86866000D01*
X101908928Y-86808857D01*
X101794642Y-86808857D01*
X101623214Y-86866000D01*
X101566071Y-86923142D01*
X100880357Y-88008857D02*
X100994642Y-87951714D01*
X101051785Y-87894571D01*
X101108928Y-87780285D01*
X101108928Y-87437428D01*
X101051785Y-87323142D01*
X100994642Y-87266000D01*
X100880357Y-87208857D01*
X100708928Y-87208857D01*
X100594642Y-87266000D01*
X100537500Y-87323142D01*
X100480357Y-87437428D01*
X100480357Y-87780285D01*
X100537500Y-87894571D01*
X100594642Y-87951714D01*
X100708928Y-88008857D01*
X100880357Y-88008857D01*
X99966071Y-87208857D02*
X99966071Y-88408857D01*
X99966071Y-87266000D02*
X99851785Y-87208857D01*
X99623214Y-87208857D01*
X99508928Y-87266000D01*
X99451785Y-87323142D01*
X99394642Y-87437428D01*
X99394642Y-87780285D01*
X99451785Y-87894571D01*
X99508928Y-87951714D01*
X99623214Y-88008857D01*
X99851785Y-88008857D01*
X99966071Y-87951714D01*
X98994642Y-87208857D02*
X98708928Y-88008857D01*
X98423214Y-87208857D02*
X98708928Y-88008857D01*
X98823214Y-88294571D01*
X98880357Y-88351714D01*
X98994642Y-88408857D01*
X97966071Y-88008857D02*
X97966071Y-87208857D01*
X97966071Y-87437428D02*
X97908928Y-87323142D01*
X97851785Y-87266000D01*
X97737500Y-87208857D01*
X97623214Y-87208857D01*
X97223214Y-88008857D02*
X97223214Y-87208857D01*
X97223214Y-86808857D02*
X97280357Y-86866000D01*
X97223214Y-86923142D01*
X97166071Y-86866000D01*
X97223214Y-86808857D01*
X97223214Y-86923142D01*
X96137500Y-87208857D02*
X96137500Y-88180285D01*
X96194642Y-88294571D01*
X96251785Y-88351714D01*
X96366071Y-88408857D01*
X96537500Y-88408857D01*
X96651785Y-88351714D01*
X96137500Y-87951714D02*
X96251785Y-88008857D01*
X96480357Y-88008857D01*
X96594642Y-87951714D01*
X96651785Y-87894571D01*
X96708928Y-87780285D01*
X96708928Y-87437428D01*
X96651785Y-87323142D01*
X96594642Y-87266000D01*
X96480357Y-87208857D01*
X96251785Y-87208857D01*
X96137500Y-87266000D01*
X95566071Y-88008857D02*
X95566071Y-86808857D01*
X95051785Y-88008857D02*
X95051785Y-87380285D01*
X95108928Y-87266000D01*
X95223214Y-87208857D01*
X95394642Y-87208857D01*
X95508928Y-87266000D01*
X95566071Y-87323142D01*
X94651785Y-87208857D02*
X94194642Y-87208857D01*
X94480357Y-86808857D02*
X94480357Y-87837428D01*
X94423214Y-87951714D01*
X94308928Y-88008857D01*
X94194642Y-88008857D01*
X92537500Y-88466000D02*
X92594642Y-88408857D01*
X92708928Y-88237428D01*
X92766071Y-88123142D01*
X92823214Y-87951714D01*
X92880357Y-87666000D01*
X92880357Y-87437428D01*
X92823214Y-87151714D01*
X92766071Y-86980285D01*
X92708928Y-86866000D01*
X92594642Y-86694571D01*
X92537500Y-86637428D01*
X91566071Y-87951714D02*
X91680357Y-88008857D01*
X91908928Y-88008857D01*
X92023214Y-87951714D01*
X92080357Y-87894571D01*
X92137500Y-87780285D01*
X92137500Y-87437428D01*
X92080357Y-87323142D01*
X92023214Y-87266000D01*
X91908928Y-87208857D01*
X91680357Y-87208857D01*
X91566071Y-87266000D01*
X91166071Y-88466000D02*
X91108928Y-88408857D01*
X90994642Y-88237428D01*
X90937500Y-88123142D01*
X90880357Y-87951714D01*
X90823214Y-87666000D01*
X90823214Y-87437428D01*
X90880357Y-87151714D01*
X90937500Y-86980285D01*
X90994642Y-86866000D01*
X91108928Y-86694571D01*
X91166071Y-86637428D01*
X89394642Y-86923142D02*
X89337500Y-86866000D01*
X89223214Y-86808857D01*
X88937500Y-86808857D01*
X88823214Y-86866000D01*
X88766071Y-86923142D01*
X88708928Y-87037428D01*
X88708928Y-87151714D01*
X88766071Y-87323142D01*
X89451785Y-88008857D01*
X88708928Y-88008857D01*
X87966071Y-86808857D02*
X87851785Y-86808857D01*
X87737500Y-86866000D01*
X87680357Y-86923142D01*
X87623214Y-87037428D01*
X87566071Y-87266000D01*
X87566071Y-87551714D01*
X87623214Y-87780285D01*
X87680357Y-87894571D01*
X87737500Y-87951714D01*
X87851785Y-88008857D01*
X87966071Y-88008857D01*
X88080357Y-87951714D01*
X88137500Y-87894571D01*
X88194642Y-87780285D01*
X88251785Y-87551714D01*
X88251785Y-87266000D01*
X88194642Y-87037428D01*
X88137500Y-86923142D01*
X88080357Y-86866000D01*
X87966071Y-86808857D01*
X87108928Y-86923142D02*
X87051785Y-86866000D01*
X86937500Y-86808857D01*
X86651785Y-86808857D01*
X86537500Y-86866000D01*
X86480357Y-86923142D01*
X86423214Y-87037428D01*
X86423214Y-87151714D01*
X86480357Y-87323142D01*
X87166071Y-88008857D01*
X86423214Y-88008857D01*
X85966071Y-86923142D02*
X85908928Y-86866000D01*
X85794642Y-86808857D01*
X85508928Y-86808857D01*
X85394642Y-86866000D01*
X85337500Y-86923142D01*
X85280357Y-87037428D01*
X85280357Y-87151714D01*
X85337500Y-87323142D01*
X86023214Y-88008857D01*
X85280357Y-88008857D01*
X83166071Y-88008857D02*
X83566071Y-87437428D01*
X83851785Y-88008857D02*
X83851785Y-86808857D01*
X83394642Y-86808857D01*
X83280357Y-86866000D01*
X83223214Y-86923142D01*
X83166071Y-87037428D01*
X83166071Y-87208857D01*
X83223214Y-87323142D01*
X83280357Y-87380285D01*
X83394642Y-87437428D01*
X83851785Y-87437428D01*
X82651785Y-88008857D02*
X82651785Y-87208857D01*
X82651785Y-86808857D02*
X82708928Y-86866000D01*
X82651785Y-86923142D01*
X82594642Y-86866000D01*
X82651785Y-86808857D01*
X82651785Y-86923142D01*
X81908928Y-88008857D02*
X82023214Y-87951714D01*
X82080357Y-87837428D01*
X82080357Y-86808857D01*
X80994642Y-87951714D02*
X81108928Y-88008857D01*
X81337500Y-88008857D01*
X81451785Y-87951714D01*
X81508928Y-87837428D01*
X81508928Y-87380285D01*
X81451785Y-87266000D01*
X81337500Y-87208857D01*
X81108928Y-87208857D01*
X80994642Y-87266000D01*
X80937500Y-87380285D01*
X80937500Y-87494571D01*
X81508928Y-87608857D01*
X80537500Y-87208857D02*
X80251785Y-88008857D01*
X79966071Y-87208857D02*
X80251785Y-88008857D01*
X80366071Y-88294571D01*
X80423214Y-88351714D01*
X80537500Y-88408857D01*
X77908928Y-88008857D02*
X78308928Y-87437428D01*
X78594642Y-88008857D02*
X78594642Y-86808857D01*
X78137500Y-86808857D01*
X78023214Y-86866000D01*
X77966071Y-86923142D01*
X77908928Y-87037428D01*
X77908928Y-87208857D01*
X77966071Y-87323142D01*
X78023214Y-87380285D01*
X78137500Y-87437428D01*
X78594642Y-87437428D01*
X76880357Y-88008857D02*
X76880357Y-87380285D01*
X76937500Y-87266000D01*
X77051785Y-87208857D01*
X77280357Y-87208857D01*
X77394642Y-87266000D01*
X76880357Y-87951714D02*
X76994642Y-88008857D01*
X77280357Y-88008857D01*
X77394642Y-87951714D01*
X77451785Y-87837428D01*
X77451785Y-87723142D01*
X77394642Y-87608857D01*
X77280357Y-87551714D01*
X76994642Y-87551714D01*
X76880357Y-87494571D01*
X76308928Y-88008857D02*
X76308928Y-87208857D01*
X76308928Y-86808857D02*
X76366071Y-86866000D01*
X76308928Y-86923142D01*
X76251785Y-86866000D01*
X76308928Y-86808857D01*
X76308928Y-86923142D01*
X75737500Y-87208857D02*
X75737500Y-88008857D01*
X75737500Y-87323142D02*
X75680357Y-87266000D01*
X75566071Y-87208857D01*
X75394642Y-87208857D01*
X75280357Y-87266000D01*
X75223214Y-87380285D01*
X75223214Y-88008857D01*
X74194642Y-87951714D02*
X74308928Y-88008857D01*
X74537500Y-88008857D01*
X74651785Y-87951714D01*
X74708928Y-87837428D01*
X74708928Y-87380285D01*
X74651785Y-87266000D01*
X74537500Y-87208857D01*
X74308928Y-87208857D01*
X74194642Y-87266000D01*
X74137500Y-87380285D01*
X74137500Y-87494571D01*
X74708928Y-87608857D01*
X73737500Y-87208857D02*
X73451785Y-88008857D01*
X73166071Y-87208857D02*
X73451785Y-88008857D01*
X73566071Y-88294571D01*
X73623214Y-88351714D01*
X73737500Y-88408857D01*
X102251785Y-89940857D02*
X102251785Y-88740857D01*
X101737500Y-89940857D02*
X101737500Y-89312285D01*
X101794642Y-89198000D01*
X101908928Y-89140857D01*
X102080357Y-89140857D01*
X102194642Y-89198000D01*
X102251785Y-89255142D01*
X101337500Y-89140857D02*
X100880357Y-89140857D01*
X101166071Y-88740857D02*
X101166071Y-89769428D01*
X101108928Y-89883714D01*
X100994642Y-89940857D01*
X100880357Y-89940857D01*
X100651785Y-89140857D02*
X100194642Y-89140857D01*
X100480357Y-88740857D02*
X100480357Y-89769428D01*
X100423214Y-89883714D01*
X100308928Y-89940857D01*
X100194642Y-89940857D01*
X99794642Y-89140857D02*
X99794642Y-90340857D01*
X99794642Y-89198000D02*
X99680357Y-89140857D01*
X99451785Y-89140857D01*
X99337500Y-89198000D01*
X99280357Y-89255142D01*
X99223214Y-89369428D01*
X99223214Y-89712285D01*
X99280357Y-89826571D01*
X99337500Y-89883714D01*
X99451785Y-89940857D01*
X99680357Y-89940857D01*
X99794642Y-89883714D01*
X98766071Y-89883714D02*
X98651785Y-89940857D01*
X98423214Y-89940857D01*
X98308928Y-89883714D01*
X98251785Y-89769428D01*
X98251785Y-89712285D01*
X98308928Y-89598000D01*
X98423214Y-89540857D01*
X98594642Y-89540857D01*
X98708928Y-89483714D01*
X98766071Y-89369428D01*
X98766071Y-89312285D01*
X98708928Y-89198000D01*
X98594642Y-89140857D01*
X98423214Y-89140857D01*
X98308928Y-89198000D01*
X97737500Y-89826571D02*
X97680357Y-89883714D01*
X97737500Y-89940857D01*
X97794642Y-89883714D01*
X97737500Y-89826571D01*
X97737500Y-89940857D01*
X97737500Y-89198000D02*
X97680357Y-89255142D01*
X97737500Y-89312285D01*
X97794642Y-89255142D01*
X97737500Y-89198000D01*
X97737500Y-89312285D01*
X96308928Y-88683714D02*
X97337500Y-90226571D01*
X95051785Y-88683714D02*
X96080357Y-90226571D01*
X94023214Y-88798000D02*
X94137500Y-88740857D01*
X94308928Y-88740857D01*
X94480357Y-88798000D01*
X94594642Y-88912285D01*
X94651785Y-89026571D01*
X94708928Y-89255142D01*
X94708928Y-89426571D01*
X94651785Y-89655142D01*
X94594642Y-89769428D01*
X94480357Y-89883714D01*
X94308928Y-89940857D01*
X94194642Y-89940857D01*
X94023214Y-89883714D01*
X93966071Y-89826571D01*
X93966071Y-89426571D01*
X94194642Y-89426571D01*
X93451785Y-89940857D02*
X93451785Y-89140857D01*
X93451785Y-88740857D02*
X93508928Y-88798000D01*
X93451785Y-88855142D01*
X93394642Y-88798000D01*
X93451785Y-88740857D01*
X93451785Y-88855142D01*
X93051785Y-89140857D02*
X92594642Y-89140857D01*
X92880357Y-88740857D02*
X92880357Y-89769428D01*
X92823214Y-89883714D01*
X92708928Y-89940857D01*
X92594642Y-89940857D01*
X92194642Y-89940857D02*
X92194642Y-88740857D01*
X92194642Y-89312285D02*
X91508928Y-89312285D01*
X91508928Y-89940857D02*
X91508928Y-88740857D01*
X90423214Y-89140857D02*
X90423214Y-89940857D01*
X90937500Y-89140857D02*
X90937500Y-89769428D01*
X90880357Y-89883714D01*
X90766071Y-89940857D01*
X90594642Y-89940857D01*
X90480357Y-89883714D01*
X90423214Y-89826571D01*
X89851785Y-89940857D02*
X89851785Y-88740857D01*
X89851785Y-89198000D02*
X89737500Y-89140857D01*
X89508928Y-89140857D01*
X89394642Y-89198000D01*
X89337500Y-89255142D01*
X89280357Y-89369428D01*
X89280357Y-89712285D01*
X89337500Y-89826571D01*
X89394642Y-89883714D01*
X89508928Y-89940857D01*
X89737500Y-89940857D01*
X89851785Y-89883714D01*
X88766071Y-89826571D02*
X88708928Y-89883714D01*
X88766071Y-89940857D01*
X88823214Y-89883714D01*
X88766071Y-89826571D01*
X88766071Y-89940857D01*
X87680357Y-89883714D02*
X87794642Y-89940857D01*
X88023214Y-89940857D01*
X88137500Y-89883714D01*
X88194642Y-89826571D01*
X88251785Y-89712285D01*
X88251785Y-89369428D01*
X88194642Y-89255142D01*
X88137500Y-89198000D01*
X88023214Y-89140857D01*
X87794642Y-89140857D01*
X87680357Y-89198000D01*
X86994642Y-89940857D02*
X87108928Y-89883714D01*
X87166071Y-89826571D01*
X87223214Y-89712285D01*
X87223214Y-89369428D01*
X87166071Y-89255142D01*
X87108928Y-89198000D01*
X86994642Y-89140857D01*
X86823214Y-89140857D01*
X86708928Y-89198000D01*
X86651785Y-89255142D01*
X86594642Y-89369428D01*
X86594642Y-89712285D01*
X86651785Y-89826571D01*
X86708928Y-89883714D01*
X86823214Y-89940857D01*
X86994642Y-89940857D01*
X86080357Y-89940857D02*
X86080357Y-89140857D01*
X86080357Y-89255142D02*
X86023214Y-89198000D01*
X85908928Y-89140857D01*
X85737499Y-89140857D01*
X85623214Y-89198000D01*
X85566071Y-89312285D01*
X85566071Y-89940857D01*
X85566071Y-89312285D02*
X85508928Y-89198000D01*
X85394642Y-89140857D01*
X85223214Y-89140857D01*
X85108928Y-89198000D01*
X85051785Y-89312285D01*
X85051785Y-89940857D01*
X83623214Y-88683714D02*
X84651785Y-90226571D01*
X83223214Y-89940857D02*
X83223214Y-89140857D01*
X83223214Y-89369428D02*
X83166071Y-89255142D01*
X83108928Y-89198000D01*
X82994642Y-89140857D01*
X82880357Y-89140857D01*
X82480357Y-89940857D02*
X82480357Y-89140857D01*
X82480357Y-89369428D02*
X82423214Y-89255142D01*
X82366071Y-89198000D01*
X82251785Y-89140857D01*
X82137499Y-89140857D01*
X81223214Y-89940857D02*
X81223214Y-89312285D01*
X81280357Y-89198000D01*
X81394642Y-89140857D01*
X81623214Y-89140857D01*
X81737499Y-89198000D01*
X81223214Y-89883714D02*
X81337499Y-89940857D01*
X81623214Y-89940857D01*
X81737499Y-89883714D01*
X81794642Y-89769428D01*
X81794642Y-89655142D01*
X81737499Y-89540857D01*
X81623214Y-89483714D01*
X81337499Y-89483714D01*
X81223214Y-89426571D01*
X80651785Y-89940857D02*
X80651785Y-89140857D01*
X80651785Y-88740857D02*
X80708928Y-88798000D01*
X80651785Y-88855142D01*
X80594642Y-88798000D01*
X80651785Y-88740857D01*
X80651785Y-88855142D01*
X80080357Y-89140857D02*
X80080357Y-89940857D01*
X80080357Y-89255142D02*
X80023214Y-89198000D01*
X79908928Y-89140857D01*
X79737499Y-89140857D01*
X79623214Y-89198000D01*
X79566071Y-89312285D01*
X79566071Y-89940857D01*
X78537499Y-89883714D02*
X78651785Y-89940857D01*
X78880357Y-89940857D01*
X78994642Y-89883714D01*
X79051785Y-89769428D01*
X79051785Y-89312285D01*
X78994642Y-89198000D01*
X78880357Y-89140857D01*
X78651785Y-89140857D01*
X78537499Y-89198000D01*
X78480357Y-89312285D01*
X78480357Y-89426571D01*
X79051785Y-89540857D01*
X78080357Y-89140857D02*
X77794642Y-89940857D01*
X77508928Y-89140857D02*
X77794642Y-89940857D01*
X77908928Y-90226571D01*
X77966071Y-90283714D01*
X78080357Y-90340857D01*
X76194642Y-88683714D02*
X77223214Y-90226571D01*
X75280357Y-89940857D02*
X75280357Y-88740857D01*
X75280357Y-89883714D02*
X75394642Y-89940857D01*
X75623214Y-89940857D01*
X75737499Y-89883714D01*
X75794642Y-89826571D01*
X75851785Y-89712285D01*
X75851785Y-89369428D01*
X75794642Y-89255142D01*
X75737499Y-89198000D01*
X75623214Y-89140857D01*
X75394642Y-89140857D01*
X75280357Y-89198000D01*
X74708928Y-89940857D02*
X74708928Y-89140857D01*
X74708928Y-89369428D02*
X74651785Y-89255142D01*
X74594642Y-89198000D01*
X74480357Y-89140857D01*
X74366071Y-89140857D01*
X73794642Y-89940857D02*
X73908928Y-89883714D01*
X73966071Y-89826571D01*
X74023214Y-89712285D01*
X74023214Y-89369428D01*
X73966071Y-89255142D01*
X73908928Y-89198000D01*
X73794642Y-89140857D01*
X73623214Y-89140857D01*
X73508928Y-89198000D01*
X73451785Y-89255142D01*
X73394642Y-89369428D01*
X73394642Y-89712285D01*
X73451785Y-89826571D01*
X73508928Y-89883714D01*
X73623214Y-89940857D01*
X73794642Y-89940857D01*
X72880357Y-89140857D02*
X72880357Y-90340857D01*
X72880357Y-89198000D02*
X72766071Y-89140857D01*
X72537499Y-89140857D01*
X72423214Y-89198000D01*
X72366071Y-89255142D01*
X72308928Y-89369428D01*
X72308928Y-89712285D01*
X72366071Y-89826571D01*
X72423214Y-89883714D01*
X72537499Y-89940857D01*
X72766071Y-89940857D01*
X72880357Y-89883714D01*
X71794642Y-89940857D02*
X71794642Y-88740857D01*
X71680357Y-89483714D02*
X71337499Y-89940857D01*
X71337499Y-89140857D02*
X71794642Y-89598000D01*
X70823214Y-89940857D02*
X70823214Y-89140857D01*
X70823214Y-88740857D02*
X70880357Y-88798000D01*
X70823214Y-88855142D01*
X70766071Y-88798000D01*
X70823214Y-88740857D01*
X70823214Y-88855142D01*
X69737499Y-89883714D02*
X69851785Y-89940857D01*
X70080357Y-89940857D01*
X70194642Y-89883714D01*
X70251785Y-89826571D01*
X70308928Y-89712285D01*
X70308928Y-89369428D01*
X70251785Y-89255142D01*
X70194642Y-89198000D01*
X70080357Y-89140857D01*
X69851785Y-89140857D01*
X69737499Y-89198000D01*
X69223214Y-89940857D02*
X69223214Y-88740857D01*
X69108928Y-89483714D02*
X68766071Y-89940857D01*
X68766071Y-89140857D02*
X69223214Y-89598000D01*
X67394642Y-88683714D02*
X68423214Y-90226571D01*
D10*
X104247618Y-71180950D02*
X103771428Y-71180950D01*
X104342856Y-71466664D02*
X104009523Y-70466664D01*
X103676190Y-71466664D01*
X102771428Y-71466664D02*
X103104761Y-70990474D01*
X103342856Y-71466664D02*
X103342856Y-70466664D01*
X102961904Y-70466664D01*
X102866666Y-70514284D01*
X102819047Y-70561903D01*
X102771428Y-70657141D01*
X102771428Y-70799998D01*
X102819047Y-70895236D01*
X102866666Y-70942855D01*
X102961904Y-70990474D01*
X103342856Y-70990474D01*
X102342856Y-70942855D02*
X102009523Y-70942855D01*
X101866666Y-71466664D02*
X102342856Y-71466664D01*
X102342856Y-70466664D01*
X101866666Y-70466664D01*
X101104761Y-70942855D02*
X101438094Y-70942855D01*
X101438094Y-71466664D02*
X101438094Y-70466664D01*
X100961904Y-70466664D01*
X103676189Y-67985713D02*
X103771427Y-67938093D01*
X103914285Y-67938093D01*
X104057142Y-67985713D01*
X104152380Y-68080951D01*
X104199999Y-68176189D01*
X104247618Y-68366665D01*
X104247618Y-68509522D01*
X104199999Y-68699998D01*
X104152380Y-68795236D01*
X104057142Y-68890474D01*
X103914285Y-68938093D01*
X103819046Y-68938093D01*
X103676189Y-68890474D01*
X103628570Y-68842855D01*
X103628570Y-68509522D01*
X103819046Y-68509522D01*
X103199999Y-68938093D02*
X103199999Y-67938093D01*
X102628570Y-68938093D01*
X102628570Y-67938093D01*
X102152380Y-68938093D02*
X102152380Y-67938093D01*
X101914285Y-67938093D01*
X101771427Y-67985713D01*
X101676189Y-68080951D01*
X101628570Y-68176189D01*
X101580951Y-68366665D01*
X101580951Y-68509522D01*
X101628570Y-68699998D01*
X101676189Y-68795236D01*
X101771427Y-68890474D01*
X101914285Y-68938093D01*
X102152380Y-68938093D01*
X104247618Y-63833332D02*
X104104761Y-63880951D01*
X103866665Y-63880951D01*
X103771427Y-63833332D01*
X103723808Y-63785713D01*
X103676189Y-63690475D01*
X103676189Y-63595237D01*
X103723808Y-63499999D01*
X103771427Y-63452380D01*
X103866665Y-63404761D01*
X104057142Y-63357142D01*
X104152380Y-63309523D01*
X104199999Y-63261904D01*
X104247618Y-63166666D01*
X104247618Y-63071428D01*
X104199999Y-62976190D01*
X104152380Y-62928571D01*
X104057142Y-62880951D01*
X103819046Y-62880951D01*
X103676189Y-62928571D01*
X102676189Y-63785713D02*
X102723808Y-63833332D01*
X102866665Y-63880951D01*
X102961903Y-63880951D01*
X103104761Y-63833332D01*
X103199999Y-63738094D01*
X103247618Y-63642856D01*
X103295237Y-63452380D01*
X103295237Y-63309523D01*
X103247618Y-63119047D01*
X103199999Y-63023809D01*
X103104761Y-62928571D01*
X102961903Y-62880951D01*
X102866665Y-62880951D01*
X102723808Y-62928571D01*
X102676189Y-62976190D01*
X101771427Y-63880951D02*
X102247618Y-63880951D01*
X102247618Y-62880951D01*
X104247618Y-73709521D02*
X103771428Y-73709521D01*
X104342856Y-73995235D02*
X104009523Y-72995235D01*
X103676190Y-73995235D01*
X103152380Y-72995235D02*
X103057142Y-72995235D01*
X102961904Y-73042855D01*
X102914285Y-73090474D01*
X102866666Y-73185712D01*
X102819047Y-73376188D01*
X102819047Y-73614283D01*
X102866666Y-73804759D01*
X102914285Y-73899997D01*
X102961904Y-73947616D01*
X103057142Y-73995235D01*
X103152380Y-73995235D01*
X103247618Y-73947616D01*
X103295237Y-73899997D01*
X103342856Y-73804759D01*
X103390475Y-73614283D01*
X103390475Y-73376188D01*
X103342856Y-73185712D01*
X103295237Y-73090474D01*
X103247618Y-73042855D01*
X103152380Y-72995235D01*
X104199999Y-79052380D02*
X104199999Y-78052380D01*
X103961904Y-78052380D01*
X103819046Y-78100000D01*
X103723808Y-78195238D01*
X103676189Y-78290476D01*
X103628570Y-78480952D01*
X103628570Y-78623809D01*
X103676189Y-78814285D01*
X103723808Y-78909523D01*
X103819046Y-79004761D01*
X103961904Y-79052380D01*
X104199999Y-79052380D01*
X103009523Y-78052380D02*
X102914284Y-78052380D01*
X102819046Y-78100000D01*
X102771427Y-78147619D01*
X102723808Y-78242857D01*
X102676189Y-78433333D01*
X102676189Y-78671428D01*
X102723808Y-78861904D01*
X102771427Y-78957142D01*
X102819046Y-79004761D01*
X102914284Y-79052380D01*
X103009523Y-79052380D01*
X103104761Y-79004761D01*
X103152380Y-78957142D01*
X103199999Y-78861904D01*
X103247618Y-78671428D01*
X103247618Y-78433333D01*
X103199999Y-78242857D01*
X103152380Y-78147619D01*
X103104761Y-78100000D01*
X103009523Y-78052380D01*
X104247618Y-76238092D02*
X103771428Y-76238092D01*
X104342856Y-76523806D02*
X104009523Y-75523806D01*
X103676190Y-76523806D01*
X102819047Y-76523806D02*
X103390475Y-76523806D01*
X103104761Y-76523806D02*
X103104761Y-75523806D01*
X103199999Y-75666664D01*
X103295237Y-75761902D01*
X103390475Y-75809521D01*
X104247618Y-66361903D02*
X104104761Y-66409522D01*
X103866666Y-66409522D01*
X103771428Y-66361903D01*
X103723809Y-66314284D01*
X103676190Y-66219046D01*
X103676190Y-66123808D01*
X103723809Y-66028570D01*
X103771428Y-65980951D01*
X103866666Y-65933332D01*
X104057142Y-65885713D01*
X104152380Y-65838094D01*
X104199999Y-65790475D01*
X104247618Y-65695237D01*
X104247618Y-65599999D01*
X104199999Y-65504761D01*
X104152380Y-65457142D01*
X104057142Y-65409522D01*
X103819047Y-65409522D01*
X103676190Y-65457142D01*
X103247618Y-66409522D02*
X103247618Y-65409522D01*
X103009523Y-65409522D01*
X102866666Y-65457142D01*
X102771428Y-65552380D01*
X102723809Y-65647618D01*
X102676190Y-65838094D01*
X102676190Y-65980951D01*
X102723809Y-66171427D01*
X102771428Y-66266665D01*
X102866666Y-66361903D01*
X103009523Y-66409522D01*
X103247618Y-66409522D01*
X102295237Y-66123808D02*
X101819047Y-66123808D01*
X102390475Y-66409522D02*
X102057142Y-65409522D01*
X101723809Y-66409522D01*
D12*
%TO.C,X3*%
X71751766Y-73350599D02*
X72418262Y-73794930D01*
X71751766Y-73794930D02*
X72418262Y-73350599D01*
X71751766Y-73985358D02*
X71751766Y-74397950D01*
X72005669Y-74175785D01*
X72005669Y-74270999D01*
X72037407Y-74334474D01*
X72069145Y-74366212D01*
X72132620Y-74397950D01*
X72291310Y-74397950D01*
X72354786Y-74366212D01*
X72386524Y-74334474D01*
X72418262Y-74270999D01*
X72418262Y-74080571D01*
X72386524Y-74017095D01*
X72354786Y-73985358D01*
D10*
%TO.C,X2*%
X74504523Y-55471904D02*
X75774523Y-56318571D01*
X74504523Y-56318571D02*
X75774523Y-55471904D01*
X74625476Y-56741904D02*
X74565000Y-56802380D01*
X74504523Y-56923333D01*
X74504523Y-57225714D01*
X74565000Y-57346666D01*
X74625476Y-57407142D01*
X74746428Y-57467619D01*
X74867380Y-57467619D01*
X75048809Y-57407142D01*
X75774523Y-56681428D01*
X75774523Y-57467619D01*
%TO.C,SW1*%
X81724333Y-47648761D02*
X81581476Y-47696380D01*
X81343380Y-47696380D01*
X81248142Y-47648761D01*
X81200523Y-47601142D01*
X81152904Y-47505904D01*
X81152904Y-47410666D01*
X81200523Y-47315428D01*
X81248142Y-47267809D01*
X81343380Y-47220190D01*
X81533857Y-47172571D01*
X81629095Y-47124952D01*
X81676714Y-47077333D01*
X81724333Y-46982095D01*
X81724333Y-46886857D01*
X81676714Y-46791619D01*
X81629095Y-46744000D01*
X81533857Y-46696380D01*
X81295761Y-46696380D01*
X81152904Y-46744000D01*
X80819571Y-46696380D02*
X80581476Y-47696380D01*
X80391000Y-46982095D01*
X80200523Y-47696380D01*
X79962428Y-46696380D01*
X79057666Y-47696380D02*
X79629095Y-47696380D01*
X79343380Y-47696380D02*
X79343380Y-46696380D01*
X79438619Y-46839238D01*
X79533857Y-46934476D01*
X79629095Y-46982095D01*
%TO.C,JP2*%
X97933333Y-49752380D02*
X97933333Y-50466666D01*
X97980952Y-50609523D01*
X98076190Y-50704761D01*
X98219047Y-50752380D01*
X98314285Y-50752380D01*
X97457142Y-50752380D02*
X97457142Y-49752380D01*
X97076190Y-49752380D01*
X96980952Y-49800000D01*
X96933333Y-49847619D01*
X96885714Y-49942857D01*
X96885714Y-50085714D01*
X96933333Y-50180952D01*
X96980952Y-50228571D01*
X97076190Y-50276190D01*
X97457142Y-50276190D01*
X96504761Y-49847619D02*
X96457142Y-49800000D01*
X96361904Y-49752380D01*
X96123809Y-49752380D01*
X96028571Y-49800000D01*
X95980952Y-49847619D01*
X95933333Y-49942857D01*
X95933333Y-50038095D01*
X95980952Y-50180952D01*
X96552380Y-50752380D01*
X95933333Y-50752380D01*
D13*
%TO.C,X3*%
X80240000Y-66700000D02*
X80240000Y-61650000D01*
X79740000Y-75600000D02*
X79740000Y-75850000D01*
X80240000Y-72650000D02*
X80240000Y-68950000D01*
X80240000Y-74950000D02*
X80240000Y-75600000D01*
X79740000Y-75850000D02*
X67790000Y-75850000D01*
X80240000Y-75600000D02*
X79740000Y-75600000D01*
X80240000Y-61650000D02*
X66890000Y-61650000D01*
D14*
%TO.C,X2*%
X70550000Y-52550000D02*
X66550000Y-52550000D01*
X74050000Y-58800000D02*
X74050000Y-54300000D01*
X66550000Y-52550000D02*
X66550000Y-53400000D01*
X69050000Y-59700000D02*
X66550000Y-59700000D01*
X66550000Y-59700000D02*
X66550000Y-60550000D01*
X66550000Y-53400000D02*
X69050000Y-53400000D01*
X69050000Y-53400000D02*
X69050000Y-54800000D01*
X66550000Y-60550000D02*
X70550000Y-60550000D01*
X69050000Y-58300000D02*
X69050000Y-59700000D01*
D15*
%TO.C,SW1*%
X72026134Y-45669200D02*
X76213864Y-45669200D01*
X72241161Y-48920400D02*
X71998840Y-48920400D01*
X78603099Y-48920400D02*
X75998842Y-48920400D01*
X70241160Y-48920400D02*
X69636899Y-48920400D01*
X69636899Y-48920400D02*
X69636899Y-45669200D01*
X74241162Y-48920400D02*
X73998841Y-48920400D01*
X78603099Y-45669200D02*
X78603099Y-48920400D01*
X78276134Y-45669200D02*
X78603099Y-45669200D01*
X69636899Y-45669200D02*
X69963864Y-45669200D01*
X68239899Y-49784000D02*
G75*
G03*
X68239899Y-49784000I-381000J0D01*
G01*
D16*
%TO.C,JP2*%
X102743000Y-52960000D02*
X103063000Y-52960000D01*
X96073000Y-52960000D02*
X96393000Y-52960000D01*
X96393000Y-56260000D02*
X96073000Y-56260000D01*
X94803000Y-57260000D02*
X94803000Y-51960000D01*
X103063000Y-56260000D02*
X102743000Y-56260000D01*
X96073000Y-56260000D02*
X96073000Y-52960000D01*
X103063000Y-52960000D02*
X103063000Y-56260000D01*
X96393000Y-57260000D02*
X94803000Y-57260000D01*
D17*
X96223000Y-52510000D02*
G75*
G03*
X96223000Y-52510000I-155000J0D01*
G01*
D18*
%TO.C,REF\u002A\u002A*%
X89990986Y-68152998D02*
X89832994Y-68153863D01*
X89832994Y-68153863D02*
X89718653Y-68156205D01*
X89718653Y-68156205D02*
X89640593Y-68160762D01*
X89640593Y-68160762D02*
X89591446Y-68168270D01*
X89591446Y-68168270D02*
X89563841Y-68179466D01*
X89563841Y-68179466D02*
X89550408Y-68195088D01*
X89550408Y-68195088D02*
X89543779Y-68215873D01*
X89543779Y-68215873D02*
X89543135Y-68218563D01*
X89543135Y-68218563D02*
X89533065Y-68267113D01*
X89533065Y-68267113D02*
X89514425Y-68362905D01*
X89514425Y-68362905D02*
X89489155Y-68495743D01*
X89489155Y-68495743D02*
X89459193Y-68655431D01*
X89459193Y-68655431D02*
X89426478Y-68831774D01*
X89426478Y-68831774D02*
X89425336Y-68837967D01*
X89425336Y-68837967D02*
X89392567Y-69010782D01*
X89392567Y-69010782D02*
X89361907Y-69163469D01*
X89361907Y-69163469D02*
X89335336Y-69286871D01*
X89335336Y-69286871D02*
X89314833Y-69371831D01*
X89314833Y-69371831D02*
X89302374Y-69409190D01*
X89302374Y-69409190D02*
X89301780Y-69409852D01*
X89301780Y-69409852D02*
X89265081Y-69428095D01*
X89265081Y-69428095D02*
X89189414Y-69458497D01*
X89189414Y-69458497D02*
X89091122Y-69494493D01*
X89091122Y-69494493D02*
X89090575Y-69494685D01*
X89090575Y-69494685D02*
X88966767Y-69541222D01*
X88966767Y-69541222D02*
X88820804Y-69600504D01*
X88820804Y-69600504D02*
X88683219Y-69660109D01*
X88683219Y-69660109D02*
X88676707Y-69663056D01*
X88676707Y-69663056D02*
X88452610Y-69764765D01*
X88452610Y-69764765D02*
X87956381Y-69425897D01*
X87956381Y-69425897D02*
X87804154Y-69322592D01*
X87804154Y-69322592D02*
X87666259Y-69230237D01*
X87666259Y-69230237D02*
X87550685Y-69154084D01*
X87550685Y-69154084D02*
X87465421Y-69099385D01*
X87465421Y-69099385D02*
X87418456Y-69071393D01*
X87418456Y-69071393D02*
X87413996Y-69069317D01*
X87413996Y-69069317D02*
X87379866Y-69078560D01*
X87379866Y-69078560D02*
X87316119Y-69123156D01*
X87316119Y-69123156D02*
X87220269Y-69205209D01*
X87220269Y-69205209D02*
X87089831Y-69326821D01*
X87089831Y-69326821D02*
X86956672Y-69456205D01*
X86956672Y-69456205D02*
X86828306Y-69583702D01*
X86828306Y-69583702D02*
X86713419Y-69700046D01*
X86713419Y-69700046D02*
X86618927Y-69798052D01*
X86618927Y-69798052D02*
X86551747Y-69870536D01*
X86551747Y-69870536D02*
X86518794Y-69910313D01*
X86518794Y-69910313D02*
X86517568Y-69912361D01*
X86517568Y-69912361D02*
X86513926Y-69939656D01*
X86513926Y-69939656D02*
X86527650Y-69984234D01*
X86527650Y-69984234D02*
X86562131Y-70052112D01*
X86562131Y-70052112D02*
X86620761Y-70149311D01*
X86620761Y-70149311D02*
X86706930Y-70281851D01*
X86706930Y-70281851D02*
X86821800Y-70452476D01*
X86821800Y-70452476D02*
X86923746Y-70602655D01*
X86923746Y-70602655D02*
X87014877Y-70737350D01*
X87014877Y-70737350D02*
X87089927Y-70848740D01*
X87089927Y-70848740D02*
X87143631Y-70929005D01*
X87143631Y-70929005D02*
X87170720Y-70970325D01*
X87170720Y-70970325D02*
X87172426Y-70973130D01*
X87172426Y-70973130D02*
X87169118Y-71012721D01*
X87169118Y-71012721D02*
X87144047Y-71089669D01*
X87144047Y-71089669D02*
X87102202Y-71189432D01*
X87102202Y-71189432D02*
X87087288Y-71221291D01*
X87087288Y-71221291D02*
X87022214Y-71363226D01*
X87022214Y-71363226D02*
X86952788Y-71524273D01*
X86952788Y-71524273D02*
X86896391Y-71663621D01*
X86896391Y-71663621D02*
X86855753Y-71767044D01*
X86855753Y-71767044D02*
X86823474Y-71845642D01*
X86823474Y-71845642D02*
X86804822Y-71886720D01*
X86804822Y-71886720D02*
X86802503Y-71889885D01*
X86802503Y-71889885D02*
X86768197Y-71895128D01*
X86768197Y-71895128D02*
X86687331Y-71909494D01*
X86687331Y-71909494D02*
X86570657Y-71930937D01*
X86570657Y-71930937D02*
X86428925Y-71957413D01*
X86428925Y-71957413D02*
X86272890Y-71986877D01*
X86272890Y-71986877D02*
X86113302Y-72017283D01*
X86113302Y-72017283D02*
X85960915Y-72046588D01*
X85960915Y-72046588D02*
X85826479Y-72072745D01*
X85826479Y-72072745D02*
X85720748Y-72093710D01*
X85720748Y-72093710D02*
X85654474Y-72107439D01*
X85654474Y-72107439D02*
X85638218Y-72111320D01*
X85638218Y-72111320D02*
X85621427Y-72120900D01*
X85621427Y-72120900D02*
X85608751Y-72142536D01*
X85608751Y-72142536D02*
X85599622Y-72183531D01*
X85599622Y-72183531D02*
X85593469Y-72251189D01*
X85593469Y-72251189D02*
X85589720Y-72352812D01*
X85589720Y-72352812D02*
X85587808Y-72495703D01*
X85587808Y-72495703D02*
X85587160Y-72687165D01*
X85587160Y-72687165D02*
X85587126Y-72765645D01*
X85587126Y-72765645D02*
X85587126Y-73403906D01*
X85587126Y-73403906D02*
X85740402Y-73434160D01*
X85740402Y-73434160D02*
X85825678Y-73450564D01*
X85825678Y-73450564D02*
X85952930Y-73474509D01*
X85952930Y-73474509D02*
X86106685Y-73503107D01*
X86106685Y-73503107D02*
X86271466Y-73533467D01*
X86271466Y-73533467D02*
X86317011Y-73541806D01*
X86317011Y-73541806D02*
X86469068Y-73571370D01*
X86469068Y-73571370D02*
X86601532Y-73600442D01*
X86601532Y-73600442D02*
X86703286Y-73626329D01*
X86703286Y-73626329D02*
X86763212Y-73646337D01*
X86763212Y-73646337D02*
X86773195Y-73652301D01*
X86773195Y-73652301D02*
X86797707Y-73694534D01*
X86797707Y-73694534D02*
X86832852Y-73776370D01*
X86832852Y-73776370D02*
X86871827Y-73881683D01*
X86871827Y-73881683D02*
X86879558Y-73904368D01*
X86879558Y-73904368D02*
X86930640Y-74045018D01*
X86930640Y-74045018D02*
X86994046Y-74203714D01*
X86994046Y-74203714D02*
X87056096Y-74346225D01*
X87056096Y-74346225D02*
X87056402Y-74346886D01*
X87056402Y-74346886D02*
X87159733Y-74570440D01*
X87159733Y-74570440D02*
X86480039Y-75570232D01*
X86480039Y-75570232D02*
X86916379Y-76007300D01*
X86916379Y-76007300D02*
X87048351Y-76137381D01*
X87048351Y-76137381D02*
X87168721Y-76252048D01*
X87168721Y-76252048D02*
X87270727Y-76345181D01*
X87270727Y-76345181D02*
X87347609Y-76410658D01*
X87347609Y-76410658D02*
X87392607Y-76442357D01*
X87392607Y-76442357D02*
X87399062Y-76444368D01*
X87399062Y-76444368D02*
X87436960Y-76428529D01*
X87436960Y-76428529D02*
X87514292Y-76384496D01*
X87514292Y-76384496D02*
X87622611Y-76317490D01*
X87622611Y-76317490D02*
X87753468Y-76232734D01*
X87753468Y-76232734D02*
X87894948Y-76137816D01*
X87894948Y-76137816D02*
X88038539Y-76040998D01*
X88038539Y-76040998D02*
X88166565Y-75956751D01*
X88166565Y-75956751D02*
X88270895Y-75890258D01*
X88270895Y-75890258D02*
X88343400Y-75846702D01*
X88343400Y-75846702D02*
X88375842Y-75831264D01*
X88375842Y-75831264D02*
X88415424Y-75844328D01*
X88415424Y-75844328D02*
X88490481Y-75878750D01*
X88490481Y-75878750D02*
X88585532Y-75927380D01*
X88585532Y-75927380D02*
X88595608Y-75932785D01*
X88595608Y-75932785D02*
X88723609Y-75996980D01*
X88723609Y-75996980D02*
X88811382Y-76028463D01*
X88811382Y-76028463D02*
X88865972Y-76028798D01*
X88865972Y-76028798D02*
X88894425Y-75999548D01*
X88894425Y-75999548D02*
X88894590Y-75999138D01*
X88894590Y-75999138D02*
X88908812Y-75964498D01*
X88908812Y-75964498D02*
X88942731Y-75882269D01*
X88942731Y-75882269D02*
X88993716Y-75758814D01*
X88993716Y-75758814D02*
X89059138Y-75600498D01*
X89059138Y-75600498D02*
X89136366Y-75413686D01*
X89136366Y-75413686D02*
X89222771Y-75204742D01*
X89222771Y-75204742D02*
X89306449Y-75002446D01*
X89306449Y-75002446D02*
X89398412Y-74779200D01*
X89398412Y-74779200D02*
X89482850Y-74572392D01*
X89482850Y-74572392D02*
X89557231Y-74388362D01*
X89557231Y-74388362D02*
X89619026Y-74233451D01*
X89619026Y-74233451D02*
X89665703Y-74113996D01*
X89665703Y-74113996D02*
X89694732Y-74036339D01*
X89694732Y-74036339D02*
X89703678Y-74007356D01*
X89703678Y-74007356D02*
X89681244Y-73974110D01*
X89681244Y-73974110D02*
X89622561Y-73921123D01*
X89622561Y-73921123D02*
X89544311Y-73862704D01*
X89544311Y-73862704D02*
X89321466Y-73677952D01*
X89321466Y-73677952D02*
X89147282Y-73466182D01*
X89147282Y-73466182D02*
X89023846Y-73231856D01*
X89023846Y-73231856D02*
X88953246Y-72979434D01*
X88953246Y-72979434D02*
X88937569Y-72713377D01*
X88937569Y-72713377D02*
X88948964Y-72590575D01*
X88948964Y-72590575D02*
X89011050Y-72335793D01*
X89011050Y-72335793D02*
X89117977Y-72110801D01*
X89117977Y-72110801D02*
X89263111Y-71917817D01*
X89263111Y-71917817D02*
X89439822Y-71759061D01*
X89439822Y-71759061D02*
X89641478Y-71636750D01*
X89641478Y-71636750D02*
X89861446Y-71553105D01*
X89861446Y-71553105D02*
X90093094Y-71510344D01*
X90093094Y-71510344D02*
X90329791Y-71510687D01*
X90329791Y-71510687D02*
X90564905Y-71556352D01*
X90564905Y-71556352D02*
X90791804Y-71649559D01*
X90791804Y-71649559D02*
X91003856Y-71792527D01*
X91003856Y-71792527D02*
X91092364Y-71873383D01*
X91092364Y-71873383D02*
X91262111Y-72081007D01*
X91262111Y-72081007D02*
X91380301Y-72307895D01*
X91380301Y-72307895D02*
X91447722Y-72547433D01*
X91447722Y-72547433D02*
X91465160Y-72793007D01*
X91465160Y-72793007D02*
X91433402Y-73038003D01*
X91433402Y-73038003D02*
X91353235Y-73275808D01*
X91353235Y-73275808D02*
X91225445Y-73499807D01*
X91225445Y-73499807D02*
X91050820Y-73703387D01*
X91050820Y-73703387D02*
X90855688Y-73862704D01*
X90855688Y-73862704D02*
X90774409Y-73923602D01*
X90774409Y-73923602D02*
X90716991Y-73976015D01*
X90716991Y-73976015D02*
X90696322Y-74007406D01*
X90696322Y-74007406D02*
X90707144Y-74041639D01*
X90707144Y-74041639D02*
X90737923Y-74123419D01*
X90737923Y-74123419D02*
X90786126Y-74246407D01*
X90786126Y-74246407D02*
X90849222Y-74404263D01*
X90849222Y-74404263D02*
X90924678Y-74590649D01*
X90924678Y-74590649D02*
X91009962Y-74799226D01*
X91009962Y-74799226D02*
X91093781Y-75002496D01*
X91093781Y-75002496D02*
X91186255Y-75225933D01*
X91186255Y-75225933D02*
X91271911Y-75432984D01*
X91271911Y-75432984D02*
X91348118Y-75617286D01*
X91348118Y-75617286D02*
X91412247Y-75772475D01*
X91412247Y-75772475D02*
X91461668Y-75892188D01*
X91461668Y-75892188D02*
X91493752Y-75970061D01*
X91493752Y-75970061D02*
X91505641Y-75999138D01*
X91505641Y-75999138D02*
X91533726Y-76028677D01*
X91533726Y-76028677D02*
X91588051Y-76028591D01*
X91588051Y-76028591D02*
X91675605Y-75997326D01*
X91675605Y-75997326D02*
X91803381Y-75933329D01*
X91803381Y-75933329D02*
X91804392Y-75932785D01*
X91804392Y-75932785D02*
X91900598Y-75883121D01*
X91900598Y-75883121D02*
X91978369Y-75846945D01*
X91978369Y-75846945D02*
X92022223Y-75831408D01*
X92022223Y-75831408D02*
X92024158Y-75831264D01*
X92024158Y-75831264D02*
X92057171Y-75847024D01*
X92057171Y-75847024D02*
X92130054Y-75890850D01*
X92130054Y-75890850D02*
X92234678Y-75957557D01*
X92234678Y-75957557D02*
X92362910Y-76041964D01*
X92362910Y-76041964D02*
X92505052Y-76137816D01*
X92505052Y-76137816D02*
X92649767Y-76234867D01*
X92649767Y-76234867D02*
X92780196Y-76319270D01*
X92780196Y-76319270D02*
X92887890Y-76385801D01*
X92887890Y-76385801D02*
X92964402Y-76429238D01*
X92964402Y-76429238D02*
X93000938Y-76444368D01*
X93000938Y-76444368D02*
X93034582Y-76424482D01*
X93034582Y-76424482D02*
X93102224Y-76368903D01*
X93102224Y-76368903D02*
X93197107Y-76283754D01*
X93197107Y-76283754D02*
X93312470Y-76175153D01*
X93312470Y-76175153D02*
X93441555Y-76049221D01*
X93441555Y-76049221D02*
X93483771Y-76007149D01*
X93483771Y-76007149D02*
X93920261Y-75569931D01*
X93920261Y-75569931D02*
X93588023Y-75082340D01*
X93588023Y-75082340D02*
X93487054Y-74932605D01*
X93487054Y-74932605D02*
X93398438Y-74798220D01*
X93398438Y-74798220D02*
X93327146Y-74686969D01*
X93327146Y-74686969D02*
X93278150Y-74606639D01*
X93278150Y-74606639D02*
X93256422Y-74565014D01*
X93256422Y-74565014D02*
X93255785Y-74562053D01*
X93255785Y-74562053D02*
X93267240Y-74522818D01*
X93267240Y-74522818D02*
X93298051Y-74443895D01*
X93298051Y-74443895D02*
X93342884Y-74338509D01*
X93342884Y-74338509D02*
X93374353Y-74267954D01*
X93374353Y-74267954D02*
X93433192Y-74132876D01*
X93433192Y-74132876D02*
X93488604Y-73996409D01*
X93488604Y-73996409D02*
X93531564Y-73881103D01*
X93531564Y-73881103D02*
X93543234Y-73845977D01*
X93543234Y-73845977D02*
X93576389Y-73752174D01*
X93576389Y-73752174D02*
X93608799Y-73679694D01*
X93608799Y-73679694D02*
X93626601Y-73652301D01*
X93626601Y-73652301D02*
X93665886Y-73635536D01*
X93665886Y-73635536D02*
X93751626Y-73611770D01*
X93751626Y-73611770D02*
X93872697Y-73583697D01*
X93872697Y-73583697D02*
X94017973Y-73554009D01*
X94017973Y-73554009D02*
X94082988Y-73541806D01*
X94082988Y-73541806D02*
X94248087Y-73511468D01*
X94248087Y-73511468D02*
X94406448Y-73482093D01*
X94406448Y-73482093D02*
X94542596Y-73456569D01*
X94542596Y-73456569D02*
X94641057Y-73437785D01*
X94641057Y-73437785D02*
X94659598Y-73434160D01*
X94659598Y-73434160D02*
X94812873Y-73403906D01*
X94812873Y-73403906D02*
X94812873Y-72765645D01*
X94812873Y-72765645D02*
X94812529Y-72555770D01*
X94812529Y-72555770D02*
X94811116Y-72396980D01*
X94811116Y-72396980D02*
X94808064Y-72281973D01*
X94808064Y-72281973D02*
X94802803Y-72203446D01*
X94802803Y-72203446D02*
X94794763Y-72154096D01*
X94794763Y-72154096D02*
X94783373Y-72126619D01*
X94783373Y-72126619D02*
X94768063Y-72113713D01*
X94768063Y-72113713D02*
X94761782Y-72111320D01*
X94761782Y-72111320D02*
X94723896Y-72102833D01*
X94723896Y-72102833D02*
X94640195Y-72085900D01*
X94640195Y-72085900D02*
X94521433Y-72062566D01*
X94521433Y-72062566D02*
X94378361Y-72034875D01*
X94378361Y-72034875D02*
X94221732Y-72004873D01*
X94221732Y-72004873D02*
X94062297Y-71974604D01*
X94062297Y-71974604D02*
X93910809Y-71946115D01*
X93910809Y-71946115D02*
X93778019Y-71921449D01*
X93778019Y-71921449D02*
X93674681Y-71902651D01*
X93674681Y-71902651D02*
X93611545Y-71891767D01*
X93611545Y-71891767D02*
X93597497Y-71889885D01*
X93597497Y-71889885D02*
X93584770Y-71864704D01*
X93584770Y-71864704D02*
X93556600Y-71797622D01*
X93556600Y-71797622D02*
X93518252Y-71701333D01*
X93518252Y-71701333D02*
X93503609Y-71663621D01*
X93503609Y-71663621D02*
X93444548Y-71517921D01*
X93444548Y-71517921D02*
X93375000Y-71356951D01*
X93375000Y-71356951D02*
X93312712Y-71221291D01*
X93312712Y-71221291D02*
X93266879Y-71117561D01*
X93266879Y-71117561D02*
X93236387Y-71032326D01*
X93236387Y-71032326D02*
X93226208Y-70980126D01*
X93226208Y-70980126D02*
X93227831Y-70973130D01*
X93227831Y-70973130D02*
X93249343Y-70940102D01*
X93249343Y-70940102D02*
X93298465Y-70866643D01*
X93298465Y-70866643D02*
X93369923Y-70760577D01*
X93369923Y-70760577D02*
X93458445Y-70629726D01*
X93458445Y-70629726D02*
X93558759Y-70481912D01*
X93558759Y-70481912D02*
X93578594Y-70452734D01*
X93578594Y-70452734D02*
X93694988Y-70279863D01*
X93694988Y-70279863D02*
X93780548Y-70148226D01*
X93780548Y-70148226D02*
X93838684Y-70051761D01*
X93838684Y-70051761D02*
X93872808Y-69984408D01*
X93872808Y-69984408D02*
X93886331Y-69940106D01*
X93886331Y-69940106D02*
X93882664Y-69912794D01*
X93882664Y-69912794D02*
X93882570Y-69912620D01*
X93882570Y-69912620D02*
X93853707Y-69876746D01*
X93853707Y-69876746D02*
X93789867Y-69807391D01*
X93789867Y-69807391D02*
X93697969Y-69711745D01*
X93697969Y-69711745D02*
X93584933Y-69596999D01*
X93584933Y-69596999D02*
X93457679Y-69470341D01*
X93457679Y-69470341D02*
X93443328Y-69456205D01*
X93443328Y-69456205D02*
X93282957Y-69300903D01*
X93282957Y-69300903D02*
X93159195Y-69186870D01*
X93159195Y-69186870D02*
X93069555Y-69112002D01*
X93069555Y-69112002D02*
X93011552Y-69074196D01*
X93011552Y-69074196D02*
X92986004Y-69069317D01*
X92986004Y-69069317D02*
X92948718Y-69090603D01*
X92948718Y-69090603D02*
X92871343Y-69139773D01*
X92871343Y-69139773D02*
X92761867Y-69211575D01*
X92761867Y-69211575D02*
X92628280Y-69300755D01*
X92628280Y-69300755D02*
X92478570Y-69402063D01*
X92478570Y-69402063D02*
X92443618Y-69425897D01*
X92443618Y-69425897D02*
X91947390Y-69764765D01*
X91947390Y-69764765D02*
X91723293Y-69663056D01*
X91723293Y-69663056D02*
X91587011Y-69603783D01*
X91587011Y-69603783D02*
X91440724Y-69544170D01*
X91440724Y-69544170D02*
X91314965Y-69496640D01*
X91314965Y-69496640D02*
X91309425Y-69494685D01*
X91309425Y-69494685D02*
X91211057Y-69458677D01*
X91211057Y-69458677D02*
X91135229Y-69428229D01*
X91135229Y-69428229D02*
X91098282Y-69409905D01*
X91098282Y-69409905D02*
X91098220Y-69409852D01*
X91098220Y-69409852D02*
X91086496Y-69376729D01*
X91086496Y-69376729D02*
X91066568Y-69295267D01*
X91066568Y-69295267D02*
X91040413Y-69174625D01*
X91040413Y-69174625D02*
X91010010Y-69023959D01*
X91010010Y-69023959D02*
X90977337Y-68852428D01*
X90977337Y-68852428D02*
X90974664Y-68837967D01*
X90974664Y-68837967D02*
X90941890Y-68661235D01*
X90941890Y-68661235D02*
X90911802Y-68500810D01*
X90911802Y-68500810D02*
X90886339Y-68366888D01*
X90886339Y-68366888D02*
X90867441Y-68269663D01*
X90867441Y-68269663D02*
X90857047Y-68219332D01*
X90857047Y-68219332D02*
X90856865Y-68218563D01*
X90856865Y-68218563D02*
X90850539Y-68197153D01*
X90850539Y-68197153D02*
X90838239Y-68180988D01*
X90838239Y-68180988D02*
X90812594Y-68169331D01*
X90812594Y-68169331D02*
X90766235Y-68161445D01*
X90766235Y-68161445D02*
X90691792Y-68156593D01*
X90691792Y-68156593D02*
X90581895Y-68154039D01*
X90581895Y-68154039D02*
X90429175Y-68153045D01*
X90429175Y-68153045D02*
X90226262Y-68152874D01*
X90226262Y-68152874D02*
X90200000Y-68152874D01*
X90200000Y-68152874D02*
X89990986Y-68152998D01*
X89990986Y-68152998D02*
X89990986Y-68152998D01*
G36*
X90429175Y-68153045D02*
G01*
X90581895Y-68154039D01*
X90691792Y-68156593D01*
X90766235Y-68161445D01*
X90812594Y-68169331D01*
X90838239Y-68180988D01*
X90850539Y-68197153D01*
X90856865Y-68218563D01*
X90857047Y-68219332D01*
X90867441Y-68269663D01*
X90886339Y-68366888D01*
X90911802Y-68500810D01*
X90941890Y-68661235D01*
X90974664Y-68837967D01*
X90977337Y-68852428D01*
X91010010Y-69023959D01*
X91040413Y-69174625D01*
X91066568Y-69295267D01*
X91086496Y-69376729D01*
X91098220Y-69409852D01*
X91098282Y-69409905D01*
X91135229Y-69428229D01*
X91211057Y-69458677D01*
X91309425Y-69494685D01*
X91314965Y-69496640D01*
X91440724Y-69544170D01*
X91587011Y-69603783D01*
X91723293Y-69663056D01*
X91947390Y-69764765D01*
X92443618Y-69425897D01*
X92478570Y-69402063D01*
X92628280Y-69300755D01*
X92761867Y-69211575D01*
X92871343Y-69139773D01*
X92948718Y-69090603D01*
X92986004Y-69069317D01*
X93011552Y-69074196D01*
X93069555Y-69112002D01*
X93159195Y-69186870D01*
X93282957Y-69300903D01*
X93443328Y-69456205D01*
X93457679Y-69470341D01*
X93584933Y-69596999D01*
X93697969Y-69711745D01*
X93789867Y-69807391D01*
X93853707Y-69876746D01*
X93882570Y-69912620D01*
X93882664Y-69912794D01*
X93886331Y-69940106D01*
X93872808Y-69984408D01*
X93838684Y-70051761D01*
X93780548Y-70148226D01*
X93694988Y-70279863D01*
X93578594Y-70452734D01*
X93558759Y-70481912D01*
X93458445Y-70629726D01*
X93369923Y-70760577D01*
X93298465Y-70866643D01*
X93249343Y-70940102D01*
X93227831Y-70973130D01*
X93226208Y-70980126D01*
X93236387Y-71032326D01*
X93266879Y-71117561D01*
X93312712Y-71221291D01*
X93375000Y-71356951D01*
X93444548Y-71517921D01*
X93503609Y-71663621D01*
X93518252Y-71701333D01*
X93556600Y-71797622D01*
X93584770Y-71864704D01*
X93597497Y-71889885D01*
X93611545Y-71891767D01*
X93674681Y-71902651D01*
X93778019Y-71921449D01*
X93910809Y-71946115D01*
X94062297Y-71974604D01*
X94221732Y-72004873D01*
X94378361Y-72034875D01*
X94521433Y-72062566D01*
X94640195Y-72085900D01*
X94723896Y-72102833D01*
X94761782Y-72111320D01*
X94768063Y-72113713D01*
X94783373Y-72126619D01*
X94794763Y-72154096D01*
X94802803Y-72203446D01*
X94808064Y-72281973D01*
X94811116Y-72396980D01*
X94812529Y-72555770D01*
X94812873Y-72765645D01*
X94812873Y-73403906D01*
X94659598Y-73434160D01*
X94641057Y-73437785D01*
X94542596Y-73456569D01*
X94406448Y-73482093D01*
X94248087Y-73511468D01*
X94082988Y-73541806D01*
X94017973Y-73554009D01*
X93872697Y-73583697D01*
X93751626Y-73611770D01*
X93665886Y-73635536D01*
X93626601Y-73652301D01*
X93608799Y-73679694D01*
X93576389Y-73752174D01*
X93543234Y-73845977D01*
X93531564Y-73881103D01*
X93488604Y-73996409D01*
X93433192Y-74132876D01*
X93374353Y-74267954D01*
X93342884Y-74338509D01*
X93298051Y-74443895D01*
X93267240Y-74522818D01*
X93255785Y-74562053D01*
X93256422Y-74565014D01*
X93278150Y-74606639D01*
X93327146Y-74686969D01*
X93398438Y-74798220D01*
X93487054Y-74932605D01*
X93588023Y-75082340D01*
X93920261Y-75569931D01*
X93483771Y-76007149D01*
X93441555Y-76049221D01*
X93312470Y-76175153D01*
X93197107Y-76283754D01*
X93102224Y-76368903D01*
X93034582Y-76424482D01*
X93000938Y-76444368D01*
X92964402Y-76429238D01*
X92887890Y-76385801D01*
X92780196Y-76319270D01*
X92649767Y-76234867D01*
X92505052Y-76137816D01*
X92362910Y-76041964D01*
X92234678Y-75957557D01*
X92130054Y-75890850D01*
X92057171Y-75847024D01*
X92024158Y-75831264D01*
X92022223Y-75831408D01*
X91978369Y-75846945D01*
X91900598Y-75883121D01*
X91804392Y-75932785D01*
X91803381Y-75933329D01*
X91675605Y-75997326D01*
X91588051Y-76028591D01*
X91533726Y-76028677D01*
X91505641Y-75999138D01*
X91493752Y-75970061D01*
X91461668Y-75892188D01*
X91412247Y-75772475D01*
X91348118Y-75617286D01*
X91271911Y-75432984D01*
X91186255Y-75225933D01*
X91093781Y-75002496D01*
X91009962Y-74799226D01*
X90924678Y-74590649D01*
X90849222Y-74404263D01*
X90786126Y-74246407D01*
X90737923Y-74123419D01*
X90707144Y-74041639D01*
X90696322Y-74007406D01*
X90716991Y-73976015D01*
X90774409Y-73923602D01*
X90855688Y-73862704D01*
X91050820Y-73703387D01*
X91225445Y-73499807D01*
X91353235Y-73275808D01*
X91433402Y-73038003D01*
X91465160Y-72793007D01*
X91447722Y-72547433D01*
X91380301Y-72307895D01*
X91262111Y-72081007D01*
X91092364Y-71873383D01*
X91003856Y-71792527D01*
X90791804Y-71649559D01*
X90564905Y-71556352D01*
X90329791Y-71510687D01*
X90093094Y-71510344D01*
X89861446Y-71553105D01*
X89641478Y-71636750D01*
X89439822Y-71759061D01*
X89263111Y-71917817D01*
X89117977Y-72110801D01*
X89011050Y-72335793D01*
X88948964Y-72590575D01*
X88937569Y-72713377D01*
X88953246Y-72979434D01*
X89023846Y-73231856D01*
X89147282Y-73466182D01*
X89321466Y-73677952D01*
X89544311Y-73862704D01*
X89622561Y-73921123D01*
X89681244Y-73974110D01*
X89703678Y-74007356D01*
X89694732Y-74036339D01*
X89665703Y-74113996D01*
X89619026Y-74233451D01*
X89557231Y-74388362D01*
X89482850Y-74572392D01*
X89398412Y-74779200D01*
X89306449Y-75002446D01*
X89222771Y-75204742D01*
X89136366Y-75413686D01*
X89059138Y-75600498D01*
X88993716Y-75758814D01*
X88942731Y-75882269D01*
X88908812Y-75964498D01*
X88894590Y-75999138D01*
X88894425Y-75999548D01*
X88865972Y-76028798D01*
X88811382Y-76028463D01*
X88723609Y-75996980D01*
X88595608Y-75932785D01*
X88585532Y-75927380D01*
X88490481Y-75878750D01*
X88415424Y-75844328D01*
X88375842Y-75831264D01*
X88343400Y-75846702D01*
X88270895Y-75890258D01*
X88166565Y-75956751D01*
X88038539Y-76040998D01*
X87894948Y-76137816D01*
X87753468Y-76232734D01*
X87622611Y-76317490D01*
X87514292Y-76384496D01*
X87436960Y-76428529D01*
X87399062Y-76444368D01*
X87392607Y-76442357D01*
X87347609Y-76410658D01*
X87270727Y-76345181D01*
X87168721Y-76252048D01*
X87048351Y-76137381D01*
X86916379Y-76007300D01*
X86480039Y-75570232D01*
X87159733Y-74570440D01*
X87056402Y-74346886D01*
X87056096Y-74346225D01*
X86994046Y-74203714D01*
X86930640Y-74045018D01*
X86879558Y-73904368D01*
X86871827Y-73881683D01*
X86832852Y-73776370D01*
X86797707Y-73694534D01*
X86773195Y-73652301D01*
X86763212Y-73646337D01*
X86703286Y-73626329D01*
X86601532Y-73600442D01*
X86469068Y-73571370D01*
X86317011Y-73541806D01*
X86271466Y-73533467D01*
X86106685Y-73503107D01*
X85952930Y-73474509D01*
X85825678Y-73450564D01*
X85740402Y-73434160D01*
X85587126Y-73403906D01*
X85587126Y-72765645D01*
X85587160Y-72687165D01*
X85587808Y-72495703D01*
X85589720Y-72352812D01*
X85593469Y-72251189D01*
X85599622Y-72183531D01*
X85608751Y-72142536D01*
X85621427Y-72120900D01*
X85638218Y-72111320D01*
X85654474Y-72107439D01*
X85720748Y-72093710D01*
X85826479Y-72072745D01*
X85960915Y-72046588D01*
X86113302Y-72017283D01*
X86272890Y-71986877D01*
X86428925Y-71957413D01*
X86570657Y-71930937D01*
X86687331Y-71909494D01*
X86768197Y-71895128D01*
X86802503Y-71889885D01*
X86804822Y-71886720D01*
X86823474Y-71845642D01*
X86855753Y-71767044D01*
X86896391Y-71663621D01*
X86952788Y-71524273D01*
X87022214Y-71363226D01*
X87087288Y-71221291D01*
X87102202Y-71189432D01*
X87144047Y-71089669D01*
X87169118Y-71012721D01*
X87172426Y-70973130D01*
X87170720Y-70970325D01*
X87143631Y-70929005D01*
X87089927Y-70848740D01*
X87014877Y-70737350D01*
X86923746Y-70602655D01*
X86821800Y-70452476D01*
X86706930Y-70281851D01*
X86620761Y-70149311D01*
X86562131Y-70052112D01*
X86527650Y-69984234D01*
X86513926Y-69939656D01*
X86517568Y-69912361D01*
X86518794Y-69910313D01*
X86551747Y-69870536D01*
X86618927Y-69798052D01*
X86713419Y-69700046D01*
X86828306Y-69583702D01*
X86956672Y-69456205D01*
X87089831Y-69326821D01*
X87220269Y-69205209D01*
X87316119Y-69123156D01*
X87379866Y-69078560D01*
X87413996Y-69069317D01*
X87418456Y-69071393D01*
X87465421Y-69099385D01*
X87550685Y-69154084D01*
X87666259Y-69230237D01*
X87804154Y-69322592D01*
X87956381Y-69425897D01*
X88452610Y-69764765D01*
X88676707Y-69663056D01*
X88683219Y-69660109D01*
X88820804Y-69600504D01*
X88966767Y-69541222D01*
X89090575Y-69494685D01*
X89091122Y-69494493D01*
X89189414Y-69458497D01*
X89265081Y-69428095D01*
X89301780Y-69409852D01*
X89302374Y-69409190D01*
X89314833Y-69371831D01*
X89335336Y-69286871D01*
X89361907Y-69163469D01*
X89392567Y-69010782D01*
X89425336Y-68837967D01*
X89426478Y-68831774D01*
X89459193Y-68655431D01*
X89489155Y-68495743D01*
X89514425Y-68362905D01*
X89533065Y-68267113D01*
X89543135Y-68218563D01*
X89543779Y-68215873D01*
X89550408Y-68195088D01*
X89563841Y-68179466D01*
X89591446Y-68168270D01*
X89640593Y-68160762D01*
X89718653Y-68156205D01*
X89832994Y-68153863D01*
X89990986Y-68152998D01*
X90200000Y-68152874D01*
X90226262Y-68152874D01*
X90429175Y-68153045D01*
G37*
X90429175Y-68153045D02*
X90581895Y-68154039D01*
X90691792Y-68156593D01*
X90766235Y-68161445D01*
X90812594Y-68169331D01*
X90838239Y-68180988D01*
X90850539Y-68197153D01*
X90856865Y-68218563D01*
X90857047Y-68219332D01*
X90867441Y-68269663D01*
X90886339Y-68366888D01*
X90911802Y-68500810D01*
X90941890Y-68661235D01*
X90974664Y-68837967D01*
X90977337Y-68852428D01*
X91010010Y-69023959D01*
X91040413Y-69174625D01*
X91066568Y-69295267D01*
X91086496Y-69376729D01*
X91098220Y-69409852D01*
X91098282Y-69409905D01*
X91135229Y-69428229D01*
X91211057Y-69458677D01*
X91309425Y-69494685D01*
X91314965Y-69496640D01*
X91440724Y-69544170D01*
X91587011Y-69603783D01*
X91723293Y-69663056D01*
X91947390Y-69764765D01*
X92443618Y-69425897D01*
X92478570Y-69402063D01*
X92628280Y-69300755D01*
X92761867Y-69211575D01*
X92871343Y-69139773D01*
X92948718Y-69090603D01*
X92986004Y-69069317D01*
X93011552Y-69074196D01*
X93069555Y-69112002D01*
X93159195Y-69186870D01*
X93282957Y-69300903D01*
X93443328Y-69456205D01*
X93457679Y-69470341D01*
X93584933Y-69596999D01*
X93697969Y-69711745D01*
X93789867Y-69807391D01*
X93853707Y-69876746D01*
X93882570Y-69912620D01*
X93882664Y-69912794D01*
X93886331Y-69940106D01*
X93872808Y-69984408D01*
X93838684Y-70051761D01*
X93780548Y-70148226D01*
X93694988Y-70279863D01*
X93578594Y-70452734D01*
X93558759Y-70481912D01*
X93458445Y-70629726D01*
X93369923Y-70760577D01*
X93298465Y-70866643D01*
X93249343Y-70940102D01*
X93227831Y-70973130D01*
X93226208Y-70980126D01*
X93236387Y-71032326D01*
X93266879Y-71117561D01*
X93312712Y-71221291D01*
X93375000Y-71356951D01*
X93444548Y-71517921D01*
X93503609Y-71663621D01*
X93518252Y-71701333D01*
X93556600Y-71797622D01*
X93584770Y-71864704D01*
X93597497Y-71889885D01*
X93611545Y-71891767D01*
X93674681Y-71902651D01*
X93778019Y-71921449D01*
X93910809Y-71946115D01*
X94062297Y-71974604D01*
X94221732Y-72004873D01*
X94378361Y-72034875D01*
X94521433Y-72062566D01*
X94640195Y-72085900D01*
X94723896Y-72102833D01*
X94761782Y-72111320D01*
X94768063Y-72113713D01*
X94783373Y-72126619D01*
X94794763Y-72154096D01*
X94802803Y-72203446D01*
X94808064Y-72281973D01*
X94811116Y-72396980D01*
X94812529Y-72555770D01*
X94812873Y-72765645D01*
X94812873Y-73403906D01*
X94659598Y-73434160D01*
X94641057Y-73437785D01*
X94542596Y-73456569D01*
X94406448Y-73482093D01*
X94248087Y-73511468D01*
X94082988Y-73541806D01*
X94017973Y-73554009D01*
X93872697Y-73583697D01*
X93751626Y-73611770D01*
X93665886Y-73635536D01*
X93626601Y-73652301D01*
X93608799Y-73679694D01*
X93576389Y-73752174D01*
X93543234Y-73845977D01*
X93531564Y-73881103D01*
X93488604Y-73996409D01*
X93433192Y-74132876D01*
X93374353Y-74267954D01*
X93342884Y-74338509D01*
X93298051Y-74443895D01*
X93267240Y-74522818D01*
X93255785Y-74562053D01*
X93256422Y-74565014D01*
X93278150Y-74606639D01*
X93327146Y-74686969D01*
X93398438Y-74798220D01*
X93487054Y-74932605D01*
X93588023Y-75082340D01*
X93920261Y-75569931D01*
X93483771Y-76007149D01*
X93441555Y-76049221D01*
X93312470Y-76175153D01*
X93197107Y-76283754D01*
X93102224Y-76368903D01*
X93034582Y-76424482D01*
X93000938Y-76444368D01*
X92964402Y-76429238D01*
X92887890Y-76385801D01*
X92780196Y-76319270D01*
X92649767Y-76234867D01*
X92505052Y-76137816D01*
X92362910Y-76041964D01*
X92234678Y-75957557D01*
X92130054Y-75890850D01*
X92057171Y-75847024D01*
X92024158Y-75831264D01*
X92022223Y-75831408D01*
X91978369Y-75846945D01*
X91900598Y-75883121D01*
X91804392Y-75932785D01*
X91803381Y-75933329D01*
X91675605Y-75997326D01*
X91588051Y-76028591D01*
X91533726Y-76028677D01*
X91505641Y-75999138D01*
X91493752Y-75970061D01*
X91461668Y-75892188D01*
X91412247Y-75772475D01*
X91348118Y-75617286D01*
X91271911Y-75432984D01*
X91186255Y-75225933D01*
X91093781Y-75002496D01*
X91009962Y-74799226D01*
X90924678Y-74590649D01*
X90849222Y-74404263D01*
X90786126Y-74246407D01*
X90737923Y-74123419D01*
X90707144Y-74041639D01*
X90696322Y-74007406D01*
X90716991Y-73976015D01*
X90774409Y-73923602D01*
X90855688Y-73862704D01*
X91050820Y-73703387D01*
X91225445Y-73499807D01*
X91353235Y-73275808D01*
X91433402Y-73038003D01*
X91465160Y-72793007D01*
X91447722Y-72547433D01*
X91380301Y-72307895D01*
X91262111Y-72081007D01*
X91092364Y-71873383D01*
X91003856Y-71792527D01*
X90791804Y-71649559D01*
X90564905Y-71556352D01*
X90329791Y-71510687D01*
X90093094Y-71510344D01*
X89861446Y-71553105D01*
X89641478Y-71636750D01*
X89439822Y-71759061D01*
X89263111Y-71917817D01*
X89117977Y-72110801D01*
X89011050Y-72335793D01*
X88948964Y-72590575D01*
X88937569Y-72713377D01*
X88953246Y-72979434D01*
X89023846Y-73231856D01*
X89147282Y-73466182D01*
X89321466Y-73677952D01*
X89544311Y-73862704D01*
X89622561Y-73921123D01*
X89681244Y-73974110D01*
X89703678Y-74007356D01*
X89694732Y-74036339D01*
X89665703Y-74113996D01*
X89619026Y-74233451D01*
X89557231Y-74388362D01*
X89482850Y-74572392D01*
X89398412Y-74779200D01*
X89306449Y-75002446D01*
X89222771Y-75204742D01*
X89136366Y-75413686D01*
X89059138Y-75600498D01*
X88993716Y-75758814D01*
X88942731Y-75882269D01*
X88908812Y-75964498D01*
X88894590Y-75999138D01*
X88894425Y-75999548D01*
X88865972Y-76028798D01*
X88811382Y-76028463D01*
X88723609Y-75996980D01*
X88595608Y-75932785D01*
X88585532Y-75927380D01*
X88490481Y-75878750D01*
X88415424Y-75844328D01*
X88375842Y-75831264D01*
X88343400Y-75846702D01*
X88270895Y-75890258D01*
X88166565Y-75956751D01*
X88038539Y-76040998D01*
X87894948Y-76137816D01*
X87753468Y-76232734D01*
X87622611Y-76317490D01*
X87514292Y-76384496D01*
X87436960Y-76428529D01*
X87399062Y-76444368D01*
X87392607Y-76442357D01*
X87347609Y-76410658D01*
X87270727Y-76345181D01*
X87168721Y-76252048D01*
X87048351Y-76137381D01*
X86916379Y-76007300D01*
X86480039Y-75570232D01*
X87159733Y-74570440D01*
X87056402Y-74346886D01*
X87056096Y-74346225D01*
X86994046Y-74203714D01*
X86930640Y-74045018D01*
X86879558Y-73904368D01*
X86871827Y-73881683D01*
X86832852Y-73776370D01*
X86797707Y-73694534D01*
X86773195Y-73652301D01*
X86763212Y-73646337D01*
X86703286Y-73626329D01*
X86601532Y-73600442D01*
X86469068Y-73571370D01*
X86317011Y-73541806D01*
X86271466Y-73533467D01*
X86106685Y-73503107D01*
X85952930Y-73474509D01*
X85825678Y-73450564D01*
X85740402Y-73434160D01*
X85587126Y-73403906D01*
X85587126Y-72765645D01*
X85587160Y-72687165D01*
X85587808Y-72495703D01*
X85589720Y-72352812D01*
X85593469Y-72251189D01*
X85599622Y-72183531D01*
X85608751Y-72142536D01*
X85621427Y-72120900D01*
X85638218Y-72111320D01*
X85654474Y-72107439D01*
X85720748Y-72093710D01*
X85826479Y-72072745D01*
X85960915Y-72046588D01*
X86113302Y-72017283D01*
X86272890Y-71986877D01*
X86428925Y-71957413D01*
X86570657Y-71930937D01*
X86687331Y-71909494D01*
X86768197Y-71895128D01*
X86802503Y-71889885D01*
X86804822Y-71886720D01*
X86823474Y-71845642D01*
X86855753Y-71767044D01*
X86896391Y-71663621D01*
X86952788Y-71524273D01*
X87022214Y-71363226D01*
X87087288Y-71221291D01*
X87102202Y-71189432D01*
X87144047Y-71089669D01*
X87169118Y-71012721D01*
X87172426Y-70973130D01*
X87170720Y-70970325D01*
X87143631Y-70929005D01*
X87089927Y-70848740D01*
X87014877Y-70737350D01*
X86923746Y-70602655D01*
X86821800Y-70452476D01*
X86706930Y-70281851D01*
X86620761Y-70149311D01*
X86562131Y-70052112D01*
X86527650Y-69984234D01*
X86513926Y-69939656D01*
X86517568Y-69912361D01*
X86518794Y-69910313D01*
X86551747Y-69870536D01*
X86618927Y-69798052D01*
X86713419Y-69700046D01*
X86828306Y-69583702D01*
X86956672Y-69456205D01*
X87089831Y-69326821D01*
X87220269Y-69205209D01*
X87316119Y-69123156D01*
X87379866Y-69078560D01*
X87413996Y-69069317D01*
X87418456Y-69071393D01*
X87465421Y-69099385D01*
X87550685Y-69154084D01*
X87666259Y-69230237D01*
X87804154Y-69322592D01*
X87956381Y-69425897D01*
X88452610Y-69764765D01*
X88676707Y-69663056D01*
X88683219Y-69660109D01*
X88820804Y-69600504D01*
X88966767Y-69541222D01*
X89090575Y-69494685D01*
X89091122Y-69494493D01*
X89189414Y-69458497D01*
X89265081Y-69428095D01*
X89301780Y-69409852D01*
X89302374Y-69409190D01*
X89314833Y-69371831D01*
X89335336Y-69286871D01*
X89361907Y-69163469D01*
X89392567Y-69010782D01*
X89425336Y-68837967D01*
X89426478Y-68831774D01*
X89459193Y-68655431D01*
X89489155Y-68495743D01*
X89514425Y-68362905D01*
X89533065Y-68267113D01*
X89543135Y-68218563D01*
X89543779Y-68215873D01*
X89550408Y-68195088D01*
X89563841Y-68179466D01*
X89591446Y-68168270D01*
X89640593Y-68160762D01*
X89718653Y-68156205D01*
X89832994Y-68153863D01*
X89990986Y-68152998D01*
X90200000Y-68152874D01*
X90226262Y-68152874D01*
X90429175Y-68153045D01*
X83856561Y-77656540D02*
X83741050Y-77732034D01*
X83741050Y-77732034D02*
X83685336Y-77799617D01*
X83685336Y-77799617D02*
X83641196Y-77922255D01*
X83641196Y-77922255D02*
X83637691Y-78019298D01*
X83637691Y-78019298D02*
X83645632Y-78149056D01*
X83645632Y-78149056D02*
X83944885Y-78280039D01*
X83944885Y-78280039D02*
X84090389Y-78346958D01*
X84090389Y-78346958D02*
X84185463Y-78400790D01*
X84185463Y-78400790D02*
X84234899Y-78447416D01*
X84234899Y-78447416D02*
X84243489Y-78492720D01*
X84243489Y-78492720D02*
X84216028Y-78542582D01*
X84216028Y-78542582D02*
X84185747Y-78575632D01*
X84185747Y-78575632D02*
X84097637Y-78628633D01*
X84097637Y-78628633D02*
X84001804Y-78632347D01*
X84001804Y-78632347D02*
X83913788Y-78591041D01*
X83913788Y-78591041D02*
X83849131Y-78508983D01*
X83849131Y-78508983D02*
X83837567Y-78480008D01*
X83837567Y-78480008D02*
X83782175Y-78389509D01*
X83782175Y-78389509D02*
X83718447Y-78350940D01*
X83718447Y-78350940D02*
X83631034Y-78317946D01*
X83631034Y-78317946D02*
X83631034Y-78443034D01*
X83631034Y-78443034D02*
X83638762Y-78528156D01*
X83638762Y-78528156D02*
X83669034Y-78599938D01*
X83669034Y-78599938D02*
X83732482Y-78682356D01*
X83732482Y-78682356D02*
X83741912Y-78693066D01*
X83741912Y-78693066D02*
X83812487Y-78766391D01*
X83812487Y-78766391D02*
X83873153Y-78805742D01*
X83873153Y-78805742D02*
X83949050Y-78823845D01*
X83949050Y-78823845D02*
X84011970Y-78829774D01*
X84011970Y-78829774D02*
X84124513Y-78831251D01*
X84124513Y-78831251D02*
X84204630Y-78812535D01*
X84204630Y-78812535D02*
X84254610Y-78784747D01*
X84254610Y-78784747D02*
X84333162Y-78723641D01*
X84333162Y-78723641D02*
X84387537Y-78657554D01*
X84387537Y-78657554D02*
X84421948Y-78574441D01*
X84421948Y-78574441D02*
X84440612Y-78462254D01*
X84440612Y-78462254D02*
X84447744Y-78308946D01*
X84447744Y-78308946D02*
X84448313Y-78231136D01*
X84448313Y-78231136D02*
X84446378Y-78137853D01*
X84446378Y-78137853D02*
X84270101Y-78137853D01*
X84270101Y-78137853D02*
X84268056Y-78187896D01*
X84268056Y-78187896D02*
X84262961Y-78196092D01*
X84262961Y-78196092D02*
X84229334Y-78184958D01*
X84229334Y-78184958D02*
X84156970Y-78155493D01*
X84156970Y-78155493D02*
X84060253Y-78113601D01*
X84060253Y-78113601D02*
X84040027Y-78104597D01*
X84040027Y-78104597D02*
X83917797Y-78042442D01*
X83917797Y-78042442D02*
X83850453Y-77987815D01*
X83850453Y-77987815D02*
X83835652Y-77936649D01*
X83835652Y-77936649D02*
X83871053Y-77884876D01*
X83871053Y-77884876D02*
X83900289Y-77862000D01*
X83900289Y-77862000D02*
X84005784Y-77816250D01*
X84005784Y-77816250D02*
X84104524Y-77823808D01*
X84104524Y-77823808D02*
X84187188Y-77879651D01*
X84187188Y-77879651D02*
X84244452Y-77978753D01*
X84244452Y-77978753D02*
X84262812Y-78057414D01*
X84262812Y-78057414D02*
X84270101Y-78137853D01*
X84270101Y-78137853D02*
X84446378Y-78137853D01*
X84446378Y-78137853D02*
X84444541Y-78049351D01*
X84444541Y-78049351D02*
X84430641Y-77914853D01*
X84430641Y-77914853D02*
X84403106Y-77816916D01*
X84403106Y-77816916D02*
X84358428Y-77744811D01*
X84358428Y-77744811D02*
X84293099Y-77687813D01*
X84293099Y-77687813D02*
X84264617Y-77669393D01*
X84264617Y-77669393D02*
X84135237Y-77621422D01*
X84135237Y-77621422D02*
X83993588Y-77618403D01*
X83993588Y-77618403D02*
X83856561Y-77656540D01*
X83856561Y-77656540D02*
X83856561Y-77656540D01*
G36*
X84447744Y-78308946D02*
G01*
X84440612Y-78462254D01*
X84421948Y-78574441D01*
X84387537Y-78657554D01*
X84333162Y-78723641D01*
X84254610Y-78784747D01*
X84204630Y-78812535D01*
X84124513Y-78831251D01*
X84011970Y-78829774D01*
X83949050Y-78823845D01*
X83873153Y-78805742D01*
X83812487Y-78766391D01*
X83741912Y-78693066D01*
X83732482Y-78682356D01*
X83669034Y-78599938D01*
X83638762Y-78528156D01*
X83631034Y-78443034D01*
X83631034Y-78317946D01*
X83718447Y-78350940D01*
X83782175Y-78389509D01*
X83837567Y-78480008D01*
X83849131Y-78508983D01*
X83913788Y-78591041D01*
X84001804Y-78632347D01*
X84097637Y-78628633D01*
X84185747Y-78575632D01*
X84216028Y-78542582D01*
X84243489Y-78492720D01*
X84234899Y-78447416D01*
X84185463Y-78400790D01*
X84090389Y-78346958D01*
X83944885Y-78280039D01*
X83645632Y-78149056D01*
X83637691Y-78019298D01*
X83640676Y-77936649D01*
X83835652Y-77936649D01*
X83850453Y-77987815D01*
X83917797Y-78042442D01*
X84040027Y-78104597D01*
X84060253Y-78113601D01*
X84156970Y-78155493D01*
X84229334Y-78184958D01*
X84262961Y-78196092D01*
X84268056Y-78187896D01*
X84270101Y-78137853D01*
X84262812Y-78057414D01*
X84244452Y-77978753D01*
X84187188Y-77879651D01*
X84104524Y-77823808D01*
X84005784Y-77816250D01*
X83900289Y-77862000D01*
X83871053Y-77884876D01*
X83835652Y-77936649D01*
X83640676Y-77936649D01*
X83641196Y-77922255D01*
X83685336Y-77799617D01*
X83741050Y-77732034D01*
X83856561Y-77656540D01*
X83993588Y-77618403D01*
X84135237Y-77621422D01*
X84264617Y-77669393D01*
X84293099Y-77687813D01*
X84358428Y-77744811D01*
X84403106Y-77816916D01*
X84430641Y-77914853D01*
X84444541Y-78049351D01*
X84446378Y-78137853D01*
X84448313Y-78231136D01*
X84447744Y-78308946D01*
G37*
X84447744Y-78308946D02*
X84440612Y-78462254D01*
X84421948Y-78574441D01*
X84387537Y-78657554D01*
X84333162Y-78723641D01*
X84254610Y-78784747D01*
X84204630Y-78812535D01*
X84124513Y-78831251D01*
X84011970Y-78829774D01*
X83949050Y-78823845D01*
X83873153Y-78805742D01*
X83812487Y-78766391D01*
X83741912Y-78693066D01*
X83732482Y-78682356D01*
X83669034Y-78599938D01*
X83638762Y-78528156D01*
X83631034Y-78443034D01*
X83631034Y-78317946D01*
X83718447Y-78350940D01*
X83782175Y-78389509D01*
X83837567Y-78480008D01*
X83849131Y-78508983D01*
X83913788Y-78591041D01*
X84001804Y-78632347D01*
X84097637Y-78628633D01*
X84185747Y-78575632D01*
X84216028Y-78542582D01*
X84243489Y-78492720D01*
X84234899Y-78447416D01*
X84185463Y-78400790D01*
X84090389Y-78346958D01*
X83944885Y-78280039D01*
X83645632Y-78149056D01*
X83637691Y-78019298D01*
X83640676Y-77936649D01*
X83835652Y-77936649D01*
X83850453Y-77987815D01*
X83917797Y-78042442D01*
X84040027Y-78104597D01*
X84060253Y-78113601D01*
X84156970Y-78155493D01*
X84229334Y-78184958D01*
X84262961Y-78196092D01*
X84268056Y-78187896D01*
X84270101Y-78137853D01*
X84262812Y-78057414D01*
X84244452Y-77978753D01*
X84187188Y-77879651D01*
X84104524Y-77823808D01*
X84005784Y-77816250D01*
X83900289Y-77862000D01*
X83871053Y-77884876D01*
X83835652Y-77936649D01*
X83640676Y-77936649D01*
X83641196Y-77922255D01*
X83685336Y-77799617D01*
X83741050Y-77732034D01*
X83856561Y-77656540D01*
X83993588Y-77618403D01*
X84135237Y-77621422D01*
X84264617Y-77669393D01*
X84293099Y-77687813D01*
X84358428Y-77744811D01*
X84403106Y-77816916D01*
X84430641Y-77914853D01*
X84444541Y-78049351D01*
X84446378Y-78137853D01*
X84448313Y-78231136D01*
X84447744Y-78308946D01*
X85885594Y-77635156D02*
X85801531Y-77673393D01*
X85801531Y-77673393D02*
X85735550Y-77719726D01*
X85735550Y-77719726D02*
X85687206Y-77771532D01*
X85687206Y-77771532D02*
X85653828Y-77838363D01*
X85653828Y-77838363D02*
X85632747Y-77929769D01*
X85632747Y-77929769D02*
X85621293Y-78055301D01*
X85621293Y-78055301D02*
X85616797Y-78224508D01*
X85616797Y-78224508D02*
X85616322Y-78335933D01*
X85616322Y-78335933D02*
X85616322Y-78770627D01*
X85616322Y-78770627D02*
X85690684Y-78804509D01*
X85690684Y-78804509D02*
X85749254Y-78829272D01*
X85749254Y-78829272D02*
X85778270Y-78838391D01*
X85778270Y-78838391D02*
X85783821Y-78811257D01*
X85783821Y-78811257D02*
X85788225Y-78738094D01*
X85788225Y-78738094D02*
X85790922Y-78631263D01*
X85790922Y-78631263D02*
X85791494Y-78546437D01*
X85791494Y-78546437D02*
X85793954Y-78423887D01*
X85793954Y-78423887D02*
X85800588Y-78326668D01*
X85800588Y-78326668D02*
X85810274Y-78267134D01*
X85810274Y-78267134D02*
X85817968Y-78254483D01*
X85817968Y-78254483D02*
X85869689Y-78267402D01*
X85869689Y-78267402D02*
X85950883Y-78300539D01*
X85950883Y-78300539D02*
X86044898Y-78345461D01*
X86044898Y-78345461D02*
X86135083Y-78393735D01*
X86135083Y-78393735D02*
X86204785Y-78436928D01*
X86204785Y-78436928D02*
X86237352Y-78466608D01*
X86237352Y-78466608D02*
X86237481Y-78466929D01*
X86237481Y-78466929D02*
X86234680Y-78521857D01*
X86234680Y-78521857D02*
X86209561Y-78574292D01*
X86209561Y-78574292D02*
X86165459Y-78616881D01*
X86165459Y-78616881D02*
X86101091Y-78631126D01*
X86101091Y-78631126D02*
X86046079Y-78629466D01*
X86046079Y-78629466D02*
X85968165Y-78628245D01*
X85968165Y-78628245D02*
X85927268Y-78646498D01*
X85927268Y-78646498D02*
X85902705Y-78694726D01*
X85902705Y-78694726D02*
X85899608Y-78703820D01*
X85899608Y-78703820D02*
X85888960Y-78772598D01*
X85888960Y-78772598D02*
X85917435Y-78814360D01*
X85917435Y-78814360D02*
X85991656Y-78834263D01*
X85991656Y-78834263D02*
X86071832Y-78837944D01*
X86071832Y-78837944D02*
X86216110Y-78810658D01*
X86216110Y-78810658D02*
X86290797Y-78771690D01*
X86290797Y-78771690D02*
X86383037Y-78680148D01*
X86383037Y-78680148D02*
X86431957Y-78567782D01*
X86431957Y-78567782D02*
X86436346Y-78449051D01*
X86436346Y-78449051D02*
X86394999Y-78338411D01*
X86394999Y-78338411D02*
X86332803Y-78269080D01*
X86332803Y-78269080D02*
X86270706Y-78230265D01*
X86270706Y-78230265D02*
X86173105Y-78181125D01*
X86173105Y-78181125D02*
X86059368Y-78131292D01*
X86059368Y-78131292D02*
X86040410Y-78123677D01*
X86040410Y-78123677D02*
X85915479Y-78068545D01*
X85915479Y-78068545D02*
X85843461Y-78019954D01*
X85843461Y-78019954D02*
X85820300Y-77971647D01*
X85820300Y-77971647D02*
X85841936Y-77917370D01*
X85841936Y-77917370D02*
X85879080Y-77874943D01*
X85879080Y-77874943D02*
X85966873Y-77822702D01*
X85966873Y-77822702D02*
X86063470Y-77818784D01*
X86063470Y-77818784D02*
X86152056Y-77859041D01*
X86152056Y-77859041D02*
X86215814Y-77939326D01*
X86215814Y-77939326D02*
X86224183Y-77960040D01*
X86224183Y-77960040D02*
X86272904Y-78036225D01*
X86272904Y-78036225D02*
X86344035Y-78092785D01*
X86344035Y-78092785D02*
X86433793Y-78139201D01*
X86433793Y-78139201D02*
X86433793Y-78007584D01*
X86433793Y-78007584D02*
X86428510Y-77927168D01*
X86428510Y-77927168D02*
X86405858Y-77863786D01*
X86405858Y-77863786D02*
X86355633Y-77796163D01*
X86355633Y-77796163D02*
X86307418Y-77744076D01*
X86307418Y-77744076D02*
X86232446Y-77670322D01*
X86232446Y-77670322D02*
X86174194Y-77630702D01*
X86174194Y-77630702D02*
X86111628Y-77614810D01*
X86111628Y-77614810D02*
X86040807Y-77612184D01*
X86040807Y-77612184D02*
X85885594Y-77635156D01*
X85885594Y-77635156D02*
X85885594Y-77635156D01*
G36*
X86111628Y-77614810D02*
G01*
X86174194Y-77630702D01*
X86232446Y-77670322D01*
X86307418Y-77744076D01*
X86355633Y-77796163D01*
X86405858Y-77863786D01*
X86428510Y-77927168D01*
X86433793Y-78007584D01*
X86433793Y-78139201D01*
X86344035Y-78092785D01*
X86272904Y-78036225D01*
X86224183Y-77960040D01*
X86215814Y-77939326D01*
X86152056Y-77859041D01*
X86063470Y-77818784D01*
X85966873Y-77822702D01*
X85879080Y-77874943D01*
X85841936Y-77917370D01*
X85820300Y-77971647D01*
X85843461Y-78019954D01*
X85915479Y-78068545D01*
X86040410Y-78123677D01*
X86059368Y-78131292D01*
X86173105Y-78181125D01*
X86270706Y-78230265D01*
X86332803Y-78269080D01*
X86394999Y-78338411D01*
X86436346Y-78449051D01*
X86431957Y-78567782D01*
X86383037Y-78680148D01*
X86290797Y-78771690D01*
X86216110Y-78810658D01*
X86071832Y-78837944D01*
X85991656Y-78834263D01*
X85917435Y-78814360D01*
X85888960Y-78772598D01*
X85899608Y-78703820D01*
X85902705Y-78694726D01*
X85927268Y-78646498D01*
X85968165Y-78628245D01*
X86046079Y-78629466D01*
X86101091Y-78631126D01*
X86165459Y-78616881D01*
X86209561Y-78574292D01*
X86234680Y-78521857D01*
X86237481Y-78466929D01*
X86237352Y-78466608D01*
X86204785Y-78436928D01*
X86135083Y-78393735D01*
X86044898Y-78345461D01*
X85950883Y-78300539D01*
X85869689Y-78267402D01*
X85817968Y-78254483D01*
X85810274Y-78267134D01*
X85800588Y-78326668D01*
X85793954Y-78423887D01*
X85791494Y-78546437D01*
X85790922Y-78631263D01*
X85788225Y-78738094D01*
X85783821Y-78811257D01*
X85778270Y-78838391D01*
X85749254Y-78829272D01*
X85690684Y-78804509D01*
X85616322Y-78770627D01*
X85616322Y-78335933D01*
X85616797Y-78224508D01*
X85621293Y-78055301D01*
X85632747Y-77929769D01*
X85653828Y-77838363D01*
X85687206Y-77771532D01*
X85735550Y-77719726D01*
X85801531Y-77673393D01*
X85885594Y-77635156D01*
X86040807Y-77612184D01*
X86111628Y-77614810D01*
G37*
X86111628Y-77614810D02*
X86174194Y-77630702D01*
X86232446Y-77670322D01*
X86307418Y-77744076D01*
X86355633Y-77796163D01*
X86405858Y-77863786D01*
X86428510Y-77927168D01*
X86433793Y-78007584D01*
X86433793Y-78139201D01*
X86344035Y-78092785D01*
X86272904Y-78036225D01*
X86224183Y-77960040D01*
X86215814Y-77939326D01*
X86152056Y-77859041D01*
X86063470Y-77818784D01*
X85966873Y-77822702D01*
X85879080Y-77874943D01*
X85841936Y-77917370D01*
X85820300Y-77971647D01*
X85843461Y-78019954D01*
X85915479Y-78068545D01*
X86040410Y-78123677D01*
X86059368Y-78131292D01*
X86173105Y-78181125D01*
X86270706Y-78230265D01*
X86332803Y-78269080D01*
X86394999Y-78338411D01*
X86436346Y-78449051D01*
X86431957Y-78567782D01*
X86383037Y-78680148D01*
X86290797Y-78771690D01*
X86216110Y-78810658D01*
X86071832Y-78837944D01*
X85991656Y-78834263D01*
X85917435Y-78814360D01*
X85888960Y-78772598D01*
X85899608Y-78703820D01*
X85902705Y-78694726D01*
X85927268Y-78646498D01*
X85968165Y-78628245D01*
X86046079Y-78629466D01*
X86101091Y-78631126D01*
X86165459Y-78616881D01*
X86209561Y-78574292D01*
X86234680Y-78521857D01*
X86237481Y-78466929D01*
X86237352Y-78466608D01*
X86204785Y-78436928D01*
X86135083Y-78393735D01*
X86044898Y-78345461D01*
X85950883Y-78300539D01*
X85869689Y-78267402D01*
X85817968Y-78254483D01*
X85810274Y-78267134D01*
X85800588Y-78326668D01*
X85793954Y-78423887D01*
X85791494Y-78546437D01*
X85790922Y-78631263D01*
X85788225Y-78738094D01*
X85783821Y-78811257D01*
X85778270Y-78838391D01*
X85749254Y-78829272D01*
X85690684Y-78804509D01*
X85616322Y-78770627D01*
X85616322Y-78335933D01*
X85616797Y-78224508D01*
X85621293Y-78055301D01*
X85632747Y-77929769D01*
X85653828Y-77838363D01*
X85687206Y-77771532D01*
X85735550Y-77719726D01*
X85801531Y-77673393D01*
X85885594Y-77635156D01*
X86040807Y-77612184D01*
X86111628Y-77614810D01*
X89134057Y-77621920D02*
X89001435Y-77670859D01*
X89001435Y-77670859D02*
X88893990Y-77757419D01*
X88893990Y-77757419D02*
X88851968Y-77818352D01*
X88851968Y-77818352D02*
X88806157Y-77930161D01*
X88806157Y-77930161D02*
X88807109Y-78011006D01*
X88807109Y-78011006D02*
X88855192Y-78065378D01*
X88855192Y-78065378D02*
X88872983Y-78074624D01*
X88872983Y-78074624D02*
X88949796Y-78103450D01*
X88949796Y-78103450D02*
X88989024Y-78096065D01*
X88989024Y-78096065D02*
X89002311Y-78047658D01*
X89002311Y-78047658D02*
X89002988Y-78020920D01*
X89002988Y-78020920D02*
X89027314Y-77922548D01*
X89027314Y-77922548D02*
X89090719Y-77853734D01*
X89090719Y-77853734D02*
X89178846Y-77820498D01*
X89178846Y-77820498D02*
X89277337Y-77828861D01*
X89277337Y-77828861D02*
X89357398Y-77872296D01*
X89357398Y-77872296D02*
X89384439Y-77897072D01*
X89384439Y-77897072D02*
X89403606Y-77927129D01*
X89403606Y-77927129D02*
X89416554Y-77972565D01*
X89416554Y-77972565D02*
X89424936Y-78043476D01*
X89424936Y-78043476D02*
X89430407Y-78149960D01*
X89430407Y-78149960D02*
X89434622Y-78302112D01*
X89434622Y-78302112D02*
X89435713Y-78350287D01*
X89435713Y-78350287D02*
X89439693Y-78515095D01*
X89439693Y-78515095D02*
X89444219Y-78631088D01*
X89444219Y-78631088D02*
X89451005Y-78707833D01*
X89451005Y-78707833D02*
X89461769Y-78754893D01*
X89461769Y-78754893D02*
X89478227Y-78781835D01*
X89478227Y-78781835D02*
X89502094Y-78798223D01*
X89502094Y-78798223D02*
X89517374Y-78805463D01*
X89517374Y-78805463D02*
X89582267Y-78830220D01*
X89582267Y-78830220D02*
X89620466Y-78838391D01*
X89620466Y-78838391D02*
X89633088Y-78811103D01*
X89633088Y-78811103D02*
X89640792Y-78728603D01*
X89640792Y-78728603D02*
X89643620Y-78589941D01*
X89643620Y-78589941D02*
X89641614Y-78394162D01*
X89641614Y-78394162D02*
X89640989Y-78363965D01*
X89640989Y-78363965D02*
X89636579Y-78185349D01*
X89636579Y-78185349D02*
X89631365Y-78054923D01*
X89631365Y-78054923D02*
X89623945Y-77962492D01*
X89623945Y-77962492D02*
X89612918Y-77897858D01*
X89612918Y-77897858D02*
X89596883Y-77850825D01*
X89596883Y-77850825D02*
X89574439Y-77811196D01*
X89574439Y-77811196D02*
X89562698Y-77794215D01*
X89562698Y-77794215D02*
X89495381Y-77719080D01*
X89495381Y-77719080D02*
X89420090Y-77660638D01*
X89420090Y-77660638D02*
X89410872Y-77655536D01*
X89410872Y-77655536D02*
X89275867Y-77615260D01*
X89275867Y-77615260D02*
X89134057Y-77621920D01*
X89134057Y-77621920D02*
X89134057Y-77621920D01*
G36*
X89410872Y-77655536D02*
G01*
X89420090Y-77660638D01*
X89495381Y-77719080D01*
X89562698Y-77794215D01*
X89574439Y-77811196D01*
X89596883Y-77850825D01*
X89612918Y-77897858D01*
X89623945Y-77962492D01*
X89631365Y-78054923D01*
X89636579Y-78185349D01*
X89640989Y-78363965D01*
X89641614Y-78394162D01*
X89643620Y-78589941D01*
X89640792Y-78728603D01*
X89633088Y-78811103D01*
X89620466Y-78838391D01*
X89582267Y-78830220D01*
X89517374Y-78805463D01*
X89502094Y-78798223D01*
X89478227Y-78781835D01*
X89461769Y-78754893D01*
X89451005Y-78707833D01*
X89444219Y-78631088D01*
X89439693Y-78515095D01*
X89435713Y-78350287D01*
X89434622Y-78302112D01*
X89430407Y-78149960D01*
X89424936Y-78043476D01*
X89416554Y-77972565D01*
X89403606Y-77927129D01*
X89384439Y-77897072D01*
X89357398Y-77872296D01*
X89277337Y-77828861D01*
X89178846Y-77820498D01*
X89090719Y-77853734D01*
X89027314Y-77922548D01*
X89002988Y-78020920D01*
X89002311Y-78047658D01*
X88989024Y-78096065D01*
X88949796Y-78103450D01*
X88872983Y-78074624D01*
X88855192Y-78065378D01*
X88807109Y-78011006D01*
X88806157Y-77930161D01*
X88851968Y-77818352D01*
X88893990Y-77757419D01*
X89001435Y-77670859D01*
X89134057Y-77621920D01*
X89275867Y-77615260D01*
X89410872Y-77655536D01*
G37*
X89410872Y-77655536D02*
X89420090Y-77660638D01*
X89495381Y-77719080D01*
X89562698Y-77794215D01*
X89574439Y-77811196D01*
X89596883Y-77850825D01*
X89612918Y-77897858D01*
X89623945Y-77962492D01*
X89631365Y-78054923D01*
X89636579Y-78185349D01*
X89640989Y-78363965D01*
X89641614Y-78394162D01*
X89643620Y-78589941D01*
X89640792Y-78728603D01*
X89633088Y-78811103D01*
X89620466Y-78838391D01*
X89582267Y-78830220D01*
X89517374Y-78805463D01*
X89502094Y-78798223D01*
X89478227Y-78781835D01*
X89461769Y-78754893D01*
X89451005Y-78707833D01*
X89444219Y-78631088D01*
X89439693Y-78515095D01*
X89435713Y-78350287D01*
X89434622Y-78302112D01*
X89430407Y-78149960D01*
X89424936Y-78043476D01*
X89416554Y-77972565D01*
X89403606Y-77927129D01*
X89384439Y-77897072D01*
X89357398Y-77872296D01*
X89277337Y-77828861D01*
X89178846Y-77820498D01*
X89090719Y-77853734D01*
X89027314Y-77922548D01*
X89002988Y-78020920D01*
X89002311Y-78047658D01*
X88989024Y-78096065D01*
X88949796Y-78103450D01*
X88872983Y-78074624D01*
X88855192Y-78065378D01*
X88807109Y-78011006D01*
X88806157Y-77930161D01*
X88851968Y-77818352D01*
X88893990Y-77757419D01*
X89001435Y-77670859D01*
X89134057Y-77621920D01*
X89275867Y-77615260D01*
X89410872Y-77655536D01*
X87806086Y-77854455D02*
X87806457Y-78072661D01*
X87806457Y-78072661D02*
X87807892Y-78240519D01*
X87807892Y-78240519D02*
X87810998Y-78366070D01*
X87810998Y-78366070D02*
X87816378Y-78457355D01*
X87816378Y-78457355D02*
X87824638Y-78522415D01*
X87824638Y-78522415D02*
X87836384Y-78569291D01*
X87836384Y-78569291D02*
X87852219Y-78606024D01*
X87852219Y-78606024D02*
X87864210Y-78626991D01*
X87864210Y-78626991D02*
X87963510Y-78740694D01*
X87963510Y-78740694D02*
X88089412Y-78811965D01*
X88089412Y-78811965D02*
X88228709Y-78837538D01*
X88228709Y-78837538D02*
X88368195Y-78814150D01*
X88368195Y-78814150D02*
X88451257Y-78772119D01*
X88451257Y-78772119D02*
X88538455Y-78699411D01*
X88538455Y-78699411D02*
X88597883Y-78610612D01*
X88597883Y-78610612D02*
X88633739Y-78494320D01*
X88633739Y-78494320D02*
X88650219Y-78339135D01*
X88650219Y-78339135D02*
X88652553Y-78225287D01*
X88652553Y-78225287D02*
X88652239Y-78217106D01*
X88652239Y-78217106D02*
X88448276Y-78217106D01*
X88448276Y-78217106D02*
X88447030Y-78347657D01*
X88447030Y-78347657D02*
X88441322Y-78434080D01*
X88441322Y-78434080D02*
X88428196Y-78490618D01*
X88428196Y-78490618D02*
X88404694Y-78531514D01*
X88404694Y-78531514D02*
X88376614Y-78562362D01*
X88376614Y-78562362D02*
X88282312Y-78621905D01*
X88282312Y-78621905D02*
X88181060Y-78626992D01*
X88181060Y-78626992D02*
X88085364Y-78577279D01*
X88085364Y-78577279D02*
X88077916Y-78570543D01*
X88077916Y-78570543D02*
X88046126Y-78535502D01*
X88046126Y-78535502D02*
X88026192Y-78493811D01*
X88026192Y-78493811D02*
X88015400Y-78431762D01*
X88015400Y-78431762D02*
X88011035Y-78335644D01*
X88011035Y-78335644D02*
X88010345Y-78229379D01*
X88010345Y-78229379D02*
X88011841Y-78095880D01*
X88011841Y-78095880D02*
X88018036Y-78006822D01*
X88018036Y-78006822D02*
X88031486Y-77948293D01*
X88031486Y-77948293D02*
X88054749Y-77906382D01*
X88054749Y-77906382D02*
X88073825Y-77884123D01*
X88073825Y-77884123D02*
X88162437Y-77827985D01*
X88162437Y-77827985D02*
X88264492Y-77821235D01*
X88264492Y-77821235D02*
X88361905Y-77864114D01*
X88361905Y-77864114D02*
X88380704Y-77880032D01*
X88380704Y-77880032D02*
X88412707Y-77915382D01*
X88412707Y-77915382D02*
X88432682Y-77957502D01*
X88432682Y-77957502D02*
X88443407Y-78020251D01*
X88443407Y-78020251D02*
X88447661Y-78117487D01*
X88447661Y-78117487D02*
X88448276Y-78217106D01*
X88448276Y-78217106D02*
X88652239Y-78217106D01*
X88652239Y-78217106D02*
X88645496Y-78041947D01*
X88645496Y-78041947D02*
X88621528Y-77904195D01*
X88621528Y-77904195D02*
X88576452Y-77800632D01*
X88576452Y-77800632D02*
X88506072Y-77719856D01*
X88506072Y-77719856D02*
X88451257Y-77678455D01*
X88451257Y-77678455D02*
X88351624Y-77633728D01*
X88351624Y-77633728D02*
X88236145Y-77612967D01*
X88236145Y-77612967D02*
X88128801Y-77618525D01*
X88128801Y-77618525D02*
X88068736Y-77640943D01*
X88068736Y-77640943D02*
X88045165Y-77647323D01*
X88045165Y-77647323D02*
X88029523Y-77623535D01*
X88029523Y-77623535D02*
X88018605Y-77559788D01*
X88018605Y-77559788D02*
X88010345Y-77462687D01*
X88010345Y-77462687D02*
X88001301Y-77354541D01*
X88001301Y-77354541D02*
X87988739Y-77289475D01*
X87988739Y-77289475D02*
X87965881Y-77252268D01*
X87965881Y-77252268D02*
X87925949Y-77227699D01*
X87925949Y-77227699D02*
X87900862Y-77216819D01*
X87900862Y-77216819D02*
X87805977Y-77177072D01*
X87805977Y-77177072D02*
X87806086Y-77854455D01*
X87806086Y-77854455D02*
X87806086Y-77854455D01*
G36*
X88650219Y-78339135D02*
G01*
X88633739Y-78494320D01*
X88597883Y-78610612D01*
X88538455Y-78699411D01*
X88451257Y-78772119D01*
X88368195Y-78814150D01*
X88228709Y-78837538D01*
X88089412Y-78811965D01*
X87963510Y-78740694D01*
X87864210Y-78626991D01*
X87852219Y-78606024D01*
X87836384Y-78569291D01*
X87824638Y-78522415D01*
X87816378Y-78457355D01*
X87810998Y-78366070D01*
X87807892Y-78240519D01*
X87807797Y-78229379D01*
X88010345Y-78229379D01*
X88011035Y-78335644D01*
X88015400Y-78431762D01*
X88026192Y-78493811D01*
X88046126Y-78535502D01*
X88077916Y-78570543D01*
X88085364Y-78577279D01*
X88181060Y-78626992D01*
X88282312Y-78621905D01*
X88376614Y-78562362D01*
X88404694Y-78531514D01*
X88428196Y-78490618D01*
X88441322Y-78434080D01*
X88447030Y-78347657D01*
X88448276Y-78217106D01*
X88447661Y-78117487D01*
X88443407Y-78020251D01*
X88432682Y-77957502D01*
X88412707Y-77915382D01*
X88380704Y-77880032D01*
X88361905Y-77864114D01*
X88264492Y-77821235D01*
X88162437Y-77827985D01*
X88073825Y-77884123D01*
X88054749Y-77906382D01*
X88031486Y-77948293D01*
X88018036Y-78006822D01*
X88011841Y-78095880D01*
X88010345Y-78229379D01*
X87807797Y-78229379D01*
X87806457Y-78072661D01*
X87806086Y-77854455D01*
X87805977Y-77177072D01*
X87900862Y-77216819D01*
X87925949Y-77227699D01*
X87965881Y-77252268D01*
X87988739Y-77289475D01*
X88001301Y-77354541D01*
X88010345Y-77462687D01*
X88018605Y-77559788D01*
X88029523Y-77623535D01*
X88045165Y-77647323D01*
X88068736Y-77640943D01*
X88128801Y-77618525D01*
X88236145Y-77612967D01*
X88351624Y-77633728D01*
X88451257Y-77678455D01*
X88506072Y-77719856D01*
X88576452Y-77800632D01*
X88621528Y-77904195D01*
X88645496Y-78041947D01*
X88652239Y-78217106D01*
X88652553Y-78225287D01*
X88650219Y-78339135D01*
G37*
X88650219Y-78339135D02*
X88633739Y-78494320D01*
X88597883Y-78610612D01*
X88538455Y-78699411D01*
X88451257Y-78772119D01*
X88368195Y-78814150D01*
X88228709Y-78837538D01*
X88089412Y-78811965D01*
X87963510Y-78740694D01*
X87864210Y-78626991D01*
X87852219Y-78606024D01*
X87836384Y-78569291D01*
X87824638Y-78522415D01*
X87816378Y-78457355D01*
X87810998Y-78366070D01*
X87807892Y-78240519D01*
X87807797Y-78229379D01*
X88010345Y-78229379D01*
X88011035Y-78335644D01*
X88015400Y-78431762D01*
X88026192Y-78493811D01*
X88046126Y-78535502D01*
X88077916Y-78570543D01*
X88085364Y-78577279D01*
X88181060Y-78626992D01*
X88282312Y-78621905D01*
X88376614Y-78562362D01*
X88404694Y-78531514D01*
X88428196Y-78490618D01*
X88441322Y-78434080D01*
X88447030Y-78347657D01*
X88448276Y-78217106D01*
X88447661Y-78117487D01*
X88443407Y-78020251D01*
X88432682Y-77957502D01*
X88412707Y-77915382D01*
X88380704Y-77880032D01*
X88361905Y-77864114D01*
X88264492Y-77821235D01*
X88162437Y-77827985D01*
X88073825Y-77884123D01*
X88054749Y-77906382D01*
X88031486Y-77948293D01*
X88018036Y-78006822D01*
X88011841Y-78095880D01*
X88010345Y-78229379D01*
X87807797Y-78229379D01*
X87806457Y-78072661D01*
X87806086Y-77854455D01*
X87805977Y-77177072D01*
X87900862Y-77216819D01*
X87925949Y-77227699D01*
X87965881Y-77252268D01*
X87988739Y-77289475D01*
X88001301Y-77354541D01*
X88010345Y-77462687D01*
X88018605Y-77559788D01*
X88029523Y-77623535D01*
X88045165Y-77647323D01*
X88068736Y-77640943D01*
X88128801Y-77618525D01*
X88236145Y-77612967D01*
X88351624Y-77633728D01*
X88451257Y-77678455D01*
X88506072Y-77719856D01*
X88576452Y-77800632D01*
X88621528Y-77904195D01*
X88645496Y-78041947D01*
X88652239Y-78217106D01*
X88652553Y-78225287D01*
X88650219Y-78339135D01*
X84864310Y-77640018D02*
X84829415Y-77655269D01*
X84829415Y-77655269D02*
X84746123Y-77721235D01*
X84746123Y-77721235D02*
X84674897Y-77816618D01*
X84674897Y-77816618D02*
X84630847Y-77918406D01*
X84630847Y-77918406D02*
X84623678Y-77968587D01*
X84623678Y-77968587D02*
X84647715Y-78038647D01*
X84647715Y-78038647D02*
X84700439Y-78075717D01*
X84700439Y-78075717D02*
X84756969Y-78098164D01*
X84756969Y-78098164D02*
X84782854Y-78102300D01*
X84782854Y-78102300D02*
X84795458Y-78072283D01*
X84795458Y-78072283D02*
X84820346Y-78006961D01*
X84820346Y-78006961D02*
X84831265Y-77977445D01*
X84831265Y-77977445D02*
X84892492Y-77875348D01*
X84892492Y-77875348D02*
X84981139Y-77824423D01*
X84981139Y-77824423D02*
X85094807Y-77825989D01*
X85094807Y-77825989D02*
X85103226Y-77827994D01*
X85103226Y-77827994D02*
X85163912Y-77856767D01*
X85163912Y-77856767D02*
X85208526Y-77912859D01*
X85208526Y-77912859D02*
X85238998Y-78003163D01*
X85238998Y-78003163D02*
X85257256Y-78134571D01*
X85257256Y-78134571D02*
X85265229Y-78313974D01*
X85265229Y-78313974D02*
X85265977Y-78409433D01*
X85265977Y-78409433D02*
X85266348Y-78559913D01*
X85266348Y-78559913D02*
X85268777Y-78662495D01*
X85268777Y-78662495D02*
X85275240Y-78727672D01*
X85275240Y-78727672D02*
X85287712Y-78765938D01*
X85287712Y-78765938D02*
X85308167Y-78787785D01*
X85308167Y-78787785D02*
X85338581Y-78803707D01*
X85338581Y-78803707D02*
X85340339Y-78804509D01*
X85340339Y-78804509D02*
X85398909Y-78829272D01*
X85398909Y-78829272D02*
X85427925Y-78838391D01*
X85427925Y-78838391D02*
X85432384Y-78810822D01*
X85432384Y-78810822D02*
X85436201Y-78734620D01*
X85436201Y-78734620D02*
X85439101Y-78619541D01*
X85439101Y-78619541D02*
X85440809Y-78475341D01*
X85440809Y-78475341D02*
X85441149Y-78369814D01*
X85441149Y-78369814D02*
X85439412Y-78165613D01*
X85439412Y-78165613D02*
X85432618Y-78010697D01*
X85432618Y-78010697D02*
X85418393Y-77896024D01*
X85418393Y-77896024D02*
X85394362Y-77812551D01*
X85394362Y-77812551D02*
X85358152Y-77751236D01*
X85358152Y-77751236D02*
X85307388Y-77703034D01*
X85307388Y-77703034D02*
X85257261Y-77669393D01*
X85257261Y-77669393D02*
X85136725Y-77624619D01*
X85136725Y-77624619D02*
X84996443Y-77614521D01*
X84996443Y-77614521D02*
X84864310Y-77640018D01*
X84864310Y-77640018D02*
X84864310Y-77640018D01*
G36*
X85136725Y-77624619D02*
G01*
X85257261Y-77669393D01*
X85307388Y-77703034D01*
X85358152Y-77751236D01*
X85394362Y-77812551D01*
X85418393Y-77896024D01*
X85432618Y-78010697D01*
X85439412Y-78165613D01*
X85441149Y-78369814D01*
X85440809Y-78475341D01*
X85439101Y-78619541D01*
X85436201Y-78734620D01*
X85432384Y-78810822D01*
X85427925Y-78838391D01*
X85398909Y-78829272D01*
X85340339Y-78804509D01*
X85338581Y-78803707D01*
X85308167Y-78787785D01*
X85287712Y-78765938D01*
X85275240Y-78727672D01*
X85268777Y-78662495D01*
X85266348Y-78559913D01*
X85265977Y-78409433D01*
X85265229Y-78313974D01*
X85257256Y-78134571D01*
X85238998Y-78003163D01*
X85208526Y-77912859D01*
X85163912Y-77856767D01*
X85103226Y-77827994D01*
X85094807Y-77825989D01*
X84981139Y-77824423D01*
X84892492Y-77875348D01*
X84831265Y-77977445D01*
X84820346Y-78006961D01*
X84795458Y-78072283D01*
X84782854Y-78102300D01*
X84756969Y-78098164D01*
X84700439Y-78075717D01*
X84647715Y-78038647D01*
X84623678Y-77968587D01*
X84630847Y-77918406D01*
X84674897Y-77816618D01*
X84746123Y-77721235D01*
X84829415Y-77655269D01*
X84864310Y-77640018D01*
X84996443Y-77614521D01*
X85136725Y-77624619D01*
G37*
X85136725Y-77624619D02*
X85257261Y-77669393D01*
X85307388Y-77703034D01*
X85358152Y-77751236D01*
X85394362Y-77812551D01*
X85418393Y-77896024D01*
X85432618Y-78010697D01*
X85439412Y-78165613D01*
X85441149Y-78369814D01*
X85440809Y-78475341D01*
X85439101Y-78619541D01*
X85436201Y-78734620D01*
X85432384Y-78810822D01*
X85427925Y-78838391D01*
X85398909Y-78829272D01*
X85340339Y-78804509D01*
X85338581Y-78803707D01*
X85308167Y-78787785D01*
X85287712Y-78765938D01*
X85275240Y-78727672D01*
X85268777Y-78662495D01*
X85266348Y-78559913D01*
X85265977Y-78409433D01*
X85265229Y-78313974D01*
X85257256Y-78134571D01*
X85238998Y-78003163D01*
X85208526Y-77912859D01*
X85163912Y-77856767D01*
X85103226Y-77827994D01*
X85094807Y-77825989D01*
X84981139Y-77824423D01*
X84892492Y-77875348D01*
X84831265Y-77977445D01*
X84820346Y-78006961D01*
X84795458Y-78072283D01*
X84782854Y-78102300D01*
X84756969Y-78098164D01*
X84700439Y-78075717D01*
X84647715Y-78038647D01*
X84623678Y-77968587D01*
X84630847Y-77918406D01*
X84674897Y-77816618D01*
X84746123Y-77721235D01*
X84829415Y-77655269D01*
X84864310Y-77640018D01*
X84996443Y-77614521D01*
X85136725Y-77624619D01*
X91455402Y-77423857D02*
X91446846Y-77543188D01*
X91446846Y-77543188D02*
X91437019Y-77613506D01*
X91437019Y-77613506D02*
X91423401Y-77644179D01*
X91423401Y-77644179D02*
X91403473Y-77644571D01*
X91403473Y-77644571D02*
X91397011Y-77640910D01*
X91397011Y-77640910D02*
X91311060Y-77614398D01*
X91311060Y-77614398D02*
X91199255Y-77615946D01*
X91199255Y-77615946D02*
X91085586Y-77643199D01*
X91085586Y-77643199D02*
X91014490Y-77678455D01*
X91014490Y-77678455D02*
X90941595Y-77734778D01*
X90941595Y-77734778D02*
X90888307Y-77798519D01*
X90888307Y-77798519D02*
X90851725Y-77879510D01*
X90851725Y-77879510D02*
X90828950Y-77987586D01*
X90828950Y-77987586D02*
X90817081Y-78132580D01*
X90817081Y-78132580D02*
X90813218Y-78324326D01*
X90813218Y-78324326D02*
X90813149Y-78361109D01*
X90813149Y-78361109D02*
X90813103Y-78774288D01*
X90813103Y-78774288D02*
X90905046Y-78806339D01*
X90905046Y-78806339D02*
X90970348Y-78828144D01*
X90970348Y-78828144D02*
X91006176Y-78838297D01*
X91006176Y-78838297D02*
X91007230Y-78838391D01*
X91007230Y-78838391D02*
X91010758Y-78810860D01*
X91010758Y-78810860D02*
X91013761Y-78734923D01*
X91013761Y-78734923D02*
X91016010Y-78620565D01*
X91016010Y-78620565D02*
X91017276Y-78477769D01*
X91017276Y-78477769D02*
X91017471Y-78390951D01*
X91017471Y-78390951D02*
X91017877Y-78219773D01*
X91017877Y-78219773D02*
X91019968Y-78097088D01*
X91019968Y-78097088D02*
X91025053Y-78013000D01*
X91025053Y-78013000D02*
X91034440Y-77957614D01*
X91034440Y-77957614D02*
X91049439Y-77921032D01*
X91049439Y-77921032D02*
X91071358Y-77893359D01*
X91071358Y-77893359D02*
X91085043Y-77880032D01*
X91085043Y-77880032D02*
X91179051Y-77826328D01*
X91179051Y-77826328D02*
X91281636Y-77822307D01*
X91281636Y-77822307D02*
X91374710Y-77867725D01*
X91374710Y-77867725D02*
X91391922Y-77884123D01*
X91391922Y-77884123D02*
X91417168Y-77914957D01*
X91417168Y-77914957D02*
X91434680Y-77951531D01*
X91434680Y-77951531D02*
X91445858Y-78004415D01*
X91445858Y-78004415D02*
X91452104Y-78084177D01*
X91452104Y-78084177D02*
X91454818Y-78201385D01*
X91454818Y-78201385D02*
X91455402Y-78362991D01*
X91455402Y-78362991D02*
X91455402Y-78774288D01*
X91455402Y-78774288D02*
X91547345Y-78806339D01*
X91547345Y-78806339D02*
X91612647Y-78828144D01*
X91612647Y-78828144D02*
X91648475Y-78838297D01*
X91648475Y-78838297D02*
X91649529Y-78838391D01*
X91649529Y-78838391D02*
X91652225Y-78810448D01*
X91652225Y-78810448D02*
X91654655Y-78731630D01*
X91654655Y-78731630D02*
X91656722Y-78609453D01*
X91656722Y-78609453D02*
X91658329Y-78451432D01*
X91658329Y-78451432D02*
X91659377Y-78265083D01*
X91659377Y-78265083D02*
X91659769Y-78057920D01*
X91659769Y-78057920D02*
X91659770Y-78048706D01*
X91659770Y-78048706D02*
X91659770Y-77259020D01*
X91659770Y-77259020D02*
X91564885Y-77218997D01*
X91564885Y-77218997D02*
X91470000Y-77178973D01*
X91470000Y-77178973D02*
X91455402Y-77423857D01*
X91455402Y-77423857D02*
X91455402Y-77423857D01*
G36*
X91564885Y-77218997D02*
G01*
X91659770Y-77259020D01*
X91659770Y-78048706D01*
X91659769Y-78057920D01*
X91659377Y-78265083D01*
X91658329Y-78451432D01*
X91656722Y-78609453D01*
X91654655Y-78731630D01*
X91652225Y-78810448D01*
X91649529Y-78838391D01*
X91648475Y-78838297D01*
X91612647Y-78828144D01*
X91547345Y-78806339D01*
X91455402Y-78774288D01*
X91455402Y-78362991D01*
X91454818Y-78201385D01*
X91452104Y-78084177D01*
X91445858Y-78004415D01*
X91434680Y-77951531D01*
X91417168Y-77914957D01*
X91391922Y-77884123D01*
X91374710Y-77867725D01*
X91281636Y-77822307D01*
X91179051Y-77826328D01*
X91085043Y-77880032D01*
X91071358Y-77893359D01*
X91049439Y-77921032D01*
X91034440Y-77957614D01*
X91025053Y-78013000D01*
X91019968Y-78097088D01*
X91017877Y-78219773D01*
X91017471Y-78390951D01*
X91017276Y-78477769D01*
X91016010Y-78620565D01*
X91013761Y-78734923D01*
X91010758Y-78810860D01*
X91007230Y-78838391D01*
X91006176Y-78838297D01*
X90970348Y-78828144D01*
X90905046Y-78806339D01*
X90813103Y-78774288D01*
X90813149Y-78361109D01*
X90813218Y-78324326D01*
X90817081Y-78132580D01*
X90828950Y-77987586D01*
X90851725Y-77879510D01*
X90888307Y-77798519D01*
X90941595Y-77734778D01*
X91014490Y-77678455D01*
X91085586Y-77643199D01*
X91199255Y-77615946D01*
X91311060Y-77614398D01*
X91397011Y-77640910D01*
X91403473Y-77644571D01*
X91423401Y-77644179D01*
X91437019Y-77613506D01*
X91446846Y-77543188D01*
X91455402Y-77423857D01*
X91470000Y-77178973D01*
X91564885Y-77218997D01*
G37*
X91564885Y-77218997D02*
X91659770Y-77259020D01*
X91659770Y-78048706D01*
X91659769Y-78057920D01*
X91659377Y-78265083D01*
X91658329Y-78451432D01*
X91656722Y-78609453D01*
X91654655Y-78731630D01*
X91652225Y-78810448D01*
X91649529Y-78838391D01*
X91648475Y-78838297D01*
X91612647Y-78828144D01*
X91547345Y-78806339D01*
X91455402Y-78774288D01*
X91455402Y-78362991D01*
X91454818Y-78201385D01*
X91452104Y-78084177D01*
X91445858Y-78004415D01*
X91434680Y-77951531D01*
X91417168Y-77914957D01*
X91391922Y-77884123D01*
X91374710Y-77867725D01*
X91281636Y-77822307D01*
X91179051Y-77826328D01*
X91085043Y-77880032D01*
X91071358Y-77893359D01*
X91049439Y-77921032D01*
X91034440Y-77957614D01*
X91025053Y-78013000D01*
X91019968Y-78097088D01*
X91017877Y-78219773D01*
X91017471Y-78390951D01*
X91017276Y-78477769D01*
X91016010Y-78620565D01*
X91013761Y-78734923D01*
X91010758Y-78810860D01*
X91007230Y-78838391D01*
X91006176Y-78838297D01*
X90970348Y-78828144D01*
X90905046Y-78806339D01*
X90813103Y-78774288D01*
X90813149Y-78361109D01*
X90813218Y-78324326D01*
X90817081Y-78132580D01*
X90828950Y-77987586D01*
X90851725Y-77879510D01*
X90888307Y-77798519D01*
X90941595Y-77734778D01*
X91014490Y-77678455D01*
X91085586Y-77643199D01*
X91199255Y-77615946D01*
X91311060Y-77614398D01*
X91397011Y-77640910D01*
X91403473Y-77644571D01*
X91423401Y-77644179D01*
X91437019Y-77613506D01*
X91446846Y-77543188D01*
X91455402Y-77423857D01*
X91470000Y-77178973D01*
X91564885Y-77218997D01*
X92782571Y-77577719D02*
X92688877Y-77631914D01*
X92688877Y-77631914D02*
X92623736Y-77685707D01*
X92623736Y-77685707D02*
X92576093Y-77742066D01*
X92576093Y-77742066D02*
X92543272Y-77810987D01*
X92543272Y-77810987D02*
X92522594Y-77902468D01*
X92522594Y-77902468D02*
X92511380Y-78026506D01*
X92511380Y-78026506D02*
X92506951Y-78193098D01*
X92506951Y-78193098D02*
X92506437Y-78312851D01*
X92506437Y-78312851D02*
X92506437Y-78753659D01*
X92506437Y-78753659D02*
X92630517Y-78809283D01*
X92630517Y-78809283D02*
X92754598Y-78864907D01*
X92754598Y-78864907D02*
X92769195Y-78382095D01*
X92769195Y-78382095D02*
X92775227Y-78201779D01*
X92775227Y-78201779D02*
X92781555Y-78070901D01*
X92781555Y-78070901D02*
X92789394Y-77980511D01*
X92789394Y-77980511D02*
X92799963Y-77921664D01*
X92799963Y-77921664D02*
X92814477Y-77885413D01*
X92814477Y-77885413D02*
X92834152Y-77862810D01*
X92834152Y-77862810D02*
X92840465Y-77857917D01*
X92840465Y-77857917D02*
X92936112Y-77819706D01*
X92936112Y-77819706D02*
X93032793Y-77834827D01*
X93032793Y-77834827D02*
X93090345Y-77874943D01*
X93090345Y-77874943D02*
X93113755Y-77903370D01*
X93113755Y-77903370D02*
X93129961Y-77940672D01*
X93129961Y-77940672D02*
X93140259Y-77997223D01*
X93140259Y-77997223D02*
X93145951Y-78083394D01*
X93145951Y-78083394D02*
X93148336Y-78209558D01*
X93148336Y-78209558D02*
X93148736Y-78341042D01*
X93148736Y-78341042D02*
X93148814Y-78505999D01*
X93148814Y-78505999D02*
X93151639Y-78622761D01*
X93151639Y-78622761D02*
X93161093Y-78701510D01*
X93161093Y-78701510D02*
X93181060Y-78752431D01*
X93181060Y-78752431D02*
X93215424Y-78785706D01*
X93215424Y-78785706D02*
X93268068Y-78811520D01*
X93268068Y-78811520D02*
X93338383Y-78838344D01*
X93338383Y-78838344D02*
X93415180Y-78867542D01*
X93415180Y-78867542D02*
X93406038Y-78349346D01*
X93406038Y-78349346D02*
X93402357Y-78162539D01*
X93402357Y-78162539D02*
X93398050Y-78024490D01*
X93398050Y-78024490D02*
X93391877Y-77925568D01*
X93391877Y-77925568D02*
X93382598Y-77856145D01*
X93382598Y-77856145D02*
X93368973Y-77806590D01*
X93368973Y-77806590D02*
X93349761Y-77767273D01*
X93349761Y-77767273D02*
X93326598Y-77732584D01*
X93326598Y-77732584D02*
X93214848Y-77621770D01*
X93214848Y-77621770D02*
X93078487Y-77557689D01*
X93078487Y-77557689D02*
X92930175Y-77542339D01*
X92930175Y-77542339D02*
X92782571Y-77577719D01*
X92782571Y-77577719D02*
X92782571Y-77577719D01*
G36*
X93078487Y-77557689D02*
G01*
X93214848Y-77621770D01*
X93326598Y-77732584D01*
X93349761Y-77767273D01*
X93368973Y-77806590D01*
X93382598Y-77856145D01*
X93391877Y-77925568D01*
X93398050Y-78024490D01*
X93402357Y-78162539D01*
X93406038Y-78349346D01*
X93415180Y-78867542D01*
X93338383Y-78838344D01*
X93268068Y-78811520D01*
X93215424Y-78785706D01*
X93181060Y-78752431D01*
X93161093Y-78701510D01*
X93151639Y-78622761D01*
X93148814Y-78505999D01*
X93148736Y-78341042D01*
X93148336Y-78209558D01*
X93145951Y-78083394D01*
X93140259Y-77997223D01*
X93129961Y-77940672D01*
X93113755Y-77903370D01*
X93090345Y-77874943D01*
X93032793Y-77834827D01*
X92936112Y-77819706D01*
X92840465Y-77857917D01*
X92834152Y-77862810D01*
X92814477Y-77885413D01*
X92799963Y-77921664D01*
X92789394Y-77980511D01*
X92781555Y-78070901D01*
X92775227Y-78201779D01*
X92769195Y-78382095D01*
X92754598Y-78864907D01*
X92630517Y-78809283D01*
X92506437Y-78753659D01*
X92506437Y-78312851D01*
X92506951Y-78193098D01*
X92511380Y-78026506D01*
X92522594Y-77902468D01*
X92543272Y-77810987D01*
X92576093Y-77742066D01*
X92623736Y-77685707D01*
X92688877Y-77631914D01*
X92782571Y-77577719D01*
X92930175Y-77542339D01*
X93078487Y-77557689D01*
G37*
X93078487Y-77557689D02*
X93214848Y-77621770D01*
X93326598Y-77732584D01*
X93349761Y-77767273D01*
X93368973Y-77806590D01*
X93382598Y-77856145D01*
X93391877Y-77925568D01*
X93398050Y-78024490D01*
X93402357Y-78162539D01*
X93406038Y-78349346D01*
X93415180Y-78867542D01*
X93338383Y-78838344D01*
X93268068Y-78811520D01*
X93215424Y-78785706D01*
X93181060Y-78752431D01*
X93161093Y-78701510D01*
X93151639Y-78622761D01*
X93148814Y-78505999D01*
X93148736Y-78341042D01*
X93148336Y-78209558D01*
X93145951Y-78083394D01*
X93140259Y-77997223D01*
X93129961Y-77940672D01*
X93113755Y-77903370D01*
X93090345Y-77874943D01*
X93032793Y-77834827D01*
X92936112Y-77819706D01*
X92840465Y-77857917D01*
X92834152Y-77862810D01*
X92814477Y-77885413D01*
X92799963Y-77921664D01*
X92789394Y-77980511D01*
X92781555Y-78070901D01*
X92775227Y-78201779D01*
X92769195Y-78382095D01*
X92754598Y-78864907D01*
X92630517Y-78809283D01*
X92506437Y-78753659D01*
X92506437Y-78312851D01*
X92506951Y-78193098D01*
X92511380Y-78026506D01*
X92522594Y-77902468D01*
X92543272Y-77810987D01*
X92576093Y-77742066D01*
X92623736Y-77685707D01*
X92688877Y-77631914D01*
X92782571Y-77577719D01*
X92930175Y-77542339D01*
X93078487Y-77557689D01*
X86619876Y-77639840D02*
X86615421Y-77716653D01*
X86615421Y-77716653D02*
X86611929Y-77833391D01*
X86611929Y-77833391D02*
X86609685Y-77980821D01*
X86609685Y-77980821D02*
X86608965Y-78135455D01*
X86608965Y-78135455D02*
X86608965Y-78658727D01*
X86608965Y-78658727D02*
X86701355Y-78751117D01*
X86701355Y-78751117D02*
X86765022Y-78808047D01*
X86765022Y-78808047D02*
X86820911Y-78831107D01*
X86820911Y-78831107D02*
X86897298Y-78829647D01*
X86897298Y-78829647D02*
X86927620Y-78825934D01*
X86927620Y-78825934D02*
X87022390Y-78815126D01*
X87022390Y-78815126D02*
X87100778Y-78808933D01*
X87100778Y-78808933D02*
X87119885Y-78808361D01*
X87119885Y-78808361D02*
X87184301Y-78812102D01*
X87184301Y-78812102D02*
X87276429Y-78821494D01*
X87276429Y-78821494D02*
X87312150Y-78825934D01*
X87312150Y-78825934D02*
X87399886Y-78832801D01*
X87399886Y-78832801D02*
X87458847Y-78817885D01*
X87458847Y-78817885D02*
X87517310Y-78771835D01*
X87517310Y-78771835D02*
X87538415Y-78751117D01*
X87538415Y-78751117D02*
X87630805Y-78658727D01*
X87630805Y-78658727D02*
X87630805Y-77679947D01*
X87630805Y-77679947D02*
X87556442Y-77646066D01*
X87556442Y-77646066D02*
X87492410Y-77620970D01*
X87492410Y-77620970D02*
X87454948Y-77612184D01*
X87454948Y-77612184D02*
X87445343Y-77639950D01*
X87445343Y-77639950D02*
X87436365Y-77717530D01*
X87436365Y-77717530D02*
X87428614Y-77836348D01*
X87428614Y-77836348D02*
X87422686Y-77987828D01*
X87422686Y-77987828D02*
X87419827Y-78115805D01*
X87419827Y-78115805D02*
X87411839Y-78619425D01*
X87411839Y-78619425D02*
X87342152Y-78629278D01*
X87342152Y-78629278D02*
X87278771Y-78622389D01*
X87278771Y-78622389D02*
X87247714Y-78600083D01*
X87247714Y-78600083D02*
X87239033Y-78558379D01*
X87239033Y-78558379D02*
X87231622Y-78469544D01*
X87231622Y-78469544D02*
X87226069Y-78344834D01*
X87226069Y-78344834D02*
X87222964Y-78195507D01*
X87222964Y-78195507D02*
X87222516Y-78118661D01*
X87222516Y-78118661D02*
X87222069Y-77676287D01*
X87222069Y-77676287D02*
X87130126Y-77644235D01*
X87130126Y-77644235D02*
X87065051Y-77622443D01*
X87065051Y-77622443D02*
X87029653Y-77612281D01*
X87029653Y-77612281D02*
X87028632Y-77612184D01*
X87028632Y-77612184D02*
X87025080Y-77639809D01*
X87025080Y-77639809D02*
X87021177Y-77716411D01*
X87021177Y-77716411D02*
X87017249Y-77832579D01*
X87017249Y-77832579D02*
X87013624Y-77978904D01*
X87013624Y-77978904D02*
X87011092Y-78115805D01*
X87011092Y-78115805D02*
X87003103Y-78619425D01*
X87003103Y-78619425D02*
X86827931Y-78619425D01*
X86827931Y-78619425D02*
X86819893Y-78159965D01*
X86819893Y-78159965D02*
X86811854Y-77700505D01*
X86811854Y-77700505D02*
X86726457Y-77656344D01*
X86726457Y-77656344D02*
X86663407Y-77626019D01*
X86663407Y-77626019D02*
X86626090Y-77612258D01*
X86626090Y-77612258D02*
X86625013Y-77612184D01*
X86625013Y-77612184D02*
X86619876Y-77639840D01*
X86619876Y-77639840D02*
X86619876Y-77639840D01*
G36*
X87492410Y-77620970D02*
G01*
X87556442Y-77646066D01*
X87630805Y-77679947D01*
X87630805Y-78658727D01*
X87538415Y-78751117D01*
X87517310Y-78771835D01*
X87458847Y-78817885D01*
X87399886Y-78832801D01*
X87312150Y-78825934D01*
X87276429Y-78821494D01*
X87184301Y-78812102D01*
X87119885Y-78808361D01*
X87100778Y-78808933D01*
X87022390Y-78815126D01*
X86927620Y-78825934D01*
X86897298Y-78829647D01*
X86820911Y-78831107D01*
X86765022Y-78808047D01*
X86701355Y-78751117D01*
X86608965Y-78658727D01*
X86608965Y-78135455D01*
X86609685Y-77980821D01*
X86611929Y-77833391D01*
X86615421Y-77716653D01*
X86619876Y-77639840D01*
X86625013Y-77612184D01*
X86626090Y-77612258D01*
X86663407Y-77626019D01*
X86726457Y-77656344D01*
X86811854Y-77700505D01*
X86819893Y-78159965D01*
X86827931Y-78619425D01*
X87003103Y-78619425D01*
X87011092Y-78115805D01*
X87013624Y-77978904D01*
X87017249Y-77832579D01*
X87021177Y-77716411D01*
X87025080Y-77639809D01*
X87028632Y-77612184D01*
X87029653Y-77612281D01*
X87065051Y-77622443D01*
X87130126Y-77644235D01*
X87222069Y-77676287D01*
X87222516Y-78118661D01*
X87222964Y-78195507D01*
X87226069Y-78344834D01*
X87231622Y-78469544D01*
X87239033Y-78558379D01*
X87247714Y-78600083D01*
X87278771Y-78622389D01*
X87342152Y-78629278D01*
X87411839Y-78619425D01*
X87419827Y-78115805D01*
X87422686Y-77987828D01*
X87428614Y-77836348D01*
X87436365Y-77717530D01*
X87445343Y-77639950D01*
X87454948Y-77612184D01*
X87492410Y-77620970D01*
G37*
X87492410Y-77620970D02*
X87556442Y-77646066D01*
X87630805Y-77679947D01*
X87630805Y-78658727D01*
X87538415Y-78751117D01*
X87517310Y-78771835D01*
X87458847Y-78817885D01*
X87399886Y-78832801D01*
X87312150Y-78825934D01*
X87276429Y-78821494D01*
X87184301Y-78812102D01*
X87119885Y-78808361D01*
X87100778Y-78808933D01*
X87022390Y-78815126D01*
X86927620Y-78825934D01*
X86897298Y-78829647D01*
X86820911Y-78831107D01*
X86765022Y-78808047D01*
X86701355Y-78751117D01*
X86608965Y-78658727D01*
X86608965Y-78135455D01*
X86609685Y-77980821D01*
X86611929Y-77833391D01*
X86615421Y-77716653D01*
X86619876Y-77639840D01*
X86625013Y-77612184D01*
X86626090Y-77612258D01*
X86663407Y-77626019D01*
X86726457Y-77656344D01*
X86811854Y-77700505D01*
X86819893Y-78159965D01*
X86827931Y-78619425D01*
X87003103Y-78619425D01*
X87011092Y-78115805D01*
X87013624Y-77978904D01*
X87017249Y-77832579D01*
X87021177Y-77716411D01*
X87025080Y-77639809D01*
X87028632Y-77612184D01*
X87029653Y-77612281D01*
X87065051Y-77622443D01*
X87130126Y-77644235D01*
X87222069Y-77676287D01*
X87222516Y-78118661D01*
X87222964Y-78195507D01*
X87226069Y-78344834D01*
X87231622Y-78469544D01*
X87239033Y-78558379D01*
X87247714Y-78600083D01*
X87278771Y-78622389D01*
X87342152Y-78629278D01*
X87411839Y-78619425D01*
X87419827Y-78115805D01*
X87422686Y-77987828D01*
X87428614Y-77836348D01*
X87436365Y-77717530D01*
X87445343Y-77639950D01*
X87454948Y-77612184D01*
X87492410Y-77620970D01*
X95028100Y-77561903D02*
X94916550Y-77617522D01*
X94916550Y-77617522D02*
X94818092Y-77719931D01*
X94818092Y-77719931D02*
X94790977Y-77757864D01*
X94790977Y-77757864D02*
X94761438Y-77807500D01*
X94761438Y-77807500D02*
X94742272Y-77861412D01*
X94742272Y-77861412D02*
X94731307Y-77933364D01*
X94731307Y-77933364D02*
X94726371Y-78037122D01*
X94726371Y-78037122D02*
X94725287Y-78174101D01*
X94725287Y-78174101D02*
X94730182Y-78361815D01*
X94730182Y-78361815D02*
X94747196Y-78502758D01*
X94747196Y-78502758D02*
X94779823Y-78607908D01*
X94779823Y-78607908D02*
X94831558Y-78688243D01*
X94831558Y-78688243D02*
X94905896Y-78754741D01*
X94905896Y-78754741D02*
X94911358Y-78758678D01*
X94911358Y-78758678D02*
X94984620Y-78798953D01*
X94984620Y-78798953D02*
X95072840Y-78818880D01*
X95072840Y-78818880D02*
X95185038Y-78823793D01*
X95185038Y-78823793D02*
X95367433Y-78823793D01*
X95367433Y-78823793D02*
X95367509Y-79000857D01*
X95367509Y-79000857D02*
X95369207Y-79099470D01*
X95369207Y-79099470D02*
X95379550Y-79157314D01*
X95379550Y-79157314D02*
X95406578Y-79192006D01*
X95406578Y-79192006D02*
X95458332Y-79221164D01*
X95458332Y-79221164D02*
X95470761Y-79227121D01*
X95470761Y-79227121D02*
X95528923Y-79255039D01*
X95528923Y-79255039D02*
X95573956Y-79272672D01*
X95573956Y-79272672D02*
X95607441Y-79274194D01*
X95607441Y-79274194D02*
X95630962Y-79253781D01*
X95630962Y-79253781D02*
X95646100Y-79205607D01*
X95646100Y-79205607D02*
X95654437Y-79123846D01*
X95654437Y-79123846D02*
X95657556Y-79002672D01*
X95657556Y-79002672D02*
X95657040Y-78836260D01*
X95657040Y-78836260D02*
X95654471Y-78618785D01*
X95654471Y-78618785D02*
X95653668Y-78553736D01*
X95653668Y-78553736D02*
X95650778Y-78329502D01*
X95650778Y-78329502D02*
X95648188Y-78182821D01*
X95648188Y-78182821D02*
X95367586Y-78182821D01*
X95367586Y-78182821D02*
X95366009Y-78307326D01*
X95366009Y-78307326D02*
X95359000Y-78388787D01*
X95359000Y-78388787D02*
X95343142Y-78442515D01*
X95343142Y-78442515D02*
X95315019Y-78483823D01*
X95315019Y-78483823D02*
X95295925Y-78503971D01*
X95295925Y-78503971D02*
X95217865Y-78562921D01*
X95217865Y-78562921D02*
X95148753Y-78567720D01*
X95148753Y-78567720D02*
X95077440Y-78519038D01*
X95077440Y-78519038D02*
X95075632Y-78517241D01*
X95075632Y-78517241D02*
X95046617Y-78479618D01*
X95046617Y-78479618D02*
X95028967Y-78428484D01*
X95028967Y-78428484D02*
X95020064Y-78349738D01*
X95020064Y-78349738D02*
X95017291Y-78229276D01*
X95017291Y-78229276D02*
X95017241Y-78202588D01*
X95017241Y-78202588D02*
X95023942Y-78036583D01*
X95023942Y-78036583D02*
X95045752Y-77921505D01*
X95045752Y-77921505D02*
X95085235Y-77851254D01*
X95085235Y-77851254D02*
X95144956Y-77819729D01*
X95144956Y-77819729D02*
X95179472Y-77816552D01*
X95179472Y-77816552D02*
X95261389Y-77831460D01*
X95261389Y-77831460D02*
X95317579Y-77880548D01*
X95317579Y-77880548D02*
X95351402Y-77970362D01*
X95351402Y-77970362D02*
X95366220Y-78107445D01*
X95366220Y-78107445D02*
X95367586Y-78182821D01*
X95367586Y-78182821D02*
X95648188Y-78182821D01*
X95648188Y-78182821D02*
X95647713Y-78155952D01*
X95647713Y-78155952D02*
X95643753Y-78025382D01*
X95643753Y-78025382D02*
X95638174Y-77930087D01*
X95638174Y-77930087D02*
X95630254Y-77862364D01*
X95630254Y-77862364D02*
X95619269Y-77814507D01*
X95619269Y-77814507D02*
X95604499Y-77778813D01*
X95604499Y-77778813D02*
X95585218Y-77747578D01*
X95585218Y-77747578D02*
X95576951Y-77735824D01*
X95576951Y-77735824D02*
X95467288Y-77624797D01*
X95467288Y-77624797D02*
X95328635Y-77561847D01*
X95328635Y-77561847D02*
X95168246Y-77544297D01*
X95168246Y-77544297D02*
X95028100Y-77561903D01*
X95028100Y-77561903D02*
X95028100Y-77561903D01*
G36*
X95653668Y-78553736D02*
G01*
X95654471Y-78618785D01*
X95657040Y-78836260D01*
X95657556Y-79002672D01*
X95654437Y-79123846D01*
X95646100Y-79205607D01*
X95630962Y-79253781D01*
X95607441Y-79274194D01*
X95573956Y-79272672D01*
X95528923Y-79255039D01*
X95470761Y-79227121D01*
X95458332Y-79221164D01*
X95406578Y-79192006D01*
X95379550Y-79157314D01*
X95369207Y-79099470D01*
X95367509Y-79000857D01*
X95367433Y-78823793D01*
X95185038Y-78823793D01*
X95072840Y-78818880D01*
X94984620Y-78798953D01*
X94911358Y-78758678D01*
X94905896Y-78754741D01*
X94831558Y-78688243D01*
X94779823Y-78607908D01*
X94747196Y-78502758D01*
X94730182Y-78361815D01*
X94726030Y-78202588D01*
X95017241Y-78202588D01*
X95017291Y-78229276D01*
X95020064Y-78349738D01*
X95028967Y-78428484D01*
X95046617Y-78479618D01*
X95075632Y-78517241D01*
X95077440Y-78519038D01*
X95148753Y-78567720D01*
X95217865Y-78562921D01*
X95295925Y-78503971D01*
X95315019Y-78483823D01*
X95343142Y-78442515D01*
X95359000Y-78388787D01*
X95366009Y-78307326D01*
X95367586Y-78182821D01*
X95366220Y-78107445D01*
X95351402Y-77970362D01*
X95317579Y-77880548D01*
X95261389Y-77831460D01*
X95179472Y-77816552D01*
X95144956Y-77819729D01*
X95085235Y-77851254D01*
X95045752Y-77921505D01*
X95023942Y-78036583D01*
X95017241Y-78202588D01*
X94726030Y-78202588D01*
X94725287Y-78174101D01*
X94726371Y-78037122D01*
X94731307Y-77933364D01*
X94742272Y-77861412D01*
X94761438Y-77807500D01*
X94790977Y-77757864D01*
X94818092Y-77719931D01*
X94916550Y-77617522D01*
X95028100Y-77561903D01*
X95168246Y-77544297D01*
X95328635Y-77561847D01*
X95467288Y-77624797D01*
X95576951Y-77735824D01*
X95585218Y-77747578D01*
X95604499Y-77778813D01*
X95619269Y-77814507D01*
X95630254Y-77862364D01*
X95638174Y-77930087D01*
X95643753Y-78025382D01*
X95647713Y-78155952D01*
X95648188Y-78182821D01*
X95650778Y-78329502D01*
X95653668Y-78553736D01*
G37*
X95653668Y-78553736D02*
X95654471Y-78618785D01*
X95657040Y-78836260D01*
X95657556Y-79002672D01*
X95654437Y-79123846D01*
X95646100Y-79205607D01*
X95630962Y-79253781D01*
X95607441Y-79274194D01*
X95573956Y-79272672D01*
X95528923Y-79255039D01*
X95470761Y-79227121D01*
X95458332Y-79221164D01*
X95406578Y-79192006D01*
X95379550Y-79157314D01*
X95369207Y-79099470D01*
X95367509Y-79000857D01*
X95367433Y-78823793D01*
X95185038Y-78823793D01*
X95072840Y-78818880D01*
X94984620Y-78798953D01*
X94911358Y-78758678D01*
X94905896Y-78754741D01*
X94831558Y-78688243D01*
X94779823Y-78607908D01*
X94747196Y-78502758D01*
X94730182Y-78361815D01*
X94726030Y-78202588D01*
X95017241Y-78202588D01*
X95017291Y-78229276D01*
X95020064Y-78349738D01*
X95028967Y-78428484D01*
X95046617Y-78479618D01*
X95075632Y-78517241D01*
X95077440Y-78519038D01*
X95148753Y-78567720D01*
X95217865Y-78562921D01*
X95295925Y-78503971D01*
X95315019Y-78483823D01*
X95343142Y-78442515D01*
X95359000Y-78388787D01*
X95366009Y-78307326D01*
X95367586Y-78182821D01*
X95366220Y-78107445D01*
X95351402Y-77970362D01*
X95317579Y-77880548D01*
X95261389Y-77831460D01*
X95179472Y-77816552D01*
X95144956Y-77819729D01*
X95085235Y-77851254D01*
X95045752Y-77921505D01*
X95023942Y-78036583D01*
X95017241Y-78202588D01*
X94726030Y-78202588D01*
X94725287Y-78174101D01*
X94726371Y-78037122D01*
X94731307Y-77933364D01*
X94742272Y-77861412D01*
X94761438Y-77807500D01*
X94790977Y-77757864D01*
X94818092Y-77719931D01*
X94916550Y-77617522D01*
X95028100Y-77561903D01*
X95168246Y-77544297D01*
X95328635Y-77561847D01*
X95467288Y-77624797D01*
X95576951Y-77735824D01*
X95585218Y-77747578D01*
X95604499Y-77778813D01*
X95619269Y-77814507D01*
X95630254Y-77862364D01*
X95638174Y-77930087D01*
X95643753Y-78025382D01*
X95647713Y-78155952D01*
X95648188Y-78182821D01*
X95650778Y-78329502D01*
X95653668Y-78553736D01*
X90120056Y-77624360D02*
X90005657Y-77666842D01*
X90005657Y-77666842D02*
X90004348Y-77667658D01*
X90004348Y-77667658D02*
X89933597Y-77719730D01*
X89933597Y-77719730D02*
X89881364Y-77780584D01*
X89881364Y-77780584D02*
X89844629Y-77859887D01*
X89844629Y-77859887D02*
X89820366Y-77967309D01*
X89820366Y-77967309D02*
X89805555Y-78112517D01*
X89805555Y-78112517D02*
X89797171Y-78305179D01*
X89797171Y-78305179D02*
X89796436Y-78332628D01*
X89796436Y-78332628D02*
X89785880Y-78746521D01*
X89785880Y-78746521D02*
X89874709Y-78792456D01*
X89874709Y-78792456D02*
X89938982Y-78823498D01*
X89938982Y-78823498D02*
X89977790Y-78838206D01*
X89977790Y-78838206D02*
X89979585Y-78838391D01*
X89979585Y-78838391D02*
X89986300Y-78811250D01*
X89986300Y-78811250D02*
X89991635Y-78738041D01*
X89991635Y-78738041D02*
X89994917Y-78631081D01*
X89994917Y-78631081D02*
X89995632Y-78544469D01*
X89995632Y-78544469D02*
X89995649Y-78404162D01*
X89995649Y-78404162D02*
X90002063Y-78316051D01*
X90002063Y-78316051D02*
X90024420Y-78274025D01*
X90024420Y-78274025D02*
X90072268Y-78271975D01*
X90072268Y-78271975D02*
X90155151Y-78303790D01*
X90155151Y-78303790D02*
X90280287Y-78362272D01*
X90280287Y-78362272D02*
X90372303Y-78410845D01*
X90372303Y-78410845D02*
X90419629Y-78452986D01*
X90419629Y-78452986D02*
X90433542Y-78498916D01*
X90433542Y-78498916D02*
X90433563Y-78501189D01*
X90433563Y-78501189D02*
X90410605Y-78580311D01*
X90410605Y-78580311D02*
X90342630Y-78623055D01*
X90342630Y-78623055D02*
X90238602Y-78629246D01*
X90238602Y-78629246D02*
X90163670Y-78628172D01*
X90163670Y-78628172D02*
X90124161Y-78649753D01*
X90124161Y-78649753D02*
X90099522Y-78701591D01*
X90099522Y-78701591D02*
X90085341Y-78767632D01*
X90085341Y-78767632D02*
X90105777Y-78805104D01*
X90105777Y-78805104D02*
X90113472Y-78810467D01*
X90113472Y-78810467D02*
X90185917Y-78832006D01*
X90185917Y-78832006D02*
X90287367Y-78835055D01*
X90287367Y-78835055D02*
X90391843Y-78820778D01*
X90391843Y-78820778D02*
X90465875Y-78794688D01*
X90465875Y-78794688D02*
X90568228Y-78707785D01*
X90568228Y-78707785D02*
X90626409Y-78586816D01*
X90626409Y-78586816D02*
X90637931Y-78492308D01*
X90637931Y-78492308D02*
X90629138Y-78407062D01*
X90629138Y-78407062D02*
X90597320Y-78337476D01*
X90597320Y-78337476D02*
X90534316Y-78275672D01*
X90534316Y-78275672D02*
X90431969Y-78213772D01*
X90431969Y-78213772D02*
X90282118Y-78143897D01*
X90282118Y-78143897D02*
X90272988Y-78139948D01*
X90272988Y-78139948D02*
X90138003Y-78077588D01*
X90138003Y-78077588D02*
X90054706Y-78026446D01*
X90054706Y-78026446D02*
X90019003Y-77980488D01*
X90019003Y-77980488D02*
X90026797Y-77933683D01*
X90026797Y-77933683D02*
X90073993Y-77879998D01*
X90073993Y-77879998D02*
X90088106Y-77867644D01*
X90088106Y-77867644D02*
X90182641Y-77819741D01*
X90182641Y-77819741D02*
X90280594Y-77821758D01*
X90280594Y-77821758D02*
X90365903Y-77868724D01*
X90365903Y-77868724D02*
X90422504Y-77955669D01*
X90422504Y-77955669D02*
X90427763Y-77972734D01*
X90427763Y-77972734D02*
X90478977Y-78055504D01*
X90478977Y-78055504D02*
X90543963Y-78095372D01*
X90543963Y-78095372D02*
X90637931Y-78134882D01*
X90637931Y-78134882D02*
X90637931Y-78032658D01*
X90637931Y-78032658D02*
X90609347Y-77884072D01*
X90609347Y-77884072D02*
X90524505Y-77747784D01*
X90524505Y-77747784D02*
X90480355Y-77702191D01*
X90480355Y-77702191D02*
X90379995Y-77643674D01*
X90379995Y-77643674D02*
X90252365Y-77617184D01*
X90252365Y-77617184D02*
X90120056Y-77624360D01*
X90120056Y-77624360D02*
X90120056Y-77624360D01*
G36*
X90379995Y-77643674D02*
G01*
X90480355Y-77702191D01*
X90524505Y-77747784D01*
X90609347Y-77884072D01*
X90637931Y-78032658D01*
X90637931Y-78134882D01*
X90543963Y-78095372D01*
X90478977Y-78055504D01*
X90427763Y-77972734D01*
X90422504Y-77955669D01*
X90365903Y-77868724D01*
X90280594Y-77821758D01*
X90182641Y-77819741D01*
X90088106Y-77867644D01*
X90073993Y-77879998D01*
X90026797Y-77933683D01*
X90019003Y-77980488D01*
X90054706Y-78026446D01*
X90138003Y-78077588D01*
X90272988Y-78139948D01*
X90282118Y-78143897D01*
X90431969Y-78213772D01*
X90534316Y-78275672D01*
X90597320Y-78337476D01*
X90629138Y-78407062D01*
X90637931Y-78492308D01*
X90626409Y-78586816D01*
X90568228Y-78707785D01*
X90465875Y-78794688D01*
X90391843Y-78820778D01*
X90287367Y-78835055D01*
X90185917Y-78832006D01*
X90113472Y-78810467D01*
X90105777Y-78805104D01*
X90085341Y-78767632D01*
X90099522Y-78701591D01*
X90124161Y-78649753D01*
X90163670Y-78628172D01*
X90238602Y-78629246D01*
X90342630Y-78623055D01*
X90410605Y-78580311D01*
X90433563Y-78501189D01*
X90433542Y-78498916D01*
X90419629Y-78452986D01*
X90372303Y-78410845D01*
X90280287Y-78362272D01*
X90155151Y-78303790D01*
X90072268Y-78271975D01*
X90024420Y-78274025D01*
X90002063Y-78316051D01*
X89995649Y-78404162D01*
X89995632Y-78544469D01*
X89994917Y-78631081D01*
X89991635Y-78738041D01*
X89986300Y-78811250D01*
X89979585Y-78838391D01*
X89977790Y-78838206D01*
X89938982Y-78823498D01*
X89874709Y-78792456D01*
X89785880Y-78746521D01*
X89796436Y-78332628D01*
X89797171Y-78305179D01*
X89805555Y-78112517D01*
X89820366Y-77967309D01*
X89844629Y-77859887D01*
X89881364Y-77780584D01*
X89933597Y-77719730D01*
X90004348Y-77667658D01*
X90005657Y-77666842D01*
X90120056Y-77624360D01*
X90252365Y-77617184D01*
X90379995Y-77643674D01*
G37*
X90379995Y-77643674D02*
X90480355Y-77702191D01*
X90524505Y-77747784D01*
X90609347Y-77884072D01*
X90637931Y-78032658D01*
X90637931Y-78134882D01*
X90543963Y-78095372D01*
X90478977Y-78055504D01*
X90427763Y-77972734D01*
X90422504Y-77955669D01*
X90365903Y-77868724D01*
X90280594Y-77821758D01*
X90182641Y-77819741D01*
X90088106Y-77867644D01*
X90073993Y-77879998D01*
X90026797Y-77933683D01*
X90019003Y-77980488D01*
X90054706Y-78026446D01*
X90138003Y-78077588D01*
X90272988Y-78139948D01*
X90282118Y-78143897D01*
X90431969Y-78213772D01*
X90534316Y-78275672D01*
X90597320Y-78337476D01*
X90629138Y-78407062D01*
X90637931Y-78492308D01*
X90626409Y-78586816D01*
X90568228Y-78707785D01*
X90465875Y-78794688D01*
X90391843Y-78820778D01*
X90287367Y-78835055D01*
X90185917Y-78832006D01*
X90113472Y-78810467D01*
X90105777Y-78805104D01*
X90085341Y-78767632D01*
X90099522Y-78701591D01*
X90124161Y-78649753D01*
X90163670Y-78628172D01*
X90238602Y-78629246D01*
X90342630Y-78623055D01*
X90410605Y-78580311D01*
X90433563Y-78501189D01*
X90433542Y-78498916D01*
X90419629Y-78452986D01*
X90372303Y-78410845D01*
X90280287Y-78362272D01*
X90155151Y-78303790D01*
X90072268Y-78271975D01*
X90024420Y-78274025D01*
X90002063Y-78316051D01*
X89995649Y-78404162D01*
X89995632Y-78544469D01*
X89994917Y-78631081D01*
X89991635Y-78738041D01*
X89986300Y-78811250D01*
X89979585Y-78838391D01*
X89977790Y-78838206D01*
X89938982Y-78823498D01*
X89874709Y-78792456D01*
X89785880Y-78746521D01*
X89796436Y-78332628D01*
X89797171Y-78305179D01*
X89805555Y-78112517D01*
X89820366Y-77967309D01*
X89844629Y-77859887D01*
X89881364Y-77780584D01*
X89933597Y-77719730D01*
X90004348Y-77667658D01*
X90005657Y-77666842D01*
X90120056Y-77624360D01*
X90252365Y-77617184D01*
X90379995Y-77643674D01*
X93884448Y-77584676D02*
X93769342Y-77662111D01*
X93769342Y-77662111D02*
X93680389Y-77773949D01*
X93680389Y-77773949D02*
X93627251Y-77916265D01*
X93627251Y-77916265D02*
X93616503Y-78021015D01*
X93616503Y-78021015D02*
X93617724Y-78064726D01*
X93617724Y-78064726D02*
X93627944Y-78098194D01*
X93627944Y-78098194D02*
X93656039Y-78128179D01*
X93656039Y-78128179D02*
X93710884Y-78161440D01*
X93710884Y-78161440D02*
X93801355Y-78204738D01*
X93801355Y-78204738D02*
X93936328Y-78264833D01*
X93936328Y-78264833D02*
X93937011Y-78265134D01*
X93937011Y-78265134D02*
X94061249Y-78322037D01*
X94061249Y-78322037D02*
X94163127Y-78372565D01*
X94163127Y-78372565D02*
X94232233Y-78411280D01*
X94232233Y-78411280D02*
X94258154Y-78432740D01*
X94258154Y-78432740D02*
X94258161Y-78432913D01*
X94258161Y-78432913D02*
X94235315Y-78479644D01*
X94235315Y-78479644D02*
X94181891Y-78531154D01*
X94181891Y-78531154D02*
X94120558Y-78568261D01*
X94120558Y-78568261D02*
X94089485Y-78575632D01*
X94089485Y-78575632D02*
X94004711Y-78550138D01*
X94004711Y-78550138D02*
X93931707Y-78486291D01*
X93931707Y-78486291D02*
X93896087Y-78416094D01*
X93896087Y-78416094D02*
X93861820Y-78364343D01*
X93861820Y-78364343D02*
X93794697Y-78305409D01*
X93794697Y-78305409D02*
X93715792Y-78254496D01*
X93715792Y-78254496D02*
X93646179Y-78226809D01*
X93646179Y-78226809D02*
X93631623Y-78225287D01*
X93631623Y-78225287D02*
X93615237Y-78250321D01*
X93615237Y-78250321D02*
X93614250Y-78314311D01*
X93614250Y-78314311D02*
X93626292Y-78400593D01*
X93626292Y-78400593D02*
X93648993Y-78492501D01*
X93648993Y-78492501D02*
X93679986Y-78573369D01*
X93679986Y-78573369D02*
X93681552Y-78576509D01*
X93681552Y-78576509D02*
X93774819Y-78706734D01*
X93774819Y-78706734D02*
X93895696Y-78795311D01*
X93895696Y-78795311D02*
X94032973Y-78838786D01*
X94032973Y-78838786D02*
X94175440Y-78833706D01*
X94175440Y-78833706D02*
X94311888Y-78776616D01*
X94311888Y-78776616D02*
X94317955Y-78772602D01*
X94317955Y-78772602D02*
X94425290Y-78675326D01*
X94425290Y-78675326D02*
X94495868Y-78548409D01*
X94495868Y-78548409D02*
X94534926Y-78381526D01*
X94534926Y-78381526D02*
X94540168Y-78334639D01*
X94540168Y-78334639D02*
X94549452Y-78113329D01*
X94549452Y-78113329D02*
X94538322Y-78010124D01*
X94538322Y-78010124D02*
X94258161Y-78010124D01*
X94258161Y-78010124D02*
X94254521Y-78074503D01*
X94254521Y-78074503D02*
X94234611Y-78093291D01*
X94234611Y-78093291D02*
X94184974Y-78079235D01*
X94184974Y-78079235D02*
X94106733Y-78046009D01*
X94106733Y-78046009D02*
X94019274Y-78004359D01*
X94019274Y-78004359D02*
X94017101Y-78003256D01*
X94017101Y-78003256D02*
X93942970Y-77964265D01*
X93942970Y-77964265D02*
X93913219Y-77938244D01*
X93913219Y-77938244D02*
X93920555Y-77910965D01*
X93920555Y-77910965D02*
X93951447Y-77875121D01*
X93951447Y-77875121D02*
X94030040Y-77823251D01*
X94030040Y-77823251D02*
X94114677Y-77819439D01*
X94114677Y-77819439D02*
X94190597Y-77857189D01*
X94190597Y-77857189D02*
X94243035Y-77930001D01*
X94243035Y-77930001D02*
X94258161Y-78010124D01*
X94258161Y-78010124D02*
X94538322Y-78010124D01*
X94538322Y-78010124D02*
X94530356Y-77936261D01*
X94530356Y-77936261D02*
X94481366Y-77795829D01*
X94481366Y-77795829D02*
X94413164Y-77697447D01*
X94413164Y-77697447D02*
X94290065Y-77598030D01*
X94290065Y-77598030D02*
X94154472Y-77548711D01*
X94154472Y-77548711D02*
X94016045Y-77545568D01*
X94016045Y-77545568D02*
X93884448Y-77584676D01*
X93884448Y-77584676D02*
X93884448Y-77584676D01*
G36*
X94540168Y-78334639D02*
G01*
X94534926Y-78381526D01*
X94495868Y-78548409D01*
X94425290Y-78675326D01*
X94317955Y-78772602D01*
X94311888Y-78776616D01*
X94175440Y-78833706D01*
X94032973Y-78838786D01*
X93895696Y-78795311D01*
X93774819Y-78706734D01*
X93681552Y-78576509D01*
X93679986Y-78573369D01*
X93648993Y-78492501D01*
X93626292Y-78400593D01*
X93614250Y-78314311D01*
X93615237Y-78250321D01*
X93631623Y-78225287D01*
X93646179Y-78226809D01*
X93715792Y-78254496D01*
X93794697Y-78305409D01*
X93861820Y-78364343D01*
X93896087Y-78416094D01*
X93931707Y-78486291D01*
X94004711Y-78550138D01*
X94089485Y-78575632D01*
X94120558Y-78568261D01*
X94181891Y-78531154D01*
X94235315Y-78479644D01*
X94258161Y-78432913D01*
X94258154Y-78432740D01*
X94232233Y-78411280D01*
X94163127Y-78372565D01*
X94061249Y-78322037D01*
X93937011Y-78265134D01*
X93936328Y-78264833D01*
X93801355Y-78204738D01*
X93710884Y-78161440D01*
X93656039Y-78128179D01*
X93627944Y-78098194D01*
X93617724Y-78064726D01*
X93616503Y-78021015D01*
X93624996Y-77938244D01*
X93913219Y-77938244D01*
X93942970Y-77964265D01*
X94017101Y-78003256D01*
X94019274Y-78004359D01*
X94106733Y-78046009D01*
X94184974Y-78079235D01*
X94234611Y-78093291D01*
X94254521Y-78074503D01*
X94258161Y-78010124D01*
X94243035Y-77930001D01*
X94190597Y-77857189D01*
X94114677Y-77819439D01*
X94030040Y-77823251D01*
X93951447Y-77875121D01*
X93920555Y-77910965D01*
X93913219Y-77938244D01*
X93624996Y-77938244D01*
X93627251Y-77916265D01*
X93680389Y-77773949D01*
X93769342Y-77662111D01*
X93884448Y-77584676D01*
X94016045Y-77545568D01*
X94154472Y-77548711D01*
X94290065Y-77598030D01*
X94413164Y-77697447D01*
X94481366Y-77795829D01*
X94530356Y-77936261D01*
X94538322Y-78010124D01*
X94549452Y-78113329D01*
X94540168Y-78334639D01*
G37*
X94540168Y-78334639D02*
X94534926Y-78381526D01*
X94495868Y-78548409D01*
X94425290Y-78675326D01*
X94317955Y-78772602D01*
X94311888Y-78776616D01*
X94175440Y-78833706D01*
X94032973Y-78838786D01*
X93895696Y-78795311D01*
X93774819Y-78706734D01*
X93681552Y-78576509D01*
X93679986Y-78573369D01*
X93648993Y-78492501D01*
X93626292Y-78400593D01*
X93614250Y-78314311D01*
X93615237Y-78250321D01*
X93631623Y-78225287D01*
X93646179Y-78226809D01*
X93715792Y-78254496D01*
X93794697Y-78305409D01*
X93861820Y-78364343D01*
X93896087Y-78416094D01*
X93931707Y-78486291D01*
X94004711Y-78550138D01*
X94089485Y-78575632D01*
X94120558Y-78568261D01*
X94181891Y-78531154D01*
X94235315Y-78479644D01*
X94258161Y-78432913D01*
X94258154Y-78432740D01*
X94232233Y-78411280D01*
X94163127Y-78372565D01*
X94061249Y-78322037D01*
X93937011Y-78265134D01*
X93936328Y-78264833D01*
X93801355Y-78204738D01*
X93710884Y-78161440D01*
X93656039Y-78128179D01*
X93627944Y-78098194D01*
X93617724Y-78064726D01*
X93616503Y-78021015D01*
X93624996Y-77938244D01*
X93913219Y-77938244D01*
X93942970Y-77964265D01*
X94017101Y-78003256D01*
X94019274Y-78004359D01*
X94106733Y-78046009D01*
X94184974Y-78079235D01*
X94234611Y-78093291D01*
X94254521Y-78074503D01*
X94258161Y-78010124D01*
X94243035Y-77930001D01*
X94190597Y-77857189D01*
X94114677Y-77819439D01*
X94030040Y-77823251D01*
X93951447Y-77875121D01*
X93920555Y-77910965D01*
X93913219Y-77938244D01*
X93624996Y-77938244D01*
X93627251Y-77916265D01*
X93680389Y-77773949D01*
X93769342Y-77662111D01*
X93884448Y-77584676D01*
X94016045Y-77545568D01*
X94154472Y-77548711D01*
X94290065Y-77598030D01*
X94413164Y-77697447D01*
X94481366Y-77795829D01*
X94530356Y-77936261D01*
X94538322Y-78010124D01*
X94549452Y-78113329D01*
X94540168Y-78334639D01*
X96151779Y-77566015D02*
X96014939Y-77637968D01*
X96014939Y-77637968D02*
X95913949Y-77753766D01*
X95913949Y-77753766D02*
X95878075Y-77828213D01*
X95878075Y-77828213D02*
X95850161Y-77939992D01*
X95850161Y-77939992D02*
X95835871Y-78081227D01*
X95835871Y-78081227D02*
X95834516Y-78235371D01*
X95834516Y-78235371D02*
X95845405Y-78385879D01*
X95845405Y-78385879D02*
X95867847Y-78516205D01*
X95867847Y-78516205D02*
X95901150Y-78609803D01*
X95901150Y-78609803D02*
X95911385Y-78625922D01*
X95911385Y-78625922D02*
X96032618Y-78746249D01*
X96032618Y-78746249D02*
X96176613Y-78818317D01*
X96176613Y-78818317D02*
X96332861Y-78839408D01*
X96332861Y-78839408D02*
X96490852Y-78806802D01*
X96490852Y-78806802D02*
X96534820Y-78787253D01*
X96534820Y-78787253D02*
X96620444Y-78727012D01*
X96620444Y-78727012D02*
X96695592Y-78647135D01*
X96695592Y-78647135D02*
X96702694Y-78637004D01*
X96702694Y-78637004D02*
X96731561Y-78588181D01*
X96731561Y-78588181D02*
X96750643Y-78535990D01*
X96750643Y-78535990D02*
X96761916Y-78467285D01*
X96761916Y-78467285D02*
X96767355Y-78368918D01*
X96767355Y-78368918D02*
X96768938Y-78227744D01*
X96768938Y-78227744D02*
X96768965Y-78196092D01*
X96768965Y-78196092D02*
X96768893Y-78186019D01*
X96768893Y-78186019D02*
X96477011Y-78186019D01*
X96477011Y-78186019D02*
X96475313Y-78319256D01*
X96475313Y-78319256D02*
X96468628Y-78407674D01*
X96468628Y-78407674D02*
X96454575Y-78464785D01*
X96454575Y-78464785D02*
X96430771Y-78504102D01*
X96430771Y-78504102D02*
X96418621Y-78517241D01*
X96418621Y-78517241D02*
X96348764Y-78567172D01*
X96348764Y-78567172D02*
X96280941Y-78564895D01*
X96280941Y-78564895D02*
X96212365Y-78521584D01*
X96212365Y-78521584D02*
X96171465Y-78475346D01*
X96171465Y-78475346D02*
X96147242Y-78407857D01*
X96147242Y-78407857D02*
X96133639Y-78301433D01*
X96133639Y-78301433D02*
X96132706Y-78289020D01*
X96132706Y-78289020D02*
X96130384Y-78096147D01*
X96130384Y-78096147D02*
X96154650Y-77952900D01*
X96154650Y-77952900D02*
X96205176Y-77860160D01*
X96205176Y-77860160D02*
X96281632Y-77818807D01*
X96281632Y-77818807D02*
X96308924Y-77816552D01*
X96308924Y-77816552D02*
X96380589Y-77827893D01*
X96380589Y-77827893D02*
X96429610Y-77867184D01*
X96429610Y-77867184D02*
X96459582Y-77942326D01*
X96459582Y-77942326D02*
X96474101Y-78061222D01*
X96474101Y-78061222D02*
X96477011Y-78186019D01*
X96477011Y-78186019D02*
X96768893Y-78186019D01*
X96768893Y-78186019D02*
X96767878Y-78045659D01*
X96767878Y-78045659D02*
X96763312Y-77940549D01*
X96763312Y-77940549D02*
X96753312Y-77867714D01*
X96753312Y-77867714D02*
X96735921Y-77814108D01*
X96735921Y-77814108D02*
X96709184Y-77766681D01*
X96709184Y-77766681D02*
X96703276Y-77757864D01*
X96703276Y-77757864D02*
X96603968Y-77639007D01*
X96603968Y-77639007D02*
X96495758Y-77570008D01*
X96495758Y-77570008D02*
X96364019Y-77542619D01*
X96364019Y-77542619D02*
X96319283Y-77541281D01*
X96319283Y-77541281D02*
X96151779Y-77566015D01*
X96151779Y-77566015D02*
X96151779Y-77566015D01*
G36*
X96768938Y-78227744D02*
G01*
X96767355Y-78368918D01*
X96761916Y-78467285D01*
X96750643Y-78535990D01*
X96731561Y-78588181D01*
X96702694Y-78637004D01*
X96695592Y-78647135D01*
X96620444Y-78727012D01*
X96534820Y-78787253D01*
X96490852Y-78806802D01*
X96332861Y-78839408D01*
X96176613Y-78818317D01*
X96032618Y-78746249D01*
X95911385Y-78625922D01*
X95901150Y-78609803D01*
X95867847Y-78516205D01*
X95845405Y-78385879D01*
X95834516Y-78235371D01*
X95835740Y-78096147D01*
X96130384Y-78096147D01*
X96132706Y-78289020D01*
X96133639Y-78301433D01*
X96147242Y-78407857D01*
X96171465Y-78475346D01*
X96212365Y-78521584D01*
X96280941Y-78564895D01*
X96348764Y-78567172D01*
X96418621Y-78517241D01*
X96430771Y-78504102D01*
X96454575Y-78464785D01*
X96468628Y-78407674D01*
X96475313Y-78319256D01*
X96477011Y-78186019D01*
X96474101Y-78061222D01*
X96459582Y-77942326D01*
X96429610Y-77867184D01*
X96380589Y-77827893D01*
X96308924Y-77816552D01*
X96281632Y-77818807D01*
X96205176Y-77860160D01*
X96154650Y-77952900D01*
X96130384Y-78096147D01*
X95835740Y-78096147D01*
X95835871Y-78081227D01*
X95850161Y-77939992D01*
X95878075Y-77828213D01*
X95913949Y-77753766D01*
X96014939Y-77637968D01*
X96151779Y-77566015D01*
X96319283Y-77541281D01*
X96364019Y-77542619D01*
X96495758Y-77570008D01*
X96603968Y-77639007D01*
X96703276Y-77757864D01*
X96709184Y-77766681D01*
X96735921Y-77814108D01*
X96753312Y-77867714D01*
X96763312Y-77940549D01*
X96767878Y-78045659D01*
X96768893Y-78186019D01*
X96768965Y-78196092D01*
X96768938Y-78227744D01*
G37*
X96768938Y-78227744D02*
X96767355Y-78368918D01*
X96761916Y-78467285D01*
X96750643Y-78535990D01*
X96731561Y-78588181D01*
X96702694Y-78637004D01*
X96695592Y-78647135D01*
X96620444Y-78727012D01*
X96534820Y-78787253D01*
X96490852Y-78806802D01*
X96332861Y-78839408D01*
X96176613Y-78818317D01*
X96032618Y-78746249D01*
X95911385Y-78625922D01*
X95901150Y-78609803D01*
X95867847Y-78516205D01*
X95845405Y-78385879D01*
X95834516Y-78235371D01*
X95835740Y-78096147D01*
X96130384Y-78096147D01*
X96132706Y-78289020D01*
X96133639Y-78301433D01*
X96147242Y-78407857D01*
X96171465Y-78475346D01*
X96212365Y-78521584D01*
X96280941Y-78564895D01*
X96348764Y-78567172D01*
X96418621Y-78517241D01*
X96430771Y-78504102D01*
X96454575Y-78464785D01*
X96468628Y-78407674D01*
X96475313Y-78319256D01*
X96477011Y-78186019D01*
X96474101Y-78061222D01*
X96459582Y-77942326D01*
X96429610Y-77867184D01*
X96380589Y-77827893D01*
X96308924Y-77816552D01*
X96281632Y-77818807D01*
X96205176Y-77860160D01*
X96154650Y-77952900D01*
X96130384Y-78096147D01*
X95835740Y-78096147D01*
X95835871Y-78081227D01*
X95850161Y-77939992D01*
X95878075Y-77828213D01*
X95913949Y-77753766D01*
X96014939Y-77637968D01*
X96151779Y-77566015D01*
X96319283Y-77541281D01*
X96364019Y-77542619D01*
X96495758Y-77570008D01*
X96603968Y-77639007D01*
X96703276Y-77757864D01*
X96709184Y-77766681D01*
X96735921Y-77814108D01*
X96753312Y-77867714D01*
X96763312Y-77940549D01*
X96767878Y-78045659D01*
X96768893Y-78186019D01*
X96768965Y-78196092D01*
X96768938Y-78227744D01*
%TD*%
M02*
