M48
; DRILL file {KiCad (6.0.11-0)} date Tuesday, August 08, 2023 at 05:21:13 PM
; FORMAT={-:-/ absolute / inch / decimal}
; #@! TF.CreationDate,2023-08-08T17:21:13-05:00
; #@! TF.GenerationSoftware,Kicad,Pcbnew,(6.0.11-0)
; #@! TF.FileFunction,MixedPlating,1,2
FMAT,2
INCH
; #@! TA.AperFunction,Plated,PTH,ViaDrill
T1C0.0157
; #@! TA.AperFunction,Plated,PTH,ComponentDrill
T2C0.0157
; #@! TA.AperFunction,Plated,PTH,ComponentDrill
T3C0.0236
; #@! TA.AperFunction,Plated,PTH,ComponentDrill
T4C0.0350
; #@! TA.AperFunction,Plated,PTH,ComponentDrill
T5C0.0394
; #@! TA.AperFunction,Plated,PTH,ComponentDrill
T6C0.0984
; #@! TA.AperFunction,NonPlated,NPTH,ComponentDrill
T7C0.0591
%
G90
G05
T1
X2.5763Y-2.2866
X2.5882Y-2.3944
X2.6236Y-2.9132
X2.6675Y-2.8581
X2.9077Y-2.1584
X2.9646Y-1.874
X3.0088Y-2.6924
X3.0562Y-2.8978
X3.1457Y-1.9488
X3.2008Y-3.5709
X3.2126Y-2.1142
X3.2874Y-2.5197
X3.2913Y-2.1181
X3.3031Y-1.9961
X3.3504Y-2.378
X3.365Y-2.8061
X3.3701Y-2.2732
X3.4043Y-2.5039
X3.4372Y-2.3573
X3.4413Y-2.8378
X3.4663Y-2.3228
X3.4685Y-2.8093
X3.4982Y-2.0293
X3.5079Y-2.874
X3.525Y-2.6824
X3.5478Y-2.7914
X3.5659Y-2.3111
X3.6311Y-2.6169
X3.6568Y-2.7513
X3.6772Y-2.4213
X3.7079Y-2.3071
X3.7331Y-2.6888
X3.748Y-2.4921
X3.748Y-2.7874
X3.7874Y-2.5787
X3.7953Y-2.6535
X3.7971Y-2.7186
X3.7992Y-2.4567
X3.8189Y-2.8307
X3.9331Y-2.8386
X3.9822Y-2.3229
X3.9961Y-2.1142
X4.0039Y-1.8307
X4.0118Y-2.6327
T2
X3.4341Y-1.9321
X3.4341Y-1.9852
X3.4675Y-1.9321
X3.4675Y-1.9852
X3.501Y-1.9321
X3.501Y-1.9852
X3.5344Y-1.9321
X3.5344Y-1.9852
X3.5679Y-1.9321
X3.5679Y-1.9852
X3.6014Y-1.9321
X3.6014Y-1.9852
X3.6348Y-1.9321
X3.6348Y-1.9852
X3.6683Y-1.9321
X3.6683Y-1.9852
T4
X2.7951Y-1.7986
X3.0411Y-1.7986
T5
X4.1614Y-2.1634
X4.1614Y-2.2634
X4.1614Y-2.3634
X4.1614Y-2.4634
X4.1614Y-2.5634
X4.1614Y-2.6634
X4.1614Y-2.7634
X4.1614Y-2.8634
X4.1614Y-2.9634
T6
X2.6Y-1.85
X2.6Y-3.65
X4.15Y-1.85
X4.15Y-3.65
T7
X2.8701Y-2.5394
X2.8701Y-2.8346
T3
G00X3.3809Y-1.8293
M15
G01X3.3809Y-1.7978
M16
G05
G00X3.3809Y-1.9762
M15
G01X3.3809Y-1.9171
M16
G05
G00X3.7215Y-1.8293
M15
G01X3.7215Y-1.7978
M16
G05
G00X3.7215Y-1.9762
M15
G01X3.7215Y-1.9171
M16
G05
T0
M30
