%TF.GenerationSoftware,KiCad,Pcbnew,(6.0.11-0)*%
%TF.CreationDate,2023-08-08T17:21:03-05:00*%
%TF.ProjectId,dropkick,64726f70-6b69-4636-9b2e-6b696361645f,rev?*%
%TF.SameCoordinates,Original*%
%TF.FileFunction,Copper,L2,Bot*%
%TF.FilePolarity,Positive*%
%FSLAX46Y46*%
G04 Gerber Fmt 4.6, Leading zero omitted, Abs format (unit mm)*
G04 Created by KiCad (PCBNEW (6.0.11-0)) date 2023-08-08 17:21:03*
%MOMM*%
%LPD*%
G01*
G04 APERTURE LIST*
%TA.AperFunction,ComponentPad*%
%ADD10C,3.200000*%
%TD*%
%TA.AperFunction,ComponentPad*%
%ADD11R,1.700000X1.700000*%
%TD*%
%TA.AperFunction,ComponentPad*%
%ADD12O,1.700000X1.700000*%
%TD*%
%TA.AperFunction,ComponentPad*%
%ADD13C,0.700000*%
%TD*%
%TA.AperFunction,ComponentPad*%
%ADD14O,0.900000X1.700000*%
%TD*%
%TA.AperFunction,ComponentPad*%
%ADD15O,0.900000X2.400000*%
%TD*%
%TA.AperFunction,SMDPad,CuDef*%
%ADD16R,1.500000X0.700000*%
%TD*%
%TA.AperFunction,SMDPad,CuDef*%
%ADD17R,1.400000X1.800000*%
%TD*%
%TA.AperFunction,SMDPad,CuDef*%
%ADD18R,1.900000X1.400000*%
%TD*%
%TA.AperFunction,SMDPad,CuDef*%
%ADD19R,4.600000X1.000000*%
%TD*%
%TA.AperFunction,SMDPad,CuDef*%
%ADD20R,3.400000X1.600000*%
%TD*%
%TA.AperFunction,SMDPad,CuDef*%
%ADD21R,1.092200X2.006600*%
%TD*%
%TA.AperFunction,ComponentPad*%
%ADD22C,1.397000*%
%TD*%
%TA.AperFunction,SMDPad,CuDef*%
%ADD23R,0.650000X2.760000*%
%TD*%
%TA.AperFunction,SMDPad,CuDef*%
%ADD24R,0.650000X2.750000*%
%TD*%
%TA.AperFunction,ViaPad*%
%ADD25C,0.800000*%
%TD*%
%TA.AperFunction,Conductor*%
%ADD26C,0.250000*%
%TD*%
%TA.AperFunction,Conductor*%
%ADD27C,0.200000*%
%TD*%
G04 APERTURE END LIST*
D10*
%TO.P,H2,P$1*%
%TO.N,N/C*%
X105410000Y-46990000D03*
%TD*%
%TO.P,H1,P$1*%
%TO.N,N/C*%
X66040000Y-46990000D03*
%TD*%
%TO.P,H4,P$1*%
%TO.N,N/C*%
X105410000Y-92710000D03*
%TD*%
D11*
%TO.P,J1,1,Pin_1*%
%TO.N,VBAT*%
X105700000Y-54950000D03*
D12*
%TO.P,J1,2,Pin_2*%
%TO.N,+3V3*%
X105700000Y-57490000D03*
%TO.P,J1,3,Pin_3*%
%TO.N,/SCL*%
X105700000Y-60030000D03*
%TO.P,J1,4,Pin_4*%
%TO.N,/SDA*%
X105700000Y-62570000D03*
%TO.P,J1,5,Pin_5*%
%TO.N,/AREF*%
X105700000Y-65110000D03*
%TO.P,J1,6,Pin_6*%
%TO.N,/A0*%
X105700000Y-67650000D03*
%TO.P,J1,7,Pin_7*%
%TO.N,/D0*%
X105700000Y-70190000D03*
%TO.P,J1,8,Pin_8*%
%TO.N,/D1*%
X105700000Y-72730000D03*
%TO.P,J1,9,Pin_9*%
%TO.N,GND*%
X105700000Y-75270000D03*
%TD*%
D10*
%TO.P,H3,P$1*%
%TO.N,N/C*%
X66040000Y-92710000D03*
%TD*%
D13*
%TO.P,J2,A1,GND*%
%TO.N,GND*%
X93175000Y-50425000D03*
%TO.P,J2,A4,VBUS*%
%TO.N,VBUS*%
X92325000Y-50425000D03*
%TO.P,J2,A5,CC1*%
%TO.N,Net-(J2-PadA5)*%
X91475000Y-50425000D03*
%TO.P,J2,A6,D+*%
%TO.N,/D+*%
X90625000Y-50425000D03*
%TO.P,J2,A7,D-*%
%TO.N,/D-*%
X89775000Y-50425000D03*
%TO.P,J2,A8,SBU1*%
%TO.N,unconnected-(J2-PadA8)*%
X88925000Y-50425000D03*
%TO.P,J2,A9,VBUS*%
%TO.N,VBUS*%
X88075000Y-50425000D03*
%TO.P,J2,A12,GND*%
%TO.N,GND*%
X87225000Y-50425000D03*
%TO.P,J2,B1,GND*%
X87225000Y-49075000D03*
%TO.P,J2,B4,VBUS*%
%TO.N,VBUS*%
X88075000Y-49075000D03*
%TO.P,J2,B5,CC2*%
%TO.N,Net-(J2-PadB5)*%
X88925000Y-49075000D03*
%TO.P,J2,B6,D+*%
%TO.N,/D+*%
X89775000Y-49075000D03*
%TO.P,J2,B7,D-*%
%TO.N,/D-*%
X90625000Y-49075000D03*
%TO.P,J2,B8,SBU2*%
%TO.N,unconnected-(J2-PadB8)*%
X91475000Y-49075000D03*
%TO.P,J2,B9,VBUS*%
%TO.N,VBUS*%
X92325000Y-49075000D03*
%TO.P,J2,B12,GND*%
%TO.N,GND*%
X93175000Y-49075000D03*
D14*
%TO.P,J2,S1,SHIELD*%
%TO.N,unconnected-(J2-PadS1)*%
X94525000Y-46065000D03*
X85875000Y-46065000D03*
D15*
X94525000Y-49445000D03*
X85875000Y-49445000D03*
%TD*%
D16*
%TO.P,X3,1,DAT2*%
%TO.N,unconnected-(X3-Pad1)*%
X69540000Y-66730000D03*
%TO.P,X3,2,CS*%
%TO.N,/SD_CS*%
X69940000Y-67830000D03*
%TO.P,X3,3,DATA_IN*%
%TO.N,/MOSI*%
X69540000Y-68930000D03*
%TO.P,X3,4,SD_VDD*%
%TO.N,+3V3*%
X69140000Y-70030000D03*
%TO.P,X3,5,SCLK*%
%TO.N,/SCK*%
X69540000Y-71130000D03*
%TO.P,X3,6,GND@3*%
%TO.N,GND*%
X69140000Y-72230000D03*
%TO.P,X3,7,DATA_OUT*%
%TO.N,/MISO*%
X69540000Y-73330000D03*
%TO.P,X3,8,DAT1*%
%TO.N,unconnected-(X3-Pad8)*%
X69540000Y-74430000D03*
D17*
%TO.P,X3,CD1,CARD_DETECT*%
%TO.N,/D7*%
X79740000Y-73730000D03*
%TO.P,X3,CD2,CARD_DETECT1*%
%TO.N,unconnected-(X3-PadCD2)*%
X79740000Y-67730000D03*
D18*
%TO.P,X3,MT1,GND@2*%
%TO.N,GND*%
X66640000Y-75330000D03*
%TO.P,X3,MT2,GND@1*%
X65740000Y-62130000D03*
%TD*%
D19*
%TO.P,X2,1,1*%
%TO.N,GND*%
X68250000Y-57230000D03*
%TO.P,X2,2,2*%
%TO.N,Net-(SW1-Pad2)*%
X68250000Y-55230000D03*
D20*
%TO.P,X2,NC1*%
%TO.N,N/C*%
X73450000Y-59630000D03*
%TO.P,X2,NC2*%
X73450000Y-52830000D03*
%TD*%
D21*
%TO.P,SW1,1,1*%
%TO.N,unconnected-(SW1-Pad1)*%
X71120000Y-49784000D03*
%TO.P,SW1,2,2*%
%TO.N,Net-(SW1-Pad2)*%
X73120001Y-49784000D03*
%TO.P,SW1,3,3*%
%TO.N,VBAT*%
X75120002Y-49784000D03*
D22*
%TO.P,SW1,4*%
%TO.N,N/C*%
X70994999Y-45683932D03*
%TO.P,SW1,5*%
X77244999Y-45683932D03*
%TD*%
D23*
%TO.P,JP1,1*%
%TO.N,+3V3*%
X95120000Y-53690000D03*
%TO.P,JP1,2*%
%TO.N,/SWDIO*%
X95120000Y-57750000D03*
%TO.P,JP1,3*%
%TO.N,GND*%
X96390000Y-53690000D03*
D24*
%TO.P,JP1,4*%
%TO.N,/SWCLK*%
X96390000Y-57750000D03*
D23*
%TO.P,JP1,5*%
%TO.N,GND*%
X97660000Y-53690000D03*
%TO.P,JP1,6*%
%TO.N,unconnected-(JP1-Pad6)*%
X97660000Y-57750000D03*
%TO.P,JP1,7*%
%TO.N,unconnected-(JP1-Pad7)*%
X98930000Y-53690000D03*
%TO.P,JP1,8*%
%TO.N,unconnected-(JP1-Pad8)*%
X98930000Y-57750000D03*
%TO.P,JP1,9*%
%TO.N,GND*%
X100200000Y-53690000D03*
%TO.P,JP1,10*%
%TO.N,/{slash}RESET*%
X100200000Y-57750000D03*
%TD*%
D25*
%TO.N,GND*%
X101700000Y-46500000D03*
X66640000Y-73995200D03*
X93400000Y-61500000D03*
X79900000Y-49500000D03*
X85469792Y-71275100D03*
X89100000Y-73000000D03*
X81600000Y-53700000D03*
X85100000Y-60400000D03*
X83900000Y-50700000D03*
X65439100Y-58080500D03*
X75300000Y-47600000D03*
X83600000Y-53800000D03*
X101500000Y-53700000D03*
X99900000Y-72100000D03*
X67755500Y-72596600D03*
X65740000Y-60816800D03*
X81300000Y-90700000D03*
%TO.N,/AREF*%
X83500000Y-64000000D03*
%TO.N,+3V3*%
X85600000Y-57739900D03*
X101147100Y-59002200D03*
%TO.N,VBAT*%
X73855884Y-54824500D03*
%TO.N,/D13*%
X95200000Y-70800000D03*
X97000000Y-71900000D03*
%TO.N,/D11*%
X94820000Y-68296600D03*
X101900000Y-66871800D03*
%TO.N,/SCL*%
X96200000Y-65500000D03*
X96447474Y-69051496D03*
X96400000Y-67400000D03*
X92882650Y-69882650D03*
%TO.N,/D1*%
X87409304Y-72079672D03*
%TO.N,/D0*%
X88100061Y-71357273D03*
%TO.N,/MISO*%
X77628200Y-73605000D03*
%TO.N,/MOSI*%
X89535700Y-68133900D03*
%TO.N,/SCK*%
X90113244Y-70901499D03*
%TO.N,/A0*%
X86468400Y-63600000D03*
%TO.N,/~{RESET}*%
X94181700Y-58600900D03*
X90574580Y-58701400D03*
%TO.N,/SWCLK*%
X88043100Y-58999800D03*
%TO.N,/SWDIO*%
X87303900Y-59875600D03*
%TO.N,/SD_CS*%
X76423200Y-68388000D03*
%TO.N,/D7*%
X92229900Y-66469800D03*
%TO.N,/D+*%
X95200000Y-63300000D03*
X96500000Y-62400000D03*
%TO.N,Net-(J2-PadA5)*%
X88853600Y-51543900D03*
%TD*%
D26*
%TO.N,GND*%
X67755500Y-72596600D02*
X68063100Y-72289000D01*
X99548100Y-55396900D02*
X100200000Y-54745000D01*
X100200000Y-54745000D02*
X100200000Y-53690000D01*
X66640000Y-73995200D02*
X66640000Y-75330000D01*
X97660000Y-54745000D02*
X97660000Y-53690000D01*
X100210000Y-53700000D02*
X100200000Y-53690000D01*
X68063100Y-72289000D02*
X68063100Y-72230000D01*
X65623100Y-57896500D02*
X65623100Y-57230000D01*
X101500000Y-53700000D02*
X100210000Y-53700000D01*
X65439100Y-58080500D02*
X65623100Y-57896500D01*
X98311900Y-55396900D02*
X97660000Y-54745000D01*
X97660000Y-53690000D02*
X96390000Y-53690000D01*
X68250000Y-57230000D02*
X65623100Y-57230000D01*
X65740000Y-62130000D02*
X65740000Y-60816800D01*
X98311900Y-55396900D02*
X99548100Y-55396900D01*
X69140000Y-72230000D02*
X68063100Y-72230000D01*
%TO.N,/AREF*%
X93407399Y-64225999D02*
X92054200Y-62872800D01*
X92054200Y-62872800D02*
X84627200Y-62872800D01*
X104815999Y-64225999D02*
X93407399Y-64225999D01*
X84627200Y-62872800D02*
X83500000Y-64000000D01*
X105700000Y-65110000D02*
X104815999Y-64225999D01*
%TO.N,+3V3*%
X101518800Y-56901500D02*
X101518800Y-58630500D01*
X100660400Y-56043100D02*
X101518800Y-56901500D01*
X73384900Y-61279500D02*
X82060400Y-61279500D01*
X68063100Y-70030000D02*
X68063100Y-66601300D01*
X95120000Y-53690000D02*
X95120000Y-55396900D01*
X69140000Y-70030000D02*
X68063100Y-70030000D01*
X101518800Y-58630500D02*
X101147100Y-59002200D01*
X95120000Y-56043100D02*
X87296800Y-56043100D01*
X95120000Y-56043100D02*
X100660400Y-56043100D01*
X105700000Y-57490000D02*
X105700000Y-56901500D01*
X82060400Y-61279500D02*
X85600000Y-57739900D01*
X101518800Y-56901500D02*
X105700000Y-56901500D01*
X95120000Y-55396900D02*
X95120000Y-56043100D01*
X87296800Y-56043100D02*
X85600000Y-57739900D01*
X68063100Y-66601300D02*
X73384900Y-61279500D01*
%TO.N,VBUS*%
X88167350Y-48867350D02*
X88167350Y-48982650D01*
X88167350Y-48982650D02*
X88075000Y-49075000D01*
X88651600Y-48383100D02*
X88167350Y-48867350D01*
X91801900Y-48383100D02*
X88651600Y-48383100D01*
X92325000Y-48906200D02*
X91801900Y-48383100D01*
X92325000Y-49075000D02*
X92325000Y-48906200D01*
%TO.N,VBAT*%
X95299500Y-50980800D02*
X93994400Y-52285900D01*
X93994400Y-52285900D02*
X76291700Y-52285900D01*
X76291700Y-52285900D02*
X76291700Y-52963900D01*
X76291700Y-52285900D02*
X75120000Y-51114200D01*
X105700000Y-54950000D02*
X104600000Y-54950000D01*
X104600000Y-54950000D02*
X100630800Y-50980800D01*
X75120000Y-49784000D02*
X75120000Y-51114200D01*
X74431100Y-54824500D02*
X73855884Y-54824500D01*
X100630800Y-50980800D02*
X95299500Y-50980800D01*
X76291700Y-52963900D02*
X74431100Y-54824500D01*
%TO.N,/D13*%
X95900000Y-70800000D02*
X95200000Y-70800000D01*
X97000000Y-71900000D02*
X96000000Y-70900000D01*
X96000000Y-70900000D02*
X95900000Y-70800000D01*
%TO.N,/D11*%
X100475200Y-68296600D02*
X101900000Y-66871800D01*
X94820000Y-68296600D02*
X100475200Y-68296600D01*
%TO.N,/SCL*%
X93713803Y-69051497D02*
X96447474Y-69051496D01*
X96400000Y-67400000D02*
X96400000Y-65700000D01*
X92882650Y-69882650D02*
X93713803Y-69051497D01*
X96400000Y-65700000D02*
X96200000Y-65500000D01*
%TO.N,/D1*%
X96786189Y-71050499D02*
X95811190Y-70075500D01*
X92288810Y-72175500D02*
X87505132Y-72175500D01*
X104020499Y-71050499D02*
X96786189Y-71050499D01*
X105700000Y-72730000D02*
X104020499Y-71050499D01*
X87505132Y-72175500D02*
X87409304Y-72079672D01*
X95811190Y-70075500D02*
X94388810Y-70075500D01*
X94388810Y-70075500D02*
X92288810Y-72175500D01*
%TO.N,/D0*%
X88394503Y-71651715D02*
X88100061Y-71357273D01*
X94327622Y-69500998D02*
X92176905Y-71651715D01*
X95872378Y-69500998D02*
X94327622Y-69500998D01*
X96972378Y-70600998D02*
X95872378Y-69500998D01*
X92176905Y-71651715D02*
X88394503Y-71651715D01*
X105289002Y-70600998D02*
X96972378Y-70600998D01*
X105700000Y-70190000D02*
X105289002Y-70600998D01*
%TO.N,/MISO*%
X71897252Y-73330000D02*
X72216754Y-73649502D01*
X73583246Y-73649502D02*
X73902748Y-73330000D01*
X77353200Y-73330000D02*
X77628200Y-73605000D01*
X73902748Y-73330000D02*
X77353200Y-73330000D01*
X72216754Y-73649502D02*
X73583246Y-73649502D01*
X69540000Y-73330000D02*
X71897252Y-73330000D01*
%TO.N,/MOSI*%
X70616900Y-68930000D02*
X70805400Y-69118500D01*
X69540000Y-68930000D02*
X70616900Y-68930000D01*
X70805400Y-69118500D02*
X88551100Y-69118500D01*
X88551100Y-69118500D02*
X89535700Y-68133900D01*
%TO.N,/SCK*%
X69540000Y-71130000D02*
X70616900Y-71130000D01*
X71699999Y-71502943D02*
X71699999Y-72497057D01*
X89762345Y-70550600D02*
X90113244Y-70901499D01*
X78369700Y-74426600D02*
X78965900Y-75022800D01*
X78965900Y-75022800D02*
X80697200Y-75022800D01*
X73508158Y-70911100D02*
X75978800Y-70911100D01*
X72291842Y-70911100D02*
X71699999Y-71502943D01*
X74100001Y-72497057D02*
X74100001Y-71502943D01*
X85169400Y-70550600D02*
X89762345Y-70550600D01*
X80697200Y-75022800D02*
X85169400Y-70550600D01*
X70835800Y-70911100D02*
X72291842Y-70911100D01*
X73397057Y-73200001D02*
X74100001Y-72497057D01*
X71699999Y-72497057D02*
X72402943Y-73200001D01*
X74100001Y-71502943D02*
X73508158Y-70911100D01*
X78369700Y-73302000D02*
X78369700Y-74426600D01*
X70616900Y-71130000D02*
X70835800Y-70911100D01*
X72402943Y-73200001D02*
X73397057Y-73200001D01*
X75978800Y-70911100D02*
X78369700Y-73302000D01*
%TO.N,/A0*%
X95515902Y-64959500D02*
X87827900Y-64959500D01*
X95799902Y-64675500D02*
X95515902Y-64959500D01*
X87827900Y-64959500D02*
X86468400Y-63600000D01*
X102725500Y-64675500D02*
X95799902Y-64675500D01*
X105700000Y-67650000D02*
X102725500Y-64675500D01*
%TO.N,/~{RESET}*%
X90585480Y-58712300D02*
X90574580Y-58701400D01*
X94181700Y-58600900D02*
X94070300Y-58712300D01*
X94070300Y-58712300D02*
X90585480Y-58712300D01*
%TO.N,/SWCLK*%
X88043100Y-58999800D02*
X88500200Y-59456900D01*
X96390000Y-57750000D02*
X96390000Y-59451900D01*
X96385000Y-59456900D02*
X96390000Y-59451900D01*
X88500200Y-59456900D02*
X96385000Y-59456900D01*
%TO.N,/SWDIO*%
X95120000Y-57750000D02*
X88211100Y-57750000D01*
X88211100Y-57750000D02*
X87303900Y-58657200D01*
X87303900Y-58657200D02*
X87303900Y-59875600D01*
%TO.N,/SD_CS*%
X75865200Y-67830000D02*
X69940000Y-67830000D01*
X76423200Y-68388000D02*
X75865200Y-67830000D01*
%TO.N,/D7*%
X79740000Y-73530000D02*
X79740000Y-73730000D01*
X83172800Y-70097200D02*
X79740000Y-73530000D01*
X92229900Y-66469800D02*
X88602500Y-70097200D01*
X88602500Y-70097200D02*
X83172800Y-70097200D01*
D27*
%TO.N,/D-*%
X89775000Y-50425000D02*
X89775000Y-50247700D01*
D26*
X90625000Y-49397700D02*
X89775000Y-50247700D01*
X90625000Y-49075000D02*
X90625000Y-49397700D01*
D27*
%TO.N,/D+*%
X96500000Y-62400000D02*
X95600000Y-63300000D01*
X95200000Y-63300000D02*
X95600000Y-63300000D01*
X96500000Y-62400000D02*
X95600000Y-63300000D01*
D26*
%TO.N,Net-(SW1-Pad2)*%
X70876900Y-52367100D02*
X70876900Y-55230000D01*
X73120000Y-49784000D02*
X73120000Y-51114200D01*
X72129800Y-51114200D02*
X70876900Y-52367100D01*
X73120000Y-51114200D02*
X72129800Y-51114200D01*
X68250000Y-55230000D02*
X70876900Y-55230000D01*
%TO.N,Net-(J2-PadA5)*%
X91475000Y-50605700D02*
X91475000Y-50425000D01*
X88853600Y-51543800D02*
X90536900Y-51543800D01*
X90536900Y-51543800D02*
X91475000Y-50605700D01*
X88853600Y-51543900D02*
X88853600Y-51543800D01*
%TD*%
%TA.AperFunction,Conductor*%
%TO.N,GND*%
G36*
X70060836Y-44870502D02*
G01*
X70107329Y-44924158D01*
X70117433Y-44994432D01*
X70091665Y-45054506D01*
X70069352Y-45082810D01*
X70066663Y-45087921D01*
X70066661Y-45087924D01*
X70040768Y-45137139D01*
X69975306Y-45261561D01*
X69915410Y-45454458D01*
X69891669Y-45655040D01*
X69904879Y-45856590D01*
X69906300Y-45862186D01*
X69906301Y-45862191D01*
X69953177Y-46046762D01*
X69954598Y-46052357D01*
X70039160Y-46235786D01*
X70155733Y-46400733D01*
X70300413Y-46541674D01*
X70305209Y-46544879D01*
X70305212Y-46544881D01*
X70438877Y-46634193D01*
X70468355Y-46653889D01*
X70473664Y-46656170D01*
X70473666Y-46656171D01*
X70648624Y-46731340D01*
X70648628Y-46731341D01*
X70653934Y-46733621D01*
X70850936Y-46778198D01*
X70856705Y-46778425D01*
X70856708Y-46778425D01*
X70933127Y-46781427D01*
X71052763Y-46786127D01*
X71154685Y-46771349D01*
X71246933Y-46757974D01*
X71246937Y-46757973D01*
X71252655Y-46757144D01*
X71258127Y-46755286D01*
X71258129Y-46755286D01*
X71438453Y-46694074D01*
X71438455Y-46694073D01*
X71443917Y-46692219D01*
X71620146Y-46593527D01*
X71665845Y-46555519D01*
X71771005Y-46468058D01*
X71775438Y-46464371D01*
X71904594Y-46309079D01*
X72003286Y-46132850D01*
X72068211Y-45941588D01*
X72097194Y-45741696D01*
X72098707Y-45683932D01*
X72080225Y-45482797D01*
X72077977Y-45474824D01*
X72026968Y-45293962D01*
X72025399Y-45288398D01*
X71936065Y-45107246D01*
X71903080Y-45063073D01*
X71894728Y-45051889D01*
X71869996Y-44985339D01*
X71885170Y-44915983D01*
X71935432Y-44865841D01*
X71995686Y-44850500D01*
X76242715Y-44850500D01*
X76310836Y-44870502D01*
X76357329Y-44924158D01*
X76367433Y-44994432D01*
X76341665Y-45054506D01*
X76319352Y-45082810D01*
X76316663Y-45087921D01*
X76316661Y-45087924D01*
X76290768Y-45137139D01*
X76225306Y-45261561D01*
X76165410Y-45454458D01*
X76141669Y-45655040D01*
X76154879Y-45856590D01*
X76156300Y-45862186D01*
X76156301Y-45862191D01*
X76203177Y-46046762D01*
X76204598Y-46052357D01*
X76289160Y-46235786D01*
X76405733Y-46400733D01*
X76550413Y-46541674D01*
X76555209Y-46544879D01*
X76555212Y-46544881D01*
X76688877Y-46634193D01*
X76718355Y-46653889D01*
X76723664Y-46656170D01*
X76723666Y-46656171D01*
X76898624Y-46731340D01*
X76898628Y-46731341D01*
X76903934Y-46733621D01*
X77100936Y-46778198D01*
X77106705Y-46778425D01*
X77106708Y-46778425D01*
X77183127Y-46781427D01*
X77302763Y-46786127D01*
X77404685Y-46771349D01*
X77496933Y-46757974D01*
X77496937Y-46757973D01*
X77502655Y-46757144D01*
X77508127Y-46755286D01*
X77508129Y-46755286D01*
X77688453Y-46694074D01*
X77688455Y-46694073D01*
X77693917Y-46692219D01*
X77870146Y-46593527D01*
X77915845Y-46555519D01*
X78021005Y-46468058D01*
X78025438Y-46464371D01*
X78154594Y-46309079D01*
X78253286Y-46132850D01*
X78318211Y-45941588D01*
X78347194Y-45741696D01*
X78348707Y-45683932D01*
X78330225Y-45482797D01*
X78327977Y-45474824D01*
X78276968Y-45293962D01*
X78275399Y-45288398D01*
X78186065Y-45107246D01*
X78153080Y-45063073D01*
X78144728Y-45051889D01*
X78119996Y-44985339D01*
X78135170Y-44915983D01*
X78185432Y-44865841D01*
X78245686Y-44850500D01*
X85176832Y-44850500D01*
X85244953Y-44870502D01*
X85291446Y-44924158D01*
X85301550Y-44994432D01*
X85272056Y-45059012D01*
X85265345Y-45065641D01*
X85265379Y-45065673D01*
X85260674Y-45070614D01*
X85255460Y-45075020D01*
X85251313Y-45080444D01*
X85251312Y-45080445D01*
X85147367Y-45216399D01*
X85147364Y-45216403D01*
X85143223Y-45221820D01*
X85140341Y-45228000D01*
X85140340Y-45228002D01*
X85109583Y-45293962D01*
X85065127Y-45389297D01*
X85063642Y-45395942D01*
X85063640Y-45395947D01*
X85042941Y-45488554D01*
X85024817Y-45569637D01*
X85024500Y-45575307D01*
X85024500Y-46511164D01*
X85039442Y-46648709D01*
X85098383Y-46823848D01*
X85193557Y-46982244D01*
X85198248Y-46987204D01*
X85198249Y-46987206D01*
X85230698Y-47021519D01*
X85320524Y-47116507D01*
X85473360Y-47220375D01*
X85479694Y-47222908D01*
X85479697Y-47222910D01*
X85638598Y-47286466D01*
X85638603Y-47286467D01*
X85644935Y-47289000D01*
X85736689Y-47304190D01*
X85820506Y-47318066D01*
X85820510Y-47318066D01*
X85827244Y-47319181D01*
X85834061Y-47318824D01*
X85834065Y-47318824D01*
X85989111Y-47310698D01*
X86011781Y-47309510D01*
X86018354Y-47307699D01*
X86018357Y-47307699D01*
X86183354Y-47262251D01*
X86189936Y-47260438D01*
X86353398Y-47174254D01*
X86494540Y-47054980D01*
X86544221Y-46990000D01*
X86602633Y-46913601D01*
X86602636Y-46913597D01*
X86606777Y-46908180D01*
X86649119Y-46817378D01*
X86681993Y-46746880D01*
X86681994Y-46746877D01*
X86684873Y-46740703D01*
X86686358Y-46734058D01*
X86686360Y-46734053D01*
X86724057Y-46565400D01*
X86725183Y-46560363D01*
X86725500Y-46554693D01*
X86725500Y-45618836D01*
X86710558Y-45481291D01*
X86651617Y-45306152D01*
X86556443Y-45147756D01*
X86518135Y-45107246D01*
X86476362Y-45063073D01*
X86444090Y-44999835D01*
X86451130Y-44929189D01*
X86495247Y-44873563D01*
X86567910Y-44850500D01*
X93826832Y-44850500D01*
X93894953Y-44870502D01*
X93941446Y-44924158D01*
X93951550Y-44994432D01*
X93922056Y-45059012D01*
X93915345Y-45065641D01*
X93915379Y-45065673D01*
X93910674Y-45070614D01*
X93905460Y-45075020D01*
X93901313Y-45080444D01*
X93901312Y-45080445D01*
X93797367Y-45216399D01*
X93797364Y-45216403D01*
X93793223Y-45221820D01*
X93790341Y-45228000D01*
X93790340Y-45228002D01*
X93759583Y-45293962D01*
X93715127Y-45389297D01*
X93713642Y-45395942D01*
X93713640Y-45395947D01*
X93692941Y-45488554D01*
X93674817Y-45569637D01*
X93674500Y-45575307D01*
X93674500Y-46511164D01*
X93689442Y-46648709D01*
X93748383Y-46823848D01*
X93843557Y-46982244D01*
X93848248Y-46987204D01*
X93848249Y-46987206D01*
X93880698Y-47021519D01*
X93970524Y-47116507D01*
X94123360Y-47220375D01*
X94129694Y-47222908D01*
X94129697Y-47222910D01*
X94288598Y-47286466D01*
X94288603Y-47286467D01*
X94294935Y-47289000D01*
X94386689Y-47304190D01*
X94470506Y-47318066D01*
X94470510Y-47318066D01*
X94477244Y-47319181D01*
X94484061Y-47318824D01*
X94484065Y-47318824D01*
X94639111Y-47310698D01*
X94661781Y-47309510D01*
X94668354Y-47307699D01*
X94668357Y-47307699D01*
X94833354Y-47262251D01*
X94839936Y-47260438D01*
X95003398Y-47174254D01*
X95144540Y-47054980D01*
X95194221Y-46990000D01*
X95252633Y-46913601D01*
X95252636Y-46913597D01*
X95256777Y-46908180D01*
X95299119Y-46817378D01*
X95331993Y-46746880D01*
X95331994Y-46746877D01*
X95334873Y-46740703D01*
X95336358Y-46734058D01*
X95336360Y-46734053D01*
X95374057Y-46565400D01*
X95375183Y-46560363D01*
X95375500Y-46554693D01*
X95375500Y-45618836D01*
X95360558Y-45481291D01*
X95301617Y-45306152D01*
X95206443Y-45147756D01*
X95168135Y-45107246D01*
X95126362Y-45063073D01*
X95094090Y-44999835D01*
X95101130Y-44929189D01*
X95145247Y-44873563D01*
X95217910Y-44850500D01*
X104680658Y-44850500D01*
X104748779Y-44870502D01*
X104795272Y-44924158D01*
X104805376Y-44994432D01*
X104775882Y-45059012D01*
X104724221Y-45094579D01*
X104720487Y-45095580D01*
X104596046Y-45153608D01*
X104406981Y-45241770D01*
X104406978Y-45241772D01*
X104402000Y-45244093D01*
X104114140Y-45445654D01*
X103865654Y-45694140D01*
X103664093Y-45982000D01*
X103661772Y-45986978D01*
X103661770Y-45986981D01*
X103543551Y-46240502D01*
X103515580Y-46300487D01*
X103514158Y-46305795D01*
X103514157Y-46305797D01*
X103444597Y-46565400D01*
X103424628Y-46639925D01*
X103394000Y-46990000D01*
X103424628Y-47340075D01*
X103426052Y-47345388D01*
X103426052Y-47345390D01*
X103509838Y-47658082D01*
X103515580Y-47679513D01*
X103517902Y-47684494D01*
X103517903Y-47684495D01*
X103660435Y-47990155D01*
X103664093Y-47998000D01*
X103865654Y-48285860D01*
X104114140Y-48534346D01*
X104402000Y-48735907D01*
X104406978Y-48738228D01*
X104406981Y-48738230D01*
X104441094Y-48754137D01*
X104720487Y-48884420D01*
X104725795Y-48885842D01*
X104725797Y-48885843D01*
X105054610Y-48973948D01*
X105054612Y-48973948D01*
X105059925Y-48975372D01*
X105410000Y-49006000D01*
X105760075Y-48975372D01*
X105765388Y-48973948D01*
X105765390Y-48973948D01*
X106094203Y-48885843D01*
X106094205Y-48885842D01*
X106099513Y-48884420D01*
X106378906Y-48754137D01*
X106413019Y-48738230D01*
X106413022Y-48738228D01*
X106418000Y-48735907D01*
X106705860Y-48534346D01*
X106954346Y-48285860D01*
X107155907Y-47998000D01*
X107163107Y-47982561D01*
X107302095Y-47684498D01*
X107304420Y-47679513D01*
X107305408Y-47675827D01*
X107347194Y-47619075D01*
X107413516Y-47593738D01*
X107483007Y-47608279D01*
X107533606Y-47658082D01*
X107549500Y-47719342D01*
X107549500Y-91980658D01*
X107529498Y-92048779D01*
X107475842Y-92095272D01*
X107405568Y-92105376D01*
X107340988Y-92075882D01*
X107305421Y-92024221D01*
X107304420Y-92020487D01*
X107155907Y-91702000D01*
X106954346Y-91414140D01*
X106705860Y-91165654D01*
X106418000Y-90964093D01*
X106413022Y-90961772D01*
X106413019Y-90961770D01*
X106104495Y-90817903D01*
X106104494Y-90817902D01*
X106099513Y-90815580D01*
X106094205Y-90814158D01*
X106094203Y-90814157D01*
X105765390Y-90726052D01*
X105765388Y-90726052D01*
X105760075Y-90724628D01*
X105410000Y-90694000D01*
X105059925Y-90724628D01*
X105054612Y-90726052D01*
X105054610Y-90726052D01*
X104725797Y-90814157D01*
X104725795Y-90814158D01*
X104720487Y-90815580D01*
X104715506Y-90817902D01*
X104715505Y-90817903D01*
X104406981Y-90961770D01*
X104406978Y-90961772D01*
X104402000Y-90964093D01*
X104114140Y-91165654D01*
X103865654Y-91414140D01*
X103664093Y-91702000D01*
X103661772Y-91706978D01*
X103661770Y-91706981D01*
X103517903Y-92015505D01*
X103515580Y-92020487D01*
X103514158Y-92025795D01*
X103514157Y-92025797D01*
X103507999Y-92048779D01*
X103424628Y-92359925D01*
X103394000Y-92710000D01*
X103424628Y-93060075D01*
X103426052Y-93065388D01*
X103426052Y-93065390D01*
X103479201Y-93263743D01*
X103515580Y-93399513D01*
X103517902Y-93404494D01*
X103517903Y-93404495D01*
X103647640Y-93682716D01*
X103664093Y-93718000D01*
X103865654Y-94005860D01*
X104114140Y-94254346D01*
X104402000Y-94455907D01*
X104406978Y-94458228D01*
X104406981Y-94458230D01*
X104534437Y-94517663D01*
X104720487Y-94604420D01*
X104724173Y-94605408D01*
X104780925Y-94647194D01*
X104806262Y-94713516D01*
X104791721Y-94783007D01*
X104741918Y-94833606D01*
X104680658Y-94849500D01*
X66769342Y-94849500D01*
X66701221Y-94829498D01*
X66654728Y-94775842D01*
X66644624Y-94705568D01*
X66674118Y-94640988D01*
X66725779Y-94605421D01*
X66729513Y-94604420D01*
X66915563Y-94517663D01*
X67043019Y-94458230D01*
X67043022Y-94458228D01*
X67048000Y-94455907D01*
X67335860Y-94254346D01*
X67584346Y-94005860D01*
X67785907Y-93718000D01*
X67802361Y-93682716D01*
X67932097Y-93404495D01*
X67932098Y-93404494D01*
X67934420Y-93399513D01*
X67970800Y-93263743D01*
X68023948Y-93065390D01*
X68023948Y-93065388D01*
X68025372Y-93060075D01*
X68056000Y-92710000D01*
X68025372Y-92359925D01*
X67942001Y-92048779D01*
X67935843Y-92025797D01*
X67935842Y-92025795D01*
X67934420Y-92020487D01*
X67932097Y-92015505D01*
X67788230Y-91706981D01*
X67788228Y-91706978D01*
X67785907Y-91702000D01*
X67584346Y-91414140D01*
X67335860Y-91165654D01*
X67048000Y-90964093D01*
X67043022Y-90961772D01*
X67043019Y-90961770D01*
X66734495Y-90817903D01*
X66734494Y-90817902D01*
X66729513Y-90815580D01*
X66724205Y-90814158D01*
X66724203Y-90814157D01*
X66395390Y-90726052D01*
X66395388Y-90726052D01*
X66390075Y-90724628D01*
X66040000Y-90694000D01*
X65689925Y-90724628D01*
X65684612Y-90726052D01*
X65684610Y-90726052D01*
X65355797Y-90814157D01*
X65355795Y-90814158D01*
X65350487Y-90815580D01*
X65345506Y-90817902D01*
X65345505Y-90817903D01*
X65036981Y-90961770D01*
X65036978Y-90961772D01*
X65032000Y-90964093D01*
X64744140Y-91165654D01*
X64495654Y-91414140D01*
X64294093Y-91702000D01*
X64145580Y-92020487D01*
X64144592Y-92024173D01*
X64102806Y-92080925D01*
X64036484Y-92106262D01*
X63966993Y-92091721D01*
X63916394Y-92041918D01*
X63900500Y-91980658D01*
X63900500Y-76568107D01*
X63920502Y-76499986D01*
X63952390Y-76466206D01*
X64515702Y-76056525D01*
X65290001Y-76056525D01*
X65290776Y-76066374D01*
X65303283Y-76145351D01*
X65309338Y-76163986D01*
X65357859Y-76259213D01*
X65369370Y-76275056D01*
X65444944Y-76350630D01*
X65460787Y-76362141D01*
X65556018Y-76410664D01*
X65574645Y-76416716D01*
X65653627Y-76429225D01*
X65663473Y-76430000D01*
X66421885Y-76430000D01*
X66437124Y-76425525D01*
X66438329Y-76424135D01*
X66440000Y-76416452D01*
X66440000Y-76411884D01*
X66840000Y-76411884D01*
X66844475Y-76427123D01*
X66845865Y-76428328D01*
X66853548Y-76429999D01*
X67616525Y-76429999D01*
X67626374Y-76429224D01*
X67705351Y-76416717D01*
X67723986Y-76410662D01*
X67819213Y-76362141D01*
X67835056Y-76350630D01*
X67910630Y-76275056D01*
X67922141Y-76259213D01*
X67970664Y-76163982D01*
X67976716Y-76145355D01*
X67989225Y-76066373D01*
X67990000Y-76056527D01*
X67990000Y-75548115D01*
X67985525Y-75532876D01*
X67984135Y-75531671D01*
X67976452Y-75530000D01*
X66858115Y-75530000D01*
X66842876Y-75534475D01*
X66841671Y-75535865D01*
X66840000Y-75543548D01*
X66840000Y-76411884D01*
X66440000Y-76411884D01*
X66440000Y-75548115D01*
X66435525Y-75532876D01*
X66434135Y-75531671D01*
X66426452Y-75530000D01*
X65308116Y-75530000D01*
X65292877Y-75534475D01*
X65291672Y-75535865D01*
X65290001Y-75543548D01*
X65290001Y-76056525D01*
X64515702Y-76056525D01*
X64801952Y-75848343D01*
X64818853Y-75837980D01*
X64838342Y-75828050D01*
X64860943Y-75805449D01*
X64860988Y-75805407D01*
X64861053Y-75805360D01*
X64883423Y-75782969D01*
X64883424Y-75782970D01*
X64883464Y-75782928D01*
X64928050Y-75738342D01*
X64928094Y-75738257D01*
X64928164Y-75738186D01*
X64956835Y-75681848D01*
X64985646Y-75625304D01*
X64985662Y-75625205D01*
X64985705Y-75625120D01*
X64995442Y-75563454D01*
X65000500Y-75531519D01*
X65000500Y-75531440D01*
X65000507Y-75531381D01*
X65003945Y-75509605D01*
X65003945Y-75509603D01*
X65005492Y-75499806D01*
X65003186Y-75485288D01*
X65002061Y-75478210D01*
X65000500Y-75458440D01*
X65000500Y-75111885D01*
X65290000Y-75111885D01*
X65294475Y-75127124D01*
X65295865Y-75128329D01*
X65303548Y-75130000D01*
X66421885Y-75130000D01*
X66437124Y-75125525D01*
X66438329Y-75124135D01*
X66440000Y-75116452D01*
X66440000Y-75111885D01*
X66840000Y-75111885D01*
X66844475Y-75127124D01*
X66845865Y-75128329D01*
X66853548Y-75130000D01*
X67971884Y-75130000D01*
X67987123Y-75125525D01*
X67988328Y-75124135D01*
X67989999Y-75116452D01*
X67989999Y-74603475D01*
X67989224Y-74593626D01*
X67976717Y-74514649D01*
X67970662Y-74496014D01*
X67922141Y-74400787D01*
X67910630Y-74384944D01*
X67835056Y-74309370D01*
X67819213Y-74297859D01*
X67723982Y-74249336D01*
X67705355Y-74243284D01*
X67626373Y-74230775D01*
X67616527Y-74230000D01*
X66858115Y-74230000D01*
X66842876Y-74234475D01*
X66841671Y-74235865D01*
X66840000Y-74243548D01*
X66840000Y-75111885D01*
X66440000Y-75111885D01*
X66440000Y-74248116D01*
X66435525Y-74232877D01*
X66434135Y-74231672D01*
X66426452Y-74230001D01*
X65663475Y-74230001D01*
X65653626Y-74230776D01*
X65574649Y-74243283D01*
X65556014Y-74249338D01*
X65460787Y-74297859D01*
X65444944Y-74309370D01*
X65369370Y-74384944D01*
X65357859Y-74400787D01*
X65309336Y-74496018D01*
X65303284Y-74514645D01*
X65290775Y-74593627D01*
X65290000Y-74603473D01*
X65290000Y-75111885D01*
X65000500Y-75111885D01*
X65000500Y-64336567D01*
X64997436Y-64327136D01*
X64997435Y-64327132D01*
X64993703Y-64315647D01*
X64989087Y-64296422D01*
X64987197Y-64284488D01*
X64987197Y-64284487D01*
X64985646Y-64274696D01*
X64981145Y-64265863D01*
X64981144Y-64265859D01*
X64975659Y-64255094D01*
X64968093Y-64236830D01*
X64961296Y-64215910D01*
X64948361Y-64198107D01*
X64938035Y-64181255D01*
X64935937Y-64177138D01*
X64928050Y-64161658D01*
X64905487Y-64139095D01*
X64905484Y-64139091D01*
X63937405Y-63171012D01*
X63903379Y-63108700D01*
X63900500Y-63081917D01*
X63900500Y-62856525D01*
X64390001Y-62856525D01*
X64390776Y-62866374D01*
X64403283Y-62945351D01*
X64409338Y-62963986D01*
X64457859Y-63059213D01*
X64469370Y-63075056D01*
X64544944Y-63150630D01*
X64560787Y-63162141D01*
X64656018Y-63210664D01*
X64674645Y-63216716D01*
X64753627Y-63229225D01*
X64763473Y-63230000D01*
X65521885Y-63230000D01*
X65537124Y-63225525D01*
X65538329Y-63224135D01*
X65540000Y-63216452D01*
X65540000Y-63211884D01*
X65940000Y-63211884D01*
X65944475Y-63227123D01*
X65945865Y-63228328D01*
X65953548Y-63229999D01*
X66716525Y-63229999D01*
X66726374Y-63229224D01*
X66805351Y-63216717D01*
X66823986Y-63210662D01*
X66919213Y-63162141D01*
X66935056Y-63150630D01*
X67010630Y-63075056D01*
X67022141Y-63059213D01*
X67070664Y-62963982D01*
X67076716Y-62945355D01*
X67089225Y-62866373D01*
X67090000Y-62856527D01*
X67090000Y-62348115D01*
X67085525Y-62332876D01*
X67084135Y-62331671D01*
X67076452Y-62330000D01*
X65958115Y-62330000D01*
X65942876Y-62334475D01*
X65941671Y-62335865D01*
X65940000Y-62343548D01*
X65940000Y-63211884D01*
X65540000Y-63211884D01*
X65540000Y-62348115D01*
X65535525Y-62332876D01*
X65534135Y-62331671D01*
X65526452Y-62330000D01*
X64408116Y-62330000D01*
X64392877Y-62334475D01*
X64391672Y-62335865D01*
X64390001Y-62343548D01*
X64390001Y-62856525D01*
X63900500Y-62856525D01*
X63900500Y-61911885D01*
X64390000Y-61911885D01*
X64394475Y-61927124D01*
X64395865Y-61928329D01*
X64403548Y-61930000D01*
X65521885Y-61930000D01*
X65537124Y-61925525D01*
X65538329Y-61924135D01*
X65540000Y-61916452D01*
X65540000Y-61911885D01*
X65940000Y-61911885D01*
X65944475Y-61927124D01*
X65945865Y-61928329D01*
X65953548Y-61930000D01*
X67071884Y-61930000D01*
X67087123Y-61925525D01*
X67088328Y-61924135D01*
X67089999Y-61916452D01*
X67089999Y-61403475D01*
X67089224Y-61393626D01*
X67076717Y-61314649D01*
X67070662Y-61296014D01*
X67022141Y-61200787D01*
X67010630Y-61184944D01*
X66935056Y-61109370D01*
X66919213Y-61097859D01*
X66823982Y-61049336D01*
X66805355Y-61043284D01*
X66726373Y-61030775D01*
X66716527Y-61030000D01*
X65958115Y-61030000D01*
X65942876Y-61034475D01*
X65941671Y-61035865D01*
X65940000Y-61043548D01*
X65940000Y-61911885D01*
X65540000Y-61911885D01*
X65540000Y-61048116D01*
X65535525Y-61032877D01*
X65534135Y-61031672D01*
X65526452Y-61030001D01*
X64763475Y-61030001D01*
X64753626Y-61030776D01*
X64674649Y-61043283D01*
X64656014Y-61049338D01*
X64560787Y-61097859D01*
X64544944Y-61109370D01*
X64469370Y-61184944D01*
X64457859Y-61200787D01*
X64409336Y-61296018D01*
X64403284Y-61314645D01*
X64390775Y-61393627D01*
X64390000Y-61403473D01*
X64390000Y-61911885D01*
X63900500Y-61911885D01*
X63900500Y-57756525D01*
X65550001Y-57756525D01*
X65550776Y-57766374D01*
X65563283Y-57845351D01*
X65569338Y-57863986D01*
X65617859Y-57959213D01*
X65629370Y-57975056D01*
X65704944Y-58050630D01*
X65720787Y-58062141D01*
X65816018Y-58110664D01*
X65834645Y-58116716D01*
X65913627Y-58129225D01*
X65923473Y-58130000D01*
X68031885Y-58130000D01*
X68047124Y-58125525D01*
X68048329Y-58124135D01*
X68050000Y-58116452D01*
X68050000Y-58111884D01*
X68450000Y-58111884D01*
X68454475Y-58127123D01*
X68455865Y-58128328D01*
X68463548Y-58129999D01*
X70576525Y-58129999D01*
X70586374Y-58129224D01*
X70665351Y-58116717D01*
X70683986Y-58110662D01*
X70779213Y-58062141D01*
X70795056Y-58050630D01*
X70870630Y-57975056D01*
X70882141Y-57959213D01*
X70930664Y-57863982D01*
X70936716Y-57845355D01*
X70949225Y-57766373D01*
X70950000Y-57756527D01*
X70950000Y-57448115D01*
X70945525Y-57432876D01*
X70944135Y-57431671D01*
X70936452Y-57430000D01*
X68468115Y-57430000D01*
X68452876Y-57434475D01*
X68451671Y-57435865D01*
X68450000Y-57443548D01*
X68450000Y-58111884D01*
X68050000Y-58111884D01*
X68050000Y-57448115D01*
X68045525Y-57432876D01*
X68044135Y-57431671D01*
X68036452Y-57430000D01*
X65568116Y-57430000D01*
X65552877Y-57434475D01*
X65551672Y-57435865D01*
X65550001Y-57443548D01*
X65550001Y-57756525D01*
X63900500Y-57756525D01*
X63900500Y-54698481D01*
X65549500Y-54698481D01*
X65549501Y-55761518D01*
X65550276Y-55766411D01*
X65550276Y-55766412D01*
X65561362Y-55836409D01*
X65564354Y-55855304D01*
X65621950Y-55968342D01*
X65711658Y-56058050D01*
X65821336Y-56113934D01*
X65824696Y-56115646D01*
X65823817Y-56117370D01*
X65872278Y-56150510D01*
X65899913Y-56215907D01*
X65887804Y-56285863D01*
X65839797Y-56338168D01*
X65821875Y-56346352D01*
X65720787Y-56397859D01*
X65704944Y-56409370D01*
X65629370Y-56484944D01*
X65617859Y-56500787D01*
X65569336Y-56596018D01*
X65563284Y-56614645D01*
X65550775Y-56693627D01*
X65550000Y-56703473D01*
X65550000Y-57011885D01*
X65554475Y-57027124D01*
X65555865Y-57028329D01*
X65563548Y-57030000D01*
X70931884Y-57030000D01*
X70947123Y-57025525D01*
X70948328Y-57024135D01*
X70949999Y-57016452D01*
X70949999Y-56703475D01*
X70949224Y-56693626D01*
X70936717Y-56614649D01*
X70930662Y-56596014D01*
X70882141Y-56500787D01*
X70870630Y-56484944D01*
X70795056Y-56409370D01*
X70779213Y-56397859D01*
X70675148Y-56344835D01*
X70676048Y-56343068D01*
X70627727Y-56310030D01*
X70600087Y-56244635D01*
X70612190Y-56174678D01*
X70660194Y-56122369D01*
X70674709Y-56115740D01*
X70675304Y-56115646D01*
X70788342Y-56058050D01*
X70878050Y-55968342D01*
X70935646Y-55855304D01*
X70937198Y-55845506D01*
X70938270Y-55838743D01*
X70968683Y-55774590D01*
X71020220Y-55742467D01*
X71019543Y-55740903D01*
X71022764Y-55739509D01*
X71027193Y-55738121D01*
X71028836Y-55737097D01*
X71035252Y-55735306D01*
X71042928Y-55732633D01*
X71051344Y-55730936D01*
X71058995Y-55727038D01*
X71058997Y-55727037D01*
X71087967Y-55712276D01*
X71097243Y-55707550D01*
X71104401Y-55704181D01*
X71151683Y-55683720D01*
X71158356Y-55678316D01*
X71165309Y-55674106D01*
X71171980Y-55669469D01*
X71179630Y-55665571D01*
X71217549Y-55630703D01*
X71223540Y-55625532D01*
X71256902Y-55598516D01*
X71256903Y-55598514D01*
X71263575Y-55593112D01*
X71268550Y-55586112D01*
X71274120Y-55580180D01*
X71279294Y-55573926D01*
X71285612Y-55568116D01*
X71290134Y-55560823D01*
X71290138Y-55560818D01*
X71312760Y-55524333D01*
X71317138Y-55517743D01*
X71342002Y-55482754D01*
X71346979Y-55475751D01*
X71349889Y-55467667D01*
X71353652Y-55460470D01*
X71356955Y-55453051D01*
X71361482Y-55445750D01*
X71375854Y-55396282D01*
X71378299Y-55388757D01*
X71395750Y-55340285D01*
X71396379Y-55331722D01*
X71398166Y-55323315D01*
X71398422Y-55323369D01*
X71398959Y-55320384D01*
X71398640Y-55320327D01*
X71399810Y-55313825D01*
X71401651Y-55307488D01*
X71402400Y-55297288D01*
X71402400Y-55254347D01*
X71402738Y-55245120D01*
X71405665Y-55205256D01*
X71406294Y-55196693D01*
X71404597Y-55188275D01*
X71404347Y-55184308D01*
X71402400Y-55164805D01*
X71402400Y-54107994D01*
X71422402Y-54039873D01*
X71476058Y-53993380D01*
X71546332Y-53983276D01*
X71585603Y-53995727D01*
X71624696Y-54015646D01*
X71634485Y-54017196D01*
X71634487Y-54017197D01*
X71661849Y-54021530D01*
X71718481Y-54030500D01*
X71737031Y-54030500D01*
X73213753Y-54030499D01*
X73281873Y-54050501D01*
X73328366Y-54104157D01*
X73338470Y-54174431D01*
X73308977Y-54239011D01*
X73301919Y-54246513D01*
X73231616Y-54315359D01*
X73227797Y-54321284D01*
X73227796Y-54321286D01*
X73213930Y-54342802D01*
X73134330Y-54466317D01*
X73131921Y-54472937D01*
X73131919Y-54472940D01*
X73103618Y-54550697D01*
X73072906Y-54635078D01*
X73050398Y-54813253D01*
X73067923Y-54991986D01*
X73070146Y-54998668D01*
X73070146Y-54998669D01*
X73102711Y-55096563D01*
X73124610Y-55162396D01*
X73128257Y-55168418D01*
X73212481Y-55307488D01*
X73217643Y-55316012D01*
X73222532Y-55321075D01*
X73222533Y-55321076D01*
X73287892Y-55388757D01*
X73342398Y-55445199D01*
X73492673Y-55543536D01*
X73661000Y-55606136D01*
X73667981Y-55607067D01*
X73667983Y-55607068D01*
X73832033Y-55628957D01*
X73832037Y-55628957D01*
X73839014Y-55629888D01*
X73846026Y-55629250D01*
X73846030Y-55629250D01*
X74010844Y-55614251D01*
X74010845Y-55614251D01*
X74017865Y-55613612D01*
X74158939Y-55567774D01*
X74181966Y-55560292D01*
X74188666Y-55558115D01*
X74198877Y-55552028D01*
X74336876Y-55469765D01*
X74336878Y-55469764D01*
X74342928Y-55466157D01*
X74429634Y-55383588D01*
X74431244Y-55382055D01*
X74489361Y-55350630D01*
X74521209Y-55343161D01*
X74532871Y-55341000D01*
X74565236Y-55336567D01*
X74565238Y-55336566D01*
X74573746Y-55335401D01*
X74581627Y-55331990D01*
X74581629Y-55331990D01*
X74586447Y-55329905D01*
X74607710Y-55322873D01*
X74612829Y-55321672D01*
X74612831Y-55321671D01*
X74621193Y-55319710D01*
X74657375Y-55299819D01*
X74668005Y-55294612D01*
X74705883Y-55278220D01*
X74712559Y-55272814D01*
X74712561Y-55272813D01*
X74716642Y-55269508D01*
X74735226Y-55257020D01*
X74747363Y-55250347D01*
X74755105Y-55243664D01*
X74778309Y-55220460D01*
X74788110Y-55211634D01*
X74797362Y-55204142D01*
X74817775Y-55187612D01*
X74827906Y-55173356D01*
X74841513Y-55157256D01*
X76653064Y-53345705D01*
X76656873Y-53342052D01*
X76694085Y-53307834D01*
X76700412Y-53302016D01*
X76722165Y-53266932D01*
X76728882Y-53257160D01*
X76748635Y-53231136D01*
X76753828Y-53224295D01*
X76758924Y-53211424D01*
X76768992Y-53191407D01*
X76771756Y-53186949D01*
X76776282Y-53179650D01*
X76787794Y-53140026D01*
X76791639Y-53128797D01*
X76803668Y-53098414D01*
X76803668Y-53098412D01*
X76806830Y-53090427D01*
X76808277Y-53076658D01*
X76812590Y-53054676D01*
X76814608Y-53047730D01*
X76816451Y-53041388D01*
X76817200Y-53031188D01*
X76817200Y-52998371D01*
X76817890Y-52985200D01*
X76820982Y-52955784D01*
X76820982Y-52955782D01*
X76821880Y-52947238D01*
X76820745Y-52940528D01*
X76838378Y-52872647D01*
X76890545Y-52824489D01*
X76946466Y-52811400D01*
X93979965Y-52811400D01*
X93985242Y-52811511D01*
X94044319Y-52813987D01*
X94084505Y-52804562D01*
X94096171Y-52802400D01*
X94128536Y-52797967D01*
X94128538Y-52797966D01*
X94137046Y-52796801D01*
X94144927Y-52793390D01*
X94144929Y-52793390D01*
X94149747Y-52791305D01*
X94171010Y-52784273D01*
X94176129Y-52783072D01*
X94176131Y-52783071D01*
X94184493Y-52781110D01*
X94192017Y-52776974D01*
X94192019Y-52776973D01*
X94207800Y-52768297D01*
X94277130Y-52753008D01*
X94343721Y-52777629D01*
X94386430Y-52834343D01*
X94394500Y-52878712D01*
X94394501Y-53993380D01*
X94394501Y-55101518D01*
X94395276Y-55106411D01*
X94395276Y-55106412D01*
X94407613Y-55184308D01*
X94409354Y-55195304D01*
X94413857Y-55204141D01*
X94413857Y-55204142D01*
X94419790Y-55215785D01*
X94466950Y-55308342D01*
X94473962Y-55315354D01*
X94475548Y-55317537D01*
X94499408Y-55384404D01*
X94483329Y-55453556D01*
X94432417Y-55503037D01*
X94373614Y-55517600D01*
X87311235Y-55517600D01*
X87305959Y-55517489D01*
X87293694Y-55516975D01*
X87246881Y-55515013D01*
X87206695Y-55524438D01*
X87195029Y-55526600D01*
X87162664Y-55531033D01*
X87162662Y-55531034D01*
X87154154Y-55532199D01*
X87146273Y-55535610D01*
X87146271Y-55535610D01*
X87141453Y-55537695D01*
X87120190Y-55544727D01*
X87115075Y-55545927D01*
X87115073Y-55545928D01*
X87106707Y-55547890D01*
X87099182Y-55552027D01*
X87099179Y-55552028D01*
X87070538Y-55567774D01*
X87059878Y-55572996D01*
X87029898Y-55585969D01*
X87029895Y-55585971D01*
X87022017Y-55589380D01*
X87015344Y-55594783D01*
X87015340Y-55594786D01*
X87011256Y-55598093D01*
X86992670Y-55610582D01*
X86986325Y-55614070D01*
X86986321Y-55614073D01*
X86980538Y-55617252D01*
X86972795Y-55623935D01*
X86949586Y-55647144D01*
X86939785Y-55655970D01*
X86916799Y-55674583D01*
X86916797Y-55674585D01*
X86910125Y-55679988D01*
X86905151Y-55686987D01*
X86905150Y-55686988D01*
X86899998Y-55694238D01*
X86886387Y-55710343D01*
X86286306Y-56310425D01*
X85698473Y-56898258D01*
X85636161Y-56932283D01*
X85610570Y-56934945D01*
X85605624Y-56934355D01*
X85598621Y-56935091D01*
X85598620Y-56935091D01*
X85434025Y-56952390D01*
X85434021Y-56952391D01*
X85427017Y-56953127D01*
X85420346Y-56955398D01*
X85263677Y-57008732D01*
X85263674Y-57008733D01*
X85257007Y-57011003D01*
X85251009Y-57014693D01*
X85251007Y-57014694D01*
X85228844Y-57028329D01*
X85104045Y-57105106D01*
X85099014Y-57110032D01*
X85099011Y-57110035D01*
X85089684Y-57119169D01*
X84975732Y-57230759D01*
X84971913Y-57236684D01*
X84971912Y-57236686D01*
X84927891Y-57304993D01*
X84878446Y-57381717D01*
X84876037Y-57388337D01*
X84876035Y-57388340D01*
X84858738Y-57435865D01*
X84817022Y-57550478D01*
X84794514Y-57728653D01*
X84795201Y-57735660D01*
X84795201Y-57735662D01*
X84795271Y-57736373D01*
X84795185Y-57736825D01*
X84795103Y-57742707D01*
X84794070Y-57742693D01*
X84782012Y-57806120D01*
X84758967Y-57837764D01*
X81879636Y-60717095D01*
X81817324Y-60751121D01*
X81790541Y-60754000D01*
X75640019Y-60754000D01*
X75571898Y-60733998D01*
X75525405Y-60680342D01*
X75515301Y-60610068D01*
X75527752Y-60570798D01*
X75531144Y-60564140D01*
X75531144Y-60564139D01*
X75535646Y-60555304D01*
X75550500Y-60461519D01*
X75550499Y-58798482D01*
X75546736Y-58774723D01*
X75537198Y-58714494D01*
X75537197Y-58714492D01*
X75535646Y-58704696D01*
X75528718Y-58691098D01*
X75505612Y-58645751D01*
X75478050Y-58591658D01*
X75388342Y-58501950D01*
X75275304Y-58444354D01*
X75265515Y-58442804D01*
X75265513Y-58442803D01*
X75238151Y-58438470D01*
X75181519Y-58429500D01*
X73450350Y-58429500D01*
X71718482Y-58429501D01*
X71713589Y-58430276D01*
X71713588Y-58430276D01*
X71634494Y-58442802D01*
X71634492Y-58442803D01*
X71624696Y-58444354D01*
X71511658Y-58501950D01*
X71421950Y-58591658D01*
X71364354Y-58704696D01*
X71362804Y-58714485D01*
X71362803Y-58714487D01*
X71358470Y-58741849D01*
X71349500Y-58798481D01*
X71349501Y-60461518D01*
X71364354Y-60555304D01*
X71368856Y-60564140D01*
X71368857Y-60564142D01*
X71380451Y-60586895D01*
X71421950Y-60668342D01*
X71511658Y-60758050D01*
X71624696Y-60815646D01*
X71634485Y-60817196D01*
X71634487Y-60817197D01*
X71661849Y-60821530D01*
X71718481Y-60830500D01*
X72786540Y-60830500D01*
X72854661Y-60850502D01*
X72901154Y-60904158D01*
X72911258Y-60974432D01*
X72881764Y-61039012D01*
X72875635Y-61045595D01*
X67701736Y-66219495D01*
X67697927Y-66223148D01*
X67654388Y-66263184D01*
X67649860Y-66270487D01*
X67649859Y-66270488D01*
X67632643Y-66298255D01*
X67625920Y-66308037D01*
X67600972Y-66340904D01*
X67597810Y-66348891D01*
X67597808Y-66348894D01*
X67595872Y-66353783D01*
X67585813Y-66373784D01*
X67578518Y-66385550D01*
X67567005Y-66425177D01*
X67563160Y-66436405D01*
X67551133Y-66466784D01*
X67551132Y-66466787D01*
X67547971Y-66474772D01*
X67547074Y-66483309D01*
X67547072Y-66483316D01*
X67546523Y-66488539D01*
X67542212Y-66510515D01*
X67538349Y-66523812D01*
X67537600Y-66534012D01*
X67537600Y-66566839D01*
X67536910Y-66580010D01*
X67532921Y-66617962D01*
X67534353Y-66626428D01*
X67534353Y-66626431D01*
X67535836Y-66635198D01*
X67537600Y-66656210D01*
X67537600Y-70005653D01*
X67537262Y-70014880D01*
X67533706Y-70063307D01*
X67541895Y-70103918D01*
X67543888Y-70113803D01*
X67545207Y-70121603D01*
X67552199Y-70172646D01*
X67555609Y-70180527D01*
X67557794Y-70188352D01*
X67560467Y-70196028D01*
X67562164Y-70204444D01*
X67566062Y-70212095D01*
X67566063Y-70212097D01*
X67585549Y-70250340D01*
X67588917Y-70257498D01*
X67609380Y-70304783D01*
X67614784Y-70311456D01*
X67618994Y-70318409D01*
X67623631Y-70325080D01*
X67627529Y-70332730D01*
X67649271Y-70356375D01*
X67662397Y-70370649D01*
X67667568Y-70376640D01*
X67694584Y-70410002D01*
X67699988Y-70416675D01*
X67706988Y-70421650D01*
X67712920Y-70427220D01*
X67719174Y-70432394D01*
X67724984Y-70438712D01*
X67732277Y-70443234D01*
X67732282Y-70443238D01*
X67768767Y-70465860D01*
X67775357Y-70470238D01*
X67789999Y-70480643D01*
X67817349Y-70500079D01*
X67825433Y-70502989D01*
X67832630Y-70506752D01*
X67840049Y-70510055D01*
X67847350Y-70514582D01*
X67896815Y-70528953D01*
X67904341Y-70531398D01*
X67952815Y-70548850D01*
X67961378Y-70549479D01*
X67969785Y-70551266D01*
X67969730Y-70551523D01*
X67982262Y-70553778D01*
X67984842Y-70554528D01*
X68044671Y-70592750D01*
X68050879Y-70602018D01*
X68051617Y-70601482D01*
X68057450Y-70609510D01*
X68061950Y-70618342D01*
X68151658Y-70708050D01*
X68264696Y-70765646D01*
X68274489Y-70767197D01*
X68283208Y-70768578D01*
X68347361Y-70798988D01*
X68384890Y-70859256D01*
X68389500Y-70893027D01*
X68389501Y-71143918D01*
X68389501Y-71367479D01*
X68369499Y-71435600D01*
X68315844Y-71482093D01*
X68283208Y-71491928D01*
X68274650Y-71493283D01*
X68256014Y-71499338D01*
X68160787Y-71547859D01*
X68144944Y-71559370D01*
X68069370Y-71634944D01*
X68057859Y-71650787D01*
X68009336Y-71746018D01*
X68003284Y-71764645D01*
X67990775Y-71843627D01*
X67990000Y-71853473D01*
X67990000Y-72011885D01*
X67994475Y-72027124D01*
X67995865Y-72028329D01*
X68003548Y-72030000D01*
X70271884Y-72030000D01*
X70287123Y-72025525D01*
X70288328Y-72024135D01*
X70289999Y-72016452D01*
X70289999Y-71993106D01*
X70310001Y-71924985D01*
X70363657Y-71878492D01*
X70396292Y-71868657D01*
X70405505Y-71867198D01*
X70405506Y-71867198D01*
X70415304Y-71865646D01*
X70528342Y-71808050D01*
X70618050Y-71718342D01*
X70622550Y-71709510D01*
X70628383Y-71701482D01*
X70630839Y-71703266D01*
X70668503Y-71663393D01*
X70703239Y-71649545D01*
X70707005Y-71648662D01*
X70718671Y-71646500D01*
X70751036Y-71642067D01*
X70751038Y-71642066D01*
X70759546Y-71640901D01*
X70767427Y-71637490D01*
X70767429Y-71637490D01*
X70772247Y-71635405D01*
X70793510Y-71628373D01*
X70798629Y-71627172D01*
X70798631Y-71627171D01*
X70806993Y-71625210D01*
X70843175Y-71605319D01*
X70853805Y-71600112D01*
X70891683Y-71583720D01*
X70898359Y-71578314D01*
X70898361Y-71578313D01*
X70902442Y-71575008D01*
X70921026Y-71562520D01*
X70933163Y-71555847D01*
X70940905Y-71549164D01*
X70959404Y-71530665D01*
X71021716Y-71496639D01*
X71092531Y-71501704D01*
X71149367Y-71544251D01*
X71174178Y-71610771D01*
X71174499Y-71619760D01*
X71174499Y-72482622D01*
X71174388Y-72487898D01*
X71171912Y-72546976D01*
X71179541Y-72579501D01*
X71181336Y-72587154D01*
X71183499Y-72598828D01*
X71186469Y-72620508D01*
X71189098Y-72639703D01*
X71191666Y-72645638D01*
X71190734Y-72715606D01*
X71151558Y-72774815D01*
X71086590Y-72803445D01*
X71070322Y-72804500D01*
X70725990Y-72804500D01*
X70657869Y-72784498D01*
X70624055Y-72752563D01*
X70622553Y-72750496D01*
X70618050Y-72741658D01*
X70528342Y-72651950D01*
X70415304Y-72594354D01*
X70405511Y-72592803D01*
X70405508Y-72592802D01*
X70396287Y-72591341D01*
X70332135Y-72560928D01*
X70294609Y-72500659D01*
X70290000Y-72466893D01*
X70290000Y-72448115D01*
X70285525Y-72432876D01*
X70284135Y-72431671D01*
X70276452Y-72430000D01*
X68008116Y-72430000D01*
X67992877Y-72434475D01*
X67991672Y-72435865D01*
X67990001Y-72443548D01*
X67990001Y-72606525D01*
X67990776Y-72616374D01*
X68003283Y-72695351D01*
X68009338Y-72713986D01*
X68057859Y-72809213D01*
X68069370Y-72825056D01*
X68144944Y-72900630D01*
X68160787Y-72912141D01*
X68256018Y-72960664D01*
X68274649Y-72966717D01*
X68283213Y-72968074D01*
X68347366Y-72998487D01*
X68384891Y-73058756D01*
X68389500Y-73092522D01*
X68389501Y-73532365D01*
X68389501Y-73711518D01*
X68404354Y-73805304D01*
X68408857Y-73814141D01*
X68408858Y-73814145D01*
X68413267Y-73822798D01*
X68426371Y-73892575D01*
X68413267Y-73937202D01*
X68410366Y-73942896D01*
X68404354Y-73954696D01*
X68389500Y-74048481D01*
X68389501Y-74811518D01*
X68390276Y-74816409D01*
X68390276Y-74816412D01*
X68392354Y-74829530D01*
X68404354Y-74905304D01*
X68461950Y-75018342D01*
X68551658Y-75108050D01*
X68664696Y-75165646D01*
X68674485Y-75167196D01*
X68674487Y-75167197D01*
X68701849Y-75171530D01*
X68758481Y-75180500D01*
X69539842Y-75180500D01*
X70321518Y-75180499D01*
X70326412Y-75179724D01*
X70405506Y-75167198D01*
X70405508Y-75167197D01*
X70415304Y-75165646D01*
X70528342Y-75108050D01*
X70618050Y-75018342D01*
X70675646Y-74905304D01*
X70690500Y-74811519D01*
X70690499Y-74048482D01*
X70683012Y-74001208D01*
X70692112Y-73930799D01*
X70737834Y-73876485D01*
X70807461Y-73855500D01*
X71627393Y-73855500D01*
X71695514Y-73875502D01*
X71716488Y-73892405D01*
X71834949Y-74010866D01*
X71838602Y-74014675D01*
X71878638Y-74058214D01*
X71885938Y-74062740D01*
X71885939Y-74062741D01*
X71913714Y-74079962D01*
X71923484Y-74086676D01*
X71956358Y-74111629D01*
X71969228Y-74116724D01*
X71989236Y-74126788D01*
X72001004Y-74134084D01*
X72009247Y-74136479D01*
X72009254Y-74136482D01*
X72040647Y-74145603D01*
X72051874Y-74149447D01*
X72082241Y-74161470D01*
X72082243Y-74161471D01*
X72090226Y-74164631D01*
X72098763Y-74165528D01*
X72098770Y-74165530D01*
X72103993Y-74166079D01*
X72125970Y-74170390D01*
X72132932Y-74172413D01*
X72132934Y-74172413D01*
X72139266Y-74174253D01*
X72146081Y-74174753D01*
X72147158Y-74174833D01*
X72147171Y-74174833D01*
X72149466Y-74175002D01*
X72182293Y-74175002D01*
X72195464Y-74175692D01*
X72233416Y-74179681D01*
X72241882Y-74178249D01*
X72241885Y-74178249D01*
X72250652Y-74176766D01*
X72271664Y-74175002D01*
X73568811Y-74175002D01*
X73574088Y-74175113D01*
X73633165Y-74177589D01*
X73673351Y-74168164D01*
X73685017Y-74166002D01*
X73717382Y-74161569D01*
X73717384Y-74161568D01*
X73725892Y-74160403D01*
X73733773Y-74156992D01*
X73733775Y-74156992D01*
X73738593Y-74154907D01*
X73759856Y-74147875D01*
X73764975Y-74146674D01*
X73764977Y-74146673D01*
X73773339Y-74144712D01*
X73809521Y-74124821D01*
X73820151Y-74119614D01*
X73858029Y-74103222D01*
X73864705Y-74097816D01*
X73864707Y-74097815D01*
X73868788Y-74094510D01*
X73887372Y-74082022D01*
X73899509Y-74075349D01*
X73907251Y-74068666D01*
X73930455Y-74045462D01*
X73940256Y-74036636D01*
X73963245Y-74018020D01*
X73969921Y-74012614D01*
X73980052Y-73998358D01*
X73993659Y-73982258D01*
X74083512Y-73892405D01*
X74145824Y-73858379D01*
X74172607Y-73855500D01*
X76776979Y-73855500D01*
X76845100Y-73875502D01*
X76891593Y-73929158D01*
X76892453Y-73931346D01*
X76894705Y-73936220D01*
X76896926Y-73942896D01*
X76900573Y-73948918D01*
X76984009Y-74086687D01*
X76989959Y-74096512D01*
X76994848Y-74101575D01*
X76994849Y-74101576D01*
X77068892Y-74178249D01*
X77114714Y-74225699D01*
X77264989Y-74324036D01*
X77433316Y-74386636D01*
X77440297Y-74387567D01*
X77440299Y-74387568D01*
X77604349Y-74409457D01*
X77604353Y-74409457D01*
X77611330Y-74410388D01*
X77618342Y-74409750D01*
X77618346Y-74409750D01*
X77712535Y-74401178D01*
X77782188Y-74414924D01*
X77833352Y-74464145D01*
X77846625Y-74497887D01*
X77851037Y-74516698D01*
X77853200Y-74528370D01*
X77858799Y-74569246D01*
X77862210Y-74577127D01*
X77862210Y-74577129D01*
X77864295Y-74581947D01*
X77871327Y-74603210D01*
X77872528Y-74608329D01*
X77874490Y-74616693D01*
X77894381Y-74652875D01*
X77899588Y-74663505D01*
X77915980Y-74701383D01*
X77921386Y-74708059D01*
X77921387Y-74708061D01*
X77924692Y-74712142D01*
X77937180Y-74730726D01*
X77943853Y-74742863D01*
X77950536Y-74750605D01*
X77973740Y-74773809D01*
X77982565Y-74783609D01*
X78006588Y-74813275D01*
X78020844Y-74823406D01*
X78036944Y-74837013D01*
X78584095Y-75384164D01*
X78587748Y-75387973D01*
X78627784Y-75431512D01*
X78635084Y-75436038D01*
X78635085Y-75436039D01*
X78662860Y-75453260D01*
X78672630Y-75459974D01*
X78705504Y-75484927D01*
X78718374Y-75490022D01*
X78738382Y-75500086D01*
X78750150Y-75507382D01*
X78758393Y-75509777D01*
X78758400Y-75509780D01*
X78789793Y-75518901D01*
X78801020Y-75522745D01*
X78831387Y-75534768D01*
X78831389Y-75534769D01*
X78839372Y-75537929D01*
X78847909Y-75538826D01*
X78847916Y-75538828D01*
X78853139Y-75539377D01*
X78875116Y-75543688D01*
X78882078Y-75545711D01*
X78882080Y-75545711D01*
X78888412Y-75547551D01*
X78895227Y-75548051D01*
X78896304Y-75548131D01*
X78896317Y-75548131D01*
X78898612Y-75548300D01*
X78931438Y-75548300D01*
X78944609Y-75548990D01*
X78982561Y-75552979D01*
X78991027Y-75551547D01*
X78991030Y-75551547D01*
X78999797Y-75550064D01*
X79020809Y-75548300D01*
X80682765Y-75548300D01*
X80688042Y-75548411D01*
X80747119Y-75550887D01*
X80787305Y-75541462D01*
X80798971Y-75539300D01*
X80831336Y-75534867D01*
X80831338Y-75534866D01*
X80839846Y-75533701D01*
X80847727Y-75530290D01*
X80847729Y-75530290D01*
X80852547Y-75528205D01*
X80873810Y-75521173D01*
X80878929Y-75519972D01*
X80878931Y-75519971D01*
X80887293Y-75518010D01*
X80923475Y-75498119D01*
X80934105Y-75492912D01*
X80951722Y-75485288D01*
X104464316Y-75485288D01*
X104465712Y-75493202D01*
X104519474Y-75693848D01*
X104523220Y-75704140D01*
X104611007Y-75892400D01*
X104616490Y-75901896D01*
X104735628Y-76072043D01*
X104742684Y-76080451D01*
X104889549Y-76227316D01*
X104897957Y-76234372D01*
X105068104Y-76353510D01*
X105077599Y-76358993D01*
X105265860Y-76446780D01*
X105276152Y-76450526D01*
X105476798Y-76504288D01*
X105483280Y-76505431D01*
X105496902Y-76502693D01*
X105500000Y-76490944D01*
X105500000Y-76489162D01*
X105900000Y-76489162D01*
X105904295Y-76503790D01*
X105915288Y-76505684D01*
X105923202Y-76504288D01*
X106123848Y-76450526D01*
X106134140Y-76446780D01*
X106322401Y-76358993D01*
X106331896Y-76353510D01*
X106502043Y-76234372D01*
X106510451Y-76227316D01*
X106657316Y-76080451D01*
X106664372Y-76072043D01*
X106783510Y-75901896D01*
X106788993Y-75892400D01*
X106876780Y-75704140D01*
X106880526Y-75693848D01*
X106934288Y-75493202D01*
X106935431Y-75486720D01*
X106932693Y-75473098D01*
X106920944Y-75470000D01*
X105918115Y-75470000D01*
X105902876Y-75474475D01*
X105901671Y-75475865D01*
X105900000Y-75483548D01*
X105900000Y-76489162D01*
X105500000Y-76489162D01*
X105500000Y-75488115D01*
X105495525Y-75472876D01*
X105494135Y-75471671D01*
X105486452Y-75470000D01*
X104480838Y-75470000D01*
X104466210Y-75474295D01*
X104464316Y-75485288D01*
X80951722Y-75485288D01*
X80971983Y-75476520D01*
X80978659Y-75471114D01*
X80978661Y-75471113D01*
X80982742Y-75467808D01*
X81001326Y-75455320D01*
X81013463Y-75448647D01*
X81021205Y-75441964D01*
X81044409Y-75418760D01*
X81054210Y-75409934D01*
X81077199Y-75391318D01*
X81083875Y-75385912D01*
X81094006Y-75371656D01*
X81107613Y-75355556D01*
X85350164Y-71113005D01*
X85412476Y-71078979D01*
X85439259Y-71076100D01*
X87112059Y-71076100D01*
X87180180Y-71096102D01*
X87226673Y-71149758D01*
X87236777Y-71220032D01*
X87207283Y-71284612D01*
X87152666Y-71321378D01*
X87066311Y-71350775D01*
X86913349Y-71444878D01*
X86908318Y-71449804D01*
X86908315Y-71449807D01*
X86888314Y-71469394D01*
X86785036Y-71570531D01*
X86781217Y-71576456D01*
X86781216Y-71576458D01*
X86736364Y-71646055D01*
X86687750Y-71721489D01*
X86685341Y-71728109D01*
X86685339Y-71728112D01*
X86658796Y-71801039D01*
X86626326Y-71890250D01*
X86603818Y-72068425D01*
X86604505Y-72075432D01*
X86604505Y-72075435D01*
X86607592Y-72106919D01*
X86621343Y-72247158D01*
X86623566Y-72253840D01*
X86623566Y-72253841D01*
X86637487Y-72295688D01*
X86678030Y-72417568D01*
X86681677Y-72423590D01*
X86765517Y-72562026D01*
X86771063Y-72571184D01*
X86775952Y-72576247D01*
X86775953Y-72576248D01*
X86841976Y-72644616D01*
X86895818Y-72700371D01*
X87046093Y-72798708D01*
X87214420Y-72861308D01*
X87221401Y-72862239D01*
X87221403Y-72862240D01*
X87385453Y-72884129D01*
X87385457Y-72884129D01*
X87392434Y-72885060D01*
X87399446Y-72884422D01*
X87399450Y-72884422D01*
X87564264Y-72869423D01*
X87564265Y-72869423D01*
X87571285Y-72868784D01*
X87742086Y-72813287D01*
X87756827Y-72804500D01*
X87896348Y-72721329D01*
X87897394Y-72723084D01*
X87954408Y-72701384D01*
X87964235Y-72701000D01*
X92274375Y-72701000D01*
X92279652Y-72701111D01*
X92338729Y-72703587D01*
X92378915Y-72694162D01*
X92390581Y-72692000D01*
X92422946Y-72687567D01*
X92422948Y-72687566D01*
X92431456Y-72686401D01*
X92439337Y-72682990D01*
X92439339Y-72682990D01*
X92444157Y-72680905D01*
X92465420Y-72673873D01*
X92470539Y-72672672D01*
X92470541Y-72672671D01*
X92478903Y-72670710D01*
X92515085Y-72650819D01*
X92525715Y-72645612D01*
X92563593Y-72629220D01*
X92570269Y-72623814D01*
X92570271Y-72623813D01*
X92574352Y-72620508D01*
X92592936Y-72608020D01*
X92605073Y-72601347D01*
X92612815Y-72594664D01*
X92636019Y-72571460D01*
X92645820Y-72562634D01*
X92668809Y-72544018D01*
X92675485Y-72538612D01*
X92685616Y-72524356D01*
X92699223Y-72508256D01*
X94224835Y-70982645D01*
X94287147Y-70948619D01*
X94357963Y-70953684D01*
X94414798Y-70996231D01*
X94433488Y-71031968D01*
X94466502Y-71131212D01*
X94466504Y-71131216D01*
X94468726Y-71137896D01*
X94472373Y-71143918D01*
X94554441Y-71279428D01*
X94561759Y-71291512D01*
X94686514Y-71420699D01*
X94836789Y-71519036D01*
X95005116Y-71581636D01*
X95012097Y-71582567D01*
X95012099Y-71582568D01*
X95176149Y-71604457D01*
X95176153Y-71604457D01*
X95183130Y-71605388D01*
X95190142Y-71604750D01*
X95190146Y-71604750D01*
X95354960Y-71589751D01*
X95354961Y-71589751D01*
X95361981Y-71589112D01*
X95532782Y-71533615D01*
X95538833Y-71530008D01*
X95672613Y-71450260D01*
X95741368Y-71432560D01*
X95808778Y-71454842D01*
X95826225Y-71469394D01*
X96158356Y-71801525D01*
X96192382Y-71863837D01*
X96194720Y-71887120D01*
X96194514Y-71888753D01*
X96212039Y-72067486D01*
X96214262Y-72074168D01*
X96214262Y-72074169D01*
X96223641Y-72102362D01*
X96268726Y-72237896D01*
X96361759Y-72391512D01*
X96366648Y-72396575D01*
X96366649Y-72396576D01*
X96399193Y-72430276D01*
X96486514Y-72520699D01*
X96636789Y-72619036D01*
X96805116Y-72681636D01*
X96812097Y-72682567D01*
X96812099Y-72682568D01*
X96976149Y-72704457D01*
X96976153Y-72704457D01*
X96983130Y-72705388D01*
X96990142Y-72704750D01*
X96990146Y-72704750D01*
X97154960Y-72689751D01*
X97154961Y-72689751D01*
X97161981Y-72689112D01*
X97332782Y-72633615D01*
X97353119Y-72621492D01*
X97480992Y-72545265D01*
X97480994Y-72545264D01*
X97487044Y-72541657D01*
X97617099Y-72417807D01*
X97621696Y-72410889D01*
X97666791Y-72343015D01*
X97716483Y-72268222D01*
X97731168Y-72229564D01*
X97777757Y-72106919D01*
X97777758Y-72106914D01*
X97780257Y-72100336D01*
X97795327Y-71993106D01*
X97804700Y-71926416D01*
X97804700Y-71926411D01*
X97805251Y-71922493D01*
X97805565Y-71900000D01*
X97785546Y-71721528D01*
X97787180Y-71721345D01*
X97791059Y-71659056D01*
X97833080Y-71601831D01*
X97899369Y-71576408D01*
X97909515Y-71575999D01*
X103750640Y-71575999D01*
X103818761Y-71596001D01*
X103839735Y-71612904D01*
X104470481Y-72243650D01*
X104504507Y-72305962D01*
X104503093Y-72365353D01*
X104463793Y-72512023D01*
X104444723Y-72730000D01*
X104463793Y-72947977D01*
X104520425Y-73159330D01*
X104522747Y-73164310D01*
X104522748Y-73164312D01*
X104526646Y-73172670D01*
X104612898Y-73357638D01*
X104738402Y-73536877D01*
X104893123Y-73691598D01*
X104897631Y-73694755D01*
X104897634Y-73694757D01*
X105067852Y-73813945D01*
X105072361Y-73817102D01*
X105077343Y-73819425D01*
X105077348Y-73819428D01*
X105220287Y-73886081D01*
X105273572Y-73932998D01*
X105293033Y-74001276D01*
X105272491Y-74069235D01*
X105220287Y-74114471D01*
X105077600Y-74181007D01*
X105068104Y-74186490D01*
X104897957Y-74305628D01*
X104889549Y-74312684D01*
X104742684Y-74459549D01*
X104735628Y-74467957D01*
X104616490Y-74638104D01*
X104611007Y-74647600D01*
X104523220Y-74835860D01*
X104519474Y-74846152D01*
X104465712Y-75046798D01*
X104464569Y-75053280D01*
X104467307Y-75066902D01*
X104479056Y-75070000D01*
X106919162Y-75070000D01*
X106933790Y-75065705D01*
X106935684Y-75054712D01*
X106934288Y-75046798D01*
X106880526Y-74846152D01*
X106876780Y-74835860D01*
X106788993Y-74647600D01*
X106783510Y-74638104D01*
X106664372Y-74467957D01*
X106657316Y-74459549D01*
X106510451Y-74312684D01*
X106502043Y-74305628D01*
X106331896Y-74186490D01*
X106322401Y-74181007D01*
X106179713Y-74114471D01*
X106126428Y-74067554D01*
X106106967Y-73999276D01*
X106127509Y-73931316D01*
X106179713Y-73886081D01*
X106322652Y-73819428D01*
X106322657Y-73819425D01*
X106327639Y-73817102D01*
X106332148Y-73813945D01*
X106502366Y-73694757D01*
X106502369Y-73694755D01*
X106506877Y-73691598D01*
X106661598Y-73536877D01*
X106787102Y-73357638D01*
X106873355Y-73172670D01*
X106877252Y-73164312D01*
X106877253Y-73164310D01*
X106879575Y-73159330D01*
X106936207Y-72947977D01*
X106955277Y-72730000D01*
X106936207Y-72512023D01*
X106879575Y-72300670D01*
X106850303Y-72237896D01*
X106789425Y-72107343D01*
X106789423Y-72107340D01*
X106787102Y-72102362D01*
X106661598Y-71923123D01*
X106506877Y-71768402D01*
X106502369Y-71765245D01*
X106502366Y-71765243D01*
X106332148Y-71646055D01*
X106332146Y-71646054D01*
X106327639Y-71642898D01*
X106322657Y-71640575D01*
X106322652Y-71640572D01*
X106180305Y-71574195D01*
X106127020Y-71527278D01*
X106107559Y-71459000D01*
X106128101Y-71391040D01*
X106180305Y-71345805D01*
X106322652Y-71279428D01*
X106322657Y-71279425D01*
X106327639Y-71277102D01*
X106332148Y-71273945D01*
X106502366Y-71154757D01*
X106502369Y-71154755D01*
X106506877Y-71151598D01*
X106661598Y-70996877D01*
X106787102Y-70817638D01*
X106791044Y-70809186D01*
X106877252Y-70624312D01*
X106877253Y-70624310D01*
X106879575Y-70619330D01*
X106881615Y-70611719D01*
X106903495Y-70530058D01*
X106936207Y-70407977D01*
X106955277Y-70190000D01*
X106936207Y-69972023D01*
X106879575Y-69760670D01*
X106845038Y-69686605D01*
X106789425Y-69567343D01*
X106789423Y-69567340D01*
X106787102Y-69562362D01*
X106661598Y-69383123D01*
X106506877Y-69228402D01*
X106502369Y-69225245D01*
X106502366Y-69225243D01*
X106332148Y-69106055D01*
X106332145Y-69106053D01*
X106327639Y-69102898D01*
X106322657Y-69100575D01*
X106322652Y-69100572D01*
X106180305Y-69034195D01*
X106127020Y-68987278D01*
X106107559Y-68919000D01*
X106128101Y-68851040D01*
X106180305Y-68805805D01*
X106322652Y-68739428D01*
X106322657Y-68739425D01*
X106327639Y-68737102D01*
X106344030Y-68725625D01*
X106502366Y-68614757D01*
X106502369Y-68614755D01*
X106506877Y-68611598D01*
X106661598Y-68456877D01*
X106787102Y-68277638D01*
X106818863Y-68209528D01*
X106877252Y-68084312D01*
X106877253Y-68084310D01*
X106879575Y-68079330D01*
X106936207Y-67867977D01*
X106955277Y-67650000D01*
X106936207Y-67432023D01*
X106888121Y-67252563D01*
X106880998Y-67225980D01*
X106880997Y-67225978D01*
X106879575Y-67220670D01*
X106852986Y-67163650D01*
X106789425Y-67027343D01*
X106789423Y-67027340D01*
X106787102Y-67022362D01*
X106661598Y-66843123D01*
X106506877Y-66688402D01*
X106502369Y-66685245D01*
X106502366Y-66685243D01*
X106332148Y-66566055D01*
X106332146Y-66566054D01*
X106327639Y-66562898D01*
X106322657Y-66560575D01*
X106322652Y-66560572D01*
X106180305Y-66494195D01*
X106127020Y-66447278D01*
X106107559Y-66379000D01*
X106128101Y-66311040D01*
X106180305Y-66265805D01*
X106322652Y-66199428D01*
X106322657Y-66199425D01*
X106327639Y-66197102D01*
X106332148Y-66193945D01*
X106502366Y-66074757D01*
X106502369Y-66074755D01*
X106506877Y-66071598D01*
X106661598Y-65916877D01*
X106787102Y-65737638D01*
X106804497Y-65700336D01*
X106877252Y-65544312D01*
X106877253Y-65544310D01*
X106879575Y-65539330D01*
X106884087Y-65522493D01*
X106909749Y-65426720D01*
X106936207Y-65327977D01*
X106955277Y-65110000D01*
X106936207Y-64892023D01*
X106879575Y-64680670D01*
X106853409Y-64624557D01*
X106789425Y-64487343D01*
X106789423Y-64487340D01*
X106787102Y-64482362D01*
X106661598Y-64303123D01*
X106506877Y-64148402D01*
X106502369Y-64145245D01*
X106502366Y-64145243D01*
X106332148Y-64026055D01*
X106332146Y-64026054D01*
X106327639Y-64022898D01*
X106322657Y-64020575D01*
X106322652Y-64020572D01*
X106180305Y-63954195D01*
X106127020Y-63907278D01*
X106107559Y-63839000D01*
X106128101Y-63771040D01*
X106180305Y-63725805D01*
X106322652Y-63659428D01*
X106322657Y-63659425D01*
X106327639Y-63657102D01*
X106344086Y-63645586D01*
X106502366Y-63534757D01*
X106502369Y-63534755D01*
X106506877Y-63531598D01*
X106661598Y-63376877D01*
X106787102Y-63197638D01*
X106792094Y-63186934D01*
X106877252Y-63004312D01*
X106877253Y-63004310D01*
X106879575Y-62999330D01*
X106889046Y-62963986D01*
X106902992Y-62911936D01*
X106936207Y-62787977D01*
X106955277Y-62570000D01*
X106936207Y-62352023D01*
X106879575Y-62140670D01*
X106877252Y-62135688D01*
X106789425Y-61947343D01*
X106789423Y-61947340D01*
X106787102Y-61942362D01*
X106661598Y-61763123D01*
X106506877Y-61608402D01*
X106502369Y-61605245D01*
X106502366Y-61605243D01*
X106332148Y-61486055D01*
X106332145Y-61486053D01*
X106327639Y-61482898D01*
X106322657Y-61480575D01*
X106322652Y-61480572D01*
X106180305Y-61414195D01*
X106127020Y-61367278D01*
X106107559Y-61299000D01*
X106128101Y-61231040D01*
X106180305Y-61185805D01*
X106322652Y-61119428D01*
X106322657Y-61119425D01*
X106327639Y-61117102D01*
X106332148Y-61113945D01*
X106502366Y-60994757D01*
X106502369Y-60994755D01*
X106506877Y-60991598D01*
X106661598Y-60836877D01*
X106787102Y-60657638D01*
X106809285Y-60610068D01*
X106877252Y-60464312D01*
X106877253Y-60464310D01*
X106879575Y-60459330D01*
X106936207Y-60247977D01*
X106955277Y-60030000D01*
X106936207Y-59812023D01*
X106879575Y-59600670D01*
X106872927Y-59586413D01*
X106789425Y-59407343D01*
X106789423Y-59407340D01*
X106787102Y-59402362D01*
X106661598Y-59223123D01*
X106506877Y-59068402D01*
X106502369Y-59065245D01*
X106502366Y-59065243D01*
X106332148Y-58946055D01*
X106332145Y-58946053D01*
X106327639Y-58942898D01*
X106322657Y-58940575D01*
X106322652Y-58940572D01*
X106180305Y-58874195D01*
X106127020Y-58827278D01*
X106107559Y-58759000D01*
X106128101Y-58691040D01*
X106180305Y-58645805D01*
X106322652Y-58579428D01*
X106322657Y-58579425D01*
X106327639Y-58577102D01*
X106332148Y-58573945D01*
X106502366Y-58454757D01*
X106502369Y-58454755D01*
X106506877Y-58451598D01*
X106661598Y-58296877D01*
X106787102Y-58117638D01*
X106791540Y-58108122D01*
X106877252Y-57924312D01*
X106877253Y-57924310D01*
X106879575Y-57919330D01*
X106894406Y-57863982D01*
X106901431Y-57837764D01*
X106936207Y-57707977D01*
X106955277Y-57490000D01*
X106936207Y-57272023D01*
X106879575Y-57060670D01*
X106877252Y-57055688D01*
X106789425Y-56867343D01*
X106789423Y-56867340D01*
X106787102Y-56862362D01*
X106661598Y-56683123D01*
X106506877Y-56528402D01*
X106502369Y-56525245D01*
X106502366Y-56525243D01*
X106365933Y-56429712D01*
X106321605Y-56374255D01*
X106314296Y-56303636D01*
X106346327Y-56240275D01*
X106407528Y-56204290D01*
X106438203Y-56200499D01*
X106581518Y-56200499D01*
X106586412Y-56199724D01*
X106665506Y-56187198D01*
X106665508Y-56187197D01*
X106675304Y-56185646D01*
X106788342Y-56128050D01*
X106878050Y-56038342D01*
X106935646Y-55925304D01*
X106950500Y-55831519D01*
X106950499Y-54068482D01*
X106942131Y-54015646D01*
X106937198Y-53984494D01*
X106937197Y-53984492D01*
X106935646Y-53974696D01*
X106927165Y-53958050D01*
X106919549Y-53943105D01*
X106878050Y-53861658D01*
X106788342Y-53771950D01*
X106675304Y-53714354D01*
X106665515Y-53712804D01*
X106665513Y-53712803D01*
X106638151Y-53708470D01*
X106581519Y-53699500D01*
X105700178Y-53699500D01*
X104818482Y-53699501D01*
X104813589Y-53700276D01*
X104813588Y-53700276D01*
X104734494Y-53712802D01*
X104734492Y-53712803D01*
X104724696Y-53714354D01*
X104611658Y-53771950D01*
X104521950Y-53861658D01*
X104517451Y-53870488D01*
X104517448Y-53870492D01*
X104510518Y-53884094D01*
X104461771Y-53935710D01*
X104392856Y-53952776D01*
X104325654Y-53929876D01*
X104309156Y-53915987D01*
X101012605Y-50619436D01*
X101008952Y-50615627D01*
X100974734Y-50578415D01*
X100968916Y-50572088D01*
X100948937Y-50559700D01*
X100933845Y-50550343D01*
X100924062Y-50543619D01*
X100906181Y-50530046D01*
X100891196Y-50518672D01*
X100883209Y-50515510D01*
X100883206Y-50515508D01*
X100878317Y-50513572D01*
X100858316Y-50503513D01*
X100846550Y-50496218D01*
X100806919Y-50484704D01*
X100795695Y-50480860D01*
X100765316Y-50468833D01*
X100765313Y-50468832D01*
X100757328Y-50465671D01*
X100748791Y-50464774D01*
X100748784Y-50464772D01*
X100743561Y-50464223D01*
X100721584Y-50459912D01*
X100714622Y-50457889D01*
X100714620Y-50457889D01*
X100708288Y-50456049D01*
X100701473Y-50455549D01*
X100700396Y-50455469D01*
X100700383Y-50455469D01*
X100698088Y-50455300D01*
X100665261Y-50455300D01*
X100652090Y-50454610D01*
X100614138Y-50450621D01*
X100605672Y-50452053D01*
X100605669Y-50452053D01*
X100596902Y-50453536D01*
X100575890Y-50455300D01*
X95495589Y-50455300D01*
X95427468Y-50435298D01*
X95380975Y-50381642D01*
X95370871Y-50311368D01*
X95372624Y-50301812D01*
X95374056Y-50295406D01*
X95374056Y-50295403D01*
X95375183Y-50290363D01*
X95375500Y-50284693D01*
X95375500Y-48648836D01*
X95360558Y-48511291D01*
X95301617Y-48336152D01*
X95206443Y-48177756D01*
X95079476Y-48043493D01*
X94926640Y-47939625D01*
X94920306Y-47937092D01*
X94920303Y-47937090D01*
X94761402Y-47873534D01*
X94761397Y-47873533D01*
X94755065Y-47871000D01*
X94658495Y-47855013D01*
X94579494Y-47841934D01*
X94579490Y-47841934D01*
X94572756Y-47840819D01*
X94565939Y-47841176D01*
X94565935Y-47841176D01*
X94410889Y-47849302D01*
X94388219Y-47850490D01*
X94381646Y-47852301D01*
X94381643Y-47852301D01*
X94273238Y-47882161D01*
X94210064Y-47899562D01*
X94046602Y-47985746D01*
X93905460Y-48105020D01*
X93901313Y-48110444D01*
X93901312Y-48110445D01*
X93797367Y-48246399D01*
X93797364Y-48246403D01*
X93793223Y-48251820D01*
X93790341Y-48258000D01*
X93790340Y-48258002D01*
X93736106Y-48374307D01*
X93689188Y-48427592D01*
X93620911Y-48447053D01*
X93554397Y-48427442D01*
X93511813Y-48400418D01*
X93499217Y-48394274D01*
X93353981Y-48342557D01*
X93340356Y-48339361D01*
X93187262Y-48321106D01*
X93173265Y-48321008D01*
X93019929Y-48337125D01*
X93006265Y-48340130D01*
X92860315Y-48389814D01*
X92847645Y-48395776D01*
X92817105Y-48414565D01*
X92748604Y-48433223D01*
X92683571Y-48413634D01*
X92682761Y-48413120D01*
X92656079Y-48396187D01*
X92530754Y-48351561D01*
X92483926Y-48321957D01*
X92183705Y-48021736D01*
X92180052Y-48017927D01*
X92145834Y-47980715D01*
X92140016Y-47974388D01*
X92125806Y-47965577D01*
X92104945Y-47952643D01*
X92095162Y-47945919D01*
X92091923Y-47943460D01*
X92062296Y-47920972D01*
X92054309Y-47917810D01*
X92054306Y-47917808D01*
X92049417Y-47915872D01*
X92029416Y-47905813D01*
X92017650Y-47898518D01*
X91978019Y-47887004D01*
X91966795Y-47883160D01*
X91936416Y-47871133D01*
X91936413Y-47871132D01*
X91928428Y-47867971D01*
X91919891Y-47867074D01*
X91919884Y-47867072D01*
X91914661Y-47866523D01*
X91892684Y-47862212D01*
X91885722Y-47860189D01*
X91885720Y-47860189D01*
X91879388Y-47858349D01*
X91872573Y-47857849D01*
X91871496Y-47857769D01*
X91871483Y-47857769D01*
X91869188Y-47857600D01*
X91836361Y-47857600D01*
X91823190Y-47856910D01*
X91785238Y-47852921D01*
X91776772Y-47854353D01*
X91776769Y-47854353D01*
X91768002Y-47855836D01*
X91746990Y-47857600D01*
X88666035Y-47857600D01*
X88660759Y-47857489D01*
X88648494Y-47856975D01*
X88601681Y-47855013D01*
X88561495Y-47864438D01*
X88549829Y-47866600D01*
X88517464Y-47871033D01*
X88517462Y-47871034D01*
X88508954Y-47872199D01*
X88501073Y-47875610D01*
X88501071Y-47875610D01*
X88496253Y-47877695D01*
X88474990Y-47884727D01*
X88469871Y-47885928D01*
X88469869Y-47885929D01*
X88461507Y-47887890D01*
X88425325Y-47907781D01*
X88414695Y-47912988D01*
X88376817Y-47929380D01*
X88370141Y-47934786D01*
X88370139Y-47934787D01*
X88366058Y-47938092D01*
X88347474Y-47950580D01*
X88335337Y-47957253D01*
X88327595Y-47963936D01*
X88304391Y-47987140D01*
X88294591Y-47995965D01*
X88264925Y-48019988D01*
X88254794Y-48034244D01*
X88241187Y-48050344D01*
X87990569Y-48300962D01*
X87928257Y-48334988D01*
X87924716Y-48335558D01*
X87919828Y-48336633D01*
X87912821Y-48337369D01*
X87906153Y-48339639D01*
X87760098Y-48389360D01*
X87760095Y-48389361D01*
X87753431Y-48391630D01*
X87722244Y-48410817D01*
X87716162Y-48414558D01*
X87647661Y-48433216D01*
X87582625Y-48413625D01*
X87561804Y-48400411D01*
X87549226Y-48394277D01*
X87403981Y-48342557D01*
X87390356Y-48339361D01*
X87237262Y-48321106D01*
X87223265Y-48321008D01*
X87069929Y-48337125D01*
X87056265Y-48340130D01*
X86910315Y-48389814D01*
X86897643Y-48395777D01*
X86845359Y-48427943D01*
X86776858Y-48446602D01*
X86709144Y-48425264D01*
X86663715Y-48370704D01*
X86659917Y-48360815D01*
X86651617Y-48336152D01*
X86556443Y-48177756D01*
X86429476Y-48043493D01*
X86276640Y-47939625D01*
X86270306Y-47937092D01*
X86270303Y-47937090D01*
X86111402Y-47873534D01*
X86111397Y-47873533D01*
X86105065Y-47871000D01*
X86008495Y-47855013D01*
X85929494Y-47841934D01*
X85929490Y-47841934D01*
X85922756Y-47840819D01*
X85915939Y-47841176D01*
X85915935Y-47841176D01*
X85760889Y-47849302D01*
X85738219Y-47850490D01*
X85731646Y-47852301D01*
X85731643Y-47852301D01*
X85623238Y-47882161D01*
X85560064Y-47899562D01*
X85396602Y-47985746D01*
X85255460Y-48105020D01*
X85251313Y-48110444D01*
X85251312Y-48110445D01*
X85147367Y-48246399D01*
X85147364Y-48246403D01*
X85143223Y-48251820D01*
X85140341Y-48258000D01*
X85140340Y-48258002D01*
X85073934Y-48400411D01*
X85065127Y-48419297D01*
X85063642Y-48425942D01*
X85063640Y-48425947D01*
X85039411Y-48534346D01*
X85024817Y-48599637D01*
X85024500Y-48605307D01*
X85024500Y-50241164D01*
X85039442Y-50378709D01*
X85098383Y-50553848D01*
X85193557Y-50712244D01*
X85198248Y-50717204D01*
X85198249Y-50717206D01*
X85298968Y-50823712D01*
X85320524Y-50846507D01*
X85473360Y-50950375D01*
X85479694Y-50952908D01*
X85479697Y-50952910D01*
X85638598Y-51016466D01*
X85638603Y-51016467D01*
X85644935Y-51019000D01*
X85736689Y-51034190D01*
X85820506Y-51048066D01*
X85820510Y-51048066D01*
X85827244Y-51049181D01*
X85834061Y-51048824D01*
X85834065Y-51048824D01*
X85989111Y-51040698D01*
X86011781Y-51039510D01*
X86018354Y-51037699D01*
X86018357Y-51037699D01*
X86183354Y-50992251D01*
X86189936Y-50990438D01*
X86353398Y-50904254D01*
X86458099Y-50815775D01*
X86523040Y-50787083D01*
X86560676Y-50787818D01*
X86571573Y-50789682D01*
X86581834Y-50785323D01*
X87112684Y-50254473D01*
X87174996Y-50220447D01*
X87245811Y-50225512D01*
X87302647Y-50268059D01*
X87327458Y-50334579D01*
X87326785Y-50359358D01*
X87319825Y-50414455D01*
X87331744Y-50536014D01*
X87318485Y-50605760D01*
X87295440Y-50637403D01*
X86866968Y-51065875D01*
X86860208Y-51078255D01*
X86866654Y-51086865D01*
X86878814Y-51094823D01*
X86891297Y-51101129D01*
X87035810Y-51154872D01*
X87049392Y-51158259D01*
X87202214Y-51178649D01*
X87216204Y-51178942D01*
X87369751Y-51164969D01*
X87383462Y-51162154D01*
X87530090Y-51114512D01*
X87542838Y-51108729D01*
X87583172Y-51084685D01*
X87651927Y-51066985D01*
X87716682Y-51087481D01*
X87734475Y-51099125D01*
X87892289Y-51157815D01*
X87945907Y-51164969D01*
X87975292Y-51168890D01*
X88040168Y-51197726D01*
X88079156Y-51257059D01*
X88079877Y-51328052D01*
X88077029Y-51336875D01*
X88070622Y-51354478D01*
X88048114Y-51532653D01*
X88048801Y-51539660D01*
X88048801Y-51539662D01*
X88056885Y-51622104D01*
X88043626Y-51691852D01*
X87994763Y-51743359D01*
X87931486Y-51760400D01*
X76561559Y-51760400D01*
X76493438Y-51740398D01*
X76472464Y-51723495D01*
X75973477Y-51224508D01*
X75939451Y-51162196D01*
X75944516Y-51091381D01*
X75973474Y-51046320D01*
X75994152Y-51025642D01*
X76051748Y-50912604D01*
X76055992Y-50885812D01*
X76061609Y-50850341D01*
X76066602Y-50818819D01*
X76066601Y-48749182D01*
X76051748Y-48655396D01*
X76042731Y-48637698D01*
X76022330Y-48597661D01*
X75994152Y-48542358D01*
X75904444Y-48452650D01*
X75791406Y-48395054D01*
X75781617Y-48393504D01*
X75781615Y-48393503D01*
X75754253Y-48389170D01*
X75697621Y-48380200D01*
X75120119Y-48380200D01*
X74542384Y-48380201D01*
X74537491Y-48380976D01*
X74537490Y-48380976D01*
X74458396Y-48393502D01*
X74458394Y-48393503D01*
X74448598Y-48395054D01*
X74439761Y-48399557D01*
X74439760Y-48399557D01*
X74417007Y-48411151D01*
X74335560Y-48452650D01*
X74245852Y-48542358D01*
X74241352Y-48551190D01*
X74232270Y-48569015D01*
X74183522Y-48620631D01*
X74114607Y-48637698D01*
X74047406Y-48614798D01*
X74007736Y-48569019D01*
X73998652Y-48551191D01*
X73998651Y-48551189D01*
X73994151Y-48542358D01*
X73904443Y-48452650D01*
X73791405Y-48395054D01*
X73781616Y-48393504D01*
X73781614Y-48393503D01*
X73754252Y-48389170D01*
X73697620Y-48380200D01*
X73120118Y-48380200D01*
X72542383Y-48380201D01*
X72537490Y-48380976D01*
X72537489Y-48380976D01*
X72458395Y-48393502D01*
X72458393Y-48393503D01*
X72448597Y-48395054D01*
X72439760Y-48399557D01*
X72439759Y-48399557D01*
X72417006Y-48411151D01*
X72335559Y-48452650D01*
X72245851Y-48542358D01*
X72241351Y-48551190D01*
X72232269Y-48569015D01*
X72183521Y-48620631D01*
X72114606Y-48637698D01*
X72047405Y-48614798D01*
X72007735Y-48569019D01*
X71998651Y-48551191D01*
X71998650Y-48551189D01*
X71994150Y-48542358D01*
X71904442Y-48452650D01*
X71791404Y-48395054D01*
X71781615Y-48393504D01*
X71781613Y-48393503D01*
X71754251Y-48389170D01*
X71697619Y-48380200D01*
X71120117Y-48380200D01*
X70542382Y-48380201D01*
X70537489Y-48380976D01*
X70537488Y-48380976D01*
X70458394Y-48393502D01*
X70458392Y-48393503D01*
X70448596Y-48395054D01*
X70439759Y-48399557D01*
X70439758Y-48399557D01*
X70417005Y-48411151D01*
X70335558Y-48452650D01*
X70245850Y-48542358D01*
X70188254Y-48655396D01*
X70173400Y-48749181D01*
X70173401Y-50818818D01*
X70174176Y-50823709D01*
X70174176Y-50823712D01*
X70177002Y-50841553D01*
X70188254Y-50912604D01*
X70192755Y-50921437D01*
X70192757Y-50921442D01*
X70204351Y-50944195D01*
X70245850Y-51025642D01*
X70335558Y-51115350D01*
X70448596Y-51172946D01*
X70458385Y-51174496D01*
X70458387Y-51174497D01*
X70485749Y-51178830D01*
X70542381Y-51187800D01*
X70554728Y-51187800D01*
X71008843Y-51187799D01*
X71076963Y-51207801D01*
X71123456Y-51261456D01*
X71133560Y-51331730D01*
X71104067Y-51396311D01*
X71097937Y-51402894D01*
X70515536Y-51985295D01*
X70511727Y-51988948D01*
X70468188Y-52028984D01*
X70463660Y-52036287D01*
X70463659Y-52036288D01*
X70446443Y-52064055D01*
X70439720Y-52073837D01*
X70414772Y-52106704D01*
X70411610Y-52114691D01*
X70411608Y-52114694D01*
X70409672Y-52119583D01*
X70399613Y-52139584D01*
X70392318Y-52151350D01*
X70382630Y-52184696D01*
X70380805Y-52190977D01*
X70376960Y-52202205D01*
X70364933Y-52232584D01*
X70364932Y-52232587D01*
X70361771Y-52240572D01*
X70360874Y-52249109D01*
X70360872Y-52249116D01*
X70360323Y-52254339D01*
X70356012Y-52276315D01*
X70352149Y-52289612D01*
X70351400Y-52299812D01*
X70351400Y-52332639D01*
X70350710Y-52345810D01*
X70346721Y-52383762D01*
X70348153Y-52392228D01*
X70348153Y-52392231D01*
X70349636Y-52400998D01*
X70351400Y-52422010D01*
X70351400Y-54203500D01*
X70331398Y-54271621D01*
X70277742Y-54318114D01*
X70225400Y-54329500D01*
X66086212Y-54329501D01*
X65918482Y-54329501D01*
X65913589Y-54330276D01*
X65913588Y-54330276D01*
X65834494Y-54342802D01*
X65834492Y-54342803D01*
X65824696Y-54344354D01*
X65711658Y-54401950D01*
X65621950Y-54491658D01*
X65564354Y-54604696D01*
X65549500Y-54698481D01*
X63900500Y-54698481D01*
X63900500Y-47719342D01*
X63920502Y-47651221D01*
X63974158Y-47604728D01*
X64044432Y-47594624D01*
X64109012Y-47624118D01*
X64144579Y-47675779D01*
X64145580Y-47679513D01*
X64147905Y-47684498D01*
X64286894Y-47982561D01*
X64294093Y-47998000D01*
X64495654Y-48285860D01*
X64744140Y-48534346D01*
X65032000Y-48735907D01*
X65036978Y-48738228D01*
X65036981Y-48738230D01*
X65071094Y-48754137D01*
X65350487Y-48884420D01*
X65355795Y-48885842D01*
X65355797Y-48885843D01*
X65684610Y-48973948D01*
X65684612Y-48973948D01*
X65689925Y-48975372D01*
X66040000Y-49006000D01*
X66390075Y-48975372D01*
X66395388Y-48973948D01*
X66395390Y-48973948D01*
X66724203Y-48885843D01*
X66724205Y-48885842D01*
X66729513Y-48884420D01*
X67008906Y-48754137D01*
X67043019Y-48738230D01*
X67043022Y-48738228D01*
X67048000Y-48735907D01*
X67335860Y-48534346D01*
X67584346Y-48285860D01*
X67785907Y-47998000D01*
X67789566Y-47990155D01*
X67932097Y-47684495D01*
X67932098Y-47684494D01*
X67934420Y-47679513D01*
X67940163Y-47658082D01*
X68023948Y-47345390D01*
X68023948Y-47345388D01*
X68025372Y-47340075D01*
X68056000Y-46990000D01*
X68025372Y-46639925D01*
X68005403Y-46565400D01*
X67935843Y-46305797D01*
X67935842Y-46305795D01*
X67934420Y-46300487D01*
X67906449Y-46240502D01*
X67788230Y-45986981D01*
X67788228Y-45986978D01*
X67785907Y-45982000D01*
X67584346Y-45694140D01*
X67335860Y-45445654D01*
X67048000Y-45244093D01*
X67043022Y-45241772D01*
X67043019Y-45241770D01*
X66853954Y-45153608D01*
X66729513Y-45095580D01*
X66725827Y-45094592D01*
X66669075Y-45052806D01*
X66643738Y-44986484D01*
X66658279Y-44916993D01*
X66708082Y-44866394D01*
X66769342Y-44850500D01*
X69992715Y-44850500D01*
X70060836Y-44870502D01*
G37*
%TD.AperFunction*%
%TA.AperFunction,Conductor*%
G36*
X94336621Y-56588602D02*
G01*
X94383114Y-56642258D01*
X94394500Y-56694600D01*
X94394500Y-57098500D01*
X94374498Y-57166621D01*
X94320842Y-57213114D01*
X94268500Y-57224500D01*
X88225535Y-57224500D01*
X88220259Y-57224389D01*
X88207994Y-57223875D01*
X88161181Y-57221913D01*
X88120995Y-57231338D01*
X88109329Y-57233500D01*
X88076964Y-57237933D01*
X88076962Y-57237934D01*
X88068454Y-57239099D01*
X88060573Y-57242510D01*
X88060571Y-57242510D01*
X88055753Y-57244595D01*
X88034490Y-57251627D01*
X88029375Y-57252827D01*
X88029373Y-57252828D01*
X88021007Y-57254790D01*
X88013482Y-57258927D01*
X88013479Y-57258928D01*
X87984838Y-57274674D01*
X87974178Y-57279896D01*
X87944198Y-57292869D01*
X87944195Y-57292871D01*
X87936317Y-57296280D01*
X87929644Y-57301683D01*
X87929640Y-57301686D01*
X87925556Y-57304993D01*
X87906970Y-57317482D01*
X87900627Y-57320969D01*
X87900624Y-57320971D01*
X87894838Y-57324152D01*
X87887096Y-57330835D01*
X87863891Y-57354040D01*
X87854091Y-57362865D01*
X87824425Y-57386888D01*
X87814294Y-57401144D01*
X87800687Y-57417244D01*
X86942536Y-58275395D01*
X86938727Y-58279048D01*
X86895188Y-58319084D01*
X86890660Y-58326387D01*
X86890659Y-58326388D01*
X86873443Y-58354155D01*
X86866720Y-58363937D01*
X86841772Y-58396804D01*
X86838610Y-58404791D01*
X86838608Y-58404794D01*
X86836672Y-58409683D01*
X86826613Y-58429684D01*
X86819318Y-58441450D01*
X86807805Y-58481077D01*
X86803960Y-58492305D01*
X86791933Y-58522684D01*
X86791932Y-58522687D01*
X86788771Y-58530672D01*
X86787874Y-58539209D01*
X86787872Y-58539216D01*
X86787323Y-58544439D01*
X86783012Y-58566415D01*
X86779149Y-58579712D01*
X86778400Y-58589912D01*
X86778400Y-58622739D01*
X86777710Y-58635910D01*
X86773721Y-58673862D01*
X86775153Y-58682328D01*
X86775153Y-58682331D01*
X86776636Y-58691098D01*
X86778400Y-58712110D01*
X86778400Y-59216773D01*
X86758398Y-59284894D01*
X86740557Y-59306797D01*
X86679632Y-59366459D01*
X86675813Y-59372384D01*
X86675812Y-59372386D01*
X86586389Y-59511143D01*
X86582346Y-59517417D01*
X86579937Y-59524037D01*
X86579935Y-59524040D01*
X86553858Y-59595688D01*
X86520922Y-59686178D01*
X86498414Y-59864353D01*
X86499101Y-59871360D01*
X86499101Y-59871363D01*
X86506613Y-59947974D01*
X86515939Y-60043086D01*
X86518162Y-60049768D01*
X86518162Y-60049769D01*
X86526867Y-60075936D01*
X86572626Y-60213496D01*
X86665659Y-60367112D01*
X86790414Y-60496299D01*
X86940689Y-60594636D01*
X87109016Y-60657236D01*
X87115997Y-60658167D01*
X87115999Y-60658168D01*
X87280049Y-60680057D01*
X87280053Y-60680057D01*
X87287030Y-60680988D01*
X87294042Y-60680350D01*
X87294046Y-60680350D01*
X87458860Y-60665351D01*
X87458861Y-60665351D01*
X87465881Y-60664712D01*
X87636682Y-60609215D01*
X87712297Y-60564140D01*
X87784892Y-60520865D01*
X87784894Y-60520864D01*
X87790944Y-60517257D01*
X87920999Y-60393407D01*
X87938470Y-60367112D01*
X88016482Y-60249693D01*
X88020383Y-60243822D01*
X88035068Y-60205164D01*
X88081657Y-60082519D01*
X88081658Y-60082514D01*
X88084157Y-60075936D01*
X88090693Y-60029430D01*
X88119981Y-59964755D01*
X88179585Y-59926182D01*
X88250581Y-59925957D01*
X88268999Y-59934152D01*
X88269306Y-59933463D01*
X88277146Y-59936954D01*
X88284450Y-59941482D01*
X88324081Y-59952996D01*
X88335305Y-59956840D01*
X88365684Y-59968867D01*
X88365687Y-59968868D01*
X88373672Y-59972029D01*
X88382209Y-59972926D01*
X88382216Y-59972928D01*
X88387439Y-59973477D01*
X88409416Y-59977788D01*
X88416378Y-59979811D01*
X88416380Y-59979811D01*
X88422712Y-59981651D01*
X88429527Y-59982151D01*
X88430604Y-59982231D01*
X88430617Y-59982231D01*
X88432912Y-59982400D01*
X88465739Y-59982400D01*
X88478910Y-59983090D01*
X88516862Y-59987079D01*
X88525328Y-59985647D01*
X88525331Y-59985647D01*
X88534098Y-59984164D01*
X88555110Y-59982400D01*
X96370565Y-59982400D01*
X96375842Y-59982511D01*
X96434919Y-59984987D01*
X96475105Y-59975562D01*
X96486771Y-59973400D01*
X96519136Y-59968967D01*
X96519138Y-59968966D01*
X96527646Y-59967801D01*
X96535527Y-59964390D01*
X96535529Y-59964390D01*
X96540347Y-59962305D01*
X96561610Y-59955273D01*
X96566729Y-59954072D01*
X96566731Y-59954071D01*
X96575093Y-59952110D01*
X96611275Y-59932219D01*
X96621905Y-59927012D01*
X96659783Y-59910620D01*
X96670542Y-59901908D01*
X96678258Y-59896722D01*
X96680492Y-59894558D01*
X96681343Y-59893966D01*
X96683362Y-59893292D01*
X96689116Y-59889425D01*
X96691900Y-59887894D01*
X96692107Y-59888270D01*
X96692972Y-59887668D01*
X96692819Y-59887389D01*
X96695472Y-59885931D01*
X96695475Y-59885929D01*
X96701263Y-59882747D01*
X96709005Y-59876064D01*
X96732209Y-59852860D01*
X96742010Y-59844034D01*
X96765001Y-59825417D01*
X96765003Y-59825415D01*
X96771675Y-59820012D01*
X96776649Y-59813012D01*
X96782531Y-59806749D01*
X96782613Y-59806826D01*
X96791950Y-59796234D01*
X96798712Y-59790016D01*
X96820460Y-59754940D01*
X96827174Y-59745170D01*
X96852127Y-59712296D01*
X96857222Y-59699426D01*
X96867286Y-59679418D01*
X96874582Y-59667650D01*
X96876977Y-59659407D01*
X96876980Y-59659400D01*
X96886101Y-59628007D01*
X96889945Y-59616780D01*
X96901968Y-59586413D01*
X96901969Y-59586411D01*
X96905129Y-59578428D01*
X96906026Y-59569891D01*
X96906028Y-59569884D01*
X96906577Y-59564661D01*
X96910889Y-59542681D01*
X96914012Y-59531932D01*
X96952226Y-59472097D01*
X97016723Y-59442420D01*
X97087025Y-59452324D01*
X97096368Y-59457760D01*
X97096658Y-59458050D01*
X97209696Y-59515646D01*
X97219485Y-59517196D01*
X97219487Y-59517197D01*
X97232059Y-59519188D01*
X97303481Y-59530500D01*
X97659928Y-59530500D01*
X98016518Y-59530499D01*
X98021412Y-59529724D01*
X98100506Y-59517198D01*
X98100508Y-59517197D01*
X98110304Y-59515646D01*
X98180744Y-59479755D01*
X98214507Y-59462552D01*
X98214508Y-59462551D01*
X98223342Y-59458050D01*
X98224940Y-59456452D01*
X98287802Y-59434020D01*
X98356954Y-59450098D01*
X98361857Y-59453249D01*
X98366658Y-59458050D01*
X98375492Y-59462551D01*
X98375493Y-59462552D01*
X98409256Y-59479755D01*
X98479696Y-59515646D01*
X98489485Y-59517196D01*
X98489487Y-59517197D01*
X98502059Y-59519188D01*
X98573481Y-59530500D01*
X98929928Y-59530500D01*
X99286518Y-59530499D01*
X99291412Y-59529724D01*
X99370506Y-59517198D01*
X99370508Y-59517197D01*
X99380304Y-59515646D01*
X99450744Y-59479755D01*
X99484507Y-59462552D01*
X99484508Y-59462551D01*
X99493342Y-59458050D01*
X99494940Y-59456452D01*
X99557802Y-59434020D01*
X99626954Y-59450098D01*
X99631857Y-59453249D01*
X99636658Y-59458050D01*
X99645492Y-59462551D01*
X99645493Y-59462552D01*
X99679256Y-59479755D01*
X99749696Y-59515646D01*
X99759485Y-59517196D01*
X99759487Y-59517197D01*
X99772059Y-59519188D01*
X99843481Y-59530500D01*
X99902888Y-59530500D01*
X100490900Y-59530499D01*
X100559021Y-59550501D01*
X100581537Y-59568972D01*
X100633614Y-59622899D01*
X100783889Y-59721236D01*
X100952216Y-59783836D01*
X100959197Y-59784767D01*
X100959199Y-59784768D01*
X101123249Y-59806657D01*
X101123253Y-59806657D01*
X101130230Y-59807588D01*
X101137242Y-59806950D01*
X101137246Y-59806950D01*
X101302060Y-59791951D01*
X101302061Y-59791951D01*
X101309081Y-59791312D01*
X101479882Y-59735815D01*
X101504339Y-59721236D01*
X101628092Y-59647465D01*
X101628094Y-59647464D01*
X101634144Y-59643857D01*
X101764199Y-59520007D01*
X101770089Y-59511143D01*
X101845355Y-59397857D01*
X101863583Y-59370422D01*
X101919537Y-59223123D01*
X101924857Y-59209119D01*
X101924858Y-59209114D01*
X101927357Y-59202536D01*
X101928337Y-59195564D01*
X101951800Y-59028616D01*
X101951800Y-59028611D01*
X101952351Y-59024693D01*
X101952665Y-59002200D01*
X101951044Y-58987748D01*
X101963328Y-58917822D01*
X101975423Y-58898288D01*
X101975731Y-58897741D01*
X101980927Y-58890896D01*
X101986022Y-58878026D01*
X101996086Y-58858018D01*
X102003382Y-58846250D01*
X102005777Y-58838007D01*
X102005780Y-58838000D01*
X102014901Y-58806607D01*
X102018745Y-58795380D01*
X102030768Y-58765013D01*
X102030769Y-58765011D01*
X102033929Y-58757028D01*
X102034826Y-58748491D01*
X102034828Y-58748484D01*
X102035377Y-58743261D01*
X102039688Y-58721284D01*
X102041711Y-58714322D01*
X102041711Y-58714320D01*
X102043551Y-58707988D01*
X102044300Y-58697788D01*
X102044300Y-58664962D01*
X102044990Y-58651791D01*
X102047349Y-58629345D01*
X102048979Y-58613839D01*
X102046722Y-58600491D01*
X102046064Y-58596603D01*
X102044300Y-58575591D01*
X102044300Y-57553000D01*
X102064302Y-57484879D01*
X102117958Y-57438386D01*
X102170300Y-57427000D01*
X104323753Y-57427000D01*
X104391874Y-57447002D01*
X104438367Y-57500658D01*
X104449274Y-57542019D01*
X104463793Y-57707977D01*
X104498569Y-57837764D01*
X104505595Y-57863982D01*
X104520425Y-57919330D01*
X104522747Y-57924310D01*
X104522748Y-57924312D01*
X104608461Y-58108122D01*
X104612898Y-58117638D01*
X104738402Y-58296877D01*
X104893123Y-58451598D01*
X104897631Y-58454755D01*
X104897634Y-58454757D01*
X105067852Y-58573945D01*
X105072361Y-58577102D01*
X105077343Y-58579425D01*
X105077348Y-58579428D01*
X105219695Y-58645805D01*
X105272980Y-58692722D01*
X105292441Y-58761000D01*
X105271899Y-58828960D01*
X105219695Y-58874195D01*
X105077343Y-58940575D01*
X105077340Y-58940577D01*
X105072362Y-58942898D01*
X104893123Y-59068402D01*
X104738402Y-59223123D01*
X104612898Y-59402362D01*
X104610577Y-59407340D01*
X104610575Y-59407343D01*
X104527073Y-59586413D01*
X104520425Y-59600670D01*
X104463793Y-59812023D01*
X104444723Y-60030000D01*
X104463793Y-60247977D01*
X104520425Y-60459330D01*
X104522747Y-60464310D01*
X104522748Y-60464312D01*
X104590716Y-60610068D01*
X104612898Y-60657638D01*
X104738402Y-60836877D01*
X104893123Y-60991598D01*
X104897631Y-60994755D01*
X104897634Y-60994757D01*
X105067852Y-61113945D01*
X105072361Y-61117102D01*
X105077343Y-61119425D01*
X105077348Y-61119428D01*
X105219695Y-61185805D01*
X105272980Y-61232722D01*
X105292441Y-61301000D01*
X105271899Y-61368960D01*
X105219695Y-61414195D01*
X105077343Y-61480575D01*
X105077340Y-61480577D01*
X105072362Y-61482898D01*
X104893123Y-61608402D01*
X104738402Y-61763123D01*
X104612898Y-61942362D01*
X104610577Y-61947340D01*
X104610575Y-61947343D01*
X104522748Y-62135688D01*
X104520425Y-62140670D01*
X104463793Y-62352023D01*
X104444723Y-62570000D01*
X104463793Y-62787977D01*
X104497008Y-62911936D01*
X104510955Y-62963986D01*
X104520425Y-62999330D01*
X104522747Y-63004310D01*
X104522748Y-63004312D01*
X104607907Y-63186934D01*
X104612898Y-63197638D01*
X104738402Y-63376877D01*
X104846929Y-63485404D01*
X104880955Y-63547716D01*
X104875890Y-63618531D01*
X104833343Y-63675367D01*
X104766823Y-63700178D01*
X104757834Y-63700499D01*
X96211505Y-63700499D01*
X96143384Y-63680497D01*
X96096891Y-63626841D01*
X96086787Y-63556567D01*
X96116281Y-63491987D01*
X96122410Y-63485404D01*
X96367893Y-63239921D01*
X96430205Y-63205895D01*
X96469103Y-63204310D01*
X96469103Y-63204309D01*
X96469114Y-63204309D01*
X96473658Y-63204124D01*
X96474608Y-63204251D01*
X96476150Y-63204457D01*
X96476153Y-63204457D01*
X96483130Y-63205388D01*
X96490142Y-63204750D01*
X96490145Y-63204750D01*
X96654960Y-63189751D01*
X96654961Y-63189751D01*
X96661981Y-63189112D01*
X96832782Y-63133615D01*
X96874578Y-63108700D01*
X96980992Y-63045265D01*
X96980994Y-63045264D01*
X96987044Y-63041657D01*
X97117099Y-62917807D01*
X97216483Y-62768222D01*
X97253743Y-62670135D01*
X97277757Y-62606919D01*
X97277758Y-62606914D01*
X97280257Y-62600336D01*
X97281237Y-62593364D01*
X97304700Y-62426416D01*
X97304700Y-62426411D01*
X97305251Y-62422493D01*
X97305565Y-62400000D01*
X97285546Y-62221528D01*
X97279427Y-62203955D01*
X97257388Y-62140670D01*
X97226485Y-62051927D01*
X97131316Y-61899625D01*
X97039918Y-61807587D01*
X97009733Y-61777190D01*
X97009729Y-61777187D01*
X97004770Y-61772193D01*
X96993761Y-61765206D01*
X96934838Y-61727813D01*
X96853136Y-61675963D01*
X96823352Y-61665357D01*
X96690586Y-61618081D01*
X96690581Y-61618080D01*
X96683951Y-61615719D01*
X96676965Y-61614886D01*
X96676961Y-61614885D01*
X96549177Y-61599648D01*
X96505624Y-61594455D01*
X96498621Y-61595191D01*
X96498620Y-61595191D01*
X96334025Y-61612490D01*
X96334021Y-61612491D01*
X96327017Y-61613227D01*
X96320346Y-61615498D01*
X96163677Y-61668832D01*
X96163674Y-61668833D01*
X96157007Y-61671103D01*
X96151009Y-61674793D01*
X96151007Y-61674794D01*
X96090502Y-61712017D01*
X96004045Y-61765206D01*
X95999014Y-61770132D01*
X95999011Y-61770135D01*
X95936883Y-61830976D01*
X95875732Y-61890859D01*
X95871913Y-61896784D01*
X95871912Y-61896786D01*
X95839330Y-61947343D01*
X95778446Y-62041817D01*
X95717022Y-62210578D01*
X95694514Y-62388753D01*
X95695201Y-62395760D01*
X95695201Y-62395763D01*
X95698428Y-62428672D01*
X95685168Y-62498419D01*
X95662124Y-62530062D01*
X95655981Y-62536205D01*
X95593669Y-62570231D01*
X95524620Y-62565809D01*
X95424231Y-62530062D01*
X95390585Y-62518081D01*
X95390583Y-62518081D01*
X95383951Y-62515719D01*
X95376965Y-62514886D01*
X95376961Y-62514885D01*
X95238867Y-62498419D01*
X95205624Y-62494455D01*
X95198621Y-62495191D01*
X95198620Y-62495191D01*
X95034025Y-62512490D01*
X95034021Y-62512491D01*
X95027017Y-62513227D01*
X95020346Y-62515498D01*
X94863677Y-62568832D01*
X94863674Y-62568833D01*
X94857007Y-62571103D01*
X94851009Y-62574793D01*
X94851007Y-62574794D01*
X94809294Y-62600456D01*
X94704045Y-62665206D01*
X94699014Y-62670132D01*
X94699011Y-62670135D01*
X94636883Y-62730976D01*
X94575732Y-62790859D01*
X94478446Y-62941817D01*
X94476037Y-62948437D01*
X94476035Y-62948440D01*
X94457513Y-62999330D01*
X94417022Y-63110578D01*
X94394514Y-63288753D01*
X94412039Y-63467486D01*
X94414262Y-63474168D01*
X94414262Y-63474169D01*
X94434407Y-63534728D01*
X94436929Y-63605680D01*
X94400691Y-63666732D01*
X94337199Y-63698501D01*
X94314848Y-63700499D01*
X93677258Y-63700499D01*
X93609137Y-63680497D01*
X93588163Y-63663594D01*
X92436005Y-62511436D01*
X92432352Y-62507627D01*
X92398134Y-62470415D01*
X92392316Y-62464088D01*
X92373024Y-62452126D01*
X92357245Y-62442343D01*
X92347462Y-62435619D01*
X92321440Y-62415867D01*
X92314596Y-62410672D01*
X92306609Y-62407510D01*
X92306606Y-62407508D01*
X92301717Y-62405572D01*
X92281716Y-62395513D01*
X92269950Y-62388218D01*
X92230319Y-62376704D01*
X92219095Y-62372860D01*
X92188716Y-62360833D01*
X92188713Y-62360832D01*
X92180728Y-62357671D01*
X92172191Y-62356774D01*
X92172184Y-62356772D01*
X92166961Y-62356223D01*
X92144984Y-62351912D01*
X92138022Y-62349889D01*
X92138020Y-62349889D01*
X92131688Y-62348049D01*
X92124873Y-62347549D01*
X92123796Y-62347469D01*
X92123783Y-62347469D01*
X92121488Y-62347300D01*
X92088661Y-62347300D01*
X92075490Y-62346610D01*
X92037538Y-62342621D01*
X92029072Y-62344053D01*
X92029069Y-62344053D01*
X92020302Y-62345536D01*
X91999290Y-62347300D01*
X84641635Y-62347300D01*
X84636359Y-62347189D01*
X84631722Y-62346995D01*
X84577281Y-62344713D01*
X84537095Y-62354138D01*
X84525429Y-62356300D01*
X84493064Y-62360733D01*
X84493062Y-62360734D01*
X84484554Y-62361899D01*
X84476673Y-62365310D01*
X84476671Y-62365310D01*
X84471853Y-62367395D01*
X84450590Y-62374427D01*
X84445475Y-62375627D01*
X84445473Y-62375628D01*
X84437107Y-62377590D01*
X84429582Y-62381727D01*
X84429579Y-62381728D01*
X84400938Y-62397474D01*
X84390278Y-62402696D01*
X84360298Y-62415669D01*
X84360295Y-62415671D01*
X84352417Y-62419080D01*
X84345744Y-62424483D01*
X84345740Y-62424486D01*
X84341656Y-62427793D01*
X84323070Y-62440282D01*
X84316727Y-62443769D01*
X84316724Y-62443771D01*
X84310938Y-62446952D01*
X84303196Y-62453635D01*
X84279991Y-62476840D01*
X84270191Y-62485665D01*
X84240525Y-62509688D01*
X84230394Y-62523944D01*
X84216787Y-62540044D01*
X83598473Y-63158358D01*
X83536161Y-63192384D01*
X83510570Y-63195045D01*
X83505624Y-63194455D01*
X83498621Y-63195191D01*
X83498620Y-63195191D01*
X83334025Y-63212490D01*
X83334021Y-63212491D01*
X83327017Y-63213227D01*
X83320346Y-63215498D01*
X83163677Y-63268832D01*
X83163674Y-63268833D01*
X83157007Y-63271103D01*
X83151009Y-63274793D01*
X83151007Y-63274794D01*
X83128317Y-63288753D01*
X83004045Y-63365206D01*
X82999014Y-63370132D01*
X82999011Y-63370135D01*
X82951936Y-63416235D01*
X82875732Y-63490859D01*
X82871913Y-63496784D01*
X82871912Y-63496786D01*
X82793453Y-63618531D01*
X82778446Y-63641817D01*
X82776037Y-63648437D01*
X82776035Y-63648440D01*
X82757815Y-63698501D01*
X82717022Y-63810578D01*
X82694514Y-63988753D01*
X82695201Y-63995760D01*
X82695201Y-63995763D01*
X82698207Y-64026416D01*
X82712039Y-64167486D01*
X82714262Y-64174168D01*
X82714262Y-64174169D01*
X82758660Y-64307635D01*
X82768726Y-64337896D01*
X82772373Y-64343918D01*
X82856218Y-64482362D01*
X82861759Y-64491512D01*
X82986514Y-64620699D01*
X83136789Y-64719036D01*
X83305116Y-64781636D01*
X83312097Y-64782567D01*
X83312099Y-64782568D01*
X83476149Y-64804457D01*
X83476153Y-64804457D01*
X83483130Y-64805388D01*
X83490142Y-64804750D01*
X83490146Y-64804750D01*
X83654960Y-64789751D01*
X83654961Y-64789751D01*
X83661981Y-64789112D01*
X83832782Y-64733615D01*
X83929956Y-64675688D01*
X83980992Y-64645265D01*
X83980994Y-64645264D01*
X83987044Y-64641657D01*
X84117099Y-64517807D01*
X84134570Y-64491512D01*
X84185319Y-64415128D01*
X84216483Y-64368222D01*
X84241212Y-64303123D01*
X84277757Y-64206919D01*
X84277758Y-64206914D01*
X84280257Y-64200336D01*
X84284262Y-64171840D01*
X84304700Y-64026416D01*
X84304700Y-64026411D01*
X84305251Y-64022493D01*
X84305419Y-64010483D01*
X84305510Y-64003957D01*
X84305510Y-64003953D01*
X84305565Y-64000000D01*
X84305165Y-63996435D01*
X84321799Y-63927498D01*
X84341901Y-63901268D01*
X84807964Y-63435205D01*
X84870276Y-63401179D01*
X84897059Y-63398300D01*
X85544054Y-63398300D01*
X85612175Y-63418302D01*
X85658668Y-63471958D01*
X85669061Y-63540091D01*
X85662914Y-63588753D01*
X85663601Y-63595760D01*
X85663601Y-63595763D01*
X85668766Y-63648440D01*
X85680439Y-63767486D01*
X85682662Y-63774168D01*
X85682662Y-63774169D01*
X85724942Y-63901268D01*
X85737126Y-63937896D01*
X85740773Y-63943918D01*
X85790736Y-64026416D01*
X85830159Y-64091512D01*
X85835048Y-64096575D01*
X85835049Y-64096576D01*
X85902551Y-64166476D01*
X85954914Y-64220699D01*
X86105189Y-64319036D01*
X86273516Y-64381636D01*
X86280497Y-64382567D01*
X86280499Y-64382568D01*
X86444549Y-64404457D01*
X86444553Y-64404457D01*
X86451530Y-64405388D01*
X86458541Y-64404750D01*
X86458543Y-64404750D01*
X86461760Y-64404457D01*
X86465241Y-64404140D01*
X86534894Y-64417885D01*
X86565757Y-64440526D01*
X87446118Y-65320888D01*
X87449770Y-65324697D01*
X87489784Y-65368212D01*
X87524853Y-65389956D01*
X87534632Y-65396677D01*
X87567504Y-65421627D01*
X87580374Y-65426722D01*
X87600382Y-65436786D01*
X87612150Y-65444082D01*
X87620393Y-65446477D01*
X87620400Y-65446480D01*
X87651793Y-65455601D01*
X87663020Y-65459445D01*
X87693387Y-65471468D01*
X87693389Y-65471469D01*
X87701372Y-65474629D01*
X87709909Y-65475526D01*
X87709916Y-65475528D01*
X87715139Y-65476077D01*
X87737116Y-65480388D01*
X87744078Y-65482411D01*
X87744080Y-65482411D01*
X87750412Y-65484251D01*
X87757227Y-65484751D01*
X87758304Y-65484831D01*
X87758317Y-65484831D01*
X87760612Y-65485000D01*
X87793438Y-65485000D01*
X87806609Y-65485690D01*
X87844561Y-65489679D01*
X87853027Y-65488247D01*
X87853030Y-65488247D01*
X87861797Y-65486764D01*
X87882809Y-65485000D01*
X91877513Y-65485000D01*
X91945634Y-65505002D01*
X91992127Y-65558658D01*
X92002231Y-65628932D01*
X91972737Y-65693512D01*
X91918118Y-65730278D01*
X91893577Y-65738632D01*
X91893574Y-65738633D01*
X91886907Y-65740903D01*
X91880909Y-65744593D01*
X91880907Y-65744594D01*
X91848703Y-65764406D01*
X91733945Y-65835006D01*
X91728914Y-65839932D01*
X91728911Y-65839935D01*
X91666783Y-65900776D01*
X91605632Y-65960659D01*
X91601813Y-65966584D01*
X91601812Y-65966586D01*
X91523876Y-66087519D01*
X91508346Y-66111617D01*
X91505937Y-66118237D01*
X91505935Y-66118240D01*
X91495615Y-66146594D01*
X91446922Y-66280378D01*
X91424414Y-66458553D01*
X91425101Y-66465560D01*
X91425101Y-66465562D01*
X91425171Y-66466273D01*
X91425085Y-66466725D01*
X91425003Y-66472607D01*
X91423970Y-66472593D01*
X91411912Y-66536020D01*
X91388867Y-66567664D01*
X90334146Y-67622385D01*
X90271834Y-67656411D01*
X90201019Y-67651346D01*
X90155645Y-67622074D01*
X90045433Y-67511090D01*
X90045429Y-67511087D01*
X90040470Y-67506093D01*
X90029461Y-67499106D01*
X89932388Y-67437502D01*
X89888836Y-67409863D01*
X89840971Y-67392819D01*
X89726286Y-67351981D01*
X89726281Y-67351980D01*
X89719651Y-67349619D01*
X89712665Y-67348786D01*
X89712661Y-67348785D01*
X89584877Y-67333548D01*
X89541324Y-67328355D01*
X89534321Y-67329091D01*
X89534320Y-67329091D01*
X89369725Y-67346390D01*
X89369721Y-67346391D01*
X89362717Y-67347127D01*
X89356046Y-67349398D01*
X89199377Y-67402732D01*
X89199374Y-67402733D01*
X89192707Y-67405003D01*
X89186709Y-67408693D01*
X89186707Y-67408694D01*
X89157423Y-67426710D01*
X89039745Y-67499106D01*
X89034714Y-67504032D01*
X89034711Y-67504035D01*
X88991424Y-67546425D01*
X88911432Y-67624759D01*
X88907613Y-67630684D01*
X88907612Y-67630686D01*
X88820930Y-67765190D01*
X88814146Y-67775717D01*
X88752722Y-67944478D01*
X88730214Y-68122653D01*
X88730901Y-68129660D01*
X88730901Y-68129662D01*
X88730971Y-68130373D01*
X88730885Y-68130825D01*
X88730803Y-68136707D01*
X88729770Y-68136693D01*
X88717712Y-68200120D01*
X88694667Y-68231764D01*
X88370336Y-68556095D01*
X88308024Y-68590121D01*
X88281241Y-68593000D01*
X80966500Y-68593000D01*
X80898379Y-68572998D01*
X80851886Y-68519342D01*
X80840500Y-68467000D01*
X80840499Y-66803437D01*
X80840499Y-66798482D01*
X80825646Y-66704696D01*
X80819330Y-66692299D01*
X80795548Y-66645626D01*
X80768050Y-66591658D01*
X80678342Y-66501950D01*
X80565304Y-66444354D01*
X80555515Y-66442804D01*
X80555513Y-66442803D01*
X80528151Y-66438470D01*
X80471519Y-66429500D01*
X79740148Y-66429500D01*
X79008482Y-66429501D01*
X79003589Y-66430276D01*
X79003588Y-66430276D01*
X78924494Y-66442802D01*
X78924492Y-66442803D01*
X78914696Y-66444354D01*
X78905859Y-66448857D01*
X78905858Y-66448857D01*
X78886829Y-66458553D01*
X78801658Y-66501950D01*
X78711950Y-66591658D01*
X78654354Y-66704696D01*
X78639500Y-66798481D01*
X78639501Y-67679465D01*
X78639501Y-68467000D01*
X78619499Y-68535121D01*
X78565843Y-68581614D01*
X78513501Y-68593000D01*
X77347748Y-68593000D01*
X77279627Y-68572998D01*
X77233134Y-68519342D01*
X77222974Y-68449464D01*
X77227900Y-68414416D01*
X77227900Y-68414411D01*
X77228451Y-68410493D01*
X77228765Y-68388000D01*
X77208746Y-68209528D01*
X77149685Y-68039927D01*
X77086255Y-67938417D01*
X77058249Y-67893599D01*
X77054516Y-67887625D01*
X76990971Y-67823635D01*
X76932933Y-67765190D01*
X76932929Y-67765187D01*
X76927970Y-67760193D01*
X76776336Y-67663963D01*
X76721748Y-67644525D01*
X76613786Y-67606081D01*
X76613781Y-67606080D01*
X76607151Y-67603719D01*
X76600165Y-67602886D01*
X76600161Y-67602885D01*
X76472377Y-67587648D01*
X76428824Y-67582455D01*
X76421819Y-67583191D01*
X76414775Y-67583142D01*
X76414794Y-67580404D01*
X76357189Y-67569852D01*
X76324794Y-67546425D01*
X76247005Y-67468636D01*
X76243352Y-67464827D01*
X76209134Y-67427615D01*
X76203316Y-67421288D01*
X76190985Y-67413642D01*
X76168245Y-67399543D01*
X76158462Y-67392819D01*
X76154231Y-67389607D01*
X76125596Y-67367872D01*
X76117609Y-67364710D01*
X76117606Y-67364708D01*
X76112717Y-67362772D01*
X76092716Y-67352713D01*
X76080950Y-67345418D01*
X76041319Y-67333904D01*
X76030095Y-67330060D01*
X75999716Y-67318033D01*
X75999713Y-67318032D01*
X75991728Y-67314871D01*
X75983191Y-67313974D01*
X75983184Y-67313972D01*
X75977961Y-67313423D01*
X75955984Y-67309112D01*
X75949022Y-67307089D01*
X75949020Y-67307089D01*
X75942688Y-67305249D01*
X75935873Y-67304749D01*
X75934796Y-67304669D01*
X75934783Y-67304669D01*
X75932488Y-67304500D01*
X75899661Y-67304500D01*
X75886490Y-67303810D01*
X75848538Y-67299821D01*
X75840072Y-67301253D01*
X75840069Y-67301253D01*
X75831302Y-67302736D01*
X75810290Y-67304500D01*
X71125990Y-67304500D01*
X71057869Y-67284498D01*
X71024055Y-67252563D01*
X71022553Y-67250496D01*
X71018050Y-67241658D01*
X70928342Y-67151950D01*
X70815304Y-67094354D01*
X70796792Y-67091422D01*
X70732639Y-67061012D01*
X70695110Y-67000744D01*
X70690500Y-66966973D01*
X70690499Y-66353437D01*
X70690499Y-66348482D01*
X70682556Y-66298327D01*
X70677198Y-66264494D01*
X70677197Y-66264492D01*
X70675646Y-66254696D01*
X70666633Y-66237006D01*
X70646300Y-66197102D01*
X70618050Y-66141658D01*
X70528342Y-66051950D01*
X70415304Y-65994354D01*
X70405515Y-65992804D01*
X70405513Y-65992803D01*
X70378151Y-65988470D01*
X70321519Y-65979500D01*
X70307204Y-65979500D01*
X69732257Y-65979501D01*
X69664137Y-65959499D01*
X69617644Y-65905843D01*
X69607540Y-65835570D01*
X69637033Y-65770989D01*
X69643163Y-65764406D01*
X70816915Y-64590654D01*
X71748133Y-64590654D01*
X71749112Y-64596351D01*
X71749112Y-64596352D01*
X71769530Y-64715176D01*
X71783941Y-64799047D01*
X71857127Y-64997425D01*
X71860079Y-65002386D01*
X71860079Y-65002387D01*
X71920845Y-65104525D01*
X71965238Y-65179144D01*
X72104655Y-65338119D01*
X72270708Y-65469024D01*
X72275819Y-65471713D01*
X72275822Y-65471715D01*
X72332102Y-65501325D01*
X72457836Y-65567477D01*
X72659773Y-65630180D01*
X72665510Y-65630859D01*
X72827768Y-65650064D01*
X72827775Y-65650064D01*
X72831455Y-65650500D01*
X72953641Y-65650500D01*
X73110560Y-65636081D01*
X73116122Y-65634512D01*
X73116124Y-65634512D01*
X73243086Y-65598705D01*
X73314069Y-65578686D01*
X73319247Y-65576133D01*
X73319251Y-65576131D01*
X73494557Y-65489679D01*
X73503710Y-65485165D01*
X73627016Y-65393088D01*
X73668509Y-65362104D01*
X73668510Y-65362103D01*
X73673133Y-65358651D01*
X73765910Y-65258286D01*
X73812743Y-65207622D01*
X73812745Y-65207620D01*
X73816663Y-65203381D01*
X73829215Y-65183488D01*
X73926416Y-65029434D01*
X73926416Y-65029433D01*
X73929495Y-65024554D01*
X74007848Y-64828160D01*
X74008973Y-64822503D01*
X74008975Y-64822497D01*
X74047972Y-64626442D01*
X74047972Y-64626440D01*
X74049099Y-64620775D01*
X74049494Y-64590654D01*
X74051791Y-64415128D01*
X74051867Y-64409346D01*
X74039590Y-64337896D01*
X74017038Y-64206650D01*
X74017038Y-64206649D01*
X74016059Y-64200953D01*
X73942873Y-64002575D01*
X73900420Y-63931217D01*
X73837716Y-63825821D01*
X73837715Y-63825820D01*
X73834762Y-63820856D01*
X73695345Y-63661881D01*
X73529292Y-63530976D01*
X73524181Y-63528287D01*
X73524178Y-63528285D01*
X73410393Y-63468420D01*
X73342164Y-63432523D01*
X73140227Y-63369820D01*
X73125801Y-63368113D01*
X72972232Y-63349936D01*
X72972225Y-63349936D01*
X72968545Y-63349500D01*
X72846359Y-63349500D01*
X72689440Y-63363919D01*
X72683878Y-63365488D01*
X72683876Y-63365488D01*
X72659492Y-63372365D01*
X72485931Y-63421314D01*
X72480753Y-63423867D01*
X72480749Y-63423869D01*
X72306279Y-63509909D01*
X72296290Y-63514835D01*
X72291662Y-63518291D01*
X72146296Y-63626841D01*
X72126867Y-63641349D01*
X72048797Y-63725805D01*
X72004090Y-63774169D01*
X71983337Y-63796619D01*
X71980256Y-63801502D01*
X71968045Y-63820856D01*
X71870505Y-63975446D01*
X71792152Y-64171840D01*
X71791027Y-64177497D01*
X71791025Y-64177503D01*
X71752028Y-64373558D01*
X71750901Y-64379225D01*
X71750825Y-64385000D01*
X71750825Y-64385004D01*
X71750446Y-64413998D01*
X71748133Y-64590654D01*
X70816915Y-64590654D01*
X73565664Y-61841905D01*
X73627976Y-61807879D01*
X73654759Y-61805000D01*
X82045965Y-61805000D01*
X82051242Y-61805111D01*
X82110319Y-61807587D01*
X82150505Y-61798162D01*
X82162171Y-61796000D01*
X82194536Y-61791567D01*
X82194538Y-61791566D01*
X82203046Y-61790401D01*
X82210927Y-61786990D01*
X82210929Y-61786990D01*
X82215747Y-61784905D01*
X82237010Y-61777873D01*
X82242129Y-61776672D01*
X82242131Y-61776671D01*
X82250493Y-61774710D01*
X82286675Y-61754819D01*
X82297305Y-61749612D01*
X82335183Y-61733220D01*
X82341859Y-61727814D01*
X82341861Y-61727813D01*
X82345942Y-61724508D01*
X82364526Y-61712020D01*
X82376663Y-61705347D01*
X82384405Y-61698664D01*
X82407609Y-61675460D01*
X82417410Y-61666634D01*
X82440399Y-61648018D01*
X82447075Y-61642612D01*
X82457206Y-61628356D01*
X82470813Y-61612256D01*
X85501479Y-58581591D01*
X85563791Y-58547565D01*
X85583166Y-58545686D01*
X85583130Y-58545288D01*
X85754960Y-58529651D01*
X85754961Y-58529651D01*
X85761981Y-58529012D01*
X85932782Y-58473515D01*
X85964249Y-58454757D01*
X86080992Y-58385165D01*
X86080994Y-58385164D01*
X86087044Y-58381557D01*
X86217099Y-58257707D01*
X86234194Y-58231978D01*
X86307167Y-58122143D01*
X86316483Y-58108122D01*
X86338322Y-58050630D01*
X86377757Y-57946819D01*
X86377758Y-57946814D01*
X86380257Y-57940236D01*
X86383195Y-57919330D01*
X86404700Y-57766316D01*
X86404700Y-57766311D01*
X86405251Y-57762393D01*
X86405565Y-57739900D01*
X86405165Y-57736335D01*
X86421799Y-57667398D01*
X86441901Y-57641168D01*
X87477564Y-56605505D01*
X87539876Y-56571479D01*
X87566659Y-56568600D01*
X94268500Y-56568600D01*
X94336621Y-56588602D01*
G37*
%TD.AperFunction*%
%TA.AperFunction,Conductor*%
G36*
X100429062Y-51526302D02*
G01*
X100450036Y-51543205D01*
X100601736Y-51694905D01*
X100635762Y-51757217D01*
X100630697Y-51828032D01*
X100588150Y-51884868D01*
X100521630Y-51909679D01*
X100512641Y-51910000D01*
X100418115Y-51910000D01*
X100402876Y-51914475D01*
X100401671Y-51915865D01*
X100400000Y-51923548D01*
X100400000Y-53471885D01*
X100404475Y-53487124D01*
X100405865Y-53488329D01*
X100413548Y-53490000D01*
X100906884Y-53490000D01*
X100922123Y-53485525D01*
X100923328Y-53484135D01*
X100924999Y-53476452D01*
X100924999Y-52322358D01*
X100945001Y-52254237D01*
X100998657Y-52207744D01*
X101068931Y-52197640D01*
X101133511Y-52227134D01*
X101140091Y-52233260D01*
X102685791Y-53778961D01*
X104218207Y-55311377D01*
X104221860Y-55315186D01*
X104261884Y-55358712D01*
X104296953Y-55380456D01*
X104306732Y-55387177D01*
X104339604Y-55412127D01*
X104352474Y-55417222D01*
X104372482Y-55427286D01*
X104384250Y-55434582D01*
X104384252Y-55434583D01*
X104383209Y-55436265D01*
X104428849Y-55475062D01*
X104449501Y-55544183D01*
X104449501Y-55831518D01*
X104464354Y-55925304D01*
X104521950Y-56038342D01*
X104611658Y-56128050D01*
X104620491Y-56132550D01*
X104620490Y-56132550D01*
X104630662Y-56137733D01*
X104682277Y-56186481D01*
X104699343Y-56255396D01*
X104676442Y-56322598D01*
X104620845Y-56366750D01*
X104573459Y-56376000D01*
X101788659Y-56376000D01*
X101720538Y-56355998D01*
X101699564Y-56339095D01*
X101042205Y-55681736D01*
X101038552Y-55677927D01*
X101004334Y-55640715D01*
X100998516Y-55634388D01*
X100990230Y-55629250D01*
X100969693Y-55616517D01*
X100963444Y-55612642D01*
X100953662Y-55605919D01*
X100927640Y-55586167D01*
X100920796Y-55580972D01*
X100912809Y-55577810D01*
X100912806Y-55577808D01*
X100907917Y-55575872D01*
X100887916Y-55565813D01*
X100876150Y-55558518D01*
X100867902Y-55556121D01*
X100860053Y-55552627D01*
X100860644Y-55551300D01*
X100808603Y-55518061D01*
X100778929Y-55453564D01*
X100788834Y-55383262D01*
X100814500Y-55346186D01*
X100845630Y-55315056D01*
X100857141Y-55299213D01*
X100905664Y-55203982D01*
X100911716Y-55185355D01*
X100924225Y-55106373D01*
X100925000Y-55096527D01*
X100925000Y-53908115D01*
X100920525Y-53892876D01*
X100919135Y-53891671D01*
X100911452Y-53890000D01*
X100126000Y-53890000D01*
X100057879Y-53869998D01*
X100011386Y-53816342D01*
X100000000Y-53764000D01*
X100000000Y-51928116D01*
X99995525Y-51912877D01*
X99994135Y-51911672D01*
X99986452Y-51910001D01*
X99848475Y-51910001D01*
X99838626Y-51910776D01*
X99759649Y-51923283D01*
X99741014Y-51929338D01*
X99645792Y-51977856D01*
X99639493Y-51982433D01*
X99572626Y-52006292D01*
X99503474Y-51990213D01*
X99498245Y-51986853D01*
X99493342Y-51981950D01*
X99484506Y-51977448D01*
X99484505Y-51977447D01*
X99439641Y-51954588D01*
X99380304Y-51924354D01*
X99370515Y-51922804D01*
X99370513Y-51922803D01*
X99343151Y-51918470D01*
X99286519Y-51909500D01*
X98930072Y-51909500D01*
X98573482Y-51909501D01*
X98568589Y-51910276D01*
X98568588Y-51910276D01*
X98489494Y-51922802D01*
X98489492Y-51922803D01*
X98479696Y-51924354D01*
X98470859Y-51928857D01*
X98470858Y-51928857D01*
X98375495Y-51977447D01*
X98375494Y-51977448D01*
X98366658Y-51981950D01*
X98364811Y-51983797D01*
X98301765Y-52006292D01*
X98232614Y-51990213D01*
X98220507Y-51982433D01*
X98214208Y-51977856D01*
X98118982Y-51929336D01*
X98100355Y-51923284D01*
X98021373Y-51910775D01*
X98011527Y-51910000D01*
X97878115Y-51910000D01*
X97862876Y-51914475D01*
X97861671Y-51915865D01*
X97860000Y-51923548D01*
X97860000Y-53764000D01*
X97839998Y-53832121D01*
X97786342Y-53878614D01*
X97734000Y-53890000D01*
X96316000Y-53890000D01*
X96247879Y-53869998D01*
X96201386Y-53816342D01*
X96190000Y-53764000D01*
X96190000Y-53471885D01*
X96590000Y-53471885D01*
X96594475Y-53487124D01*
X96595865Y-53488329D01*
X96603548Y-53490000D01*
X97441885Y-53490000D01*
X97457124Y-53485525D01*
X97458329Y-53484135D01*
X97460000Y-53476452D01*
X97460000Y-51928116D01*
X97455525Y-51912877D01*
X97454135Y-51911672D01*
X97446452Y-51910001D01*
X97308475Y-51910001D01*
X97298626Y-51910776D01*
X97219649Y-51923283D01*
X97201014Y-51929338D01*
X97105789Y-51977858D01*
X97099061Y-51982746D01*
X97032193Y-52006604D01*
X96963042Y-51990524D01*
X96950939Y-51982746D01*
X96944211Y-51977858D01*
X96848982Y-51929336D01*
X96830355Y-51923284D01*
X96751373Y-51910775D01*
X96741527Y-51910000D01*
X96608115Y-51910000D01*
X96592876Y-51914475D01*
X96591671Y-51915865D01*
X96590000Y-51923548D01*
X96590000Y-53471885D01*
X96190000Y-53471885D01*
X96190000Y-51928116D01*
X96185525Y-51912877D01*
X96184135Y-51911672D01*
X96176452Y-51910001D01*
X96038475Y-51910001D01*
X96028626Y-51910776D01*
X95949649Y-51923283D01*
X95931014Y-51929338D01*
X95835792Y-51977856D01*
X95829493Y-51982433D01*
X95762626Y-52006292D01*
X95693474Y-51990213D01*
X95688245Y-51986853D01*
X95683342Y-51981950D01*
X95674506Y-51977448D01*
X95674505Y-51977447D01*
X95629641Y-51954588D01*
X95570304Y-51924354D01*
X95560515Y-51922804D01*
X95560513Y-51922803D01*
X95533151Y-51918470D01*
X95476519Y-51909500D01*
X95418159Y-51909500D01*
X95350038Y-51889498D01*
X95303545Y-51835842D01*
X95293441Y-51765568D01*
X95322935Y-51700988D01*
X95329064Y-51694405D01*
X95480264Y-51543205D01*
X95542576Y-51509179D01*
X95569359Y-51506300D01*
X100360941Y-51506300D01*
X100429062Y-51526302D01*
G37*
%TD.AperFunction*%
%TA.AperFunction,Conductor*%
G36*
X93269250Y-50239385D02*
G01*
X93286961Y-50254118D01*
X93816128Y-50783285D01*
X93830072Y-50790900D01*
X93852842Y-50789271D01*
X93922216Y-50804362D01*
X93953376Y-50828374D01*
X93970524Y-50846507D01*
X94123360Y-50950375D01*
X94129694Y-50952908D01*
X94129697Y-50952910D01*
X94276941Y-51011803D01*
X94332762Y-51055672D01*
X94356004Y-51122757D01*
X94339288Y-51191757D01*
X94319244Y-51217887D01*
X93813636Y-51723495D01*
X93751324Y-51757521D01*
X93724541Y-51760400D01*
X91367659Y-51760400D01*
X91299538Y-51740398D01*
X91253045Y-51686742D01*
X91242941Y-51616468D01*
X91272435Y-51551888D01*
X91278564Y-51545305D01*
X91653144Y-51170725D01*
X91703303Y-51139987D01*
X91780298Y-51114970D01*
X91780301Y-51114969D01*
X91786997Y-51112793D01*
X91793815Y-51108729D01*
X91816397Y-51095267D01*
X91833636Y-51084990D01*
X91902391Y-51067289D01*
X91967148Y-51087786D01*
X91984475Y-51099125D01*
X92142289Y-51157815D01*
X92149270Y-51158746D01*
X92149272Y-51158747D01*
X92194812Y-51164823D01*
X92309183Y-51180083D01*
X92316194Y-51179445D01*
X92316198Y-51179445D01*
X92469843Y-51165462D01*
X92476864Y-51164823D01*
X92483566Y-51162645D01*
X92483568Y-51162645D01*
X92630298Y-51114970D01*
X92630301Y-51114969D01*
X92636997Y-51112793D01*
X92678945Y-51087787D01*
X92684117Y-51084704D01*
X92752872Y-51067005D01*
X92817625Y-51087501D01*
X92828806Y-51094817D01*
X92841306Y-51101132D01*
X92985810Y-51154872D01*
X92999392Y-51158259D01*
X93152214Y-51178649D01*
X93166204Y-51178942D01*
X93319751Y-51164969D01*
X93333462Y-51162154D01*
X93480090Y-51114512D01*
X93492837Y-51108729D01*
X93529309Y-51086988D01*
X93538896Y-51076648D01*
X93535390Y-51068233D01*
X93103834Y-50636677D01*
X93069808Y-50574365D01*
X93068155Y-50530046D01*
X93079404Y-50450010D01*
X93079404Y-50450006D01*
X93079955Y-50446088D01*
X93080249Y-50425000D01*
X93074296Y-50371924D01*
X93072651Y-50357257D01*
X93084936Y-50287331D01*
X93133075Y-50235148D01*
X93201785Y-50217274D01*
X93269250Y-50239385D01*
G37*
%TD.AperFunction*%
%TD*%
%TA.AperFunction,NonConductor*%
G36*
X74192602Y-50953204D02*
G01*
X74232267Y-50998981D01*
X74245852Y-51025642D01*
X74335560Y-51115350D01*
X74448598Y-51172946D01*
X74458389Y-51174497D01*
X74458390Y-51174497D01*
X74513515Y-51183228D01*
X74577668Y-51213641D01*
X74609441Y-51257637D01*
X74614594Y-51269545D01*
X74621627Y-51290810D01*
X74622828Y-51295929D01*
X74624790Y-51304293D01*
X74644681Y-51340475D01*
X74649888Y-51351105D01*
X74666280Y-51388983D01*
X74671686Y-51395659D01*
X74671687Y-51395661D01*
X74674992Y-51399742D01*
X74687480Y-51418326D01*
X74694153Y-51430463D01*
X74696187Y-51432820D01*
X74718230Y-51498945D01*
X74700703Y-51567745D01*
X74648763Y-51616147D01*
X74592312Y-51629500D01*
X74194908Y-51629500D01*
X73645229Y-51629501D01*
X73577109Y-51609499D01*
X73530616Y-51555843D01*
X73520512Y-51485569D01*
X73538145Y-51437102D01*
X73555860Y-51408532D01*
X73560238Y-51401943D01*
X73585102Y-51366954D01*
X73590079Y-51359951D01*
X73592989Y-51351867D01*
X73596752Y-51344670D01*
X73600055Y-51337251D01*
X73604582Y-51329950D01*
X73618954Y-51280482D01*
X73621399Y-51272957D01*
X73624061Y-51265563D01*
X73665956Y-51208245D01*
X73722902Y-51183795D01*
X73731664Y-51182407D01*
X73791405Y-51172946D01*
X73812586Y-51162154D01*
X73856090Y-51139987D01*
X73904443Y-51115350D01*
X73994151Y-51025642D01*
X73998652Y-51016809D01*
X74007736Y-50998981D01*
X74056485Y-50947367D01*
X74125400Y-50930302D01*
X74192602Y-50953204D01*
G37*
%TD.AperFunction*%
%TA.AperFunction,NonConductor*%
G36*
X89765847Y-58295502D02*
G01*
X89812340Y-58349158D01*
X89822444Y-58419432D01*
X89816127Y-58444594D01*
X89798762Y-58492305D01*
X89791602Y-58511978D01*
X89769094Y-58690153D01*
X89769781Y-58697160D01*
X89769781Y-58697162D01*
X89770209Y-58701526D01*
X89779189Y-58793106D01*
X89765930Y-58862852D01*
X89717067Y-58914359D01*
X89653790Y-58931400D01*
X88953433Y-58931400D01*
X88885312Y-58911398D01*
X88838819Y-58857742D01*
X88830565Y-58833317D01*
X88829431Y-58828327D01*
X88828646Y-58821328D01*
X88769585Y-58651727D01*
X88759702Y-58635910D01*
X88678149Y-58505399D01*
X88674416Y-58499425D01*
X88665337Y-58490282D01*
X88631531Y-58427851D01*
X88636845Y-58357053D01*
X88679591Y-58300367D01*
X88746198Y-58275790D01*
X88754745Y-58275500D01*
X89697726Y-58275500D01*
X89765847Y-58295502D01*
G37*
%TD.AperFunction*%
%TA.AperFunction,NonConductor*%
G36*
X91852462Y-63418302D02*
G01*
X91873432Y-63435201D01*
X92657137Y-64218907D01*
X92691161Y-64281217D01*
X92686096Y-64352033D01*
X92643549Y-64408868D01*
X92577029Y-64433679D01*
X92568040Y-64434000D01*
X88097759Y-64434000D01*
X88029638Y-64413998D01*
X88008664Y-64397095D01*
X87310742Y-63699173D01*
X87276716Y-63636861D01*
X87273849Y-63608321D01*
X87273910Y-63603964D01*
X87273910Y-63603959D01*
X87273965Y-63600000D01*
X87267049Y-63538345D01*
X87279333Y-63468420D01*
X87327472Y-63416235D01*
X87392264Y-63398300D01*
X91784341Y-63398300D01*
X91852462Y-63418302D01*
G37*
%TD.AperFunction*%
%TA.AperFunction,NonConductor*%
G36*
X104407018Y-64771501D02*
G01*
X104453511Y-64825157D01*
X104462022Y-64891868D01*
X104463793Y-64892023D01*
X104444723Y-65110000D01*
X104463793Y-65327977D01*
X104465216Y-65333286D01*
X104465217Y-65333294D01*
X104467504Y-65341828D01*
X104465814Y-65412804D01*
X104426019Y-65471600D01*
X104360755Y-65499547D01*
X104290741Y-65487773D01*
X104256702Y-65463533D01*
X103759763Y-64966594D01*
X103725737Y-64904282D01*
X103730802Y-64833467D01*
X103773349Y-64776631D01*
X103839869Y-64751820D01*
X103848858Y-64751499D01*
X104338897Y-64751499D01*
X104407018Y-64771501D01*
G37*
%TD.AperFunction*%
%TA.AperFunction,NonConductor*%
G36*
X102523762Y-65221002D02*
G01*
X102544736Y-65237905D01*
X104470481Y-67163650D01*
X104504507Y-67225962D01*
X104503093Y-67285353D01*
X104463793Y-67432023D01*
X104444723Y-67650000D01*
X104463793Y-67867977D01*
X104520425Y-68079330D01*
X104522747Y-68084310D01*
X104522748Y-68084312D01*
X104581138Y-68209528D01*
X104612898Y-68277638D01*
X104738402Y-68456877D01*
X104893123Y-68611598D01*
X104897631Y-68614755D01*
X104897634Y-68614757D01*
X105055970Y-68725625D01*
X105072361Y-68737102D01*
X105077343Y-68739425D01*
X105077348Y-68739428D01*
X105219695Y-68805805D01*
X105272980Y-68852722D01*
X105292441Y-68921000D01*
X105271899Y-68988960D01*
X105219695Y-69034195D01*
X105077343Y-69100575D01*
X105077340Y-69100577D01*
X105072362Y-69102898D01*
X104893123Y-69228402D01*
X104738402Y-69383123D01*
X104612898Y-69562362D01*
X104610577Y-69567340D01*
X104610575Y-69567343D01*
X104554962Y-69686605D01*
X104520425Y-69760670D01*
X104519003Y-69765978D01*
X104519002Y-69765980D01*
X104465217Y-69966710D01*
X104463793Y-69972023D01*
X104463733Y-69972714D01*
X104432861Y-70034995D01*
X104371945Y-70071461D01*
X104340307Y-70075498D01*
X97242237Y-70075498D01*
X97174116Y-70055496D01*
X97153142Y-70038593D01*
X96960860Y-69846311D01*
X96926834Y-69783999D01*
X96931899Y-69713184D01*
X96963063Y-69665970D01*
X96997024Y-69633629D01*
X97064573Y-69569303D01*
X97163957Y-69419718D01*
X97183384Y-69368577D01*
X97225231Y-69258415D01*
X97225232Y-69258410D01*
X97227731Y-69251832D01*
X97230477Y-69232297D01*
X97252174Y-69077910D01*
X97252174Y-69077909D01*
X97252725Y-69073989D01*
X97253039Y-69051496D01*
X97248432Y-69010425D01*
X97243017Y-68962145D01*
X97255301Y-68892219D01*
X97303440Y-68840035D01*
X97368232Y-68822100D01*
X100460765Y-68822100D01*
X100466042Y-68822211D01*
X100525119Y-68824687D01*
X100565305Y-68815262D01*
X100576971Y-68813100D01*
X100609336Y-68808667D01*
X100609338Y-68808666D01*
X100617846Y-68807501D01*
X100625727Y-68804090D01*
X100625729Y-68804090D01*
X100630547Y-68802005D01*
X100651810Y-68794973D01*
X100656929Y-68793772D01*
X100656931Y-68793771D01*
X100665293Y-68791810D01*
X100701475Y-68771919D01*
X100712105Y-68766712D01*
X100749983Y-68750320D01*
X100756659Y-68744914D01*
X100756661Y-68744913D01*
X100760742Y-68741608D01*
X100779326Y-68729120D01*
X100791463Y-68722447D01*
X100799205Y-68715764D01*
X100822409Y-68692560D01*
X100832210Y-68683734D01*
X100855199Y-68665118D01*
X100861875Y-68659712D01*
X100872000Y-68645465D01*
X100885610Y-68629359D01*
X101801480Y-67713490D01*
X101863792Y-67679465D01*
X101883166Y-67677586D01*
X101883130Y-67677188D01*
X102054960Y-67661551D01*
X102054961Y-67661551D01*
X102061981Y-67660912D01*
X102232782Y-67605415D01*
X102252998Y-67593364D01*
X102380992Y-67517065D01*
X102380994Y-67517064D01*
X102387044Y-67513457D01*
X102517099Y-67389607D01*
X102616483Y-67240022D01*
X102647275Y-67158961D01*
X102677757Y-67078719D01*
X102677758Y-67078714D01*
X102680257Y-67072136D01*
X102681237Y-67065164D01*
X102704700Y-66898216D01*
X102704700Y-66898211D01*
X102705251Y-66894293D01*
X102705565Y-66871800D01*
X102685546Y-66693328D01*
X102679427Y-66675755D01*
X102646085Y-66580010D01*
X102626485Y-66523727D01*
X102611483Y-66499718D01*
X102535049Y-66377399D01*
X102531316Y-66371425D01*
X102450035Y-66289575D01*
X102409733Y-66248990D01*
X102409729Y-66248987D01*
X102404770Y-66243993D01*
X102393761Y-66237006D01*
X102325907Y-66193945D01*
X102253136Y-66147763D01*
X102216302Y-66134647D01*
X102090586Y-66089881D01*
X102090581Y-66089880D01*
X102083951Y-66087519D01*
X102076965Y-66086686D01*
X102076961Y-66086685D01*
X101949177Y-66071448D01*
X101905624Y-66066255D01*
X101898621Y-66066991D01*
X101898620Y-66066991D01*
X101734025Y-66084290D01*
X101734021Y-66084291D01*
X101727017Y-66085027D01*
X101720346Y-66087298D01*
X101563677Y-66140632D01*
X101563674Y-66140633D01*
X101557007Y-66142903D01*
X101551009Y-66146593D01*
X101551007Y-66146594D01*
X101480526Y-66189954D01*
X101404045Y-66237006D01*
X101399014Y-66241932D01*
X101399011Y-66241935D01*
X101375975Y-66264494D01*
X101275732Y-66362659D01*
X101271913Y-66368584D01*
X101271912Y-66368586D01*
X101220182Y-66448855D01*
X101178446Y-66513617D01*
X101176037Y-66520237D01*
X101176035Y-66520240D01*
X101161356Y-66560572D01*
X101117022Y-66682378D01*
X101094514Y-66860553D01*
X101095201Y-66867560D01*
X101095201Y-66867562D01*
X101095271Y-66868273D01*
X101095185Y-66868725D01*
X101095103Y-66874607D01*
X101094070Y-66874593D01*
X101082012Y-66938020D01*
X101058967Y-66969664D01*
X100294436Y-67734195D01*
X100232124Y-67768221D01*
X100205341Y-67771100D01*
X97298037Y-67771100D01*
X97229916Y-67751098D01*
X97183423Y-67697442D01*
X97173319Y-67627168D01*
X97176856Y-67613963D01*
X97176004Y-67613744D01*
X97177757Y-67606918D01*
X97180257Y-67600336D01*
X97182653Y-67583289D01*
X97204700Y-67426416D01*
X97204700Y-67426411D01*
X97205251Y-67422493D01*
X97205444Y-67408694D01*
X97205510Y-67403963D01*
X97205510Y-67403958D01*
X97205565Y-67400000D01*
X97185546Y-67221528D01*
X97179427Y-67203955D01*
X97142827Y-67098855D01*
X97126485Y-67051927D01*
X97031316Y-66899625D01*
X97006458Y-66874593D01*
X96962094Y-66829918D01*
X96928287Y-66767487D01*
X96925500Y-66741134D01*
X96925500Y-65867610D01*
X96933712Y-65822867D01*
X96977755Y-65706922D01*
X96980257Y-65700336D01*
X96999307Y-65564785D01*
X97004700Y-65526416D01*
X97004700Y-65526411D01*
X97005251Y-65522493D01*
X97005565Y-65500000D01*
X96987735Y-65341044D01*
X97000019Y-65271120D01*
X97048158Y-65218935D01*
X97112950Y-65201000D01*
X102455641Y-65201000D01*
X102523762Y-65221002D01*
G37*
%TD.AperFunction*%
%TA.AperFunction,NonConductor*%
G36*
X95348017Y-65505002D02*
G01*
X95394510Y-65558658D01*
X95405295Y-65598705D01*
X95412039Y-65667486D01*
X95414262Y-65674168D01*
X95414262Y-65674169D01*
X95463727Y-65822867D01*
X95468726Y-65837896D01*
X95472373Y-65843918D01*
X95554954Y-65980275D01*
X95561759Y-65991512D01*
X95566648Y-65996575D01*
X95566649Y-65996576D01*
X95642148Y-66074757D01*
X95686514Y-66120699D01*
X95724258Y-66145398D01*
X95817493Y-66206409D01*
X95863542Y-66260446D01*
X95874500Y-66311841D01*
X95874500Y-66741173D01*
X95854498Y-66809294D01*
X95836657Y-66831197D01*
X95775732Y-66890859D01*
X95771913Y-66896784D01*
X95771912Y-66896786D01*
X95704916Y-67000744D01*
X95678446Y-67041817D01*
X95676037Y-67048437D01*
X95676035Y-67048440D01*
X95659324Y-67094354D01*
X95617022Y-67210578D01*
X95594514Y-67388753D01*
X95595201Y-67395760D01*
X95595201Y-67395763D01*
X95599294Y-67437502D01*
X95612039Y-67567486D01*
X95614262Y-67574169D01*
X95614263Y-67574173D01*
X95624627Y-67605330D01*
X95627149Y-67676282D01*
X95590911Y-67737334D01*
X95527418Y-67769102D01*
X95505068Y-67771100D01*
X95478815Y-67771100D01*
X95410694Y-67751098D01*
X95389410Y-67733884D01*
X95329738Y-67673795D01*
X95329734Y-67673792D01*
X95324770Y-67668793D01*
X95317160Y-67663963D01*
X95238027Y-67613744D01*
X95173136Y-67572563D01*
X95099732Y-67546425D01*
X95010586Y-67514681D01*
X95010581Y-67514680D01*
X95003951Y-67512319D01*
X94996965Y-67511486D01*
X94996961Y-67511485D01*
X94862188Y-67495415D01*
X94825624Y-67491055D01*
X94818621Y-67491791D01*
X94818620Y-67491791D01*
X94654025Y-67509090D01*
X94654021Y-67509091D01*
X94647017Y-67509827D01*
X94640346Y-67512098D01*
X94483677Y-67565432D01*
X94483674Y-67565433D01*
X94477007Y-67567703D01*
X94471009Y-67571393D01*
X94471007Y-67571394D01*
X94412168Y-67607592D01*
X94324045Y-67661806D01*
X94319014Y-67666732D01*
X94319011Y-67666735D01*
X94271267Y-67713490D01*
X94195732Y-67787459D01*
X94191913Y-67793384D01*
X94191912Y-67793386D01*
X94134400Y-67882627D01*
X94098446Y-67938417D01*
X94037022Y-68107178D01*
X94014514Y-68285353D01*
X94015201Y-68292360D01*
X94015201Y-68292363D01*
X94024549Y-68387702D01*
X94011289Y-68457449D01*
X93962426Y-68508956D01*
X93899150Y-68525997D01*
X93728237Y-68525997D01*
X93722961Y-68525886D01*
X93718593Y-68525703D01*
X93663884Y-68523410D01*
X93623698Y-68532835D01*
X93612033Y-68534997D01*
X93607296Y-68535646D01*
X93579667Y-68539430D01*
X93579665Y-68539431D01*
X93571157Y-68540596D01*
X93563276Y-68544007D01*
X93563274Y-68544007D01*
X93558456Y-68546092D01*
X93537193Y-68553124D01*
X93532074Y-68554325D01*
X93532072Y-68554326D01*
X93523710Y-68556287D01*
X93487528Y-68576178D01*
X93476898Y-68581385D01*
X93439020Y-68597777D01*
X93432344Y-68603183D01*
X93432342Y-68603184D01*
X93428261Y-68606489D01*
X93409677Y-68618977D01*
X93397540Y-68625650D01*
X93389798Y-68632332D01*
X93366589Y-68655541D01*
X93356788Y-68664367D01*
X93333802Y-68682980D01*
X93333800Y-68682982D01*
X93327128Y-68688385D01*
X93322154Y-68695384D01*
X93322153Y-68695385D01*
X93317001Y-68702635D01*
X93303390Y-68718740D01*
X92981122Y-69041008D01*
X92918810Y-69075034D01*
X92893219Y-69077695D01*
X92888274Y-69077105D01*
X92881271Y-69077841D01*
X92881270Y-69077841D01*
X92716675Y-69095140D01*
X92716671Y-69095141D01*
X92709667Y-69095877D01*
X92702996Y-69098148D01*
X92546327Y-69151482D01*
X92546324Y-69151483D01*
X92539657Y-69153753D01*
X92386695Y-69247856D01*
X92381664Y-69252782D01*
X92381661Y-69252785D01*
X92375912Y-69258415D01*
X92258382Y-69373509D01*
X92254563Y-69379434D01*
X92254562Y-69379436D01*
X92164915Y-69518541D01*
X92161096Y-69524467D01*
X92158687Y-69531087D01*
X92158685Y-69531090D01*
X92132482Y-69603082D01*
X92099672Y-69693228D01*
X92077164Y-69871403D01*
X92077851Y-69878410D01*
X92077851Y-69878413D01*
X92085076Y-69952092D01*
X92094689Y-70050136D01*
X92096912Y-70056818D01*
X92096912Y-70056819D01*
X92146020Y-70204444D01*
X92151376Y-70220546D01*
X92155023Y-70226568D01*
X92202392Y-70304783D01*
X92244409Y-70374162D01*
X92249298Y-70379225D01*
X92249299Y-70379226D01*
X92288704Y-70420031D01*
X92369164Y-70503349D01*
X92375053Y-70507203D01*
X92379562Y-70510933D01*
X92419299Y-70569767D01*
X92420920Y-70640745D01*
X92388340Y-70697111D01*
X91996141Y-71089310D01*
X91933829Y-71123336D01*
X91907046Y-71126215D01*
X91035021Y-71126215D01*
X90966900Y-71106213D01*
X90920407Y-71052557D01*
X90910247Y-70982679D01*
X90917944Y-70927915D01*
X90917944Y-70927910D01*
X90918495Y-70923992D01*
X90918809Y-70901499D01*
X90898790Y-70723027D01*
X90893575Y-70708050D01*
X90862041Y-70617497D01*
X90839729Y-70553426D01*
X90813422Y-70511325D01*
X90748293Y-70407098D01*
X90744560Y-70401124D01*
X90662420Y-70318409D01*
X90622977Y-70278689D01*
X90622973Y-70278686D01*
X90618014Y-70273692D01*
X90466380Y-70177462D01*
X90428951Y-70164134D01*
X90303830Y-70119580D01*
X90303825Y-70119579D01*
X90297195Y-70117218D01*
X90290209Y-70116385D01*
X90290205Y-70116384D01*
X90162421Y-70101147D01*
X90118868Y-70095954D01*
X90087034Y-70099300D01*
X90023650Y-70086172D01*
X90022740Y-70088471D01*
X90009862Y-70083372D01*
X89989861Y-70073313D01*
X89978095Y-70066018D01*
X89938464Y-70054504D01*
X89927240Y-70050660D01*
X89896861Y-70038633D01*
X89896858Y-70038632D01*
X89888873Y-70035471D01*
X89880336Y-70034574D01*
X89880329Y-70034572D01*
X89875106Y-70034023D01*
X89853129Y-70029712D01*
X89846167Y-70027689D01*
X89846165Y-70027689D01*
X89839833Y-70025849D01*
X89833018Y-70025349D01*
X89831941Y-70025269D01*
X89831928Y-70025269D01*
X89829633Y-70025100D01*
X89796806Y-70025100D01*
X89783635Y-70024410D01*
X89745683Y-70020421D01*
X89737217Y-70021853D01*
X89728836Y-70022116D01*
X89660121Y-70004262D01*
X89611967Y-69952092D01*
X89599662Y-69882170D01*
X89627113Y-69816695D01*
X89635786Y-69807083D01*
X92131378Y-67311491D01*
X92193690Y-67277465D01*
X92213066Y-67275586D01*
X92213030Y-67275188D01*
X92384860Y-67259551D01*
X92384861Y-67259551D01*
X92391881Y-67258912D01*
X92562682Y-67203415D01*
X92656565Y-67147450D01*
X92710892Y-67115065D01*
X92710894Y-67115064D01*
X92716944Y-67111457D01*
X92846999Y-66987607D01*
X92858921Y-66969664D01*
X92926557Y-66867862D01*
X92946383Y-66838022D01*
X92983173Y-66741173D01*
X93007657Y-66676719D01*
X93007658Y-66676714D01*
X93010157Y-66670136D01*
X93019945Y-66600491D01*
X93034600Y-66496216D01*
X93034600Y-66496211D01*
X93035151Y-66492293D01*
X93035465Y-66469800D01*
X93015446Y-66291328D01*
X93009327Y-66273755D01*
X92981534Y-66193945D01*
X92956385Y-66121727D01*
X92936486Y-66089881D01*
X92864949Y-65975399D01*
X92861216Y-65969425D01*
X92760109Y-65867610D01*
X92739633Y-65846990D01*
X92739629Y-65846987D01*
X92734670Y-65841993D01*
X92728215Y-65837896D01*
X92676760Y-65805242D01*
X92583036Y-65745763D01*
X92537923Y-65729699D01*
X92480459Y-65688005D01*
X92454659Y-65621862D01*
X92468714Y-65552271D01*
X92518162Y-65501325D01*
X92580190Y-65485000D01*
X95279896Y-65485000D01*
X95348017Y-65505002D01*
G37*
%TD.AperFunction*%
%TA.AperFunction,NonConductor*%
G36*
X70604722Y-69607462D02*
G01*
X70629293Y-69614601D01*
X70640520Y-69618445D01*
X70670887Y-69630468D01*
X70670889Y-69630469D01*
X70678872Y-69633629D01*
X70687409Y-69634526D01*
X70687416Y-69634528D01*
X70692639Y-69635077D01*
X70714616Y-69639388D01*
X70721578Y-69641411D01*
X70721580Y-69641411D01*
X70727912Y-69643251D01*
X70734727Y-69643751D01*
X70735804Y-69643831D01*
X70735817Y-69643831D01*
X70738112Y-69644000D01*
X70770938Y-69644000D01*
X70784109Y-69644690D01*
X70822061Y-69648679D01*
X70830527Y-69647247D01*
X70830530Y-69647247D01*
X70839297Y-69645764D01*
X70860309Y-69644000D01*
X82578641Y-69644000D01*
X82646762Y-69664002D01*
X82693255Y-69717658D01*
X82703359Y-69787932D01*
X82673865Y-69852512D01*
X82667736Y-69859095D01*
X80134236Y-72392595D01*
X80071924Y-72426621D01*
X80045141Y-72429500D01*
X79102895Y-72429501D01*
X79008482Y-72429501D01*
X79003589Y-72430276D01*
X79003588Y-72430276D01*
X78924494Y-72442802D01*
X78924492Y-72442803D01*
X78914696Y-72444354D01*
X78801658Y-72501950D01*
X78711950Y-72591658D01*
X78691333Y-72632122D01*
X78686240Y-72642117D01*
X78637492Y-72693732D01*
X78568577Y-72710798D01*
X78501375Y-72687897D01*
X78484878Y-72674009D01*
X76360605Y-70549736D01*
X76356952Y-70545927D01*
X76322734Y-70508715D01*
X76316916Y-70502388D01*
X76281844Y-70480642D01*
X76272062Y-70473919D01*
X76246040Y-70454167D01*
X76239196Y-70448972D01*
X76231209Y-70445810D01*
X76231206Y-70445808D01*
X76226317Y-70443872D01*
X76206316Y-70433813D01*
X76194550Y-70426518D01*
X76154919Y-70415004D01*
X76143695Y-70411160D01*
X76113316Y-70399133D01*
X76113313Y-70399132D01*
X76105328Y-70395971D01*
X76096791Y-70395074D01*
X76096784Y-70395072D01*
X76091561Y-70394523D01*
X76069584Y-70390212D01*
X76062622Y-70388189D01*
X76062620Y-70388189D01*
X76056288Y-70386349D01*
X76049473Y-70385849D01*
X76048396Y-70385769D01*
X76048383Y-70385769D01*
X76046088Y-70385600D01*
X76013261Y-70385600D01*
X76000090Y-70384910D01*
X75962138Y-70380921D01*
X75953672Y-70382353D01*
X75953669Y-70382353D01*
X75944902Y-70383836D01*
X75923890Y-70385600D01*
X73542619Y-70385600D01*
X73529448Y-70384910D01*
X73500040Y-70381819D01*
X73491496Y-70380921D01*
X73430589Y-70391223D01*
X73426719Y-70391815D01*
X73365512Y-70400199D01*
X73357842Y-70403518D01*
X73357773Y-70403538D01*
X73349534Y-70404932D01*
X73341770Y-70408586D01*
X73341765Y-70408587D01*
X73293642Y-70431232D01*
X73290056Y-70432851D01*
X73233375Y-70457380D01*
X73226885Y-70462635D01*
X73226820Y-70462675D01*
X73219259Y-70466234D01*
X73206193Y-70477513D01*
X73172511Y-70506587D01*
X73169472Y-70509128D01*
X73121483Y-70547988D01*
X73116642Y-70554800D01*
X73116591Y-70554856D01*
X73110268Y-70560314D01*
X73076082Y-70611767D01*
X73073873Y-70614980D01*
X73043055Y-70658345D01*
X73043051Y-70658353D01*
X73038079Y-70665349D01*
X73035250Y-70673206D01*
X73035213Y-70673279D01*
X73030592Y-70680235D01*
X73027938Y-70688403D01*
X73020797Y-70710381D01*
X72980723Y-70768987D01*
X72915326Y-70796623D01*
X72845369Y-70784516D01*
X72793063Y-70736509D01*
X72788697Y-70728647D01*
X72785834Y-70723027D01*
X72764731Y-70681611D01*
X72762994Y-70678064D01*
X72760727Y-70673245D01*
X72736707Y-70622201D01*
X72731245Y-70615873D01*
X72731208Y-70615819D01*
X72727413Y-70608370D01*
X72691916Y-70569767D01*
X72685613Y-70562912D01*
X72682982Y-70559959D01*
X72648244Y-70519716D01*
X72648240Y-70519712D01*
X72642628Y-70513211D01*
X72635667Y-70508587D01*
X72635621Y-70508548D01*
X72629958Y-70502388D01*
X72577402Y-70469802D01*
X72574150Y-70467714D01*
X72522706Y-70433535D01*
X72514766Y-70430955D01*
X72514696Y-70430923D01*
X72507592Y-70426518D01*
X72448236Y-70409273D01*
X72444457Y-70408110D01*
X72393946Y-70391698D01*
X72393945Y-70391698D01*
X72385774Y-70389043D01*
X72378771Y-70388750D01*
X72375675Y-70388192D01*
X72369330Y-70386349D01*
X72362153Y-70385822D01*
X72361438Y-70385769D01*
X72361425Y-70385769D01*
X72359130Y-70385600D01*
X72306267Y-70385600D01*
X72300990Y-70385489D01*
X72241923Y-70383013D01*
X72233559Y-70384975D01*
X72232858Y-70385041D01*
X72221002Y-70385600D01*
X70850226Y-70385600D01*
X70844949Y-70385489D01*
X70834261Y-70385041D01*
X70785881Y-70383013D01*
X70768690Y-70387045D01*
X70745708Y-70392435D01*
X70734038Y-70394598D01*
X70693154Y-70400199D01*
X70685274Y-70403609D01*
X70680449Y-70405697D01*
X70659180Y-70412731D01*
X70654071Y-70413929D01*
X70654069Y-70413930D01*
X70645707Y-70415891D01*
X70638177Y-70420031D01*
X70638176Y-70420031D01*
X70613673Y-70433501D01*
X70544342Y-70448790D01*
X70495771Y-70435353D01*
X70424140Y-70398856D01*
X70424139Y-70398856D01*
X70415304Y-70394354D01*
X70396792Y-70391422D01*
X70332639Y-70361012D01*
X70295110Y-70300744D01*
X70290500Y-70266973D01*
X70290499Y-69793027D01*
X70310501Y-69724906D01*
X70364156Y-69678413D01*
X70396789Y-69668578D01*
X70398196Y-69668355D01*
X70405507Y-69667198D01*
X70405510Y-69667197D01*
X70415304Y-69665646D01*
X70427824Y-69659267D01*
X70476376Y-69634528D01*
X70512365Y-69616191D01*
X70582140Y-69603087D01*
X70604722Y-69607462D01*
G37*
%TD.AperFunction*%
%TA.AperFunction,NonConductor*%
G36*
X75777062Y-71456602D02*
G01*
X75798036Y-71473505D01*
X76913936Y-72589405D01*
X76947962Y-72651717D01*
X76942897Y-72722532D01*
X76900350Y-72779368D01*
X76833830Y-72804179D01*
X76824841Y-72804500D01*
X74728905Y-72804500D01*
X74660784Y-72784498D01*
X74614291Y-72730842D01*
X74604187Y-72660568D01*
X74611751Y-72632122D01*
X74611969Y-72631571D01*
X74611970Y-72631566D01*
X74615130Y-72623585D01*
X74616576Y-72609825D01*
X74620890Y-72587837D01*
X74621089Y-72587154D01*
X74624752Y-72574545D01*
X74625501Y-72564345D01*
X74625501Y-72531527D01*
X74626191Y-72518356D01*
X74629283Y-72488940D01*
X74629283Y-72488939D01*
X74630181Y-72480395D01*
X74627266Y-72463161D01*
X74625501Y-72442148D01*
X74625501Y-71562600D01*
X74645503Y-71494479D01*
X74699159Y-71447986D01*
X74751501Y-71436600D01*
X75708941Y-71436600D01*
X75777062Y-71456602D01*
G37*
%TD.AperFunction*%
%TA.AperFunction,NonConductor*%
G36*
X84118062Y-70642702D02*
G01*
X84164555Y-70696358D01*
X84174659Y-70766632D01*
X84145165Y-70831212D01*
X84139036Y-70837795D01*
X81055595Y-73921236D01*
X80993283Y-73955262D01*
X80922468Y-73950197D01*
X80865632Y-73907650D01*
X80840821Y-73841130D01*
X80840500Y-73832141D01*
X80840499Y-73224860D01*
X80860501Y-73156739D01*
X80877404Y-73135765D01*
X83353564Y-70659605D01*
X83415876Y-70625579D01*
X83442659Y-70622700D01*
X84049941Y-70622700D01*
X84118062Y-70642702D01*
G37*
%TD.AperFunction*%
M02*
