M48
; DRILL file {KiCad (6.0.4-0)} date Monday, August 01, 2022 at 01:23:00 PM
; FORMAT={-:-/ absolute / inch / decimal}
; #@! TF.CreationDate,2022-08-01T13:23:00-05:00
; #@! TF.GenerationSoftware,Kicad,Pcbnew,(6.0.4-0)
; #@! TF.FileFunction,MixedPlating,1,2
FMAT,2
INCH
; #@! TA.AperFunction,Plated,PTH,ViaDrill
T1C0.0157
; #@! TA.AperFunction,Plated,PTH,ComponentDrill
T2C0.0315
; #@! TA.AperFunction,Plated,PTH,ComponentDrill
T3C0.0350
; #@! TA.AperFunction,Plated,PTH,ComponentDrill
T4C0.0354
; #@! TA.AperFunction,Plated,PTH,ComponentDrill
T5C0.0394
; #@! TA.AperFunction,Plated,PTH,ComponentDrill
T6C0.0984
; #@! TA.AperFunction,NonPlated,NPTH,ComponentDrill
T7C0.0276
; #@! TA.AperFunction,NonPlated,NPTH,ComponentDrill
T8C0.0591
%
G90
G05
T1
X2.5763Y-2.2866
X2.5882Y-2.3944
X2.6236Y-2.9132
X2.7769Y-2.8507
X2.8071Y-2.7638
X2.8701Y-3.1339
X2.8858Y-2.689
X2.9843Y-1.8701
X3.0079Y-3.3622
X3.012Y-2.1217
X3.1575Y-1.9331
X3.2047Y-2.878
X3.2087Y-2.0512
X3.2598Y-1.9646
X3.2717Y-2.126
X3.3118Y-2.595
X3.315Y-3.5866
X3.3819Y-2.4055
X3.3858Y-3.7165
X3.4112Y-2.7487
X3.4606Y-2.5669
X3.4701Y-2.4944
X3.4731Y-2.2865
X3.4803Y-2.0669
X3.4841Y-3.0354
X3.4843Y-2.6614
X3.4968Y-2.3358
X3.5145Y-2.5228
X3.5285Y-2.8042
X3.5591Y-2.6851
X3.5628Y-2.8234
X3.6045Y-2.5732
X3.6102Y-2.0748
X3.6142Y-2.8543
X3.6378Y-2.4961
X3.6444Y-2.6593
X3.687Y-2.3775
X3.7069Y-2.2338
X3.7244Y-3.3071
X3.7367Y-2.7664
X3.7694Y-2.6311
X3.839Y-2.4718
X3.839Y-2.6916
X3.8484Y-2.0358
X3.8625Y-2.789
X3.8937Y-2.5079
X3.9792Y-2.1809
X3.9921Y-1.8465
X4.0189Y-2.1979
X4.0532Y-2.7973
X4.0758Y-2.6221
T2
X3.4201Y-1.9573
X3.6799Y-1.9573
T3
X2.7951Y-1.7986
X3.0411Y-1.7986
T5
X4.1614Y-2.1634
X4.1614Y-2.2634
X4.1614Y-2.3634
X4.1614Y-2.4634
X4.1614Y-2.5634
X4.1614Y-2.6634
X4.1614Y-2.7634
X4.1614Y-2.8634
X4.1614Y-2.9634
T6
X2.6Y-1.85
X2.6Y-3.65
X4.15Y-1.85
X4.15Y-3.65
T7
X3.4732Y-1.9219
X3.6268Y-1.9219
T8
X2.8701Y-2.5394
X2.8701Y-2.8346
T4
G00X3.4083Y-1.8392
M15
G01X3.4083Y-1.855
M16
G05
G00X3.6917Y-1.8392
M15
G01X3.6917Y-1.855
M16
G05
T0
M30
