M48
; DRILL file {KiCad (6.0.11-0)} date Saturday, August 12, 2023 at 01:13:49 PM
; FORMAT={-:-/ absolute / inch / decimal}
; #@! TF.CreationDate,2023-08-12T13:13:49-05:00
; #@! TF.GenerationSoftware,Kicad,Pcbnew,(6.0.11-0)
; #@! TF.FileFunction,MixedPlating,1,2
FMAT,2
INCH
; #@! TA.AperFunction,Plated,PTH,ViaDrill
T1C0.0079
; #@! TA.AperFunction,Plated,PTH,ComponentDrill
T2C0.0157
; #@! TA.AperFunction,Plated,PTH,ComponentDrill
T3C0.0236
; #@! TA.AperFunction,Plated,PTH,ComponentDrill
T4C0.0350
; #@! TA.AperFunction,Plated,PTH,ComponentDrill
T5C0.0394
; #@! TA.AperFunction,Plated,PTH,ComponentDrill
T6C0.0984
; #@! TA.AperFunction,NonPlated,NPTH,ComponentDrill
T7C0.0591
%
G90
G05
T1
X2.5409Y-2.4883
X2.5816Y-2.2816
X2.6039Y-2.9207
X2.6554Y-2.8425
X2.8186Y-2.7357
X2.874Y-2.2441
X2.9967Y-2.1708
X3.1693Y-2.5079
X3.2087Y-3.5669
X3.2205Y-2.6614
X3.2874Y-2.9016
X3.3552Y-2.7102
X3.4291Y-2.0591
X3.4488Y-2.364
X3.4704Y-2.574
X3.4724Y-2.6687
X3.501Y-2.6634
X3.5079Y-2.7874
X3.5114Y-2.8343
X3.5213Y-2.5912
X3.5387Y-2.8362
X3.5669Y-2.3317
X3.5669Y-2.8504
X3.5679Y-2.249
X3.5984Y-2.5157
X3.6024Y-2.4882
X3.6102Y-2.1535
X3.6217Y-2.4703
X3.6822Y-2.463
X3.7047Y-2.3268
X3.7069Y-2.762
X3.7471Y-2.6366
X3.7598Y-2.4764
X3.7598Y-2.5079
X3.7677Y-2.7441
X3.7704Y-2.0543
X3.7835Y-1.9882
X3.7874Y-2.6142
X3.7999Y-2.6584
X3.8031Y-2.5197
X3.8336Y-2.0428
X3.8386Y-2.7638
X3.8762Y-2.3561
X3.8776Y-2.7608
X3.8783Y-2.7096
X3.8976Y-2.811
X3.9016Y-2.5039
X3.9252Y-2.5433
X3.9331Y-2.9449
X3.937Y-2.8346
X3.9425Y-2.184
X3.9537Y-2.4968
X3.9921Y-2.1142
X4.0039Y-2.5748
X4.0276Y-2.2205
X4.0315Y-2.4016
X4.0472Y-2.626
T2
X3.4341Y-1.9321
X3.4341Y-1.9852
X3.4675Y-1.9321
X3.4675Y-1.9852
X3.501Y-1.9321
X3.501Y-1.9852
X3.5344Y-1.9321
X3.5344Y-1.9852
X3.5679Y-1.9321
X3.5679Y-1.9852
X3.6014Y-1.9321
X3.6014Y-1.9852
X3.6348Y-1.9321
X3.6348Y-1.9852
X3.6683Y-1.9321
X3.6683Y-1.9852
T4
X2.7951Y-1.7986
X3.0411Y-1.7986
T5
X4.1732Y-2.1594
X4.1732Y-2.2594
X4.1732Y-2.3594
X4.1732Y-2.4594
X4.1732Y-2.5594
X4.1732Y-2.6594
X4.1732Y-2.7594
X4.1732Y-2.8594
X4.1732Y-2.9594
T6
X2.6Y-1.85
X2.6Y-3.65
X4.15Y-1.85
T7
X2.8701Y-2.5394
X2.8701Y-2.8346
T3
G00X3.3809Y-1.8293
M15
G01X3.3809Y-1.7978
M16
G05
G00X3.3809Y-1.9762
M15
G01X3.3809Y-1.9171
M16
G05
G00X3.7215Y-1.8293
M15
G01X3.7215Y-1.7978
M16
G05
G00X3.7215Y-1.9762
M15
G01X3.7215Y-1.9171
M16
G05
T0
M30
