%TF.GenerationSoftware,KiCad,Pcbnew,(6.0.4-0)*%
%TF.CreationDate,2022-08-01T13:23:04-05:00*%
%TF.ProjectId,dropkick,64726f70-6b69-4636-9b2e-6b696361645f,V3-SAM*%
%TF.SameCoordinates,Original*%
%TF.FileFunction,Legend,Top*%
%TF.FilePolarity,Positive*%
%FSLAX46Y46*%
G04 Gerber Fmt 4.6, Leading zero omitted, Abs format (unit mm)*
G04 Created by KiCad (PCBNEW (6.0.4-0)) date 2022-08-01 13:23:04*
%MOMM*%
%LPD*%
G01*
G04 APERTURE LIST*
%ADD10C,0.150000*%
%ADD11C,0.146304*%
%ADD12C,0.100000*%
%ADD13C,0.200000*%
%ADD14C,0.120000*%
%ADD15C,0.203200*%
%ADD16C,0.010000*%
%ADD17C,0.127000*%
%ADD18C,0.304800*%
G04 APERTURE END LIST*
D10*
X99859642Y-85242380D02*
X99859642Y-84242380D01*
X100097738Y-84242380D01*
X100240595Y-84290000D01*
X100335833Y-84385238D01*
X100383452Y-84480476D01*
X100431071Y-84670952D01*
X100431071Y-84813809D01*
X100383452Y-85004285D01*
X100335833Y-85099523D01*
X100240595Y-85194761D01*
X100097738Y-85242380D01*
X99859642Y-85242380D01*
X100859642Y-85242380D02*
X100859642Y-84575714D01*
X100859642Y-84766190D02*
X100907261Y-84670952D01*
X100954880Y-84623333D01*
X101050119Y-84575714D01*
X101145357Y-84575714D01*
X101621547Y-85242380D02*
X101526309Y-85194761D01*
X101478690Y-85147142D01*
X101431071Y-85051904D01*
X101431071Y-84766190D01*
X101478690Y-84670952D01*
X101526309Y-84623333D01*
X101621547Y-84575714D01*
X101764404Y-84575714D01*
X101859642Y-84623333D01*
X101907261Y-84670952D01*
X101954880Y-84766190D01*
X101954880Y-85051904D01*
X101907261Y-85147142D01*
X101859642Y-85194761D01*
X101764404Y-85242380D01*
X101621547Y-85242380D01*
X102383452Y-84575714D02*
X102383452Y-85575714D01*
X102383452Y-84623333D02*
X102478690Y-84575714D01*
X102669166Y-84575714D01*
X102764404Y-84623333D01*
X102812023Y-84670952D01*
X102859642Y-84766190D01*
X102859642Y-85051904D01*
X102812023Y-85147142D01*
X102764404Y-85194761D01*
X102669166Y-85242380D01*
X102478690Y-85242380D01*
X102383452Y-85194761D01*
X103288214Y-85242380D02*
X103288214Y-84242380D01*
X103383452Y-84861428D02*
X103669166Y-85242380D01*
X103669166Y-84575714D02*
X103288214Y-84956666D01*
X104097738Y-85242380D02*
X104097738Y-84575714D01*
X104097738Y-84242380D02*
X104050119Y-84290000D01*
X104097738Y-84337619D01*
X104145357Y-84290000D01*
X104097738Y-84242380D01*
X104097738Y-84337619D01*
X105002500Y-85194761D02*
X104907261Y-85242380D01*
X104716785Y-85242380D01*
X104621547Y-85194761D01*
X104573928Y-85147142D01*
X104526309Y-85051904D01*
X104526309Y-84766190D01*
X104573928Y-84670952D01*
X104621547Y-84623333D01*
X104716785Y-84575714D01*
X104907261Y-84575714D01*
X105002500Y-84623333D01*
X105431071Y-85242380D02*
X105431071Y-84242380D01*
X105526309Y-84861428D02*
X105812023Y-85242380D01*
X105812023Y-84575714D02*
X105431071Y-84956666D01*
X100097738Y-85852380D02*
X100431071Y-86852380D01*
X100764404Y-85852380D01*
X101050119Y-85947619D02*
X101097738Y-85900000D01*
X101192976Y-85852380D01*
X101431071Y-85852380D01*
X101526309Y-85900000D01*
X101573928Y-85947619D01*
X101621547Y-86042857D01*
X101621547Y-86138095D01*
X101573928Y-86280952D01*
X101002500Y-86852380D01*
X101621547Y-86852380D01*
X102050119Y-86471428D02*
X102812023Y-86471428D01*
X103240595Y-86804761D02*
X103383452Y-86852380D01*
X103621547Y-86852380D01*
X103716785Y-86804761D01*
X103764404Y-86757142D01*
X103812023Y-86661904D01*
X103812023Y-86566666D01*
X103764404Y-86471428D01*
X103716785Y-86423809D01*
X103621547Y-86376190D01*
X103431071Y-86328571D01*
X103335833Y-86280952D01*
X103288214Y-86233333D01*
X103240595Y-86138095D01*
X103240595Y-86042857D01*
X103288214Y-85947619D01*
X103335833Y-85900000D01*
X103431071Y-85852380D01*
X103669166Y-85852380D01*
X103812023Y-85900000D01*
X104192976Y-86566666D02*
X104669166Y-86566666D01*
X104097738Y-86852380D02*
X104431071Y-85852380D01*
X104764404Y-86852380D01*
X105097738Y-86852380D02*
X105097738Y-85852380D01*
X105431071Y-86566666D01*
X105764404Y-85852380D01*
X105764404Y-86852380D01*
X97526309Y-88462380D02*
X97192976Y-87986190D01*
X96954880Y-88462380D02*
X96954880Y-87462380D01*
X97335833Y-87462380D01*
X97431071Y-87510000D01*
X97478690Y-87557619D01*
X97526309Y-87652857D01*
X97526309Y-87795714D01*
X97478690Y-87890952D01*
X97431071Y-87938571D01*
X97335833Y-87986190D01*
X96954880Y-87986190D01*
X97954880Y-88462380D02*
X97954880Y-87795714D01*
X97954880Y-87462380D02*
X97907261Y-87510000D01*
X97954880Y-87557619D01*
X98002500Y-87510000D01*
X97954880Y-87462380D01*
X97954880Y-87557619D01*
X98573928Y-88462380D02*
X98478690Y-88414761D01*
X98431071Y-88319523D01*
X98431071Y-87462380D01*
X99335833Y-88414761D02*
X99240595Y-88462380D01*
X99050119Y-88462380D01*
X98954880Y-88414761D01*
X98907261Y-88319523D01*
X98907261Y-87938571D01*
X98954880Y-87843333D01*
X99050119Y-87795714D01*
X99240595Y-87795714D01*
X99335833Y-87843333D01*
X99383452Y-87938571D01*
X99383452Y-88033809D01*
X98907261Y-88129047D01*
X99716785Y-87795714D02*
X99954880Y-88462380D01*
X100192976Y-87795714D02*
X99954880Y-88462380D01*
X99859642Y-88700476D01*
X99812023Y-88748095D01*
X99716785Y-88795714D01*
X101907261Y-88462380D02*
X101573928Y-87986190D01*
X101335833Y-88462380D02*
X101335833Y-87462380D01*
X101716785Y-87462380D01*
X101812023Y-87510000D01*
X101859642Y-87557619D01*
X101907261Y-87652857D01*
X101907261Y-87795714D01*
X101859642Y-87890952D01*
X101812023Y-87938571D01*
X101716785Y-87986190D01*
X101335833Y-87986190D01*
X102764404Y-88462380D02*
X102764404Y-87938571D01*
X102716785Y-87843333D01*
X102621547Y-87795714D01*
X102431071Y-87795714D01*
X102335833Y-87843333D01*
X102764404Y-88414761D02*
X102669166Y-88462380D01*
X102431071Y-88462380D01*
X102335833Y-88414761D01*
X102288214Y-88319523D01*
X102288214Y-88224285D01*
X102335833Y-88129047D01*
X102431071Y-88081428D01*
X102669166Y-88081428D01*
X102764404Y-88033809D01*
X103240595Y-88462380D02*
X103240595Y-87795714D01*
X103240595Y-87462380D02*
X103192976Y-87510000D01*
X103240595Y-87557619D01*
X103288214Y-87510000D01*
X103240595Y-87462380D01*
X103240595Y-87557619D01*
X103716785Y-87795714D02*
X103716785Y-88462380D01*
X103716785Y-87890952D02*
X103764404Y-87843333D01*
X103859642Y-87795714D01*
X104002500Y-87795714D01*
X104097738Y-87843333D01*
X104145357Y-87938571D01*
X104145357Y-88462380D01*
X105002500Y-88414761D02*
X104907261Y-88462380D01*
X104716785Y-88462380D01*
X104621547Y-88414761D01*
X104573928Y-88319523D01*
X104573928Y-87938571D01*
X104621547Y-87843333D01*
X104716785Y-87795714D01*
X104907261Y-87795714D01*
X105002500Y-87843333D01*
X105050119Y-87938571D01*
X105050119Y-88033809D01*
X104573928Y-88129047D01*
X105383452Y-87795714D02*
X105621547Y-88462380D01*
X105859642Y-87795714D02*
X105621547Y-88462380D01*
X105526309Y-88700476D01*
X105478690Y-88748095D01*
X105383452Y-88795714D01*
D11*
%TO.C,C11*%
X101908434Y-74204786D02*
X101876696Y-74236524D01*
X101781482Y-74268262D01*
X101718007Y-74268262D01*
X101622793Y-74236524D01*
X101559317Y-74173048D01*
X101527579Y-74109572D01*
X101495841Y-73982620D01*
X101495841Y-73887407D01*
X101527579Y-73760455D01*
X101559317Y-73696979D01*
X101622793Y-73633504D01*
X101718007Y-73601766D01*
X101781482Y-73601766D01*
X101876696Y-73633504D01*
X101908434Y-73665241D01*
X102543192Y-74268262D02*
X102162337Y-74268262D01*
X102352765Y-74268262D02*
X102352765Y-73601766D01*
X102289289Y-73696979D01*
X102225813Y-73760455D01*
X102162337Y-73792193D01*
X103177950Y-74268262D02*
X102797095Y-74268262D01*
X102987523Y-74268262D02*
X102987523Y-73601766D01*
X102924047Y-73696979D01*
X102860571Y-73760455D01*
X102797095Y-73792193D01*
%TO.C,CHG1*%
X83014641Y-48594786D02*
X82982904Y-48626524D01*
X82887690Y-48658262D01*
X82824214Y-48658262D01*
X82729000Y-48626524D01*
X82665525Y-48563048D01*
X82633787Y-48499572D01*
X82602049Y-48372620D01*
X82602049Y-48277407D01*
X82633787Y-48150455D01*
X82665525Y-48086979D01*
X82729000Y-48023504D01*
X82824214Y-47991766D01*
X82887690Y-47991766D01*
X82982904Y-48023504D01*
X83014641Y-48055241D01*
X83300283Y-48658262D02*
X83300283Y-47991766D01*
X83300283Y-48309145D02*
X83681137Y-48309145D01*
X83681137Y-48658262D02*
X83681137Y-47991766D01*
X84347633Y-48023504D02*
X84284158Y-47991766D01*
X84188944Y-47991766D01*
X84093730Y-48023504D01*
X84030254Y-48086979D01*
X83998517Y-48150455D01*
X83966779Y-48277407D01*
X83966779Y-48372620D01*
X83998517Y-48499572D01*
X84030254Y-48563048D01*
X84093730Y-48626524D01*
X84188944Y-48658262D01*
X84252420Y-48658262D01*
X84347633Y-48626524D01*
X84379371Y-48594786D01*
X84379371Y-48372620D01*
X84252420Y-48372620D01*
X85014129Y-48658262D02*
X84633275Y-48658262D01*
X84823702Y-48658262D02*
X84823702Y-47991766D01*
X84760226Y-48086979D01*
X84696750Y-48150455D01*
X84633275Y-48182193D01*
%TO.C,R2*%
X96868262Y-50865358D02*
X96550883Y-51087523D01*
X96868262Y-51246212D02*
X96201766Y-51246212D01*
X96201766Y-50992309D01*
X96233504Y-50928833D01*
X96265241Y-50897095D01*
X96328717Y-50865358D01*
X96423931Y-50865358D01*
X96487407Y-50897095D01*
X96519145Y-50928833D01*
X96550883Y-50992309D01*
X96550883Y-51246212D01*
X96265241Y-50611454D02*
X96233504Y-50579716D01*
X96201766Y-50516241D01*
X96201766Y-50357551D01*
X96233504Y-50294075D01*
X96265241Y-50262337D01*
X96328717Y-50230599D01*
X96392193Y-50230599D01*
X96487407Y-50262337D01*
X96868262Y-50643192D01*
X96868262Y-50230599D01*
D10*
%TO.C,SW2*%
X104054761Y-52003333D02*
X104102380Y-51860476D01*
X104102380Y-51622380D01*
X104054761Y-51527142D01*
X104007142Y-51479523D01*
X103911904Y-51431904D01*
X103816666Y-51431904D01*
X103721428Y-51479523D01*
X103673809Y-51527142D01*
X103626190Y-51622380D01*
X103578571Y-51812857D01*
X103530952Y-51908095D01*
X103483333Y-51955714D01*
X103388095Y-52003333D01*
X103292857Y-52003333D01*
X103197619Y-51955714D01*
X103150000Y-51908095D01*
X103102380Y-51812857D01*
X103102380Y-51574761D01*
X103150000Y-51431904D01*
X103102380Y-51098571D02*
X104102380Y-50860476D01*
X103388095Y-50670000D01*
X104102380Y-50479523D01*
X103102380Y-50241428D01*
X103197619Y-49908095D02*
X103150000Y-49860476D01*
X103102380Y-49765238D01*
X103102380Y-49527142D01*
X103150000Y-49431904D01*
X103197619Y-49384285D01*
X103292857Y-49336666D01*
X103388095Y-49336666D01*
X103530952Y-49384285D01*
X104102380Y-49955714D01*
X104102380Y-49336666D01*
X100654380Y-50748000D02*
X100892476Y-50748000D01*
X100797238Y-50986095D02*
X100892476Y-50748000D01*
X100797238Y-50509904D01*
X101082952Y-50890857D02*
X100892476Y-50748000D01*
X101082952Y-50605142D01*
X102553380Y-48640500D02*
X102791476Y-48640500D01*
X102696238Y-48878595D02*
X102791476Y-48640500D01*
X102696238Y-48402404D01*
X102981952Y-48783357D02*
X102791476Y-48640500D01*
X102981952Y-48497642D01*
%TO.C,C2*%
X86857142Y-57556666D02*
X86904761Y-57604285D01*
X86952380Y-57747142D01*
X86952380Y-57842380D01*
X86904761Y-57985238D01*
X86809523Y-58080476D01*
X86714285Y-58128095D01*
X86523809Y-58175714D01*
X86380952Y-58175714D01*
X86190476Y-58128095D01*
X86095238Y-58080476D01*
X86000000Y-57985238D01*
X85952380Y-57842380D01*
X85952380Y-57747142D01*
X86000000Y-57604285D01*
X86047619Y-57556666D01*
X86047619Y-57175714D02*
X86000000Y-57128095D01*
X85952380Y-57032857D01*
X85952380Y-56794761D01*
X86000000Y-56699523D01*
X86047619Y-56651904D01*
X86142857Y-56604285D01*
X86238095Y-56604285D01*
X86380952Y-56651904D01*
X86952380Y-57223333D01*
X86952380Y-56604285D01*
%TO.C,C6*%
X78353333Y-60977142D02*
X78305714Y-61024761D01*
X78162857Y-61072380D01*
X78067619Y-61072380D01*
X77924761Y-61024761D01*
X77829523Y-60929523D01*
X77781904Y-60834285D01*
X77734285Y-60643809D01*
X77734285Y-60500952D01*
X77781904Y-60310476D01*
X77829523Y-60215238D01*
X77924761Y-60120000D01*
X78067619Y-60072380D01*
X78162857Y-60072380D01*
X78305714Y-60120000D01*
X78353333Y-60167619D01*
X79210476Y-60072380D02*
X79020000Y-60072380D01*
X78924761Y-60120000D01*
X78877142Y-60167619D01*
X78781904Y-60310476D01*
X78734285Y-60500952D01*
X78734285Y-60881904D01*
X78781904Y-60977142D01*
X78829523Y-61024761D01*
X78924761Y-61072380D01*
X79115238Y-61072380D01*
X79210476Y-61024761D01*
X79258095Y-60977142D01*
X79305714Y-60881904D01*
X79305714Y-60643809D01*
X79258095Y-60548571D01*
X79210476Y-60500952D01*
X79115238Y-60453333D01*
X78924761Y-60453333D01*
X78829523Y-60500952D01*
X78781904Y-60548571D01*
X78734285Y-60643809D01*
%TO.C,U4*%
X85078095Y-60172380D02*
X85078095Y-60981904D01*
X85125714Y-61077142D01*
X85173333Y-61124761D01*
X85268571Y-61172380D01*
X85459047Y-61172380D01*
X85554285Y-61124761D01*
X85601904Y-61077142D01*
X85649523Y-60981904D01*
X85649523Y-60172380D01*
X86554285Y-60505714D02*
X86554285Y-61172380D01*
X86316190Y-60124761D02*
X86078095Y-60839047D01*
X86697142Y-60839047D01*
%TO.C,C9*%
X88997142Y-58956666D02*
X89044761Y-59004285D01*
X89092380Y-59147142D01*
X89092380Y-59242380D01*
X89044761Y-59385238D01*
X88949523Y-59480476D01*
X88854285Y-59528095D01*
X88663809Y-59575714D01*
X88520952Y-59575714D01*
X88330476Y-59528095D01*
X88235238Y-59480476D01*
X88140000Y-59385238D01*
X88092380Y-59242380D01*
X88092380Y-59147142D01*
X88140000Y-59004285D01*
X88187619Y-58956666D01*
X89092380Y-58480476D02*
X89092380Y-58290000D01*
X89044761Y-58194761D01*
X88997142Y-58147142D01*
X88854285Y-58051904D01*
X88663809Y-58004285D01*
X88282857Y-58004285D01*
X88187619Y-58051904D01*
X88140000Y-58099523D01*
X88092380Y-58194761D01*
X88092380Y-58385238D01*
X88140000Y-58480476D01*
X88187619Y-58528095D01*
X88282857Y-58575714D01*
X88520952Y-58575714D01*
X88616190Y-58528095D01*
X88663809Y-58480476D01*
X88711428Y-58385238D01*
X88711428Y-58194761D01*
X88663809Y-58099523D01*
X88616190Y-58051904D01*
X88520952Y-58004285D01*
%TO.C,C7*%
X80733333Y-64057142D02*
X80685714Y-64104761D01*
X80542857Y-64152380D01*
X80447619Y-64152380D01*
X80304761Y-64104761D01*
X80209523Y-64009523D01*
X80161904Y-63914285D01*
X80114285Y-63723809D01*
X80114285Y-63580952D01*
X80161904Y-63390476D01*
X80209523Y-63295238D01*
X80304761Y-63200000D01*
X80447619Y-63152380D01*
X80542857Y-63152380D01*
X80685714Y-63200000D01*
X80733333Y-63247619D01*
X81066666Y-63152380D02*
X81733333Y-63152380D01*
X81304761Y-64152380D01*
D11*
%TO.C,L2*%
X96671166Y-49168262D02*
X96353787Y-49168262D01*
X96353787Y-48501766D01*
X96861593Y-48565241D02*
X96893331Y-48533504D01*
X96956807Y-48501766D01*
X97115496Y-48501766D01*
X97178972Y-48533504D01*
X97210710Y-48565241D01*
X97242448Y-48628717D01*
X97242448Y-48692193D01*
X97210710Y-48787407D01*
X96829855Y-49168262D01*
X97242448Y-49168262D01*
D10*
%TO.C,R7*%
X77333333Y-49452380D02*
X77000000Y-48976190D01*
X76761904Y-49452380D02*
X76761904Y-48452380D01*
X77142857Y-48452380D01*
X77238095Y-48500000D01*
X77285714Y-48547619D01*
X77333333Y-48642857D01*
X77333333Y-48785714D01*
X77285714Y-48880952D01*
X77238095Y-48928571D01*
X77142857Y-48976190D01*
X76761904Y-48976190D01*
X77666666Y-48452380D02*
X78333333Y-48452380D01*
X77904761Y-49452380D01*
%TO.C,C4*%
X96463333Y-58037142D02*
X96415714Y-58084761D01*
X96272857Y-58132380D01*
X96177619Y-58132380D01*
X96034761Y-58084761D01*
X95939523Y-57989523D01*
X95891904Y-57894285D01*
X95844285Y-57703809D01*
X95844285Y-57560952D01*
X95891904Y-57370476D01*
X95939523Y-57275238D01*
X96034761Y-57180000D01*
X96177619Y-57132380D01*
X96272857Y-57132380D01*
X96415714Y-57180000D01*
X96463333Y-57227619D01*
X97320476Y-57465714D02*
X97320476Y-58132380D01*
X97082380Y-57084761D02*
X96844285Y-57799047D01*
X97463333Y-57799047D01*
%TO.C,J1*%
X105366666Y-52072380D02*
X105366666Y-52786666D01*
X105319047Y-52929523D01*
X105223809Y-53024761D01*
X105080952Y-53072380D01*
X104985714Y-53072380D01*
X106366666Y-53072380D02*
X105795238Y-53072380D01*
X106080952Y-53072380D02*
X106080952Y-52072380D01*
X105985714Y-52215238D01*
X105890476Y-52310476D01*
X105795238Y-52358095D01*
%TO.C,R8*%
X69743333Y-48012380D02*
X69410000Y-47536190D01*
X69171904Y-48012380D02*
X69171904Y-47012380D01*
X69552857Y-47012380D01*
X69648095Y-47060000D01*
X69695714Y-47107619D01*
X69743333Y-47202857D01*
X69743333Y-47345714D01*
X69695714Y-47440952D01*
X69648095Y-47488571D01*
X69552857Y-47536190D01*
X69171904Y-47536190D01*
X70314761Y-47440952D02*
X70219523Y-47393333D01*
X70171904Y-47345714D01*
X70124285Y-47250476D01*
X70124285Y-47202857D01*
X70171904Y-47107619D01*
X70219523Y-47060000D01*
X70314761Y-47012380D01*
X70505238Y-47012380D01*
X70600476Y-47060000D01*
X70648095Y-47107619D01*
X70695714Y-47202857D01*
X70695714Y-47250476D01*
X70648095Y-47345714D01*
X70600476Y-47393333D01*
X70505238Y-47440952D01*
X70314761Y-47440952D01*
X70219523Y-47488571D01*
X70171904Y-47536190D01*
X70124285Y-47631428D01*
X70124285Y-47821904D01*
X70171904Y-47917142D01*
X70219523Y-47964761D01*
X70314761Y-48012380D01*
X70505238Y-48012380D01*
X70600476Y-47964761D01*
X70648095Y-47917142D01*
X70695714Y-47821904D01*
X70695714Y-47631428D01*
X70648095Y-47536190D01*
X70600476Y-47488571D01*
X70505238Y-47440952D01*
D11*
%TO.C,R1*%
X82808262Y-71655358D02*
X82490883Y-71877523D01*
X82808262Y-72036212D02*
X82141766Y-72036212D01*
X82141766Y-71782309D01*
X82173504Y-71718833D01*
X82205241Y-71687095D01*
X82268717Y-71655358D01*
X82363931Y-71655358D01*
X82427407Y-71687095D01*
X82459145Y-71718833D01*
X82490883Y-71782309D01*
X82490883Y-72036212D01*
X82808262Y-71020599D02*
X82808262Y-71401454D01*
X82808262Y-71211027D02*
X82141766Y-71211027D01*
X82236979Y-71274503D01*
X82300455Y-71337978D01*
X82332193Y-71401454D01*
%TO.C,U6*%
X97401766Y-71369400D02*
X97941310Y-71369400D01*
X98004786Y-71337662D01*
X98036524Y-71305924D01*
X98068262Y-71242448D01*
X98068262Y-71115496D01*
X98036524Y-71052021D01*
X98004786Y-71020283D01*
X97941310Y-70988545D01*
X97401766Y-70988545D01*
X97401766Y-70385525D02*
X97401766Y-70512476D01*
X97433504Y-70575952D01*
X97465241Y-70607690D01*
X97560455Y-70671166D01*
X97687407Y-70702904D01*
X97941310Y-70702904D01*
X98004786Y-70671166D01*
X98036524Y-70639428D01*
X98068262Y-70575952D01*
X98068262Y-70449000D01*
X98036524Y-70385525D01*
X98004786Y-70353787D01*
X97941310Y-70322049D01*
X97782620Y-70322049D01*
X97719145Y-70353787D01*
X97687407Y-70385525D01*
X97655669Y-70449000D01*
X97655669Y-70575952D01*
X97687407Y-70639428D01*
X97719145Y-70671166D01*
X97782620Y-70702904D01*
D10*
%TO.C,C3*%
X81933333Y-54657142D02*
X81885714Y-54704761D01*
X81742857Y-54752380D01*
X81647619Y-54752380D01*
X81504761Y-54704761D01*
X81409523Y-54609523D01*
X81361904Y-54514285D01*
X81314285Y-54323809D01*
X81314285Y-54180952D01*
X81361904Y-53990476D01*
X81409523Y-53895238D01*
X81504761Y-53800000D01*
X81647619Y-53752380D01*
X81742857Y-53752380D01*
X81885714Y-53800000D01*
X81933333Y-53847619D01*
X82266666Y-53752380D02*
X82885714Y-53752380D01*
X82552380Y-54133333D01*
X82695238Y-54133333D01*
X82790476Y-54180952D01*
X82838095Y-54228571D01*
X82885714Y-54323809D01*
X82885714Y-54561904D01*
X82838095Y-54657142D01*
X82790476Y-54704761D01*
X82695238Y-54752380D01*
X82409523Y-54752380D01*
X82314285Y-54704761D01*
X82266666Y-54657142D01*
D11*
%TO.C,C12*%
X101424641Y-65794786D02*
X101392904Y-65826524D01*
X101297690Y-65858262D01*
X101234214Y-65858262D01*
X101139000Y-65826524D01*
X101075525Y-65763048D01*
X101043787Y-65699572D01*
X101012049Y-65572620D01*
X101012049Y-65477407D01*
X101043787Y-65350455D01*
X101075525Y-65286979D01*
X101139000Y-65223504D01*
X101234214Y-65191766D01*
X101297690Y-65191766D01*
X101392904Y-65223504D01*
X101424641Y-65255241D01*
X102059400Y-65858262D02*
X101678545Y-65858262D01*
X101868972Y-65858262D02*
X101868972Y-65191766D01*
X101805496Y-65286979D01*
X101742021Y-65350455D01*
X101678545Y-65382193D01*
X102313303Y-65255241D02*
X102345041Y-65223504D01*
X102408517Y-65191766D01*
X102567206Y-65191766D01*
X102630682Y-65223504D01*
X102662420Y-65255241D01*
X102694158Y-65318717D01*
X102694158Y-65382193D01*
X102662420Y-65477407D01*
X102281565Y-65858262D01*
X102694158Y-65858262D01*
D10*
%TO.C,C8*%
X70733333Y-54657142D02*
X70685714Y-54704761D01*
X70542857Y-54752380D01*
X70447619Y-54752380D01*
X70304761Y-54704761D01*
X70209523Y-54609523D01*
X70161904Y-54514285D01*
X70114285Y-54323809D01*
X70114285Y-54180952D01*
X70161904Y-53990476D01*
X70209523Y-53895238D01*
X70304761Y-53800000D01*
X70447619Y-53752380D01*
X70542857Y-53752380D01*
X70685714Y-53800000D01*
X70733333Y-53847619D01*
X71304761Y-54180952D02*
X71209523Y-54133333D01*
X71161904Y-54085714D01*
X71114285Y-53990476D01*
X71114285Y-53942857D01*
X71161904Y-53847619D01*
X71209523Y-53800000D01*
X71304761Y-53752380D01*
X71495238Y-53752380D01*
X71590476Y-53800000D01*
X71638095Y-53847619D01*
X71685714Y-53942857D01*
X71685714Y-53990476D01*
X71638095Y-54085714D01*
X71590476Y-54133333D01*
X71495238Y-54180952D01*
X71304761Y-54180952D01*
X71209523Y-54228571D01*
X71161904Y-54276190D01*
X71114285Y-54371428D01*
X71114285Y-54561904D01*
X71161904Y-54657142D01*
X71209523Y-54704761D01*
X71304761Y-54752380D01*
X71495238Y-54752380D01*
X71590476Y-54704761D01*
X71638095Y-54657142D01*
X71685714Y-54561904D01*
X71685714Y-54371428D01*
X71638095Y-54276190D01*
X71590476Y-54228571D01*
X71495238Y-54180952D01*
D11*
%TO.C,D2*%
X74653787Y-47168262D02*
X74653787Y-46501766D01*
X74812476Y-46501766D01*
X74907690Y-46533504D01*
X74971166Y-46596979D01*
X75002904Y-46660455D01*
X75034641Y-46787407D01*
X75034641Y-46882620D01*
X75002904Y-47009572D01*
X74971166Y-47073048D01*
X74907690Y-47136524D01*
X74812476Y-47168262D01*
X74653787Y-47168262D01*
X75288545Y-46565241D02*
X75320283Y-46533504D01*
X75383758Y-46501766D01*
X75542448Y-46501766D01*
X75605924Y-46533504D01*
X75637662Y-46565241D01*
X75669400Y-46628717D01*
X75669400Y-46692193D01*
X75637662Y-46787407D01*
X75256807Y-47168262D01*
X75669400Y-47168262D01*
D10*
%TO.C,R6*%
X100882380Y-47861666D02*
X100406190Y-48195000D01*
X100882380Y-48433095D02*
X99882380Y-48433095D01*
X99882380Y-48052142D01*
X99930000Y-47956904D01*
X99977619Y-47909285D01*
X100072857Y-47861666D01*
X100215714Y-47861666D01*
X100310952Y-47909285D01*
X100358571Y-47956904D01*
X100406190Y-48052142D01*
X100406190Y-48433095D01*
X99882380Y-47004523D02*
X99882380Y-47195000D01*
X99930000Y-47290238D01*
X99977619Y-47337857D01*
X100120476Y-47433095D01*
X100310952Y-47480714D01*
X100691904Y-47480714D01*
X100787142Y-47433095D01*
X100834761Y-47385476D01*
X100882380Y-47290238D01*
X100882380Y-47099761D01*
X100834761Y-47004523D01*
X100787142Y-46956904D01*
X100691904Y-46909285D01*
X100453809Y-46909285D01*
X100358571Y-46956904D01*
X100310952Y-47004523D01*
X100263333Y-47099761D01*
X100263333Y-47290238D01*
X100310952Y-47385476D01*
X100358571Y-47433095D01*
X100453809Y-47480714D01*
%TO.C,C1*%
X82663333Y-66597142D02*
X82615714Y-66644761D01*
X82472857Y-66692380D01*
X82377619Y-66692380D01*
X82234761Y-66644761D01*
X82139523Y-66549523D01*
X82091904Y-66454285D01*
X82044285Y-66263809D01*
X82044285Y-66120952D01*
X82091904Y-65930476D01*
X82139523Y-65835238D01*
X82234761Y-65740000D01*
X82377619Y-65692380D01*
X82472857Y-65692380D01*
X82615714Y-65740000D01*
X82663333Y-65787619D01*
X83615714Y-66692380D02*
X83044285Y-66692380D01*
X83330000Y-66692380D02*
X83330000Y-65692380D01*
X83234761Y-65835238D01*
X83139523Y-65930476D01*
X83044285Y-65978095D01*
D11*
%TO.C,D1*%
X80362337Y-57968262D02*
X80362337Y-57301766D01*
X80521027Y-57301766D01*
X80616241Y-57333504D01*
X80679716Y-57396979D01*
X80711454Y-57460455D01*
X80743192Y-57587407D01*
X80743192Y-57682620D01*
X80711454Y-57809572D01*
X80679716Y-57873048D01*
X80616241Y-57936524D01*
X80521027Y-57968262D01*
X80362337Y-57968262D01*
X81377950Y-57968262D02*
X80997095Y-57968262D01*
X81187523Y-57968262D02*
X81187523Y-57301766D01*
X81124047Y-57396979D01*
X81060571Y-57460455D01*
X80997095Y-57492193D01*
D10*
%TO.C,U2*%
X75927380Y-91516904D02*
X76736904Y-91516904D01*
X76832142Y-91469285D01*
X76879761Y-91421666D01*
X76927380Y-91326428D01*
X76927380Y-91135952D01*
X76879761Y-91040714D01*
X76832142Y-90993095D01*
X76736904Y-90945476D01*
X75927380Y-90945476D01*
X76022619Y-90516904D02*
X75975000Y-90469285D01*
X75927380Y-90374047D01*
X75927380Y-90135952D01*
X75975000Y-90040714D01*
X76022619Y-89993095D01*
X76117857Y-89945476D01*
X76213095Y-89945476D01*
X76355952Y-89993095D01*
X76927380Y-90564523D01*
X76927380Y-89945476D01*
D12*
%TO.C,X4*%
X82764428Y-58988190D02*
X83097761Y-59488190D01*
X83097761Y-58988190D02*
X82764428Y-59488190D01*
X83502523Y-59154857D02*
X83502523Y-59488190D01*
X83383476Y-58964380D02*
X83264428Y-59321523D01*
X83573952Y-59321523D01*
D10*
%TO.C,R9*%
X101533333Y-59252380D02*
X101200000Y-58776190D01*
X100961904Y-59252380D02*
X100961904Y-58252380D01*
X101342857Y-58252380D01*
X101438095Y-58300000D01*
X101485714Y-58347619D01*
X101533333Y-58442857D01*
X101533333Y-58585714D01*
X101485714Y-58680952D01*
X101438095Y-58728571D01*
X101342857Y-58776190D01*
X100961904Y-58776190D01*
X102009523Y-59252380D02*
X102200000Y-59252380D01*
X102295238Y-59204761D01*
X102342857Y-59157142D01*
X102438095Y-59014285D01*
X102485714Y-58823809D01*
X102485714Y-58442857D01*
X102438095Y-58347619D01*
X102390476Y-58300000D01*
X102295238Y-58252380D01*
X102104761Y-58252380D01*
X102009523Y-58300000D01*
X101961904Y-58347619D01*
X101914285Y-58442857D01*
X101914285Y-58680952D01*
X101961904Y-58776190D01*
X102009523Y-58823809D01*
X102104761Y-58871428D01*
X102295238Y-58871428D01*
X102390476Y-58823809D01*
X102438095Y-58776190D01*
X102485714Y-58680952D01*
%TO.C,C10*%
X95457142Y-62257142D02*
X95409523Y-62304761D01*
X95266666Y-62352380D01*
X95171428Y-62352380D01*
X95028571Y-62304761D01*
X94933333Y-62209523D01*
X94885714Y-62114285D01*
X94838095Y-61923809D01*
X94838095Y-61780952D01*
X94885714Y-61590476D01*
X94933333Y-61495238D01*
X95028571Y-61400000D01*
X95171428Y-61352380D01*
X95266666Y-61352380D01*
X95409523Y-61400000D01*
X95457142Y-61447619D01*
X96409523Y-62352380D02*
X95838095Y-62352380D01*
X96123809Y-62352380D02*
X96123809Y-61352380D01*
X96028571Y-61495238D01*
X95933333Y-61590476D01*
X95838095Y-61638095D01*
X97028571Y-61352380D02*
X97123809Y-61352380D01*
X97219047Y-61400000D01*
X97266666Y-61447619D01*
X97314285Y-61542857D01*
X97361904Y-61733333D01*
X97361904Y-61971428D01*
X97314285Y-62161904D01*
X97266666Y-62257142D01*
X97219047Y-62304761D01*
X97123809Y-62352380D01*
X97028571Y-62352380D01*
X96933333Y-62304761D01*
X96885714Y-62257142D01*
X96838095Y-62161904D01*
X96790476Y-61971428D01*
X96790476Y-61733333D01*
X96838095Y-61542857D01*
X96885714Y-61447619D01*
X96933333Y-61400000D01*
X97028571Y-61352380D01*
%TO.C,R5*%
X73333333Y-50652380D02*
X73000000Y-50176190D01*
X72761904Y-50652380D02*
X72761904Y-49652380D01*
X73142857Y-49652380D01*
X73238095Y-49700000D01*
X73285714Y-49747619D01*
X73333333Y-49842857D01*
X73333333Y-49985714D01*
X73285714Y-50080952D01*
X73238095Y-50128571D01*
X73142857Y-50176190D01*
X72761904Y-50176190D01*
X74238095Y-49652380D02*
X73761904Y-49652380D01*
X73714285Y-50128571D01*
X73761904Y-50080952D01*
X73857142Y-50033333D01*
X74095238Y-50033333D01*
X74190476Y-50080952D01*
X74238095Y-50128571D01*
X74285714Y-50223809D01*
X74285714Y-50461904D01*
X74238095Y-50557142D01*
X74190476Y-50604761D01*
X74095238Y-50652380D01*
X73857142Y-50652380D01*
X73761904Y-50604761D01*
X73714285Y-50557142D01*
D13*
%TO.C,B1*%
X72249142Y-68146857D02*
X72463428Y-68218285D01*
X72534857Y-68289714D01*
X72606285Y-68432571D01*
X72606285Y-68646857D01*
X72534857Y-68789714D01*
X72463428Y-68861142D01*
X72320571Y-68932571D01*
X71749142Y-68932571D01*
X71749142Y-67432571D01*
X72249142Y-67432571D01*
X72392000Y-67504000D01*
X72463428Y-67575428D01*
X72534857Y-67718285D01*
X72534857Y-67861142D01*
X72463428Y-68004000D01*
X72392000Y-68075428D01*
X72249142Y-68146857D01*
X71749142Y-68146857D01*
X74034857Y-68932571D02*
X73177714Y-68932571D01*
X73606285Y-68932571D02*
X73606285Y-67432571D01*
X73463428Y-67646857D01*
X73320571Y-67789714D01*
X73177714Y-67861142D01*
D10*
%TO.C,U5*%
X96627380Y-59911904D02*
X97436904Y-59911904D01*
X97532142Y-59864285D01*
X97579761Y-59816666D01*
X97627380Y-59721428D01*
X97627380Y-59530952D01*
X97579761Y-59435714D01*
X97532142Y-59388095D01*
X97436904Y-59340476D01*
X96627380Y-59340476D01*
X96627380Y-58388095D02*
X96627380Y-58864285D01*
X97103571Y-58911904D01*
X97055952Y-58864285D01*
X97008333Y-58769047D01*
X97008333Y-58530952D01*
X97055952Y-58435714D01*
X97103571Y-58388095D01*
X97198809Y-58340476D01*
X97436904Y-58340476D01*
X97532142Y-58388095D01*
X97579761Y-58435714D01*
X97627380Y-58530952D01*
X97627380Y-58769047D01*
X97579761Y-58864285D01*
X97532142Y-58911904D01*
D11*
%TO.C,U1*%
X94421766Y-57754112D02*
X94961310Y-57754112D01*
X95024786Y-57722374D01*
X95056524Y-57690637D01*
X95088262Y-57627161D01*
X95088262Y-57500209D01*
X95056524Y-57436733D01*
X95024786Y-57404995D01*
X94961310Y-57373258D01*
X94421766Y-57373258D01*
X95088262Y-56706762D02*
X95088262Y-57087616D01*
X95088262Y-56897189D02*
X94421766Y-56897189D01*
X94516979Y-56960665D01*
X94580455Y-57024141D01*
X94612193Y-57087616D01*
%TO.C,L1*%
X81371166Y-48768262D02*
X81053787Y-48768262D01*
X81053787Y-48101766D01*
X81942448Y-48768262D02*
X81561593Y-48768262D01*
X81752021Y-48768262D02*
X81752021Y-48101766D01*
X81688545Y-48196979D01*
X81625069Y-48260455D01*
X81561593Y-48292193D01*
%TO.C,R3*%
X84468262Y-71665358D02*
X84150883Y-71887523D01*
X84468262Y-72046212D02*
X83801766Y-72046212D01*
X83801766Y-71792309D01*
X83833504Y-71728833D01*
X83865241Y-71697095D01*
X83928717Y-71665358D01*
X84023931Y-71665358D01*
X84087407Y-71697095D01*
X84119145Y-71728833D01*
X84150883Y-71792309D01*
X84150883Y-72046212D01*
X83801766Y-71443192D02*
X83801766Y-71030599D01*
X84055669Y-71252765D01*
X84055669Y-71157551D01*
X84087407Y-71094075D01*
X84119145Y-71062337D01*
X84182620Y-71030599D01*
X84341310Y-71030599D01*
X84404786Y-71062337D01*
X84436524Y-71094075D01*
X84468262Y-71157551D01*
X84468262Y-71347978D01*
X84436524Y-71411454D01*
X84404786Y-71443192D01*
D10*
%TO.C,R4*%
X80433333Y-51652380D02*
X80100000Y-51176190D01*
X79861904Y-51652380D02*
X79861904Y-50652380D01*
X80242857Y-50652380D01*
X80338095Y-50700000D01*
X80385714Y-50747619D01*
X80433333Y-50842857D01*
X80433333Y-50985714D01*
X80385714Y-51080952D01*
X80338095Y-51128571D01*
X80242857Y-51176190D01*
X79861904Y-51176190D01*
X81290476Y-50985714D02*
X81290476Y-51652380D01*
X81052380Y-50604761D02*
X80814285Y-51319047D01*
X81433333Y-51319047D01*
D11*
%TO.C,U3*%
X74453787Y-56001766D02*
X74453787Y-56541310D01*
X74485525Y-56604786D01*
X74517262Y-56636524D01*
X74580738Y-56668262D01*
X74707690Y-56668262D01*
X74771166Y-56636524D01*
X74802904Y-56604786D01*
X74834641Y-56541310D01*
X74834641Y-56001766D01*
X75088545Y-56001766D02*
X75501137Y-56001766D01*
X75278972Y-56255669D01*
X75374186Y-56255669D01*
X75437662Y-56287407D01*
X75469400Y-56319145D01*
X75501137Y-56382620D01*
X75501137Y-56541310D01*
X75469400Y-56604786D01*
X75437662Y-56636524D01*
X75374186Y-56668262D01*
X75183758Y-56668262D01*
X75120283Y-56636524D01*
X75088545Y-56604786D01*
D10*
%TO.C,R10*%
X101457142Y-63752380D02*
X101123809Y-63276190D01*
X100885714Y-63752380D02*
X100885714Y-62752380D01*
X101266666Y-62752380D01*
X101361904Y-62800000D01*
X101409523Y-62847619D01*
X101457142Y-62942857D01*
X101457142Y-63085714D01*
X101409523Y-63180952D01*
X101361904Y-63228571D01*
X101266666Y-63276190D01*
X100885714Y-63276190D01*
X102409523Y-63752380D02*
X101838095Y-63752380D01*
X102123809Y-63752380D02*
X102123809Y-62752380D01*
X102028571Y-62895238D01*
X101933333Y-62990476D01*
X101838095Y-63038095D01*
X103028571Y-62752380D02*
X103123809Y-62752380D01*
X103219047Y-62800000D01*
X103266666Y-62847619D01*
X103314285Y-62942857D01*
X103361904Y-63133333D01*
X103361904Y-63371428D01*
X103314285Y-63561904D01*
X103266666Y-63657142D01*
X103219047Y-63704761D01*
X103123809Y-63752380D01*
X103028571Y-63752380D01*
X102933333Y-63704761D01*
X102885714Y-63657142D01*
X102838095Y-63561904D01*
X102790476Y-63371428D01*
X102790476Y-63133333D01*
X102838095Y-62942857D01*
X102885714Y-62847619D01*
X102933333Y-62800000D01*
X103028571Y-62752380D01*
%TO.C,C5*%
X75303333Y-86077142D02*
X75255714Y-86124761D01*
X75112857Y-86172380D01*
X75017619Y-86172380D01*
X74874761Y-86124761D01*
X74779523Y-86029523D01*
X74731904Y-85934285D01*
X74684285Y-85743809D01*
X74684285Y-85600952D01*
X74731904Y-85410476D01*
X74779523Y-85315238D01*
X74874761Y-85220000D01*
X75017619Y-85172380D01*
X75112857Y-85172380D01*
X75255714Y-85220000D01*
X75303333Y-85267619D01*
X76208095Y-85172380D02*
X75731904Y-85172380D01*
X75684285Y-85648571D01*
X75731904Y-85600952D01*
X75827142Y-85553333D01*
X76065238Y-85553333D01*
X76160476Y-85600952D01*
X76208095Y-85648571D01*
X76255714Y-85743809D01*
X76255714Y-85981904D01*
X76208095Y-86077142D01*
X76160476Y-86124761D01*
X76065238Y-86172380D01*
X75827142Y-86172380D01*
X75731904Y-86124761D01*
X75684285Y-86077142D01*
%TO.C,CHG1*%
G36*
X84212544Y-46854000D02*
G01*
X83387456Y-46854000D01*
X83800000Y-46338320D01*
X84212544Y-46854000D01*
G37*
G36*
X84181000Y-46460300D02*
G01*
X83419000Y-46460300D01*
X83419000Y-46333300D01*
X84181000Y-46333300D01*
X84181000Y-46460300D01*
G37*
D14*
%TO.C,SW2*%
X99342000Y-54246500D02*
X99733259Y-54246500D01*
X99342000Y-49293500D02*
X99342000Y-54246500D01*
X100906739Y-54246500D02*
X101333261Y-54246500D01*
X102898000Y-49293500D02*
X102506741Y-49293500D01*
X101333261Y-49293500D02*
X100906739Y-49293500D01*
X102898000Y-54246500D02*
X102898000Y-49293500D01*
X102506741Y-54246500D02*
X102898000Y-54246500D01*
X99733259Y-49293500D02*
X99342000Y-49293500D01*
%TO.C,C2*%
X85765000Y-54961252D02*
X85765000Y-54438748D01*
X87235000Y-54961252D02*
X87235000Y-54438748D01*
%TO.C,C6*%
X81014580Y-61352000D02*
X80733420Y-61352000D01*
X81014580Y-60332000D02*
X80733420Y-60332000D01*
%TO.C,U4*%
X93782200Y-62127560D02*
X93782200Y-61717800D01*
X93782200Y-68982200D02*
X93782200Y-68572440D01*
X86517800Y-68572440D02*
X86517800Y-68982200D01*
X86517800Y-68982200D02*
X86927560Y-68982200D01*
X93372440Y-68982200D02*
X93782200Y-68982200D01*
X86517800Y-61717800D02*
X86517800Y-62127560D01*
X86927560Y-61717800D02*
X86517800Y-61717800D01*
X93782200Y-61717800D02*
X93372440Y-61717800D01*
G36*
X95509400Y-65790500D02*
G01*
X95255400Y-65790500D01*
X95255400Y-65409499D01*
X95509400Y-65409499D01*
X95509400Y-65790500D01*
G37*
D12*
X95509400Y-65790500D02*
X95255400Y-65790500D01*
X95255400Y-65409499D01*
X95509400Y-65409499D01*
X95509400Y-65790500D01*
G36*
X85044600Y-67290499D02*
G01*
X84790600Y-67290499D01*
X84790600Y-66909499D01*
X85044600Y-66909499D01*
X85044600Y-67290499D01*
G37*
X85044600Y-67290499D02*
X84790600Y-67290499D01*
X84790600Y-66909499D01*
X85044600Y-66909499D01*
X85044600Y-67290499D01*
G36*
X91090501Y-70709400D02*
G01*
X90709501Y-70709400D01*
X90709501Y-70455400D01*
X91090501Y-70455400D01*
X91090501Y-70709400D01*
G37*
X91090501Y-70709400D02*
X90709501Y-70709400D01*
X90709501Y-70455400D01*
X91090501Y-70455400D01*
X91090501Y-70709400D01*
G36*
X91590500Y-60244600D02*
G01*
X91209500Y-60244600D01*
X91209500Y-59990600D01*
X91590500Y-59990600D01*
X91590500Y-60244600D01*
G37*
X91590500Y-60244600D02*
X91209500Y-60244600D01*
X91209500Y-59990600D01*
X91590500Y-59990600D01*
X91590500Y-60244600D01*
D14*
%TO.C,C9*%
X89420000Y-58850580D02*
X89420000Y-58569420D01*
X90440000Y-58850580D02*
X90440000Y-58569420D01*
%TO.C,C7*%
X81014580Y-62876000D02*
X80733420Y-62876000D01*
X81014580Y-61856000D02*
X80733420Y-61856000D01*
%TO.C,L2*%
G36*
X97212544Y-47154000D02*
G01*
X96387456Y-47154000D01*
X96800000Y-46638320D01*
X97212544Y-47154000D01*
G37*
G36*
X97181000Y-46760300D02*
G01*
X96419000Y-46760300D01*
X96419000Y-46633300D01*
X97181000Y-46633300D01*
X97181000Y-46760300D01*
G37*
%TO.C,R7*%
X78437258Y-46877500D02*
X77962742Y-46877500D01*
X78437258Y-47922500D02*
X77962742Y-47922500D01*
%TO.C,C4*%
X97188748Y-55135000D02*
X97711252Y-55135000D01*
X97188748Y-56605000D02*
X97711252Y-56605000D01*
%TO.C,J1*%
X104370000Y-54950000D02*
X104370000Y-53620000D01*
X107030000Y-56220000D02*
X107030000Y-76600000D01*
X104370000Y-53620000D02*
X105700000Y-53620000D01*
X104370000Y-76600000D02*
X107030000Y-76600000D01*
X104370000Y-56220000D02*
X104370000Y-76600000D01*
X104370000Y-56220000D02*
X107030000Y-56220000D01*
%TO.C,R8*%
X72362742Y-48022500D02*
X72837258Y-48022500D01*
X72362742Y-46977500D02*
X72837258Y-46977500D01*
D15*
%TO.C,U6*%
X99150000Y-66900000D02*
X98800000Y-66900000D01*
X98800000Y-70550000D02*
X99150000Y-70900000D01*
X102450000Y-66900000D02*
X102800000Y-66900000D01*
X98800000Y-66900000D02*
X98800000Y-67250000D01*
X102800000Y-70550000D02*
X102800000Y-70900000D01*
X102800000Y-67250000D02*
X102800000Y-66900000D01*
X102800000Y-70900000D02*
X102450000Y-70900000D01*
X98844200Y-70982800D02*
G75*
G03*
X98844200Y-70982800I-127000J0D01*
G01*
D14*
%TO.C,C3*%
X79265000Y-54461252D02*
X79265000Y-53938748D01*
X80735000Y-54461252D02*
X80735000Y-53938748D01*
%TO.C,REF2*%
G36*
X68421550Y-88716212D02*
G01*
X68455456Y-88667302D01*
X68516653Y-88617878D01*
X68584063Y-88593359D01*
X68652880Y-88591797D01*
X68718303Y-88611239D01*
X68775527Y-88649735D01*
X68819749Y-88705335D01*
X68846167Y-88776086D01*
X68851510Y-88828162D01*
X68850903Y-88849893D01*
X68845822Y-88866531D01*
X68831855Y-88881437D01*
X68804589Y-88897973D01*
X68759612Y-88919498D01*
X68692511Y-88949374D01*
X68692171Y-88949524D01*
X68630407Y-88977813D01*
X68579759Y-89002933D01*
X68545404Y-89022179D01*
X68532518Y-89032848D01*
X68532514Y-89032934D01*
X68543872Y-89056166D01*
X68570431Y-89081774D01*
X68600923Y-89100221D01*
X68616370Y-89103886D01*
X68658515Y-89091212D01*
X68694808Y-89059471D01*
X68712517Y-89024572D01*
X68729552Y-88998845D01*
X68762922Y-88969546D01*
X68802149Y-88944235D01*
X68836756Y-88930471D01*
X68843993Y-88929714D01*
X68852139Y-88942160D01*
X68852630Y-88973972D01*
X68846643Y-89016866D01*
X68835357Y-89062558D01*
X68819950Y-89102761D01*
X68819171Y-89104322D01*
X68772804Y-89169062D01*
X68712711Y-89213097D01*
X68644465Y-89234711D01*
X68573638Y-89232185D01*
X68505804Y-89203804D01*
X68502788Y-89201808D01*
X68449427Y-89153448D01*
X68414340Y-89090352D01*
X68394922Y-89007387D01*
X68392316Y-88984078D01*
X68387701Y-88874055D01*
X68393233Y-88822748D01*
X68532514Y-88822748D01*
X68534324Y-88854753D01*
X68544222Y-88864093D01*
X68568898Y-88857105D01*
X68607795Y-88840587D01*
X68651275Y-88819881D01*
X68652356Y-88819333D01*
X68689209Y-88799949D01*
X68704000Y-88787013D01*
X68700353Y-88773451D01*
X68684995Y-88755632D01*
X68645923Y-88729845D01*
X68603846Y-88727950D01*
X68566103Y-88746717D01*
X68540034Y-88782915D01*
X68532514Y-88822748D01*
X68393233Y-88822748D01*
X68397194Y-88786027D01*
X68421550Y-88716212D01*
G37*
D16*
X68421550Y-88716212D02*
X68455456Y-88667302D01*
X68516653Y-88617878D01*
X68584063Y-88593359D01*
X68652880Y-88591797D01*
X68718303Y-88611239D01*
X68775527Y-88649735D01*
X68819749Y-88705335D01*
X68846167Y-88776086D01*
X68851510Y-88828162D01*
X68850903Y-88849893D01*
X68845822Y-88866531D01*
X68831855Y-88881437D01*
X68804589Y-88897973D01*
X68759612Y-88919498D01*
X68692511Y-88949374D01*
X68692171Y-88949524D01*
X68630407Y-88977813D01*
X68579759Y-89002933D01*
X68545404Y-89022179D01*
X68532518Y-89032848D01*
X68532514Y-89032934D01*
X68543872Y-89056166D01*
X68570431Y-89081774D01*
X68600923Y-89100221D01*
X68616370Y-89103886D01*
X68658515Y-89091212D01*
X68694808Y-89059471D01*
X68712517Y-89024572D01*
X68729552Y-88998845D01*
X68762922Y-88969546D01*
X68802149Y-88944235D01*
X68836756Y-88930471D01*
X68843993Y-88929714D01*
X68852139Y-88942160D01*
X68852630Y-88973972D01*
X68846643Y-89016866D01*
X68835357Y-89062558D01*
X68819950Y-89102761D01*
X68819171Y-89104322D01*
X68772804Y-89169062D01*
X68712711Y-89213097D01*
X68644465Y-89234711D01*
X68573638Y-89232185D01*
X68505804Y-89203804D01*
X68502788Y-89201808D01*
X68449427Y-89153448D01*
X68414340Y-89090352D01*
X68394922Y-89007387D01*
X68392316Y-88984078D01*
X68387701Y-88874055D01*
X68393233Y-88822748D01*
X68532514Y-88822748D01*
X68534324Y-88854753D01*
X68544222Y-88864093D01*
X68568898Y-88857105D01*
X68607795Y-88840587D01*
X68651275Y-88819881D01*
X68652356Y-88819333D01*
X68689209Y-88799949D01*
X68704000Y-88787013D01*
X68700353Y-88773451D01*
X68684995Y-88755632D01*
X68645923Y-88729845D01*
X68603846Y-88727950D01*
X68566103Y-88746717D01*
X68540034Y-88782915D01*
X68532514Y-88822748D01*
X68393233Y-88822748D01*
X68397194Y-88786027D01*
X68421550Y-88716212D01*
G36*
X67287096Y-88788159D02*
G01*
X67292068Y-88751949D01*
X67300713Y-88725299D01*
X67314005Y-88701722D01*
X67316943Y-88697338D01*
X67366313Y-88638249D01*
X67420109Y-88603947D01*
X67485602Y-88590331D01*
X67507842Y-88589665D01*
X67591115Y-88601962D01*
X67659145Y-88637733D01*
X67709351Y-88695301D01*
X67727185Y-88732312D01*
X67741063Y-88787882D01*
X67748167Y-88858096D01*
X67748840Y-88934727D01*
X67743427Y-89009552D01*
X67732270Y-89074342D01*
X67715714Y-89120873D01*
X67710626Y-89128887D01*
X67650355Y-89188707D01*
X67578769Y-89224535D01*
X67501092Y-89235020D01*
X67422548Y-89218810D01*
X67400689Y-89209092D01*
X67358122Y-89179143D01*
X67320763Y-89139433D01*
X67317232Y-89134397D01*
X67302881Y-89110124D01*
X67293394Y-89084178D01*
X67287790Y-89050022D01*
X67285086Y-89001119D01*
X67284299Y-88930935D01*
X67284286Y-88915200D01*
X67284322Y-88910192D01*
X67429429Y-88910192D01*
X67430273Y-88976430D01*
X67433596Y-89020386D01*
X67440583Y-89048779D01*
X67452416Y-89068325D01*
X67458457Y-89074857D01*
X67493186Y-89099680D01*
X67526903Y-89098548D01*
X67560995Y-89077016D01*
X67581329Y-89054029D01*
X67593371Y-89020478D01*
X67600134Y-88967569D01*
X67600598Y-88961399D01*
X67601752Y-88865513D01*
X67589688Y-88794299D01*
X67564570Y-88748194D01*
X67526560Y-88727635D01*
X67512992Y-88726514D01*
X67477364Y-88732152D01*
X67452994Y-88751686D01*
X67438093Y-88789042D01*
X67430875Y-88848150D01*
X67429429Y-88910192D01*
X67284322Y-88910192D01*
X67284826Y-88840413D01*
X67287096Y-88788159D01*
G37*
X67287096Y-88788159D02*
X67292068Y-88751949D01*
X67300713Y-88725299D01*
X67314005Y-88701722D01*
X67316943Y-88697338D01*
X67366313Y-88638249D01*
X67420109Y-88603947D01*
X67485602Y-88590331D01*
X67507842Y-88589665D01*
X67591115Y-88601962D01*
X67659145Y-88637733D01*
X67709351Y-88695301D01*
X67727185Y-88732312D01*
X67741063Y-88787882D01*
X67748167Y-88858096D01*
X67748840Y-88934727D01*
X67743427Y-89009552D01*
X67732270Y-89074342D01*
X67715714Y-89120873D01*
X67710626Y-89128887D01*
X67650355Y-89188707D01*
X67578769Y-89224535D01*
X67501092Y-89235020D01*
X67422548Y-89218810D01*
X67400689Y-89209092D01*
X67358122Y-89179143D01*
X67320763Y-89139433D01*
X67317232Y-89134397D01*
X67302881Y-89110124D01*
X67293394Y-89084178D01*
X67287790Y-89050022D01*
X67285086Y-89001119D01*
X67284299Y-88930935D01*
X67284286Y-88915200D01*
X67284322Y-88910192D01*
X67429429Y-88910192D01*
X67430273Y-88976430D01*
X67433596Y-89020386D01*
X67440583Y-89048779D01*
X67452416Y-89068325D01*
X67458457Y-89074857D01*
X67493186Y-89099680D01*
X67526903Y-89098548D01*
X67560995Y-89077016D01*
X67581329Y-89054029D01*
X67593371Y-89020478D01*
X67600134Y-88967569D01*
X67600598Y-88961399D01*
X67601752Y-88865513D01*
X67589688Y-88794299D01*
X67564570Y-88748194D01*
X67526560Y-88727635D01*
X67512992Y-88726514D01*
X67477364Y-88732152D01*
X67452994Y-88751686D01*
X67438093Y-88789042D01*
X67430875Y-88848150D01*
X67429429Y-88910192D01*
X67284322Y-88910192D01*
X67284826Y-88840413D01*
X67287096Y-88788159D01*
G36*
X71334726Y-88770086D02*
G01*
X71357135Y-88718600D01*
X71392124Y-88678443D01*
X71419375Y-88657861D01*
X71468907Y-88635625D01*
X71526316Y-88625304D01*
X71579682Y-88628067D01*
X71609543Y-88639212D01*
X71621261Y-88642383D01*
X71629037Y-88630557D01*
X71634465Y-88598866D01*
X71638571Y-88550593D01*
X71643067Y-88496829D01*
X71649313Y-88464482D01*
X71660676Y-88445985D01*
X71680528Y-88433770D01*
X71693000Y-88428362D01*
X71740171Y-88408601D01*
X71740117Y-88745358D01*
X71739933Y-88853837D01*
X71739219Y-88937287D01*
X71737675Y-88999704D01*
X71735001Y-89045085D01*
X71730894Y-89077429D01*
X71725055Y-89100733D01*
X71717182Y-89118995D01*
X71711221Y-89129418D01*
X71661855Y-89185945D01*
X71599264Y-89221377D01*
X71530013Y-89234090D01*
X71460668Y-89222463D01*
X71419375Y-89201568D01*
X71376025Y-89165422D01*
X71346481Y-89121276D01*
X71328655Y-89063462D01*
X71320463Y-88986313D01*
X71319302Y-88929714D01*
X71319458Y-88925647D01*
X71420857Y-88925647D01*
X71421476Y-88990550D01*
X71424314Y-89033514D01*
X71430840Y-89061622D01*
X71442523Y-89081953D01*
X71456483Y-89097288D01*
X71503365Y-89126890D01*
X71553701Y-89129419D01*
X71601276Y-89104705D01*
X71604979Y-89101356D01*
X71620783Y-89083935D01*
X71630693Y-89063209D01*
X71636058Y-89032362D01*
X71638228Y-88984577D01*
X71638571Y-88931748D01*
X71637827Y-88865381D01*
X71634748Y-88821106D01*
X71628061Y-88792009D01*
X71616496Y-88771173D01*
X71607013Y-88760107D01*
X71562960Y-88732198D01*
X71512224Y-88728843D01*
X71463796Y-88750159D01*
X71454450Y-88758073D01*
X71438540Y-88775647D01*
X71428610Y-88796587D01*
X71423278Y-88827782D01*
X71421163Y-88876122D01*
X71420857Y-88925647D01*
X71319458Y-88925647D01*
X71322810Y-88838568D01*
X71334726Y-88770086D01*
G37*
X71334726Y-88770086D02*
X71357135Y-88718600D01*
X71392124Y-88678443D01*
X71419375Y-88657861D01*
X71468907Y-88635625D01*
X71526316Y-88625304D01*
X71579682Y-88628067D01*
X71609543Y-88639212D01*
X71621261Y-88642383D01*
X71629037Y-88630557D01*
X71634465Y-88598866D01*
X71638571Y-88550593D01*
X71643067Y-88496829D01*
X71649313Y-88464482D01*
X71660676Y-88445985D01*
X71680528Y-88433770D01*
X71693000Y-88428362D01*
X71740171Y-88408601D01*
X71740117Y-88745358D01*
X71739933Y-88853837D01*
X71739219Y-88937287D01*
X71737675Y-88999704D01*
X71735001Y-89045085D01*
X71730894Y-89077429D01*
X71725055Y-89100733D01*
X71717182Y-89118995D01*
X71711221Y-89129418D01*
X71661855Y-89185945D01*
X71599264Y-89221377D01*
X71530013Y-89234090D01*
X71460668Y-89222463D01*
X71419375Y-89201568D01*
X71376025Y-89165422D01*
X71346481Y-89121276D01*
X71328655Y-89063462D01*
X71320463Y-88986313D01*
X71319302Y-88929714D01*
X71319458Y-88925647D01*
X71420857Y-88925647D01*
X71421476Y-88990550D01*
X71424314Y-89033514D01*
X71430840Y-89061622D01*
X71442523Y-89081953D01*
X71456483Y-89097288D01*
X71503365Y-89126890D01*
X71553701Y-89129419D01*
X71601276Y-89104705D01*
X71604979Y-89101356D01*
X71620783Y-89083935D01*
X71630693Y-89063209D01*
X71636058Y-89032362D01*
X71638228Y-88984577D01*
X71638571Y-88931748D01*
X71637827Y-88865381D01*
X71634748Y-88821106D01*
X71628061Y-88792009D01*
X71616496Y-88771173D01*
X71607013Y-88760107D01*
X71562960Y-88732198D01*
X71512224Y-88728843D01*
X71463796Y-88750159D01*
X71454450Y-88758073D01*
X71438540Y-88775647D01*
X71428610Y-88796587D01*
X71423278Y-88827782D01*
X71421163Y-88876122D01*
X71420857Y-88925647D01*
X71319458Y-88925647D01*
X71322810Y-88838568D01*
X71334726Y-88770086D01*
G36*
X70653910Y-83922348D02*
G01*
X70732454Y-83922778D01*
X70789298Y-83923942D01*
X70828105Y-83926207D01*
X70852538Y-83929940D01*
X70866262Y-83935506D01*
X70872940Y-83943273D01*
X70876236Y-83953605D01*
X70876556Y-83954943D01*
X70881562Y-83979079D01*
X70890829Y-84026701D01*
X70903392Y-84092741D01*
X70918287Y-84172128D01*
X70934551Y-84259796D01*
X70935119Y-84262875D01*
X70951410Y-84348789D01*
X70966652Y-84424696D01*
X70979861Y-84486045D01*
X70990054Y-84528282D01*
X70996248Y-84546855D01*
X70996543Y-84547184D01*
X71014788Y-84556253D01*
X71052405Y-84571367D01*
X71101271Y-84589262D01*
X71101543Y-84589358D01*
X71163093Y-84612493D01*
X71235657Y-84641965D01*
X71304057Y-84671597D01*
X71307294Y-84673062D01*
X71418702Y-84723626D01*
X71665399Y-84555160D01*
X71741077Y-84503803D01*
X71809631Y-84457889D01*
X71867088Y-84420030D01*
X71909476Y-84392837D01*
X71932825Y-84378921D01*
X71935042Y-84377889D01*
X71952010Y-84382484D01*
X71983701Y-84404655D01*
X72031352Y-84445447D01*
X72096198Y-84505905D01*
X72162397Y-84570227D01*
X72226214Y-84633612D01*
X72283329Y-84691451D01*
X72330305Y-84740175D01*
X72363703Y-84776210D01*
X72380085Y-84795984D01*
X72380694Y-84797002D01*
X72382505Y-84810572D01*
X72375683Y-84832733D01*
X72358540Y-84866478D01*
X72329393Y-84914800D01*
X72286555Y-84980692D01*
X72229448Y-85065517D01*
X72178766Y-85140177D01*
X72133461Y-85207140D01*
X72096150Y-85262516D01*
X72069452Y-85302420D01*
X72055985Y-85322962D01*
X72055137Y-85324356D01*
X72056781Y-85344038D01*
X72069245Y-85382293D01*
X72090048Y-85431889D01*
X72097462Y-85447728D01*
X72129814Y-85518290D01*
X72164328Y-85598353D01*
X72192365Y-85667629D01*
X72212568Y-85719045D01*
X72228615Y-85758119D01*
X72237888Y-85778541D01*
X72239041Y-85780114D01*
X72256096Y-85782721D01*
X72296298Y-85789863D01*
X72354302Y-85800523D01*
X72424763Y-85813685D01*
X72502335Y-85828333D01*
X72581672Y-85843449D01*
X72657431Y-85858018D01*
X72724264Y-85871022D01*
X72776828Y-85881445D01*
X72809776Y-85888270D01*
X72817857Y-85890199D01*
X72826205Y-85894962D01*
X72832506Y-85905718D01*
X72837045Y-85926098D01*
X72840104Y-85959734D01*
X72841967Y-86010255D01*
X72842918Y-86081292D01*
X72843240Y-86176476D01*
X72843257Y-86215492D01*
X72843257Y-86532799D01*
X72767057Y-86547839D01*
X72724663Y-86555995D01*
X72661400Y-86567899D01*
X72584962Y-86582116D01*
X72503043Y-86597210D01*
X72480400Y-86601355D01*
X72404806Y-86616053D01*
X72338953Y-86630505D01*
X72288366Y-86643375D01*
X72258574Y-86653322D01*
X72253612Y-86656287D01*
X72241426Y-86677283D01*
X72223953Y-86717967D01*
X72204577Y-86770322D01*
X72200734Y-86781600D01*
X72175339Y-86851523D01*
X72143817Y-86930418D01*
X72112969Y-87001266D01*
X72112817Y-87001595D01*
X72061447Y-87112733D01*
X72230399Y-87361253D01*
X72399352Y-87609772D01*
X72182429Y-87827058D01*
X72116819Y-87891726D01*
X72056979Y-87948733D01*
X72006267Y-87995033D01*
X71968046Y-88027584D01*
X71945675Y-88043343D01*
X71942466Y-88044343D01*
X71923626Y-88036469D01*
X71885180Y-88014578D01*
X71831330Y-87981267D01*
X71766276Y-87939131D01*
X71695940Y-87891943D01*
X71624555Y-87843810D01*
X71560908Y-87801928D01*
X71509041Y-87768871D01*
X71472995Y-87747218D01*
X71456867Y-87739543D01*
X71437189Y-87746037D01*
X71399875Y-87763150D01*
X71352621Y-87787326D01*
X71347612Y-87790013D01*
X71283977Y-87821927D01*
X71240341Y-87837579D01*
X71213202Y-87837745D01*
X71199057Y-87823204D01*
X71198975Y-87823000D01*
X71191905Y-87805779D01*
X71175042Y-87764899D01*
X71149695Y-87703525D01*
X71117171Y-87624819D01*
X71078778Y-87531947D01*
X71035822Y-87428072D01*
X70994222Y-87327502D01*
X70948504Y-87216516D01*
X70906526Y-87113703D01*
X70869548Y-87022215D01*
X70838827Y-86945201D01*
X70815622Y-86885815D01*
X70801190Y-86847209D01*
X70796743Y-86832800D01*
X70807896Y-86816272D01*
X70837069Y-86789930D01*
X70875971Y-86760887D01*
X70986757Y-86669039D01*
X71073351Y-86563759D01*
X71134716Y-86447266D01*
X71169815Y-86321776D01*
X71177608Y-86189507D01*
X71171943Y-86128457D01*
X71141078Y-86001795D01*
X71087920Y-85889941D01*
X71015767Y-85794001D01*
X70927917Y-85715076D01*
X70827665Y-85654270D01*
X70718310Y-85612687D01*
X70603147Y-85591428D01*
X70485475Y-85591599D01*
X70368590Y-85614301D01*
X70255789Y-85660638D01*
X70150369Y-85731713D01*
X70106368Y-85771911D01*
X70021979Y-85875129D01*
X69963222Y-85987925D01*
X69929704Y-86107010D01*
X69921035Y-86229095D01*
X69936823Y-86350893D01*
X69976678Y-86469116D01*
X70040207Y-86580475D01*
X70127021Y-86681684D01*
X70224029Y-86760887D01*
X70264437Y-86791162D01*
X70292982Y-86817219D01*
X70303257Y-86832825D01*
X70297877Y-86849843D01*
X70282575Y-86890500D01*
X70258612Y-86951642D01*
X70227244Y-87030119D01*
X70189732Y-87122780D01*
X70147333Y-87226472D01*
X70105663Y-87327526D01*
X70059690Y-87438607D01*
X70017107Y-87541541D01*
X69979221Y-87633165D01*
X69947340Y-87710316D01*
X69922771Y-87769831D01*
X69906820Y-87808544D01*
X69900910Y-87823000D01*
X69886948Y-87837685D01*
X69859940Y-87837642D01*
X69816413Y-87822099D01*
X69752890Y-87790284D01*
X69752388Y-87790013D01*
X69704560Y-87765323D01*
X69665897Y-87747338D01*
X69644095Y-87739614D01*
X69643133Y-87739543D01*
X69626721Y-87747378D01*
X69590487Y-87769165D01*
X69538474Y-87802328D01*
X69474725Y-87844291D01*
X69404060Y-87891943D01*
X69332116Y-87940191D01*
X69267274Y-87982151D01*
X69213735Y-88015227D01*
X69175697Y-88036821D01*
X69157533Y-88044343D01*
X69140808Y-88034457D01*
X69107180Y-88006826D01*
X69060010Y-87964495D01*
X69002658Y-87910505D01*
X68938484Y-87847899D01*
X68917497Y-87826983D01*
X68700499Y-87609623D01*
X68865668Y-87367220D01*
X68915864Y-87292781D01*
X68959919Y-87225972D01*
X68995362Y-87170665D01*
X69019719Y-87130729D01*
X69030522Y-87110036D01*
X69030838Y-87108563D01*
X69025143Y-87089058D01*
X69009826Y-87049822D01*
X68987537Y-86997430D01*
X68971893Y-86962355D01*
X68942641Y-86895201D01*
X68915094Y-86827358D01*
X68893737Y-86770034D01*
X68887935Y-86752572D01*
X68871452Y-86705938D01*
X68855340Y-86669905D01*
X68846490Y-86656287D01*
X68826960Y-86647952D01*
X68784334Y-86636137D01*
X68724145Y-86622181D01*
X68651922Y-86607422D01*
X68619600Y-86601355D01*
X68537522Y-86586273D01*
X68458795Y-86571669D01*
X68391109Y-86558980D01*
X68342160Y-86549642D01*
X68332943Y-86547839D01*
X68256743Y-86532799D01*
X68256743Y-86215492D01*
X68256914Y-86111154D01*
X68257616Y-86032213D01*
X68259134Y-85975038D01*
X68261749Y-85935999D01*
X68265746Y-85911465D01*
X68271409Y-85897805D01*
X68279020Y-85891389D01*
X68282143Y-85890199D01*
X68300978Y-85885980D01*
X68342588Y-85877562D01*
X68401630Y-85865961D01*
X68472757Y-85852195D01*
X68550625Y-85837280D01*
X68629887Y-85822232D01*
X68705198Y-85808069D01*
X68771213Y-85795806D01*
X68822587Y-85786461D01*
X68853975Y-85781050D01*
X68860959Y-85780114D01*
X68867285Y-85767596D01*
X68881290Y-85734246D01*
X68900355Y-85686377D01*
X68907634Y-85667629D01*
X68936996Y-85595195D01*
X68971571Y-85515170D01*
X69002537Y-85447728D01*
X69025323Y-85396159D01*
X69040482Y-85353785D01*
X69045542Y-85327834D01*
X69044736Y-85324356D01*
X69034041Y-85307936D01*
X69009620Y-85271417D01*
X68974095Y-85218687D01*
X68930087Y-85153635D01*
X68880217Y-85080151D01*
X68870356Y-85065645D01*
X68812492Y-84979704D01*
X68769956Y-84914261D01*
X68741054Y-84866304D01*
X68724090Y-84832820D01*
X68717367Y-84810795D01*
X68719190Y-84797217D01*
X68719236Y-84797131D01*
X68733586Y-84779297D01*
X68765323Y-84744817D01*
X68811010Y-84697268D01*
X68867204Y-84640222D01*
X68930468Y-84577255D01*
X68937602Y-84570227D01*
X69017330Y-84493020D01*
X69078857Y-84436330D01*
X69123421Y-84399110D01*
X69152257Y-84380315D01*
X69164958Y-84377889D01*
X69183494Y-84388471D01*
X69221961Y-84412916D01*
X69276386Y-84448612D01*
X69342798Y-84492947D01*
X69417225Y-84543311D01*
X69434601Y-84555160D01*
X69681297Y-84723626D01*
X69792706Y-84673062D01*
X69860457Y-84643595D01*
X69933183Y-84613959D01*
X69995703Y-84590330D01*
X69998457Y-84589358D01*
X70047360Y-84571457D01*
X70085057Y-84556320D01*
X70103425Y-84547210D01*
X70103456Y-84547184D01*
X70109285Y-84530717D01*
X70119192Y-84490219D01*
X70132195Y-84430242D01*
X70147309Y-84355340D01*
X70163552Y-84270064D01*
X70164881Y-84262875D01*
X70181175Y-84175014D01*
X70196133Y-84095260D01*
X70208791Y-84028681D01*
X70218186Y-83980347D01*
X70223354Y-83955325D01*
X70223444Y-83954943D01*
X70226589Y-83944299D01*
X70232704Y-83936262D01*
X70245453Y-83930467D01*
X70268500Y-83926547D01*
X70305509Y-83924135D01*
X70360144Y-83922865D01*
X70436067Y-83922371D01*
X70536944Y-83922286D01*
X70550000Y-83922286D01*
X70653910Y-83922348D01*
G37*
X70653910Y-83922348D02*
X70732454Y-83922778D01*
X70789298Y-83923942D01*
X70828105Y-83926207D01*
X70852538Y-83929940D01*
X70866262Y-83935506D01*
X70872940Y-83943273D01*
X70876236Y-83953605D01*
X70876556Y-83954943D01*
X70881562Y-83979079D01*
X70890829Y-84026701D01*
X70903392Y-84092741D01*
X70918287Y-84172128D01*
X70934551Y-84259796D01*
X70935119Y-84262875D01*
X70951410Y-84348789D01*
X70966652Y-84424696D01*
X70979861Y-84486045D01*
X70990054Y-84528282D01*
X70996248Y-84546855D01*
X70996543Y-84547184D01*
X71014788Y-84556253D01*
X71052405Y-84571367D01*
X71101271Y-84589262D01*
X71101543Y-84589358D01*
X71163093Y-84612493D01*
X71235657Y-84641965D01*
X71304057Y-84671597D01*
X71307294Y-84673062D01*
X71418702Y-84723626D01*
X71665399Y-84555160D01*
X71741077Y-84503803D01*
X71809631Y-84457889D01*
X71867088Y-84420030D01*
X71909476Y-84392837D01*
X71932825Y-84378921D01*
X71935042Y-84377889D01*
X71952010Y-84382484D01*
X71983701Y-84404655D01*
X72031352Y-84445447D01*
X72096198Y-84505905D01*
X72162397Y-84570227D01*
X72226214Y-84633612D01*
X72283329Y-84691451D01*
X72330305Y-84740175D01*
X72363703Y-84776210D01*
X72380085Y-84795984D01*
X72380694Y-84797002D01*
X72382505Y-84810572D01*
X72375683Y-84832733D01*
X72358540Y-84866478D01*
X72329393Y-84914800D01*
X72286555Y-84980692D01*
X72229448Y-85065517D01*
X72178766Y-85140177D01*
X72133461Y-85207140D01*
X72096150Y-85262516D01*
X72069452Y-85302420D01*
X72055985Y-85322962D01*
X72055137Y-85324356D01*
X72056781Y-85344038D01*
X72069245Y-85382293D01*
X72090048Y-85431889D01*
X72097462Y-85447728D01*
X72129814Y-85518290D01*
X72164328Y-85598353D01*
X72192365Y-85667629D01*
X72212568Y-85719045D01*
X72228615Y-85758119D01*
X72237888Y-85778541D01*
X72239041Y-85780114D01*
X72256096Y-85782721D01*
X72296298Y-85789863D01*
X72354302Y-85800523D01*
X72424763Y-85813685D01*
X72502335Y-85828333D01*
X72581672Y-85843449D01*
X72657431Y-85858018D01*
X72724264Y-85871022D01*
X72776828Y-85881445D01*
X72809776Y-85888270D01*
X72817857Y-85890199D01*
X72826205Y-85894962D01*
X72832506Y-85905718D01*
X72837045Y-85926098D01*
X72840104Y-85959734D01*
X72841967Y-86010255D01*
X72842918Y-86081292D01*
X72843240Y-86176476D01*
X72843257Y-86215492D01*
X72843257Y-86532799D01*
X72767057Y-86547839D01*
X72724663Y-86555995D01*
X72661400Y-86567899D01*
X72584962Y-86582116D01*
X72503043Y-86597210D01*
X72480400Y-86601355D01*
X72404806Y-86616053D01*
X72338953Y-86630505D01*
X72288366Y-86643375D01*
X72258574Y-86653322D01*
X72253612Y-86656287D01*
X72241426Y-86677283D01*
X72223953Y-86717967D01*
X72204577Y-86770322D01*
X72200734Y-86781600D01*
X72175339Y-86851523D01*
X72143817Y-86930418D01*
X72112969Y-87001266D01*
X72112817Y-87001595D01*
X72061447Y-87112733D01*
X72230399Y-87361253D01*
X72399352Y-87609772D01*
X72182429Y-87827058D01*
X72116819Y-87891726D01*
X72056979Y-87948733D01*
X72006267Y-87995033D01*
X71968046Y-88027584D01*
X71945675Y-88043343D01*
X71942466Y-88044343D01*
X71923626Y-88036469D01*
X71885180Y-88014578D01*
X71831330Y-87981267D01*
X71766276Y-87939131D01*
X71695940Y-87891943D01*
X71624555Y-87843810D01*
X71560908Y-87801928D01*
X71509041Y-87768871D01*
X71472995Y-87747218D01*
X71456867Y-87739543D01*
X71437189Y-87746037D01*
X71399875Y-87763150D01*
X71352621Y-87787326D01*
X71347612Y-87790013D01*
X71283977Y-87821927D01*
X71240341Y-87837579D01*
X71213202Y-87837745D01*
X71199057Y-87823204D01*
X71198975Y-87823000D01*
X71191905Y-87805779D01*
X71175042Y-87764899D01*
X71149695Y-87703525D01*
X71117171Y-87624819D01*
X71078778Y-87531947D01*
X71035822Y-87428072D01*
X70994222Y-87327502D01*
X70948504Y-87216516D01*
X70906526Y-87113703D01*
X70869548Y-87022215D01*
X70838827Y-86945201D01*
X70815622Y-86885815D01*
X70801190Y-86847209D01*
X70796743Y-86832800D01*
X70807896Y-86816272D01*
X70837069Y-86789930D01*
X70875971Y-86760887D01*
X70986757Y-86669039D01*
X71073351Y-86563759D01*
X71134716Y-86447266D01*
X71169815Y-86321776D01*
X71177608Y-86189507D01*
X71171943Y-86128457D01*
X71141078Y-86001795D01*
X71087920Y-85889941D01*
X71015767Y-85794001D01*
X70927917Y-85715076D01*
X70827665Y-85654270D01*
X70718310Y-85612687D01*
X70603147Y-85591428D01*
X70485475Y-85591599D01*
X70368590Y-85614301D01*
X70255789Y-85660638D01*
X70150369Y-85731713D01*
X70106368Y-85771911D01*
X70021979Y-85875129D01*
X69963222Y-85987925D01*
X69929704Y-86107010D01*
X69921035Y-86229095D01*
X69936823Y-86350893D01*
X69976678Y-86469116D01*
X70040207Y-86580475D01*
X70127021Y-86681684D01*
X70224029Y-86760887D01*
X70264437Y-86791162D01*
X70292982Y-86817219D01*
X70303257Y-86832825D01*
X70297877Y-86849843D01*
X70282575Y-86890500D01*
X70258612Y-86951642D01*
X70227244Y-87030119D01*
X70189732Y-87122780D01*
X70147333Y-87226472D01*
X70105663Y-87327526D01*
X70059690Y-87438607D01*
X70017107Y-87541541D01*
X69979221Y-87633165D01*
X69947340Y-87710316D01*
X69922771Y-87769831D01*
X69906820Y-87808544D01*
X69900910Y-87823000D01*
X69886948Y-87837685D01*
X69859940Y-87837642D01*
X69816413Y-87822099D01*
X69752890Y-87790284D01*
X69752388Y-87790013D01*
X69704560Y-87765323D01*
X69665897Y-87747338D01*
X69644095Y-87739614D01*
X69643133Y-87739543D01*
X69626721Y-87747378D01*
X69590487Y-87769165D01*
X69538474Y-87802328D01*
X69474725Y-87844291D01*
X69404060Y-87891943D01*
X69332116Y-87940191D01*
X69267274Y-87982151D01*
X69213735Y-88015227D01*
X69175697Y-88036821D01*
X69157533Y-88044343D01*
X69140808Y-88034457D01*
X69107180Y-88006826D01*
X69060010Y-87964495D01*
X69002658Y-87910505D01*
X68938484Y-87847899D01*
X68917497Y-87826983D01*
X68700499Y-87609623D01*
X68865668Y-87367220D01*
X68915864Y-87292781D01*
X68959919Y-87225972D01*
X68995362Y-87170665D01*
X69019719Y-87130729D01*
X69030522Y-87110036D01*
X69030838Y-87108563D01*
X69025143Y-87089058D01*
X69009826Y-87049822D01*
X68987537Y-86997430D01*
X68971893Y-86962355D01*
X68942641Y-86895201D01*
X68915094Y-86827358D01*
X68893737Y-86770034D01*
X68887935Y-86752572D01*
X68871452Y-86705938D01*
X68855340Y-86669905D01*
X68846490Y-86656287D01*
X68826960Y-86647952D01*
X68784334Y-86636137D01*
X68724145Y-86622181D01*
X68651922Y-86607422D01*
X68619600Y-86601355D01*
X68537522Y-86586273D01*
X68458795Y-86571669D01*
X68391109Y-86558980D01*
X68342160Y-86549642D01*
X68332943Y-86547839D01*
X68256743Y-86532799D01*
X68256743Y-86215492D01*
X68256914Y-86111154D01*
X68257616Y-86032213D01*
X68259134Y-85975038D01*
X68261749Y-85935999D01*
X68265746Y-85911465D01*
X68271409Y-85897805D01*
X68279020Y-85891389D01*
X68282143Y-85890199D01*
X68300978Y-85885980D01*
X68342588Y-85877562D01*
X68401630Y-85865961D01*
X68472757Y-85852195D01*
X68550625Y-85837280D01*
X68629887Y-85822232D01*
X68705198Y-85808069D01*
X68771213Y-85795806D01*
X68822587Y-85786461D01*
X68853975Y-85781050D01*
X68860959Y-85780114D01*
X68867285Y-85767596D01*
X68881290Y-85734246D01*
X68900355Y-85686377D01*
X68907634Y-85667629D01*
X68936996Y-85595195D01*
X68971571Y-85515170D01*
X69002537Y-85447728D01*
X69025323Y-85396159D01*
X69040482Y-85353785D01*
X69045542Y-85327834D01*
X69044736Y-85324356D01*
X69034041Y-85307936D01*
X69009620Y-85271417D01*
X68974095Y-85218687D01*
X68930087Y-85153635D01*
X68880217Y-85080151D01*
X68870356Y-85065645D01*
X68812492Y-84979704D01*
X68769956Y-84914261D01*
X68741054Y-84866304D01*
X68724090Y-84832820D01*
X68717367Y-84810795D01*
X68719190Y-84797217D01*
X68719236Y-84797131D01*
X68733586Y-84779297D01*
X68765323Y-84744817D01*
X68811010Y-84697268D01*
X68867204Y-84640222D01*
X68930468Y-84577255D01*
X68937602Y-84570227D01*
X69017330Y-84493020D01*
X69078857Y-84436330D01*
X69123421Y-84399110D01*
X69152257Y-84380315D01*
X69164958Y-84377889D01*
X69183494Y-84388471D01*
X69221961Y-84412916D01*
X69276386Y-84448612D01*
X69342798Y-84492947D01*
X69417225Y-84543311D01*
X69434601Y-84555160D01*
X69681297Y-84723626D01*
X69792706Y-84673062D01*
X69860457Y-84643595D01*
X69933183Y-84613959D01*
X69995703Y-84590330D01*
X69998457Y-84589358D01*
X70047360Y-84571457D01*
X70085057Y-84556320D01*
X70103425Y-84547210D01*
X70103456Y-84547184D01*
X70109285Y-84530717D01*
X70119192Y-84490219D01*
X70132195Y-84430242D01*
X70147309Y-84355340D01*
X70163552Y-84270064D01*
X70164881Y-84262875D01*
X70181175Y-84175014D01*
X70196133Y-84095260D01*
X70208791Y-84028681D01*
X70218186Y-83980347D01*
X70223354Y-83955325D01*
X70223444Y-83954943D01*
X70226589Y-83944299D01*
X70232704Y-83936262D01*
X70245453Y-83930467D01*
X70268500Y-83926547D01*
X70305509Y-83924135D01*
X70360144Y-83922865D01*
X70436067Y-83922371D01*
X70536944Y-83922286D01*
X70550000Y-83922286D01*
X70653910Y-83922348D01*
G36*
X69925886Y-88531289D02*
G01*
X69930139Y-88590613D01*
X69935025Y-88625572D01*
X69941795Y-88640820D01*
X69951702Y-88641015D01*
X69954914Y-88639195D01*
X69997644Y-88626015D01*
X70053227Y-88626785D01*
X70109737Y-88640333D01*
X70145082Y-88657861D01*
X70181321Y-88685861D01*
X70207813Y-88717549D01*
X70225999Y-88757813D01*
X70237322Y-88811543D01*
X70243222Y-88883626D01*
X70245143Y-88978951D01*
X70245177Y-88997237D01*
X70245200Y-89202646D01*
X70199491Y-89218580D01*
X70167027Y-89229420D01*
X70149215Y-89234468D01*
X70148691Y-89234514D01*
X70146937Y-89220828D01*
X70145444Y-89183076D01*
X70144326Y-89126224D01*
X70143697Y-89055234D01*
X70143600Y-89012073D01*
X70143398Y-88926973D01*
X70142358Y-88865981D01*
X70139831Y-88824177D01*
X70135164Y-88796642D01*
X70127707Y-88778456D01*
X70116811Y-88764698D01*
X70110007Y-88758073D01*
X70063272Y-88731375D01*
X70012272Y-88729375D01*
X69966001Y-88751955D01*
X69957444Y-88760107D01*
X69944893Y-88775436D01*
X69936188Y-88793618D01*
X69930631Y-88819909D01*
X69927526Y-88859562D01*
X69926176Y-88917832D01*
X69925886Y-88998173D01*
X69925886Y-89202646D01*
X69880177Y-89218580D01*
X69847713Y-89229420D01*
X69829901Y-89234468D01*
X69829377Y-89234514D01*
X69828037Y-89220623D01*
X69826828Y-89181439D01*
X69825801Y-89120700D01*
X69825002Y-89042141D01*
X69824481Y-88949498D01*
X69824286Y-88846509D01*
X69824286Y-88449342D01*
X69871457Y-88429444D01*
X69918629Y-88409547D01*
X69925886Y-88531289D01*
G37*
X69925886Y-88531289D02*
X69930139Y-88590613D01*
X69935025Y-88625572D01*
X69941795Y-88640820D01*
X69951702Y-88641015D01*
X69954914Y-88639195D01*
X69997644Y-88626015D01*
X70053227Y-88626785D01*
X70109737Y-88640333D01*
X70145082Y-88657861D01*
X70181321Y-88685861D01*
X70207813Y-88717549D01*
X70225999Y-88757813D01*
X70237322Y-88811543D01*
X70243222Y-88883626D01*
X70245143Y-88978951D01*
X70245177Y-88997237D01*
X70245200Y-89202646D01*
X70199491Y-89218580D01*
X70167027Y-89229420D01*
X70149215Y-89234468D01*
X70148691Y-89234514D01*
X70146937Y-89220828D01*
X70145444Y-89183076D01*
X70144326Y-89126224D01*
X70143697Y-89055234D01*
X70143600Y-89012073D01*
X70143398Y-88926973D01*
X70142358Y-88865981D01*
X70139831Y-88824177D01*
X70135164Y-88796642D01*
X70127707Y-88778456D01*
X70116811Y-88764698D01*
X70110007Y-88758073D01*
X70063272Y-88731375D01*
X70012272Y-88729375D01*
X69966001Y-88751955D01*
X69957444Y-88760107D01*
X69944893Y-88775436D01*
X69936188Y-88793618D01*
X69930631Y-88819909D01*
X69927526Y-88859562D01*
X69926176Y-88917832D01*
X69925886Y-88998173D01*
X69925886Y-89202646D01*
X69880177Y-89218580D01*
X69847713Y-89229420D01*
X69829901Y-89234468D01*
X69829377Y-89234514D01*
X69828037Y-89220623D01*
X69826828Y-89181439D01*
X69825801Y-89120700D01*
X69825002Y-89042141D01*
X69824481Y-88949498D01*
X69824286Y-88846509D01*
X69824286Y-88449342D01*
X69871457Y-88429444D01*
X69918629Y-88409547D01*
X69925886Y-88531289D01*
G36*
X69266093Y-88607780D02*
G01*
X69312672Y-88634723D01*
X69345057Y-88661466D01*
X69368742Y-88689484D01*
X69385059Y-88723748D01*
X69395339Y-88769227D01*
X69400914Y-88830892D01*
X69403116Y-88913711D01*
X69403371Y-88973246D01*
X69403371Y-89192391D01*
X69341686Y-89220044D01*
X69280000Y-89247697D01*
X69272743Y-89007670D01*
X69269744Y-88918028D01*
X69266598Y-88852962D01*
X69262701Y-88808026D01*
X69257447Y-88778770D01*
X69250231Y-88760748D01*
X69240450Y-88749511D01*
X69237312Y-88747079D01*
X69189761Y-88728083D01*
X69141697Y-88735600D01*
X69113086Y-88755543D01*
X69101447Y-88769675D01*
X69093391Y-88788220D01*
X69088271Y-88816334D01*
X69085441Y-88859173D01*
X69084256Y-88921895D01*
X69084057Y-88987261D01*
X69084018Y-89069268D01*
X69082614Y-89127316D01*
X69077914Y-89166465D01*
X69067987Y-89191780D01*
X69050903Y-89208323D01*
X69024732Y-89221156D01*
X68989775Y-89234491D01*
X68951596Y-89249007D01*
X68956141Y-88991389D01*
X68957971Y-88898519D01*
X68960112Y-88829889D01*
X68963181Y-88780711D01*
X68967794Y-88746198D01*
X68974568Y-88721562D01*
X68984119Y-88702016D01*
X68995634Y-88684770D01*
X69051190Y-88629680D01*
X69118980Y-88597822D01*
X69192713Y-88590191D01*
X69266093Y-88607780D01*
G37*
X69266093Y-88607780D02*
X69312672Y-88634723D01*
X69345057Y-88661466D01*
X69368742Y-88689484D01*
X69385059Y-88723748D01*
X69395339Y-88769227D01*
X69400914Y-88830892D01*
X69403116Y-88913711D01*
X69403371Y-88973246D01*
X69403371Y-89192391D01*
X69341686Y-89220044D01*
X69280000Y-89247697D01*
X69272743Y-89007670D01*
X69269744Y-88918028D01*
X69266598Y-88852962D01*
X69262701Y-88808026D01*
X69257447Y-88778770D01*
X69250231Y-88760748D01*
X69240450Y-88749511D01*
X69237312Y-88747079D01*
X69189761Y-88728083D01*
X69141697Y-88735600D01*
X69113086Y-88755543D01*
X69101447Y-88769675D01*
X69093391Y-88788220D01*
X69088271Y-88816334D01*
X69085441Y-88859173D01*
X69084256Y-88921895D01*
X69084057Y-88987261D01*
X69084018Y-89069268D01*
X69082614Y-89127316D01*
X69077914Y-89166465D01*
X69067987Y-89191780D01*
X69050903Y-89208323D01*
X69024732Y-89221156D01*
X68989775Y-89234491D01*
X68951596Y-89249007D01*
X68956141Y-88991389D01*
X68957971Y-88898519D01*
X68960112Y-88829889D01*
X68963181Y-88780711D01*
X68967794Y-88746198D01*
X68974568Y-88721562D01*
X68984119Y-88702016D01*
X68995634Y-88684770D01*
X69051190Y-88629680D01*
X69118980Y-88597822D01*
X69192713Y-88590191D01*
X69266093Y-88607780D01*
G36*
X71079926Y-88629755D02*
G01*
X71145858Y-88654084D01*
X71199273Y-88697117D01*
X71220164Y-88727409D01*
X71242939Y-88782994D01*
X71242466Y-88823186D01*
X71218562Y-88850217D01*
X71209717Y-88854813D01*
X71171530Y-88869144D01*
X71152028Y-88865472D01*
X71145422Y-88841407D01*
X71145086Y-88828114D01*
X71132992Y-88779210D01*
X71101471Y-88744999D01*
X71057659Y-88728476D01*
X71008695Y-88732634D01*
X70968894Y-88754227D01*
X70955450Y-88766544D01*
X70945921Y-88781487D01*
X70939485Y-88804075D01*
X70935317Y-88839328D01*
X70932597Y-88892266D01*
X70930502Y-88967907D01*
X70929960Y-88991857D01*
X70927981Y-89073790D01*
X70925731Y-89131455D01*
X70922357Y-89169608D01*
X70917006Y-89193004D01*
X70908824Y-89206398D01*
X70896959Y-89214545D01*
X70889362Y-89218144D01*
X70857102Y-89230452D01*
X70838111Y-89234514D01*
X70831836Y-89220948D01*
X70828006Y-89179934D01*
X70826600Y-89110999D01*
X70827598Y-89013669D01*
X70827908Y-88998657D01*
X70830101Y-88909859D01*
X70832693Y-88845019D01*
X70836382Y-88799067D01*
X70841864Y-88766935D01*
X70849835Y-88743553D01*
X70860993Y-88723852D01*
X70866830Y-88715410D01*
X70900296Y-88678057D01*
X70937727Y-88649003D01*
X70942309Y-88646467D01*
X71009426Y-88626443D01*
X71079926Y-88629755D01*
G37*
X71079926Y-88629755D02*
X71145858Y-88654084D01*
X71199273Y-88697117D01*
X71220164Y-88727409D01*
X71242939Y-88782994D01*
X71242466Y-88823186D01*
X71218562Y-88850217D01*
X71209717Y-88854813D01*
X71171530Y-88869144D01*
X71152028Y-88865472D01*
X71145422Y-88841407D01*
X71145086Y-88828114D01*
X71132992Y-88779210D01*
X71101471Y-88744999D01*
X71057659Y-88728476D01*
X71008695Y-88732634D01*
X70968894Y-88754227D01*
X70955450Y-88766544D01*
X70945921Y-88781487D01*
X70939485Y-88804075D01*
X70935317Y-88839328D01*
X70932597Y-88892266D01*
X70930502Y-88967907D01*
X70929960Y-88991857D01*
X70927981Y-89073790D01*
X70925731Y-89131455D01*
X70922357Y-89169608D01*
X70917006Y-89193004D01*
X70908824Y-89206398D01*
X70896959Y-89214545D01*
X70889362Y-89218144D01*
X70857102Y-89230452D01*
X70838111Y-89234514D01*
X70831836Y-89220948D01*
X70828006Y-89179934D01*
X70826600Y-89110999D01*
X70827598Y-89013669D01*
X70827908Y-88998657D01*
X70830101Y-88909859D01*
X70832693Y-88845019D01*
X70836382Y-88799067D01*
X70841864Y-88766935D01*
X70849835Y-88743553D01*
X70860993Y-88723852D01*
X70866830Y-88715410D01*
X70900296Y-88678057D01*
X70937727Y-88649003D01*
X70942309Y-88646467D01*
X71009426Y-88626443D01*
X71079926Y-88629755D01*
G36*
X70589744Y-88630968D02*
G01*
X70646616Y-88652087D01*
X70647267Y-88652493D01*
X70682440Y-88678380D01*
X70708407Y-88708633D01*
X70726670Y-88748058D01*
X70738732Y-88801462D01*
X70746096Y-88873651D01*
X70750264Y-88969432D01*
X70750629Y-88983078D01*
X70755876Y-89188842D01*
X70711716Y-89211678D01*
X70679763Y-89227110D01*
X70660470Y-89234423D01*
X70659578Y-89234514D01*
X70656239Y-89221022D01*
X70653587Y-89184626D01*
X70651956Y-89131452D01*
X70651600Y-89088393D01*
X70651592Y-89018641D01*
X70648403Y-88974837D01*
X70637288Y-88953944D01*
X70613501Y-88952925D01*
X70572296Y-88968741D01*
X70510086Y-88997815D01*
X70464341Y-89021963D01*
X70440813Y-89042913D01*
X70433896Y-89065747D01*
X70433886Y-89066877D01*
X70445299Y-89106212D01*
X70479092Y-89127462D01*
X70530809Y-89130539D01*
X70568061Y-89130006D01*
X70587703Y-89140735D01*
X70599952Y-89166505D01*
X70607002Y-89199337D01*
X70596842Y-89217966D01*
X70593017Y-89220632D01*
X70557001Y-89231340D01*
X70506566Y-89232856D01*
X70454626Y-89225759D01*
X70417822Y-89212788D01*
X70366938Y-89169585D01*
X70338014Y-89109446D01*
X70332286Y-89062462D01*
X70336657Y-89020082D01*
X70352475Y-88985488D01*
X70383797Y-88954763D01*
X70434678Y-88923990D01*
X70509176Y-88889252D01*
X70513714Y-88887288D01*
X70580821Y-88856287D01*
X70622232Y-88830862D01*
X70639981Y-88808014D01*
X70636107Y-88784745D01*
X70612643Y-88758056D01*
X70605627Y-88751914D01*
X70558630Y-88728100D01*
X70509933Y-88729103D01*
X70467522Y-88752451D01*
X70439384Y-88795675D01*
X70436769Y-88804160D01*
X70411308Y-88845308D01*
X70379001Y-88865128D01*
X70332286Y-88884770D01*
X70332286Y-88833950D01*
X70346496Y-88760082D01*
X70388675Y-88692327D01*
X70410624Y-88669661D01*
X70460517Y-88640569D01*
X70523967Y-88627400D01*
X70589744Y-88630968D01*
G37*
X70589744Y-88630968D02*
X70646616Y-88652087D01*
X70647267Y-88652493D01*
X70682440Y-88678380D01*
X70708407Y-88708633D01*
X70726670Y-88748058D01*
X70738732Y-88801462D01*
X70746096Y-88873651D01*
X70750264Y-88969432D01*
X70750629Y-88983078D01*
X70755876Y-89188842D01*
X70711716Y-89211678D01*
X70679763Y-89227110D01*
X70660470Y-89234423D01*
X70659578Y-89234514D01*
X70656239Y-89221022D01*
X70653587Y-89184626D01*
X70651956Y-89131452D01*
X70651600Y-89088393D01*
X70651592Y-89018641D01*
X70648403Y-88974837D01*
X70637288Y-88953944D01*
X70613501Y-88952925D01*
X70572296Y-88968741D01*
X70510086Y-88997815D01*
X70464341Y-89021963D01*
X70440813Y-89042913D01*
X70433896Y-89065747D01*
X70433886Y-89066877D01*
X70445299Y-89106212D01*
X70479092Y-89127462D01*
X70530809Y-89130539D01*
X70568061Y-89130006D01*
X70587703Y-89140735D01*
X70599952Y-89166505D01*
X70607002Y-89199337D01*
X70596842Y-89217966D01*
X70593017Y-89220632D01*
X70557001Y-89231340D01*
X70506566Y-89232856D01*
X70454626Y-89225759D01*
X70417822Y-89212788D01*
X70366938Y-89169585D01*
X70338014Y-89109446D01*
X70332286Y-89062462D01*
X70336657Y-89020082D01*
X70352475Y-88985488D01*
X70383797Y-88954763D01*
X70434678Y-88923990D01*
X70509176Y-88889252D01*
X70513714Y-88887288D01*
X70580821Y-88856287D01*
X70622232Y-88830862D01*
X70639981Y-88808014D01*
X70636107Y-88784745D01*
X70612643Y-88758056D01*
X70605627Y-88751914D01*
X70558630Y-88728100D01*
X70509933Y-88729103D01*
X70467522Y-88752451D01*
X70439384Y-88795675D01*
X70436769Y-88804160D01*
X70411308Y-88845308D01*
X70379001Y-88865128D01*
X70332286Y-88884770D01*
X70332286Y-88833950D01*
X70346496Y-88760082D01*
X70388675Y-88692327D01*
X70410624Y-88669661D01*
X70460517Y-88640569D01*
X70523967Y-88627400D01*
X70589744Y-88630968D01*
G36*
X72694876Y-88636335D02*
G01*
X72736667Y-88655344D01*
X72769469Y-88678378D01*
X72793503Y-88704133D01*
X72810097Y-88737358D01*
X72820577Y-88782800D01*
X72826271Y-88845207D01*
X72828507Y-88929327D01*
X72828743Y-88984721D01*
X72828743Y-89200826D01*
X72791774Y-89217670D01*
X72762656Y-89229981D01*
X72748231Y-89234514D01*
X72745472Y-89221025D01*
X72743282Y-89184653D01*
X72741942Y-89131542D01*
X72741657Y-89089372D01*
X72740434Y-89028447D01*
X72737136Y-88980115D01*
X72732321Y-88950518D01*
X72728496Y-88944229D01*
X72702783Y-88950652D01*
X72662418Y-88967125D01*
X72615679Y-88989458D01*
X72570845Y-89013457D01*
X72536193Y-89034930D01*
X72520002Y-89049685D01*
X72519938Y-89049845D01*
X72521330Y-89077152D01*
X72533818Y-89103219D01*
X72555743Y-89124392D01*
X72587743Y-89131474D01*
X72615092Y-89130649D01*
X72653826Y-89130042D01*
X72674158Y-89139116D01*
X72686369Y-89163092D01*
X72687909Y-89167613D01*
X72693203Y-89201806D01*
X72679047Y-89222568D01*
X72642148Y-89232462D01*
X72602289Y-89234292D01*
X72530562Y-89220727D01*
X72493432Y-89201355D01*
X72447576Y-89155845D01*
X72423256Y-89099983D01*
X72421073Y-89040957D01*
X72441629Y-88985953D01*
X72472549Y-88951486D01*
X72503420Y-88932189D01*
X72551942Y-88907759D01*
X72608485Y-88882985D01*
X72617910Y-88879199D01*
X72680019Y-88851791D01*
X72715822Y-88827634D01*
X72727337Y-88803619D01*
X72716580Y-88776635D01*
X72698114Y-88755543D01*
X72654469Y-88729572D01*
X72606446Y-88727624D01*
X72562406Y-88747637D01*
X72530709Y-88787551D01*
X72526549Y-88797848D01*
X72502327Y-88835724D01*
X72466965Y-88863842D01*
X72422343Y-88886917D01*
X72422343Y-88821485D01*
X72424969Y-88781506D01*
X72436230Y-88749997D01*
X72461199Y-88716378D01*
X72485169Y-88690484D01*
X72522441Y-88653817D01*
X72551401Y-88634121D01*
X72582505Y-88626220D01*
X72617713Y-88624914D01*
X72694876Y-88636335D01*
G37*
X72694876Y-88636335D02*
X72736667Y-88655344D01*
X72769469Y-88678378D01*
X72793503Y-88704133D01*
X72810097Y-88737358D01*
X72820577Y-88782800D01*
X72826271Y-88845207D01*
X72828507Y-88929327D01*
X72828743Y-88984721D01*
X72828743Y-89200826D01*
X72791774Y-89217670D01*
X72762656Y-89229981D01*
X72748231Y-89234514D01*
X72745472Y-89221025D01*
X72743282Y-89184653D01*
X72741942Y-89131542D01*
X72741657Y-89089372D01*
X72740434Y-89028447D01*
X72737136Y-88980115D01*
X72732321Y-88950518D01*
X72728496Y-88944229D01*
X72702783Y-88950652D01*
X72662418Y-88967125D01*
X72615679Y-88989458D01*
X72570845Y-89013457D01*
X72536193Y-89034930D01*
X72520002Y-89049685D01*
X72519938Y-89049845D01*
X72521330Y-89077152D01*
X72533818Y-89103219D01*
X72555743Y-89124392D01*
X72587743Y-89131474D01*
X72615092Y-89130649D01*
X72653826Y-89130042D01*
X72674158Y-89139116D01*
X72686369Y-89163092D01*
X72687909Y-89167613D01*
X72693203Y-89201806D01*
X72679047Y-89222568D01*
X72642148Y-89232462D01*
X72602289Y-89234292D01*
X72530562Y-89220727D01*
X72493432Y-89201355D01*
X72447576Y-89155845D01*
X72423256Y-89099983D01*
X72421073Y-89040957D01*
X72441629Y-88985953D01*
X72472549Y-88951486D01*
X72503420Y-88932189D01*
X72551942Y-88907759D01*
X72608485Y-88882985D01*
X72617910Y-88879199D01*
X72680019Y-88851791D01*
X72715822Y-88827634D01*
X72727337Y-88803619D01*
X72716580Y-88776635D01*
X72698114Y-88755543D01*
X72654469Y-88729572D01*
X72606446Y-88727624D01*
X72562406Y-88747637D01*
X72530709Y-88787551D01*
X72526549Y-88797848D01*
X72502327Y-88835724D01*
X72466965Y-88863842D01*
X72422343Y-88886917D01*
X72422343Y-88821485D01*
X72424969Y-88781506D01*
X72436230Y-88749997D01*
X72461199Y-88716378D01*
X72485169Y-88690484D01*
X72522441Y-88653817D01*
X72551401Y-88634121D01*
X72582505Y-88626220D01*
X72617713Y-88624914D01*
X72694876Y-88636335D01*
G36*
X72329833Y-88638663D02*
G01*
X72332048Y-88676850D01*
X72333784Y-88734886D01*
X72334899Y-88808180D01*
X72335257Y-88885055D01*
X72335257Y-89145196D01*
X72289326Y-89191127D01*
X72257675Y-89219429D01*
X72229890Y-89230893D01*
X72191915Y-89230168D01*
X72176840Y-89228321D01*
X72129726Y-89222948D01*
X72090756Y-89219869D01*
X72081257Y-89219585D01*
X72049233Y-89221445D01*
X72003432Y-89226114D01*
X71985674Y-89228321D01*
X71942057Y-89231735D01*
X71912745Y-89224320D01*
X71883680Y-89201427D01*
X71873188Y-89191127D01*
X71827257Y-89145196D01*
X71827257Y-88658602D01*
X71864226Y-88641758D01*
X71896059Y-88629282D01*
X71914683Y-88624914D01*
X71919458Y-88638718D01*
X71923921Y-88677286D01*
X71927775Y-88736356D01*
X71930722Y-88811663D01*
X71932143Y-88875286D01*
X71936114Y-89125657D01*
X71970759Y-89130556D01*
X72002268Y-89127131D01*
X72017708Y-89116041D01*
X72022023Y-89095308D01*
X72025708Y-89051145D01*
X72028469Y-88989146D01*
X72030012Y-88914909D01*
X72030235Y-88876706D01*
X72030457Y-88656783D01*
X72076166Y-88640849D01*
X72108518Y-88630015D01*
X72126115Y-88624962D01*
X72126623Y-88624914D01*
X72128388Y-88638648D01*
X72130329Y-88676730D01*
X72132282Y-88734482D01*
X72134084Y-88807227D01*
X72135343Y-88875286D01*
X72139314Y-89125657D01*
X72226400Y-89125657D01*
X72230396Y-88897240D01*
X72234392Y-88668822D01*
X72276847Y-88646868D01*
X72308192Y-88631793D01*
X72326744Y-88624951D01*
X72327279Y-88624914D01*
X72329833Y-88638663D01*
G37*
X72329833Y-88638663D02*
X72332048Y-88676850D01*
X72333784Y-88734886D01*
X72334899Y-88808180D01*
X72335257Y-88885055D01*
X72335257Y-89145196D01*
X72289326Y-89191127D01*
X72257675Y-89219429D01*
X72229890Y-89230893D01*
X72191915Y-89230168D01*
X72176840Y-89228321D01*
X72129726Y-89222948D01*
X72090756Y-89219869D01*
X72081257Y-89219585D01*
X72049233Y-89221445D01*
X72003432Y-89226114D01*
X71985674Y-89228321D01*
X71942057Y-89231735D01*
X71912745Y-89224320D01*
X71883680Y-89201427D01*
X71873188Y-89191127D01*
X71827257Y-89145196D01*
X71827257Y-88658602D01*
X71864226Y-88641758D01*
X71896059Y-88629282D01*
X71914683Y-88624914D01*
X71919458Y-88638718D01*
X71923921Y-88677286D01*
X71927775Y-88736356D01*
X71930722Y-88811663D01*
X71932143Y-88875286D01*
X71936114Y-89125657D01*
X71970759Y-89130556D01*
X72002268Y-89127131D01*
X72017708Y-89116041D01*
X72022023Y-89095308D01*
X72025708Y-89051145D01*
X72028469Y-88989146D01*
X72030012Y-88914909D01*
X72030235Y-88876706D01*
X72030457Y-88656783D01*
X72076166Y-88640849D01*
X72108518Y-88630015D01*
X72126115Y-88624962D01*
X72126623Y-88624914D01*
X72128388Y-88638648D01*
X72130329Y-88676730D01*
X72132282Y-88734482D01*
X72134084Y-88807227D01*
X72135343Y-88875286D01*
X72139314Y-89125657D01*
X72226400Y-89125657D01*
X72230396Y-88897240D01*
X72234392Y-88668822D01*
X72276847Y-88646868D01*
X72308192Y-88631793D01*
X72326744Y-88624951D01*
X72327279Y-88624914D01*
X72329833Y-88638663D01*
G36*
X73202600Y-88638752D02*
G01*
X73219948Y-88646334D01*
X73261356Y-88679128D01*
X73296765Y-88726547D01*
X73318664Y-88777151D01*
X73322229Y-88802098D01*
X73310279Y-88836927D01*
X73284067Y-88855357D01*
X73255964Y-88866516D01*
X73243095Y-88868572D01*
X73236829Y-88853649D01*
X73224456Y-88821175D01*
X73219028Y-88806502D01*
X73188590Y-88755744D01*
X73144520Y-88730427D01*
X73088010Y-88731206D01*
X73083825Y-88732203D01*
X73053655Y-88746507D01*
X73031476Y-88774393D01*
X73016327Y-88819287D01*
X73007250Y-88884615D01*
X73003286Y-88973804D01*
X73002914Y-89021261D01*
X73002730Y-89096071D01*
X73001522Y-89147069D01*
X72998309Y-89179471D01*
X72992109Y-89198495D01*
X72981940Y-89209356D01*
X72966819Y-89217272D01*
X72965946Y-89217670D01*
X72936828Y-89229981D01*
X72922403Y-89234514D01*
X72920186Y-89220809D01*
X72918289Y-89182925D01*
X72916847Y-89125715D01*
X72915998Y-89054027D01*
X72915829Y-89001565D01*
X72916692Y-88900047D01*
X72920070Y-88823032D01*
X72927142Y-88766023D01*
X72939088Y-88724526D01*
X72957090Y-88694043D01*
X72982327Y-88670080D01*
X73007247Y-88653355D01*
X73067171Y-88631097D01*
X73136911Y-88626076D01*
X73202600Y-88638752D01*
G37*
X73202600Y-88638752D02*
X73219948Y-88646334D01*
X73261356Y-88679128D01*
X73296765Y-88726547D01*
X73318664Y-88777151D01*
X73322229Y-88802098D01*
X73310279Y-88836927D01*
X73284067Y-88855357D01*
X73255964Y-88866516D01*
X73243095Y-88868572D01*
X73236829Y-88853649D01*
X73224456Y-88821175D01*
X73219028Y-88806502D01*
X73188590Y-88755744D01*
X73144520Y-88730427D01*
X73088010Y-88731206D01*
X73083825Y-88732203D01*
X73053655Y-88746507D01*
X73031476Y-88774393D01*
X73016327Y-88819287D01*
X73007250Y-88884615D01*
X73003286Y-88973804D01*
X73002914Y-89021261D01*
X73002730Y-89096071D01*
X73001522Y-89147069D01*
X72998309Y-89179471D01*
X72992109Y-89198495D01*
X72981940Y-89209356D01*
X72966819Y-89217272D01*
X72965946Y-89217670D01*
X72936828Y-89229981D01*
X72922403Y-89234514D01*
X72920186Y-89220809D01*
X72918289Y-89182925D01*
X72916847Y-89125715D01*
X72915998Y-89054027D01*
X72915829Y-89001565D01*
X72916692Y-88900047D01*
X72920070Y-88823032D01*
X72927142Y-88766023D01*
X72939088Y-88724526D01*
X72957090Y-88694043D01*
X72982327Y-88670080D01*
X73007247Y-88653355D01*
X73067171Y-88631097D01*
X73136911Y-88626076D01*
X73202600Y-88638752D01*
G36*
X67843677Y-88830333D02*
G01*
X67846450Y-88782958D01*
X67850388Y-88749290D01*
X67855849Y-88725498D01*
X67863192Y-88707753D01*
X67872777Y-88692224D01*
X67876887Y-88686381D01*
X67931405Y-88631185D01*
X68000336Y-88599890D01*
X68080072Y-88591165D01*
X68149744Y-88599918D01*
X68205201Y-88627568D01*
X68254148Y-88678480D01*
X68267629Y-88697338D01*
X68282314Y-88722015D01*
X68291842Y-88748816D01*
X68297293Y-88784587D01*
X68299747Y-88836169D01*
X68300286Y-88904267D01*
X68297852Y-88997588D01*
X68289394Y-89067657D01*
X68273174Y-89119931D01*
X68247454Y-89159869D01*
X68210497Y-89192929D01*
X68207782Y-89194886D01*
X68171360Y-89214908D01*
X68127502Y-89224815D01*
X68071724Y-89227257D01*
X67981048Y-89227257D01*
X67981010Y-89315283D01*
X67980166Y-89364308D01*
X67975024Y-89393065D01*
X67961587Y-89410311D01*
X67935858Y-89424808D01*
X67929679Y-89427769D01*
X67900764Y-89441648D01*
X67878376Y-89450414D01*
X67861729Y-89451171D01*
X67850036Y-89441023D01*
X67842510Y-89417073D01*
X67838366Y-89376426D01*
X67836815Y-89316186D01*
X67837071Y-89233455D01*
X67838349Y-89125339D01*
X67838748Y-89093000D01*
X67840185Y-88981524D01*
X67841472Y-88908603D01*
X67980971Y-88908603D01*
X67981755Y-88970499D01*
X67985240Y-89010997D01*
X67993124Y-89037708D01*
X68007105Y-89058244D01*
X68016597Y-89068260D01*
X68055404Y-89097567D01*
X68089763Y-89099952D01*
X68125216Y-89075750D01*
X68126114Y-89074857D01*
X68140539Y-89056153D01*
X68149313Y-89030732D01*
X68153739Y-88991584D01*
X68155118Y-88931697D01*
X68155143Y-88918430D01*
X68151812Y-88835901D01*
X68140969Y-88778691D01*
X68121340Y-88743766D01*
X68091650Y-88728094D01*
X68074491Y-88726514D01*
X68033766Y-88733926D01*
X68005832Y-88758330D01*
X67989017Y-88802980D01*
X67981650Y-88871130D01*
X67980971Y-88908603D01*
X67841472Y-88908603D01*
X67841708Y-88895245D01*
X67843677Y-88830333D01*
G37*
X67843677Y-88830333D02*
X67846450Y-88782958D01*
X67850388Y-88749290D01*
X67855849Y-88725498D01*
X67863192Y-88707753D01*
X67872777Y-88692224D01*
X67876887Y-88686381D01*
X67931405Y-88631185D01*
X68000336Y-88599890D01*
X68080072Y-88591165D01*
X68149744Y-88599918D01*
X68205201Y-88627568D01*
X68254148Y-88678480D01*
X68267629Y-88697338D01*
X68282314Y-88722015D01*
X68291842Y-88748816D01*
X68297293Y-88784587D01*
X68299747Y-88836169D01*
X68300286Y-88904267D01*
X68297852Y-88997588D01*
X68289394Y-89067657D01*
X68273174Y-89119931D01*
X68247454Y-89159869D01*
X68210497Y-89192929D01*
X68207782Y-89194886D01*
X68171360Y-89214908D01*
X68127502Y-89224815D01*
X68071724Y-89227257D01*
X67981048Y-89227257D01*
X67981010Y-89315283D01*
X67980166Y-89364308D01*
X67975024Y-89393065D01*
X67961587Y-89410311D01*
X67935858Y-89424808D01*
X67929679Y-89427769D01*
X67900764Y-89441648D01*
X67878376Y-89450414D01*
X67861729Y-89451171D01*
X67850036Y-89441023D01*
X67842510Y-89417073D01*
X67838366Y-89376426D01*
X67836815Y-89316186D01*
X67837071Y-89233455D01*
X67838349Y-89125339D01*
X67838748Y-89093000D01*
X67840185Y-88981524D01*
X67841472Y-88908603D01*
X67980971Y-88908603D01*
X67981755Y-88970499D01*
X67985240Y-89010997D01*
X67993124Y-89037708D01*
X68007105Y-89058244D01*
X68016597Y-89068260D01*
X68055404Y-89097567D01*
X68089763Y-89099952D01*
X68125216Y-89075750D01*
X68126114Y-89074857D01*
X68140539Y-89056153D01*
X68149313Y-89030732D01*
X68153739Y-88991584D01*
X68155118Y-88931697D01*
X68155143Y-88918430D01*
X68151812Y-88835901D01*
X68140969Y-88778691D01*
X68121340Y-88743766D01*
X68091650Y-88728094D01*
X68074491Y-88726514D01*
X68033766Y-88733926D01*
X68005832Y-88758330D01*
X67989017Y-88802980D01*
X67981650Y-88871130D01*
X67980971Y-88908603D01*
X67841472Y-88908603D01*
X67841708Y-88895245D01*
X67843677Y-88830333D01*
G36*
X73418196Y-88775384D02*
G01*
X73431884Y-88726695D01*
X73454096Y-88690849D01*
X73486574Y-88662513D01*
X73500733Y-88653355D01*
X73565053Y-88629507D01*
X73635473Y-88628006D01*
X73703595Y-88646966D01*
X73761021Y-88684497D01*
X73788719Y-88718096D01*
X73810662Y-88779064D01*
X73812405Y-88827308D01*
X73808457Y-88891816D01*
X73659686Y-88956934D01*
X73587349Y-88990202D01*
X73540084Y-89016964D01*
X73515507Y-89040144D01*
X73511237Y-89062667D01*
X73524889Y-89087455D01*
X73539943Y-89103886D01*
X73583746Y-89130235D01*
X73631389Y-89132081D01*
X73675145Y-89111546D01*
X73707289Y-89070752D01*
X73713038Y-89056347D01*
X73740576Y-89011356D01*
X73772258Y-88992182D01*
X73815714Y-88975779D01*
X73815714Y-89037966D01*
X73811872Y-89080283D01*
X73796823Y-89115969D01*
X73765280Y-89156943D01*
X73760592Y-89162267D01*
X73725506Y-89198720D01*
X73695347Y-89218283D01*
X73657615Y-89227283D01*
X73626335Y-89230230D01*
X73570385Y-89230965D01*
X73530555Y-89221660D01*
X73505708Y-89207846D01*
X73466656Y-89177467D01*
X73439625Y-89144613D01*
X73422517Y-89103294D01*
X73413238Y-89047521D01*
X73409693Y-88971305D01*
X73409410Y-88932622D01*
X73410372Y-88886247D01*
X73498007Y-88886247D01*
X73499023Y-88911126D01*
X73501556Y-88915200D01*
X73518274Y-88909665D01*
X73554249Y-88895017D01*
X73602331Y-88874190D01*
X73612386Y-88869714D01*
X73673152Y-88838814D01*
X73706632Y-88811657D01*
X73713990Y-88786220D01*
X73696391Y-88760481D01*
X73681856Y-88749109D01*
X73629410Y-88726364D01*
X73580322Y-88730122D01*
X73539227Y-88757884D01*
X73510758Y-88807152D01*
X73501631Y-88846257D01*
X73498007Y-88886247D01*
X73410372Y-88886247D01*
X73411285Y-88842249D01*
X73418196Y-88775384D01*
G37*
X73418196Y-88775384D02*
X73431884Y-88726695D01*
X73454096Y-88690849D01*
X73486574Y-88662513D01*
X73500733Y-88653355D01*
X73565053Y-88629507D01*
X73635473Y-88628006D01*
X73703595Y-88646966D01*
X73761021Y-88684497D01*
X73788719Y-88718096D01*
X73810662Y-88779064D01*
X73812405Y-88827308D01*
X73808457Y-88891816D01*
X73659686Y-88956934D01*
X73587349Y-88990202D01*
X73540084Y-89016964D01*
X73515507Y-89040144D01*
X73511237Y-89062667D01*
X73524889Y-89087455D01*
X73539943Y-89103886D01*
X73583746Y-89130235D01*
X73631389Y-89132081D01*
X73675145Y-89111546D01*
X73707289Y-89070752D01*
X73713038Y-89056347D01*
X73740576Y-89011356D01*
X73772258Y-88992182D01*
X73815714Y-88975779D01*
X73815714Y-89037966D01*
X73811872Y-89080283D01*
X73796823Y-89115969D01*
X73765280Y-89156943D01*
X73760592Y-89162267D01*
X73725506Y-89198720D01*
X73695347Y-89218283D01*
X73657615Y-89227283D01*
X73626335Y-89230230D01*
X73570385Y-89230965D01*
X73530555Y-89221660D01*
X73505708Y-89207846D01*
X73466656Y-89177467D01*
X73439625Y-89144613D01*
X73422517Y-89103294D01*
X73413238Y-89047521D01*
X73409693Y-88971305D01*
X73409410Y-88932622D01*
X73410372Y-88886247D01*
X73498007Y-88886247D01*
X73499023Y-88911126D01*
X73501556Y-88915200D01*
X73518274Y-88909665D01*
X73554249Y-88895017D01*
X73602331Y-88874190D01*
X73612386Y-88869714D01*
X73673152Y-88838814D01*
X73706632Y-88811657D01*
X73713990Y-88786220D01*
X73696391Y-88760481D01*
X73681856Y-88749109D01*
X73629410Y-88726364D01*
X73580322Y-88730122D01*
X73539227Y-88757884D01*
X73510758Y-88807152D01*
X73501631Y-88846257D01*
X73498007Y-88886247D01*
X73410372Y-88886247D01*
X73411285Y-88842249D01*
X73418196Y-88775384D01*
D17*
%TO.C,X1*%
X88469600Y-49916600D02*
X87669600Y-49916600D01*
X92669600Y-49916600D02*
X91869600Y-49916600D01*
X93969600Y-45416600D02*
X93969600Y-44516600D01*
X93969600Y-44516600D02*
X86369600Y-44516600D01*
X86369600Y-44516600D02*
X86369600Y-45416600D01*
D14*
%TO.C,C8*%
X72265000Y-54661252D02*
X72265000Y-54138748D01*
X73735000Y-54661252D02*
X73735000Y-54138748D01*
%TO.C,D2*%
G36*
X74461680Y-45700000D02*
G01*
X73946000Y-46112544D01*
X73946000Y-45287456D01*
X74461680Y-45700000D01*
G37*
G36*
X74466700Y-46081000D02*
G01*
X74339700Y-46081000D01*
X74339700Y-45319000D01*
X74466700Y-45319000D01*
X74466700Y-46081000D01*
G37*
%TO.C,R6*%
X99222500Y-47137258D02*
X99222500Y-46662742D01*
X98177500Y-47137258D02*
X98177500Y-46662742D01*
%TO.C,C1*%
X82970580Y-65320000D02*
X82689420Y-65320000D01*
X82970580Y-64300000D02*
X82689420Y-64300000D01*
D15*
%TO.C,D1*%
X78173000Y-58400000D02*
X76427000Y-58400000D01*
X77600000Y-57700000D02*
X77000000Y-58100000D01*
X77000000Y-58100000D02*
X77000000Y-57300000D01*
X77000000Y-57300000D02*
X77600000Y-57700000D01*
X76427000Y-57000000D02*
X78173000Y-57000000D01*
G36*
X77583162Y-57700000D02*
G01*
X76998400Y-58089841D01*
X76998400Y-57310159D01*
X77583162Y-57700000D01*
G37*
G36*
X77800000Y-58200000D02*
G01*
X77600000Y-58200000D01*
X77600000Y-57200000D01*
X77800000Y-57200000D01*
X77800000Y-58200000D01*
G37*
D17*
%TO.C,U2*%
X78360000Y-78180000D02*
X81240000Y-78180000D01*
X93860000Y-90800000D02*
X93860000Y-93680000D01*
X93860000Y-78180000D02*
X90980000Y-78180000D01*
X93860000Y-93680000D02*
X90980000Y-93680000D01*
X78360000Y-93680000D02*
X78360000Y-90800000D01*
X78360000Y-81060000D02*
X78360000Y-78180000D01*
X81240000Y-93680000D02*
X78360000Y-93680000D01*
X93860000Y-78180000D02*
X93860000Y-81060000D01*
D13*
X82410000Y-94430000D02*
G75*
G03*
X82410000Y-94430000I-100000J0D01*
G01*
D17*
%TO.C,X4*%
X84080000Y-61180000D02*
X84080000Y-61980000D01*
X84380000Y-61180000D02*
X84380000Y-61980000D01*
X83280000Y-61980000D02*
X83280000Y-61180000D01*
X82990000Y-61980000D02*
X82990000Y-61180000D01*
D14*
%TO.C,R9*%
X102162742Y-60722500D02*
X102637258Y-60722500D01*
X102162742Y-59677500D02*
X102637258Y-59677500D01*
%TO.C,C10*%
X99340580Y-61290000D02*
X99059420Y-61290000D01*
X99340580Y-62310000D02*
X99059420Y-62310000D01*
%TO.C,R5*%
X75822500Y-50362742D02*
X75822500Y-50837258D01*
X74777500Y-50362742D02*
X74777500Y-50837258D01*
D18*
%TO.C,B1*%
X67600000Y-62300000D02*
X66800000Y-63100000D01*
X78400000Y-62600000D02*
X79200000Y-63500000D01*
X77400000Y-61700000D02*
X78400000Y-62600000D01*
X80800000Y-68700000D02*
X80600000Y-70000000D01*
X80000000Y-71950000D02*
X80000000Y-75100000D01*
X74900000Y-75900000D02*
X74500000Y-75900000D01*
X80000000Y-75100000D02*
X76700000Y-75100000D01*
X65100000Y-66700000D02*
X64900000Y-68000000D01*
X70000000Y-60800000D02*
X68700000Y-61500000D01*
X79900000Y-64700000D02*
X80400000Y-65700000D01*
X76700000Y-75100000D02*
X75800000Y-75600000D01*
X71400000Y-60400000D02*
X70000000Y-60800000D01*
X65800000Y-75100000D02*
X69000000Y-75100000D01*
X65500000Y-65300000D02*
X65100000Y-66700000D01*
X65800000Y-71950000D02*
X65800000Y-75100000D01*
X80800000Y-67200000D02*
X80800000Y-68700000D01*
X66800000Y-63100000D02*
X66100000Y-64100000D01*
X64900000Y-68000000D02*
X65000000Y-69200000D01*
X70000000Y-75600000D02*
X71200000Y-75900000D01*
X80600000Y-70000000D02*
X80000000Y-71900000D01*
X76400000Y-61200000D02*
X77400000Y-61700000D01*
X75800000Y-75600000D02*
X74900000Y-75900000D01*
X75400000Y-60800000D02*
X76400000Y-61200000D01*
X74500000Y-60600000D02*
X75400000Y-60800000D01*
X80400000Y-65700000D02*
X80800000Y-67200000D01*
X68700000Y-61500000D02*
X67600000Y-62300000D01*
X65000000Y-69200000D02*
X65300000Y-70500000D01*
X69000000Y-75100000D02*
X70000000Y-75600000D01*
X66100000Y-64100000D02*
X65500000Y-65300000D01*
X79200000Y-63500000D02*
X79900000Y-64700000D01*
X65300000Y-70400000D02*
X65800000Y-71900000D01*
D14*
%TO.C,U5*%
X99507718Y-60740000D02*
X98892282Y-60740000D01*
X99507718Y-57873000D02*
X98892282Y-57873000D01*
X98945711Y-60275000D02*
G75*
G03*
X98945711Y-60275000I-70711J0D01*
G01*
D15*
%TO.C,U1*%
X94200000Y-55350000D02*
X93400000Y-55350000D01*
X95450000Y-55100000D02*
X95450000Y-53500000D01*
X92150000Y-55100000D02*
X92150000Y-53500000D01*
%TO.C,L1*%
G36*
X82181000Y-46360300D02*
G01*
X81419000Y-46360300D01*
X81419000Y-46233300D01*
X82181000Y-46233300D01*
X82181000Y-46360300D01*
G37*
G36*
X82212544Y-46754000D02*
G01*
X81387456Y-46754000D01*
X81800000Y-46238320D01*
X82212544Y-46754000D01*
G37*
D14*
%TO.C,R4*%
X77762742Y-51822500D02*
X78237258Y-51822500D01*
X77762742Y-50777500D02*
X78237258Y-50777500D01*
D15*
%TO.C,U3*%
X77400000Y-55750000D02*
X75800000Y-55750000D01*
X77650000Y-53700000D02*
X77650000Y-54500000D01*
X77400000Y-52450000D02*
X75800000Y-52450000D01*
D14*
%TO.C,R10*%
X102162742Y-62322500D02*
X102637258Y-62322500D01*
X102162742Y-61277500D02*
X102637258Y-61277500D01*
%TO.C,C5*%
X75731252Y-83305000D02*
X75208748Y-83305000D01*
X75731252Y-84775000D02*
X75208748Y-84775000D01*
%TO.C,SW1*%
X68239899Y-49784000D02*
G75*
G03*
X68239899Y-49784000I-381000J0D01*
G01*
%TD*%
M02*
