%TF.GenerationSoftware,KiCad,Pcbnew,(6.0.11-0)*%
%TF.CreationDate,2023-08-12T13:13:45-05:00*%
%TF.ProjectId,dropkick,64726f70-6b69-4636-9b2e-6b696361645f,rev?*%
%TF.SameCoordinates,Original*%
%TF.FileFunction,Copper,L2,Bot*%
%TF.FilePolarity,Positive*%
%FSLAX46Y46*%
G04 Gerber Fmt 4.6, Leading zero omitted, Abs format (unit mm)*
G04 Created by KiCad (PCBNEW (6.0.11-0)) date 2023-08-12 13:13:45*
%MOMM*%
%LPD*%
G01*
G04 APERTURE LIST*
%TA.AperFunction,ComponentPad*%
%ADD10R,1.700000X1.700000*%
%TD*%
%TA.AperFunction,ComponentPad*%
%ADD11O,1.700000X1.700000*%
%TD*%
%TA.AperFunction,ComponentPad*%
%ADD12C,3.200000*%
%TD*%
%TA.AperFunction,ComponentPad*%
%ADD13C,0.700000*%
%TD*%
%TA.AperFunction,ComponentPad*%
%ADD14O,0.900000X2.400000*%
%TD*%
%TA.AperFunction,ComponentPad*%
%ADD15O,0.900000X1.700000*%
%TD*%
%TA.AperFunction,SMDPad,CuDef*%
%ADD16R,1.500000X0.700000*%
%TD*%
%TA.AperFunction,SMDPad,CuDef*%
%ADD17R,1.400000X1.800000*%
%TD*%
%TA.AperFunction,SMDPad,CuDef*%
%ADD18R,1.900000X1.400000*%
%TD*%
%TA.AperFunction,SMDPad,CuDef*%
%ADD19R,0.650000X2.760000*%
%TD*%
%TA.AperFunction,SMDPad,CuDef*%
%ADD20R,0.650000X2.750000*%
%TD*%
%TA.AperFunction,SMDPad,CuDef*%
%ADD21R,1.092200X2.006600*%
%TD*%
%TA.AperFunction,ComponentPad*%
%ADD22C,1.397000*%
%TD*%
%TA.AperFunction,SMDPad,CuDef*%
%ADD23R,4.600000X1.000000*%
%TD*%
%TA.AperFunction,SMDPad,CuDef*%
%ADD24R,3.400000X1.600000*%
%TD*%
%TA.AperFunction,ViaPad*%
%ADD25C,0.400000*%
%TD*%
%TA.AperFunction,Conductor*%
%ADD26C,0.250000*%
%TD*%
%TA.AperFunction,Conductor*%
%ADD27C,0.200000*%
%TD*%
G04 APERTURE END LIST*
D10*
%TO.P,J3,1,Pin_1*%
%TO.N,VBAT*%
X106000000Y-54850000D03*
D11*
%TO.P,J3,2,Pin_2*%
%TO.N,+3V3*%
X106000000Y-57390000D03*
%TO.P,J3,3,Pin_3*%
%TO.N,/SCL*%
X106000000Y-59930000D03*
%TO.P,J3,4,Pin_4*%
%TO.N,/SDA*%
X106000000Y-62470000D03*
%TO.P,J3,5,Pin_5*%
%TO.N,/AREF*%
X106000000Y-65010000D03*
%TO.P,J3,6,Pin_6*%
%TO.N,/A0*%
X106000000Y-67550000D03*
%TO.P,J3,7,Pin_7*%
%TO.N,/D0*%
X106000000Y-70090000D03*
%TO.P,J3,8,Pin_8*%
%TO.N,/D1*%
X106000000Y-72630000D03*
%TO.P,J3,9,Pin_9*%
%TO.N,GND*%
X106000000Y-75170000D03*
%TD*%
D12*
%TO.P,H2,P$1*%
%TO.N,N/C*%
X105410000Y-46990000D03*
%TD*%
%TO.P,H1,P$1*%
%TO.N,N/C*%
X66040000Y-46990000D03*
%TD*%
D13*
%TO.P,J1,A1,GND*%
%TO.N,GND*%
X93175000Y-50425000D03*
%TO.P,J1,A4,VBUS*%
%TO.N,VBUS*%
X92325000Y-50425000D03*
%TO.P,J1,A5,CC1*%
%TO.N,Net-(J1-PadA5)*%
X91475000Y-50425000D03*
%TO.P,J1,A6,D+*%
%TO.N,/D+*%
X90625000Y-50425000D03*
%TO.P,J1,A7,D-*%
%TO.N,/D-*%
X89775000Y-50425000D03*
%TO.P,J1,A8,SBU1*%
%TO.N,unconnected-(J1-PadA8)*%
X88925000Y-50425000D03*
%TO.P,J1,A9,VBUS*%
%TO.N,VBUS*%
X88075000Y-50425000D03*
%TO.P,J1,A12,GND*%
%TO.N,GND*%
X87225000Y-50425000D03*
%TO.P,J1,B1,GND*%
X87225000Y-49075000D03*
%TO.P,J1,B4,VBUS*%
%TO.N,VBUS*%
X88075000Y-49075000D03*
%TO.P,J1,B5,CC2*%
%TO.N,Net-(J1-PadB5)*%
X88925000Y-49075000D03*
%TO.P,J1,B6,D+*%
%TO.N,/D+*%
X89775000Y-49075000D03*
%TO.P,J1,B7,D-*%
%TO.N,/D-*%
X90625000Y-49075000D03*
%TO.P,J1,B8,SBU2*%
%TO.N,unconnected-(J1-PadB8)*%
X91475000Y-49075000D03*
%TO.P,J1,B9,VBUS*%
%TO.N,VBUS*%
X92325000Y-49075000D03*
%TO.P,J1,B12,GND*%
%TO.N,GND*%
X93175000Y-49075000D03*
D14*
%TO.P,J1,S1,SHIELD*%
%TO.N,unconnected-(J1-PadS1)*%
X85875000Y-49445000D03*
X94525000Y-49445000D03*
D15*
X85875000Y-46065000D03*
X94525000Y-46065000D03*
%TD*%
D12*
%TO.P,H3,P$1*%
%TO.N,N/C*%
X66040000Y-92710000D03*
%TD*%
D16*
%TO.P,X1,1,DAT2*%
%TO.N,unconnected-(X1-Pad1)*%
X69040000Y-66700000D03*
%TO.P,X1,2,CS*%
%TO.N,/SD_CS*%
X69440000Y-67800000D03*
%TO.P,X1,3,DATA_IN*%
%TO.N,/MOSI*%
X69040000Y-68900000D03*
%TO.P,X1,4,SD_VDD*%
%TO.N,+3V3*%
X68640000Y-70000000D03*
%TO.P,X1,5,SCLK*%
%TO.N,/SCK*%
X69040000Y-71100000D03*
%TO.P,X1,6,GND@3*%
%TO.N,GND*%
X68640000Y-72200000D03*
%TO.P,X1,7,DATA_OUT*%
%TO.N,/MISO*%
X69040000Y-73300000D03*
%TO.P,X1,8,DAT1*%
%TO.N,unconnected-(X1-Pad8)*%
X69040000Y-74400000D03*
D17*
%TO.P,X1,CD1,CARD_DETECT*%
%TO.N,/D7*%
X79240000Y-73700000D03*
%TO.P,X1,CD2,CARD_DETECT1*%
%TO.N,unconnected-(X1-PadCD2)*%
X79240000Y-67700000D03*
D18*
%TO.P,X1,MT1,GND@2*%
%TO.N,GND*%
X66140000Y-75300000D03*
%TO.P,X1,MT2,GND@1*%
X65240000Y-62100000D03*
%TD*%
D19*
%TO.P,J4,1*%
%TO.N,+3V3*%
X95060000Y-53670000D03*
%TO.P,J4,2*%
%TO.N,/SWDIO*%
X95060000Y-57730000D03*
%TO.P,J4,3*%
%TO.N,GND*%
X96330000Y-53670000D03*
D20*
%TO.P,J4,4*%
%TO.N,/SWCLK*%
X96330000Y-57730000D03*
D19*
%TO.P,J4,5*%
%TO.N,GND*%
X97600000Y-53670000D03*
%TO.P,J4,6*%
%TO.N,unconnected-(J4-Pad6)*%
X97600000Y-57730000D03*
%TO.P,J4,7*%
%TO.N,unconnected-(J4-Pad7)*%
X98870000Y-53670000D03*
%TO.P,J4,8*%
%TO.N,unconnected-(J4-Pad8)*%
X98870000Y-57730000D03*
%TO.P,J4,9*%
%TO.N,GND*%
X100140000Y-53670000D03*
%TO.P,J4,10*%
%TO.N,/{slash}RESET*%
X100140000Y-57730000D03*
%TD*%
D21*
%TO.P,SW1,1,1*%
%TO.N,unconnected-(SW1-Pad1)*%
X71120000Y-49784000D03*
%TO.P,SW1,2,2*%
%TO.N,Net-(J2-Pad2)*%
X73120001Y-49784000D03*
%TO.P,SW1,3,3*%
%TO.N,VBAT*%
X75120002Y-49784000D03*
D22*
%TO.P,SW1,4*%
%TO.N,N/C*%
X70994999Y-45683932D03*
%TO.P,SW1,5*%
X77244999Y-45683932D03*
%TD*%
D23*
%TO.P,J2,1,1*%
%TO.N,GND*%
X68200000Y-57200000D03*
%TO.P,J2,2,2*%
%TO.N,Net-(J2-Pad2)*%
X68200000Y-55200000D03*
D24*
%TO.P,J2,NC1*%
%TO.N,N/C*%
X73400000Y-59600000D03*
%TO.P,J2,NC2*%
X73400000Y-52800000D03*
%TD*%
D25*
%TO.N,GND*%
X100140000Y-55473700D03*
X91700000Y-54700000D03*
X99900000Y-74800000D03*
X102800000Y-66700000D03*
X96100000Y-50500000D03*
X65573100Y-57952100D03*
X99000000Y-71400000D03*
X94100000Y-59100000D03*
X102300000Y-56400000D03*
X73000000Y-57000000D03*
X95500000Y-62900000D03*
X67446300Y-72200000D03*
X64538200Y-63203000D03*
X95769131Y-52180248D03*
X80500000Y-63700000D03*
X81500000Y-90600000D03*
X97374500Y-51886600D03*
X81800000Y-67600000D03*
X98455584Y-59844416D03*
X101400000Y-53700000D03*
X87100000Y-52300000D03*
X97500000Y-70200000D03*
X89100000Y-70800000D03*
X96600000Y-64000000D03*
X66140000Y-74186200D03*
%TO.N,/AREF*%
X94156100Y-70155500D03*
%TO.N,+3V3*%
X93528300Y-62560797D03*
X89440800Y-65816500D03*
X71592000Y-69487300D03*
X99100000Y-63600000D03*
%TO.N,VBAT*%
X76115900Y-55137200D03*
%TO.N,/D12*%
X95500000Y-63700000D03*
X95175500Y-66968843D03*
%TO.N,/D11*%
X101700000Y-65400000D03*
X102400000Y-61000000D03*
%TO.N,/D6*%
X100000000Y-72000000D03*
X96518428Y-67523328D03*
%TO.N,/SCL*%
X98509100Y-68824500D03*
X99700001Y-64599999D03*
%TO.N,/SDA*%
X98491577Y-70124374D03*
X100424000Y-63419400D03*
%TO.N,/D1*%
X88925100Y-67649700D03*
%TO.N,/D0*%
X88200100Y-67786200D03*
%TO.N,/MISO*%
X90600000Y-72400000D03*
%TO.N,/MOSI*%
X89190338Y-71990338D03*
%TO.N,/SCK*%
X89883722Y-72038710D03*
%TO.N,/A0*%
X88148400Y-65379000D03*
%TO.N,/SWCLK*%
X91990800Y-62745800D03*
%TO.N,/SWDIO*%
X87600000Y-60044900D03*
%TO.N,/SD_CS*%
X85221600Y-68840300D03*
%TO.N,/D7*%
X83500000Y-73700000D03*
X96200000Y-66400000D03*
X95700000Y-69700000D03*
%TO.N,/D-*%
X90600000Y-59224100D03*
X91400000Y-63900000D03*
%TO.N,/D+*%
X90625000Y-57125000D03*
X91500000Y-63200000D03*
%TD*%
D26*
%TO.N,GND*%
X64538200Y-63203000D02*
X64614300Y-63126900D01*
X67446300Y-72200000D02*
X68640000Y-72200000D01*
X68200000Y-57200000D02*
X65573100Y-57200000D01*
X64614300Y-63126900D02*
X65240000Y-63126900D01*
X96600000Y-64000000D02*
X95500000Y-62900000D01*
X87225000Y-50425000D02*
X87225000Y-52175000D01*
X87225000Y-49075000D02*
X87225000Y-50425000D01*
X93175000Y-50425000D02*
X93720000Y-50970000D01*
X96330000Y-52230000D02*
X96330000Y-51963100D01*
X95430000Y-50970000D02*
X95900000Y-50500000D01*
X93720000Y-50970000D02*
X95430000Y-50970000D01*
X65573100Y-57952100D02*
X65573100Y-57200000D01*
X97600000Y-53670000D02*
X97600000Y-51963100D01*
X65240000Y-62100000D02*
X65240000Y-63126900D01*
X96330000Y-53670000D02*
X96330000Y-52230000D01*
X97374500Y-51886600D02*
X97374500Y-51963100D01*
X95900000Y-50500000D02*
X96100000Y-50500000D01*
X97374500Y-51963100D02*
X97600000Y-51963100D01*
X96330000Y-51963100D02*
X97374500Y-51963100D01*
X96280248Y-52180248D02*
X96330000Y-52230000D01*
X95769131Y-52180248D02*
X96280248Y-52180248D01*
X87225000Y-52175000D02*
X87100000Y-52300000D01*
X100140000Y-53670000D02*
X100140000Y-55473700D01*
X66140000Y-75300000D02*
X66140000Y-74186200D01*
X93175000Y-49075000D02*
X93175000Y-50425000D01*
%TO.N,/AREF*%
X101116200Y-71665000D02*
X100206300Y-72574900D01*
X105512300Y-66186900D02*
X101116200Y-70583000D01*
X96575500Y-72574900D02*
X94156100Y-70155500D01*
X106000000Y-65010000D02*
X106000000Y-66186900D01*
X101116200Y-70583000D02*
X101116200Y-71665000D01*
X106000000Y-66186900D02*
X105512300Y-66186900D01*
X100206300Y-72574900D02*
X96575500Y-72574900D01*
%TO.N,+3V3*%
X93528300Y-62977300D02*
X93528300Y-62560797D01*
X95705500Y-56022400D02*
X100637700Y-56022400D01*
X90689200Y-65816400D02*
X93528300Y-62977300D01*
X95060000Y-55376900D02*
X95705500Y-56022400D01*
X102542900Y-57390000D02*
X104823100Y-57390000D01*
X98600000Y-62100000D02*
X98600000Y-63100000D01*
X106000000Y-57390000D02*
X104823100Y-57390000D01*
X100637700Y-56022400D02*
X102274100Y-57658800D01*
X69716900Y-70000000D02*
X71079300Y-70000000D01*
X102274100Y-57658800D02*
X102274100Y-58425900D01*
X90689200Y-65816400D02*
X89440800Y-65816400D01*
X95060000Y-53670000D02*
X95060000Y-55376900D01*
X98600000Y-63100000D02*
X99100000Y-63600000D01*
X102274100Y-57658800D02*
X102542900Y-57390000D01*
X71079300Y-70000000D02*
X71592000Y-69487300D01*
X89440800Y-65816400D02*
X89440800Y-65816500D01*
X102274100Y-58425900D02*
X98600000Y-62100000D01*
X68640000Y-70000000D02*
X69716900Y-70000000D01*
%TO.N,VBUS*%
X92325000Y-48906200D02*
X91796900Y-48378100D01*
X91796900Y-48378100D02*
X88645100Y-48378100D01*
X88645100Y-48378100D02*
X88075000Y-48948200D01*
X88075000Y-48948200D02*
X88075000Y-49075000D01*
X92325000Y-49075000D02*
X92325000Y-48906200D01*
%TO.N,VBAT*%
X88180567Y-51961189D02*
X87317256Y-52824500D01*
X106000000Y-54850000D02*
X102509700Y-51359700D01*
X76830300Y-52824500D02*
X76115900Y-52110100D01*
X102509700Y-51359700D02*
X95675990Y-51359700D01*
X95675990Y-51359700D02*
X95074501Y-51961189D01*
X87317256Y-52824500D02*
X76830300Y-52824500D01*
X76115900Y-52110100D02*
X76115900Y-55137200D01*
X75120000Y-51114200D02*
X76115900Y-52110100D01*
X75120000Y-49784000D02*
X75120000Y-51114200D01*
X95074501Y-51961189D02*
X88180567Y-51961189D01*
%TO.N,/D12*%
X95200000Y-64000000D02*
X95200000Y-66800000D01*
X95200000Y-66800000D02*
X95200000Y-66944343D01*
X95500000Y-63700000D02*
X95200000Y-64000000D01*
X95200000Y-66944343D02*
X95175500Y-66968843D01*
%TO.N,/D11*%
X102400000Y-64700000D02*
X102400000Y-61000000D01*
X101700000Y-65400000D02*
X102400000Y-64700000D01*
%TO.N,/D6*%
X97800000Y-72000000D02*
X96025611Y-70225611D01*
X100000000Y-72000000D02*
X97800000Y-72000000D01*
X96518428Y-69732794D02*
X96518428Y-67523328D01*
X96025611Y-70225611D02*
X96518428Y-69732794D01*
%TO.N,/SCL*%
X98509100Y-68824500D02*
X99700001Y-67633599D01*
X99700001Y-67633599D02*
X99700001Y-64599999D01*
%TO.N,/SDA*%
X100424500Y-63419364D02*
X100424500Y-65069491D01*
X101213500Y-65858600D02*
X100664000Y-65309100D01*
X101915000Y-65979100D02*
X101213500Y-65979100D01*
X101213500Y-65979100D02*
X101213500Y-65858600D01*
X106000000Y-62470000D02*
X104823100Y-62470000D01*
X104823100Y-63071000D02*
X101915000Y-65979100D01*
X101213500Y-65979100D02*
X101213500Y-67402451D01*
X104823100Y-62470000D02*
X104823100Y-63071000D01*
X101213500Y-67402451D02*
X98491577Y-70124374D01*
X100424500Y-65069491D02*
X100664147Y-65309138D01*
%TO.N,/D1*%
X88925100Y-67649700D02*
X95215200Y-73939800D01*
X103513300Y-73939800D02*
X104823100Y-72630000D01*
X95215200Y-73939800D02*
X103513300Y-73939800D01*
X106000000Y-72630000D02*
X104823100Y-72630000D01*
%TO.N,/D0*%
X101434400Y-73478700D02*
X95720300Y-73478700D01*
X95720300Y-73478700D02*
X89364400Y-67122800D01*
X89364400Y-67122800D02*
X88706900Y-67122800D01*
X106000000Y-70090000D02*
X104823100Y-70090000D01*
X88200100Y-67629600D02*
X88200100Y-67786200D01*
X104823100Y-70090000D02*
X101434400Y-73478700D01*
X88706900Y-67122800D02*
X88200100Y-67629600D01*
%TO.N,/MISO*%
X69040000Y-73300000D02*
X69314502Y-73574502D01*
X88106152Y-72473100D02*
X88597394Y-72964340D01*
X90035660Y-72964340D02*
X90600000Y-72400000D01*
X77303198Y-73574502D02*
X78404600Y-72473100D01*
X88597394Y-72964340D02*
X90035660Y-72964340D01*
X78404600Y-72473100D02*
X88106152Y-72473100D01*
X69314502Y-73574502D02*
X77303198Y-73574502D01*
%TO.N,/MOSI*%
X77278300Y-68900000D02*
X77791400Y-69413100D01*
X69040000Y-68900000D02*
X77278300Y-68900000D01*
X86613100Y-69413100D02*
X89190338Y-71990338D01*
X77791400Y-69413100D02*
X86613100Y-69413100D01*
%TO.N,/SCK*%
X72434009Y-73125001D02*
X73365991Y-73125001D01*
X70116900Y-71100000D02*
X70335700Y-70881200D01*
X72427808Y-70881200D02*
X71774999Y-71534009D01*
X73365991Y-73125001D02*
X74478986Y-72012006D01*
X88783583Y-72514839D02*
X89407593Y-72514839D01*
X74478986Y-72012006D02*
X88280748Y-72012006D01*
X71774999Y-71534009D02*
X71774999Y-72465991D01*
X69040000Y-71100000D02*
X70116900Y-71100000D01*
X89407593Y-72514839D02*
X89883722Y-72038710D01*
X70335700Y-70881200D02*
X72427808Y-70881200D01*
X71774999Y-72465991D02*
X72434009Y-73125001D01*
X88280748Y-72012006D02*
X88783583Y-72514839D01*
%TO.N,/A0*%
X100473100Y-73026800D02*
X96282000Y-73026800D01*
X104823100Y-67550000D02*
X104823100Y-68676800D01*
X89849800Y-66594600D02*
X89364000Y-66594600D01*
X89364000Y-66594600D02*
X88148400Y-65379000D01*
X106000000Y-67550000D02*
X104823100Y-67550000D01*
X96282000Y-73026800D02*
X89849800Y-66594600D01*
X104823100Y-68676800D02*
X100473100Y-73026800D01*
%TO.N,/SWCLK*%
X96330000Y-58780000D02*
X92364200Y-62745800D01*
X92364200Y-62745800D02*
X91990800Y-62745800D01*
X96330000Y-57730000D02*
X96330000Y-58780000D01*
%TO.N,/SWDIO*%
X95060000Y-56023100D02*
X90921000Y-56023100D01*
X95060000Y-57730000D02*
X95060000Y-56023100D01*
X90921000Y-56023100D02*
X87600000Y-59344100D01*
X87600000Y-59344100D02*
X87600000Y-60044900D01*
%TO.N,/SD_CS*%
X77944300Y-68926900D02*
X85135000Y-68926900D01*
X76817400Y-67800000D02*
X77944300Y-68926900D01*
X69440000Y-67800000D02*
X76817400Y-67800000D01*
X85135000Y-68926900D02*
X85221600Y-68840300D01*
%TO.N,/D7*%
X96200000Y-66400000D02*
X95700000Y-66900000D01*
X95700000Y-66900000D02*
X95700000Y-69700000D01*
X83500000Y-73700000D02*
X79240000Y-73700000D01*
D27*
%TO.N,/D-*%
X90600000Y-62600000D02*
X90600000Y-59224052D01*
X91400000Y-63900000D02*
X90600000Y-63100000D01*
X90600000Y-63100000D02*
X90600000Y-62600000D01*
%TO.N,/D+*%
X89775000Y-49505761D02*
X90625000Y-50355761D01*
X91100000Y-57600000D02*
X91100000Y-62800000D01*
X90625000Y-57125000D02*
X91100000Y-57600000D01*
X89775000Y-49075000D02*
X89775000Y-49505761D01*
X90625000Y-50355761D02*
X90625000Y-50425000D01*
X91100000Y-62800000D02*
X91500000Y-63200000D01*
D26*
%TO.N,Net-(J2-Pad2)*%
X68200000Y-55200000D02*
X70826900Y-55200000D01*
X73120000Y-49784000D02*
X73120000Y-51114200D01*
X70826900Y-52293700D02*
X72006400Y-51114200D01*
X70826900Y-55200000D02*
X70826900Y-52293700D01*
X72006400Y-51114200D02*
X73120000Y-51114200D01*
%TD*%
%TA.AperFunction,Conductor*%
%TO.N,GND*%
G36*
X70060836Y-44870502D02*
G01*
X70107329Y-44924158D01*
X70117433Y-44994432D01*
X70091665Y-45054506D01*
X70069352Y-45082810D01*
X70066663Y-45087921D01*
X70066661Y-45087924D01*
X70040768Y-45137139D01*
X69975306Y-45261561D01*
X69915410Y-45454458D01*
X69891669Y-45655040D01*
X69904879Y-45856590D01*
X69906300Y-45862186D01*
X69906301Y-45862191D01*
X69953177Y-46046762D01*
X69954598Y-46052357D01*
X70039160Y-46235786D01*
X70155733Y-46400733D01*
X70300413Y-46541674D01*
X70305209Y-46544879D01*
X70305212Y-46544881D01*
X70438877Y-46634193D01*
X70468355Y-46653889D01*
X70473664Y-46656170D01*
X70473666Y-46656171D01*
X70648624Y-46731340D01*
X70648628Y-46731341D01*
X70653934Y-46733621D01*
X70850936Y-46778198D01*
X70856705Y-46778425D01*
X70856708Y-46778425D01*
X70933127Y-46781427D01*
X71052763Y-46786127D01*
X71154685Y-46771349D01*
X71246933Y-46757974D01*
X71246937Y-46757973D01*
X71252655Y-46757144D01*
X71258127Y-46755286D01*
X71258129Y-46755286D01*
X71438453Y-46694074D01*
X71438455Y-46694073D01*
X71443917Y-46692219D01*
X71620146Y-46593527D01*
X71665845Y-46555519D01*
X71771005Y-46468058D01*
X71775438Y-46464371D01*
X71904594Y-46309079D01*
X72003286Y-46132850D01*
X72068211Y-45941588D01*
X72097194Y-45741696D01*
X72098707Y-45683932D01*
X72080225Y-45482797D01*
X72077977Y-45474824D01*
X72026968Y-45293962D01*
X72025399Y-45288398D01*
X71936065Y-45107246D01*
X71903080Y-45063073D01*
X71894728Y-45051889D01*
X71869996Y-44985339D01*
X71885170Y-44915983D01*
X71935432Y-44865841D01*
X71995686Y-44850500D01*
X76242715Y-44850500D01*
X76310836Y-44870502D01*
X76357329Y-44924158D01*
X76367433Y-44994432D01*
X76341665Y-45054506D01*
X76319352Y-45082810D01*
X76316663Y-45087921D01*
X76316661Y-45087924D01*
X76290768Y-45137139D01*
X76225306Y-45261561D01*
X76165410Y-45454458D01*
X76141669Y-45655040D01*
X76154879Y-45856590D01*
X76156300Y-45862186D01*
X76156301Y-45862191D01*
X76203177Y-46046762D01*
X76204598Y-46052357D01*
X76289160Y-46235786D01*
X76405733Y-46400733D01*
X76550413Y-46541674D01*
X76555209Y-46544879D01*
X76555212Y-46544881D01*
X76688877Y-46634193D01*
X76718355Y-46653889D01*
X76723664Y-46656170D01*
X76723666Y-46656171D01*
X76898624Y-46731340D01*
X76898628Y-46731341D01*
X76903934Y-46733621D01*
X77100936Y-46778198D01*
X77106705Y-46778425D01*
X77106708Y-46778425D01*
X77183127Y-46781427D01*
X77302763Y-46786127D01*
X77404685Y-46771349D01*
X77496933Y-46757974D01*
X77496937Y-46757973D01*
X77502655Y-46757144D01*
X77508127Y-46755286D01*
X77508129Y-46755286D01*
X77688453Y-46694074D01*
X77688455Y-46694073D01*
X77693917Y-46692219D01*
X77870146Y-46593527D01*
X77915845Y-46555519D01*
X78021005Y-46468058D01*
X78025438Y-46464371D01*
X78154594Y-46309079D01*
X78253286Y-46132850D01*
X78318211Y-45941588D01*
X78347194Y-45741696D01*
X78348707Y-45683932D01*
X78330225Y-45482797D01*
X78327977Y-45474824D01*
X78276968Y-45293962D01*
X78275399Y-45288398D01*
X78186065Y-45107246D01*
X78153080Y-45063073D01*
X78144728Y-45051889D01*
X78119996Y-44985339D01*
X78135170Y-44915983D01*
X78185432Y-44865841D01*
X78245686Y-44850500D01*
X85176832Y-44850500D01*
X85244953Y-44870502D01*
X85291446Y-44924158D01*
X85301550Y-44994432D01*
X85272056Y-45059012D01*
X85265345Y-45065641D01*
X85265379Y-45065673D01*
X85260674Y-45070614D01*
X85255460Y-45075020D01*
X85251313Y-45080444D01*
X85251312Y-45080445D01*
X85147367Y-45216399D01*
X85147364Y-45216403D01*
X85143223Y-45221820D01*
X85140341Y-45228000D01*
X85140340Y-45228002D01*
X85109583Y-45293962D01*
X85065127Y-45389297D01*
X85063642Y-45395942D01*
X85063640Y-45395947D01*
X85042941Y-45488554D01*
X85024817Y-45569637D01*
X85024500Y-45575307D01*
X85024500Y-46511164D01*
X85039442Y-46648709D01*
X85098383Y-46823848D01*
X85193557Y-46982244D01*
X85198248Y-46987204D01*
X85198249Y-46987206D01*
X85230698Y-47021519D01*
X85320524Y-47116507D01*
X85473360Y-47220375D01*
X85479694Y-47222908D01*
X85479697Y-47222910D01*
X85638598Y-47286466D01*
X85638603Y-47286467D01*
X85644935Y-47289000D01*
X85736689Y-47304190D01*
X85820506Y-47318066D01*
X85820510Y-47318066D01*
X85827244Y-47319181D01*
X85834061Y-47318824D01*
X85834065Y-47318824D01*
X85989111Y-47310698D01*
X86011781Y-47309510D01*
X86018354Y-47307699D01*
X86018357Y-47307699D01*
X86183354Y-47262251D01*
X86189936Y-47260438D01*
X86353398Y-47174254D01*
X86494540Y-47054980D01*
X86544221Y-46990000D01*
X86602633Y-46913601D01*
X86602636Y-46913597D01*
X86606777Y-46908180D01*
X86649119Y-46817378D01*
X86681993Y-46746880D01*
X86681994Y-46746877D01*
X86684873Y-46740703D01*
X86686358Y-46734058D01*
X86686360Y-46734053D01*
X86724057Y-46565400D01*
X86725183Y-46560363D01*
X86725500Y-46554693D01*
X86725500Y-45618836D01*
X86710558Y-45481291D01*
X86651617Y-45306152D01*
X86556443Y-45147756D01*
X86518135Y-45107246D01*
X86476362Y-45063073D01*
X86444090Y-44999835D01*
X86451130Y-44929189D01*
X86495247Y-44873563D01*
X86567910Y-44850500D01*
X93826832Y-44850500D01*
X93894953Y-44870502D01*
X93941446Y-44924158D01*
X93951550Y-44994432D01*
X93922056Y-45059012D01*
X93915345Y-45065641D01*
X93915379Y-45065673D01*
X93910674Y-45070614D01*
X93905460Y-45075020D01*
X93901313Y-45080444D01*
X93901312Y-45080445D01*
X93797367Y-45216399D01*
X93797364Y-45216403D01*
X93793223Y-45221820D01*
X93790341Y-45228000D01*
X93790340Y-45228002D01*
X93759583Y-45293962D01*
X93715127Y-45389297D01*
X93713642Y-45395942D01*
X93713640Y-45395947D01*
X93692941Y-45488554D01*
X93674817Y-45569637D01*
X93674500Y-45575307D01*
X93674500Y-46511164D01*
X93689442Y-46648709D01*
X93748383Y-46823848D01*
X93843557Y-46982244D01*
X93848248Y-46987204D01*
X93848249Y-46987206D01*
X93880698Y-47021519D01*
X93970524Y-47116507D01*
X94123360Y-47220375D01*
X94129694Y-47222908D01*
X94129697Y-47222910D01*
X94288598Y-47286466D01*
X94288603Y-47286467D01*
X94294935Y-47289000D01*
X94386689Y-47304190D01*
X94470506Y-47318066D01*
X94470510Y-47318066D01*
X94477244Y-47319181D01*
X94484061Y-47318824D01*
X94484065Y-47318824D01*
X94639111Y-47310698D01*
X94661781Y-47309510D01*
X94668354Y-47307699D01*
X94668357Y-47307699D01*
X94833354Y-47262251D01*
X94839936Y-47260438D01*
X95003398Y-47174254D01*
X95144540Y-47054980D01*
X95194221Y-46990000D01*
X95252633Y-46913601D01*
X95252636Y-46913597D01*
X95256777Y-46908180D01*
X95299119Y-46817378D01*
X95331993Y-46746880D01*
X95331994Y-46746877D01*
X95334873Y-46740703D01*
X95336358Y-46734058D01*
X95336360Y-46734053D01*
X95374057Y-46565400D01*
X95375183Y-46560363D01*
X95375500Y-46554693D01*
X95375500Y-45618836D01*
X95360558Y-45481291D01*
X95301617Y-45306152D01*
X95206443Y-45147756D01*
X95168135Y-45107246D01*
X95126362Y-45063073D01*
X95094090Y-44999835D01*
X95101130Y-44929189D01*
X95145247Y-44873563D01*
X95217910Y-44850500D01*
X104680658Y-44850500D01*
X104748779Y-44870502D01*
X104795272Y-44924158D01*
X104805376Y-44994432D01*
X104775882Y-45059012D01*
X104724221Y-45094579D01*
X104720487Y-45095580D01*
X104596046Y-45153608D01*
X104406981Y-45241770D01*
X104406978Y-45241772D01*
X104402000Y-45244093D01*
X104114140Y-45445654D01*
X103865654Y-45694140D01*
X103664093Y-45982000D01*
X103661772Y-45986978D01*
X103661770Y-45986981D01*
X103543551Y-46240502D01*
X103515580Y-46300487D01*
X103514158Y-46305795D01*
X103514157Y-46305797D01*
X103444597Y-46565400D01*
X103424628Y-46639925D01*
X103394000Y-46990000D01*
X103424628Y-47340075D01*
X103426052Y-47345388D01*
X103426052Y-47345390D01*
X103509838Y-47658082D01*
X103515580Y-47679513D01*
X103517902Y-47684494D01*
X103517903Y-47684495D01*
X103660435Y-47990155D01*
X103664093Y-47998000D01*
X103865654Y-48285860D01*
X104114140Y-48534346D01*
X104402000Y-48735907D01*
X104406978Y-48738228D01*
X104406981Y-48738230D01*
X104441094Y-48754137D01*
X104720487Y-48884420D01*
X104725795Y-48885842D01*
X104725797Y-48885843D01*
X105054610Y-48973948D01*
X105054612Y-48973948D01*
X105059925Y-48975372D01*
X105410000Y-49006000D01*
X105760075Y-48975372D01*
X105765388Y-48973948D01*
X105765390Y-48973948D01*
X106094203Y-48885843D01*
X106094205Y-48885842D01*
X106099513Y-48884420D01*
X106378906Y-48754137D01*
X106413019Y-48738230D01*
X106413022Y-48738228D01*
X106418000Y-48735907D01*
X106705860Y-48534346D01*
X106954346Y-48285860D01*
X107155907Y-47998000D01*
X107163107Y-47982561D01*
X107224859Y-47850133D01*
X107304420Y-47679513D01*
X107305408Y-47675827D01*
X107347194Y-47619075D01*
X107413516Y-47593738D01*
X107483007Y-47608279D01*
X107533606Y-47658082D01*
X107549500Y-47719342D01*
X107549500Y-92668564D01*
X107547949Y-92688274D01*
X107544508Y-92710000D01*
X107546059Y-92719792D01*
X107546059Y-92723235D01*
X107547118Y-92746343D01*
X107531736Y-92981019D01*
X107529585Y-92997359D01*
X107478209Y-93255645D01*
X107473945Y-93271558D01*
X107389295Y-93520930D01*
X107382988Y-93536156D01*
X107266514Y-93772342D01*
X107258273Y-93786616D01*
X107111966Y-94005580D01*
X107101933Y-94018655D01*
X106928294Y-94216653D01*
X106916653Y-94228294D01*
X106861223Y-94276905D01*
X106718655Y-94401933D01*
X106705580Y-94411966D01*
X106486616Y-94558273D01*
X106472342Y-94566514D01*
X106236156Y-94682988D01*
X106220932Y-94689294D01*
X105971558Y-94773945D01*
X105955648Y-94778208D01*
X105883678Y-94792524D01*
X105697359Y-94829585D01*
X105681019Y-94831736D01*
X105446343Y-94847118D01*
X105423235Y-94846059D01*
X105419792Y-94846059D01*
X105410000Y-94844508D01*
X105400207Y-94846059D01*
X105388274Y-94847949D01*
X105368564Y-94849500D01*
X66769342Y-94849500D01*
X66701221Y-94829498D01*
X66654728Y-94775842D01*
X66644624Y-94705568D01*
X66674118Y-94640988D01*
X66725779Y-94605421D01*
X66729513Y-94604420D01*
X66915563Y-94517663D01*
X67043019Y-94458230D01*
X67043022Y-94458228D01*
X67048000Y-94455907D01*
X67335860Y-94254346D01*
X67584346Y-94005860D01*
X67785907Y-93718000D01*
X67802361Y-93682716D01*
X67932097Y-93404495D01*
X67932098Y-93404494D01*
X67934420Y-93399513D01*
X67970800Y-93263743D01*
X68023948Y-93065390D01*
X68023948Y-93065388D01*
X68025372Y-93060075D01*
X68056000Y-92710000D01*
X68025372Y-92359925D01*
X67950614Y-92080925D01*
X67935843Y-92025797D01*
X67935842Y-92025795D01*
X67934420Y-92020487D01*
X67932097Y-92015505D01*
X67788230Y-91706981D01*
X67788228Y-91706978D01*
X67785907Y-91702000D01*
X67584346Y-91414140D01*
X67335860Y-91165654D01*
X67048000Y-90964093D01*
X67043022Y-90961772D01*
X67043019Y-90961770D01*
X66734495Y-90817903D01*
X66734494Y-90817902D01*
X66729513Y-90815580D01*
X66724205Y-90814158D01*
X66724203Y-90814157D01*
X66395390Y-90726052D01*
X66395388Y-90726052D01*
X66390075Y-90724628D01*
X66040000Y-90694000D01*
X65689925Y-90724628D01*
X65684612Y-90726052D01*
X65684610Y-90726052D01*
X65355797Y-90814157D01*
X65355795Y-90814158D01*
X65350487Y-90815580D01*
X65345506Y-90817902D01*
X65345505Y-90817903D01*
X65036981Y-90961770D01*
X65036978Y-90961772D01*
X65032000Y-90964093D01*
X64744140Y-91165654D01*
X64495654Y-91414140D01*
X64294093Y-91702000D01*
X64145580Y-92020487D01*
X64144592Y-92024173D01*
X64102806Y-92080925D01*
X64036484Y-92106262D01*
X63966993Y-92091721D01*
X63916394Y-92041918D01*
X63900500Y-91980658D01*
X63900500Y-76568107D01*
X63920502Y-76499986D01*
X63952390Y-76466206D01*
X64598848Y-75996055D01*
X64665705Y-75972165D01*
X64734864Y-75988212D01*
X64784368Y-76039103D01*
X64797407Y-76078246D01*
X64803284Y-76115351D01*
X64809338Y-76133986D01*
X64857859Y-76229213D01*
X64869370Y-76245056D01*
X64944944Y-76320630D01*
X64960787Y-76332141D01*
X65056018Y-76380664D01*
X65074645Y-76386716D01*
X65153627Y-76399225D01*
X65163473Y-76400000D01*
X65921885Y-76400000D01*
X65937124Y-76395525D01*
X65938329Y-76394135D01*
X65940000Y-76386452D01*
X65940000Y-76381884D01*
X66340000Y-76381884D01*
X66344475Y-76397123D01*
X66345865Y-76398328D01*
X66353548Y-76399999D01*
X67116525Y-76399999D01*
X67126374Y-76399224D01*
X67205351Y-76386717D01*
X67223986Y-76380662D01*
X67319213Y-76332141D01*
X67335056Y-76320630D01*
X67410630Y-76245056D01*
X67422141Y-76229213D01*
X67470664Y-76133982D01*
X67476716Y-76115355D01*
X67489225Y-76036373D01*
X67490000Y-76026527D01*
X67490000Y-75518115D01*
X67485525Y-75502876D01*
X67484135Y-75501671D01*
X67476452Y-75500000D01*
X66358115Y-75500000D01*
X66342876Y-75504475D01*
X66341671Y-75505865D01*
X66340000Y-75513548D01*
X66340000Y-76381884D01*
X65940000Y-76381884D01*
X65940000Y-75385288D01*
X104764316Y-75385288D01*
X104765712Y-75393202D01*
X104819474Y-75593848D01*
X104823220Y-75604140D01*
X104911007Y-75792400D01*
X104916490Y-75801896D01*
X105035628Y-75972043D01*
X105042684Y-75980451D01*
X105189549Y-76127316D01*
X105197957Y-76134372D01*
X105368104Y-76253510D01*
X105377599Y-76258993D01*
X105565860Y-76346780D01*
X105576152Y-76350526D01*
X105776798Y-76404288D01*
X105783280Y-76405431D01*
X105796902Y-76402693D01*
X105800000Y-76390944D01*
X105800000Y-76389162D01*
X106200000Y-76389162D01*
X106204295Y-76403790D01*
X106215288Y-76405684D01*
X106223202Y-76404288D01*
X106423848Y-76350526D01*
X106434140Y-76346780D01*
X106622401Y-76258993D01*
X106631896Y-76253510D01*
X106802043Y-76134372D01*
X106810451Y-76127316D01*
X106957316Y-75980451D01*
X106964372Y-75972043D01*
X107083510Y-75801896D01*
X107088993Y-75792400D01*
X107176780Y-75604140D01*
X107180526Y-75593848D01*
X107234288Y-75393202D01*
X107235431Y-75386720D01*
X107232693Y-75373098D01*
X107220944Y-75370000D01*
X106218115Y-75370000D01*
X106202876Y-75374475D01*
X106201671Y-75375865D01*
X106200000Y-75383548D01*
X106200000Y-76389162D01*
X105800000Y-76389162D01*
X105800000Y-75388115D01*
X105795525Y-75372876D01*
X105794135Y-75371671D01*
X105786452Y-75370000D01*
X104780838Y-75370000D01*
X104766210Y-75374295D01*
X104764316Y-75385288D01*
X65940000Y-75385288D01*
X65940000Y-75081885D01*
X66340000Y-75081885D01*
X66344475Y-75097124D01*
X66345865Y-75098329D01*
X66353548Y-75100000D01*
X67471884Y-75100000D01*
X67487123Y-75095525D01*
X67488328Y-75094135D01*
X67489999Y-75086452D01*
X67489999Y-74573475D01*
X67489224Y-74563626D01*
X67476717Y-74484649D01*
X67470662Y-74466014D01*
X67422141Y-74370787D01*
X67410630Y-74354944D01*
X67335056Y-74279370D01*
X67319213Y-74267859D01*
X67223982Y-74219336D01*
X67205355Y-74213284D01*
X67126373Y-74200775D01*
X67116527Y-74200000D01*
X66358115Y-74200000D01*
X66342876Y-74204475D01*
X66341671Y-74205865D01*
X66340000Y-74213548D01*
X66340000Y-75081885D01*
X65940000Y-75081885D01*
X65940000Y-74218116D01*
X65935525Y-74202877D01*
X65934135Y-74201672D01*
X65926452Y-74200001D01*
X65163475Y-74200001D01*
X65153634Y-74200775D01*
X65146212Y-74201951D01*
X65075801Y-74192852D01*
X65021486Y-74147130D01*
X65000500Y-74077502D01*
X65000500Y-69618481D01*
X67489500Y-69618481D01*
X67489501Y-70381518D01*
X67490276Y-70386411D01*
X67490276Y-70386412D01*
X67502725Y-70465016D01*
X67504354Y-70475304D01*
X67561950Y-70588342D01*
X67651658Y-70678050D01*
X67764696Y-70735646D01*
X67774489Y-70737197D01*
X67783208Y-70738578D01*
X67847361Y-70768988D01*
X67884890Y-70829256D01*
X67889500Y-70863027D01*
X67889501Y-71115031D01*
X67889501Y-71337479D01*
X67869499Y-71405600D01*
X67815844Y-71452093D01*
X67783208Y-71461928D01*
X67774650Y-71463283D01*
X67756014Y-71469338D01*
X67660787Y-71517859D01*
X67644944Y-71529370D01*
X67569370Y-71604944D01*
X67557859Y-71620787D01*
X67509336Y-71716018D01*
X67503284Y-71734645D01*
X67490775Y-71813627D01*
X67490000Y-71823473D01*
X67490000Y-71981885D01*
X67494475Y-71997124D01*
X67495865Y-71998329D01*
X67503548Y-72000000D01*
X69771884Y-72000000D01*
X69787123Y-71995525D01*
X69788328Y-71994135D01*
X69789999Y-71986452D01*
X69789999Y-71963106D01*
X69810001Y-71894985D01*
X69863657Y-71848492D01*
X69896292Y-71838657D01*
X69905505Y-71837198D01*
X69905506Y-71837198D01*
X69915304Y-71835646D01*
X69931027Y-71827635D01*
X69949708Y-71818116D01*
X70028342Y-71778050D01*
X70118050Y-71688342D01*
X70122550Y-71679510D01*
X70128383Y-71671482D01*
X70130839Y-71673266D01*
X70168503Y-71633393D01*
X70203239Y-71619545D01*
X70207005Y-71618662D01*
X70218671Y-71616500D01*
X70251036Y-71612067D01*
X70251038Y-71612066D01*
X70259546Y-71610901D01*
X70267427Y-71607490D01*
X70267429Y-71607490D01*
X70272247Y-71605405D01*
X70293510Y-71598373D01*
X70298629Y-71597172D01*
X70298631Y-71597171D01*
X70306993Y-71595210D01*
X70343175Y-71575319D01*
X70353805Y-71570112D01*
X70391683Y-71553720D01*
X70398359Y-71548314D01*
X70398361Y-71548313D01*
X70402442Y-71545008D01*
X70421026Y-71532520D01*
X70433163Y-71525847D01*
X70440905Y-71519164D01*
X70464109Y-71495960D01*
X70473910Y-71487134D01*
X70489512Y-71474500D01*
X70503575Y-71463112D01*
X70508552Y-71456108D01*
X70514430Y-71449849D01*
X70516290Y-71451596D01*
X70561758Y-71415770D01*
X70608698Y-71406700D01*
X71120015Y-71406700D01*
X71188136Y-71426702D01*
X71234629Y-71480358D01*
X71243320Y-71533610D01*
X71245448Y-71533543D01*
X71245718Y-71542130D01*
X71244820Y-71550671D01*
X71246252Y-71559137D01*
X71246252Y-71559140D01*
X71247735Y-71567907D01*
X71249499Y-71588919D01*
X71249499Y-72451556D01*
X71249388Y-72456832D01*
X71246912Y-72515910D01*
X71254791Y-72549501D01*
X71256336Y-72556088D01*
X71258499Y-72567761D01*
X71264098Y-72608637D01*
X71267509Y-72616518D01*
X71267509Y-72616520D01*
X71269594Y-72621338D01*
X71276626Y-72642601D01*
X71277827Y-72647720D01*
X71279789Y-72656084D01*
X71299680Y-72692266D01*
X71304887Y-72702896D01*
X71321279Y-72740774D01*
X71326685Y-72747450D01*
X71326686Y-72747452D01*
X71329991Y-72751533D01*
X71342479Y-72770117D01*
X71349152Y-72782254D01*
X71355835Y-72789996D01*
X71379039Y-72813200D01*
X71387864Y-72823000D01*
X71392141Y-72828282D01*
X71404633Y-72843708D01*
X71431958Y-72909236D01*
X71419518Y-72979134D01*
X71371263Y-73031211D01*
X71306712Y-73049002D01*
X70316499Y-73049002D01*
X70248378Y-73029000D01*
X70201885Y-72975344D01*
X70191653Y-72928307D01*
X70190887Y-72928367D01*
X70190499Y-72923436D01*
X70190499Y-72918482D01*
X70182650Y-72868921D01*
X70177198Y-72834494D01*
X70177197Y-72834492D01*
X70175646Y-72824696D01*
X70169789Y-72813200D01*
X70152471Y-72779213D01*
X70118050Y-72711658D01*
X70028342Y-72621950D01*
X69915304Y-72564354D01*
X69905511Y-72562803D01*
X69905508Y-72562802D01*
X69896287Y-72561341D01*
X69832135Y-72530928D01*
X69794609Y-72470659D01*
X69790000Y-72436893D01*
X69790000Y-72418115D01*
X69785525Y-72402876D01*
X69784135Y-72401671D01*
X69776452Y-72400000D01*
X67508116Y-72400000D01*
X67492877Y-72404475D01*
X67491672Y-72405865D01*
X67490001Y-72413548D01*
X67490001Y-72576525D01*
X67490776Y-72586374D01*
X67503283Y-72665351D01*
X67509338Y-72683986D01*
X67557859Y-72779213D01*
X67569370Y-72795056D01*
X67644944Y-72870630D01*
X67660787Y-72882141D01*
X67756018Y-72930664D01*
X67774649Y-72936717D01*
X67783213Y-72938074D01*
X67847366Y-72968487D01*
X67884891Y-73028756D01*
X67889500Y-73062522D01*
X67889501Y-73373052D01*
X67889501Y-73681518D01*
X67890276Y-73686411D01*
X67890276Y-73686412D01*
X67894637Y-73713945D01*
X67904354Y-73775304D01*
X67908857Y-73784141D01*
X67908858Y-73784145D01*
X67913267Y-73792798D01*
X67926371Y-73862575D01*
X67913267Y-73907202D01*
X67909426Y-73914741D01*
X67904354Y-73924696D01*
X67889500Y-74018481D01*
X67889501Y-74781518D01*
X67890276Y-74786409D01*
X67890276Y-74786412D01*
X67899611Y-74845353D01*
X67904354Y-74875304D01*
X67961950Y-74988342D01*
X68051658Y-75078050D01*
X68164696Y-75135646D01*
X68174485Y-75137196D01*
X68174487Y-75137197D01*
X68201849Y-75141530D01*
X68258481Y-75150500D01*
X69039842Y-75150500D01*
X69821518Y-75150499D01*
X69826412Y-75149724D01*
X69905506Y-75137198D01*
X69905508Y-75137197D01*
X69915304Y-75135646D01*
X70028342Y-75078050D01*
X70118050Y-74988342D01*
X70175646Y-74875304D01*
X70190500Y-74781519D01*
X70190499Y-74226001D01*
X70210501Y-74157881D01*
X70264157Y-74111388D01*
X70316499Y-74100002D01*
X77288763Y-74100002D01*
X77294040Y-74100113D01*
X77353117Y-74102589D01*
X77393303Y-74093164D01*
X77404969Y-74091002D01*
X77437334Y-74086569D01*
X77437336Y-74086568D01*
X77445844Y-74085403D01*
X77453725Y-74081992D01*
X77453727Y-74081992D01*
X77458545Y-74079907D01*
X77479808Y-74072875D01*
X77484927Y-74071674D01*
X77484929Y-74071673D01*
X77493291Y-74069712D01*
X77529473Y-74049821D01*
X77540103Y-74044614D01*
X77577981Y-74028222D01*
X77584657Y-74022816D01*
X77584659Y-74022815D01*
X77588740Y-74019510D01*
X77607324Y-74007022D01*
X77619461Y-74000349D01*
X77627203Y-73993666D01*
X77650407Y-73970462D01*
X77660208Y-73961636D01*
X77683197Y-73943020D01*
X77689873Y-73937614D01*
X77700004Y-73923358D01*
X77713611Y-73907258D01*
X77924405Y-73696464D01*
X77986717Y-73662438D01*
X78057532Y-73667503D01*
X78114368Y-73710050D01*
X78139179Y-73776570D01*
X78139500Y-73785559D01*
X78139501Y-74212684D01*
X78139501Y-74631518D01*
X78154354Y-74725304D01*
X78158855Y-74734137D01*
X78158857Y-74734142D01*
X78164977Y-74746152D01*
X78211950Y-74838342D01*
X78301658Y-74928050D01*
X78414696Y-74985646D01*
X78424485Y-74987196D01*
X78424487Y-74987197D01*
X78451849Y-74991530D01*
X78508481Y-75000500D01*
X79239852Y-75000500D01*
X79971518Y-75000499D01*
X79976412Y-74999724D01*
X80055506Y-74987198D01*
X80055508Y-74987197D01*
X80065304Y-74985646D01*
X80077349Y-74979509D01*
X80126015Y-74954712D01*
X80178342Y-74928050D01*
X80268050Y-74838342D01*
X80325646Y-74725304D01*
X80340500Y-74631519D01*
X80340500Y-74351500D01*
X80360502Y-74283379D01*
X80414158Y-74236886D01*
X80466500Y-74225500D01*
X83174423Y-74225500D01*
X83222640Y-74235091D01*
X83343238Y-74285044D01*
X83500000Y-74305682D01*
X83508188Y-74304604D01*
X83520114Y-74303034D01*
X83656762Y-74285044D01*
X83802841Y-74224536D01*
X83928282Y-74128282D01*
X84024536Y-74002841D01*
X84085044Y-73856762D01*
X84105682Y-73700000D01*
X84085044Y-73543238D01*
X84024536Y-73397159D01*
X83928282Y-73271718D01*
X83866828Y-73224563D01*
X83824961Y-73167225D01*
X83820739Y-73096354D01*
X83855503Y-73034451D01*
X83918215Y-73001170D01*
X83943532Y-72998600D01*
X87836292Y-72998600D01*
X87904413Y-73018602D01*
X87925387Y-73035504D01*
X88215591Y-73325707D01*
X88219244Y-73329516D01*
X88259278Y-73373052D01*
X88294365Y-73394807D01*
X88304119Y-73401510D01*
X88337000Y-73426468D01*
X88344982Y-73429628D01*
X88344983Y-73429629D01*
X88347160Y-73430491D01*
X88349867Y-73431562D01*
X88369879Y-73441627D01*
X88381644Y-73448922D01*
X88418226Y-73459550D01*
X88421272Y-73460435D01*
X88432501Y-73464280D01*
X88462880Y-73476308D01*
X88462885Y-73476309D01*
X88470868Y-73479470D01*
X88479410Y-73480368D01*
X88479411Y-73480368D01*
X88483239Y-73480770D01*
X88483904Y-73480840D01*
X88484627Y-73480916D01*
X88506612Y-73485229D01*
X88519906Y-73489091D01*
X88526483Y-73489574D01*
X88527798Y-73489671D01*
X88527811Y-73489671D01*
X88530106Y-73489840D01*
X88562924Y-73489840D01*
X88576095Y-73490530D01*
X88594144Y-73492427D01*
X88614057Y-73494520D01*
X88622529Y-73493087D01*
X88622530Y-73493087D01*
X88631291Y-73491605D01*
X88652304Y-73489840D01*
X90021225Y-73489840D01*
X90026502Y-73489951D01*
X90085579Y-73492427D01*
X90125765Y-73483002D01*
X90137431Y-73480840D01*
X90169796Y-73476407D01*
X90169798Y-73476406D01*
X90178306Y-73475241D01*
X90186187Y-73471830D01*
X90186189Y-73471830D01*
X90191007Y-73469745D01*
X90212270Y-73462713D01*
X90217389Y-73461512D01*
X90217391Y-73461511D01*
X90225753Y-73459550D01*
X90261935Y-73439659D01*
X90272565Y-73434452D01*
X90310443Y-73418060D01*
X90317119Y-73412654D01*
X90317121Y-73412653D01*
X90321202Y-73409348D01*
X90339786Y-73396860D01*
X90351923Y-73390187D01*
X90359665Y-73383504D01*
X90382869Y-73360300D01*
X90392670Y-73351474D01*
X90400755Y-73344927D01*
X90422335Y-73327452D01*
X90432466Y-73313196D01*
X90446073Y-73297096D01*
X90741365Y-73001804D01*
X90782242Y-72974490D01*
X90873433Y-72936717D01*
X90902841Y-72924536D01*
X91028282Y-72828282D01*
X91124536Y-72702841D01*
X91185044Y-72556762D01*
X91205682Y-72400000D01*
X91185044Y-72243238D01*
X91124536Y-72097159D01*
X91051796Y-72002362D01*
X91033305Y-71978264D01*
X91028282Y-71971718D01*
X90902841Y-71875464D01*
X90756762Y-71814956D01*
X90600000Y-71794318D01*
X90591812Y-71795396D01*
X90591810Y-71795396D01*
X90535477Y-71802812D01*
X90465329Y-71791872D01*
X90410600Y-71741523D01*
X90408258Y-71735869D01*
X90318323Y-71618663D01*
X90317027Y-71616974D01*
X90312004Y-71610428D01*
X90292172Y-71595210D01*
X90266229Y-71575304D01*
X90186563Y-71514174D01*
X90040484Y-71453666D01*
X89883722Y-71433028D01*
X89726960Y-71453666D01*
X89719333Y-71456825D01*
X89719330Y-71456826D01*
X89632073Y-71492969D01*
X89561483Y-71500558D01*
X89507151Y-71476523D01*
X89504117Y-71474195D01*
X89493179Y-71465802D01*
X89378055Y-71418116D01*
X89372580Y-71415848D01*
X89331703Y-71388534D01*
X86994905Y-69051736D01*
X86991252Y-69047927D01*
X86957034Y-69010715D01*
X86951216Y-69004388D01*
X86916144Y-68982642D01*
X86906362Y-68975919D01*
X86880340Y-68956167D01*
X86873496Y-68950972D01*
X86865509Y-68947810D01*
X86865506Y-68947808D01*
X86860617Y-68945872D01*
X86840616Y-68935813D01*
X86828850Y-68928518D01*
X86789219Y-68917004D01*
X86777995Y-68913160D01*
X86747616Y-68901133D01*
X86747613Y-68901132D01*
X86739628Y-68897971D01*
X86731091Y-68897074D01*
X86731084Y-68897072D01*
X86725861Y-68896523D01*
X86703884Y-68892212D01*
X86696922Y-68890189D01*
X86696920Y-68890189D01*
X86690588Y-68888349D01*
X86683773Y-68887849D01*
X86682696Y-68887769D01*
X86682683Y-68887769D01*
X86680388Y-68887600D01*
X86647561Y-68887600D01*
X86634390Y-68886910D01*
X86596438Y-68882921D01*
X86587972Y-68884353D01*
X86587969Y-68884353D01*
X86579202Y-68885836D01*
X86558190Y-68887600D01*
X85944008Y-68887600D01*
X85875887Y-68867598D01*
X85829394Y-68813942D01*
X85819086Y-68778046D01*
X85814616Y-68744088D01*
X85806644Y-68683538D01*
X85746136Y-68537459D01*
X85649882Y-68412018D01*
X85524441Y-68315764D01*
X85378362Y-68255256D01*
X85338515Y-68250010D01*
X85229788Y-68235696D01*
X85221600Y-68234618D01*
X85213412Y-68235696D01*
X85104686Y-68250010D01*
X85064838Y-68255256D01*
X84918759Y-68315764D01*
X84860103Y-68360772D01*
X84841088Y-68375363D01*
X84774868Y-68400963D01*
X84764384Y-68401400D01*
X80466500Y-68401400D01*
X80398379Y-68381398D01*
X80351886Y-68327742D01*
X80340500Y-68275400D01*
X80340499Y-66773437D01*
X80340499Y-66768482D01*
X80338250Y-66754282D01*
X80327198Y-66684494D01*
X80327197Y-66684492D01*
X80325646Y-66674696D01*
X80321047Y-66665669D01*
X80293649Y-66611899D01*
X80268050Y-66561658D01*
X80178342Y-66471950D01*
X80065304Y-66414354D01*
X80055515Y-66412804D01*
X80055513Y-66412803D01*
X80025975Y-66408125D01*
X79971519Y-66399500D01*
X79240148Y-66399500D01*
X78508482Y-66399501D01*
X78503589Y-66400276D01*
X78503588Y-66400276D01*
X78424494Y-66412802D01*
X78424492Y-66412803D01*
X78414696Y-66414354D01*
X78301658Y-66471950D01*
X78211950Y-66561658D01*
X78154354Y-66674696D01*
X78139500Y-66768481D01*
X78139501Y-67572865D01*
X78139501Y-68074742D01*
X78119499Y-68142863D01*
X78065843Y-68189356D01*
X77995569Y-68199460D01*
X77930989Y-68169967D01*
X77924406Y-68163837D01*
X77199205Y-67438636D01*
X77195552Y-67434827D01*
X77161334Y-67397615D01*
X77155516Y-67391288D01*
X77134166Y-67378050D01*
X77120445Y-67369543D01*
X77110662Y-67362819D01*
X77084640Y-67343067D01*
X77077796Y-67337872D01*
X77069809Y-67334710D01*
X77069806Y-67334708D01*
X77064917Y-67332772D01*
X77044916Y-67322713D01*
X77033150Y-67315418D01*
X76993519Y-67303904D01*
X76982295Y-67300060D01*
X76951916Y-67288033D01*
X76951913Y-67288032D01*
X76943928Y-67284871D01*
X76935391Y-67283974D01*
X76935384Y-67283972D01*
X76930161Y-67283423D01*
X76908184Y-67279112D01*
X76901222Y-67277089D01*
X76901220Y-67277089D01*
X76894888Y-67275249D01*
X76888073Y-67274749D01*
X76886996Y-67274669D01*
X76886983Y-67274669D01*
X76884688Y-67274500D01*
X76851861Y-67274500D01*
X76838690Y-67273810D01*
X76800738Y-67269821D01*
X76792272Y-67271253D01*
X76792269Y-67271253D01*
X76783502Y-67272736D01*
X76762490Y-67274500D01*
X70625990Y-67274500D01*
X70557869Y-67254498D01*
X70524055Y-67222563D01*
X70522553Y-67220496D01*
X70518050Y-67211658D01*
X70428342Y-67121950D01*
X70315304Y-67064354D01*
X70296792Y-67061422D01*
X70232639Y-67031012D01*
X70195110Y-66970744D01*
X70190500Y-66936973D01*
X70190499Y-66323437D01*
X70190499Y-66318482D01*
X70184480Y-66280476D01*
X70177198Y-66234494D01*
X70177197Y-66234492D01*
X70175646Y-66224696D01*
X70169361Y-66212360D01*
X70137156Y-66149156D01*
X70118050Y-66111658D01*
X70028342Y-66021950D01*
X69915304Y-65964354D01*
X69905515Y-65962804D01*
X69905513Y-65962803D01*
X69878151Y-65958470D01*
X69821519Y-65949500D01*
X69040158Y-65949500D01*
X68258482Y-65949501D01*
X68253589Y-65950276D01*
X68253588Y-65950276D01*
X68174494Y-65962802D01*
X68174492Y-65962803D01*
X68164696Y-65964354D01*
X68051658Y-66021950D01*
X67961950Y-66111658D01*
X67904354Y-66224696D01*
X67902804Y-66234485D01*
X67902803Y-66234487D01*
X67902257Y-66237935D01*
X67889500Y-66318481D01*
X67889501Y-67081518D01*
X67890276Y-67086411D01*
X67890276Y-67086412D01*
X67897590Y-67132592D01*
X67904354Y-67175304D01*
X67961950Y-67288342D01*
X68051658Y-67378050D01*
X68164696Y-67435646D01*
X68174489Y-67437197D01*
X68183208Y-67438578D01*
X68247361Y-67468988D01*
X68284890Y-67529256D01*
X68289500Y-67563027D01*
X68289501Y-68036973D01*
X68269499Y-68105094D01*
X68215844Y-68151587D01*
X68183211Y-68161422D01*
X68181804Y-68161645D01*
X68174493Y-68162802D01*
X68174490Y-68162803D01*
X68164696Y-68164354D01*
X68155859Y-68168857D01*
X68155858Y-68168857D01*
X68138625Y-68177638D01*
X68051658Y-68221950D01*
X67961950Y-68311658D01*
X67904354Y-68424696D01*
X67889500Y-68518481D01*
X67889501Y-68883819D01*
X67889501Y-69136973D01*
X67869499Y-69205094D01*
X67815843Y-69251587D01*
X67783211Y-69261422D01*
X67781804Y-69261645D01*
X67774493Y-69262802D01*
X67774490Y-69262803D01*
X67764696Y-69264354D01*
X67651658Y-69321950D01*
X67561950Y-69411658D01*
X67504354Y-69524696D01*
X67502804Y-69534485D01*
X67502803Y-69534487D01*
X67501417Y-69543238D01*
X67489500Y-69618481D01*
X65000500Y-69618481D01*
X65000500Y-64590654D01*
X71748133Y-64590654D01*
X71783941Y-64799047D01*
X71857127Y-64997425D01*
X71965238Y-65179144D01*
X72104655Y-65338119D01*
X72270708Y-65469024D01*
X72275819Y-65471713D01*
X72275822Y-65471715D01*
X72306241Y-65487719D01*
X72457836Y-65567477D01*
X72659773Y-65630180D01*
X72665510Y-65630859D01*
X72827768Y-65650064D01*
X72827775Y-65650064D01*
X72831455Y-65650500D01*
X72953641Y-65650500D01*
X73110560Y-65636081D01*
X73116122Y-65634512D01*
X73116124Y-65634512D01*
X73190056Y-65613661D01*
X73314069Y-65578686D01*
X73319247Y-65576133D01*
X73319251Y-65576131D01*
X73498531Y-65487719D01*
X73503710Y-65485165D01*
X73645882Y-65379000D01*
X73668509Y-65362104D01*
X73668510Y-65362103D01*
X73673133Y-65358651D01*
X73787790Y-65234616D01*
X73812743Y-65207622D01*
X73812745Y-65207620D01*
X73816663Y-65203381D01*
X73829215Y-65183488D01*
X73926416Y-65029434D01*
X73926416Y-65029433D01*
X73929495Y-65024554D01*
X74007848Y-64828160D01*
X74008973Y-64822503D01*
X74008975Y-64822497D01*
X74047972Y-64626442D01*
X74047972Y-64626440D01*
X74049099Y-64620775D01*
X74049494Y-64590654D01*
X74051595Y-64430141D01*
X74051867Y-64409346D01*
X74040070Y-64340691D01*
X74017038Y-64206650D01*
X74017038Y-64206649D01*
X74016059Y-64200953D01*
X73942873Y-64002575D01*
X73899936Y-63930404D01*
X73837716Y-63825821D01*
X73837715Y-63825820D01*
X73834762Y-63820856D01*
X73695345Y-63661881D01*
X73529292Y-63530976D01*
X73524181Y-63528287D01*
X73524178Y-63528285D01*
X73378963Y-63451884D01*
X73342164Y-63432523D01*
X73170519Y-63379226D01*
X73145744Y-63371533D01*
X73145743Y-63371533D01*
X73140227Y-63369820D01*
X73115556Y-63366900D01*
X72972232Y-63349936D01*
X72972225Y-63349936D01*
X72968545Y-63349500D01*
X72846359Y-63349500D01*
X72689440Y-63363919D01*
X72683878Y-63365488D01*
X72683876Y-63365488D01*
X72659269Y-63372428D01*
X72485931Y-63421314D01*
X72480753Y-63423867D01*
X72480749Y-63423869D01*
X72342951Y-63491824D01*
X72296290Y-63514835D01*
X72126867Y-63641349D01*
X72072651Y-63700000D01*
X71994771Y-63784250D01*
X71983337Y-63796619D01*
X71980256Y-63801502D01*
X71898925Y-63930404D01*
X71870505Y-63975446D01*
X71792152Y-64171840D01*
X71791027Y-64177497D01*
X71791025Y-64177503D01*
X71769745Y-64284488D01*
X71750901Y-64379225D01*
X71750825Y-64385000D01*
X71750825Y-64385004D01*
X71750308Y-64424536D01*
X71748133Y-64590654D01*
X65000500Y-64590654D01*
X65000500Y-64336567D01*
X64997436Y-64327136D01*
X64997435Y-64327132D01*
X64993703Y-64315647D01*
X64989087Y-64296422D01*
X64987197Y-64284488D01*
X64987197Y-64284487D01*
X64985646Y-64274696D01*
X64981145Y-64265863D01*
X64981144Y-64265859D01*
X64975659Y-64255094D01*
X64968093Y-64236830D01*
X64961296Y-64215910D01*
X64948361Y-64198107D01*
X64938035Y-64181255D01*
X64932554Y-64170498D01*
X64928050Y-64161658D01*
X64905487Y-64139095D01*
X64905484Y-64139091D01*
X64181488Y-63415095D01*
X64147462Y-63352783D01*
X64152527Y-63281968D01*
X64195074Y-63225132D01*
X64261594Y-63200321D01*
X64270583Y-63200000D01*
X65021885Y-63200000D01*
X65037124Y-63195525D01*
X65038329Y-63194135D01*
X65040000Y-63186452D01*
X65040000Y-63181884D01*
X65440000Y-63181884D01*
X65444475Y-63197123D01*
X65445865Y-63198328D01*
X65453548Y-63199999D01*
X66216525Y-63199999D01*
X66226374Y-63199224D01*
X66305351Y-63186717D01*
X66323986Y-63180662D01*
X66419213Y-63132141D01*
X66435056Y-63120630D01*
X66510630Y-63045056D01*
X66522141Y-63029213D01*
X66570664Y-62933982D01*
X66576716Y-62915355D01*
X66589225Y-62836373D01*
X66590000Y-62826527D01*
X66590000Y-62318115D01*
X66585525Y-62302876D01*
X66584135Y-62301671D01*
X66576452Y-62300000D01*
X65458115Y-62300000D01*
X65442876Y-62304475D01*
X65441671Y-62305865D01*
X65440000Y-62313548D01*
X65440000Y-63181884D01*
X65040000Y-63181884D01*
X65040000Y-61881885D01*
X65440000Y-61881885D01*
X65444475Y-61897124D01*
X65445865Y-61898329D01*
X65453548Y-61900000D01*
X66571884Y-61900000D01*
X66587123Y-61895525D01*
X66588328Y-61894135D01*
X66589999Y-61886452D01*
X66589999Y-61373475D01*
X66589224Y-61363626D01*
X66576717Y-61284649D01*
X66570662Y-61266014D01*
X66522141Y-61170787D01*
X66510630Y-61154944D01*
X66435056Y-61079370D01*
X66419213Y-61067859D01*
X66323982Y-61019336D01*
X66305355Y-61013284D01*
X66226373Y-61000775D01*
X66216527Y-61000000D01*
X65458115Y-61000000D01*
X65442876Y-61004475D01*
X65441671Y-61005865D01*
X65440000Y-61013548D01*
X65440000Y-61881885D01*
X65040000Y-61881885D01*
X65040000Y-61018116D01*
X65035525Y-61002877D01*
X65034135Y-61001672D01*
X65026452Y-61000001D01*
X64263475Y-61000001D01*
X64253626Y-61000776D01*
X64174649Y-61013283D01*
X64156015Y-61019338D01*
X64083703Y-61056183D01*
X64013927Y-61069287D01*
X63948142Y-61042587D01*
X63907235Y-60984560D01*
X63900500Y-60943916D01*
X63900500Y-58768481D01*
X71299500Y-58768481D01*
X71299501Y-60431518D01*
X71314354Y-60525304D01*
X71371950Y-60638342D01*
X71461658Y-60728050D01*
X71574696Y-60785646D01*
X71584485Y-60787196D01*
X71584487Y-60787197D01*
X71611849Y-60791530D01*
X71668481Y-60800500D01*
X73399650Y-60800500D01*
X75131518Y-60800499D01*
X75136412Y-60799724D01*
X75215506Y-60787198D01*
X75215508Y-60787197D01*
X75225304Y-60785646D01*
X75338342Y-60728050D01*
X75428050Y-60638342D01*
X75485646Y-60525304D01*
X75500500Y-60431519D01*
X75500499Y-58768482D01*
X75499724Y-58763588D01*
X75487198Y-58684494D01*
X75487197Y-58684492D01*
X75485646Y-58674696D01*
X75477649Y-58659000D01*
X75466937Y-58637978D01*
X75428050Y-58561658D01*
X75338342Y-58471950D01*
X75225304Y-58414354D01*
X75215515Y-58412804D01*
X75215513Y-58412803D01*
X75188151Y-58408470D01*
X75131519Y-58399500D01*
X73400350Y-58399500D01*
X71668482Y-58399501D01*
X71663589Y-58400276D01*
X71663588Y-58400276D01*
X71584494Y-58412802D01*
X71584492Y-58412803D01*
X71574696Y-58414354D01*
X71461658Y-58471950D01*
X71371950Y-58561658D01*
X71314354Y-58674696D01*
X71299500Y-58768481D01*
X63900500Y-58768481D01*
X63900500Y-57726525D01*
X65500001Y-57726525D01*
X65500776Y-57736374D01*
X65513283Y-57815351D01*
X65519338Y-57833986D01*
X65567859Y-57929213D01*
X65579370Y-57945056D01*
X65654944Y-58020630D01*
X65670787Y-58032141D01*
X65766018Y-58080664D01*
X65784645Y-58086716D01*
X65863627Y-58099225D01*
X65873473Y-58100000D01*
X67981885Y-58100000D01*
X67997124Y-58095525D01*
X67998329Y-58094135D01*
X68000000Y-58086452D01*
X68000000Y-58081884D01*
X68400000Y-58081884D01*
X68404475Y-58097123D01*
X68405865Y-58098328D01*
X68413548Y-58099999D01*
X70526525Y-58099999D01*
X70536374Y-58099224D01*
X70615351Y-58086717D01*
X70633986Y-58080662D01*
X70729213Y-58032141D01*
X70745056Y-58020630D01*
X70820630Y-57945056D01*
X70832141Y-57929213D01*
X70880664Y-57833982D01*
X70886716Y-57815355D01*
X70899225Y-57736373D01*
X70900000Y-57726527D01*
X70900000Y-57418115D01*
X70895525Y-57402876D01*
X70894135Y-57401671D01*
X70886452Y-57400000D01*
X68418115Y-57400000D01*
X68402876Y-57404475D01*
X68401671Y-57405865D01*
X68400000Y-57413548D01*
X68400000Y-58081884D01*
X68000000Y-58081884D01*
X68000000Y-57418115D01*
X67995525Y-57402876D01*
X67994135Y-57401671D01*
X67986452Y-57400000D01*
X65518116Y-57400000D01*
X65502877Y-57404475D01*
X65501672Y-57405865D01*
X65500001Y-57413548D01*
X65500001Y-57726525D01*
X63900500Y-57726525D01*
X63900500Y-54668481D01*
X65499500Y-54668481D01*
X65499501Y-55731518D01*
X65514354Y-55825304D01*
X65571950Y-55938342D01*
X65661658Y-56028050D01*
X65765862Y-56081145D01*
X65774696Y-56085646D01*
X65773817Y-56087370D01*
X65822278Y-56120510D01*
X65849913Y-56185907D01*
X65837804Y-56255863D01*
X65789797Y-56308168D01*
X65771875Y-56316352D01*
X65670787Y-56367859D01*
X65654944Y-56379370D01*
X65579370Y-56454944D01*
X65567859Y-56470787D01*
X65519336Y-56566018D01*
X65513284Y-56584645D01*
X65500775Y-56663627D01*
X65500000Y-56673473D01*
X65500000Y-56981885D01*
X65504475Y-56997124D01*
X65505865Y-56998329D01*
X65513548Y-57000000D01*
X70881884Y-57000000D01*
X70897123Y-56995525D01*
X70898328Y-56994135D01*
X70899999Y-56986452D01*
X70899999Y-56673475D01*
X70899224Y-56663626D01*
X70886717Y-56584649D01*
X70880662Y-56566014D01*
X70832141Y-56470787D01*
X70820630Y-56454944D01*
X70745056Y-56379370D01*
X70729213Y-56367859D01*
X70625148Y-56314835D01*
X70626048Y-56313068D01*
X70577727Y-56280030D01*
X70550087Y-56214635D01*
X70562190Y-56144678D01*
X70610194Y-56092369D01*
X70624709Y-56085740D01*
X70625304Y-56085646D01*
X70738342Y-56028050D01*
X70828050Y-55938342D01*
X70885646Y-55825304D01*
X70887198Y-55815506D01*
X70888270Y-55808743D01*
X70918683Y-55744590D01*
X70970220Y-55712467D01*
X70969543Y-55710903D01*
X70972764Y-55709509D01*
X70977193Y-55708121D01*
X70978836Y-55707097D01*
X70985252Y-55705306D01*
X70992928Y-55702633D01*
X71001344Y-55700936D01*
X71008995Y-55697038D01*
X71008997Y-55697037D01*
X71047240Y-55677551D01*
X71054401Y-55674181D01*
X71101683Y-55653720D01*
X71108356Y-55648316D01*
X71115309Y-55644106D01*
X71121980Y-55639469D01*
X71129630Y-55635571D01*
X71167549Y-55600703D01*
X71173540Y-55595532D01*
X71206902Y-55568516D01*
X71206903Y-55568514D01*
X71213575Y-55563112D01*
X71218550Y-55556112D01*
X71224120Y-55550180D01*
X71229294Y-55543926D01*
X71235612Y-55538116D01*
X71240134Y-55530823D01*
X71240138Y-55530818D01*
X71262760Y-55494333D01*
X71267138Y-55487743D01*
X71292002Y-55452754D01*
X71296979Y-55445751D01*
X71299889Y-55437667D01*
X71303652Y-55430470D01*
X71306955Y-55423051D01*
X71311482Y-55415750D01*
X71325854Y-55366282D01*
X71328299Y-55358757D01*
X71342841Y-55318364D01*
X71345750Y-55310285D01*
X71346379Y-55301722D01*
X71348166Y-55293315D01*
X71348422Y-55293369D01*
X71348959Y-55290384D01*
X71348640Y-55290327D01*
X71349810Y-55283825D01*
X71351651Y-55277488D01*
X71352400Y-55267288D01*
X71352400Y-55224347D01*
X71352738Y-55215120D01*
X71355024Y-55183982D01*
X71356294Y-55166693D01*
X71354597Y-55158275D01*
X71354347Y-55154308D01*
X71352400Y-55134805D01*
X71352400Y-54077994D01*
X71372402Y-54009873D01*
X71426058Y-53963380D01*
X71496332Y-53953276D01*
X71535603Y-53965727D01*
X71574696Y-53985646D01*
X71584485Y-53987196D01*
X71584487Y-53987197D01*
X71611849Y-53991530D01*
X71668481Y-54000500D01*
X73399650Y-54000500D01*
X75131518Y-54000499D01*
X75136412Y-53999724D01*
X75215506Y-53987198D01*
X75215508Y-53987197D01*
X75225304Y-53985646D01*
X75249266Y-53973437D01*
X75288833Y-53953276D01*
X75338342Y-53928050D01*
X75375305Y-53891087D01*
X75437617Y-53857061D01*
X75508432Y-53862126D01*
X75565268Y-53904673D01*
X75590079Y-53971193D01*
X75590400Y-53980182D01*
X75590400Y-54811623D01*
X75580809Y-54859840D01*
X75530856Y-54980438D01*
X75510218Y-55137200D01*
X75530856Y-55293962D01*
X75591364Y-55440041D01*
X75687618Y-55565482D01*
X75694164Y-55570505D01*
X75704050Y-55578091D01*
X75813059Y-55661736D01*
X75959138Y-55722244D01*
X76115900Y-55742882D01*
X76124088Y-55741804D01*
X76165068Y-55736409D01*
X76272662Y-55722244D01*
X76418741Y-55661736D01*
X76527750Y-55578091D01*
X76537636Y-55570505D01*
X76544182Y-55565482D01*
X76640436Y-55440041D01*
X76700944Y-55293962D01*
X76721582Y-55137200D01*
X76700944Y-54980438D01*
X76650991Y-54859840D01*
X76641400Y-54811623D01*
X76641400Y-53476000D01*
X76661402Y-53407879D01*
X76715058Y-53361386D01*
X76767400Y-53350000D01*
X76795838Y-53350000D01*
X76809009Y-53350690D01*
X76846961Y-53354679D01*
X76855427Y-53353247D01*
X76855430Y-53353247D01*
X76864197Y-53351764D01*
X76885209Y-53350000D01*
X87302821Y-53350000D01*
X87308098Y-53350111D01*
X87367175Y-53352587D01*
X87407361Y-53343162D01*
X87419027Y-53341000D01*
X87451392Y-53336567D01*
X87451394Y-53336566D01*
X87459902Y-53335401D01*
X87467783Y-53331990D01*
X87467785Y-53331990D01*
X87472603Y-53329905D01*
X87493866Y-53322873D01*
X87498985Y-53321672D01*
X87498987Y-53321671D01*
X87507349Y-53319710D01*
X87543531Y-53299819D01*
X87554161Y-53294612D01*
X87592039Y-53278220D01*
X87598715Y-53272814D01*
X87598717Y-53272813D01*
X87602798Y-53269508D01*
X87621382Y-53257020D01*
X87633519Y-53250347D01*
X87641261Y-53243664D01*
X87664465Y-53220460D01*
X87674266Y-53211634D01*
X87697255Y-53193018D01*
X87703931Y-53187612D01*
X87714062Y-53173356D01*
X87727669Y-53157256D01*
X88361331Y-52523594D01*
X88423643Y-52489568D01*
X88450426Y-52486689D01*
X94208500Y-52486689D01*
X94276621Y-52506691D01*
X94323114Y-52560347D01*
X94334500Y-52612689D01*
X94334501Y-53849998D01*
X94334501Y-55081518D01*
X94335276Y-55086411D01*
X94335276Y-55086412D01*
X94342023Y-55129012D01*
X94349354Y-55175304D01*
X94406950Y-55288342D01*
X94413962Y-55295354D01*
X94415548Y-55297537D01*
X94439408Y-55364404D01*
X94423329Y-55433556D01*
X94372417Y-55483037D01*
X94313614Y-55497600D01*
X90935426Y-55497600D01*
X90930149Y-55497489D01*
X90929553Y-55497464D01*
X90871081Y-55495013D01*
X90862715Y-55496975D01*
X90862716Y-55496975D01*
X90830908Y-55504435D01*
X90819238Y-55506598D01*
X90778354Y-55512199D01*
X90770474Y-55515609D01*
X90765649Y-55517697D01*
X90744380Y-55524731D01*
X90739271Y-55525929D01*
X90739269Y-55525930D01*
X90730907Y-55527891D01*
X90723381Y-55532029D01*
X90723377Y-55532030D01*
X90694747Y-55547770D01*
X90684102Y-55552986D01*
X90646217Y-55569380D01*
X90639540Y-55574787D01*
X90635460Y-55578091D01*
X90616870Y-55590583D01*
X90604737Y-55597253D01*
X90596995Y-55603936D01*
X90573791Y-55627140D01*
X90563991Y-55635965D01*
X90534325Y-55659988D01*
X90524194Y-55674244D01*
X90510587Y-55690344D01*
X87238636Y-58962295D01*
X87234827Y-58965948D01*
X87191288Y-59005984D01*
X87186760Y-59013287D01*
X87186759Y-59013288D01*
X87169543Y-59041055D01*
X87162820Y-59050837D01*
X87137872Y-59083704D01*
X87134710Y-59091691D01*
X87134708Y-59091694D01*
X87132772Y-59096583D01*
X87122713Y-59116584D01*
X87115418Y-59128350D01*
X87103905Y-59167977D01*
X87100060Y-59179205D01*
X87088033Y-59209584D01*
X87088032Y-59209587D01*
X87084871Y-59217572D01*
X87083974Y-59226109D01*
X87083972Y-59226116D01*
X87083423Y-59231339D01*
X87079112Y-59253315D01*
X87075249Y-59266612D01*
X87074500Y-59276812D01*
X87074500Y-59309639D01*
X87073810Y-59322810D01*
X87069821Y-59360762D01*
X87071253Y-59369228D01*
X87071253Y-59369231D01*
X87072736Y-59377998D01*
X87074500Y-59399010D01*
X87074500Y-59719323D01*
X87064909Y-59767540D01*
X87014956Y-59888138D01*
X86994318Y-60044900D01*
X87014956Y-60201662D01*
X87075464Y-60347741D01*
X87171718Y-60473182D01*
X87297159Y-60569436D01*
X87443238Y-60629944D01*
X87600000Y-60650582D01*
X87608188Y-60649504D01*
X87748574Y-60631022D01*
X87756762Y-60629944D01*
X87902841Y-60569436D01*
X88028282Y-60473182D01*
X88124536Y-60347741D01*
X88185044Y-60201662D01*
X88205682Y-60044900D01*
X88185044Y-59888138D01*
X88135091Y-59767540D01*
X88125500Y-59719323D01*
X88125500Y-59613959D01*
X88145502Y-59545838D01*
X88162405Y-59524864D01*
X90083088Y-57604181D01*
X90145400Y-57570155D01*
X90216215Y-57575220D01*
X90248886Y-57593313D01*
X90315604Y-57644507D01*
X90315608Y-57644509D01*
X90322159Y-57649536D01*
X90419015Y-57689655D01*
X90460611Y-57706885D01*
X90460612Y-57706885D01*
X90468238Y-57710044D01*
X90476422Y-57711121D01*
X90480540Y-57712225D01*
X90537022Y-57744836D01*
X90562595Y-57770409D01*
X90596621Y-57832721D01*
X90599500Y-57859504D01*
X90599500Y-58507985D01*
X90579498Y-58576106D01*
X90525842Y-58622599D01*
X90489947Y-58632907D01*
X90443238Y-58639056D01*
X90297159Y-58699564D01*
X90171718Y-58795818D01*
X90075464Y-58921259D01*
X90014956Y-59067338D01*
X89994318Y-59224100D01*
X90014956Y-59380862D01*
X90075464Y-59526941D01*
X90080494Y-59533496D01*
X90082619Y-59537177D01*
X90099500Y-59600178D01*
X90099500Y-63029819D01*
X90098172Y-63041704D01*
X90098682Y-63041745D01*
X90097962Y-63050691D01*
X90095981Y-63059447D01*
X90097765Y-63088193D01*
X90099258Y-63112264D01*
X90099500Y-63120067D01*
X90099500Y-63135940D01*
X90100135Y-63140374D01*
X90100948Y-63146050D01*
X90101978Y-63156106D01*
X90104859Y-63202538D01*
X90107907Y-63210982D01*
X90108676Y-63214694D01*
X90112343Y-63229399D01*
X90113404Y-63233027D01*
X90114677Y-63241918D01*
X90133939Y-63284282D01*
X90137746Y-63293637D01*
X90150491Y-63328943D01*
X90150493Y-63328947D01*
X90153540Y-63337387D01*
X90158835Y-63344635D01*
X90160611Y-63347975D01*
X90168274Y-63361089D01*
X90170303Y-63364261D01*
X90174016Y-63372428D01*
X90179871Y-63379223D01*
X90179873Y-63379226D01*
X90204387Y-63407675D01*
X90210675Y-63415595D01*
X90218522Y-63426336D01*
X90229265Y-63437079D01*
X90235623Y-63443925D01*
X90267600Y-63481037D01*
X90275134Y-63485920D01*
X90281896Y-63491819D01*
X90281892Y-63491824D01*
X90292986Y-63500800D01*
X90780164Y-63987978D01*
X90812775Y-64044460D01*
X90813879Y-64048578D01*
X90814956Y-64056762D01*
X90875464Y-64202841D01*
X90971718Y-64328282D01*
X91097159Y-64424536D01*
X91104785Y-64427695D01*
X91108362Y-64429760D01*
X91157355Y-64481142D01*
X91170791Y-64550856D01*
X91144405Y-64616767D01*
X91134457Y-64627974D01*
X90508436Y-65253995D01*
X90446124Y-65288021D01*
X90419341Y-65290900D01*
X89766135Y-65290900D01*
X89717917Y-65281309D01*
X89605191Y-65234616D01*
X89597562Y-65231456D01*
X89440800Y-65210818D01*
X89284038Y-65231456D01*
X89137959Y-65291964D01*
X89131406Y-65296992D01*
X89131403Y-65296994D01*
X89036962Y-65369461D01*
X88970742Y-65395062D01*
X88901193Y-65380797D01*
X88871163Y-65358594D01*
X88750204Y-65237635D01*
X88722890Y-65196758D01*
X88676096Y-65083789D01*
X88672936Y-65076159D01*
X88576682Y-64950718D01*
X88451241Y-64854464D01*
X88305162Y-64793956D01*
X88290480Y-64792023D01*
X88156588Y-64774396D01*
X88148400Y-64773318D01*
X88140212Y-64774396D01*
X88006321Y-64792023D01*
X87991638Y-64793956D01*
X87845559Y-64854464D01*
X87720118Y-64950718D01*
X87623864Y-65076159D01*
X87563356Y-65222238D01*
X87542718Y-65379000D01*
X87563356Y-65535762D01*
X87623864Y-65681841D01*
X87628891Y-65688392D01*
X87709346Y-65793243D01*
X87720118Y-65807282D01*
X87726664Y-65812305D01*
X87740259Y-65822737D01*
X87845559Y-65903536D01*
X87898981Y-65925664D01*
X87966158Y-65953490D01*
X88007035Y-65980804D01*
X88484717Y-66458486D01*
X88518743Y-66520798D01*
X88513678Y-66591613D01*
X88471131Y-66648449D01*
X88445666Y-66663217D01*
X88432117Y-66669080D01*
X88425440Y-66674487D01*
X88421360Y-66677791D01*
X88402770Y-66690283D01*
X88390637Y-66696953D01*
X88382895Y-66703636D01*
X88359691Y-66726840D01*
X88349891Y-66735665D01*
X88320225Y-66759688D01*
X88310094Y-66773944D01*
X88296487Y-66790044D01*
X87838736Y-67247795D01*
X87834927Y-67251448D01*
X87804843Y-67279112D01*
X87791388Y-67291484D01*
X87786860Y-67298787D01*
X87786859Y-67298788D01*
X87769643Y-67326555D01*
X87762920Y-67336337D01*
X87737972Y-67369204D01*
X87734810Y-67377191D01*
X87734808Y-67377194D01*
X87732872Y-67382083D01*
X87722813Y-67402084D01*
X87715518Y-67413850D01*
X87713121Y-67422102D01*
X87709628Y-67429946D01*
X87708721Y-67429542D01*
X87692942Y-67460712D01*
X87675564Y-67483359D01*
X87672403Y-67490991D01*
X87619711Y-67618201D01*
X87615056Y-67629438D01*
X87594418Y-67786200D01*
X87615056Y-67942962D01*
X87675564Y-68089041D01*
X87771818Y-68214482D01*
X87778364Y-68219505D01*
X87782523Y-68222696D01*
X87897259Y-68310736D01*
X88043338Y-68371244D01*
X88200100Y-68391882D01*
X88208288Y-68390804D01*
X88348674Y-68372322D01*
X88356862Y-68371244D01*
X88502941Y-68310736D01*
X88594579Y-68240420D01*
X88602585Y-68234277D01*
X88668806Y-68208677D01*
X88727506Y-68217831D01*
X88742856Y-68224189D01*
X88783734Y-68251503D01*
X94833395Y-74301164D01*
X94837048Y-74304973D01*
X94877084Y-74348512D01*
X94912168Y-74370265D01*
X94921936Y-74376979D01*
X94954805Y-74401928D01*
X94962786Y-74405088D01*
X94962788Y-74405089D01*
X94967674Y-74407023D01*
X94987690Y-74417091D01*
X94999450Y-74424382D01*
X95007694Y-74426777D01*
X95007696Y-74426778D01*
X95039074Y-74435894D01*
X95050303Y-74439739D01*
X95080686Y-74451768D01*
X95080688Y-74451768D01*
X95088673Y-74454930D01*
X95102298Y-74456362D01*
X95102442Y-74456377D01*
X95124422Y-74460690D01*
X95137712Y-74464551D01*
X95144293Y-74465034D01*
X95144297Y-74465035D01*
X95145604Y-74465131D01*
X95145617Y-74465131D01*
X95147912Y-74465300D01*
X95180729Y-74465300D01*
X95193900Y-74465990D01*
X95211949Y-74467887D01*
X95231862Y-74469980D01*
X95240334Y-74468547D01*
X95240335Y-74468547D01*
X95249096Y-74467065D01*
X95270109Y-74465300D01*
X103498865Y-74465300D01*
X103504142Y-74465411D01*
X103563219Y-74467887D01*
X103603405Y-74458462D01*
X103615071Y-74456300D01*
X103647436Y-74451867D01*
X103647438Y-74451866D01*
X103655946Y-74450701D01*
X103663827Y-74447290D01*
X103663829Y-74447290D01*
X103668647Y-74445205D01*
X103689910Y-74438173D01*
X103695029Y-74436972D01*
X103695031Y-74436971D01*
X103703393Y-74435010D01*
X103739575Y-74415119D01*
X103750205Y-74409912D01*
X103788083Y-74393520D01*
X103794759Y-74388114D01*
X103794761Y-74388113D01*
X103798842Y-74384808D01*
X103817426Y-74372320D01*
X103829563Y-74365647D01*
X103837305Y-74358964D01*
X103860509Y-74335760D01*
X103870310Y-74326934D01*
X103893299Y-74308318D01*
X103899975Y-74302912D01*
X103910106Y-74288656D01*
X103923713Y-74272556D01*
X104817316Y-73378953D01*
X104879628Y-73344927D01*
X104950443Y-73349992D01*
X105009623Y-73395776D01*
X105038402Y-73436877D01*
X105193123Y-73591598D01*
X105197631Y-73594755D01*
X105197634Y-73594757D01*
X105367852Y-73713945D01*
X105372361Y-73717102D01*
X105377343Y-73719425D01*
X105377348Y-73719428D01*
X105520287Y-73786081D01*
X105573572Y-73832998D01*
X105593033Y-73901276D01*
X105572491Y-73969235D01*
X105520287Y-74014471D01*
X105377600Y-74081007D01*
X105368104Y-74086490D01*
X105197957Y-74205628D01*
X105189549Y-74212684D01*
X105042684Y-74359549D01*
X105035628Y-74367957D01*
X104916490Y-74538104D01*
X104911007Y-74547600D01*
X104823220Y-74735860D01*
X104819474Y-74746152D01*
X104765712Y-74946798D01*
X104764569Y-74953280D01*
X104767307Y-74966902D01*
X104779056Y-74970000D01*
X107219162Y-74970000D01*
X107233790Y-74965705D01*
X107235684Y-74954712D01*
X107234288Y-74946798D01*
X107180526Y-74746152D01*
X107176780Y-74735860D01*
X107088993Y-74547600D01*
X107083510Y-74538104D01*
X106964372Y-74367957D01*
X106957316Y-74359549D01*
X106810451Y-74212684D01*
X106802043Y-74205628D01*
X106631896Y-74086490D01*
X106622401Y-74081007D01*
X106479713Y-74014471D01*
X106426428Y-73967554D01*
X106406967Y-73899276D01*
X106427509Y-73831316D01*
X106479713Y-73786081D01*
X106622652Y-73719428D01*
X106622657Y-73719425D01*
X106627639Y-73717102D01*
X106632148Y-73713945D01*
X106802366Y-73594757D01*
X106802369Y-73594755D01*
X106806877Y-73591598D01*
X106961598Y-73436877D01*
X107087102Y-73257638D01*
X107129263Y-73167225D01*
X107177252Y-73064312D01*
X107177253Y-73064310D01*
X107179575Y-73059330D01*
X107182343Y-73049002D01*
X107199738Y-72984080D01*
X107236207Y-72847977D01*
X107255277Y-72630000D01*
X107236207Y-72412023D01*
X107188937Y-72235609D01*
X107180998Y-72205980D01*
X107180997Y-72205978D01*
X107179575Y-72200670D01*
X107150783Y-72138926D01*
X107089425Y-72007343D01*
X107089423Y-72007340D01*
X107087102Y-72002362D01*
X106961598Y-71823123D01*
X106806877Y-71668402D01*
X106802369Y-71665245D01*
X106802366Y-71665243D01*
X106632148Y-71546055D01*
X106632145Y-71546053D01*
X106627639Y-71542898D01*
X106622657Y-71540575D01*
X106622652Y-71540572D01*
X106480305Y-71474195D01*
X106427020Y-71427278D01*
X106407559Y-71359000D01*
X106428101Y-71291040D01*
X106480305Y-71245805D01*
X106622652Y-71179428D01*
X106622657Y-71179425D01*
X106627639Y-71177102D01*
X106654477Y-71158310D01*
X106802366Y-71054757D01*
X106802369Y-71054755D01*
X106806877Y-71051598D01*
X106961598Y-70896877D01*
X107087102Y-70717638D01*
X107090433Y-70710496D01*
X107177252Y-70524312D01*
X107177253Y-70524310D01*
X107179575Y-70519330D01*
X107192704Y-70470334D01*
X107206698Y-70418105D01*
X107236207Y-70307977D01*
X107255277Y-70090000D01*
X107236207Y-69872023D01*
X107194436Y-69716133D01*
X107180998Y-69665980D01*
X107180997Y-69665978D01*
X107179575Y-69660670D01*
X107171831Y-69644062D01*
X107089425Y-69467343D01*
X107089423Y-69467340D01*
X107087102Y-69462362D01*
X106961598Y-69283123D01*
X106806877Y-69128402D01*
X106802369Y-69125245D01*
X106802366Y-69125243D01*
X106632148Y-69006055D01*
X106632146Y-69006054D01*
X106627639Y-69002898D01*
X106622657Y-69000575D01*
X106622652Y-69000572D01*
X106480305Y-68934195D01*
X106427020Y-68887278D01*
X106407559Y-68819000D01*
X106428101Y-68751040D01*
X106480305Y-68705805D01*
X106622652Y-68639428D01*
X106622657Y-68639425D01*
X106627639Y-68637102D01*
X106632148Y-68633945D01*
X106802366Y-68514757D01*
X106802369Y-68514755D01*
X106806877Y-68511598D01*
X106961598Y-68356877D01*
X107087102Y-68177638D01*
X107093297Y-68164354D01*
X107177252Y-67984312D01*
X107177253Y-67984310D01*
X107179575Y-67979330D01*
X107236207Y-67767977D01*
X107255277Y-67550000D01*
X107236207Y-67332023D01*
X107182942Y-67133234D01*
X107180998Y-67125980D01*
X107180997Y-67125978D01*
X107179575Y-67120670D01*
X107161318Y-67081518D01*
X107089425Y-66927343D01*
X107089423Y-66927340D01*
X107087102Y-66922362D01*
X106961598Y-66743123D01*
X106806877Y-66588402D01*
X106802369Y-66585245D01*
X106802366Y-66585243D01*
X106632148Y-66466055D01*
X106632146Y-66466054D01*
X106627639Y-66462898D01*
X106622657Y-66460575D01*
X106622652Y-66460572D01*
X106586364Y-66443651D01*
X106533079Y-66396733D01*
X106513618Y-66328456D01*
X106516238Y-66304440D01*
X106518850Y-66297185D01*
X106519479Y-66288618D01*
X106521265Y-66280216D01*
X106521521Y-66280271D01*
X106522059Y-66277284D01*
X106521740Y-66277227D01*
X106522910Y-66270725D01*
X106524751Y-66264388D01*
X106525500Y-66254188D01*
X106525500Y-66225001D01*
X106545502Y-66156880D01*
X106598251Y-66110806D01*
X106622648Y-66099430D01*
X106622654Y-66099427D01*
X106627639Y-66097102D01*
X106632148Y-66093945D01*
X106802366Y-65974757D01*
X106802369Y-65974755D01*
X106806877Y-65971598D01*
X106961598Y-65816877D01*
X107087102Y-65637638D01*
X107089588Y-65632308D01*
X107177252Y-65444312D01*
X107177253Y-65444310D01*
X107179575Y-65439330D01*
X107193271Y-65388218D01*
X107217714Y-65296994D01*
X107236207Y-65227977D01*
X107255277Y-65010000D01*
X107236207Y-64792023D01*
X107179575Y-64580670D01*
X107177252Y-64575688D01*
X107089425Y-64387343D01*
X107089423Y-64387340D01*
X107087102Y-64382362D01*
X106961598Y-64203123D01*
X106806877Y-64048402D01*
X106802369Y-64045245D01*
X106802366Y-64045243D01*
X106632148Y-63926055D01*
X106632145Y-63926053D01*
X106627639Y-63922898D01*
X106622657Y-63920575D01*
X106622652Y-63920572D01*
X106480305Y-63854195D01*
X106427020Y-63807278D01*
X106407559Y-63739000D01*
X106428101Y-63671040D01*
X106480305Y-63625805D01*
X106622652Y-63559428D01*
X106622657Y-63559425D01*
X106627639Y-63557102D01*
X106632148Y-63553945D01*
X106802366Y-63434757D01*
X106802369Y-63434755D01*
X106806877Y-63431598D01*
X106961598Y-63276877D01*
X107087102Y-63097638D01*
X107091507Y-63088193D01*
X107177252Y-62904312D01*
X107177253Y-62904310D01*
X107179575Y-62899330D01*
X107181619Y-62891704D01*
X107226236Y-62725188D01*
X107236207Y-62687977D01*
X107255277Y-62470000D01*
X107236207Y-62252023D01*
X107179575Y-62040670D01*
X107177252Y-62035688D01*
X107089425Y-61847343D01*
X107089423Y-61847340D01*
X107087102Y-61842362D01*
X106961598Y-61663123D01*
X106806877Y-61508402D01*
X106802369Y-61505245D01*
X106802366Y-61505243D01*
X106632148Y-61386055D01*
X106632145Y-61386053D01*
X106627639Y-61382898D01*
X106622657Y-61380575D01*
X106622652Y-61380572D01*
X106480305Y-61314195D01*
X106427020Y-61267278D01*
X106407559Y-61199000D01*
X106428101Y-61131040D01*
X106480305Y-61085805D01*
X106622652Y-61019428D01*
X106622657Y-61019425D01*
X106627639Y-61017102D01*
X106633093Y-61013283D01*
X106802366Y-60894757D01*
X106802369Y-60894755D01*
X106806877Y-60891598D01*
X106961598Y-60736877D01*
X107087102Y-60557638D01*
X107098059Y-60534142D01*
X107177252Y-60364312D01*
X107177253Y-60364310D01*
X107179575Y-60359330D01*
X107236207Y-60147977D01*
X107255277Y-59930000D01*
X107236207Y-59712023D01*
X107182001Y-59509724D01*
X107180998Y-59505980D01*
X107180997Y-59505978D01*
X107179575Y-59500670D01*
X107177232Y-59495646D01*
X107089425Y-59307343D01*
X107089423Y-59307340D01*
X107087102Y-59302362D01*
X106961598Y-59123123D01*
X106806877Y-58968402D01*
X106802369Y-58965245D01*
X106802366Y-58965243D01*
X106632148Y-58846055D01*
X106632145Y-58846053D01*
X106627639Y-58842898D01*
X106622657Y-58840575D01*
X106622652Y-58840572D01*
X106480305Y-58774195D01*
X106427020Y-58727278D01*
X106407559Y-58659000D01*
X106428101Y-58591040D01*
X106480305Y-58545805D01*
X106622652Y-58479428D01*
X106622657Y-58479425D01*
X106627639Y-58477102D01*
X106634997Y-58471950D01*
X106802366Y-58354757D01*
X106802369Y-58354755D01*
X106806877Y-58351598D01*
X106961598Y-58196877D01*
X107087102Y-58017638D01*
X107107741Y-57973379D01*
X107177252Y-57824312D01*
X107177253Y-57824310D01*
X107179575Y-57819330D01*
X107236207Y-57607977D01*
X107255277Y-57390000D01*
X107236207Y-57172023D01*
X107192092Y-57007384D01*
X107180998Y-56965980D01*
X107180997Y-56965978D01*
X107179575Y-56960670D01*
X107151154Y-56899721D01*
X107089425Y-56767343D01*
X107089423Y-56767340D01*
X107087102Y-56762362D01*
X106961598Y-56583123D01*
X106806877Y-56428402D01*
X106802369Y-56425245D01*
X106802366Y-56425243D01*
X106716239Y-56364937D01*
X106665933Y-56329712D01*
X106621605Y-56274255D01*
X106614296Y-56203636D01*
X106646327Y-56140275D01*
X106707528Y-56104290D01*
X106738203Y-56100499D01*
X106881518Y-56100499D01*
X106886412Y-56099724D01*
X106965506Y-56087198D01*
X106965508Y-56087197D01*
X106975304Y-56085646D01*
X107088342Y-56028050D01*
X107178050Y-55938342D01*
X107235646Y-55825304D01*
X107250500Y-55731519D01*
X107250499Y-53968482D01*
X107248091Y-53953276D01*
X107237198Y-53884494D01*
X107237197Y-53884492D01*
X107235646Y-53874696D01*
X107226661Y-53857061D01*
X107203762Y-53812121D01*
X107178050Y-53761658D01*
X107088342Y-53671950D01*
X106975304Y-53614354D01*
X106965515Y-53612804D01*
X106965513Y-53612803D01*
X106938151Y-53608470D01*
X106881519Y-53599500D01*
X106761137Y-53599500D01*
X105544861Y-53599501D01*
X105476740Y-53579499D01*
X105455766Y-53562596D01*
X102891505Y-50998336D01*
X102887852Y-50994527D01*
X102853634Y-50957315D01*
X102847816Y-50950988D01*
X102833606Y-50942177D01*
X102812745Y-50929243D01*
X102802962Y-50922519D01*
X102792651Y-50914692D01*
X102770096Y-50897572D01*
X102762109Y-50894410D01*
X102762106Y-50894408D01*
X102757217Y-50892472D01*
X102737216Y-50882413D01*
X102725450Y-50875118D01*
X102685819Y-50863604D01*
X102674595Y-50859760D01*
X102644216Y-50847733D01*
X102644213Y-50847732D01*
X102636228Y-50844571D01*
X102627691Y-50843674D01*
X102627684Y-50843672D01*
X102622461Y-50843123D01*
X102600484Y-50838812D01*
X102593522Y-50836789D01*
X102593520Y-50836789D01*
X102587188Y-50834949D01*
X102580373Y-50834449D01*
X102579296Y-50834369D01*
X102579283Y-50834369D01*
X102576988Y-50834200D01*
X102544161Y-50834200D01*
X102530990Y-50833510D01*
X102493038Y-50829521D01*
X102484572Y-50830953D01*
X102484569Y-50830953D01*
X102475802Y-50832436D01*
X102454790Y-50834200D01*
X95690425Y-50834200D01*
X95685149Y-50834089D01*
X95672884Y-50833575D01*
X95626071Y-50831613D01*
X95585885Y-50841038D01*
X95574219Y-50843200D01*
X95541854Y-50847633D01*
X95541852Y-50847634D01*
X95533344Y-50848799D01*
X95525463Y-50852210D01*
X95525461Y-50852210D01*
X95520643Y-50854295D01*
X95499380Y-50861327D01*
X95494261Y-50862528D01*
X95494259Y-50862529D01*
X95485897Y-50864490D01*
X95449715Y-50884381D01*
X95439085Y-50889588D01*
X95401207Y-50905980D01*
X95394531Y-50911386D01*
X95394529Y-50911387D01*
X95390448Y-50914692D01*
X95371864Y-50927180D01*
X95359727Y-50933853D01*
X95351985Y-50940536D01*
X95328781Y-50963740D01*
X95318981Y-50972565D01*
X95289315Y-50996588D01*
X95279184Y-51010844D01*
X95265577Y-51026944D01*
X94893737Y-51398784D01*
X94831425Y-51432810D01*
X94804642Y-51435689D01*
X88195002Y-51435689D01*
X88189726Y-51435578D01*
X88177461Y-51435064D01*
X88130648Y-51433102D01*
X88122282Y-51435064D01*
X88122283Y-51435064D01*
X88090475Y-51442524D01*
X88078805Y-51444687D01*
X88037921Y-51450288D01*
X88030041Y-51453698D01*
X88025216Y-51455786D01*
X88003947Y-51462820D01*
X87998838Y-51464018D01*
X87998836Y-51464019D01*
X87990474Y-51465980D01*
X87982948Y-51470118D01*
X87982944Y-51470119D01*
X87954314Y-51485859D01*
X87943669Y-51491075D01*
X87905784Y-51507469D01*
X87899107Y-51512876D01*
X87895027Y-51516180D01*
X87876437Y-51528672D01*
X87864304Y-51535342D01*
X87856562Y-51542025D01*
X87833358Y-51565229D01*
X87823558Y-51574054D01*
X87793892Y-51598077D01*
X87783761Y-51612333D01*
X87770154Y-51628433D01*
X87136492Y-52262095D01*
X87074180Y-52296121D01*
X87047397Y-52299000D01*
X77100159Y-52299000D01*
X77032038Y-52278998D01*
X77011064Y-52262095D01*
X76511860Y-51762891D01*
X76503034Y-51753090D01*
X76484418Y-51730101D01*
X76479012Y-51723425D01*
X76464756Y-51713294D01*
X76448656Y-51699687D01*
X75973477Y-51224508D01*
X75939451Y-51162196D01*
X75944516Y-51091381D01*
X75973474Y-51046320D01*
X75994152Y-51025642D01*
X76051748Y-50912604D01*
X76053338Y-50902569D01*
X76059869Y-50861327D01*
X76066602Y-50818819D01*
X76066602Y-50241164D01*
X85024500Y-50241164D01*
X85039442Y-50378709D01*
X85098383Y-50553848D01*
X85193557Y-50712244D01*
X85198248Y-50717204D01*
X85198249Y-50717206D01*
X85309046Y-50834369D01*
X85320524Y-50846507D01*
X85473360Y-50950375D01*
X85479694Y-50952908D01*
X85479697Y-50952910D01*
X85638598Y-51016466D01*
X85638603Y-51016467D01*
X85644935Y-51019000D01*
X85736689Y-51034190D01*
X85820506Y-51048066D01*
X85820510Y-51048066D01*
X85827244Y-51049181D01*
X85834061Y-51048824D01*
X85834065Y-51048824D01*
X85989111Y-51040698D01*
X86011781Y-51039510D01*
X86018354Y-51037699D01*
X86018357Y-51037699D01*
X86183354Y-50992251D01*
X86189936Y-50990438D01*
X86353398Y-50904254D01*
X86458099Y-50815775D01*
X86523040Y-50787083D01*
X86560676Y-50787818D01*
X86571573Y-50789682D01*
X86581834Y-50785323D01*
X87112684Y-50254473D01*
X87174996Y-50220447D01*
X87245811Y-50225512D01*
X87302647Y-50268059D01*
X87327458Y-50334579D01*
X87326785Y-50359358D01*
X87319825Y-50414455D01*
X87331744Y-50536014D01*
X87318485Y-50605760D01*
X87295440Y-50637403D01*
X86866968Y-51065875D01*
X86860208Y-51078255D01*
X86866654Y-51086865D01*
X86878814Y-51094823D01*
X86891297Y-51101129D01*
X87035810Y-51154872D01*
X87049392Y-51158259D01*
X87202214Y-51178649D01*
X87216204Y-51178942D01*
X87369751Y-51164969D01*
X87383462Y-51162154D01*
X87530090Y-51114512D01*
X87542838Y-51108729D01*
X87583172Y-51084685D01*
X87651927Y-51066985D01*
X87716682Y-51087481D01*
X87734475Y-51099125D01*
X87892289Y-51157815D01*
X87899270Y-51158746D01*
X87899272Y-51158747D01*
X87944812Y-51164823D01*
X88059183Y-51180083D01*
X88066194Y-51179445D01*
X88066198Y-51179445D01*
X88219843Y-51165462D01*
X88226864Y-51164823D01*
X88233566Y-51162645D01*
X88233568Y-51162645D01*
X88380298Y-51114970D01*
X88380301Y-51114969D01*
X88386997Y-51112793D01*
X88393815Y-51108729D01*
X88416397Y-51095267D01*
X88433636Y-51084990D01*
X88502391Y-51067289D01*
X88567148Y-51087786D01*
X88584475Y-51099125D01*
X88742289Y-51157815D01*
X88749270Y-51158746D01*
X88749272Y-51158747D01*
X88794812Y-51164823D01*
X88909183Y-51180083D01*
X88916194Y-51179445D01*
X88916198Y-51179445D01*
X89069843Y-51165462D01*
X89076864Y-51164823D01*
X89083566Y-51162645D01*
X89083568Y-51162645D01*
X89230298Y-51114970D01*
X89230301Y-51114969D01*
X89236997Y-51112793D01*
X89243815Y-51108729D01*
X89266397Y-51095267D01*
X89283636Y-51084990D01*
X89352391Y-51067289D01*
X89417148Y-51087786D01*
X89434475Y-51099125D01*
X89592289Y-51157815D01*
X89599270Y-51158746D01*
X89599272Y-51158747D01*
X89644812Y-51164823D01*
X89759183Y-51180083D01*
X89766194Y-51179445D01*
X89766198Y-51179445D01*
X89919843Y-51165462D01*
X89926864Y-51164823D01*
X89933566Y-51162645D01*
X89933568Y-51162645D01*
X90080298Y-51114970D01*
X90080301Y-51114969D01*
X90086997Y-51112793D01*
X90093815Y-51108729D01*
X90116397Y-51095267D01*
X90133636Y-51084990D01*
X90202391Y-51067289D01*
X90267148Y-51087786D01*
X90284475Y-51099125D01*
X90442289Y-51157815D01*
X90449270Y-51158746D01*
X90449272Y-51158747D01*
X90494812Y-51164823D01*
X90609183Y-51180083D01*
X90616194Y-51179445D01*
X90616198Y-51179445D01*
X90769843Y-51165462D01*
X90776864Y-51164823D01*
X90783566Y-51162645D01*
X90783568Y-51162645D01*
X90930298Y-51114970D01*
X90930301Y-51114969D01*
X90936997Y-51112793D01*
X90943815Y-51108729D01*
X90966397Y-51095267D01*
X90983636Y-51084990D01*
X91052391Y-51067289D01*
X91117148Y-51087786D01*
X91134475Y-51099125D01*
X91292289Y-51157815D01*
X91299270Y-51158746D01*
X91299272Y-51158747D01*
X91344812Y-51164823D01*
X91459183Y-51180083D01*
X91466194Y-51179445D01*
X91466198Y-51179445D01*
X91619843Y-51165462D01*
X91626864Y-51164823D01*
X91633566Y-51162645D01*
X91633568Y-51162645D01*
X91780298Y-51114970D01*
X91780301Y-51114969D01*
X91786997Y-51112793D01*
X91793815Y-51108729D01*
X91816397Y-51095267D01*
X91833636Y-51084990D01*
X91902391Y-51067289D01*
X91967148Y-51087786D01*
X91984475Y-51099125D01*
X92142289Y-51157815D01*
X92149270Y-51158746D01*
X92149272Y-51158747D01*
X92194812Y-51164823D01*
X92309183Y-51180083D01*
X92316194Y-51179445D01*
X92316198Y-51179445D01*
X92469843Y-51165462D01*
X92476864Y-51164823D01*
X92483566Y-51162645D01*
X92483568Y-51162645D01*
X92630298Y-51114970D01*
X92630301Y-51114969D01*
X92636997Y-51112793D01*
X92678945Y-51087787D01*
X92684117Y-51084704D01*
X92752872Y-51067005D01*
X92817625Y-51087501D01*
X92828806Y-51094817D01*
X92841306Y-51101132D01*
X92985810Y-51154872D01*
X92999392Y-51158259D01*
X93152214Y-51178649D01*
X93166204Y-51178942D01*
X93319751Y-51164969D01*
X93333462Y-51162154D01*
X93480090Y-51114512D01*
X93492837Y-51108729D01*
X93529309Y-51086988D01*
X93538896Y-51076648D01*
X93535390Y-51068233D01*
X93103834Y-50636677D01*
X93069808Y-50574365D01*
X93068155Y-50530046D01*
X93079404Y-50450010D01*
X93079404Y-50450006D01*
X93079955Y-50446088D01*
X93080249Y-50425000D01*
X93074296Y-50371924D01*
X93072651Y-50357257D01*
X93084936Y-50287331D01*
X93133075Y-50235148D01*
X93201785Y-50217274D01*
X93269250Y-50239385D01*
X93286961Y-50254118D01*
X93816128Y-50783285D01*
X93830072Y-50790900D01*
X93852842Y-50789271D01*
X93922216Y-50804362D01*
X93953376Y-50828374D01*
X93970524Y-50846507D01*
X94123360Y-50950375D01*
X94129694Y-50952908D01*
X94129697Y-50952910D01*
X94288598Y-51016466D01*
X94288603Y-51016467D01*
X94294935Y-51019000D01*
X94386689Y-51034190D01*
X94470506Y-51048066D01*
X94470510Y-51048066D01*
X94477244Y-51049181D01*
X94484061Y-51048824D01*
X94484065Y-51048824D01*
X94639111Y-51040698D01*
X94661781Y-51039510D01*
X94668354Y-51037699D01*
X94668357Y-51037699D01*
X94833354Y-50992251D01*
X94839936Y-50990438D01*
X95003398Y-50904254D01*
X95144540Y-50784980D01*
X95155823Y-50770223D01*
X95252633Y-50643601D01*
X95252636Y-50643597D01*
X95256777Y-50638180D01*
X95282963Y-50582025D01*
X95331993Y-50476880D01*
X95331994Y-50476877D01*
X95334873Y-50470703D01*
X95336358Y-50464058D01*
X95336360Y-50464053D01*
X95374057Y-50295400D01*
X95375183Y-50290363D01*
X95375500Y-50284693D01*
X95375500Y-48648836D01*
X95360558Y-48511291D01*
X95301617Y-48336152D01*
X95206443Y-48177756D01*
X95079476Y-48043493D01*
X94926640Y-47939625D01*
X94920306Y-47937092D01*
X94920303Y-47937090D01*
X94761402Y-47873534D01*
X94761397Y-47873533D01*
X94755065Y-47871000D01*
X94648444Y-47853349D01*
X94579494Y-47841934D01*
X94579490Y-47841934D01*
X94572756Y-47840819D01*
X94565939Y-47841176D01*
X94565935Y-47841176D01*
X94420104Y-47848819D01*
X94388219Y-47850490D01*
X94381646Y-47852301D01*
X94381643Y-47852301D01*
X94216646Y-47897749D01*
X94210064Y-47899562D01*
X94204025Y-47902746D01*
X94200724Y-47904486D01*
X94046602Y-47985746D01*
X93905460Y-48105020D01*
X93901313Y-48110444D01*
X93901312Y-48110445D01*
X93797367Y-48246399D01*
X93797364Y-48246403D01*
X93793223Y-48251820D01*
X93790341Y-48258000D01*
X93790340Y-48258002D01*
X93736106Y-48374307D01*
X93689188Y-48427592D01*
X93620911Y-48447053D01*
X93554397Y-48427442D01*
X93511813Y-48400418D01*
X93499217Y-48394274D01*
X93353981Y-48342557D01*
X93340356Y-48339361D01*
X93187262Y-48321106D01*
X93173265Y-48321008D01*
X93019929Y-48337125D01*
X93006265Y-48340130D01*
X92860315Y-48389814D01*
X92847645Y-48395776D01*
X92817105Y-48414565D01*
X92748604Y-48433223D01*
X92683571Y-48413634D01*
X92682761Y-48413120D01*
X92656079Y-48396187D01*
X92530754Y-48351561D01*
X92483926Y-48321957D01*
X92178705Y-48016736D01*
X92175052Y-48012927D01*
X92140834Y-47975715D01*
X92135016Y-47969388D01*
X92120806Y-47960577D01*
X92099945Y-47947643D01*
X92090162Y-47940919D01*
X92064140Y-47921167D01*
X92057296Y-47915972D01*
X92049309Y-47912810D01*
X92049306Y-47912808D01*
X92044417Y-47910872D01*
X92024416Y-47900813D01*
X92012650Y-47893518D01*
X91973019Y-47882004D01*
X91961795Y-47878160D01*
X91931416Y-47866133D01*
X91931413Y-47866132D01*
X91923428Y-47862971D01*
X91914891Y-47862074D01*
X91914884Y-47862072D01*
X91909661Y-47861523D01*
X91887684Y-47857212D01*
X91880722Y-47855189D01*
X91880720Y-47855189D01*
X91874388Y-47853349D01*
X91867573Y-47852849D01*
X91866496Y-47852769D01*
X91866483Y-47852769D01*
X91864188Y-47852600D01*
X91831361Y-47852600D01*
X91818190Y-47851910D01*
X91780238Y-47847921D01*
X91771772Y-47849353D01*
X91771769Y-47849353D01*
X91763002Y-47850836D01*
X91741990Y-47852600D01*
X88659535Y-47852600D01*
X88654259Y-47852489D01*
X88641994Y-47851975D01*
X88595181Y-47850013D01*
X88577990Y-47854045D01*
X88555008Y-47859435D01*
X88543338Y-47861598D01*
X88502454Y-47867199D01*
X88494574Y-47870609D01*
X88489749Y-47872697D01*
X88468480Y-47879731D01*
X88463371Y-47880929D01*
X88463369Y-47880930D01*
X88455007Y-47882891D01*
X88447481Y-47887029D01*
X88447477Y-47887030D01*
X88418847Y-47902770D01*
X88408202Y-47907986D01*
X88370317Y-47924380D01*
X88363640Y-47929787D01*
X88359560Y-47933091D01*
X88340970Y-47945583D01*
X88328837Y-47952253D01*
X88321095Y-47958936D01*
X88297891Y-47982140D01*
X88288091Y-47990965D01*
X88258425Y-48014988D01*
X88248294Y-48029244D01*
X88234687Y-48045344D01*
X87976096Y-48303935D01*
X87915554Y-48337082D01*
X87912821Y-48337369D01*
X87906155Y-48339638D01*
X87906152Y-48339639D01*
X87760098Y-48389360D01*
X87760095Y-48389361D01*
X87753431Y-48391630D01*
X87722244Y-48410817D01*
X87716162Y-48414558D01*
X87647661Y-48433216D01*
X87582625Y-48413625D01*
X87561804Y-48400411D01*
X87549226Y-48394277D01*
X87403981Y-48342557D01*
X87390356Y-48339361D01*
X87237262Y-48321106D01*
X87223265Y-48321008D01*
X87069929Y-48337125D01*
X87056265Y-48340130D01*
X86910315Y-48389814D01*
X86897643Y-48395777D01*
X86845359Y-48427943D01*
X86776858Y-48446602D01*
X86709144Y-48425264D01*
X86663715Y-48370704D01*
X86659917Y-48360815D01*
X86651617Y-48336152D01*
X86556443Y-48177756D01*
X86429476Y-48043493D01*
X86276640Y-47939625D01*
X86270306Y-47937092D01*
X86270303Y-47937090D01*
X86111402Y-47873534D01*
X86111397Y-47873533D01*
X86105065Y-47871000D01*
X85998444Y-47853349D01*
X85929494Y-47841934D01*
X85929490Y-47841934D01*
X85922756Y-47840819D01*
X85915939Y-47841176D01*
X85915935Y-47841176D01*
X85770104Y-47848819D01*
X85738219Y-47850490D01*
X85731646Y-47852301D01*
X85731643Y-47852301D01*
X85566646Y-47897749D01*
X85560064Y-47899562D01*
X85554025Y-47902746D01*
X85550724Y-47904486D01*
X85396602Y-47985746D01*
X85255460Y-48105020D01*
X85251313Y-48110444D01*
X85251312Y-48110445D01*
X85147367Y-48246399D01*
X85147364Y-48246403D01*
X85143223Y-48251820D01*
X85140341Y-48258000D01*
X85140340Y-48258002D01*
X85073934Y-48400411D01*
X85065127Y-48419297D01*
X85063642Y-48425942D01*
X85063640Y-48425947D01*
X85039411Y-48534346D01*
X85024817Y-48599637D01*
X85024500Y-48605307D01*
X85024500Y-50241164D01*
X76066602Y-50241164D01*
X76066601Y-48749182D01*
X76051748Y-48655396D01*
X76042731Y-48637698D01*
X76022330Y-48597661D01*
X75994152Y-48542358D01*
X75904444Y-48452650D01*
X75791406Y-48395054D01*
X75781617Y-48393504D01*
X75781615Y-48393503D01*
X75754253Y-48389170D01*
X75697621Y-48380200D01*
X75120119Y-48380200D01*
X74542384Y-48380201D01*
X74537491Y-48380976D01*
X74537490Y-48380976D01*
X74458396Y-48393502D01*
X74458394Y-48393503D01*
X74448598Y-48395054D01*
X74439761Y-48399557D01*
X74439760Y-48399557D01*
X74417007Y-48411151D01*
X74335560Y-48452650D01*
X74245852Y-48542358D01*
X74241352Y-48551190D01*
X74232270Y-48569015D01*
X74183522Y-48620631D01*
X74114607Y-48637698D01*
X74047406Y-48614798D01*
X74007736Y-48569019D01*
X73998652Y-48551191D01*
X73998651Y-48551189D01*
X73994151Y-48542358D01*
X73904443Y-48452650D01*
X73791405Y-48395054D01*
X73781616Y-48393504D01*
X73781614Y-48393503D01*
X73754252Y-48389170D01*
X73697620Y-48380200D01*
X73120118Y-48380200D01*
X72542383Y-48380201D01*
X72537490Y-48380976D01*
X72537489Y-48380976D01*
X72458395Y-48393502D01*
X72458393Y-48393503D01*
X72448597Y-48395054D01*
X72439760Y-48399557D01*
X72439759Y-48399557D01*
X72417006Y-48411151D01*
X72335559Y-48452650D01*
X72245851Y-48542358D01*
X72241351Y-48551190D01*
X72232269Y-48569015D01*
X72183521Y-48620631D01*
X72114606Y-48637698D01*
X72047405Y-48614798D01*
X72007735Y-48569019D01*
X71998651Y-48551191D01*
X71998650Y-48551189D01*
X71994150Y-48542358D01*
X71904442Y-48452650D01*
X71791404Y-48395054D01*
X71781615Y-48393504D01*
X71781613Y-48393503D01*
X71754251Y-48389170D01*
X71697619Y-48380200D01*
X71120117Y-48380200D01*
X70542382Y-48380201D01*
X70537489Y-48380976D01*
X70537488Y-48380976D01*
X70458394Y-48393502D01*
X70458392Y-48393503D01*
X70448596Y-48395054D01*
X70439759Y-48399557D01*
X70439758Y-48399557D01*
X70417005Y-48411151D01*
X70335558Y-48452650D01*
X70245850Y-48542358D01*
X70188254Y-48655396D01*
X70173400Y-48749181D01*
X70173401Y-50818818D01*
X70174176Y-50823709D01*
X70174176Y-50823712D01*
X70186665Y-50902569D01*
X70188254Y-50912604D01*
X70192755Y-50921437D01*
X70192757Y-50921442D01*
X70197462Y-50930675D01*
X70245850Y-51025642D01*
X70335558Y-51115350D01*
X70448596Y-51172946D01*
X70458385Y-51174496D01*
X70458387Y-51174497D01*
X70485749Y-51178830D01*
X70542381Y-51187800D01*
X70552751Y-51187800D01*
X70885444Y-51187799D01*
X70953562Y-51207801D01*
X71000055Y-51261456D01*
X71010160Y-51331730D01*
X70980667Y-51396311D01*
X70974537Y-51402894D01*
X70465536Y-51911895D01*
X70461727Y-51915548D01*
X70418188Y-51955584D01*
X70413660Y-51962887D01*
X70413659Y-51962888D01*
X70396443Y-51990655D01*
X70389720Y-52000437D01*
X70364772Y-52033304D01*
X70361610Y-52041291D01*
X70361608Y-52041294D01*
X70359672Y-52046183D01*
X70349613Y-52066184D01*
X70342318Y-52077950D01*
X70330805Y-52117577D01*
X70326960Y-52128805D01*
X70314933Y-52159184D01*
X70314932Y-52159187D01*
X70311771Y-52167172D01*
X70310874Y-52175709D01*
X70310872Y-52175716D01*
X70310323Y-52180939D01*
X70306012Y-52202915D01*
X70302149Y-52216212D01*
X70301400Y-52226412D01*
X70301400Y-52259239D01*
X70300710Y-52272410D01*
X70296721Y-52310362D01*
X70298153Y-52318828D01*
X70298153Y-52318831D01*
X70299636Y-52327598D01*
X70301400Y-52348610D01*
X70301400Y-54173500D01*
X70281398Y-54241621D01*
X70227742Y-54288114D01*
X70175400Y-54299500D01*
X66036212Y-54299501D01*
X65868482Y-54299501D01*
X65863589Y-54300276D01*
X65863588Y-54300276D01*
X65784494Y-54312802D01*
X65784492Y-54312803D01*
X65774696Y-54314354D01*
X65661658Y-54371950D01*
X65571950Y-54461658D01*
X65514354Y-54574696D01*
X65499500Y-54668481D01*
X63900500Y-54668481D01*
X63900500Y-47719342D01*
X63920502Y-47651221D01*
X63974158Y-47604728D01*
X64044432Y-47594624D01*
X64109012Y-47624118D01*
X64144579Y-47675779D01*
X64145580Y-47679513D01*
X64225141Y-47850133D01*
X64286894Y-47982561D01*
X64294093Y-47998000D01*
X64495654Y-48285860D01*
X64744140Y-48534346D01*
X65032000Y-48735907D01*
X65036978Y-48738228D01*
X65036981Y-48738230D01*
X65071094Y-48754137D01*
X65350487Y-48884420D01*
X65355795Y-48885842D01*
X65355797Y-48885843D01*
X65684610Y-48973948D01*
X65684612Y-48973948D01*
X65689925Y-48975372D01*
X66040000Y-49006000D01*
X66390075Y-48975372D01*
X66395388Y-48973948D01*
X66395390Y-48973948D01*
X66724203Y-48885843D01*
X66724205Y-48885842D01*
X66729513Y-48884420D01*
X67008906Y-48754137D01*
X67043019Y-48738230D01*
X67043022Y-48738228D01*
X67048000Y-48735907D01*
X67335860Y-48534346D01*
X67584346Y-48285860D01*
X67785907Y-47998000D01*
X67789566Y-47990155D01*
X67932097Y-47684495D01*
X67932098Y-47684494D01*
X67934420Y-47679513D01*
X67940163Y-47658082D01*
X68023948Y-47345390D01*
X68023948Y-47345388D01*
X68025372Y-47340075D01*
X68056000Y-46990000D01*
X68025372Y-46639925D01*
X68005403Y-46565400D01*
X67935843Y-46305797D01*
X67935842Y-46305795D01*
X67934420Y-46300487D01*
X67906449Y-46240502D01*
X67788230Y-45986981D01*
X67788228Y-45986978D01*
X67785907Y-45982000D01*
X67584346Y-45694140D01*
X67335860Y-45445654D01*
X67048000Y-45244093D01*
X67043022Y-45241772D01*
X67043019Y-45241770D01*
X66853954Y-45153608D01*
X66729513Y-45095580D01*
X66725827Y-45094592D01*
X66669075Y-45052806D01*
X66643738Y-44986484D01*
X66658279Y-44916993D01*
X66708082Y-44866394D01*
X66769342Y-44850500D01*
X69992715Y-44850500D01*
X70060836Y-44870502D01*
G37*
%TD.AperFunction*%
%TA.AperFunction,Conductor*%
G36*
X97023512Y-59427597D02*
G01*
X97031048Y-59432440D01*
X97036658Y-59438050D01*
X97149696Y-59495646D01*
X97159485Y-59497196D01*
X97159487Y-59497197D01*
X97181416Y-59500670D01*
X97243481Y-59510500D01*
X97599928Y-59510500D01*
X97956518Y-59510499D01*
X97969911Y-59508378D01*
X98040506Y-59497198D01*
X98040508Y-59497197D01*
X98050304Y-59495646D01*
X98068955Y-59486143D01*
X98154507Y-59442552D01*
X98154510Y-59442550D01*
X98163342Y-59438050D01*
X98164940Y-59436452D01*
X98227802Y-59414020D01*
X98296954Y-59430098D01*
X98301857Y-59433249D01*
X98306658Y-59438050D01*
X98315490Y-59442550D01*
X98315493Y-59442552D01*
X98361808Y-59466151D01*
X98419696Y-59495646D01*
X98429485Y-59497196D01*
X98429487Y-59497197D01*
X98451416Y-59500670D01*
X98513481Y-59510500D01*
X98869928Y-59510500D01*
X99226518Y-59510499D01*
X99239911Y-59508378D01*
X99310506Y-59497198D01*
X99310508Y-59497197D01*
X99320304Y-59495646D01*
X99338955Y-59486143D01*
X99424507Y-59442552D01*
X99424510Y-59442550D01*
X99433342Y-59438050D01*
X99434940Y-59436452D01*
X99497802Y-59414020D01*
X99566954Y-59430098D01*
X99571857Y-59433249D01*
X99576658Y-59438050D01*
X99585490Y-59442550D01*
X99585493Y-59442552D01*
X99631808Y-59466151D01*
X99689696Y-59495646D01*
X99699485Y-59497196D01*
X99699487Y-59497197D01*
X99721416Y-59500670D01*
X99783481Y-59510500D01*
X99794101Y-59510500D01*
X100142144Y-59510499D01*
X100210262Y-59530501D01*
X100256755Y-59584156D01*
X100266860Y-59654430D01*
X100237367Y-59719011D01*
X100231237Y-59725594D01*
X98238636Y-61718195D01*
X98234827Y-61721848D01*
X98191288Y-61761884D01*
X98186760Y-61769187D01*
X98186759Y-61769188D01*
X98169543Y-61796955D01*
X98162820Y-61806737D01*
X98137872Y-61839604D01*
X98134710Y-61847591D01*
X98134708Y-61847594D01*
X98132772Y-61852483D01*
X98122713Y-61872484D01*
X98115418Y-61884250D01*
X98104369Y-61922280D01*
X98103905Y-61923877D01*
X98100060Y-61935105D01*
X98088033Y-61965484D01*
X98088032Y-61965487D01*
X98084871Y-61973472D01*
X98083974Y-61982009D01*
X98083972Y-61982016D01*
X98083423Y-61987239D01*
X98079112Y-62009215D01*
X98075249Y-62022512D01*
X98074500Y-62032712D01*
X98074500Y-62065539D01*
X98073810Y-62078710D01*
X98069821Y-62116662D01*
X98071253Y-62125128D01*
X98071253Y-62125131D01*
X98072736Y-62133898D01*
X98074500Y-62154910D01*
X98074500Y-63085565D01*
X98074389Y-63090841D01*
X98071913Y-63149919D01*
X98080482Y-63186452D01*
X98081337Y-63190097D01*
X98083500Y-63201770D01*
X98089099Y-63242646D01*
X98092510Y-63250527D01*
X98092510Y-63250529D01*
X98094595Y-63255347D01*
X98101627Y-63276610D01*
X98102828Y-63281729D01*
X98104790Y-63290093D01*
X98124681Y-63326275D01*
X98129888Y-63336905D01*
X98146280Y-63374783D01*
X98151686Y-63381459D01*
X98151687Y-63381461D01*
X98154992Y-63385542D01*
X98167480Y-63404126D01*
X98174153Y-63416263D01*
X98180836Y-63424005D01*
X98204040Y-63447209D01*
X98212865Y-63457009D01*
X98236888Y-63486675D01*
X98251144Y-63496806D01*
X98267244Y-63510413D01*
X98498196Y-63741365D01*
X98525510Y-63782242D01*
X98536577Y-63808960D01*
X98575464Y-63902841D01*
X98671718Y-64028282D01*
X98797159Y-64124536D01*
X98898411Y-64166476D01*
X98934091Y-64181255D01*
X98943238Y-64185044D01*
X98951426Y-64186122D01*
X99044693Y-64198401D01*
X99109620Y-64227124D01*
X99148711Y-64286389D01*
X99149556Y-64357381D01*
X99144660Y-64371529D01*
X99114957Y-64443237D01*
X99094319Y-64599999D01*
X99114957Y-64756761D01*
X99162817Y-64872304D01*
X99164910Y-64877358D01*
X99174501Y-64925576D01*
X99174501Y-67363740D01*
X99154499Y-67431861D01*
X99137596Y-67452835D01*
X98367735Y-68222696D01*
X98326858Y-68250010D01*
X98283208Y-68268091D01*
X98206259Y-68299964D01*
X98132088Y-68356877D01*
X98109122Y-68374500D01*
X98080818Y-68396218D01*
X98075795Y-68402764D01*
X98068694Y-68412018D01*
X97984564Y-68521659D01*
X97924056Y-68667738D01*
X97903418Y-68824500D01*
X97924056Y-68981262D01*
X97984564Y-69127341D01*
X98080818Y-69252782D01*
X98206259Y-69349036D01*
X98213888Y-69352196D01*
X98213893Y-69352199D01*
X98219207Y-69354400D01*
X98274488Y-69398949D01*
X98296908Y-69466312D01*
X98279349Y-69535103D01*
X98227386Y-69583481D01*
X98219208Y-69587216D01*
X98188736Y-69599838D01*
X98102538Y-69665980D01*
X98073230Y-69688469D01*
X98063295Y-69696092D01*
X98058272Y-69702638D01*
X98041363Y-69724675D01*
X97967041Y-69821533D01*
X97906533Y-69967612D01*
X97905455Y-69975800D01*
X97897551Y-70035841D01*
X97885895Y-70124374D01*
X97886973Y-70132562D01*
X97899082Y-70224536D01*
X97906533Y-70281136D01*
X97967041Y-70427215D01*
X98063295Y-70552656D01*
X98188736Y-70648910D01*
X98334815Y-70709418D01*
X98491577Y-70730056D01*
X98499765Y-70728978D01*
X98548394Y-70722576D01*
X98648339Y-70709418D01*
X98794418Y-70648910D01*
X98919859Y-70552656D01*
X99016113Y-70427215D01*
X99062279Y-70315760D01*
X99066067Y-70306616D01*
X99093381Y-70265739D01*
X101574877Y-67784244D01*
X101578686Y-67780591D01*
X101615885Y-67746385D01*
X101622212Y-67740567D01*
X101643958Y-67705495D01*
X101650678Y-67695717D01*
X101670434Y-67669689D01*
X101670435Y-67669688D01*
X101675627Y-67662847D01*
X101680722Y-67649977D01*
X101690786Y-67629969D01*
X101698082Y-67618201D01*
X101700477Y-67609958D01*
X101700480Y-67609951D01*
X101709601Y-67578558D01*
X101713445Y-67567331D01*
X101725468Y-67536964D01*
X101725469Y-67536962D01*
X101728629Y-67528979D01*
X101729526Y-67520442D01*
X101729528Y-67520435D01*
X101730077Y-67515212D01*
X101734388Y-67493235D01*
X101736411Y-67486273D01*
X101736411Y-67486271D01*
X101738251Y-67479939D01*
X101739000Y-67469739D01*
X101739000Y-67436913D01*
X101739690Y-67423742D01*
X101741960Y-67402148D01*
X101743679Y-67385790D01*
X101742226Y-67377194D01*
X101740764Y-67368554D01*
X101739000Y-67347542D01*
X101739000Y-66630600D01*
X101759002Y-66562479D01*
X101812658Y-66515986D01*
X101865000Y-66504600D01*
X101900565Y-66504600D01*
X101905842Y-66504711D01*
X101964919Y-66507187D01*
X102005105Y-66497762D01*
X102016771Y-66495600D01*
X102049136Y-66491167D01*
X102049138Y-66491166D01*
X102057646Y-66490001D01*
X102065527Y-66486590D01*
X102065529Y-66486590D01*
X102070347Y-66484505D01*
X102091610Y-66477473D01*
X102096729Y-66476272D01*
X102096731Y-66476271D01*
X102105093Y-66474310D01*
X102141275Y-66454419D01*
X102151905Y-66449212D01*
X102189783Y-66432820D01*
X102196459Y-66427414D01*
X102196461Y-66427413D01*
X102200542Y-66424108D01*
X102219126Y-66411620D01*
X102231263Y-66404947D01*
X102239005Y-66398264D01*
X102262209Y-66375060D01*
X102272010Y-66366234D01*
X102294999Y-66347618D01*
X102301675Y-66342212D01*
X102311806Y-66327956D01*
X102325413Y-66311856D01*
X105125744Y-63511526D01*
X105188056Y-63477500D01*
X105258872Y-63482565D01*
X105287106Y-63497406D01*
X105372361Y-63557102D01*
X105377343Y-63559425D01*
X105377348Y-63559428D01*
X105519695Y-63625805D01*
X105572980Y-63672722D01*
X105592441Y-63741000D01*
X105571899Y-63808960D01*
X105519695Y-63854195D01*
X105377343Y-63920575D01*
X105377340Y-63920577D01*
X105372362Y-63922898D01*
X105193123Y-64048402D01*
X105038402Y-64203123D01*
X104912898Y-64382362D01*
X104910577Y-64387340D01*
X104910575Y-64387343D01*
X104822748Y-64575688D01*
X104820425Y-64580670D01*
X104763793Y-64792023D01*
X104744723Y-65010000D01*
X104763793Y-65227977D01*
X104782286Y-65296994D01*
X104806730Y-65388218D01*
X104820425Y-65439330D01*
X104822747Y-65444310D01*
X104822748Y-65444312D01*
X104910413Y-65632308D01*
X104912898Y-65637638D01*
X105019255Y-65789532D01*
X105041942Y-65856803D01*
X105024657Y-65925664D01*
X105005136Y-65950895D01*
X100754836Y-70201195D01*
X100751027Y-70204848D01*
X100707488Y-70244884D01*
X100702960Y-70252187D01*
X100702959Y-70252188D01*
X100685743Y-70279955D01*
X100679020Y-70289737D01*
X100654072Y-70322604D01*
X100650910Y-70330591D01*
X100650908Y-70330594D01*
X100648972Y-70335483D01*
X100638913Y-70355484D01*
X100631618Y-70367250D01*
X100621563Y-70401858D01*
X100620105Y-70406877D01*
X100616260Y-70418105D01*
X100604233Y-70448484D01*
X100604232Y-70448487D01*
X100601071Y-70456472D01*
X100600174Y-70465009D01*
X100600172Y-70465016D01*
X100599623Y-70470239D01*
X100595312Y-70492215D01*
X100591449Y-70505512D01*
X100590700Y-70515712D01*
X100590700Y-70548539D01*
X100590010Y-70561710D01*
X100586021Y-70599662D01*
X100587453Y-70608128D01*
X100587453Y-70608131D01*
X100588936Y-70616898D01*
X100590700Y-70637910D01*
X100590700Y-71395141D01*
X100570698Y-71463262D01*
X100553795Y-71484236D01*
X100527936Y-71510095D01*
X100465624Y-71544121D01*
X100394809Y-71539056D01*
X100362138Y-71520963D01*
X100309396Y-71480493D01*
X100309392Y-71480491D01*
X100302841Y-71475464D01*
X100156762Y-71414956D01*
X100099984Y-71407481D01*
X100008188Y-71395396D01*
X100000000Y-71394318D01*
X99991812Y-71395396D01*
X99900017Y-71407481D01*
X99843238Y-71414956D01*
X99726567Y-71463283D01*
X99722641Y-71464909D01*
X99674423Y-71474500D01*
X98069859Y-71474500D01*
X98001738Y-71454498D01*
X97980764Y-71437595D01*
X96857876Y-70314707D01*
X96823850Y-70252395D01*
X96828915Y-70181580D01*
X96857876Y-70136517D01*
X96879816Y-70114577D01*
X96883625Y-70110924D01*
X96920813Y-70076728D01*
X96927140Y-70070910D01*
X96948886Y-70035838D01*
X96955606Y-70026060D01*
X96975362Y-70000032D01*
X96975363Y-70000031D01*
X96980555Y-69993190D01*
X96985650Y-69980320D01*
X96995714Y-69960312D01*
X97003010Y-69948544D01*
X97005405Y-69940301D01*
X97005408Y-69940294D01*
X97014529Y-69908901D01*
X97018373Y-69897674D01*
X97030396Y-69867307D01*
X97030397Y-69867305D01*
X97033557Y-69859322D01*
X97034454Y-69850785D01*
X97034456Y-69850778D01*
X97035005Y-69845555D01*
X97039316Y-69823578D01*
X97041339Y-69816616D01*
X97041339Y-69816614D01*
X97043179Y-69810282D01*
X97043928Y-69800082D01*
X97043928Y-69767256D01*
X97044618Y-69754085D01*
X97047709Y-69724675D01*
X97048607Y-69716133D01*
X97046325Y-69702638D01*
X97045692Y-69698897D01*
X97043928Y-69677885D01*
X97043928Y-67848905D01*
X97053519Y-67800687D01*
X97069338Y-67762498D01*
X97103472Y-67680090D01*
X97124110Y-67523328D01*
X97103472Y-67366566D01*
X97042964Y-67220487D01*
X96946710Y-67095046D01*
X96821269Y-66998792D01*
X96748966Y-66968843D01*
X96727253Y-66959849D01*
X96671972Y-66915300D01*
X96649551Y-66847937D01*
X96667109Y-66779146D01*
X96675508Y-66766736D01*
X96719509Y-66709392D01*
X96724536Y-66702841D01*
X96785044Y-66556762D01*
X96805682Y-66400000D01*
X96785044Y-66243238D01*
X96724536Y-66097159D01*
X96628282Y-65971718D01*
X96616663Y-65962802D01*
X96532874Y-65898509D01*
X96502841Y-65875464D01*
X96356762Y-65814956D01*
X96337082Y-65812365D01*
X96208188Y-65795396D01*
X96200000Y-65794318D01*
X96191812Y-65795396D01*
X96062919Y-65812365D01*
X96043238Y-65814956D01*
X96035609Y-65818116D01*
X95899718Y-65874404D01*
X95829128Y-65881993D01*
X95765641Y-65850214D01*
X95729414Y-65789156D01*
X95725500Y-65757995D01*
X95725500Y-64340691D01*
X95745502Y-64272570D01*
X95788499Y-64231572D01*
X95795212Y-64227696D01*
X95802841Y-64224536D01*
X95928282Y-64128282D01*
X96024536Y-64002841D01*
X96085044Y-63856762D01*
X96105682Y-63700000D01*
X96085044Y-63543238D01*
X96024536Y-63397159D01*
X95928282Y-63271718D01*
X95802841Y-63175464D01*
X95656762Y-63114956D01*
X95500000Y-63094318D01*
X95343238Y-63114956D01*
X95197159Y-63175464D01*
X95071718Y-63271718D01*
X94975464Y-63397159D01*
X94954733Y-63447209D01*
X94925510Y-63517758D01*
X94898196Y-63558635D01*
X94838636Y-63618195D01*
X94834827Y-63621848D01*
X94791288Y-63661884D01*
X94786760Y-63669187D01*
X94786759Y-63669188D01*
X94769543Y-63696955D01*
X94762820Y-63706737D01*
X94737872Y-63739604D01*
X94734710Y-63747591D01*
X94734708Y-63747594D01*
X94732772Y-63752483D01*
X94722713Y-63772484D01*
X94715418Y-63784250D01*
X94708239Y-63808960D01*
X94703905Y-63823877D01*
X94700060Y-63835105D01*
X94688033Y-63865484D01*
X94688032Y-63865487D01*
X94684871Y-63873472D01*
X94683974Y-63882009D01*
X94683972Y-63882016D01*
X94683423Y-63887239D01*
X94679112Y-63909215D01*
X94675249Y-63922512D01*
X94674500Y-63932712D01*
X94674500Y-63965539D01*
X94673810Y-63978710D01*
X94669821Y-64016662D01*
X94671253Y-64025128D01*
X94671253Y-64025131D01*
X94672736Y-64033898D01*
X94674500Y-64054910D01*
X94674500Y-66593631D01*
X94657619Y-66656632D01*
X94655994Y-66659447D01*
X94650964Y-66666002D01*
X94590456Y-66812081D01*
X94569818Y-66968843D01*
X94590456Y-67125605D01*
X94650964Y-67271684D01*
X94659071Y-67282249D01*
X94725794Y-67369204D01*
X94747218Y-67397125D01*
X94753764Y-67402148D01*
X94771725Y-67415930D01*
X94872659Y-67493379D01*
X95018738Y-67553887D01*
X95064945Y-67559970D01*
X95129873Y-67588692D01*
X95168965Y-67647957D01*
X95174500Y-67684892D01*
X95174500Y-69374423D01*
X95164909Y-69422640D01*
X95114956Y-69543238D01*
X95113878Y-69551426D01*
X95106843Y-69604865D01*
X95094318Y-69700000D01*
X95114956Y-69856762D01*
X95175464Y-70002841D01*
X95271718Y-70128282D01*
X95397159Y-70224536D01*
X95404786Y-70227695D01*
X95404791Y-70227698D01*
X95435214Y-70240299D01*
X95490496Y-70284847D01*
X95511232Y-70335695D01*
X95518008Y-70375759D01*
X95518011Y-70375769D01*
X95519443Y-70384235D01*
X95523100Y-70392007D01*
X95525532Y-70399766D01*
X95528440Y-70407341D01*
X95530401Y-70415704D01*
X95534539Y-70423230D01*
X95534540Y-70423234D01*
X95555222Y-70460855D01*
X95558805Y-70467884D01*
X95559958Y-70470336D01*
X95570873Y-70540487D01*
X95542129Y-70605404D01*
X95482851Y-70644476D01*
X95411859Y-70645296D01*
X95356862Y-70613093D01*
X94757904Y-70014135D01*
X94730590Y-69973258D01*
X94708780Y-69920605D01*
X94680636Y-69852659D01*
X94584382Y-69727218D01*
X94458941Y-69630964D01*
X94312862Y-69570456D01*
X94267622Y-69564500D01*
X94164288Y-69550896D01*
X94156100Y-69549818D01*
X94147912Y-69550896D01*
X94044579Y-69564500D01*
X93999338Y-69570456D01*
X93853259Y-69630964D01*
X93846708Y-69635991D01*
X93846703Y-69635994D01*
X93814220Y-69660919D01*
X93748000Y-69686520D01*
X93678451Y-69672256D01*
X93648421Y-69650052D01*
X90555364Y-66556995D01*
X90521338Y-66494683D01*
X90526403Y-66423868D01*
X90568950Y-66367032D01*
X90635470Y-66342221D01*
X90644459Y-66341900D01*
X90674765Y-66341900D01*
X90680042Y-66342011D01*
X90739119Y-66344487D01*
X90779305Y-66335062D01*
X90790971Y-66332900D01*
X90823336Y-66328467D01*
X90823338Y-66328466D01*
X90831846Y-66327301D01*
X90839727Y-66323890D01*
X90839729Y-66323890D01*
X90844547Y-66321805D01*
X90865810Y-66314773D01*
X90870929Y-66313572D01*
X90870931Y-66313571D01*
X90879293Y-66311610D01*
X90915475Y-66291719D01*
X90926105Y-66286512D01*
X90963983Y-66270120D01*
X90970659Y-66264714D01*
X90970661Y-66264713D01*
X90974742Y-66261408D01*
X90993326Y-66248920D01*
X91005463Y-66242247D01*
X91013205Y-66235564D01*
X91036409Y-66212360D01*
X91046210Y-66203534D01*
X91069199Y-66184918D01*
X91075875Y-66179512D01*
X91086006Y-66165256D01*
X91099613Y-66149156D01*
X93889664Y-63359105D01*
X93893473Y-63355452D01*
X93930685Y-63321234D01*
X93937012Y-63315416D01*
X93958765Y-63280332D01*
X93965482Y-63270560D01*
X93971495Y-63262638D01*
X93990428Y-63237695D01*
X93995524Y-63224824D01*
X94005592Y-63204807D01*
X94006999Y-63202538D01*
X94012882Y-63193050D01*
X94018910Y-63172304D01*
X94024394Y-63153426D01*
X94028239Y-63142197D01*
X94040268Y-63111814D01*
X94040268Y-63111812D01*
X94043430Y-63103827D01*
X94044877Y-63090058D01*
X94049190Y-63068076D01*
X94051208Y-63061130D01*
X94053051Y-63054788D01*
X94053800Y-63044588D01*
X94053800Y-63011771D01*
X94054490Y-62998600D01*
X94057582Y-62969182D01*
X94058480Y-62960638D01*
X94055565Y-62943404D01*
X94053800Y-62922391D01*
X94053800Y-62886374D01*
X94063391Y-62838156D01*
X94110184Y-62725188D01*
X94113344Y-62717559D01*
X94133982Y-62560797D01*
X94113344Y-62404035D01*
X94052836Y-62257956D01*
X93956582Y-62132515D01*
X93944998Y-62123626D01*
X93937072Y-62117544D01*
X93895205Y-62060206D01*
X93890984Y-61989335D01*
X93924682Y-61928487D01*
X96310765Y-59542404D01*
X96373077Y-59508378D01*
X96399860Y-59505499D01*
X96686518Y-59505499D01*
X96691412Y-59504724D01*
X96770506Y-59492198D01*
X96770508Y-59492197D01*
X96780304Y-59490646D01*
X96789142Y-59486143D01*
X96884507Y-59437552D01*
X96884508Y-59437551D01*
X96893342Y-59433050D01*
X96893448Y-59433257D01*
X96954359Y-59411520D01*
X97023512Y-59427597D01*
G37*
%TD.AperFunction*%
%TA.AperFunction,Conductor*%
G36*
X94276621Y-56568602D02*
G01*
X94323114Y-56622258D01*
X94334500Y-56674600D01*
X94334501Y-57915500D01*
X94334501Y-59141518D01*
X94335276Y-59146411D01*
X94335276Y-59146412D01*
X94347580Y-59224100D01*
X94349354Y-59235304D01*
X94353857Y-59244141D01*
X94353857Y-59244142D01*
X94362079Y-59260278D01*
X94406950Y-59348342D01*
X94496658Y-59438050D01*
X94609696Y-59495646D01*
X94614879Y-59496467D01*
X94671345Y-59535076D01*
X94698982Y-59600472D01*
X94686877Y-59670429D01*
X94662899Y-59703932D01*
X92243205Y-62123626D01*
X92180893Y-62157652D01*
X92137665Y-62159453D01*
X91990800Y-62140118D01*
X91834038Y-62160756D01*
X91826411Y-62163915D01*
X91826408Y-62163916D01*
X91774718Y-62185327D01*
X91704128Y-62192916D01*
X91640641Y-62161137D01*
X91604414Y-62100078D01*
X91600500Y-62068918D01*
X91600500Y-57670176D01*
X91601828Y-57658296D01*
X91601317Y-57658255D01*
X91602037Y-57649307D01*
X91604018Y-57640552D01*
X91600742Y-57587745D01*
X91600500Y-57579943D01*
X91600500Y-57564060D01*
X91599863Y-57559610D01*
X91599052Y-57553942D01*
X91598022Y-57543891D01*
X91595697Y-57506420D01*
X91595697Y-57506419D01*
X91595141Y-57497461D01*
X91592093Y-57489017D01*
X91591328Y-57485324D01*
X91587653Y-57470584D01*
X91586596Y-57466968D01*
X91585323Y-57458082D01*
X91566067Y-57415730D01*
X91562255Y-57406367D01*
X91560560Y-57401671D01*
X91546460Y-57362613D01*
X91541162Y-57355361D01*
X91539383Y-57352015D01*
X91531726Y-57338911D01*
X91529697Y-57335739D01*
X91525984Y-57327572D01*
X91520129Y-57320776D01*
X91520127Y-57320774D01*
X91495610Y-57292321D01*
X91489325Y-57284405D01*
X91484352Y-57277598D01*
X91484346Y-57277591D01*
X91481477Y-57273664D01*
X91478040Y-57270227D01*
X91478034Y-57270220D01*
X91470741Y-57262928D01*
X91464383Y-57256081D01*
X91438259Y-57225763D01*
X91432400Y-57218963D01*
X91424866Y-57214079D01*
X91418104Y-57208181D01*
X91418108Y-57208176D01*
X91407013Y-57199200D01*
X91244834Y-57037020D01*
X91212223Y-56980536D01*
X91211122Y-56976428D01*
X91210044Y-56968238D01*
X91149536Y-56822159D01*
X91144508Y-56815606D01*
X91144506Y-56815603D01*
X91095168Y-56751304D01*
X91069567Y-56685084D01*
X91083832Y-56615535D01*
X91133433Y-56564739D01*
X91195130Y-56548600D01*
X94208500Y-56548600D01*
X94276621Y-56568602D01*
G37*
%TD.AperFunction*%
%TA.AperFunction,Conductor*%
G36*
X102307962Y-51905202D02*
G01*
X102328936Y-51922105D01*
X104712595Y-54305764D01*
X104746621Y-54368076D01*
X104749500Y-54394859D01*
X104749501Y-55731518D01*
X104764354Y-55825304D01*
X104821950Y-55938342D01*
X104911658Y-56028050D01*
X105024696Y-56085646D01*
X105034485Y-56087196D01*
X105034487Y-56087197D01*
X105061849Y-56091530D01*
X105118481Y-56100500D01*
X105261796Y-56100500D01*
X105329917Y-56120502D01*
X105376410Y-56174158D01*
X105386514Y-56244432D01*
X105357020Y-56309012D01*
X105334067Y-56329712D01*
X105193123Y-56428402D01*
X105038402Y-56583123D01*
X104912898Y-56762362D01*
X104910577Y-56767340D01*
X104910575Y-56767343D01*
X104899194Y-56791750D01*
X104852276Y-56845035D01*
X104784999Y-56864500D01*
X102557335Y-56864500D01*
X102552059Y-56864389D01*
X102539794Y-56863875D01*
X102492981Y-56861913D01*
X102452795Y-56871338D01*
X102441129Y-56873500D01*
X102408764Y-56877933D01*
X102408762Y-56877934D01*
X102400254Y-56879099D01*
X102392373Y-56882510D01*
X102392371Y-56882510D01*
X102387553Y-56884595D01*
X102366290Y-56891627D01*
X102361168Y-56892828D01*
X102361162Y-56892830D01*
X102355242Y-56894219D01*
X102355240Y-56894219D01*
X102352810Y-56894789D01*
X102352724Y-56894423D01*
X102287399Y-56899721D01*
X102223915Y-56865446D01*
X101019505Y-55661036D01*
X101015852Y-55657227D01*
X100981634Y-55620015D01*
X100975816Y-55613688D01*
X100962735Y-55605577D01*
X100940745Y-55591943D01*
X100930962Y-55585219D01*
X100930894Y-55585167D01*
X100898096Y-55560272D01*
X100890109Y-55557110D01*
X100890106Y-55557108D01*
X100885217Y-55555172D01*
X100865216Y-55545113D01*
X100853450Y-55537818D01*
X100845201Y-55535421D01*
X100845198Y-55535420D01*
X100817379Y-55527337D01*
X100757545Y-55489123D01*
X100727869Y-55424626D01*
X100737774Y-55354323D01*
X100763440Y-55317246D01*
X100785630Y-55295056D01*
X100797141Y-55279213D01*
X100845664Y-55183982D01*
X100851716Y-55165355D01*
X100864225Y-55086373D01*
X100865000Y-55076527D01*
X100865000Y-53888115D01*
X100860525Y-53872876D01*
X100859135Y-53871671D01*
X100851452Y-53870000D01*
X100066000Y-53870000D01*
X99997879Y-53849998D01*
X99951386Y-53796342D01*
X99940000Y-53744000D01*
X99940000Y-53596000D01*
X99960002Y-53527879D01*
X100013658Y-53481386D01*
X100066000Y-53470000D01*
X100846884Y-53470000D01*
X100862123Y-53465525D01*
X100863328Y-53464135D01*
X100864999Y-53456452D01*
X100864999Y-52263475D01*
X100864224Y-52253626D01*
X100851717Y-52174649D01*
X100845662Y-52156014D01*
X100801022Y-52068403D01*
X100787918Y-51998626D01*
X100814618Y-51932841D01*
X100872646Y-51891935D01*
X100913289Y-51885200D01*
X102239841Y-51885200D01*
X102307962Y-51905202D01*
G37*
%TD.AperFunction*%
%TA.AperFunction,Conductor*%
G36*
X97742121Y-53490002D02*
G01*
X97788614Y-53543658D01*
X97800000Y-53596000D01*
X97800000Y-53744000D01*
X97779998Y-53812121D01*
X97726342Y-53858614D01*
X97674000Y-53870000D01*
X96256000Y-53870000D01*
X96187879Y-53849998D01*
X96141386Y-53796342D01*
X96130000Y-53744000D01*
X96130000Y-53596000D01*
X96150002Y-53527879D01*
X96203658Y-53481386D01*
X96256000Y-53470000D01*
X97674000Y-53470000D01*
X97742121Y-53490002D01*
G37*
%TD.AperFunction*%
%TD*%
%TA.AperFunction,NonConductor*%
G36*
X74192602Y-50953204D02*
G01*
X74232267Y-50998981D01*
X74245852Y-51025642D01*
X74335560Y-51115350D01*
X74448598Y-51172946D01*
X74458389Y-51174497D01*
X74458390Y-51174497D01*
X74513515Y-51183228D01*
X74577668Y-51213641D01*
X74609441Y-51257637D01*
X74614594Y-51269545D01*
X74621627Y-51290810D01*
X74622828Y-51295929D01*
X74624790Y-51304293D01*
X74644681Y-51340475D01*
X74649888Y-51351105D01*
X74666280Y-51388983D01*
X74671687Y-51395660D01*
X74676135Y-51403005D01*
X74674574Y-51403950D01*
X74697835Y-51459735D01*
X74685395Y-51529633D01*
X74637139Y-51581709D01*
X74572589Y-51599500D01*
X74153911Y-51599500D01*
X73663960Y-51599501D01*
X73595840Y-51579499D01*
X73549347Y-51525843D01*
X73539243Y-51455569D01*
X73561254Y-51400513D01*
X73570831Y-51387036D01*
X73590079Y-51359951D01*
X73592989Y-51351867D01*
X73596752Y-51344670D01*
X73600055Y-51337251D01*
X73604582Y-51329950D01*
X73618954Y-51280482D01*
X73621399Y-51272957D01*
X73624061Y-51265563D01*
X73665956Y-51208245D01*
X73722902Y-51183795D01*
X73731664Y-51182407D01*
X73791405Y-51172946D01*
X73812586Y-51162154D01*
X73826877Y-51154872D01*
X73904443Y-51115350D01*
X73994151Y-51025642D01*
X73998652Y-51016809D01*
X74007736Y-50998981D01*
X74056485Y-50947367D01*
X74125400Y-50930302D01*
X74192602Y-50953204D01*
G37*
%TD.AperFunction*%
%TA.AperFunction,NonConductor*%
G36*
X101074011Y-57202333D02*
G01*
X101080594Y-57208463D01*
X101711695Y-57839564D01*
X101745721Y-57901876D01*
X101748600Y-57928659D01*
X101748600Y-58156041D01*
X101728598Y-58224162D01*
X101711695Y-58245136D01*
X101080595Y-58876236D01*
X101018283Y-58910262D01*
X100947468Y-58905197D01*
X100890632Y-58862650D01*
X100865821Y-58796130D01*
X100865500Y-58787141D01*
X100865499Y-57297558D01*
X100885501Y-57229437D01*
X100939157Y-57182944D01*
X101009431Y-57172840D01*
X101074011Y-57202333D01*
G37*
%TD.AperFunction*%
%TA.AperFunction,NonConductor*%
G36*
X104853120Y-57935502D02*
G01*
X104899194Y-57988250D01*
X104912898Y-58017638D01*
X105038402Y-58196877D01*
X105193123Y-58351598D01*
X105197631Y-58354755D01*
X105197634Y-58354757D01*
X105365003Y-58471950D01*
X105372361Y-58477102D01*
X105377343Y-58479425D01*
X105377348Y-58479428D01*
X105519695Y-58545805D01*
X105572980Y-58592722D01*
X105592441Y-58661000D01*
X105571899Y-58728960D01*
X105519695Y-58774195D01*
X105377343Y-58840575D01*
X105377340Y-58840577D01*
X105372362Y-58842898D01*
X105193123Y-58968402D01*
X105038402Y-59123123D01*
X104912898Y-59302362D01*
X104910577Y-59307340D01*
X104910575Y-59307343D01*
X104822768Y-59495646D01*
X104820425Y-59500670D01*
X104819003Y-59505978D01*
X104819002Y-59505980D01*
X104817999Y-59509724D01*
X104763793Y-59712023D01*
X104744723Y-59930000D01*
X104763793Y-60147977D01*
X104820425Y-60359330D01*
X104822747Y-60364310D01*
X104822748Y-60364312D01*
X104901942Y-60534142D01*
X104912898Y-60557638D01*
X105038402Y-60736877D01*
X105193123Y-60891598D01*
X105197631Y-60894755D01*
X105197634Y-60894757D01*
X105366907Y-61013283D01*
X105372361Y-61017102D01*
X105377343Y-61019425D01*
X105377348Y-61019428D01*
X105519695Y-61085805D01*
X105572980Y-61132722D01*
X105592441Y-61201000D01*
X105571899Y-61268960D01*
X105519695Y-61314195D01*
X105377343Y-61380575D01*
X105377340Y-61380577D01*
X105372362Y-61382898D01*
X105193123Y-61508402D01*
X105038402Y-61663123D01*
X104912898Y-61842362D01*
X104900478Y-61868996D01*
X104853564Y-61922280D01*
X104795625Y-61941034D01*
X104789793Y-61940606D01*
X104739287Y-61950790D01*
X104731497Y-61952107D01*
X104680454Y-61959099D01*
X104672573Y-61962509D01*
X104664748Y-61964694D01*
X104657072Y-61967367D01*
X104648656Y-61969064D01*
X104641005Y-61972962D01*
X104641003Y-61972963D01*
X104623236Y-61982016D01*
X104608872Y-61989335D01*
X104602760Y-61992449D01*
X104595602Y-61995817D01*
X104548317Y-62016280D01*
X104541644Y-62021684D01*
X104534691Y-62025894D01*
X104528020Y-62030531D01*
X104520370Y-62034429D01*
X104496725Y-62056171D01*
X104482451Y-62069297D01*
X104476460Y-62074468D01*
X104443098Y-62101484D01*
X104436425Y-62106888D01*
X104431450Y-62113888D01*
X104425880Y-62119820D01*
X104420706Y-62126074D01*
X104414388Y-62131884D01*
X104409866Y-62139177D01*
X104409862Y-62139182D01*
X104387240Y-62175667D01*
X104382862Y-62182257D01*
X104368710Y-62202173D01*
X104353021Y-62224249D01*
X104350111Y-62232333D01*
X104346348Y-62239530D01*
X104343045Y-62246949D01*
X104338518Y-62254250D01*
X104336122Y-62262498D01*
X104324147Y-62303715D01*
X104321702Y-62311241D01*
X104304250Y-62359715D01*
X104303621Y-62368278D01*
X104301834Y-62376685D01*
X104301578Y-62376631D01*
X104301041Y-62379616D01*
X104301360Y-62379673D01*
X104300190Y-62386175D01*
X104298349Y-62392512D01*
X104297600Y-62402712D01*
X104297600Y-62445653D01*
X104297262Y-62454880D01*
X104293706Y-62503307D01*
X104295403Y-62511725D01*
X104295653Y-62515692D01*
X104297600Y-62535195D01*
X104297600Y-62801141D01*
X104277598Y-62869262D01*
X104260695Y-62890236D01*
X103140595Y-64010336D01*
X103078283Y-64044362D01*
X103007468Y-64039297D01*
X102950632Y-63996750D01*
X102925821Y-63930230D01*
X102925500Y-63921241D01*
X102925500Y-61325577D01*
X102935091Y-61277359D01*
X102981884Y-61164391D01*
X102985044Y-61156762D01*
X103005682Y-61000000D01*
X102985044Y-60843238D01*
X102924536Y-60697159D01*
X102828282Y-60571718D01*
X102702841Y-60475464D01*
X102556762Y-60414956D01*
X102400000Y-60394318D01*
X102243238Y-60414956D01*
X102097159Y-60475464D01*
X101971718Y-60571718D01*
X101875464Y-60697159D01*
X101814956Y-60843238D01*
X101794318Y-61000000D01*
X101814956Y-61156762D01*
X101818116Y-61164391D01*
X101864909Y-61277359D01*
X101874500Y-61325577D01*
X101874500Y-64430141D01*
X101854498Y-64498262D01*
X101837595Y-64519236D01*
X101558635Y-64798196D01*
X101517758Y-64825510D01*
X101498411Y-64833524D01*
X101397159Y-64875464D01*
X101271718Y-64971718D01*
X101266695Y-64978264D01*
X101260850Y-64984109D01*
X101258332Y-64981591D01*
X101214184Y-65013808D01*
X101143312Y-65018010D01*
X101082498Y-64984320D01*
X100986905Y-64888727D01*
X100952879Y-64826415D01*
X100950000Y-64799632D01*
X100950000Y-63743770D01*
X100959591Y-63695552D01*
X101005884Y-63583791D01*
X101009044Y-63576162D01*
X101029682Y-63419400D01*
X101009044Y-63262638D01*
X100948536Y-63116559D01*
X100852282Y-62991118D01*
X100726841Y-62894864D01*
X100580762Y-62834356D01*
X100424000Y-62813718D01*
X100267238Y-62834356D01*
X100121159Y-62894864D01*
X99995718Y-62991118D01*
X99899464Y-63116559D01*
X99838956Y-63262638D01*
X99836293Y-63261535D01*
X99806624Y-63310228D01*
X99742769Y-63341260D01*
X99672273Y-63332843D01*
X99621891Y-63293712D01*
X99533305Y-63178264D01*
X99528282Y-63171718D01*
X99402841Y-63075464D01*
X99282243Y-63025510D01*
X99241368Y-62998198D01*
X99162405Y-62919235D01*
X99128380Y-62856924D01*
X99125500Y-62830140D01*
X99125500Y-62369859D01*
X99145502Y-62301738D01*
X99162405Y-62280764D01*
X102635464Y-58807705D01*
X102639273Y-58804052D01*
X102671742Y-58774195D01*
X102682812Y-58764016D01*
X102704548Y-58728960D01*
X102704560Y-58728940D01*
X102711274Y-58719170D01*
X102736227Y-58686296D01*
X102741322Y-58673426D01*
X102751386Y-58653418D01*
X102758682Y-58641650D01*
X102761077Y-58633407D01*
X102761080Y-58633400D01*
X102770201Y-58602007D01*
X102774045Y-58590780D01*
X102786068Y-58560413D01*
X102786069Y-58560411D01*
X102789229Y-58552428D01*
X102790126Y-58543891D01*
X102790128Y-58543884D01*
X102790677Y-58538661D01*
X102794988Y-58516684D01*
X102797011Y-58509722D01*
X102797011Y-58509720D01*
X102798851Y-58503388D01*
X102799600Y-58493188D01*
X102799600Y-58460361D01*
X102800290Y-58447190D01*
X102803381Y-58417780D01*
X102804279Y-58409238D01*
X102802764Y-58400276D01*
X102801364Y-58392002D01*
X102799600Y-58370990D01*
X102799600Y-58041500D01*
X102819602Y-57973379D01*
X102873258Y-57926886D01*
X102925600Y-57915500D01*
X104784999Y-57915500D01*
X104853120Y-57935502D01*
G37*
%TD.AperFunction*%
%TA.AperFunction,NonConductor*%
G36*
X100434013Y-65822737D02*
G01*
X100440591Y-65828860D01*
X100561230Y-65949500D01*
X100651096Y-66039366D01*
X100685121Y-66101678D01*
X100688000Y-66128461D01*
X100688000Y-67132592D01*
X100667998Y-67200713D01*
X100651095Y-67221687D01*
X100440596Y-67432186D01*
X100378284Y-67466212D01*
X100307469Y-67461147D01*
X100250633Y-67418600D01*
X100225822Y-67352080D01*
X100225501Y-67343091D01*
X100225501Y-65917961D01*
X100245503Y-65849840D01*
X100299159Y-65803347D01*
X100369433Y-65793243D01*
X100434013Y-65822737D01*
G37*
%TD.AperFunction*%
%TA.AperFunction,NonConductor*%
G36*
X104950444Y-70809993D02*
G01*
X105009624Y-70855778D01*
X105035243Y-70892365D01*
X105038402Y-70896877D01*
X105193123Y-71051598D01*
X105197631Y-71054755D01*
X105197634Y-71054757D01*
X105345523Y-71158310D01*
X105372361Y-71177102D01*
X105377343Y-71179425D01*
X105377348Y-71179428D01*
X105519695Y-71245805D01*
X105572980Y-71292722D01*
X105592441Y-71361000D01*
X105571899Y-71428960D01*
X105519695Y-71474195D01*
X105377343Y-71540575D01*
X105377340Y-71540577D01*
X105372362Y-71542898D01*
X105193123Y-71668402D01*
X105038402Y-71823123D01*
X104912898Y-72002362D01*
X104910577Y-72007339D01*
X104910572Y-72007348D01*
X104900200Y-72029591D01*
X104853282Y-72082876D01*
X104790148Y-72099719D01*
X104790313Y-72101465D01*
X104781767Y-72102273D01*
X104773181Y-72101913D01*
X104732995Y-72111338D01*
X104721329Y-72113500D01*
X104688964Y-72117933D01*
X104688962Y-72117934D01*
X104680454Y-72119099D01*
X104672573Y-72122510D01*
X104672571Y-72122510D01*
X104667753Y-72124595D01*
X104646490Y-72131627D01*
X104641371Y-72132828D01*
X104641369Y-72132829D01*
X104633007Y-72134790D01*
X104596825Y-72154681D01*
X104586195Y-72159888D01*
X104548317Y-72176280D01*
X104541641Y-72181686D01*
X104541639Y-72181687D01*
X104537558Y-72184992D01*
X104518974Y-72197480D01*
X104506837Y-72204153D01*
X104499095Y-72210836D01*
X104475891Y-72234040D01*
X104466091Y-72242865D01*
X104436425Y-72266888D01*
X104426294Y-72281144D01*
X104412687Y-72297244D01*
X103332536Y-73377395D01*
X103270224Y-73411421D01*
X103243441Y-73414300D01*
X102546159Y-73414300D01*
X102478038Y-73394298D01*
X102431545Y-73340642D01*
X102421441Y-73270368D01*
X102450935Y-73205788D01*
X102457064Y-73199205D01*
X103606870Y-72049400D01*
X104817316Y-70838954D01*
X104879628Y-70804928D01*
X104950444Y-70809993D01*
G37*
%TD.AperFunction*%
%TA.AperFunction,NonConductor*%
G36*
X77076562Y-69445502D02*
G01*
X77097536Y-69462405D01*
X77409595Y-69774464D01*
X77413248Y-69778273D01*
X77447004Y-69814982D01*
X77453284Y-69821812D01*
X77460587Y-69826340D01*
X77460588Y-69826341D01*
X77488355Y-69843557D01*
X77498137Y-69850280D01*
X77531004Y-69875228D01*
X77538991Y-69878390D01*
X77538994Y-69878392D01*
X77543883Y-69880328D01*
X77563884Y-69890387D01*
X77575650Y-69897682D01*
X77615281Y-69909196D01*
X77626505Y-69913040D01*
X77656884Y-69925067D01*
X77656887Y-69925068D01*
X77664872Y-69928229D01*
X77673409Y-69929126D01*
X77673416Y-69929128D01*
X77678639Y-69929677D01*
X77700616Y-69933988D01*
X77707578Y-69936011D01*
X77707580Y-69936011D01*
X77713912Y-69937851D01*
X77720727Y-69938351D01*
X77721804Y-69938431D01*
X77721817Y-69938431D01*
X77724112Y-69938600D01*
X77756939Y-69938600D01*
X77770110Y-69939290D01*
X77808062Y-69943279D01*
X77816528Y-69941847D01*
X77816531Y-69941847D01*
X77825298Y-69940364D01*
X77846310Y-69938600D01*
X86343241Y-69938600D01*
X86411362Y-69958602D01*
X86432336Y-69975505D01*
X87728242Y-71271411D01*
X87762268Y-71333723D01*
X87757203Y-71404538D01*
X87714656Y-71461374D01*
X87648136Y-71486185D01*
X87639147Y-71486506D01*
X74493421Y-71486506D01*
X74488145Y-71486395D01*
X74475880Y-71485881D01*
X74429067Y-71483919D01*
X74388881Y-71493344D01*
X74377215Y-71495506D01*
X74344850Y-71499939D01*
X74344848Y-71499940D01*
X74336340Y-71501105D01*
X74328459Y-71504516D01*
X74328457Y-71504516D01*
X74323639Y-71506601D01*
X74302376Y-71513633D01*
X74297261Y-71514833D01*
X74297259Y-71514834D01*
X74288893Y-71516796D01*
X74281368Y-71520933D01*
X74281365Y-71520934D01*
X74252724Y-71536680D01*
X74242064Y-71541902D01*
X74212084Y-71554875D01*
X74212081Y-71554877D01*
X74204203Y-71558286D01*
X74197530Y-71563689D01*
X74197526Y-71563692D01*
X74193442Y-71566999D01*
X74174856Y-71579488D01*
X74168511Y-71582976D01*
X74168507Y-71582979D01*
X74162724Y-71586158D01*
X74157028Y-71591074D01*
X74156975Y-71591120D01*
X74156449Y-71591359D01*
X74152302Y-71594241D01*
X74151775Y-71593482D01*
X74092336Y-71620486D01*
X74022082Y-71610243D01*
X73968518Y-71563645D01*
X73956438Y-71539344D01*
X73947152Y-71514174D01*
X73942873Y-71502575D01*
X73931988Y-71484279D01*
X73837716Y-71325821D01*
X73837715Y-71325820D01*
X73834762Y-71320856D01*
X73695345Y-71161881D01*
X73529292Y-71030976D01*
X73524181Y-71028287D01*
X73524178Y-71028285D01*
X73429362Y-70978400D01*
X73342164Y-70932523D01*
X73140227Y-70869820D01*
X73048868Y-70859007D01*
X72983571Y-70831137D01*
X72943707Y-70772388D01*
X72939443Y-70754893D01*
X72935410Y-70731052D01*
X72935409Y-70731049D01*
X72933976Y-70722576D01*
X72930420Y-70715018D01*
X72930395Y-70714943D01*
X72928744Y-70706756D01*
X72916411Y-70682550D01*
X72900701Y-70651719D01*
X72898960Y-70648164D01*
X72897611Y-70645296D01*
X72872673Y-70592301D01*
X72867211Y-70585973D01*
X72867174Y-70585919D01*
X72863379Y-70578470D01*
X72857565Y-70572147D01*
X72821579Y-70533012D01*
X72818948Y-70530059D01*
X72784210Y-70489816D01*
X72784206Y-70489812D01*
X72778594Y-70483311D01*
X72771632Y-70478686D01*
X72771588Y-70478649D01*
X72765924Y-70472488D01*
X72713444Y-70439949D01*
X72710112Y-70437811D01*
X72680452Y-70418105D01*
X72658672Y-70403634D01*
X72650728Y-70401053D01*
X72650659Y-70401021D01*
X72643558Y-70396618D01*
X72584232Y-70379383D01*
X72580457Y-70378221D01*
X72529912Y-70361798D01*
X72521741Y-70359143D01*
X72514733Y-70358850D01*
X72511642Y-70358293D01*
X72505296Y-70356449D01*
X72498712Y-70355966D01*
X72498709Y-70355965D01*
X72497404Y-70355869D01*
X72497391Y-70355869D01*
X72495096Y-70355700D01*
X72442234Y-70355700D01*
X72436957Y-70355589D01*
X72426269Y-70355141D01*
X72377889Y-70353113D01*
X72369525Y-70355075D01*
X72368824Y-70355141D01*
X72356968Y-70355700D01*
X71770959Y-70355700D01*
X71702838Y-70335698D01*
X71656345Y-70282042D01*
X71646241Y-70211768D01*
X71675735Y-70147188D01*
X71681864Y-70140605D01*
X71733365Y-70089104D01*
X71774242Y-70061790D01*
X71817892Y-70043709D01*
X71894841Y-70011836D01*
X72001913Y-69929677D01*
X72013736Y-69920605D01*
X72020282Y-69915582D01*
X72025409Y-69908901D01*
X72074015Y-69845555D01*
X72116536Y-69790141D01*
X72177044Y-69644062D01*
X72191395Y-69535054D01*
X72220117Y-69470127D01*
X72279382Y-69431035D01*
X72316317Y-69425500D01*
X77008441Y-69425500D01*
X77076562Y-69445502D01*
G37*
%TD.AperFunction*%
%TA.AperFunction,NonConductor*%
G36*
X77360954Y-72557508D02*
G01*
X77407447Y-72611164D01*
X77417551Y-72681438D01*
X77388057Y-72746018D01*
X77381929Y-72752601D01*
X77122434Y-73012097D01*
X77060121Y-73046122D01*
X77033338Y-73049002D01*
X74489349Y-73049002D01*
X74421228Y-73029000D01*
X74374735Y-72975344D01*
X74364631Y-72905070D01*
X74394125Y-72840490D01*
X74400254Y-72833907D01*
X74659750Y-72574411D01*
X74722062Y-72540385D01*
X74748845Y-72537506D01*
X77292833Y-72537506D01*
X77360954Y-72557508D01*
G37*
%TD.AperFunction*%
M02*
