%TF.GenerationSoftware,KiCad,Pcbnew,(6.0.11-0)*%
%TF.CreationDate,2023-08-08T17:21:04-05:00*%
%TF.ProjectId,dropkick,64726f70-6b69-4636-9b2e-6b696361645f,rev?*%
%TF.SameCoordinates,Original*%
%TF.FileFunction,Soldermask,Top*%
%TF.FilePolarity,Negative*%
%FSLAX46Y46*%
G04 Gerber Fmt 4.6, Leading zero omitted, Abs format (unit mm)*
G04 Created by KiCad (PCBNEW (6.0.11-0)) date 2023-08-08 17:21:04*
%MOMM*%
%LPD*%
G01*
G04 APERTURE LIST*
G04 Aperture macros list*
%AMRoundRect*
0 Rectangle with rounded corners*
0 $1 Rounding radius*
0 $2 $3 $4 $5 $6 $7 $8 $9 X,Y pos of 4 corners*
0 Add a 4 corners polygon primitive as box body*
4,1,4,$2,$3,$4,$5,$6,$7,$8,$9,$2,$3,0*
0 Add four circle primitives for the rounded corners*
1,1,$1+$1,$2,$3*
1,1,$1+$1,$4,$5*
1,1,$1+$1,$6,$7*
1,1,$1+$1,$8,$9*
0 Add four rect primitives between the rounded corners*
20,1,$1+$1,$2,$3,$4,$5,0*
20,1,$1+$1,$4,$5,$6,$7,0*
20,1,$1+$1,$6,$7,$8,$9,0*
20,1,$1+$1,$8,$9,$2,$3,0*%
G04 Aperture macros list end*
%ADD10C,0.010000*%
%ADD11RoundRect,0.140000X0.170000X-0.140000X0.170000X0.140000X-0.170000X0.140000X-0.170000X-0.140000X0*%
%ADD12RoundRect,0.050800X-0.400000X-0.400000X0.400000X-0.400000X0.400000X0.400000X-0.400000X0.400000X0*%
%ADD13RoundRect,0.050800X0.500000X-0.550000X0.500000X0.550000X-0.500000X0.550000X-0.500000X-0.550000X0*%
%ADD14R,0.889000X0.508000*%
%ADD15RoundRect,0.250000X0.475000X-0.250000X0.475000X0.250000X-0.475000X0.250000X-0.475000X-0.250000X0*%
%ADD16RoundRect,0.225000X0.225000X0.250000X-0.225000X0.250000X-0.225000X-0.250000X0.225000X-0.250000X0*%
%ADD17C,3.301600*%
%ADD18R,1.346200X0.279400*%
%ADD19R,0.279400X1.346200*%
%ADD20RoundRect,0.225000X0.250000X-0.225000X0.250000X0.225000X-0.250000X0.225000X-0.250000X-0.225000X0*%
%ADD21RoundRect,0.050800X0.400000X0.400000X-0.400000X0.400000X-0.400000X-0.400000X0.400000X-0.400000X0*%
%ADD22RoundRect,0.135000X-0.185000X0.135000X-0.185000X-0.135000X0.185000X-0.135000X0.185000X0.135000X0*%
%ADD23RoundRect,0.200000X0.200000X0.275000X-0.200000X0.275000X-0.200000X-0.275000X0.200000X-0.275000X0*%
%ADD24R,1.700000X1.700000*%
%ADD25O,1.700000X1.700000*%
%ADD26RoundRect,0.200000X-0.200000X-0.275000X0.200000X-0.275000X0.200000X0.275000X-0.200000X0.275000X0*%
%ADD27RoundRect,0.120800X-0.070000X0.330000X-0.070000X-0.330000X0.070000X-0.330000X0.070000X0.330000X0*%
%ADD28RoundRect,0.120800X0.330000X0.070000X-0.330000X0.070000X-0.330000X-0.070000X0.330000X-0.070000X0*%
%ADD29RoundRect,0.120800X0.070000X-0.330000X0.070000X0.330000X-0.070000X0.330000X-0.070000X-0.330000X0*%
%ADD30RoundRect,0.120800X-0.330000X-0.070000X0.330000X-0.070000X0.330000X0.070000X-0.330000X0.070000X0*%
%ADD31RoundRect,0.050800X1.250000X-1.250000X1.250000X1.250000X-1.250000X1.250000X-1.250000X-1.250000X0*%
%ADD32RoundRect,0.050800X-0.400000X0.400000X-0.400000X-0.400000X0.400000X-0.400000X0.400000X0.400000X0*%
%ADD33RoundRect,0.200000X0.275000X-0.200000X0.275000X0.200000X-0.275000X0.200000X-0.275000X-0.200000X0*%
%ADD34RoundRect,0.050800X-0.700000X0.700000X-0.700000X-0.700000X0.700000X-0.700000X0.700000X0.700000X0*%
%ADD35RoundRect,0.050800X0.950000X-0.550000X0.950000X0.550000X-0.950000X0.550000X-0.950000X-0.550000X0*%
%ADD36RoundRect,0.050800X-0.950000X0.550000X-0.950000X-0.550000X0.950000X-0.550000X0.950000X0.550000X0*%
%ADD37RoundRect,0.140000X0.140000X0.170000X-0.140000X0.170000X-0.140000X-0.170000X0.140000X-0.170000X0*%
%ADD38RoundRect,0.200000X-0.275000X0.200000X-0.275000X-0.200000X0.275000X-0.200000X0.275000X0.200000X0*%
%ADD39C,1.400000*%
%ADD40C,1.070000*%
%ADD41RoundRect,0.050800X-1.300000X2.000000X-1.300000X-2.000000X1.300000X-2.000000X1.300000X2.000000X0*%
%ADD42R,0.350000X0.350000*%
%ADD43RoundRect,0.050800X0.275000X0.600000X-0.275000X0.600000X-0.275000X-0.600000X0.275000X-0.600000X0*%
%ADD44RoundRect,0.050800X-0.500000X0.550000X-0.500000X-0.550000X0.500000X-0.550000X0.500000X0.550000X0*%
%ADD45C,0.700000*%
%ADD46O,0.900000X1.700000*%
%ADD47O,0.900000X2.400000*%
%ADD48RoundRect,0.050800X-0.600000X0.275000X-0.600000X-0.275000X0.600000X-0.275000X0.600000X0.275000X0*%
%ADD49RoundRect,0.250000X0.250000X0.475000X-0.250000X0.475000X-0.250000X-0.475000X0.250000X-0.475000X0*%
%ADD50C,1.397000*%
G04 APERTURE END LIST*
%TO.C,U2*%
G36*
X80410000Y-88580000D02*
G01*
X78610000Y-88580000D01*
X78610000Y-87080000D01*
X80410000Y-87080000D01*
X80410000Y-88580000D01*
G37*
D10*
X80410000Y-88580000D02*
X78610000Y-88580000D01*
X78610000Y-87080000D01*
X80410000Y-87080000D01*
X80410000Y-88580000D01*
G36*
X83060000Y-80230000D02*
G01*
X81560000Y-80230000D01*
X81560000Y-78430000D01*
X83060000Y-78430000D01*
X83060000Y-80230000D01*
G37*
X83060000Y-80230000D02*
X81560000Y-80230000D01*
X81560000Y-78430000D01*
X83060000Y-78430000D01*
X83060000Y-80230000D01*
G36*
X80410000Y-84780000D02*
G01*
X78610000Y-84780000D01*
X78610000Y-83280000D01*
X80410000Y-83280000D01*
X80410000Y-84780000D01*
G37*
X80410000Y-84780000D02*
X78610000Y-84780000D01*
X78610000Y-83280000D01*
X80410000Y-83280000D01*
X80410000Y-84780000D01*
G36*
X80410000Y-90480000D02*
G01*
X78610000Y-90480000D01*
X78610000Y-88980000D01*
X80410000Y-88980000D01*
X80410000Y-90480000D01*
G37*
X80410000Y-90480000D02*
X78610000Y-90480000D01*
X78610000Y-88980000D01*
X80410000Y-88980000D01*
X80410000Y-90480000D01*
G36*
X93610000Y-88580000D02*
G01*
X91810000Y-88580000D01*
X91810000Y-87080000D01*
X93610000Y-87080000D01*
X93610000Y-88580000D01*
G37*
X93610000Y-88580000D02*
X91810000Y-88580000D01*
X91810000Y-87080000D01*
X93610000Y-87080000D01*
X93610000Y-88580000D01*
G36*
X88760000Y-80230000D02*
G01*
X87260000Y-80230000D01*
X87260000Y-78430000D01*
X88760000Y-78430000D01*
X88760000Y-80230000D01*
G37*
X88760000Y-80230000D02*
X87260000Y-80230000D01*
X87260000Y-78430000D01*
X88760000Y-78430000D01*
X88760000Y-80230000D01*
G36*
X88760000Y-93430000D02*
G01*
X87260000Y-93430000D01*
X87260000Y-91630000D01*
X88760000Y-91630000D01*
X88760000Y-93430000D01*
G37*
X88760000Y-93430000D02*
X87260000Y-93430000D01*
X87260000Y-91630000D01*
X88760000Y-91630000D01*
X88760000Y-93430000D01*
G36*
X84960000Y-93430000D02*
G01*
X83460000Y-93430000D01*
X83460000Y-91630000D01*
X84960000Y-91630000D01*
X84960000Y-93430000D01*
G37*
X84960000Y-93430000D02*
X83460000Y-93430000D01*
X83460000Y-91630000D01*
X84960000Y-91630000D01*
X84960000Y-93430000D01*
G36*
X93610000Y-90480000D02*
G01*
X91810000Y-90480000D01*
X91810000Y-88980000D01*
X93610000Y-88980000D01*
X93610000Y-90480000D01*
G37*
X93610000Y-90480000D02*
X91810000Y-90480000D01*
X91810000Y-88980000D01*
X93610000Y-88980000D01*
X93610000Y-90480000D01*
G36*
X84960000Y-80230000D02*
G01*
X83460000Y-80230000D01*
X83460000Y-78430000D01*
X84960000Y-78430000D01*
X84960000Y-80230000D01*
G37*
X84960000Y-80230000D02*
X83460000Y-80230000D01*
X83460000Y-78430000D01*
X84960000Y-78430000D01*
X84960000Y-80230000D01*
G36*
X90660000Y-93430000D02*
G01*
X89160000Y-93430000D01*
X89160000Y-91630000D01*
X90660000Y-91630000D01*
X90660000Y-93430000D01*
G37*
X90660000Y-93430000D02*
X89160000Y-93430000D01*
X89160000Y-91630000D01*
X90660000Y-91630000D01*
X90660000Y-93430000D01*
G36*
X80410000Y-86680000D02*
G01*
X78610000Y-86680000D01*
X78610000Y-85180000D01*
X80410000Y-85180000D01*
X80410000Y-86680000D01*
G37*
X80410000Y-86680000D02*
X78610000Y-86680000D01*
X78610000Y-85180000D01*
X80410000Y-85180000D01*
X80410000Y-86680000D01*
G36*
X90660000Y-80230000D02*
G01*
X89160000Y-80230000D01*
X89160000Y-78430000D01*
X90660000Y-78430000D01*
X90660000Y-80230000D01*
G37*
X90660000Y-80230000D02*
X89160000Y-80230000D01*
X89160000Y-78430000D01*
X90660000Y-78430000D01*
X90660000Y-80230000D01*
G36*
X86860000Y-80230000D02*
G01*
X85360000Y-80230000D01*
X85360000Y-78430000D01*
X86860000Y-78430000D01*
X86860000Y-80230000D01*
G37*
X86860000Y-80230000D02*
X85360000Y-80230000D01*
X85360000Y-78430000D01*
X86860000Y-78430000D01*
X86860000Y-80230000D01*
G36*
X80410000Y-82880000D02*
G01*
X78610000Y-82880000D01*
X78610000Y-81380000D01*
X80410000Y-81380000D01*
X80410000Y-82880000D01*
G37*
X80410000Y-82880000D02*
X78610000Y-82880000D01*
X78610000Y-81380000D01*
X80410000Y-81380000D01*
X80410000Y-82880000D01*
G36*
X93610000Y-84780000D02*
G01*
X91810000Y-84780000D01*
X91810000Y-83280000D01*
X93610000Y-83280000D01*
X93610000Y-84780000D01*
G37*
X93610000Y-84780000D02*
X91810000Y-84780000D01*
X91810000Y-83280000D01*
X93610000Y-83280000D01*
X93610000Y-84780000D01*
G36*
X86860000Y-93430000D02*
G01*
X85360000Y-93430000D01*
X85360000Y-91630000D01*
X86860000Y-91630000D01*
X86860000Y-93430000D01*
G37*
X86860000Y-93430000D02*
X85360000Y-93430000D01*
X85360000Y-91630000D01*
X86860000Y-91630000D01*
X86860000Y-93430000D01*
G36*
X93610000Y-82880000D02*
G01*
X91810000Y-82880000D01*
X91810000Y-81380000D01*
X93610000Y-81380000D01*
X93610000Y-82880000D01*
G37*
X93610000Y-82880000D02*
X91810000Y-82880000D01*
X91810000Y-81380000D01*
X93610000Y-81380000D01*
X93610000Y-82880000D01*
G36*
X93610000Y-86680000D02*
G01*
X91810000Y-86680000D01*
X91810000Y-85180000D01*
X93610000Y-85180000D01*
X93610000Y-86680000D01*
G37*
X93610000Y-86680000D02*
X91810000Y-86680000D01*
X91810000Y-85180000D01*
X93610000Y-85180000D01*
X93610000Y-86680000D01*
G36*
X83060000Y-93430000D02*
G01*
X81560000Y-93430000D01*
X81560000Y-91630000D01*
X83060000Y-91630000D01*
X83060000Y-93430000D01*
G37*
X83060000Y-93430000D02*
X81560000Y-93430000D01*
X81560000Y-91630000D01*
X83060000Y-91630000D01*
X83060000Y-93430000D01*
%TD*%
D11*
%TO.C,C11*%
X103100000Y-68500000D03*
X103100000Y-67540000D03*
%TD*%
D12*
%TO.C,CHG1*%
X83800000Y-47350000D03*
X83800000Y-45850000D03*
%TD*%
D13*
%TO.C,R2*%
X92500000Y-54850000D03*
X92500000Y-53150000D03*
%TD*%
D14*
%TO.C,SW2*%
X102149998Y-51400001D03*
X102149998Y-49799999D03*
X98050002Y-49799999D03*
X98050002Y-51400001D03*
%TD*%
D15*
%TO.C,C2*%
X85600000Y-55750000D03*
X85600000Y-53850000D03*
%TD*%
D16*
%TO.C,C6*%
X80849000Y-60842000D03*
X79299000Y-60842000D03*
%TD*%
D17*
%TO.C,H2*%
X105410000Y-46990000D03*
%TD*%
D18*
%TO.C,U4*%
X85171700Y-62600000D03*
X85171700Y-63099999D03*
X85171700Y-63600001D03*
X85171700Y-64100000D03*
X85171700Y-64599999D03*
X85171700Y-65100000D03*
X85171700Y-65600000D03*
X85171700Y-66100001D03*
X85171700Y-66600000D03*
X85171700Y-67099999D03*
X85171700Y-67600001D03*
X85171700Y-68100000D03*
D19*
X86600000Y-69528300D03*
X87099999Y-69528300D03*
X87600001Y-69528300D03*
X88100000Y-69528300D03*
X88599999Y-69528300D03*
X89100000Y-69528300D03*
X89600000Y-69528300D03*
X90100001Y-69528300D03*
X90600000Y-69528300D03*
X91099999Y-69528300D03*
X91600001Y-69528300D03*
X92100000Y-69528300D03*
D18*
X93528300Y-68100000D03*
X93528300Y-67600001D03*
X93528300Y-67099999D03*
X93528300Y-66600000D03*
X93528300Y-66100001D03*
X93528300Y-65600000D03*
X93528300Y-65100000D03*
X93528300Y-64599999D03*
X93528300Y-64100000D03*
X93528300Y-63600001D03*
X93528300Y-63099999D03*
X93528300Y-62600000D03*
D19*
X92100000Y-61171700D03*
X91600001Y-61171700D03*
X91099999Y-61171700D03*
X90600000Y-61171700D03*
X90100001Y-61171700D03*
X89600000Y-61171700D03*
X89100000Y-61171700D03*
X88599999Y-61171700D03*
X88100000Y-61171700D03*
X87600001Y-61171700D03*
X87099999Y-61171700D03*
X86600000Y-61171700D03*
%TD*%
D11*
%TO.C,C13*%
X103100000Y-70700000D03*
X103100000Y-69740000D03*
%TD*%
D17*
%TO.C,H1*%
X66040000Y-46990000D03*
%TD*%
D20*
%TO.C,C9*%
X89130000Y-59485000D03*
X89130000Y-57935000D03*
%TD*%
D16*
%TO.C,C7*%
X80849000Y-62366000D03*
X79299000Y-62366000D03*
%TD*%
D21*
%TO.C,L2*%
X96600000Y-46050000D03*
X96600000Y-47550000D03*
%TD*%
D22*
%TO.C,R11*%
X88900000Y-52790000D03*
X88900000Y-53810000D03*
%TD*%
D23*
%TO.C,R7*%
X79025000Y-47400000D03*
X77375000Y-47400000D03*
%TD*%
D17*
%TO.C,H4*%
X105410000Y-92710000D03*
%TD*%
D15*
%TO.C,C4*%
X97700000Y-55850000D03*
X97700000Y-53950000D03*
%TD*%
D24*
%TO.C,J1*%
X105700000Y-54950000D03*
D25*
X105700000Y-57490000D03*
X105700000Y-60030000D03*
X105700000Y-62570000D03*
X105700000Y-65110000D03*
X105700000Y-67650000D03*
X105700000Y-70190000D03*
X105700000Y-72730000D03*
X105700000Y-75270000D03*
%TD*%
D26*
%TO.C,R8*%
X71775000Y-47500000D03*
X73425000Y-47500000D03*
%TD*%
D17*
%TO.C,H3*%
X66040000Y-92710000D03*
%TD*%
D13*
%TO.C,R1*%
X81800000Y-70150000D03*
X81800000Y-68450000D03*
%TD*%
D27*
%TO.C,U6*%
X98650000Y-70900000D03*
X99150000Y-70900000D03*
X99650000Y-70900000D03*
X100150000Y-70900000D03*
X100650000Y-70900000D03*
X101150000Y-70900000D03*
D28*
X101900000Y-70150000D03*
X101900000Y-69650000D03*
X101900000Y-69150000D03*
X101900000Y-68650000D03*
X101900000Y-68150000D03*
X101900000Y-67650000D03*
D29*
X101150000Y-66900000D03*
X100650000Y-66900000D03*
X100150000Y-66900000D03*
X99650000Y-66900000D03*
X99150000Y-66900000D03*
X98650000Y-66900000D03*
D30*
X97900000Y-67650000D03*
X97900000Y-68150000D03*
X97900000Y-68650000D03*
X97900000Y-69150000D03*
X97900000Y-69650000D03*
X97900000Y-70150000D03*
D31*
X99900000Y-68900000D03*
%TD*%
D22*
%TO.C,R12*%
X87500000Y-52790000D03*
X87500000Y-53810000D03*
%TD*%
D15*
%TO.C,C3*%
X80000000Y-55150000D03*
X80000000Y-53250000D03*
%TD*%
D11*
%TO.C,C12*%
X97600000Y-66280000D03*
X97600000Y-65320000D03*
%TD*%
D15*
%TO.C,C8*%
X73000000Y-55350000D03*
X73000000Y-53450000D03*
%TD*%
D32*
%TO.C,D2*%
X73450000Y-45700000D03*
X74950000Y-45700000D03*
%TD*%
D33*
%TO.C,R6*%
X98400000Y-47725000D03*
X98400000Y-46075000D03*
%TD*%
D16*
%TO.C,C1*%
X82805000Y-64810000D03*
X81255000Y-64810000D03*
%TD*%
D34*
%TO.C,D1*%
X75450000Y-57700000D03*
X79150000Y-57700000D03*
%TD*%
D35*
%TO.C,X4*%
X82880000Y-60380000D03*
D36*
X82880000Y-62780000D03*
%TD*%
D26*
%TO.C,R9*%
X101575000Y-60200000D03*
X103225000Y-60200000D03*
%TD*%
D37*
%TO.C,C10*%
X99680000Y-61800000D03*
X98720000Y-61800000D03*
%TD*%
D38*
%TO.C,R5*%
X75300000Y-49775000D03*
X75300000Y-51425000D03*
%TD*%
D39*
%TO.C,B1*%
X72900000Y-72000000D03*
D40*
X72900000Y-64500000D03*
D41*
X72900000Y-76410000D03*
X72930000Y-60230000D03*
%TD*%
D42*
%TO.C,U5*%
X98475000Y-60274999D03*
X98475000Y-59625001D03*
X98475000Y-58974999D03*
X98475000Y-58325001D03*
X99925000Y-58325001D03*
X99925000Y-58974999D03*
X99925000Y-59625001D03*
X99925000Y-60274999D03*
%TD*%
D43*
%TO.C,U1*%
X96150000Y-53299900D03*
X95200000Y-53299900D03*
X94250000Y-53299900D03*
X94250000Y-55900100D03*
X96150000Y-55900100D03*
%TD*%
D12*
%TO.C,L1*%
X81800000Y-47250000D03*
X81800000Y-45750000D03*
%TD*%
D44*
%TO.C,R3*%
X83300000Y-68450000D03*
X83300000Y-70150000D03*
%TD*%
D45*
%TO.C,J2*%
X93175000Y-50425000D03*
X92325000Y-50425000D03*
X91475000Y-50425000D03*
X90625000Y-50425000D03*
X89775000Y-50425000D03*
X88925000Y-50425000D03*
X88075000Y-50425000D03*
X87225000Y-50425000D03*
X87225000Y-49075000D03*
X88075000Y-49075000D03*
X88925000Y-49075000D03*
X89775000Y-49075000D03*
X90625000Y-49075000D03*
X91475000Y-49075000D03*
X92325000Y-49075000D03*
X93175000Y-49075000D03*
D46*
X94525000Y-46065000D03*
X85875000Y-46065000D03*
D47*
X94525000Y-49445000D03*
X85875000Y-49445000D03*
%TD*%
D26*
%TO.C,R4*%
X77175000Y-51300000D03*
X78825000Y-51300000D03*
%TD*%
D48*
%TO.C,U3*%
X75299900Y-53150000D03*
X75299900Y-54100000D03*
X75299900Y-55050000D03*
X77900100Y-55050000D03*
X77900100Y-53150000D03*
%TD*%
D26*
%TO.C,R10*%
X101575000Y-61800000D03*
X103225000Y-61800000D03*
%TD*%
D49*
%TO.C,C5*%
X76420000Y-84040000D03*
X74520000Y-84040000D03*
%TD*%
D50*
%TO.C,SW1*%
X70994999Y-45683932D03*
X77244999Y-45683932D03*
%TD*%
M02*
