%TF.GenerationSoftware,KiCad,Pcbnew,(6.0.4-0)*%
%TF.CreationDate,2022-08-01T13:23:05-05:00*%
%TF.ProjectId,dropkick,64726f70-6b69-4636-9b2e-6b696361645f,V3-SAM*%
%TF.SameCoordinates,Original*%
%TF.FileFunction,Soldermask,Top*%
%TF.FilePolarity,Negative*%
%FSLAX46Y46*%
G04 Gerber Fmt 4.6, Leading zero omitted, Abs format (unit mm)*
G04 Created by KiCad (PCBNEW (6.0.4-0)) date 2022-08-01 13:23:05*
%MOMM*%
%LPD*%
G01*
G04 APERTURE LIST*
G04 Aperture macros list*
%AMRoundRect*
0 Rectangle with rounded corners*
0 $1 Rounding radius*
0 $2 $3 $4 $5 $6 $7 $8 $9 X,Y pos of 4 corners*
0 Add a 4 corners polygon primitive as box body*
4,1,4,$2,$3,$4,$5,$6,$7,$8,$9,$2,$3,0*
0 Add four circle primitives for the rounded corners*
1,1,$1+$1,$2,$3*
1,1,$1+$1,$4,$5*
1,1,$1+$1,$6,$7*
1,1,$1+$1,$8,$9*
0 Add four rect primitives between the rounded corners*
20,1,$1+$1,$2,$3,$4,$5,0*
20,1,$1+$1,$4,$5,$6,$7,0*
20,1,$1+$1,$6,$7,$8,$9,0*
20,1,$1+$1,$8,$9,$2,$3,0*%
G04 Aperture macros list end*
%ADD10C,0.010000*%
%ADD11RoundRect,0.050800X0.550000X0.500000X-0.550000X0.500000X-0.550000X-0.500000X0.550000X-0.500000X0*%
%ADD12RoundRect,0.050800X-0.400000X-0.400000X0.400000X-0.400000X0.400000X0.400000X-0.400000X0.400000X0*%
%ADD13RoundRect,0.050800X-0.500000X0.550000X-0.500000X-0.550000X0.500000X-0.550000X0.500000X0.550000X0*%
%ADD14R,0.508000X0.889000*%
%ADD15RoundRect,0.250000X0.475000X-0.250000X0.475000X0.250000X-0.475000X0.250000X-0.475000X-0.250000X0*%
%ADD16RoundRect,0.225000X0.225000X0.250000X-0.225000X0.250000X-0.225000X-0.250000X0.225000X-0.250000X0*%
%ADD17C,3.301600*%
%ADD18R,1.346200X0.279400*%
%ADD19R,0.279400X1.346200*%
%ADD20RoundRect,0.225000X0.250000X-0.225000X0.250000X0.225000X-0.250000X0.225000X-0.250000X-0.225000X0*%
%ADD21RoundRect,0.200000X0.200000X0.275000X-0.200000X0.275000X-0.200000X-0.275000X0.200000X-0.275000X0*%
%ADD22RoundRect,0.250000X-0.250000X-0.475000X0.250000X-0.475000X0.250000X0.475000X-0.250000X0.475000X0*%
%ADD23R,1.700000X1.700000*%
%ADD24O,1.700000X1.700000*%
%ADD25RoundRect,0.200000X-0.200000X-0.275000X0.200000X-0.275000X0.200000X0.275000X-0.200000X0.275000X0*%
%ADD26RoundRect,0.050800X0.500000X-0.550000X0.500000X0.550000X-0.500000X0.550000X-0.500000X-0.550000X0*%
%ADD27RoundRect,0.120800X-0.070000X0.330000X-0.070000X-0.330000X0.070000X-0.330000X0.070000X0.330000X0*%
%ADD28RoundRect,0.120800X0.330000X0.070000X-0.330000X0.070000X-0.330000X-0.070000X0.330000X-0.070000X0*%
%ADD29RoundRect,0.120800X0.070000X-0.330000X0.070000X0.330000X-0.070000X0.330000X-0.070000X-0.330000X0*%
%ADD30RoundRect,0.120800X-0.330000X-0.070000X0.330000X-0.070000X0.330000X0.070000X-0.330000X0.070000X0*%
%ADD31RoundRect,0.050800X1.250000X-1.250000X1.250000X1.250000X-1.250000X1.250000X-1.250000X-1.250000X0*%
%ADD32C,0.700000*%
%ADD33RoundRect,0.050800X-0.500000X1.000000X-0.500000X-1.000000X0.500000X-1.000000X0.500000X1.000000X0*%
%ADD34O,2.501600X1.301600*%
%ADD35RoundRect,0.050800X-1.250000X1.250000X-1.250000X-1.250000X1.250000X-1.250000X1.250000X1.250000X0*%
%ADD36RoundRect,0.050800X-0.550000X-0.500000X0.550000X-0.500000X0.550000X0.500000X-0.550000X0.500000X0*%
%ADD37RoundRect,0.050800X-0.400000X0.400000X-0.400000X-0.400000X0.400000X-0.400000X0.400000X0.400000X0*%
%ADD38RoundRect,0.200000X0.275000X-0.200000X0.275000X0.200000X-0.275000X0.200000X-0.275000X-0.200000X0*%
%ADD39RoundRect,0.050800X-0.700000X0.700000X-0.700000X-0.700000X0.700000X-0.700000X0.700000X0.700000X0*%
%ADD40RoundRect,0.050800X0.950000X-0.550000X0.950000X0.550000X-0.950000X0.550000X-0.950000X-0.550000X0*%
%ADD41RoundRect,0.050800X-0.950000X0.550000X-0.950000X-0.550000X0.950000X-0.550000X0.950000X0.550000X0*%
%ADD42RoundRect,0.200000X-0.275000X0.200000X-0.275000X-0.200000X0.275000X-0.200000X0.275000X0.200000X0*%
%ADD43C,1.400000*%
%ADD44C,1.070000*%
%ADD45RoundRect,0.050800X-1.300000X2.000000X-1.300000X-2.000000X1.300000X-2.000000X1.300000X2.000000X0*%
%ADD46R,0.350000X0.350000*%
%ADD47RoundRect,0.050800X0.275000X0.600000X-0.275000X0.600000X-0.275000X-0.600000X0.275000X-0.600000X0*%
%ADD48RoundRect,0.050800X-0.600000X0.275000X-0.600000X-0.275000X0.600000X-0.275000X0.600000X0.275000X0*%
%ADD49RoundRect,0.250000X0.250000X0.475000X-0.250000X0.475000X-0.250000X-0.475000X0.250000X-0.475000X0*%
%ADD50C,1.397000*%
G04 APERTURE END LIST*
%TO.C,X1*%
G36*
X91719600Y-50316600D02*
G01*
X91219600Y-50316600D01*
X91219600Y-48866600D01*
X91719600Y-48866600D01*
X91719600Y-50316600D01*
G37*
G36*
X91069600Y-50316600D02*
G01*
X90569600Y-50316600D01*
X90569600Y-48866600D01*
X91069600Y-48866600D01*
X91069600Y-50316600D01*
G37*
G36*
X89119600Y-50316600D02*
G01*
X88619600Y-50316600D01*
X88619600Y-48866600D01*
X89119600Y-48866600D01*
X89119600Y-50316600D01*
G37*
G36*
X89769600Y-50316600D02*
G01*
X89269600Y-50316600D01*
X89269600Y-48866600D01*
X89769600Y-48866600D01*
X89769600Y-50316600D01*
G37*
G36*
X90419600Y-50316600D02*
G01*
X89919600Y-50316600D01*
X89919600Y-48866600D01*
X90419600Y-48866600D01*
X90419600Y-50316600D01*
G37*
%TO.C,U2*%
G36*
X94160000Y-82880000D02*
G01*
X91810000Y-82880000D01*
X91810000Y-81380000D01*
X94160000Y-81380000D01*
X94160000Y-82880000D01*
G37*
D10*
X94160000Y-82880000D02*
X91810000Y-82880000D01*
X91810000Y-81380000D01*
X94160000Y-81380000D01*
X94160000Y-82880000D01*
G36*
X83060000Y-80230000D02*
G01*
X81560000Y-80230000D01*
X81560000Y-77880000D01*
X83060000Y-77880000D01*
X83060000Y-80230000D01*
G37*
X83060000Y-80230000D02*
X81560000Y-80230000D01*
X81560000Y-77880000D01*
X83060000Y-77880000D01*
X83060000Y-80230000D01*
G36*
X86860000Y-80230000D02*
G01*
X85360000Y-80230000D01*
X85360000Y-77880000D01*
X86860000Y-77880000D01*
X86860000Y-80230000D01*
G37*
X86860000Y-80230000D02*
X85360000Y-80230000D01*
X85360000Y-77880000D01*
X86860000Y-77880000D01*
X86860000Y-80230000D01*
G36*
X80410000Y-90480000D02*
G01*
X78060000Y-90480000D01*
X78060000Y-88980000D01*
X80410000Y-88980000D01*
X80410000Y-90480000D01*
G37*
X80410000Y-90480000D02*
X78060000Y-90480000D01*
X78060000Y-88980000D01*
X80410000Y-88980000D01*
X80410000Y-90480000D01*
G36*
X80410000Y-82880000D02*
G01*
X78060000Y-82880000D01*
X78060000Y-81380000D01*
X80410000Y-81380000D01*
X80410000Y-82880000D01*
G37*
X80410000Y-82880000D02*
X78060000Y-82880000D01*
X78060000Y-81380000D01*
X80410000Y-81380000D01*
X80410000Y-82880000D01*
G36*
X80410000Y-88580000D02*
G01*
X78060000Y-88580000D01*
X78060000Y-87080000D01*
X80410000Y-87080000D01*
X80410000Y-88580000D01*
G37*
X80410000Y-88580000D02*
X78060000Y-88580000D01*
X78060000Y-87080000D01*
X80410000Y-87080000D01*
X80410000Y-88580000D01*
G36*
X84960000Y-80230000D02*
G01*
X83460000Y-80230000D01*
X83460000Y-77880000D01*
X84960000Y-77880000D01*
X84960000Y-80230000D01*
G37*
X84960000Y-80230000D02*
X83460000Y-80230000D01*
X83460000Y-77880000D01*
X84960000Y-77880000D01*
X84960000Y-80230000D01*
G36*
X90660000Y-80230000D02*
G01*
X89160000Y-80230000D01*
X89160000Y-77880000D01*
X90660000Y-77880000D01*
X90660000Y-80230000D01*
G37*
X90660000Y-80230000D02*
X89160000Y-80230000D01*
X89160000Y-77880000D01*
X90660000Y-77880000D01*
X90660000Y-80230000D01*
G36*
X94160000Y-88580000D02*
G01*
X91810000Y-88580000D01*
X91810000Y-87080000D01*
X94160000Y-87080000D01*
X94160000Y-88580000D01*
G37*
X94160000Y-88580000D02*
X91810000Y-88580000D01*
X91810000Y-87080000D01*
X94160000Y-87080000D01*
X94160000Y-88580000D01*
G36*
X94160000Y-86680000D02*
G01*
X91810000Y-86680000D01*
X91810000Y-85180000D01*
X94160000Y-85180000D01*
X94160000Y-86680000D01*
G37*
X94160000Y-86680000D02*
X91810000Y-86680000D01*
X91810000Y-85180000D01*
X94160000Y-85180000D01*
X94160000Y-86680000D01*
G36*
X88760000Y-80230000D02*
G01*
X87260000Y-80230000D01*
X87260000Y-77880000D01*
X88760000Y-77880000D01*
X88760000Y-80230000D01*
G37*
X88760000Y-80230000D02*
X87260000Y-80230000D01*
X87260000Y-77880000D01*
X88760000Y-77880000D01*
X88760000Y-80230000D01*
G36*
X90660000Y-93980000D02*
G01*
X89160000Y-93980000D01*
X89160000Y-91630000D01*
X90660000Y-91630000D01*
X90660000Y-93980000D01*
G37*
X90660000Y-93980000D02*
X89160000Y-93980000D01*
X89160000Y-91630000D01*
X90660000Y-91630000D01*
X90660000Y-93980000D01*
G36*
X80410000Y-86680000D02*
G01*
X78060000Y-86680000D01*
X78060000Y-85180000D01*
X80410000Y-85180000D01*
X80410000Y-86680000D01*
G37*
X80410000Y-86680000D02*
X78060000Y-86680000D01*
X78060000Y-85180000D01*
X80410000Y-85180000D01*
X80410000Y-86680000D01*
G36*
X80410000Y-84780000D02*
G01*
X78060000Y-84780000D01*
X78060000Y-83280000D01*
X80410000Y-83280000D01*
X80410000Y-84780000D01*
G37*
X80410000Y-84780000D02*
X78060000Y-84780000D01*
X78060000Y-83280000D01*
X80410000Y-83280000D01*
X80410000Y-84780000D01*
G36*
X94160000Y-84780000D02*
G01*
X91810000Y-84780000D01*
X91810000Y-83280000D01*
X94160000Y-83280000D01*
X94160000Y-84780000D01*
G37*
X94160000Y-84780000D02*
X91810000Y-84780000D01*
X91810000Y-83280000D01*
X94160000Y-83280000D01*
X94160000Y-84780000D01*
G36*
X83060000Y-93980000D02*
G01*
X81560000Y-93980000D01*
X81560000Y-91630000D01*
X83060000Y-91630000D01*
X83060000Y-93980000D01*
G37*
X83060000Y-93980000D02*
X81560000Y-93980000D01*
X81560000Y-91630000D01*
X83060000Y-91630000D01*
X83060000Y-93980000D01*
G36*
X94160000Y-90480000D02*
G01*
X91810000Y-90480000D01*
X91810000Y-88980000D01*
X94160000Y-88980000D01*
X94160000Y-90480000D01*
G37*
X94160000Y-90480000D02*
X91810000Y-90480000D01*
X91810000Y-88980000D01*
X94160000Y-88980000D01*
X94160000Y-90480000D01*
G36*
X84960000Y-93980000D02*
G01*
X83460000Y-93980000D01*
X83460000Y-91630000D01*
X84960000Y-91630000D01*
X84960000Y-93980000D01*
G37*
X84960000Y-93980000D02*
X83460000Y-93980000D01*
X83460000Y-91630000D01*
X84960000Y-91630000D01*
X84960000Y-93980000D01*
G36*
X86860000Y-93980000D02*
G01*
X85360000Y-93980000D01*
X85360000Y-91630000D01*
X86860000Y-91630000D01*
X86860000Y-93980000D01*
G37*
X86860000Y-93980000D02*
X85360000Y-93980000D01*
X85360000Y-91630000D01*
X86860000Y-91630000D01*
X86860000Y-93980000D01*
G36*
X88760000Y-93980000D02*
G01*
X87260000Y-93980000D01*
X87260000Y-91630000D01*
X88760000Y-91630000D01*
X88760000Y-93980000D01*
G37*
X88760000Y-93980000D02*
X87260000Y-93980000D01*
X87260000Y-91630000D01*
X88760000Y-91630000D01*
X88760000Y-93980000D01*
%TD*%
D11*
%TO.C,C11*%
X102550000Y-72600000D03*
X100850000Y-72600000D03*
%TD*%
D12*
%TO.C,CHG1*%
X83800000Y-47350000D03*
X83800000Y-45850000D03*
%TD*%
D13*
%TO.C,R2*%
X96560000Y-52280000D03*
X96560000Y-53980000D03*
%TD*%
D14*
%TO.C,SW2*%
X101920001Y-49720002D03*
X100319999Y-49720002D03*
X100319999Y-53819998D03*
X101920001Y-53819998D03*
%TD*%
D15*
%TO.C,C2*%
X86500000Y-55650000D03*
X86500000Y-53750000D03*
%TD*%
D16*
%TO.C,C6*%
X81649000Y-60842000D03*
X80099000Y-60842000D03*
%TD*%
D17*
%TO.C,H2*%
X105410000Y-46990000D03*
%TD*%
D18*
%TO.C,U4*%
X85971700Y-62600000D03*
X85971700Y-63099999D03*
X85971700Y-63600001D03*
X85971700Y-64100000D03*
X85971700Y-64599999D03*
X85971700Y-65100000D03*
X85971700Y-65600000D03*
X85971700Y-66100001D03*
X85971700Y-66600000D03*
X85971700Y-67099999D03*
X85971700Y-67600001D03*
X85971700Y-68100000D03*
D19*
X87400000Y-69528300D03*
X87899999Y-69528300D03*
X88400001Y-69528300D03*
X88900000Y-69528300D03*
X89399999Y-69528300D03*
X89900000Y-69528300D03*
X90400000Y-69528300D03*
X90900001Y-69528300D03*
X91400000Y-69528300D03*
X91899999Y-69528300D03*
X92400001Y-69528300D03*
X92900000Y-69528300D03*
D18*
X94328300Y-68100000D03*
X94328300Y-67600001D03*
X94328300Y-67099999D03*
X94328300Y-66600000D03*
X94328300Y-66100001D03*
X94328300Y-65600000D03*
X94328300Y-65100000D03*
X94328300Y-64599999D03*
X94328300Y-64100000D03*
X94328300Y-63600001D03*
X94328300Y-63099999D03*
X94328300Y-62600000D03*
D19*
X92900000Y-61171700D03*
X92400001Y-61171700D03*
X91899999Y-61171700D03*
X91400000Y-61171700D03*
X90900001Y-61171700D03*
X90400000Y-61171700D03*
X89900000Y-61171700D03*
X89399999Y-61171700D03*
X88900000Y-61171700D03*
X88400001Y-61171700D03*
X87899999Y-61171700D03*
X87400000Y-61171700D03*
%TD*%
D17*
%TO.C,H1*%
X66040000Y-46990000D03*
%TD*%
D20*
%TO.C,C9*%
X89930000Y-59485000D03*
X89930000Y-57935000D03*
%TD*%
D16*
%TO.C,C7*%
X81649000Y-62366000D03*
X80099000Y-62366000D03*
%TD*%
D12*
%TO.C,L2*%
X96800000Y-47650000D03*
X96800000Y-46150000D03*
%TD*%
D21*
%TO.C,R7*%
X79025000Y-47400000D03*
X77375000Y-47400000D03*
%TD*%
D17*
%TO.C,H4*%
X105410000Y-92710000D03*
%TD*%
D22*
%TO.C,C4*%
X96500000Y-55870000D03*
X98400000Y-55870000D03*
%TD*%
D23*
%TO.C,J1*%
X105700000Y-54950000D03*
D24*
X105700000Y-57490000D03*
X105700000Y-60030000D03*
X105700000Y-62570000D03*
X105700000Y-65110000D03*
X105700000Y-67650000D03*
X105700000Y-70190000D03*
X105700000Y-72730000D03*
X105700000Y-75270000D03*
%TD*%
D25*
%TO.C,R8*%
X71775000Y-47500000D03*
X73425000Y-47500000D03*
%TD*%
D17*
%TO.C,H3*%
X66040000Y-92710000D03*
%TD*%
D26*
%TO.C,R1*%
X82600000Y-70150000D03*
X82600000Y-68450000D03*
%TD*%
D27*
%TO.C,U6*%
X99550000Y-70900000D03*
X100050000Y-70900000D03*
X100550000Y-70900000D03*
X101050000Y-70900000D03*
X101550000Y-70900000D03*
X102050000Y-70900000D03*
D28*
X102800000Y-70150000D03*
X102800000Y-69650000D03*
X102800000Y-69150000D03*
X102800000Y-68650000D03*
X102800000Y-68150000D03*
X102800000Y-67650000D03*
D29*
X102050000Y-66900000D03*
X101550000Y-66900000D03*
X101050000Y-66900000D03*
X100550000Y-66900000D03*
X100050000Y-66900000D03*
X99550000Y-66900000D03*
D30*
X98800000Y-67650000D03*
X98800000Y-68150000D03*
X98800000Y-68650000D03*
X98800000Y-69150000D03*
X98800000Y-69650000D03*
X98800000Y-70150000D03*
D31*
X100800000Y-68900000D03*
%TD*%
D15*
%TO.C,C3*%
X80000000Y-55150000D03*
X80000000Y-53250000D03*
%TD*%
D32*
%TO.C,X1*%
X92119600Y-48816600D03*
X88219600Y-48816600D03*
D33*
X90919600Y-46816600D03*
X89419600Y-46816600D03*
D34*
X94069600Y-49716600D03*
X86269600Y-49716600D03*
D35*
X93769600Y-46916600D03*
X86569600Y-46916600D03*
%TD*%
D36*
%TO.C,C12*%
X98400000Y-65500000D03*
X100100000Y-65500000D03*
%TD*%
D15*
%TO.C,C8*%
X73000000Y-55350000D03*
X73000000Y-53450000D03*
%TD*%
D37*
%TO.C,D2*%
X73450000Y-45700000D03*
X74950000Y-45700000D03*
%TD*%
D38*
%TO.C,R6*%
X98700000Y-47725000D03*
X98700000Y-46075000D03*
%TD*%
D16*
%TO.C,C1*%
X83605000Y-64810000D03*
X82055000Y-64810000D03*
%TD*%
D39*
%TO.C,D1*%
X75450000Y-57700000D03*
X79150000Y-57700000D03*
%TD*%
D40*
%TO.C,X4*%
X83680000Y-60380000D03*
D41*
X83680000Y-62780000D03*
%TD*%
D25*
%TO.C,R9*%
X101575000Y-60200000D03*
X103225000Y-60200000D03*
%TD*%
D16*
%TO.C,C10*%
X99975000Y-61800000D03*
X98425000Y-61800000D03*
%TD*%
D42*
%TO.C,R5*%
X75300000Y-49775000D03*
X75300000Y-51425000D03*
%TD*%
D43*
%TO.C,B1*%
X72900000Y-72000000D03*
D44*
X72900000Y-64500000D03*
D45*
X72900000Y-76410000D03*
X72930000Y-60230000D03*
%TD*%
D46*
%TO.C,U5*%
X98475000Y-60274999D03*
X98475000Y-59625001D03*
X98475000Y-58974999D03*
X98475000Y-58325001D03*
X99925000Y-58325001D03*
X99925000Y-58974999D03*
X99925000Y-59625001D03*
X99925000Y-60274999D03*
%TD*%
D47*
%TO.C,U1*%
X94750000Y-52999900D03*
X93800000Y-52999900D03*
X92850000Y-52999900D03*
X92850000Y-55600100D03*
X94750000Y-55600100D03*
%TD*%
D12*
%TO.C,L1*%
X81800000Y-47250000D03*
X81800000Y-45750000D03*
%TD*%
D13*
%TO.C,R3*%
X84100000Y-68450000D03*
X84100000Y-70150000D03*
%TD*%
D25*
%TO.C,R4*%
X77175000Y-51300000D03*
X78825000Y-51300000D03*
%TD*%
D48*
%TO.C,U3*%
X75299900Y-53150000D03*
X75299900Y-54100000D03*
X75299900Y-55050000D03*
X77900100Y-55050000D03*
X77900100Y-53150000D03*
%TD*%
D25*
%TO.C,R10*%
X101575000Y-61800000D03*
X103225000Y-61800000D03*
%TD*%
D49*
%TO.C,C5*%
X76420000Y-84040000D03*
X74520000Y-84040000D03*
%TD*%
D50*
%TO.C,SW1*%
X70994999Y-45683932D03*
X77244999Y-45683932D03*
%TD*%
M02*
