%TF.GenerationSoftware,KiCad,Pcbnew,(6.0.11-0)*%
%TF.CreationDate,2023-08-12T13:13:46-05:00*%
%TF.ProjectId,dropkick,64726f70-6b69-4636-9b2e-6b696361645f,rev?*%
%TF.SameCoordinates,Original*%
%TF.FileFunction,Soldermask,Bot*%
%TF.FilePolarity,Negative*%
%FSLAX46Y46*%
G04 Gerber Fmt 4.6, Leading zero omitted, Abs format (unit mm)*
G04 Created by KiCad (PCBNEW (6.0.11-0)) date 2023-08-12 13:13:46*
%MOMM*%
%LPD*%
G01*
G04 APERTURE LIST*
G04 Aperture macros list*
%AMRoundRect*
0 Rectangle with rounded corners*
0 $1 Rounding radius*
0 $2 $3 $4 $5 $6 $7 $8 $9 X,Y pos of 4 corners*
0 Add a 4 corners polygon primitive as box body*
4,1,4,$2,$3,$4,$5,$6,$7,$8,$9,$2,$3,0*
0 Add four circle primitives for the rounded corners*
1,1,$1+$1,$2,$3*
1,1,$1+$1,$4,$5*
1,1,$1+$1,$6,$7*
1,1,$1+$1,$8,$9*
0 Add four rect primitives between the rounded corners*
20,1,$1+$1,$2,$3,$4,$5,0*
20,1,$1+$1,$4,$5,$6,$7,0*
20,1,$1+$1,$6,$7,$8,$9,0*
20,1,$1+$1,$8,$9,$2,$3,0*%
G04 Aperture macros list end*
%ADD10R,1.700000X1.700000*%
%ADD11O,1.700000X1.700000*%
%ADD12C,3.301600*%
%ADD13C,0.700000*%
%ADD14O,0.900000X2.400000*%
%ADD15O,0.900000X1.700000*%
%ADD16C,1.070000*%
%ADD17C,1.400000*%
%ADD18RoundRect,0.050800X-0.750000X0.350000X-0.750000X-0.350000X0.750000X-0.350000X0.750000X0.350000X0*%
%ADD19RoundRect,0.050800X0.700000X0.900000X-0.700000X0.900000X-0.700000X-0.900000X0.700000X-0.900000X0*%
%ADD20RoundRect,0.050800X-0.950000X0.700000X-0.950000X-0.700000X0.950000X-0.700000X0.950000X0.700000X0*%
%ADD21R,0.650000X2.760000*%
%ADD22R,0.650000X2.750000*%
%ADD23R,1.092200X2.006600*%
%ADD24C,1.397000*%
%ADD25RoundRect,0.050800X-2.300000X0.500000X-2.300000X-0.500000X2.300000X-0.500000X2.300000X0.500000X0*%
%ADD26RoundRect,0.050800X1.700000X0.800000X-1.700000X0.800000X-1.700000X-0.800000X1.700000X-0.800000X0*%
G04 APERTURE END LIST*
D10*
%TO.C,J3*%
X106000000Y-54850000D03*
D11*
X106000000Y-57390000D03*
X106000000Y-59930000D03*
X106000000Y-62470000D03*
X106000000Y-65010000D03*
X106000000Y-67550000D03*
X106000000Y-70090000D03*
X106000000Y-72630000D03*
X106000000Y-75170000D03*
%TD*%
D12*
%TO.C,H2*%
X105410000Y-46990000D03*
%TD*%
%TO.C,H1*%
X66040000Y-46990000D03*
%TD*%
D13*
%TO.C,J1*%
X93175000Y-50425000D03*
X92325000Y-50425000D03*
X91475000Y-50425000D03*
X90625000Y-50425000D03*
X89775000Y-50425000D03*
X88925000Y-50425000D03*
X88075000Y-50425000D03*
X87225000Y-50425000D03*
X87225000Y-49075000D03*
X88075000Y-49075000D03*
X88925000Y-49075000D03*
X89775000Y-49075000D03*
X90625000Y-49075000D03*
X91475000Y-49075000D03*
X92325000Y-49075000D03*
X93175000Y-49075000D03*
D14*
X85875000Y-49445000D03*
X94525000Y-49445000D03*
D15*
X85875000Y-46065000D03*
X94525000Y-46065000D03*
%TD*%
D12*
%TO.C,H3*%
X66040000Y-92710000D03*
%TD*%
D16*
%TO.C,B1*%
X72900000Y-64500000D03*
D17*
X72900000Y-72000000D03*
%TD*%
D18*
%TO.C,X1*%
X69040000Y-66700000D03*
X69440000Y-67800000D03*
X69040000Y-68900000D03*
X68640000Y-70000000D03*
X69040000Y-71100000D03*
X68640000Y-72200000D03*
X69040000Y-73300000D03*
X69040000Y-74400000D03*
D19*
X79240000Y-73700000D03*
X79240000Y-67700000D03*
D20*
X66140000Y-75300000D03*
X65240000Y-62100000D03*
%TD*%
D21*
%TO.C,J4*%
X95060000Y-53670000D03*
X95060000Y-57730000D03*
X96330000Y-53670000D03*
D22*
X96330000Y-57730000D03*
D21*
X97600000Y-53670000D03*
X97600000Y-57730000D03*
X98870000Y-53670000D03*
X98870000Y-57730000D03*
X100140000Y-53670000D03*
X100140000Y-57730000D03*
%TD*%
D23*
%TO.C,SW1*%
X71120000Y-49784000D03*
X73120001Y-49784000D03*
X75120002Y-49784000D03*
D24*
X70994999Y-45683932D03*
X77244999Y-45683932D03*
%TD*%
D25*
%TO.C,J2*%
X68200000Y-57200000D03*
X68200000Y-55200000D03*
D26*
X73400000Y-59600000D03*
X73400000Y-52800000D03*
%TD*%
M02*
