%TF.GenerationSoftware,KiCad,Pcbnew,(6.0.1-0)*%
%TF.CreationDate,2022-03-15T17:07:28-05:00*%
%TF.ProjectId,dropkick,64726f70-6b69-4636-9b2e-6b696361645f,rev?*%
%TF.SameCoordinates,Original*%
%TF.FileFunction,Soldermask,Bot*%
%TF.FilePolarity,Negative*%
%FSLAX46Y46*%
G04 Gerber Fmt 4.6, Leading zero omitted, Abs format (unit mm)*
G04 Created by KiCad (PCBNEW (6.0.1-0)) date 2022-03-15 17:07:28*
%MOMM*%
%LPD*%
G01*
G04 APERTURE LIST*
G04 Aperture macros list*
%AMRoundRect*
0 Rectangle with rounded corners*
0 $1 Rounding radius*
0 $2 $3 $4 $5 $6 $7 $8 $9 X,Y pos of 4 corners*
0 Add a 4 corners polygon primitive as box body*
4,1,4,$2,$3,$4,$5,$6,$7,$8,$9,$2,$3,0*
0 Add four circle primitives for the rounded corners*
1,1,$1+$1,$2,$3*
1,1,$1+$1,$4,$5*
1,1,$1+$1,$6,$7*
1,1,$1+$1,$8,$9*
0 Add four rect primitives between the rounded corners*
20,1,$1+$1,$2,$3,$4,$5,0*
20,1,$1+$1,$4,$5,$6,$7,0*
20,1,$1+$1,$6,$7,$8,$9,0*
20,1,$1+$1,$8,$9,$2,$3,0*%
G04 Aperture macros list end*
%ADD10C,3.301600*%
%ADD11R,1.700000X1.700000*%
%ADD12O,1.700000X1.700000*%
%ADD13C,0.700000*%
%ADD14O,2.501600X1.301600*%
%ADD15RoundRect,0.050800X-1.250000X1.250000X-1.250000X-1.250000X1.250000X-1.250000X1.250000X1.250000X0*%
%ADD16C,1.400000*%
%ADD17C,1.070000*%
%ADD18RoundRect,0.050800X-0.750000X0.350000X-0.750000X-0.350000X0.750000X-0.350000X0.750000X0.350000X0*%
%ADD19RoundRect,0.050800X0.700000X0.900000X-0.700000X0.900000X-0.700000X-0.900000X0.700000X-0.900000X0*%
%ADD20RoundRect,0.050800X-0.950000X0.700000X-0.950000X-0.700000X0.950000X-0.700000X0.950000X0.700000X0*%
%ADD21RoundRect,0.050800X-2.300000X0.500000X-2.300000X-0.500000X2.300000X-0.500000X2.300000X0.500000X0*%
%ADD22RoundRect,0.050800X1.700000X0.800000X-1.700000X0.800000X-1.700000X-0.800000X1.700000X-0.800000X0*%
%ADD23R,1.092200X2.006600*%
%ADD24C,1.397000*%
%ADD25R,0.650000X2.760000*%
%ADD26R,0.650000X2.750000*%
G04 APERTURE END LIST*
D10*
%TO.C,H2*%
X105410000Y-46990000D03*
%TD*%
%TO.C,H1*%
X66040000Y-46990000D03*
%TD*%
%TO.C,H4*%
X105410000Y-92710000D03*
%TD*%
D11*
%TO.C,J1*%
X105700000Y-54950000D03*
D12*
X105700000Y-57490000D03*
X105700000Y-60030000D03*
X105700000Y-62570000D03*
X105700000Y-65110000D03*
X105700000Y-67650000D03*
X105700000Y-70190000D03*
X105700000Y-72730000D03*
X105700000Y-75270000D03*
%TD*%
D10*
%TO.C,H3*%
X66040000Y-92710000D03*
%TD*%
D13*
%TO.C,X1*%
X92119600Y-48816600D03*
X88219600Y-48816600D03*
D14*
X94069600Y-49716600D03*
X86269600Y-49716600D03*
D15*
X93769600Y-46916600D03*
X86569600Y-46916600D03*
%TD*%
D16*
%TO.C,B1*%
X72900000Y-72000000D03*
D17*
X72900000Y-64500000D03*
%TD*%
D18*
%TO.C,X3*%
X69540000Y-66730000D03*
X69940000Y-67830000D03*
X69540000Y-68930000D03*
X69140000Y-70030000D03*
X69540000Y-71130000D03*
X69140000Y-72230000D03*
X69540000Y-73330000D03*
X69540000Y-74430000D03*
D19*
X79740000Y-73730000D03*
X79740000Y-67730000D03*
D20*
X66640000Y-75330000D03*
X65740000Y-62130000D03*
%TD*%
D21*
%TO.C,X2*%
X68250000Y-57230000D03*
X68250000Y-55230000D03*
D22*
X73450000Y-59630000D03*
X73450000Y-52830000D03*
%TD*%
D23*
%TO.C,SW1*%
X71120000Y-49784000D03*
X73120001Y-49784000D03*
X75120002Y-49784000D03*
D24*
X70994999Y-45683932D03*
X77244999Y-45683932D03*
%TD*%
D25*
%TO.C,JP1*%
X95120000Y-53690000D03*
X95120000Y-57750000D03*
X96390000Y-53690000D03*
D26*
X96390000Y-57750000D03*
D25*
X97660000Y-53690000D03*
X97660000Y-57750000D03*
X98930000Y-53690000D03*
X98930000Y-57750000D03*
X100200000Y-53690000D03*
X100200000Y-57750000D03*
%TD*%
M02*
